<?xml version="1.0" encoding="utf-8"?>
<!-- Generator: Adobe Illustrator 18.1.1, SVG Export Plug-In . SVG Version: 6.00 Build 0)  -->
<!DOCTYPE svg PUBLIC "-//W3C//DTD SVG 1.1//EN" "http://www.w3.org/Graphics/SVG/1.1/DTD/svg11.dtd">
<svg version="1.1" xmlns="http://www.w3.org/2000/svg" xmlns:xlink="http://www.w3.org/1999/xlink" x="0px" y="0px"
	 viewBox="0 0 500 500" enable-background="new 0 0 500 500" xml:space="preserve">
<g id="background" display="none">
	<rect x="-8.7" y="-10.7" display="inline" fill="#414042" width="517.7" height="518.3"/>
</g>
<g id="art">
	<circle fill="none" stroke="#FFFFFF" stroke-miterlimit="10" cx="703.4" cy="212.9" r="164.1"/>
	<path fill="none" d="M703.4,213C703.4,212.9,703.5,212.9,703.4,213C703.5,212.9,703.4,212.9,703.4,213
		C703.4,212.9,703.4,212.9,703.4,213z"/>
	<path id="SVGID_x5F_1_x5F_" fill="none" d="M843.5,212.9c0,77.4-62.7,140.1-140.1,140.1s-140.1-62.7-140.1-140.1
		S626.1,72.8,703.4,72.8S843.5,135.6,843.5,212.9z"/>
	<text>	<textPath  xlink:href="#SVGID_x5F_1_x5F_" startOffset="100%">
<tspan  fill="#FFFFFF" font-family="'RobotoSlab-Regular'" font-size="37.5922" letter-spacing="50">Colorado</tspan>	</textPath>
</text>
	<path id="SVGID_x5F_2_x5F_" fill="none" d="M563.8,212.9c0-77.1,62.5-139.6,139.6-139.6s139.6,62.5,139.6,139.6
		s-62.5,139.6-139.6,139.6S563.8,290,563.8,212.9z"/>
	<text>	<textPath  xlink:href="#SVGID_x5F_2_x5F_" startOffset="100%">
<tspan  fill="#FFFFFF" font-family="'RobotoSlab-Regular'" font-size="37.4521" letter-spacing="50">Boulder</tspan>	</textPath>
</text>
	<g>
		<path fill="none" stroke="#FFFFFF" stroke-miterlimit="10" d="M703.4,99.6c-62.6,0-113.4,50.8-113.4,113.4
			c0,44.5,25.7,83.1,63.1,101.6c3-23,7.9-45.7,14.9-64.9l13.6-8.8c0,0-12.1,23.9-18.2,78.2c12.4,4.7,25.9,7.3,40,7.3
			c62.6,0,113.4-50.8,113.4-113.4C816.8,150.3,766.1,99.6,703.4,99.6z"/>
		<g>
			<path fill="#FFFFFF" d="M667.7,250.1c-7.1,19.2-11.9,41.9-14.9,64.9c3.3,1.7,6.8,3.2,10.3,4.5c6.1-54.3,18.2-78.2,18.2-78.2
				L667.7,250.1z"/>
			<g>
				<path fill="#FFFFFF" d="M682.4,211.8c-7.7,1.9-13.1,28.7-13.1,28.7c2.4,0.2,20-14.7,23-18.9
					C695.5,217.3,690.1,209.9,682.4,211.8z"/>
				<path fill="#FFFFFF" d="M718.4,190.6c-8.1-2.1-24.8,18-24.8,18c2.2,1.3,24.9-2.7,29.5-4.9C728,201.7,726.6,192.7,718.4,190.6z"
					/>
				<path fill="#FFFFFF" d="M705.5,180.5c2.4-4.9-4.1-11.2-11.2-7.7c-7.3,3.6-7.9,30.9-7.9,30.9
					C688.7,203.4,703.2,185.4,705.5,180.5z"/>
				<path fill="#FFFFFF" d="M723.1,155.1c-7.6,2-12.9,27.7-13.1,28.8c0.7-1,20.7-16.2,23-19.2C736.2,160.5,730.9,153,723.1,155.1z"
					/>
				<path fill="#FFFFFF" d="M718.9,138.7c1.1-5.4-6.6-9.9-12.6-4.6c-6.2,5.5-0.2,32.5-0.2,32.5C708.5,165.7,717.9,144,718.9,138.7z"
					/>
				<path fill="#FFFFFF" d="M736.4,121.6c-7.9,2.2-13.1,28.9-13.1,28.9c-0.5,0,20.8-16.1,23-19.1C749.5,127,744.3,119.4,736.4,121.6
					z"/>
			</g>
		</g>
	</g>
	<circle fill="none" stroke="#FFFFFF" stroke-miterlimit="10" cx="148.4" cy="149.6" r="164.1"/>
	<path fill="none" d="M148.3,149.6C148.4,149.6,148.4,149.6,148.3,149.6C148.4,149.6,148.4,149.6,148.3,149.6
		C148.3,149.6,148.3,149.6,148.3,149.6z"/>
	<g>
		<path fill="#FFFFFF" d="M126.9,283.2l-2.5-0.6l0.2-3.8c-0.4-0.7-1-1.3-1.8-1.9c-0.7-0.6-1.7-1-2.9-1.2c-2.7-0.6-5-0.2-6.9,1.5
			c-1.9,1.6-3.2,3.9-3.9,6.9l-0.1,0.4c-0.7,3-0.6,5.7,0.4,8c1,2.3,2.7,3.8,5.2,4.4c1.2,0.3,2.3,0.3,3.3,0.2c1.1-0.1,1.9-0.4,2.6-0.8
			l1.5-3.5l2.5,0.6l-1.1,4.6c-1,0.8-2.3,1.4-4,1.8c-1.7,0.4-3.5,0.4-5.5-0.1c-3.4-0.8-5.9-2.7-7.4-5.7c-1.6-3-1.9-6.4-1-10.2
			l0.1-0.4c0.9-3.8,2.7-6.7,5.4-8.7c2.7-2,5.8-2.6,9.3-1.8c2,0.5,3.6,1.3,4.9,2.4c1.3,1.1,2.2,2.3,2.8,3.4L126.9,283.2z"/>
		<path fill="#FFFFFF" d="M154.1,290.3c-0.2,3.9-1.4,7.1-3.8,9.5c-2.3,2.5-5.3,3.6-8.8,3.5c-3.4-0.2-6.2-1.6-8.2-4.2
			c-2-2.7-3-5.9-2.8-9.8l0-0.4c0.2-3.9,1.4-7.1,3.7-9.5c2.3-2.5,5.1-3.6,8.6-3.5c3.5,0.2,6.4,1.6,8.5,4.3c2.1,2.7,3.1,6,2.9,9.8
			L154.1,290.3z M150.5,289.8c0.1-3.1-0.5-5.7-1.9-7.7c-1.4-2-3.4-3.1-6-3.2c-2.5-0.1-4.5,0.8-6,2.7c-1.5,1.9-2.3,4.4-2.5,7.5l0,0.4
			c-0.1,3.1,0.5,5.7,1.8,7.7c1.3,2,3.2,3.1,5.8,3.2c2.7,0.1,4.8-0.8,6.3-2.7c1.6-1.9,2.4-4.4,2.5-7.5L150.5,289.8z"/>
		<path fill="#FFFFFF" d="M159.5,303l-0.3-2.3l2.9-0.9l-2.9-20.9l-3-0.1l-0.3-2.3l3-0.4l3.6-0.5l3-0.4l0.3,2.3l-2.9,0.9l2.9,20.9
			l9.2-1.3l-0.1-3.1l3.1-0.4l0.8,5.8L159.5,303z"/>
		<path fill="#FFFFFF" d="M203.1,279.3c1.2,3.7,1.2,7.1-0.2,10.3c-1.3,3.1-3.7,5.3-7,6.4c-3.3,1.1-6.3,0.7-9.2-1
			c-2.8-1.8-4.9-4.5-6.1-8.2l-0.1-0.4c-1.2-3.7-1.2-7.1,0.1-10.2c1.2-3.1,3.5-5.2,6.8-6.3c3.4-1.1,6.5-0.8,9.4,1
			c2.9,1.8,5,4.5,6.2,8.2L203.1,279.3z M199.5,280.1c-1-3-2.5-5.1-4.5-6.5c-2-1.4-4.3-1.7-6.8-0.9c-2.4,0.8-4,2.3-4.7,4.6
			c-0.7,2.3-0.6,4.9,0.3,7.9l0.1,0.4c1,3,2.4,5.2,4.4,6.6c2,1.4,4.1,1.7,6.5,1c2.5-0.8,4.2-2.4,5-4.7c0.8-2.3,0.7-5-0.3-8
			L199.5,280.1z"/>
		<path fill="#FFFFFF" d="M210.1,260.3c2.5-1.4,4.8-1.9,6.8-1.5c2,0.4,3.6,1.6,4.7,3.7c0.6,1.1,0.9,2.3,0.7,3.5
			c-0.1,1.2-0.7,2.4-1.6,3.6c1.5-0.3,2.8-0.1,3.9,0.5c1.1,0.6,2,1.6,2.8,3l1,1.9c0.4,0.7,0.8,1.2,1.2,1.4c0.4,0.2,0.8,0.3,1.2,0.1
			l0.8-0.3l1.1,2.1l-1.7,0.9c-1.2,0.7-2.3,0.7-3.3,0.2c-1-0.6-1.8-1.5-2.5-2.7l-1-1.8c-0.7-1.3-1.6-2.1-2.8-2.5
			c-1.2-0.4-2.4-0.2-3.6,0.5l-5.1,2.8l4.4,8l2.9-1l1.1,2l-8.4,4.6l-1.1-2l2.4-1.9L203.8,267l-2.9,1l-1.1-2l2.6-1.4L210.1,260.3z
			 M211.4,273.2l4.2-2.3c1.8-1,2.9-2,3.3-3.1c0.4-1.1,0.3-2.3-0.4-3.6c-0.7-1.2-1.6-2-2.8-2.3c-1.2-0.3-2.6,0-4.2,0.9l-4.5,2.5
			L211.4,273.2z"/>
		<path fill="#FFFFFF" d="M237.1,272.7l1.3-1.5l-8.6-24.4l2.4-2l22.7,12.4l1.7-1.1l1.5,1.8l-5.8,5l-1.5-1.8l1.3-1.6l-4.5-2.6l-8.1,7
			l1.8,4.9l1.8-1l1.5,1.8l-5.8,5L237.1,272.7z M238.2,260.8l6.4-5.5l-10.6-6l-0.1,0.1L238.2,260.8z"/>
		<path fill="#FFFFFF" d="M248.4,227.4c2.1-2.8,4.7-4.3,7.7-4.7c3-0.4,5.8,0.5,8.5,2.6l2.9,2.2c2.7,2.1,4.3,4.6,4.7,7.6
			c0.4,3-0.5,5.9-2.6,8.6l-6.8,8.9l-1.8-1.4l1.4-2.7l-16.7-12.8l-2.2,2.1l-1.8-1.4l1.8-2.4L248.4,227.4z M247.9,232.8l16.7,12.8
			l2.8-3.6c1.5-2,2.1-4,1.6-6.1c-0.4-2.1-1.6-4-3.7-5.5l-2.9-2.3c-2-1.5-4.1-2.2-6.2-2.1c-2.2,0.1-4,1.2-5.5,3.1L247.9,232.8z"/>
		<path fill="#FFFFFF" d="M279.4,201.1c3.5,1.7,5.9,4.2,7.2,7.3c1.3,3.1,1.2,6.3-0.4,9.5c-1.5,3.1-3.9,5-7.2,5.8
			c-3.3,0.8-6.6,0.3-10.1-1.4l-0.3-0.2c-3.5-1.7-5.9-4.1-7.3-7.2c-1.4-3.1-1.3-6.2,0.2-9.3c1.6-3.2,4-5.2,7.3-6.1
			c3.3-0.9,6.7-0.4,10.2,1.3L279.4,201.1z M277.4,204.2c-2.8-1.4-5.4-1.8-7.8-1.4c-2.4,0.5-4.2,1.9-5.4,4.2c-1.1,2.3-1.1,4.5,0,6.6
			c1.1,2.1,3.1,3.9,5.9,5.3l0.4,0.2c2.8,1.4,5.4,1.9,7.8,1.5c2.4-0.4,4.1-1.7,5.3-4c1.2-2.4,1.2-4.7,0.1-6.9c-1.1-2.2-3.1-4-5.9-5.4
			L277.4,204.2z"/>
	</g>
	<g>
		<path fill="#FFFFFF" d="M18.9,68.2c1.5-2.4,3.1-3.9,5-4.6c1.8-0.7,3.8-0.4,5.8,0.9c1,0.6,1.7,1.5,2.1,2.6c0.4,1.1,0.5,2.3,0.2,3.6
			c1.1-1.2,2.5-1.8,4-2c1.5-0.1,3,0.2,4.4,1.1c2.1,1.3,3.2,2.9,3.5,5c0.3,2-0.3,4.2-1.8,6.5l-6.8,10.9l-2-1.2l1.1-2.8L16.7,77.1
			l-2,2.3l-2-1.2l1.6-2.5L18.9,68.2z M25.8,78.5l3.2-5.1c0.7-1.1,0.9-2.2,0.7-3.3c-0.2-1.1-0.8-1.9-1.9-2.6
			c-1.2-0.8-2.4-0.9-3.5-0.6c-1.1,0.4-2.1,1.3-3,2.8L18.6,74L25.8,78.5z M28.2,80l8.2,5.1l3.3-5.3c0.9-1.4,1.2-2.7,1-3.9
			c-0.2-1.2-0.9-2.2-2.2-3c-1.3-0.8-2.6-1.1-3.7-1c-1.2,0.2-2.2,0.9-3,2.3L28.2,80z"/>
		<path fill="#FFFFFF" d="M54.2,46.1c2.8,2.6,4.4,5.6,4.8,9c0.4,3.4-0.7,6.4-3.1,8.9c-2.3,2.5-5.2,3.7-8.5,3.5
			c-3.3-0.2-6.4-1.6-9.3-4.2l-0.3-0.3c-2.8-2.6-4.5-5.6-4.9-8.9s0.5-6.2,2.9-8.8c2.4-2.6,5.3-3.8,8.7-3.7c3.4,0.1,6.5,1.5,9.3,4.1
			L54.2,46.1z M51.4,48.4c-2.3-2.1-4.6-3.3-7.1-3.5s-4.6,0.6-6.3,2.5c-1.7,1.8-2.3,3.9-1.8,6.3c0.5,2.4,1.9,4.6,4.1,6.7l0.3,0.3
			c2.3,2.1,4.6,3.3,7,3.6c2.4,0.3,4.4-0.5,6.2-2.3c1.8-1.9,2.5-4.1,2.1-6.5c-0.4-2.4-1.8-4.7-4.1-6.8L51.4,48.4z"/>
		<path fill="#FFFFFF" d="M56.5,27.3l1.4,1.9l-2.1,2.2l8.9,12.4c1.2,1.6,2.5,2.5,4.1,2.7c1.5,0.2,3.1-0.3,4.6-1.4
			c1.6-1.1,2.6-2.5,3-4c0.4-1.5,0-3.1-1.2-4.8l-8.8-12.4l-2.7,1.3l-1.4-1.9l5.4-3.8l2.4-1.7l1.4,1.9l-2.1,2.2l8.9,12.4
			c1.7,2.4,2.2,4.7,1.6,7.1c-0.6,2.4-2.2,4.4-4.6,6.2c-2.4,1.7-4.8,2.5-7.1,2.3c-2.4-0.2-4.4-1.5-6.1-3.8l-8.9-12.4L50,34.7
			l-1.4-1.9l2.4-1.7L56.5,27.3z"/>
		<path fill="#FFFFFF" d="M87,38.8l-1-2.1l2.5-1.7l-8.7-19.1l-2.9,0.8l-1-2.1l2.7-1.2l3.3-1.5l2.7-1.2l1,2.1l-2.5,1.7l8.7,19.1
			l8.4-3.8l-1-2.9l2.8-1.3l2.4,5.3L87,38.8z"/>
		<path fill="#FFFFFF" d="M110.6,1.4c3.4-0.9,6.3-0.5,8.9,1.1c2.6,1.6,4.3,4,5.1,7.3l0.9,3.5c0.8,3.3,0.5,6.2-1,8.8
			c-1.5,2.6-4,4.3-7.3,5.1l-10.8,2.7l-0.6-2.2l2.8-1.2l-5.1-20.3l-3,0.2l-0.6-2.3l2.9-0.7L110.6,1.4z M106.8,5.3l5.1,20.3l4.4-1.1
			c2.4-0.6,4.1-1.9,5.1-3.8c1-1.9,1.2-4.1,0.5-6.6l-0.9-3.6c-0.6-2.4-1.8-4.3-3.6-5.5s-3.9-1.5-6.2-0.9L106.8,5.3z"/>
		<path fill="#FFFFFF" d="M129.8,24.2l-0.1-2.3l2.9-0.7l-1.3-20.9l-3-0.3l-0.1-2.3l20.4-1.3l0.4,6.4l-3.1,0.2l-0.5-3.5L134.9,0
			l0.5,8.6L145.6,8l0.2,2.8l-10.2,0.6l0.6,9.5l10.7-0.7l0.1-3.6l3.1-0.2l0.4,6.4L129.8,24.2z"/>
		<path fill="#FFFFFF" d="M167.5-2.1c2.9,0.4,5,1.3,6.4,2.7c1.4,1.5,1.9,3.4,1.6,5.7c-0.2,1.3-0.7,2.4-1.5,3.3c-0.8,0.9-2,1.6-3.4,2
			c1.4,0.7,2.3,1.5,2.8,2.7c0.5,1.1,0.7,2.5,0.5,4.1l-0.3,2.1c-0.1,0.8-0.1,1.4,0.1,1.8c0.2,0.4,0.5,0.7,0.9,0.8l0.9,0.2l-0.3,2.3
			l-1.9-0.2c-1.4-0.2-2.3-0.8-2.8-1.8c-0.5-1-0.6-2.3-0.4-3.6l0.3-2.1c0.2-1.4-0.1-2.6-0.8-3.6c-0.7-1-1.8-1.6-3.2-1.7l-5.7-0.7
			l-1.1,9l2.9,0.9l-0.3,2.3l-9.5-1.2l0.3-2.3l3-0.1l2.6-20.8l-2.9-0.9l0.3-2.3l3,0.4L167.5-2.1z M161,9l4.7,0.6
			c2,0.2,3.5,0.1,4.5-0.6c1-0.6,1.6-1.7,1.8-3.2c0.2-1.4-0.1-2.5-0.9-3.5c-0.8-0.9-2.1-1.5-3.9-1.7L162.1,0L161,9z"/>
	</g>
	<g>
		<path fill="none" stroke="#FFFFFF" stroke-miterlimit="10" d="M99.7,47.2C43.1,74.1,19.1,141.7,46,198.3
			c19.1,40.2,58.9,64,100.6,64.7c-7.2-22.1-12.5-44.6-14.4-65l8.5-13.8c0,0-0.7,26.8,17.2,78.5c13.3-1.1,26.5-4.6,39.3-10.6
			c56.6-26.9,80.6-94.5,53.7-151.1S156.2,20.3,99.7,47.2z"/>
		<g>
			<path fill="#FFFFFF" d="M132,198.5c1.9,20.4,7.2,43,14.4,65c3.7,0.1,7.5-0.1,11.2-0.4c-17.8-51.7-17.2-78.5-17.2-78.5L132,198.5z
				"/>
			<g>
				<path fill="#FFFFFF" d="M128.9,157.6c-6.2,5,0.5,31.6,0.5,31.6c2.2-0.9,11.8-21.9,12.7-27C143.1,156.9,135,152.5,128.9,157.6z"
					/>
				<path fill="#FFFFFF" d="M152.3,123c-8.2,1.6-14.7,26.9-14.7,26.9c2.5,0.2,21.4-13.1,24.6-17.1
					C165.7,128.9,160.6,121.4,152.3,123z"/>
				<path fill="#FFFFFF" d="M136.3,119.5c0-5.4-8.5-8.4-13.4-2.2c-5,6.4,6.2,31.3,6.2,31.3C131,147.3,136.4,124.8,136.3,119.5z"/>
				<path fill="#FFFFFF" d="M141.3,88.9c-6,5.1,0.3,30.5,0.6,31.7c0.2-1.2,11.8-23.5,12.6-27.2C155.5,88.1,147.4,83.7,141.3,88.9z"
					/>
				<path fill="#FFFFFF" d="M130.4,75.9c-1.3-5.3-10.3-6.1-13.4,1.3c-3.2,7.6,13.8,29.4,13.8,29.4
					C132.6,104.8,131.9,81.2,130.4,75.9z"/>
				<path fill="#FFFFFF" d="M138.9,53c-6.2,5.4,0.6,31.7,0.6,31.7c-0.4,0.2,11.9-23.5,12.6-27.1C153.1,52.2,145.1,47.6,138.9,53z"/>
			</g>
		</g>
	</g>
</g>
</svg>
