<?xml version="1.0" encoding="utf-8"?>
<!-- Generator: Adobe Illustrator 16.0.0, SVG Export Plug-In . SVG Version: 6.00 Build 0)  -->
<!DOCTYPE svg PUBLIC "-//W3C//DTD SVG 1.1//EN" "http://www.w3.org/Graphics/SVG/1.1/DTD/svg11.dtd">
<svg version="1.1" id="Layer_1" xmlns="http://www.w3.org/2000/svg" xmlns:xlink="http://www.w3.org/1999/xlink" x="0px" y="0px"
	 width="371.579px" height="207.368px" viewBox="91.343 255.553 371.579 207.368"
	 enable-background="new 91.343 255.553 371.579 207.368" xml:space="preserve">
<g opacity="0.75">
	<path fill="#FFFFFF" d="M229.991,442.637c0-3.707,2.536-6.438,6.243-6.438c3.902,0,6.243,2.927,6.243,6.438
		c0,3.706-2.536,6.438-6.243,6.438S229.991,446.148,229.991,442.637z M241.307,442.637c0-3.122-1.951-5.463-5.072-5.463
		s-5.072,2.341-5.072,5.463c0,3.121,1.951,5.463,5.072,5.463S241.307,445.758,241.307,442.637z"/>
	<path fill="#FFFFFF" d="M245.014,442.637c0-3.902,2.927-6.438,6.633-6.438c2.146,0,3.707,0.976,4.683,2.342l-0.976,0.585
		c-0.78-1.171-2.341-1.756-3.707-1.756c-2.926,0-5.268,2.146-5.268,5.268c0,3.121,2.342,5.463,5.268,5.463
		c1.561,0,3.122-0.78,3.707-1.757l0.976,0.586c-1.17,1.366-2.73,2.341-4.877,2.341C247.94,449.074,245.014,446.539,245.014,442.637z
		"/>
	<path fill="#FFFFFF" d="M261.597,448.88v-11.315h-3.902v-1.171h9.17v1.171h-4.098v11.315H261.597z"/>
	<path fill="#FFFFFF" d="M268.034,442.637c0-3.707,2.537-6.438,6.244-6.438c3.901,0,6.242,2.927,6.242,6.438
		c0,3.706-2.535,6.438-6.242,6.438S268.034,446.148,268.034,442.637z M279.351,442.637c0-3.122-1.951-5.463-5.072-5.463
		c-3.122,0-5.073,2.341-5.073,5.463c0,3.121,1.951,5.463,5.073,5.463C277.399,448.1,279.351,445.758,279.351,442.637z"/>
	<path fill="#FFFFFF" d="M283.643,448.88v-12.486h5.462c2.146,0,3.707,1.171,3.707,3.121c0,1.561-0.975,2.537-2.146,2.731
		c1.367,0.391,2.342,1.562,2.342,3.122c0,2.146-1.365,3.316-3.707,3.316h-5.657V448.88z M291.446,439.71
		c0-1.365-0.976-2.146-2.537-2.146h-3.901v4.292h4.097C290.665,441.856,291.446,440.881,291.446,439.71z M291.642,445.368
		c0-1.171-0.977-2.341-2.537-2.341h-4.097v4.682h4.097C290.665,447.709,291.642,446.733,291.642,445.368z"/>
	<path fill="#FFFFFF" d="M295.933,448.88v-12.486h8.39v1.171H297.3v4.292h7.022v1.171H297.3v4.682h7.022v1.171H295.933
		L295.933,448.88z"/>
	<path fill="#FFFFFF" d="M314.858,448.88l-3.513-5.072h-2.731v5.072h-1.17v-12.486h4.877c2.537,0,3.902,1.561,3.902,3.707
		c0,2.146-1.365,3.512-3.512,3.707l3.707,5.072H314.858z M315.053,440.101c0-1.562-0.976-2.536-2.731-2.536h-3.512v5.072h3.512
		C314.077,442.637,315.053,441.661,315.053,440.101z"/>
	<path fill="#FFFFFF" d="M324.808,448.88v-1.171c5.463-2.536,8.389-5.072,8.389-7.414c0-1.756-1.561-2.926-3.316-2.926
		c-1.951,0-3.512,0.78-4.292,1.951l-0.78-0.781c0.976-1.365,3.121-2.341,5.268-2.341c2.536,0,4.683,1.561,4.683,4.097
		c0,2.927-3.122,5.658-7.22,7.414h6.828v1.171H324.808z"/>
	<path fill="#FFFFFF" d="M337.099,444.002v-1.17h12.096v1.17H337.099z"/>
	<path fill="#FFFFFF" d="M364.997,451.61l-0.585-0.585c0.78-0.585,1.171-1.365,1.365-2.146h-0.194c-0.586,0-0.977-0.391-0.977-0.976
		s0.391-0.976,0.977-0.976c0.584,0,1.17,0.585,1.17,1.365C366.558,449.855,365.973,451.025,364.997,451.61z"/>
	<path fill="#FFFFFF" d="M375.337,448.88v-1.171c5.463-2.536,8.39-5.072,8.39-7.414c0-1.756-1.562-2.926-3.317-2.926
		c-1.95,0-3.512,0.78-4.291,1.951l-0.781-0.781c0.976-1.365,3.122-2.341,5.268-2.341c2.536,0,4.683,1.561,4.683,4.097
		c0,2.927-3.122,5.658-7.219,7.414h6.829v1.171H375.337z"/>
	<path fill="#FFFFFF" d="M393.676,449.074c-3.901,0-5.657-3.316-5.657-6.438c0-3.122,1.561-6.438,5.657-6.438
		c3.902,0,5.658,3.316,5.658,6.438C399.334,445.758,397.578,449.074,393.676,449.074z M393.676,437.369
		c-3.121,0-4.292,2.731-4.292,5.268s1.171,5.268,4.292,5.268c2.927,0,4.098-2.731,4.098-5.268
		C397.969,439.905,396.798,437.369,393.676,437.369z"/>
	<path fill="#FFFFFF" d="M404.406,448.88v-10.73l-2.341,2.536l-0.78-0.78l3.316-3.512h1.17v12.486H404.406z"/>
	<path fill="#FFFFFF" d="M409.284,449.27l0.78-0.78c0.976,1.366,2.341,2.146,4.292,2.146c2.146,0,3.707-1.561,3.707-3.707
		c0-2.341-1.562-3.707-3.707-3.707c-1.366,0-2.536,0.391-3.707,1.561l-0.976-0.39v-7.999h8.78v1.171h-7.414v5.853
		c0.78-0.78,1.95-1.365,3.512-1.365c2.536,0,4.877,1.756,4.877,4.877c0,2.927-2.341,4.877-5.072,4.877
		C411.82,451.806,410.26,450.83,409.284,449.27z"/>
</g>
<g>
	<path fill="#E25926" d="M148.832,288.707c0,0-3.316-0.976-7.609-0.976c-14.827,0-23.412,7.804-23.412,15.216
		c0,6.439,6.829,12.682,22.242,12.682c8.584,0,19.314-0.584,28.873-1.365c5.463-6.438,10.146-12.682,13.462-18.144
		c7.219-12.096,11.511-18.144,16.583-32.971c0.195-0.781,0.977-0.781,0.977-0.781l3.316,0.391c0.779,0,0.779,0.585,0.779,0.585
		c0,0.195,0,0.586-0.391,3.317c-1.17,9.755-3.121,28.484-3.9,46.042c8.389,0.976,8.778,4.097,8.778,4.487
		c0,0-2.146-0.391-3.511-0.391c-1.562,0-3.512,0-5.463,0.195c0,2.927,0,5.657,0,8.194c0,14.826,1.561,27.118,6.633,27.118
		c0.586,0,1.171-0.586,1.171-0.586s0.194,0,0.194,0.196c0,1.561-1.561,2.146-4.097,2.146c-10.535,0-13.462-9.17-13.462-21.851
		c0-4.487,0.391-9.365,0.977-14.438c-6.049,0.586-12.682,1.561-18.926,2.342c-12.29,17.754-28.873,34.141-51.114,34.141
		c-13.461,0-22.436-8.389-22.436-16.582c0-2.342,0.585-3.902,1.561-5.854l0.194,0.195c-0.39,1.17-0.584,2.341-0.584,3.512
		c0,7.804,8.193,12.291,19.314,12.291c13.461,0,30.239-12.486,43.896-26.533c-6.634,0.781-12.682,1.561-17.169,1.561
		c-15.803,0-31.605-4.877-31.605-17.948c0-12.682,15.022-18.339,24.972-18.339c2.732,0,7.023,0.585,9.95,1.951L148.832,288.707z
		 M175.949,313.679c6.438-0.585,11.901-0.976,15.413-1.171c1.561-11.901,3.901-24.582,4.683-34.532
		C191.752,284.219,185.314,298.852,175.949,313.679z"/>
	<path fill="#E25926" d="M205.409,344.504c-0.976,0-2.146-0.195-2.146-0.781c0-0.194,0-0.39,0.194-0.584
		c4.878-6.244,8.585-17.364,9.56-24.777c-1.951-1.756-2.926-5.073-2.926-8c0-3.512,1.365-6.633,4.097-6.633
		c2.536,0,3.122,1.756,3.122,3.902c0,1.756-0.391,3.901-0.391,5.657c0,1.562,0.195,2.146,0.78,2.146c0.39,0,0.976-0.39,1.95-0.78
		c2.928-1.951,7.609-6.828,8.195-6.828c1.17,0,2.926,2.146,2.926,3.512c0,0.584-0.195,1.17-0.195,1.17
		c-2.341,4.877-4.877,13.462-4.877,17.949s1.561,7.413,3.512,7.413c1.756,0,3.707-2.146,5.658-7.218c0.194-0.586,0-0.976,1.17-1.756
		c0.195-0.195,0.391-0.195,0.585-0.195c0.195,0,0.195,0.195,0.195,0.39c0,0.195,0,0.39,0,0.39
		c-0.585,5.073-3.901,14.633-10.534,14.633c-4.684,0-6.049-4.877-6.049-10.535s1.365-11.705,2.146-14.437
		c-1.365,0.78-3.317,0.976-5.072,0.976c-0.391,0-0.977,0-1.366,0c-0.78,7.023-5.268,18.924-9.169,24.582
		C206.58,344.309,205.994,344.504,205.409,344.504z"/>
	<path fill="#E25926" d="M242.868,282.073c0,0,0.195,0,0.39,0c1.95,1.366,6.048,1.17,6.048,2.926c0,1.17-1.17,5.658-2.342,11.706
		c5.854-0.78,10.535-1.756,11.902-1.756c0.975,0,2.535,0,2.535,0.78c0,0.585-0.975,0.585-1.365,0.976
		c-0.586,0.976-0.78,1.561-0.78,1.561c-1.562,0.78-7.22,2.926-13.657,4.487c-1.756,8.975-3.512,20.095-3.512,29.46
		c0,6.633,0.781,12.681,3.316,16.388c0,0,0,1.171-1.17,1.171c-5.268-2.537-7.023-12.291-7.023-23.607
		c0-7.023,0.585-15.021,1.561-22.045c-1.951,0.391-3.707,0.391-5.462,0.391c-4.488,0-6.634-2.928-6.634-7.609
		c0-0.781,0.195-2.146,0.78-2.146c0.195,0,0.391,0,0.585,0.39c2.927,1.365,6.829,1.756,10.926,1.756h0.78
		c0.78-4.877,1.561-9.169,2.341-14.827C242.087,282.463,242.478,282.073,242.868,282.073z"/>
	<path fill="#E25926" d="M271.937,317.385c-0.975,1.757-2.146,6.049-3.902,10.73c-4.486,11.121-9.364,16.584-12.875,16.584
		c-3.513,0-6.049-5.268-6.049-15.022c0-7.414,1.365-15.803,2.146-19.51c0,0,0.39-1.171,0.975-1.171c1.562,0,2.928,0,5.268-0.585
		c0.977,0,0.977,0.78,0.977,0.78c-2.146,12.486-3.512,17.559-3.512,26.143c0,3.902,0.585,5.658,1.756,5.658
		c1.95,0,5.268-5.268,8.975-14.047s5.462-18.534,5.852-22.046c0.195-1.952,3.902-3.513,5.268-3.513c0.195,0,0.781,0,0.781,0.391
		c0,0-1.365,5.658-1.365,12.291c0,6.244,5.268,19.51,5.268,26.533c0,6.633-4.684,9.56-9.365,9.56c-4.293,0-8.389-2.536-8.389-7.022
		c0-1.756,0.585-4.293,2.535-4.293c0.391,0,0.586,0,0.977,0.195c-0.195,0.78-0.195,1.365-0.195,1.951
		c0,2.926,2.146,4.486,4.292,4.486c2.146,0,4.487-1.561,4.487-5.072C275.644,333.383,271.937,319.336,271.937,317.385z"/>
	<path fill="#E25926" d="M343.536,340.016c2.146,0,5.268-8.778,7.024-13.461c3.706-8.779,5.462-18.534,5.853-22.045
		c0.195-1.951,3.902-3.512,5.268-3.512c0.195,0,0.78,0,0.78,0.39c0,0-1.366,5.657-1.366,12.291c0,6.243,5.268,19.509,5.268,26.533
		c0,5.071-4.292,7.608-8.193,7.608c-3.902,0-7.805-2.342-7.805-7.219c0-2.536,0.781-5.657,1.367-5.657c0,0,0.194,0,0.194,0.194
		v0.195c0,4.878,2.927,7.805,5.268,7.805c1.756,0,3.122-1.561,3.122-4.878c0-7.023-3.707-19.119-3.707-21.07
		c-0.977,1.756-2.146,6.048-3.902,10.729c-2.926,7.22-6.242,15.998-10.34,15.998c-7.414,0-8.194-16.582-8.389-22.631
		c-4.098,4.487-6.244,16.389-8.194,22.046c0,0.585-0.585,0.78-1.366,0.78c-0.975,0-2.146-0.585-2.341-0.975
		c-0.39-0.781-1.561-0.391-1.561-1.366c0-0.194,0-0.586,0-0.78c0.39-1.756,0.585-6.438,0.976-11.901
		c0-0.585,0.779-10.535,0.779-14.241c0-0.781,0-1.365-0.194-1.365c-2.341,0-4.097,29.849-12.876,29.849
		c-3.316,0-6.633-2.927-7.414-10.729c-2.341,6.047-5.658,10.729-8.975,10.729c-6.047,0-8.584-6.243-8.584-13.656
		c0-10.73,5.268-23.997,13.462-23.997c4.487,0,6.828,2.927,7.413,6.828c1.561,0.391,3.707,1.171,3.707,2.146
		c0,2.536-1.171,10.34-1.171,16.389c0,4.486,0.586,7.803,2.731,7.803c6.243,0,8.39-29.85,11.316-31.605
		c1.17-0.78,2.73-1.365,4.097-1.365c0.976,0,1.755,0.39,1.95,1.561c0.195,2.926,0.195,6.438,0.195,9.755c0,4.097,0,7.999,0,10.145
		c2.732-6.048,6.049-16.192,10.926-20.875c0.195-0.195,0.391-0.195,0.78-0.195c0.976,0,3.901,1.952,3.901,2.927
		c0,0.195,0,0.195,0,0.391c-2.926,6.633-3.121,17.363-3.121,20.095C340.61,333.969,341.196,340.016,343.536,340.016z
		 M302.567,315.239c-1.562-1.951-2.928-2.731-4.098-2.731c-5.268,0-8.975,13.852-8.975,20.68c0,3.512,0.78,6.049,2.537,6.049
		C299.25,339.236,301.786,322.068,302.567,315.239z"/>
</g>
<g opacity="0.75">
	<path fill="#E25926" d="M383.53,331.237c0.391,0,0.781,0,1.172,0c0.195-0.195,0.195-0.39,0.195-0.585c0,0,0.39-0.781,1.17-15.803
		c0-0.195,0-0.391,0-0.391c0.195,0,0.195,0,0.391,0.195c0.195,0.391,1.17,1.756,1.561,2.146c0.195,0.195,0.391,0.391,0.391,0.78
		c0,0.195,0,0.195,0,0.391c-0.586,4.486-1.172,8.975-1.756,13.072c1.17-0.195,2.146-0.391,3.121-0.391
		c0.976,0,1.756,0.975,2.341,1.951c0.195,0.194,0.78,0.194,0.78,0.39c0,0.194,0,0.194-0.194,0.39
		c-0.586,0.195-3.122,0.391-4.683,0.391c-0.391,0-0.586,0-0.781,0c-0.194,0-0.39,0.391-0.39,0.391
		c1.756,2.926,2.731,8.584,2.731,13.656c0,5.463-1.17,10.34-3.512,10.34c-2.535,0-3.316-2.536-3.316-6.047
		c0-5.269,1.561-12.682,1.756-18.145c0,0,0-0.586-0.585-0.781c-0.976-0.194-1.562-0.194-1.952-0.39c0,0.39,0,0.585,0,0.976
		c0,3.707-1.95,7.805-4.877,7.805c-2.926,0-4.096-2.732-4.096-5.658c0-4.098,2.145-8.779,5.268-8.779c2.535,0,2.73,1.756,2.73,2.342
		v0.194c-0.586-0.194-0.976-0.391-1.561-0.391c-2.927,0-4.293,4.097-4.293,7.219c0,2.146,0.586,3.901,1.756,3.901
		c1.562,0,2.537-3.121,2.537-5.853c0-1.561-0.391-2.927-1.172-3.511c0,0,1.172-0.586,1.757-0.781
		C381.97,331.237,382.751,331.237,383.53,331.237z M385.872,336.505c-0.779,7.608-1.365,13.462-1.365,15.607
		c0,2.731,0.195,3.901,0.586,3.901c0.584,0,1.95-6.633,1.95-12.485C387.043,340.797,386.653,338.065,385.872,336.505z"/>
	<path fill="#E25926" d="M401.09,318.556L401.09,318.556c0.78,0.586,2.341,0.391,2.341,1.171c0,0.391-0.39,2.146-0.975,4.486
		c2.146-0.194,4.097-0.584,4.486-0.584c0.391,0,0.976,0,0.976,0.194c0,0.195-0.391,0.195-0.585,0.39
		c-0.195,0.391-0.391,0.586-0.391,0.586c-0.585,0.195-2.731,1.171-5.268,1.756c-0.78,3.512-1.365,7.609-1.365,11.315
		c0,2.536,0.39,4.878,1.17,6.243c0,0,0,0.391-0.39,0.391c-1.951-0.976-2.731-4.683-2.731-8.975c0-2.731,0.195-5.658,0.585-8.389
		c-0.78,0.195-1.366,0.195-2.146,0.195c-1.755,0-2.535-1.171-2.535-2.927c0-0.391,0.194-0.78,0.39-0.78c0,0,0.195,0,0.195,0.194
		c1.17,0.586,2.536,0.586,4.097,0.586h0.391c0.195-1.951,0.585-3.513,0.976-5.658C400.699,318.751,400.895,318.556,401.09,318.556z"
		/>
	<path fill="#E25926" d="M406.162,334.554L406.162,334.554c0.585-1.171,3.122-6.048,4.097-6.048c0.391,0,0.586,0.391,0.586,0.391
		c0.585,0,1.365,0.194,1.365,0.78c-0.39,2.536-0.585,4.877-0.585,7.218c0,1.561,0.195,3.512,1.17,3.512
		c1.171,0,1.951-1.561,2.342-2.536c0,0,0-0.194,0.195-0.194c0.194,0,0.39,0.39,0.39,0.585c0,1.171-0.976,2.536-1.756,3.316
		c-0.585,0.39-1.171,0.585-1.561,0.585c-2.927,0-3.121-4.486-3.121-6.438c0-1.561,0.194-3.121,0.194-3.902
		c0-0.195,0-0.585-0.194-0.585c-0.195,0-1.757,2.927-1.951,3.707c-0.781,1.561-1.171,3.901-1.171,5.462c0,1.171,0,2.146,0,2.146
		c0,0.391,0,0.586-0.195,0.586c0,0-0.194,0-0.194-0.195c-0.586-0.391-1.756-0.977-1.951-1.366c0-1.171,0.585-5.657,0.78-10.535
		h-0.585c-0.195,0-0.195,0-0.195,0c-0.391-0.194-0.195-0.39-0.391-0.39c-0.194,0-0.39,0-0.39-0.195c0,0,0.78-0.195,1.17-0.391
		l0.195-1.171c0.585-8.193,3.121-17.168,5.072-17.168c1.561,0,2.342,1.755,2.342,4.097c0,4.293-2.146,10.73-5.463,13.853
		C406.162,331.627,405.967,333.578,406.162,334.554C405.967,334.554,405.967,334.554,406.162,334.554z M409.674,315.824
		c-1.17,0-2.731,6.438-3.316,12.486c2.342-2.926,3.707-8.584,3.707-11.12C410.064,316.41,409.869,315.824,409.674,315.824z"/>
	<path fill="#E25926" d="M431.135,331.822l0.195-0.195c0.194,0,0.194,0,0.194,0.391c0,0.195,0,0.391,0,0.586
		c0,0.389,0.195,0.389,0.195,0.779l0,0c0,6.438-4.683,9.365-9.17,9.365c-4.097,0-7.804-2.342-7.804-6.828
		c0-3.902,2.146-8.39,5.268-8.39c1.562,0,2.342,1.171,2.342,2.536c0,2.146-1.561,4.878-5.073,6.828
		c0.195,2.731,1.561,3.902,3.317,3.902C423.916,340.602,428.988,336.505,431.135,331.822z M420.015,329.286
		c-1.366,0-2.537,3.317-2.732,6.243c2.146-1.561,3.317-4.098,3.317-5.463C420.6,329.48,420.404,329.286,420.015,329.286z"/>
</g>
<g>
	<path fill="#E25926" d="M178.486,390.156c0,0-0.195,0-0.391,0.391c-3.316,12.29-10.34,35.896-27.509,35.896
		c-14.241,0-20.874-13.461-20.874-29.068c0-21.656,12.875-47.408,37.066-47.408c7.22,0,15.023,5.072,15.023,12.096
		c0,2.536-1.561,4.291-2.342,6.048c-1.365,2.146-4.877,7.999-4.877,7.999s-0.585,0.779-1.17,0.779c-1.757,0-3.512-7.022-3.512-8.778
		c0-2.731,2.341-5.658,2.341-5.658s1.95-2.536,2.341-3.511c0-0.586-2.731-0.977-5.268-0.977c-18.533,0-33.557,25.168-33.557,43.312
		c0,10.34,4.878,18.339,16.584,18.339c11.9,0,22.826-14.047,27.703-48.773c0-0.391,0-0.781,0.195-0.781
		c0.779,0,4.682,2.732,5.072,2.927c0.585,0.586,0.78,1.171,0.78,1.951c0,0.195,0,0.585,0,0.976
		c-1.756,14.242-0.78,37.458-4.878,56.968c7.023,0.391,14.242,0.78,21.07,0.78c7.023,0,13.463-0.39,17.949-2.146
		c0.585-0.195,0.976-0.195,1.171-0.195c0.194,0,0.194,0,0.194,0.195c0,0.976-1.951,1.17-2.146,2.341
		c-1.756,6.243-6.634,8.194-18.144,8.194c-5.854,0-13.853-2.146-21.656-3.707c-0.585,1.756-0.975,3.316-1.561,5.072
		c-2.926,7.805-9.949,13.267-17.168,13.267c-11.121,0-15.998-4.682-15.998-9.949c0-6.634,8.193-14.242,22.631-14.242
		c1.756,0,3.512,0,5.268,0c3.707-14.828,5.658-28.484,6.243-42.336C178.682,390.352,178.682,390.156,178.486,390.156z
		 M171.268,436.784c-3.512-0.586-6.828-0.977-9.756-0.977c-7.218,0-11.9,4.684-11.9,8.975c0,3.122,2.537,5.854,8.779,5.854
		C163.464,450.44,168.731,446.343,171.268,436.784z"/>
	<path fill="#E25926" d="M187.46,424.883c-0.976,0-2.146-0.194-2.146-0.78c0-0.195,0-0.391,0.195-0.585
		c4.877-6.243,8.584-17.364,9.56-24.777c-1.952-1.756-2.927-5.072-2.927-7.999c0-3.512,1.366-6.633,4.098-6.633
		c2.535,0,3.121,1.755,3.121,3.901c0,1.756-0.391,3.902-0.391,5.658c0,1.561,0.195,2.146,0.781,2.146c0.39,0,0.975-0.391,1.95-0.781
		c2.927-1.951,7.608-6.828,8.194-6.828c1.17,0,2.926,2.146,2.926,3.512c0,0.585-0.195,1.17-0.195,1.17
		c-2.341,4.878-4.877,13.462-4.877,17.949s1.561,7.413,3.512,7.413c1.756,0,3.707-2.146,5.658-7.219c0.195-0.584,0-0.975,1.17-1.755
		c0.195-0.195,0.391-0.195,0.586-0.195s0.195,0.195,0.195,0.39c0,0.195,0,0.391,0,0.391c-0.586,5.072-3.902,14.632-10.535,14.632
		c-4.684,0-6.049-4.877-6.049-10.534c0-5.658,1.365-11.706,2.146-14.438c-1.365,0.78-3.316,0.976-5.072,0.976
		c-0.391,0-0.976,0-1.366,0c-0.78,7.023-5.268,18.925-9.169,24.582C188.631,424.688,188.045,424.883,187.46,424.883z"/>
	<path fill="#E25926" d="M260.427,381.572c0.194,0,0.779,0,0.779,0.39c0,0-1.365,5.657-1.365,12.291
		c0,3.512,1.951,7.413,3.707,11.511c5.072-3.316,9.754-6.828,10.729-10.34c0,0-0.78-2.731-0.78-5.854
		c0-1.561,0.195-3.121,0.586-4.682c0.39-1.561,4.097-3.707,6.633-3.707c0.195,0,0.391,0,0.781,0c0.194,0,0.779,0,0.779,0.391
		c0,0-2.342,5.657-3.707,9.754c0,0.781,0,1.756,0,2.731c0,8.194,6.049,15.022,6.049,22.437c0,6.048-4.684,9.755-8.975,9.755
		c-3.512,0-6.634-2.342-6.634-7.414c0-4.098,1.562-8.389,4.878-8.389c0.975,0,0.975,0.39,0.975,0.584
		c-0.975,1.562-2.146,4.684-2.146,7.414c0,2.731,1.171,3.707,2.536,3.707c1.951,0,4.098-1.95,4.098-4.487
		c0-6.438-3.121-12.096-4.293-18.144c-2.926,3.707-6.828,6.438-10.34,8.779c0.781,2.341,1.561,4.683,1.561,6.828
		c0,6.438-4.291,9.561-8.193,9.561c-3.316,0-6.438-2.146-6.438-6.634c0-2.927,3.512-6.048,7.608-8.975
		c-1.365-4.878-3.512-9.755-3.512-11.121c-0.975,1.756-2.146,6.049-3.901,10.731c-2.927,7.218-8.194,14.827-12.291,14.827
		c-2.341,0-4.487-2.731-4.877-9.95c-2.342,5.854-5.463,10.535-8.975,10.535c-6.049,0-8.584-6.243-8.584-13.656
		c0-10.731,5.268-23.997,13.461-23.997c4.487,0,6.828,2.927,7.414,6.828c1.561,0.391,3.707,1.17,3.707,2.146
		c0,2.535-1.171,10.34-1.171,16.388c0,5.268,0.78,7.414,1.755,7.414c2.147,0,5.269-7.219,7.22-11.9
		c3.706-8.78,5.463-18.535,5.853-22.046C255.354,383.133,259.061,381.572,260.427,381.572z M234.869,395.619
		c-1.561-1.951-2.927-2.732-4.098-2.732c-5.268,0-8.975,13.853-8.975,20.681c0,3.512,0.781,6.048,2.537,6.048
		C231.552,419.615,234.088,402.447,234.869,395.619z M256.329,419.811c2.731,0,3.707-1.951,3.707-4.487
		c0-1.17-0.195-2.341-0.586-3.707c-3.121,2.146-5.268,3.902-5.268,6.048C254.183,418.835,255.159,419.811,256.329,419.811z"/>
	<path fill="#E25926" d="M307.054,413.958c0.391-0.781,0.585-0.976,0.781-0.976c0.194,0,0.194,0.39,0.194,0.585v0.195
		c0,0.195,0.585,0.391,0.585,0.391c0,3.901-3.512,11.315-8.193,11.315c-8.975,0-11.901-11.706-11.901-26.144
		c0-22.631,7.804-52.091,13.267-52.091c4.292,0,6.049,4.293,6.049,10.536c0,12.681-7.219,34.142-14.828,46.237
		c0.586,8.779,2.926,15.218,8.389,15.218C302.567,419.226,304.907,419.03,307.054,413.958z M302.177,358.16
		c-3.316,0-9.17,22.241-9.755,39.799c6.438-11.314,10.729-29.459,10.729-36.678C303.347,359.331,302.957,358.16,302.177,358.16z"/>
	<path fill="#E25926" d="M361.485,387.229c0.195-0.195,0.391-0.195,0.781-0.195c0.779,0,2.34,0.976,3.316,1.95
		c0.194,0.195,0.779,0.781,0.779,1.172c0,0,0,0.195-0.195,0.391c-2.73,3.121-4.682,12.681-4.682,21.265
		c0,7.414,1.561,13.852,5.268,13.852c1.366,0,2.927-0.78,5.072-2.926c0,0,0.195,0,0.391,0s0.195,0,0.195,0.194
		c0,4.683-3.707,6.828-7.805,6.828c-7.218,0-8.779-10.534-8.779-18.924c0-3.901,0.391-7.413,0.586-8.975
		c-4.098,4.487-6.243,16.388-8.194,22.046c0,0.585-0.585,0.78-1.365,0.78c-0.976,0-2.146-0.585-2.341-0.976
		c-0.391-0.78-1.561-0.39-1.561-1.365c0-0.195,0-0.585,0-0.78c0.389-1.757,0.584-6.438,0.975-11.901
		c0-0.585,0.78-10.534,0.78-14.241c0-0.78,0-1.366-0.194-1.366c-2.342,0-4.098,29.85-12.877,29.85c-3.316,0-6.633-2.926-7.413-10.73
		c-2.342,6.049-5.657,10.73-8.975,10.73c-6.048,0-8.585-6.243-8.585-13.656c0-10.731,5.268-23.997,13.463-23.997
		c4.486,0,6.828,2.926,7.412,6.828c1.562,0.391,3.707,1.171,3.707,2.146c0,2.536-1.17,10.34-1.17,16.388
		c0,4.487,0.586,7.805,2.73,7.805c6.244,0,8.391-29.851,11.316-31.606c1.171-0.78,2.731-1.365,4.097-1.365
		c0.976,0,1.756,0.391,1.951,1.561c0.194,2.927,0.194,6.438,0.194,9.755c0,4.097,0,7.999,0,10.145
		C353.292,402.057,356.413,391.912,361.485,387.229z M324.808,395.619c-1.561-1.951-2.927-2.732-4.098-2.732
		c-5.268,0-8.975,13.853-8.975,20.681c0,3.512,0.781,6.048,2.537,6.048C321.491,419.615,324.027,402.447,324.808,395.619z"/>
	<path fill="#E25926" d="M394.651,403.618c0,9.364,0.78,18.338,2.927,25.361v0.195c0,0.781-0.976,1.365-1.561,1.365
		c-4.487-2.146-6.828-10.729-7.608-21.654c-2.146,8.193-6.439,15.021-10.73,15.021c-6.438,0-9.17-5.853-9.17-12.877
		c0-15.606,8.975-23.411,14.438-23.411c2.536,0,4.291,1.561,4.291,4.683c0,0.78,0,1.951-0.39,2.927
		c-0.78-0.976-1.755-1.561-2.927-1.561c-4.291,0-9.754,7.414-9.754,19.704c0,4.487,1.17,6.243,2.926,6.243
		c3.902,0,10.145-8.975,10.926-20.29v-0.39c0-20.875,4.683-44.678,12.681-46.238C397.969,364.014,394.651,384.693,394.651,403.618z"
		/>
	<path fill="#E25926" d="M397.578,423.907c0,0-1.951-0.39-1.951-0.976v-0.194c5.853-8.39,12.291-31.411,12.877-37.653
		c0.194-1.951,3.901-3.512,5.268-3.512c0.194,0,0.78,0,0.78,0.39c0,0-1.366,5.657-1.366,12.291c0,3.512,1.561,7.608,2.927,12.291
		c10.73-2.146,26.923,0,37.653-3.901c1.756-0.586,2.341-1.171,2.536-1.171h0.195c0,0.39-2.536,2.146-3.707,3.901
		c-4.487,7.219-10.73,8.975-17.168,8.975c-6.049,0-12.486-1.561-17.754-1.756c0.194,1.562,0.585,3.316,0.585,4.292
		c0,5.073-3.707,7.805-7.219,7.805c-3.121,0-6.243-2.146-6.243-6.829c0-5.072,2.536-7.999,6.438-9.755
		c-0.976-4.486-2.341-8.974-2.341-10.34C406.747,401.666,402.846,417.079,397.578,423.907z M409.674,419.811
		c1.951,0,2.536-1.756,2.536-4.487c0-0.586,0-1.17-0.195-1.756c-3.315,0.976-5.072,2.927-5.072,4.487
		C406.942,419.03,407.918,419.811,409.674,419.811z"/>
</g>
<g opacity="0.75">
	<path fill="#FFFFFF" d="M359.171,449.439v-3.68h-6.391v-1.031l5.985-8.775h1.557v8.755h1.982v1.052h-1.982v3.68H359.171z
		 M359.171,437.105l-5.197,7.603h5.197V437.105z"/>
</g>
</svg>
