<?xml version="1.0" encoding="utf-8"?>
<!-- Generator: Adobe Illustrator 16.0.0, SVG Export Plug-In . SVG Version: 6.00 Build 0)  -->
<!DOCTYPE svg PUBLIC "-//W3C//DTD SVG 1.1//EN" "http://www.w3.org/Graphics/SVG/1.1/DTD/svg11.dtd">
<svg version="1.1" id="Layer_1" xmlns="http://www.w3.org/2000/svg" xmlns:xlink="http://www.w3.org/1999/xlink" x="0px" y="0px"
	 width="371.579px" height="251.764px" viewBox="0 0 371.579 251.764" enable-background="new 0 0 371.579 251.764"
	 xml:space="preserve">
<g opacity="0.75">
	<path fill="#FFFFFF" d="M126.664,188.958c0-3.393,2.319-5.889,5.709-5.889c3.568,0,5.709,2.678,5.709,5.889
		c0,3.389-2.319,5.887-5.709,5.887C128.983,194.842,126.664,192.169,126.664,188.958z M137.012,188.958
		c0-2.854-1.784-4.996-4.638-4.996s-4.639,2.142-4.639,4.996c0,2.854,1.785,4.996,4.639,4.996S137.012,191.81,137.012,188.958z"/>
	<path fill="#FFFFFF" d="M140.402,188.958c0-3.567,2.677-5.889,6.066-5.889c1.962,0,3.39,0.893,4.283,2.143l-0.893,0.535
		c-0.713-1.07-2.14-1.604-3.39-1.604c-2.675,0-4.817,1.963-4.817,4.815c0,2.854,2.142,4.996,4.817,4.996
		c1.427,0,2.855-0.715,3.39-1.604l0.893,0.534c-1.07,1.248-2.497,2.143-4.459,2.143
		C143.078,194.842,140.402,192.526,140.402,188.958z"/>
	<path fill="#FFFFFF" d="M155.566,194.665v-10.347h-3.568v-1.071h8.386v1.071h-3.748v10.347H155.566z"/>
	<path fill="#FFFFFF" d="M161.454,188.958c0-3.393,2.319-5.889,5.709-5.889c3.567,0,5.709,2.678,5.709,5.889
		c0,3.389-2.318,5.887-5.709,5.887C163.772,194.842,161.454,192.169,161.454,188.958z M171.802,188.958
		c0-2.854-1.784-4.996-4.64-4.996c-2.854,0-4.639,2.142-4.639,4.996c0,2.854,1.784,4.996,4.639,4.996
		S171.802,191.81,171.802,188.958z"/>
	<path fill="#FFFFFF" d="M175.727,194.665v-11.418h4.995c1.962,0,3.39,1.071,3.39,2.854c0,1.429-0.892,2.319-1.962,2.498
		c1.25,0.358,2.142,1.427,2.142,2.854c0,1.963-1.248,3.029-3.391,3.029h-5.173L175.727,194.665L175.727,194.665z M182.862,186.28
		c0-1.249-0.892-1.961-2.32-1.961h-3.566v3.925h3.747C182.147,188.243,182.862,187.351,182.862,186.28z M183.042,191.454
		c0-1.07-0.895-2.141-2.32-2.141h-3.747v4.28h3.747C182.147,193.594,183.042,192.702,183.042,191.454z"/>
	<path fill="#FFFFFF" d="M186.965,194.665v-11.418h7.672v1.071h-6.424v3.927h6.424v1.068h-6.424v4.28h6.424v1.072L186.965,194.665
		L186.965,194.665L186.965,194.665z"/>
	<path fill="#FFFFFF" d="M204.272,194.665l-3.213-4.64h-2.498v4.64h-1.068v-11.418h4.459c2.32,0,3.568,1.43,3.568,3.391
		c0,1.964-1.248,3.215-3.211,3.391l3.391,4.642h-1.428V194.665z M204.452,186.635c0-1.426-0.895-2.316-2.498-2.316h-3.213v4.64
		h3.213C203.557,188.958,204.452,188.064,204.452,186.635z"/>
	<path fill="#FFFFFF" d="M213.37,194.665v-1.07c4.998-2.317,7.674-4.637,7.674-6.777c0-1.604-1.43-2.675-3.031-2.675
		c-1.783,0-3.213,0.712-3.928,1.782l-0.711-0.715c0.895-1.248,2.854-2.143,4.814-2.143c2.32,0,4.283,1.43,4.283,3.747
		c0,2.676-2.855,5.174-6.604,6.779h6.242v1.07L213.37,194.665L213.37,194.665z"/>
	<path fill="#FFFFFF" d="M224.61,190.206v-1.07h11.062v1.07H224.61z"/>
	<path fill="#FFFFFF" d="M250.122,197.163l-0.533-0.535c0.713-0.535,1.07-1.248,1.248-1.963h-0.178
		c-0.537,0-0.895-0.354-0.895-0.894c0-0.534,0.357-0.895,0.895-0.895c0.531,0,1.068,0.537,1.068,1.25
		C251.549,195.558,251.014,196.628,250.122,197.163z"/>
	<path fill="#FFFFFF" d="M259.577,194.665v-1.07c4.996-2.317,7.674-4.637,7.674-6.777c0-1.604-1.432-2.675-3.031-2.675
		c-1.785,0-3.213,0.712-3.926,1.782l-0.715-0.715c0.895-1.248,2.854-2.143,4.816-2.143c2.318,0,4.283,1.43,4.283,3.747
		c0,2.676-2.855,5.174-6.602,6.779h6.24v1.07L259.577,194.665L259.577,194.665z"/>
	<path fill="#FFFFFF" d="M276.346,194.842c-3.564,0-5.174-3.032-5.174-5.887c0-2.855,1.43-5.891,5.174-5.891
		c3.568,0,5.174,3.033,5.174,5.891C281.52,191.81,279.915,194.842,276.346,194.842z M276.346,184.14
		c-2.854,0-3.924,2.495-3.924,4.817c0,2.316,1.07,4.813,3.924,4.813c2.676,0,3.748-2.497,3.748-4.813
		C280.274,186.46,279.202,184.14,276.346,184.14z"/>
	<path fill="#FFFFFF" d="M286.161,194.665v-9.812l-2.143,2.318l-0.713-0.713l3.031-3.213h1.072v11.418L286.161,194.665
		L286.161,194.665z"/>
	<path fill="#FFFFFF" d="M290.62,195.022l0.715-0.713c0.893,1.249,2.143,1.961,3.924,1.961c1.965,0,3.393-1.428,3.393-3.391
		c0-2.141-1.43-3.392-3.393-3.392c-1.246,0-2.316,0.359-3.389,1.431l-0.895-0.355v-7.315h8.029v1.071h-6.779v5.354
		c0.713-0.715,1.781-1.25,3.211-1.25c2.318,0,4.461,1.604,4.461,4.461c0,2.679-2.143,4.459-4.639,4.459
		C292.94,197.34,291.512,196.448,290.62,195.022z"/>
</g>
<g>
	<path fill="#E25926" d="M52.448,48.195c0,0-3.032-0.893-6.958-0.893c-13.559,0-21.409,7.137-21.409,13.915
		c0,5.887,6.245,11.597,20.339,11.597c7.85,0,17.662-0.534,26.403-1.248c4.996-5.887,9.278-11.597,12.311-16.592
		c6.601-11.061,10.526-16.592,15.164-30.15c0.179-0.714,0.894-0.714,0.894-0.714l3.032,0.357c0.713,0,0.713,0.536,0.713,0.536
		c0,0.178,0,0.536-0.358,3.033c-1.07,8.921-2.854,26.048-3.566,42.104c7.671,0.891,8.026,3.746,8.026,4.104
		c0,0-1.962-0.357-3.21-0.357c-1.428,0-3.212,0-4.996,0.178c0,2.675,0,5.172,0,7.493c0,13.558,1.428,24.798,6.065,24.798
		c0.536,0,1.071-0.536,1.071-0.536s0.178,0,0.178,0.181c0,1.427-1.428,1.962-3.746,1.962c-9.634,0-12.312-8.385-12.312-19.981
		c0-4.104,0.358-8.563,0.894-13.203c-5.532,0.536-11.597,1.429-17.308,2.143c-11.238,16.232-26.402,31.217-46.74,31.217
		c-12.31,0-20.517-7.67-20.517-15.163c0-2.141,0.535-3.568,1.428-5.354l0.177,0.179c-0.357,1.069-0.535,2.141-0.535,3.211
		c0,7.136,7.493,11.24,17.662,11.24c12.31,0,27.652-11.417,40.141-24.263c-6.066,0.714-11.597,1.428-15.7,1.428
		c-14.451,0-28.901-4.459-28.901-16.413c0-11.599,13.737-16.771,22.836-16.771c2.498,0,6.422,0.535,9.098,1.784L52.448,48.195z
		 M77.246,71.031c5.887-0.534,10.883-0.892,14.094-1.069c1.427-10.884,3.567-22.479,4.283-31.579
		C91.697,44.091,85.81,57.472,77.246,71.031z"/>
	<path fill="#E25926" d="M104.185,99.219c-0.892,0-1.962-0.178-1.962-0.714c0-0.178,0-0.357,0.178-0.534
		c4.459-5.71,7.849-15.879,8.742-22.658c-1.785-1.604-2.677-4.638-2.677-7.314c0-3.211,1.249-6.065,3.748-6.065
		c2.319,0,2.855,1.605,2.855,3.568c0,1.604-0.358,3.565-0.358,5.172c0,1.429,0.179,1.963,0.714,1.963
		c0.355,0,0.891-0.357,1.783-0.714c2.677-1.783,6.958-6.243,7.494-6.243c1.07,0,2.675,1.962,2.675,3.211
		c0,0.534-0.178,1.07-0.178,1.07c-2.141,4.459-4.46,12.31-4.46,16.413c0,4.103,1.427,6.777,3.211,6.777
		c1.605,0,3.39-1.962,5.174-6.601c0.177-0.536,0-0.892,1.069-1.605c0.179-0.178,0.358-0.178,0.536-0.178
		c0.178,0,0.178,0.178,0.178,0.355c0,0.179,0,0.356,0,0.356c-0.535,4.641-3.568,13.381-9.633,13.381
		c-4.283,0-5.531-4.46-5.531-9.634s1.248-10.704,1.963-13.202c-1.249,0.713-3.033,0.893-4.639,0.893c-0.357,0-0.893,0-1.249,0
		c-0.713,6.422-4.818,17.305-8.385,22.479C105.256,99.041,104.721,99.219,104.185,99.219z"/>
	<path fill="#E25926" d="M138.439,42.128c0,0,0.178,0,0.357,0c1.783,1.249,5.53,1.069,5.53,2.675c0,1.07-1.069,5.174-2.142,10.705
		c5.353-0.714,9.634-1.605,10.884-1.605c0.891,0,2.318,0,2.318,0.714c0,0.534-0.892,0.534-1.249,0.893
		c-0.536,0.893-0.712,1.427-0.712,1.427c-1.429,0.713-6.604,2.676-12.489,4.104c-1.606,8.208-3.212,18.377-3.212,26.94
		c0,6.065,0.714,11.597,3.033,14.986c0,0,0,1.07-1.07,1.07c-4.817-2.319-6.422-11.239-6.422-21.589
		c0-6.421,0.536-13.734,1.428-20.158c-1.784,0.356-3.39,0.356-4.994,0.356c-4.104,0-6.067-2.677-6.067-6.957
		c0-0.714,0.179-1.962,0.714-1.962c0.178,0,0.357,0,0.534,0.356c2.677,1.248,6.246,1.605,9.991,1.605h0.714
		c0.713-4.46,1.427-8.385,2.14-13.559C137.725,42.485,138.083,42.128,138.439,42.128z"/>
	<path fill="#E25926" d="M165.021,74.42c-0.892,1.605-1.961,5.531-3.567,9.812c-4.102,10.168-8.563,15.166-11.772,15.166
		c-3.213,0-5.532-4.817-5.532-13.737c0-6.78,1.249-14.452,1.962-17.842c0,0,0.357-1.069,0.892-1.069c1.428,0,2.678,0,4.818-0.536
		c0.893,0,0.893,0.714,0.893,0.714c-1.963,11.418-3.211,16.057-3.211,23.907c0,3.566,0.534,5.174,1.606,5.174
		c1.782,0,4.817-4.817,8.207-12.846c3.39-8.027,4.996-16.949,5.351-20.16c0.18-1.784,3.568-3.212,4.818-3.212
		c0.18,0,0.715,0,0.715,0.356c0,0-1.25,5.174-1.25,11.24c0,5.71,4.818,17.842,4.818,24.263c0,6.066-4.284,8.742-8.564,8.742
		c-3.924,0-7.67-2.318-7.67-6.421c0-1.606,0.534-3.926,2.318-3.926c0.356,0,0.536,0,0.894,0.178
		c-0.179,0.713-0.179,1.249-0.179,1.784c0,2.676,1.962,4.102,3.925,4.102s4.104-1.427,4.104-4.637
		C168.413,89.049,165.021,76.204,165.021,74.42z"/>
	<path fill="#E25926" d="M230.497,95.115c1.963,0,4.816-8.026,6.422-12.31c3.393-8.028,4.996-16.949,5.354-20.159
		c0.18-1.784,3.568-3.211,4.818-3.211c0.178,0,0.713,0,0.713,0.357c0,0-1.25,5.173-1.25,11.238c0,5.709,4.818,17.841,4.818,24.263
		c0,4.639-3.928,6.958-7.492,6.958c-3.568,0-7.137-2.143-7.137-6.602c0-2.318,0.715-5.173,1.25-5.173c0,0,0.178,0,0.178,0.178v0.179
		c0,4.461,2.676,7.138,4.812,7.138c1.605,0,2.855-1.428,2.855-4.461c0-6.422-3.391-17.483-3.391-19.268
		c-0.896,1.604-1.963,5.53-3.568,9.811c-2.676,6.604-5.709,14.63-9.455,14.63c-6.779,0-7.492-15.164-7.672-20.695
		c-3.748,4.104-5.709,14.986-7.492,20.161c0,0.534-0.533,0.712-1.248,0.712c-0.893,0-1.965-0.534-2.143-0.891
		c-0.354-0.714-1.43-0.357-1.43-1.25c0-0.178,0-0.536,0-0.713c0.357-1.606,0.535-5.887,0.895-10.882
		c0-0.536,0.713-9.634,0.713-13.023c0-0.714,0-1.248-0.178-1.248c-2.141,0-3.746,27.295-11.771,27.295
		c-3.033,0-6.064-2.676-6.779-9.811c-2.143,5.529-5.176,9.811-8.209,9.811c-5.529,0-7.85-5.708-7.85-12.487
		c0-9.812,4.818-21.943,12.311-21.943c4.105,0,6.244,2.676,6.779,6.244c1.428,0.356,3.391,1.068,3.391,1.961
		c0,2.319-1.068,9.457-1.068,14.988c0,4.102,0.535,7.135,2.496,7.135c5.709,0,7.672-27.296,10.35-28.901
		c1.068-0.713,2.496-1.249,3.746-1.249c0.895,0,1.605,0.357,1.781,1.429c0.18,2.675,0.18,5.887,0.18,8.92c0,3.747,0,7.313,0,9.276
		c2.5-5.529,5.531-14.807,9.99-19.089c0.18-0.178,0.355-0.178,0.715-0.178c0.895,0,3.566,1.786,3.566,2.677c0,0.179,0,0.179,0,0.357
		c-2.678,6.065-2.855,15.878-2.855,18.376C227.821,89.585,228.356,95.115,230.497,95.115z M193.034,72.457
		c-1.43-1.785-2.68-2.497-3.749-2.497c-4.817,0-8.208,12.666-8.208,18.91c0,3.211,0.713,5.53,2.319,5.53
		C189.999,94.401,192.317,78.702,193.034,72.457z"/>
</g>
<g opacity="0.75">
	<path fill="#E25926" d="M267.069,87.086c0.357,0,0.715,0,1.072,0c0.178-0.18,0.178-0.356,0.178-0.535c0,0,0.357-0.713,1.07-14.451
		c0-0.179,0-0.357,0-0.357c0.178,0,0.178,0,0.357,0.178c0.178,0.357,1.066,1.605,1.426,1.963c0.18,0.178,0.359,0.356,0.359,0.712
		c0,0.179,0,0.179,0,0.358c-0.535,4.102-1.072,8.207-1.605,11.952c1.07-0.177,1.961-0.356,2.854-0.356
		c0.891,0,1.605,0.892,2.141,1.785c0.18,0.177,0.717,0.177,0.717,0.356c0,0.178,0,0.178-0.182,0.356
		c-0.535,0.178-2.854,0.357-4.283,0.357c-0.354,0-0.533,0-0.713,0c-0.178,0-0.355,0.357-0.355,0.357
		c1.605,2.676,2.498,7.85,2.498,12.487c0,4.997-1.066,9.457-3.211,9.457c-2.316,0-3.033-2.32-3.033-5.531
		c0-4.818,1.43-11.596,1.605-16.593c0,0,0-0.535-0.533-0.713c-0.895-0.179-1.43-0.179-1.785-0.356c0,0.356,0,0.534,0,0.892
		c0,3.391-1.783,7.139-4.459,7.139c-2.678,0-3.746-2.499-3.746-5.174c0-3.747,1.961-8.029,4.814-8.029
		c2.32,0,2.498,1.604,2.498,2.142v0.179c-0.537-0.179-0.895-0.358-1.428-0.358c-2.68,0-3.928,3.747-3.928,6.601
		c0,1.963,0.537,3.569,1.605,3.569c1.43,0,2.318-2.854,2.318-5.353c0-1.428-0.355-2.678-1.07-3.211c0,0,1.07-0.536,1.604-0.714
		C265.641,87.086,266.356,87.086,267.069,87.086z M269.209,91.903c-0.713,6.958-1.248,12.312-1.248,14.272
		c0,2.497,0.18,3.568,0.535,3.568c0.535,0,1.785-6.067,1.785-11.418C270.282,95.829,269.924,93.331,269.209,91.903z"/>
	<path fill="#E25926" d="M283.127,75.491L283.127,75.491c0.713,0.535,2.139,0.356,2.139,1.07c0,0.357-0.354,1.962-0.891,4.103
		c1.963-0.178,3.746-0.534,4.104-0.534s0.893,0,0.893,0.177c0,0.179-0.355,0.179-0.535,0.357c-0.18,0.356-0.355,0.536-0.355,0.536
		c-0.531,0.179-2.498,1.069-4.814,1.604c-0.715,3.211-1.248,6.958-1.248,10.347c0,2.32,0.354,4.461,1.066,5.709
		c0,0,0,0.358-0.354,0.358c-1.785-0.893-2.496-4.283-2.496-8.208c0-2.498,0.178-5.173,0.535-7.671
		c-0.715,0.178-1.252,0.178-1.963,0.178c-1.605,0-2.318-1.07-2.318-2.676c0-0.358,0.178-0.714,0.357-0.714c0,0,0.176,0,0.176,0.178
		c1.07,0.537,2.32,0.537,3.748,0.537h0.354c0.182-1.784,0.537-3.213,0.896-5.174C282.77,75.669,282.95,75.491,283.127,75.491z"/>
	<path fill="#E25926" d="M287.764,90.12L287.764,90.12c0.535-1.071,2.855-5.531,3.746-5.531c0.359,0,0.537,0.356,0.537,0.356
		c0.535,0,1.248,0.178,1.248,0.714c-0.355,2.319-0.535,4.461-0.535,6.602c0,1.427,0.18,3.211,1.07,3.211
		c1.066,0,1.783-1.427,2.141-2.318c0,0,0-0.179,0.18-0.179c0.178,0,0.355,0.357,0.355,0.536c0,1.071-0.893,2.318-1.605,3.033
		c-0.533,0.354-1.07,0.534-1.428,0.534c-2.678,0-2.854-4.104-2.854-5.888c0-1.427,0.178-2.854,0.178-3.567
		c0-0.18,0-0.535-0.178-0.535c-0.18,0-1.604,2.676-1.783,3.39c-0.715,1.428-1.068,3.568-1.068,4.995c0,1.071,0,1.962,0,1.962
		c0,0.357,0,0.536-0.18,0.536c0,0-0.178,0-0.178-0.179c-0.535-0.357-1.605-0.895-1.783-1.249c0-1.071,0.533-5.174,0.711-9.634
		h-0.533c-0.178,0-0.178,0-0.178,0c-0.357-0.179-0.18-0.357-0.357-0.357s-0.354,0-0.354-0.179c0,0,0.713-0.179,1.066-0.357
		l0.182-1.071c0.533-7.491,2.854-15.698,4.639-15.698c1.428,0,2.143,1.604,2.143,3.746c0,3.926-1.963,9.812-4.996,12.668
		C287.764,87.444,287.586,89.228,287.764,90.12C287.586,90.12,287.586,90.12,287.764,90.12z M290.977,72.993
		c-1.068,0-2.498,5.887-3.033,11.417c2.143-2.678,3.391-7.851,3.391-10.169C291.334,73.528,291.155,72.993,290.977,72.993z"/>
	<path fill="#E25926" d="M310.602,87.622l0.18-0.179c0.176,0,0.176,0,0.176,0.357c0,0.179,0,0.357,0,0.536
		c0,0.354,0.182,0.354,0.182,0.712l0,0c0,5.887-4.283,8.563-8.389,8.563c-3.746,0-7.137-2.142-7.137-6.243
		c0-3.569,1.963-7.674,4.816-7.674c1.428,0,2.145,1.071,2.145,2.319c0,1.962-1.43,4.46-4.641,6.244
		c0.178,2.498,1.426,3.567,3.031,3.567C304,95.65,308.639,91.903,310.602,87.622z M300.432,85.302c-1.25,0-2.316,3.034-2.496,5.709
		c1.961-1.428,3.031-3.747,3.031-4.996C300.967,85.48,300.79,85.302,300.432,85.302z"/>
</g>
<g>
	<path fill="#E25926" d="M79.565,140.965c0,0-0.178,0-0.357,0.355c-3.033,11.237-9.456,32.825-25.156,32.825
		c-13.022,0-19.088-12.311-19.088-26.581c0-19.806,11.774-43.353,33.895-43.353c6.603,0,13.738,4.638,13.738,11.061
		c0,2.318-1.428,3.923-2.142,5.529c-1.249,1.963-4.46,7.313-4.46,7.313s-0.535,0.714-1.07,0.714c-1.607,0-3.211-6.423-3.211-8.027
		c0-2.497,2.141-5.172,2.141-5.172s1.783-2.32,2.14-3.211c0-0.536-2.497-0.894-4.817-0.894c-16.947,0-30.686,23.016-30.686,39.606
		c0,9.455,4.46,16.771,15.165,16.771c10.883,0,20.874-12.846,25.333-44.603c0-0.355,0-0.713,0.178-0.713
		c0.712,0,4.281,2.496,4.638,2.678c0.535,0.533,0.713,1.07,0.713,1.783c0,0.18,0,0.533,0,0.894
		c-1.606,13.022-0.713,34.253-4.461,52.096c6.422,0.356,13.024,0.715,19.268,0.715c6.422,0,12.312-0.357,16.413-1.963
		c0.535-0.182,0.892-0.182,1.07-0.182s0.178,0,0.178,0.182c0,0.894-1.784,1.067-1.962,2.143c-1.606,5.707-6.067,7.49-16.592,7.49
		c-5.353,0-12.668-1.963-19.804-3.389c-0.535,1.604-0.892,3.03-1.427,4.639c-2.675,7.138-9.098,12.131-15.699,12.131
		c-10.17,0-14.629-4.281-14.629-9.098c0-6.066,7.493-13.022,20.695-13.022c1.606,0,3.211,0,4.817,0
		c3.39-13.562,5.174-26.048,5.709-38.716C79.745,141.145,79.745,140.965,79.565,140.965z M72.965,183.604
		c-3.212-0.536-6.244-0.893-8.922-0.893c-6.601,0-10.882,4.281-10.882,8.207c0,2.854,2.32,5.352,8.028,5.352
		C65.829,196.092,70.645,192.344,72.965,183.604z"/>
	<path fill="#E25926" d="M87.771,172.721c-0.892,0-1.961-0.178-1.961-0.715c0-0.176,0-0.356,0.178-0.533
		c4.46-5.708,7.85-15.879,8.742-22.658c-1.784-1.604-2.676-4.639-2.676-7.312c0-3.213,1.249-6.065,3.748-6.065
		c2.317,0,2.853,1.604,2.853,3.565c0,1.605-0.357,3.567-0.357,5.174c0,1.43,0.178,1.965,0.714,1.965
		c0.357,0,0.892-0.357,1.785-0.715c2.675-1.783,6.956-6.243,7.492-6.243c1.069,0,2.675,1.963,2.675,3.212
		c0,0.533-0.179,1.068-0.179,1.068c-2.14,4.459-4.459,12.311-4.459,16.414c0,4.103,1.428,6.776,3.212,6.776
		c1.605,0,3.389-1.964,5.173-6.602c0.179-0.534,0-0.891,1.07-1.604c0.179-0.179,0.358-0.179,0.536-0.179
		c0.179,0,0.179,0.179,0.179,0.355c0,0.18,0,0.357,0,0.357c-0.536,4.639-3.568,13.379-9.634,13.379c-4.283,0-5.531-4.46-5.531-9.633
		c0-5.175,1.249-10.705,1.963-13.202c-1.249,0.713-3.033,0.894-4.638,0.894c-0.358,0-0.893,0-1.249,0
		c-0.714,6.422-4.818,17.308-8.385,22.479C88.843,172.544,88.307,172.721,87.771,172.721z"/>
	<path fill="#E25926" d="M154.496,133.115c0.179,0,0.713,0,0.713,0.356c0,0-1.249,5.175-1.249,11.24
		c0,3.211,1.785,6.776,3.39,10.523c4.639-3.031,8.919-6.242,9.812-9.455c0,0-0.715-2.498-0.715-5.354c0-1.428,0.18-2.854,0.536-4.28
		c0.356-1.431,3.747-3.392,6.065-3.392c0.179,0,0.357,0,0.715,0c0.177,0,0.712,0,0.712,0.355c0,0-2.142,5.176-3.39,8.921
		c0,0.716,0,1.605,0,2.497c0,7.492,5.531,13.736,5.531,20.52c0,5.529-4.283,8.92-8.207,8.92c-3.211,0-6.067-2.144-6.067-6.779
		c0-3.746,1.429-7.671,4.461-7.671c0.892,0,0.892,0.356,0.892,0.532c-0.892,1.431-1.963,4.283-1.963,6.781
		c0,2.496,1.072,3.389,2.32,3.389c1.783,0,3.746-1.78,3.746-4.102c0-5.892-2.854-11.062-3.926-16.594
		c-2.674,3.391-6.244,5.887-9.455,8.026c0.715,2.141,1.428,4.283,1.428,6.244c0,5.888-3.924,8.742-7.493,8.742
		c-3.031,0-5.886-1.961-5.886-6.066c0-2.676,3.211-5.529,6.957-8.206c-1.248-4.46-3.211-8.919-3.211-10.171
		c-0.891,1.604-1.962,5.531-3.567,9.812c-2.677,6.604-7.493,13.562-11.239,13.562c-2.142,0-4.104-2.498-4.46-9.098
		c-2.141,5.353-4.996,9.631-8.207,9.631c-5.532,0-7.85-5.707-7.85-12.485c0-9.812,4.817-21.945,12.31-21.945
		c4.103,0,6.243,2.68,6.78,6.244c1.427,0.356,3.389,1.069,3.389,1.963c0,2.317-1.071,9.455-1.071,14.985
		c0,4.818,0.713,6.779,1.605,6.779c1.963,0,4.817-6.604,6.601-10.881c3.39-8.029,4.996-16.949,5.353-20.16
		C149.857,134.544,153.248,133.115,154.496,133.115z M131.125,145.961c-1.428-1.785-2.677-2.5-3.748-2.5
		c-4.818,0-8.208,12.67-8.208,18.914c0,3.211,0.714,5.526,2.32,5.526C128.091,167.905,130.411,152.206,131.125,145.961z
		 M150.748,168.083c2.498,0,3.39-1.783,3.39-4.103c0-1.069-0.179-2.143-0.536-3.391c-2.854,1.961-4.817,3.564-4.817,5.529
		C148.787,167.19,149.679,168.083,150.748,168.083z"/>
	<path fill="#E25926" d="M197.133,162.73c0.361-0.714,0.537-0.892,0.715-0.892c0.18,0,0.18,0.354,0.18,0.535v0.178
		c0,0.179,0.533,0.354,0.533,0.354c0,3.566-3.211,10.351-7.492,10.351c-8.208,0-10.883-10.705-10.883-23.906
		c0-20.696,7.137-47.636,12.133-47.636c3.926,0,5.531,3.926,5.531,9.635c0,11.596-6.6,31.22-13.559,42.28
		c0.535,8.026,2.674,13.916,7.67,13.916C193.034,167.547,195.172,167.37,197.133,162.73z M192.674,111.707
		c-3.032,0-8.387,20.336-8.92,36.394c5.888-10.347,9.811-26.938,9.811-33.54C193.747,112.776,193.389,111.707,192.674,111.707z"/>
	<path fill="#E25926" d="M246.911,138.29c0.18-0.181,0.355-0.181,0.715-0.181c0.711,0,2.141,0.894,3.033,1.784
		c0.176,0.178,0.711,0.714,0.711,1.071c0,0,0,0.179-0.18,0.355c-2.496,2.854-4.279,11.598-4.279,19.446
		c0,6.775,1.426,12.666,4.816,12.666c1.248,0,2.674-0.717,4.639-2.678c0,0,0.178,0,0.357,0c0.178,0,0.178,0,0.178,0.179
		c0,4.282-3.391,6.243-7.137,6.243c-6.602,0-8.029-9.635-8.029-17.305c0-3.567,0.357-6.781,0.537-8.207
		c-3.748,4.104-5.711,14.983-7.494,20.157c0,0.536-0.533,0.714-1.25,0.714c-0.891,0-1.961-0.533-2.139-0.893
		c-0.355-0.715-1.428-0.355-1.428-1.248c0-0.179,0-0.536,0-0.713c0.354-1.607,0.535-5.89,0.891-10.884
		c0-0.535,0.713-9.633,0.713-13.022c0-0.714,0-1.249-0.176-1.249c-2.143,0-3.748,27.298-11.775,27.298
		c-3.031,0-6.064-2.677-6.779-9.812c-2.143,5.53-5.172,9.812-8.207,9.812c-5.527,0-7.85-5.709-7.85-12.488
		c0-9.812,4.816-21.943,12.312-21.943c4.102,0,6.244,2.677,6.777,6.244c1.428,0.357,3.389,1.07,3.389,1.963
		c0,2.316-1.068,9.455-1.068,14.986c0,4.103,0.535,7.138,2.494,7.138c5.711,0,7.676-27.3,10.35-28.903
		c1.07-0.713,2.496-1.245,3.746-1.245c0.895,0,1.605,0.355,1.785,1.428c0.178,2.676,0.178,5.888,0.178,8.92c0,3.746,0,7.312,0,9.277
		C239.417,151.848,242.272,142.571,246.911,138.29z M213.37,145.961c-1.428-1.785-2.676-2.5-3.746-2.5
		c-4.814,0-8.207,12.67-8.207,18.914c0,3.211,0.715,5.526,2.318,5.526C210.336,167.905,212.659,152.206,213.37,145.961z"/>
	<path fill="#E25926" d="M277.239,153.275c0,8.563,0.713,16.771,2.678,23.192v0.179c0,0.714-0.895,1.248-1.43,1.248
		c-4.102-1.963-6.242-9.812-6.955-19.802c-1.965,7.492-5.891,13.736-9.812,13.736c-5.887,0-8.385-5.354-8.385-11.775
		c0-14.272,8.207-21.409,13.203-21.409c2.316,0,3.924,1.428,3.924,4.282c0,0.713,0,1.785-0.357,2.677
		c-0.711-0.892-1.604-1.429-2.676-1.429c-3.926,0-8.92,6.781-8.92,18.021c0,4.104,1.068,5.708,2.676,5.708
		c3.568,0,9.277-8.207,9.99-18.553v-0.356c0-19.091,4.281-40.856,11.598-42.283C280.274,117.06,277.239,135.969,277.239,153.275z"/>
	<path fill="#E25926" d="M279.915,171.829c0,0-1.783-0.354-1.783-0.895v-0.177c5.354-7.674,11.238-28.723,11.775-34.432
		c0.178-1.785,3.566-3.215,4.816-3.215c0.176,0,0.713,0,0.713,0.356c0,0-1.25,5.175-1.25,11.238c0,3.211,1.428,6.959,2.68,11.238
		c9.812-1.961,24.617,0,34.432-3.564c1.605-0.535,2.143-1.071,2.316-1.071h0.18c0,0.356-2.316,1.963-3.391,3.567
		c-4.104,6.603-9.811,8.207-15.699,8.207c-5.531,0-11.418-1.429-16.232-1.604c0.178,1.432,0.533,3.03,0.533,3.924
		c0,4.643-3.391,7.141-6.602,7.141c-2.854,0-5.709-1.963-5.709-6.246c0-4.637,2.318-7.312,5.887-8.918
		c-0.893-4.104-2.141-8.207-2.141-9.457C288.299,151.49,284.733,165.585,279.915,171.829z M290.977,168.083
		c1.783,0,2.318-1.604,2.318-4.103c0-0.535,0-1.069-0.18-1.604c-3.029,0.893-4.639,2.676-4.639,4.104
		C288.479,167.37,289.372,168.083,290.977,168.083z"/>
</g>
<g opacity="0.75">
	<path fill="#FFFFFF" d="M244.793,195.176v-3.366h-5.844v-0.941l5.473-8.023h1.424v8.008h1.812v0.962h-1.812v3.364h-1.053V195.176z
		 M244.793,183.899l-4.754,6.951h4.754V183.899z"/>
</g>
<g>
	<g>
		<path fill="#38B3BC" d="M130.914,27.51L117.769,9.577V27.51h-1.784V6.635h1.815l13.082,17.682V6.635h1.784V27.51H130.914z"/>
		<path fill="#38B3BC" d="M137.864,27.51V6.635h13.238v1.627h-11.454v7.73h11.235v1.627h-11.235v8.262h11.454v1.627H137.864z"/>
		<path fill="#38B3BC" d="M171.51,27.51l-5.008-17.933l-5.008,17.933h-2.002l-5.978-20.875h2.003l5.039,18.371l5.132-18.371h1.628
			l5.101,18.371l5.039-18.371h2.003l-5.946,20.875H171.51z"/>
	</g>
</g>
<g enable-background="new    ">
	<path fill="#38B3BC" d="M199.317,18.566V5.703h1.816v12.832c0,4.225,2.221,6.791,6.32,6.791s6.322-2.566,6.322-6.791V5.703h1.814
		v12.863c0,5.164-2.754,8.387-8.137,8.387C202.102,26.953,199.317,23.698,199.317,18.566z"/>
	<path fill="#38B3BC" d="M220.79,26.577V5.703h7.824c4.006,0,6.289,2.817,6.289,6.103s-2.314,6.103-6.289,6.103h-6.041v8.669H220.79
		z M233.026,11.806c0-2.629-1.814-4.476-4.602-4.476h-5.852v8.951h5.852C231.211,16.281,233.026,14.404,233.026,11.806z"/>
	<path fill="#38B3BC" d="M238.663,26.577V5.703h6.666c6.479,0,10.547,4.726,10.547,10.453c0,5.79-4.068,10.421-10.547,10.421
		H238.663z M253.997,16.156c0-4.882-3.129-8.826-8.668-8.826h-4.883v17.62h4.883C250.836,24.95,253.997,21.038,253.997,16.156z"/>
	<path fill="#38B3BC" d="M274.217,26.577l-2.066-5.132h-11.047l-2.064,5.132h-2.066l8.545-20.875h2.221l8.545,20.875H274.217z
		 M266.643,7.612L261.7,19.818h9.857L266.643,7.612z"/>
	<path fill="#38B3BC" d="M282.514,26.577V7.33h-6.822V5.703h15.459V7.33h-6.822v19.247H282.514z"/>
	<path fill="#38B3BC" d="M294.846,26.577V5.703h13.238V7.33h-11.453v7.73h11.234v1.627h-11.234v8.262h11.453v1.627H294.846z"/>
	<path fill="#38B3BC" d="M311.342,23.635l1.158-1.346c1.346,1.534,3.535,3.036,6.541,3.036c4.256,0,5.477-2.378,5.477-4.162
		c0-6.134-12.52-2.942-12.52-10.234c0-3.411,3.068-5.571,6.854-5.571c3.1,0,5.479,1.096,7.074,2.942l-1.189,1.314
		c-1.502-1.815-3.631-2.629-5.979-2.629c-2.785,0-4.881,1.596-4.881,3.85c0,5.352,12.518,2.41,12.518,10.202
		c0,2.691-1.783,5.915-7.416,5.915C315.536,26.953,312.938,25.545,311.342,23.635z"/>
</g>
</svg>
