<?xml version="1.0" encoding="utf-8"?>
<!-- Generator: Adobe Illustrator 18.1.1, SVG Export Plug-In . SVG Version: 6.00 Build 0)  -->
<svg version="1.1" id="Layer_1" xmlns="http://www.w3.org/2000/svg" xmlns:xlink="http://www.w3.org/1999/xlink" x="0px" y="0px"
	 viewBox="0 235.9 899.8 429" enable-background="new 0 235.9 899.8 429" xml:space="preserve">
<g>
	<path fill="#AF5432" d="M22.7,398.2c19,2,33.2-11.7,42.1-30.8c6.9,19.8,27.9,37.2,46.1,18.6c15.4-15.4,21.4-54.6,23.1-76.9
		c4,0.8,8.1,0.4,12.9-0.8c-13,67.5,13.3,112.3,74,79.4c12.9,13.5,34,15.2,62.9-0.7c11.3,12.5,29.5,15.5,54.1,4.7
		c2.7,24.9-0.8,41.1-30.3,20.6l-4.9,4.5c51.4,36.8,67.2,8.9,59.9-49c0-1.2,23.1-41.3,17-68.8c-2.4-10.9-14.6-16.6-24.7-17.8
		c-28.3-4-27.1,39.3-24.7,61.1c1.6,13.3,4.9,29.1,6.9,43.1c-42.3,16.9-49.1-20-33.2-87.6c0.8-2.4-4-6.5-25.1-12.9
		c-12.6,41.7-11.9,77.8,1.3,97.5c-41.2,19.8-53.2-4.3-45.4-55.8c1.6-11.7,4.5-22.7,7.3-33.6c9.3,1.2,19.4,1.2,28.3-0.8l-0.4-10.1
		c-8.1,1.6-17,2.4-25.5,2c2-7.7,4-15.4,6.1-23.1c1.2-3.2-2-10.9-23.1-17.8c-3.6,9.3-8.1,23.5-12.1,38c-7.7-1.2-12.9-2.4-12.9-2.4
		v6.5c0,0,4.5,1.2,11.3,3.2c-2.8,10.9-5.3,22.3-6.5,32.8c-3.1,26.4,0.3,48.2,9.9,61.9c-47.8,22.8-55.7-14.3-39-85
		c0.8-5.3-21.9-12.1-25.5-12.9c-2.8,23.5-27.1,28.3-11.3-15.4L121,258.6c-11.7,23.9-4,43.3,8.5,49.4C123,401,66.4,412.4,94.3,295
		c0.8-2.8-4.5-6.9-25.1-13.4c-0.8,3.2-2,6.1-2.8,9.3c-0.4-0.4-0.4-0.8-0.8-1.2c-8.1-10.5-21.4-10.5-33.6-4.5
		C-8.1,305.5-9.7,395,22.7,398.2z M369.5,301.1c4.9,1.6,6.9,20.2-8.9,56.7C354.9,318.5,364.2,299.1,369.5,301.1z M49.8,300.3
		c21.4-8.9,10.1,85.4-15.8,72.8C21.4,366.6,28.7,308.4,49.8,300.3z"/>
	<path fill="#AF5432" d="M307.6,287.7c2.4-10.1,7.3-24.3,9.7-34c0.8-3.2-2.4-10.9-23.1-17.8C294.2,235.9,273.6,278.4,307.6,287.7z"
		/>
	<path fill="#AF5432" d="M408.7,398.2c19,2,33.2-11.7,42.1-30.8c8.8,24.6,29.8,35.1,61.6,21.9c0.1,0.4,0.2,0.8,0.3,1.2
		c2,6.9,18.2,10.1,19.4,6.1c10.9-32.8,17.8-56.2,26.7-70.8c0,4.2-7.2,95.6,65.1,62.7c3.4,26.7,0.9,45.3-29.9,23.9l-4.9,4.5
		c51.4,36.8,67.2,8.9,59.9-49c0-1.2,23.1-41.3,17-68.8c-2.4-10.9-14.6-16.6-24.7-17.8c-27.9-4-27.1,39.3-24.7,61.1
		c1.5,12.3,4.4,26.8,6.4,40c-41.8,16-48.2-20.6-32.3-87.8c0.4-2.4-12.9-8.1-19-7.7c-10.9,0.4-33.2,59.1-41.3,83.4
		c2-26.7,10.1-63.1,15-74.5c0.8-2.8-4.5-6.5-25.1-13.4c-9.5,30.4-13.4,75.8-9.3,100.9c-40.5,14.5-46.5-22-30.8-88.3
		c0.8-2.8-4.5-6.9-25.1-13.4c-0.8,3.2-2,6.1-2.8,9.3c-0.4-0.4-0.4-0.8-0.8-1.2c-8.1-10.5-21.4-10.5-33.6-4.5
		C378,305.5,376.3,395,408.7,398.2z M656,301.1c4.9,1.6,6.9,20.2-8.9,56.7C641.4,318.5,650.7,299.1,656,301.1z M436.6,300.3
		c21.4-8.9,10.1,85.4-15.8,72.8C407.9,366.6,415.6,308.4,436.6,300.3z"/>
	<path fill="#AF5432" d="M345.6,542.3c0-1.2,23.1-41.7,17-69.2c-2.4-10.9-14.6-16.6-24.7-17.8c-27.9-4-27.1,39.7-24.7,61.5
		c1.5,12.2,4.4,26.5,6.4,39.6c-42.2,16.6-48.7-20.3-32.7-87.7c0.8-2.8-4.5-6.9-25.1-13.4c-0.8,3.2-2,6.1-2.8,9.3
		c-0.4-0.4-0.4-0.8-0.8-1.2c-8.1-10.5-21.4-10.5-33.6-4.5c-31.1,16-39.1,73.7-25.8,100c-44.1,19-51.5-18.3-35.3-86.7
		c1.6-5.7-21.4-12.5-25.1-13.4c-3.2,23.5-27.5,28.3-11.7-15.4l-20.2-11.7c-10.5,22.7-4.9,41.3,6.5,48.6c-4.9,5.7-13.4,10.1-22.3,7.7
		c0.8-11.7,1.2-20.6,1.6-23.5c0.4-2.8-12.5-6.1-27.1-9.3c-0.4,2-0.4,4.5-0.4,7.3c-8.5-9.7-20.6-10.1-32.8-4
		c-40.1,20.6-41.7,110.1-9.3,113.7c13.8,1.2,25.5-5.7,34-17c-1.6,10.1-3.2,19.4-5.3,27.1c-80.9,19.8,1.2,101.2,26.3,2
		c6.9-29.1,10.1-60.3,12.5-90.2c13.8,4.5,24.7-3.6,29.9-10.9c4,0.8,8.1,0.4,12.1-1.2c-12.7,66.3,11.7,110.9,69.6,82.1
		c3.5,4.6,7.9,7.6,13.3,8.1c19,2,33.2-11.7,42.1-30.8c8.9,25,30.5,35.5,63.2,21.2c3.5,26.8,1.1,45.6-30,24.1l-4.9,4.5
		C337.1,628.5,352.9,600.1,345.6,542.3z M25.9,616.3c-4-4.9,0-19,23.5-26.3C40.9,617.1,29.5,621.2,25.9,616.3z M34.4,547.1
		c-12.9-6.1-5.7-64.7,15.8-73.2C74.1,464.2,60.3,559.7,34.4,547.1z M227,547.1c-12.5-6.1-5.3-64.7,15.8-73.2
		C264.3,465.4,252.9,559.7,227,547.1z M352.9,475.1c4.9,1.6,6.5,20.2-8.9,56.7C338.3,492.5,347.6,473.1,352.9,475.1z"/>
	<path fill="#AF5432" d="M423.3,473.1c-2.4-10.9-14.6-16.6-24.7-17.8c-27.9-4-27.1,39.7-24.7,61.5c4.9,40.1,25.5,103.2-22.7,70
		l-4.9,4.5c51.4,37.2,67.2,8.9,59.9-49C406.3,541.1,429.4,500.6,423.3,473.1z M404.7,531.7c-5.7-39.3,3.6-58.7,8.9-56.7
		C418.4,476.7,420.1,495.3,404.7,531.7z"/>
	<path fill="#AF5432" d="M898.8,473.1c-2.4-10.9-14.2-16.6-24.7-17.8c-27.9-4-27.1,39.7-24.7,61.5c1.4,12,4.2,26.2,6.2,39.3
		c-35.8,13.4-45.2-13.1-36.2-64.8c4.5-25.9,12.9-53.4,19-76.1c0.4-2.8-2.8-10.9-23.5-17.8c-5.7,15.4-13.8,42.1-19,66.8
		c-0.4,0-0.4-0.4-0.8-0.8c-8.1-10.5-21.4-10.5-33.6-4.5c-30,15.4-38.4,69.4-27.2,97c-43.2,17.7-50-19.2-33.9-87.3
		c0.4-2.4-12.9-8.1-19-7.7c-10.9,0-32.8,59.1-41.3,83.4c2-26.3,10.1-62.7,15-74.5c0.8-2.8-4.5-6.5-25.1-13.4
		c-9.5,30.2-13.4,75.5-9.3,100.8c-40,14.3-45.9-22.5-30.3-88.6c0.8-2.8-4.5-6.9-25.1-13.4c-0.8,3.2-2,6.1-2.8,9.3
		c-0.4-0.4-0.4-0.8-0.8-1.2c-8.1-10.5-21.4-10.5-33.6-4.5c-31.1,16-39,73.4-25.9,99.8c-38.7,16.4-49-10.1-39.6-63.4
		c4.5-25.9,14.2-56.7,20.2-79.7c0.4-2.4-2.8-10.9-23.5-17.4c-8.1,20.2-20.6,63.9-24.7,93.1c-8.4,60.2,16.2,99.3,70.7,72.7
		c3.5,4.7,8,7.7,13.5,8.3c19,2,33.2-11.7,42.1-30.8c8.7,24.5,29.6,35,61.1,22.1c0.1,0.5,0.2,1,0.4,1.4c2,6.9,18.2,10.1,19.4,6.1
		c10.9-32.8,17.8-56.7,26.7-71.2c0,3.9-7.4,98,68.4,61.3c3.7,6.4,8.9,10.5,15.4,11.1c19,2,33.2-12.1,42.1-31.2
		c9.2,24.7,30,35.5,62.2,21.9c2.9,22,2.1,39.2-14.1,34.4c-57.9-17.8-125.4-21.4-183.3-4c-10.9,3.2-18.2,16.2-21,35.2
		c61.1-43.3,142.4-46.9,209.2-23.1c31.2,11.3,40.5-16.2,34.8-63.1C881.8,541.1,904.9,500.6,898.8,473.1z M530.5,547.1
		c-12.5-6.1-5.3-64.7,15.8-73.2C567.8,465.4,556.4,559.7,530.5,547.1z M764,547.1c-12.9-6.1-5.3-64.7,15.8-73.2
		C802.1,465,789.9,559.7,764,547.1z M888.3,475.1c5.7-0.8,8.5,18.2-8.1,57.1C874.9,494.9,883,475.5,888.3,475.1z"/>
	<path opacity="0.7" fill="#AF5432" d="M707.8,399.4c10.1-4,13.4-14.6,12.1-25.1c-0.2-1.2-0.4-2.6-0.7-4.2c2.2,2.8,2.8,2.4,8.8-0.3
		c2,8.5,3.6,17.8,4.5,25.1c-28.7,18.6,13.8,38.8,10.5-2c18.2-7.3,39.7-4.9,60.7-8.9c8.9-1.7,20.1-6.9,28.1-16
		c4.7,6.8,13.9,8.9,28.2-0.6c4-2.4,5.7-6.5,6.1-6.5c-0.4,0-6.5,4.5-6.9,4.5c-12.9,7.7-19.4,8.9-19-5.7c33.2-23.1,19.8-40.5,4-33.6
		c-13.7,5.8-18.9,25.5-14.5,37.7c-8.3,6.6-15.9,10-28.8,12.9c-19,4.5-38.8,4.9-57.9,13.4c-1.2-8.5-2.8-16.6-4.9-25.1
		c2.4-1.6,4.5-3.2,6.5-4.9c0.8-0.4,0.4-1.6,0-2.4c-2,1.2-3.6,2.8-6.1,4c3.6-14.6,0.8-35.6-10.9-33.6c-13.4,2-2,31.2-0.4,38.4
		c-3.7,1.3-6.8,1.4-8.4,1.3c-1.4-5.7-4-11.9-9.8-11.9c-6.9,0.4-7.7,13.8,4,9.3c4,5.3,5.3,20.6-2.4,25.1c-10.5,6.5-25.1-36.4,0-37.6
		c-1.2-1.6-2.8-2.4-4.5-3.2c-5.3-2-10.9,0.4-15,5.3C677.8,371.1,693.6,404.7,707.8,399.4z M854.3,334.3c2.4,0.8,0.4,6.9-14.2,19.4
		C842.1,340.7,851,333.5,854.3,334.3z M726.8,411.2c-1.6-1.6-2-7.7,5.7-13.4C732.9,409.9,728.8,412.8,726.8,411.2z M732.5,331.8
		c1.6-1.2,7.3,13.8,4.5,28.3C736.1,356.1,729.6,333.9,732.5,331.8z"/>
	<path opacity="0.7" fill="#AF5432" d="M757.1,334.7c-0.4,4.9-0.4,9.7,0,14.2c1.8,22.9,13.8,35.7,31.7,24.2c2.3,1.8,7.2,2.2,7.5,0.8
		c3.2-13.8,5.3-23.9,8.5-30.4c0,1.2-4.9,31.2,17.4,23.9c3.6-1.2,4-4.5,0.8-3.6c-12.5,2.8-10.1-9.3-6.5-34.4c0-1.2-5.7-2.8-8.1-2.4
		c-4.5,0.4-11.7,25.5-14.2,36c0-11.3,4-44.1,7.3-54.6c0.4-1.2-1.2-4.5-10.1-6.5c-4.7,16.1-9.8,50.3-4.2,68.3
		c-12,6.6-17.7-2.8-18.4-22.1c0-4.9,0-9.3,0.4-14.2c3.6,0,7.7-0.8,11.3-2.4l-0.8-4c-2.8,1.2-6.5,2.4-10.1,2.8
		c0.4-3.2,0.4-6.5,0.8-9.7c0-1.2-2-4-10.9-5.3c-0.8,4-1.6,10.1-2,16.6c-3.2,0-5.7,0-5.7,0l0.4,2.4
		C752.3,334.3,754.3,334.3,757.1,334.7z"/>
</g>
<g opacity="0.58">
	<path fill="#FFFFFF" d="M84.2,640.2c0-10.1,6.9-17.8,17.4-17.8s17.4,7.7,17.4,17.8c0,10.1-6.9,17.8-17.4,17.8
		S84.2,650.3,84.2,640.2z M115.7,640.2c0-8.5-5.7-15-13.8-15c-8.5,0-13.8,6.5-13.8,15c0,8.5,5.3,15,13.8,15
		C110.1,655.2,115.7,648.7,115.7,640.2z"/>
	<path fill="#FFFFFF" d="M125.9,640.2c0-10.5,8.1-17.8,18.2-17.8c5.7,0,10.1,2.4,12.9,6.5l-2.8,1.6c-2.4-3.2-6.1-4.9-10.5-4.9
		c-8.1,0-14.6,6.1-14.6,14.6c0,8.5,6.5,15,14.6,15c4,0,8.5-2,10.5-4.9l2.8,1.6c-3.2,4-7.7,6.5-13.4,6.5
		C133.9,658,125.9,650.7,125.9,640.2z"/>
	<path fill="#FFFFFF" d="M171.6,657.2V626h-10.9v-3.2h25.5v3.2h-10.9v31.2H171.6z"/>
	<path fill="#FFFFFF" d="M189,640.2c0-10.1,6.9-17.8,17.4-17.8s17.4,7.7,17.4,17.8c0,10.1-6.9,17.8-17.4,17.8S189,650.3,189,640.2z
		 M220.1,640.2c0-8.5-5.7-15-13.8-15c-8.5,0-13.8,6.5-13.8,15c0,8.5,5.3,15,13.8,15C214.9,655.2,220.1,648.7,220.1,640.2z"/>
	<path fill="#FFFFFF" d="M232.3,657.2v-34.4h14.6c6.1,0,10.1,3.2,10.1,8.9c0,4-2.8,6.9-5.7,7.7c3.6,0.8,6.5,4.5,6.5,8.5
		c0,5.7-4,9.3-10.5,9.3H232.3z M253.3,632.1c0-3.6-2.4-6.1-6.9-6.1h-10.9v12.1h11.3C250.9,638.2,253.3,635.7,253.3,632.1z
		 M254.1,647.9c0-3.2-2.4-6.5-7.3-6.5h-11.3v12.9h11.3C251.3,654.4,254.1,651.9,254.1,647.9z"/>
	<path fill="#FFFFFF" d="M265.9,657.2v-34.4h23.1v3.2h-19.4v12.1h19v3.2h-19v12.9h19.4v3.2h-23.1V657.2z"/>
	<path fill="#FFFFFF" d="M318.1,657.2l-9.7-13.8h-7.7v13.8h-3.2v-34.4h13.4c6.9,0,10.9,4.5,10.9,10.1s-4,9.7-9.7,10.1l10.5,14.2
		H318.1z M318.1,633.3c0-4-2.8-6.9-7.7-6.9h-9.7v14.2h9.7C315.6,640.2,318.1,637.4,318.1,633.3z"/>
	<path fill="#FFFFFF" d="M345.6,657.2v-2.8c15.4-6.9,23.1-13.8,23.1-20.6c0-4.9-4-8.1-9.3-8.1s-9.7,2-11.7,5.3l-2.4-2.4
		c2.8-4,8.5-6.5,14.2-6.5c6.9,0,12.9,4.5,12.9,11.3c0,8.1-8.5,15.8-19.8,20.6h19v3.2L345.6,657.2L345.6,657.2z"/>
	<path fill="#FFFFFF" d="M379.2,643.8v-3.2h33.2v2.8h-33.2V643.8z"/>
	<path fill="#FFFFFF" d="M418.8,658.4l2.4-2.4c2.8,3.6,6.5,6.1,11.7,6.1c6.1,0,10.5-4.5,10.5-10.1c0-6.5-4.5-10.1-10.5-10.1
		c-3.6,0-6.9,1.2-10.1,4l-2.8-1.2v-21.9h23.9v3.2h-20.2v16.2c2-2,5.7-4,9.7-4c6.9,0,13.4,4.5,13.4,13.4c0,8.1-6.5,13.4-14.2,13.4
		C426.1,665.3,421.7,662.9,418.8,658.4z"/>
	<path fill="#FFFFFF" d="M456.1,664.9l-1.6-1.6c2-1.2,3.6-3.6,3.6-5.7c0,0-0.4,0-0.8,0c-1.6,0-2.4-1.2-2.4-2.4
		c0-1.6,1.2-2.8,2.8-2.8s3.2,1.6,3.2,4C460.5,660,458.5,663.3,456.1,664.9z"/>
	<path fill="#FFFFFF" d="M484,657.2v-2.8c15.4-6.9,23.1-13.8,23.1-20.6c0-4.9-4-8.1-9.3-8.1s-9.7,2-11.7,5.3l-2.4-2.4
		c2.8-4,8.5-6.5,14.2-6.5c6.9,0,12.9,4.5,12.9,11.3c0,8.1-8.5,15.8-19.8,20.6h19v3.2L484,657.2L484,657.2z"/>
	<path fill="#FFFFFF" d="M535,658c-10.9,0-15.4-9.3-15.4-17.8c0-8.9,4.5-17.8,15.4-17.8c10.5,0,15.4,8.9,15.4,17.8
		S545.9,658,535,658z M535,625.6c-8.5,0-11.7,7.3-11.7,14.6c0,7.3,3.2,14.6,11.7,14.6c8.1,0,11.3-7.3,11.3-14.6
		C546.7,632.9,543.5,625.6,535,625.6z"/>
	<path fill="#FFFFFF" d="M564.5,657.2v-29.5l-6.5,7.3l-2-2.4l9.3-9.7h3.2v34.4H564.5z"/>
	<path fill="#FFFFFF" d="M577.5,658.4l2.4-2.4c2.8,3.6,6.5,6.1,11.7,6.1c6.1,0,10.5-4.5,10.5-10.1c0-6.5-4.5-10.1-10.5-10.1
		c-3.6,0-6.9,1.2-10.1,4l-2.8-1.2v-21.9h23.9v3.2h-20.2v16.2c2-2,5.7-4,9.7-4c6.9,0,13.4,4.5,13.4,13.4c0,8.1-6.5,13.4-14.2,13.4
		C584.8,665.3,580.7,662.9,577.5,658.4z"/>
</g>
</svg>
