<?xml version="1.0" encoding="utf-8"?>
<!-- Generator: Adobe Illustrator 18.1.1, SVG Export Plug-In . SVG Version: 6.00 Build 0)  -->
<svg version="1.1" id="Layer_1" xmlns="http://www.w3.org/2000/svg" xmlns:xlink="http://www.w3.org/1999/xlink" x="0px" y="0px"
	 viewBox="0 0 222.4 105.8" enable-background="new 0 0 222.4 105.8" xml:space="preserve">
<g>
	<g>
		<path fill="#E25926" d="M33.1,18.1c-0.4,5.5-1.9,15.2-5.7,19c-4.5,4.6-9.7,0.3-11.4-4.6c-2.2,4.7-5.7,8.1-10.4,7.6
			c-8-0.8-7.6-22.9,2.3-27.9c3-1.5,6.3-1.5,8.3,1.1c0.1,0.1,0.1,0.2,0.2,0.3c0.2-0.8,0.5-1.5,0.7-2.3c5.1,1.6,6.4,2.6,6.2,3.3
			c-6.9,29,7.1,26.2,8.7,3.2c-3.1-1.5-5-6.3-2.1-12.2l5,2.8c-3.9,10.8,2.1,9.6,2.8,3.8c0.9,0.2,6.5,1.9,6.3,3.2
			c-4.3,18.2-2,27.4,11.2,20.2l0.5,1.3c-15.8,9.3-22.7-1.9-19.4-19C35.1,18.2,34.1,18.3,33.1,18.1z M8.4,33.9
			c6.4,3.1,9.2-20.2,3.9-18C7.1,17.9,5.3,32.3,8.4,33.9z"/>
		<path fill="#E25926" d="M71.1,36.8c-14.7,8.7-21.7-0.5-19.9-15.7c0.3-2.6,0.9-5.4,1.6-8.1c-1.7-0.5-2.8-0.8-2.8-0.8L50,10.6
			c0,0,1.3,0.3,3.2,0.6c1-3.6,2.1-7.1,3-9.4c5.2,1.7,6,3.6,5.7,4.4c-0.5,1.9-1,3.8-1.5,5.7c2.1,0.1,4.3-0.1,6.3-0.5l0.1,2.5
			c-2.2,0.5-4.7,0.5-7,0.2c-0.7,2.7-1.4,5.4-1.8,8.3c-2,13.3,1.3,19.2,12.6,13.1L71.1,36.8z"/>
		<path fill="#E25926" d="M86.8,36.8c-17.5,10.3-24-4.6-17.9-24.7c5.2,1.6,6.4,2.6,6.2,3.2c-4.3,18.2-1.9,27.4,11.2,20.2L86.8,36.8z
			 M72.7,0c5.1,1.7,5.9,3.6,5.7,4.4c-0.6,2.4-1.8,5.9-2.4,8.4C67.6,10.5,72.7,0,72.7,0z"/>
		<path fill="#E25926" d="M87.7,11.2c2.5,0.3,5.5,1.7,6.1,4.4c1.5,6.8-4.2,16.7-4.2,17c1.8,14.3-2.1,21.2-14.8,12.1l1.2-1.1
			c11.8,8.2,6.8-7.4,5.6-17.3C81,20.9,80.7,10.2,87.7,11.2z M91.3,16.1c-1.3-0.5-3.6,4.3-2.2,14C93,21.1,92.5,16.5,91.3,16.1z"/>
		<path fill="#E25926" d="M130.4,36c-10,5.9-16.5,3.5-19-3.5c-2.2,4.7-5.7,8.1-10.4,7.6c-8-0.8-7.6-22.9,2.3-27.9
			c3-1.5,6.3-1.5,8.3,1.1c0.1,0.1,0.1,0.2,0.2,0.3c0.2-0.8,0.5-1.5,0.7-2.3c5.1,1.6,6.4,2.6,6.2,3.3c-4.3,18.2-2,27.3,11.2,20.2
			L130.4,36z M104,33.9c6.4,3.1,9.2-20.2,3.9-18C102.7,17.9,100.8,32.3,104,33.9z"/>
		<path fill="#E25926" d="M157.6,35.9c-21.5,12.7-19.5-12.6-19.5-13.7c-2.2,3.6-3.9,9.4-6.6,17.5c-0.3,1-4.3,0.2-4.8-1.5
			c-1.6-5.6-0.7-18.4,1.9-26.7c5.1,1.7,6.4,2.6,6.2,3.3c-1.2,2.8-3.2,11.8-3.7,18.4c2-6,7.5-20.5,10.2-20.6c1.5-0.1,4.8,1.3,4.7,1.9
			c-4.3,18.2-2,27.3,11.2,20.2L157.6,35.9z"/>
		<path fill="#E25926" d="M158.5,11.2c2.5,0.3,5.5,1.7,6.1,4.4c1.5,6.8-4.2,16.7-4.2,17c1.8,14.3-2.1,21.2-14.8,12.1l1.2-1.1
			c11.8,8.2,6.8-7.4,5.6-17.3C151.8,20.9,151.6,10.2,158.5,11.2z M162.1,16.1c-1.3-0.5-3.6,4.3-2.2,14
			C163.8,21.1,163.3,16.5,162.1,16.1z"/>
	</g>
	<g>
		<path fill="#E25926" d="M29.7,61.1c-1.3,1.8-4,3.8-7.4,2.7c-0.6,7.4-1.4,15.1-3.1,22.3c-6.2,24.5-26.5,4.4-6.5-0.5
			c0.5-1.9,0.9-4.2,1.3-6.7c-2.1,2.8-5,4.5-8.4,4.2c-8-0.9-7.6-23,2.3-28.1c3-1.5,6-1.4,8.1,1c0-0.7,0-1.3,0.1-1.8
			c3.6,0.8,6.8,1.6,6.7,2.3c-0.1,0.7-0.2,2.9-0.4,5.8c2.2,0.6,4.3-0.5,5.5-1.9c-2.8-1.8-4.2-6.4-1.6-12l5,2.9
			c-3.9,10.8,2.1,9.6,2.9,3.8c0.9,0.2,6.6,1.9,6.2,3.3c-4.3,18.1-1.9,27.4,11.2,20.2l0.5,1.3c-15.9,9.4-22.7-1.9-19.4-19.1
			C31.7,61.2,30.7,61.3,29.7,61.1z M6.4,94c0.9,1.2,3.7,0.2,5.8-6.5C6.4,89.3,5.4,92.8,6.4,94z M8.5,76.9c6.4,3.1,9.8-20.5,3.9-18.1
			C7.1,60.9,5.3,75.4,8.5,76.9z"/>
		<path fill="#E25926" d="M82.6,79c-10,5.9-16.5,3.5-19-3.5c-2.2,4.7-5.7,8.1-10.4,7.6c-8-0.8-7.6-22.9,2.3-28
			c3-1.5,6.3-1.5,8.3,1.1c0.1,0.1,0.1,0.2,0.2,0.3c0.2-0.8,0.5-1.5,0.7-2.3c5.1,1.6,6.4,2.6,6.2,3.3c-4.3,18.2-2,27.4,11.2,20.2
			L82.6,79z M56.1,76.9c6.4,3.1,9.2-20.2,3.9-18.1C54.8,60.9,53,75.4,56.1,76.9z"/>
		<path fill="#E25926" d="M83.5,54.2c2.5,0.3,5.5,1.7,6.1,4.4c1.5,6.8-4.2,16.8-4.2,17.1c1.8,14.3-2.1,21.3-14.8,12.1l1.2-1.1
			c11.9,8.2,6.8-7.4,5.6-17.3C76.8,64,76.6,53.2,83.5,54.2z M87.2,59.1c-1.3-0.5-3.6,4.3-2.2,14C88.8,64.1,88.4,59.5,87.2,59.1z"/>
		<path fill="#E25926" d="M98.5,54.2c2.5,0.3,5.5,1.7,6.1,4.4c1.5,6.8-4.2,16.8-4.2,17.1c1.8,14.3-2.1,21.3-14.8,12.1l1.2-1.1
			c11.9,8.2,6.8-7.4,5.6-17.3C91.8,64,91.6,53.2,98.5,54.2z M102.2,59.1c-1.3-0.5-3.6,4.3-2.2,14C103.8,64.1,103.4,59.5,102.2,59.1z
			"/>
		<path fill="#E25926" d="M127.2,79.8c-15.1,8.9-22-1-19.8-16.7c1-7.2,4.1-18,6.1-23c5.1,1.6,5.9,3.7,5.8,4.3
			c-1.5,5.7-3.9,13.3-5,19.7c-2.5,14.3,0.7,20.8,12.4,14.4L127.2,79.8z"/>
		<path fill="#E25926" d="M157.6,79c-10,5.9-16.5,3.5-19-3.5c-2.2,4.7-5.7,8.1-10.4,7.6c-8-0.8-7.6-22.9,2.3-28
			c3-1.5,6.3-1.5,8.3,1.1c0.1,0.1,0.1,0.2,0.2,0.3c0.2-0.8,0.5-1.5,0.7-2.3c5.1,1.6,6.4,2.6,6.2,3.3c-4.3,18.2-2,27.4,11.2,20.2
			L157.6,79z M131.1,76.9c6.4,3.1,9.2-20.2,3.9-18.1C129.8,60.9,128,75.4,131.1,76.9z"/>
		<path fill="#E25926" d="M184.8,78.9c-21.6,12.7-19.6-12.7-19.6-13.7c-2.2,3.6-3.9,9.5-6.6,17.6c-0.3,1-4.3,0.2-4.8-1.5
			c-1.6-5.6-0.7-18.5,1.9-26.8c5.1,1.7,6.4,2.6,6.2,3.3c-1.2,2.9-3.2,11.9-3.7,18.4c2.1-6,7.5-20.6,10.2-20.6
			c1.5-0.1,4.8,1.3,4.7,1.9c-4.3,18.2-2,27.4,11.2,20.2L184.8,78.9z"/>
		<path fill="#E25926" d="M215.4,78.9c-10.1,6-16.5,3.5-19.1-3.5c-2.2,4.7-5.7,8.2-10.4,7.7c-8-0.8-7.6-22.9,2.3-28
			c3-1.5,6.3-1.5,8.3,1.1c0.1,0.1,0.1,0.2,0.2,0.2c1.3-6.1,3.3-12.7,4.7-16.5c5.1,1.7,5.9,3.7,5.8,4.4c-1.5,5.6-3.6,12.4-4.7,18.8
			c-2.5,14.3,0.7,20.8,12.4,14.4L215.4,78.9z M188.8,76.9c6.4,3.1,9.4-20.3,3.9-18.1C187.5,60.9,185.6,75.4,188.8,76.9z"/>
		<path fill="#E25926" d="M216,54.2c2.6,0.3,5.5,1.7,6.1,4.4c1.5,6.8-4.2,16.8-4.1,17.1c1.4,11.6-0.9,18.4-8.6,15.6
			c-16.5-5.9-36.6-5-51.7,5.7c0.7-4.7,2.5-7.9,5.2-8.7c14.3-4.3,31-3.4,45.3,1c6.7,2,2.7-11.3,1.7-19.9
			C209.3,64,209.1,53.2,216,54.2z M219.5,59.1c-1.3,0.1-3.3,4.9-2,14.1C221.6,63.6,220.9,58.9,219.5,59.1z"/>
	</g>
	<g opacity="0.68">
		<path fill="#E25926" d="M175.6,38.2c1.9-1.1,1.6-4.9,0.6-6.2c-2.9,1.1-2.7-2.2-1-2.3c2,0,2.5,3,2.7,4.5c0.3,2.6-0.5,5.2-3,6.2
			c-3.5,1.3-7.4-7-4.1-11c1-1.2,2.4-1.8,3.7-1.3c0.4,0.2,0.8,0.4,1.1,0.8C169.4,29.2,173,39.8,175.6,38.2z"/>
		<path fill="#E25926" d="M197.9,34.8c4.4-1,6.3-2.2,9.6-5.4c-1.6,4.3-5.8,6.6-8.9,7.2c-5.2,1-10.5,0.4-15,2.2
			c0.8,10.1-9.7,5.1-2.6,0.5c-0.2-1.8-0.6-4.1-1.1-6.2c-1.8,0.8-1.6,0.8-2.6-0.5c0,0,1,0.2,2.4-0.3c-0.4-1.8-3.2-9,0.1-9.5
			c2.9-0.5,3.6,4.7,2.7,8.3c0.6-0.3,1-0.7,1.5-1c0.1,0.2,0.2,0.5,0,0.6c-0.5,0.4-1,0.8-1.6,1.2c0.5,2.1,0.9,4.1,1.2,6.2
			C188.3,36,193.2,35.9,197.9,34.8z M179.6,43.3c0.5,0.4,1.5-0.3,1.4-3.3C179.1,41.4,179.2,42.9,179.6,43.3z M181,23.7
			c-0.7,0.5,0.9,6,1.1,7C182.8,27.1,181.4,23.4,181,23.7z"/>
		<path fill="#E25926" d="M196.5,32.7c-5.3,4.7-8.9,1.5-9.4-4.8c-0.1-1.1-0.1-2.3,0-3.5c-0.7-0.1-1.2-0.1-1.2-0.1l-0.1-0.6
			c0,0,0.6,0,1.4,0c0.1-1.6,0.3-3.1,0.5-4.1c2.2,0.3,2.7,1,2.7,1.3c-0.1,0.8-0.1,1.6-0.2,2.4c0.9-0.1,1.8-0.4,2.5-0.7l0.2,1
			c-0.9,0.4-1.9,0.6-2.8,0.6c-0.1,1.2-0.1,2.3-0.1,3.5c0.2,5.6,2.1,7.8,6.2,4.3L196.5,32.7z"/>
		<path fill="#E25926" d="M203.2,32.5c-5.5,1.8-4.3-5.6-4.3-5.9c-0.8,1.6-1.3,4.1-2.1,7.5c-0.1,0.4-1.8,0.2-2.1-0.5
			c-1.6-4.3-0.3-13.2,0.9-17.3c2.2,0.5,2.6,1.3,2.5,1.6c-0.8,2.6-1.8,10.7-1.8,13.5c0.6-2.6,2.4-8.8,3.5-8.9c0.6-0.1,2,0.3,2,0.6
			c-0.9,6.2-1.5,9.2,1.6,8.5C204.2,31.4,204.1,32.2,203.2,32.5z"/>
		<path fill="#E25926" d="M212.5,32.5c-9.3,6.2-10-7.6-3.9-10.2c3.9-1.7,7.2,2.6-1,8.3c-0.1,3.6,1.5,3.3,4.7,1.4
			c0.1,0,1.6-1.1,1.7-1.1C213.9,30.9,213.5,31.9,212.5,32.5z M211.1,24.3c-0.8-0.2-3,1.6-3.5,4.8C211.2,26,211.7,24.5,211.1,24.3z"
			/>
	</g>
</g>
<g opacity="0.58">
	<path fill="#FFFFFF" d="M20.8,99.9c0-2.5,1.7-4.4,4.3-4.4c2.6,0,4.3,1.9,4.3,4.4c0,2.5-1.7,4.4-4.3,4.4
		C22.5,104.3,20.8,102.4,20.8,99.9z M28.6,99.9c0-2.1-1.4-3.7-3.4-3.7c-2.1,0-3.4,1.6-3.4,3.7c0,2.1,1.3,3.7,3.4,3.7
		C27.2,103.6,28.6,102,28.6,99.9z"/>
	<path fill="#FFFFFF" d="M31.1,99.9c0-2.6,2-4.4,4.5-4.4c1.4,0,2.5,0.6,3.2,1.6l-0.7,0.4c-0.6-0.8-1.5-1.2-2.6-1.2
		c-2,0-3.6,1.5-3.6,3.6c0,2.1,1.6,3.7,3.6,3.7c1,0,2.1-0.5,2.6-1.2l0.7,0.4c-0.8,1-1.9,1.6-3.3,1.6C33.1,104.3,31.1,102.5,31.1,99.9
		z"/>
	<path fill="#FFFFFF" d="M42.4,104.1v-7.7h-2.7v-0.8h6.3v0.8h-2.7v7.7H42.4z"/>
	<path fill="#FFFFFF" d="M46.7,99.9c0-2.5,1.7-4.4,4.3-4.4c2.6,0,4.3,1.9,4.3,4.4c0,2.5-1.7,4.4-4.3,4.4
		C48.4,104.3,46.7,102.4,46.7,99.9z M54.4,99.9c0-2.1-1.4-3.7-3.4-3.7c-2.1,0-3.4,1.6-3.4,3.7c0,2.1,1.3,3.7,3.4,3.7
		C53.1,103.6,54.4,102,54.4,99.9z"/>
	<path fill="#FFFFFF" d="M57.4,104.1v-8.5H61c1.5,0,2.5,0.8,2.5,2.2c0,1-0.7,1.7-1.4,1.9c0.9,0.2,1.6,1.1,1.6,2.1
		c0,1.4-1,2.3-2.6,2.3H57.4z M62.6,97.9c0-0.9-0.6-1.5-1.7-1.5h-2.7v3H61C62,99.4,62.6,98.8,62.6,97.9z M62.8,101.8
		c0-0.8-0.6-1.6-1.8-1.6h-2.8v3.2H61C62.1,103.4,62.8,102.8,62.8,101.8z"/>
	<path fill="#FFFFFF" d="M65.7,104.1v-8.5h5.7v0.8h-4.8v3h4.7v0.8h-4.7v3.2h4.8v0.8H65.7z"/>
	<path fill="#FFFFFF" d="M78.6,104.1l-2.4-3.4h-1.9v3.4h-0.8v-8.5h3.3c1.7,0,2.7,1.1,2.7,2.5c0,1.4-1,2.4-2.4,2.5l2.6,3.5H78.6z
		 M78.6,98.2c0-1-0.7-1.7-1.9-1.7h-2.4v3.5h2.4C78,99.9,78.6,99.2,78.6,98.2z"/>
	<path fill="#FFFFFF" d="M85.4,104.1v-0.7c3.8-1.7,5.7-3.4,5.7-5.1c0-1.2-1-2-2.3-2c-1.3,0-2.4,0.5-2.9,1.3l-0.6-0.6
		c0.7-1,2.1-1.6,3.5-1.6c1.7,0,3.2,1.1,3.2,2.8c0,2-2.1,3.9-4.9,5.1h4.7v0.8H85.4z"/>
	<path fill="#FFFFFF" d="M93.7,100.8V100h8.2v0.7H93.7z"/>
	<path fill="#FFFFFF" d="M103.5,104.4l0.6-0.6c0.7,0.9,1.6,1.5,2.9,1.5c1.5,0,2.6-1.1,2.6-2.5c0-1.6-1.1-2.5-2.6-2.5
		c-0.9,0-1.7,0.3-2.5,1l-0.7-0.3v-5.4h5.9v0.8h-5v4c0.5-0.5,1.4-1,2.4-1c1.7,0,3.3,1.1,3.3,3.3c0,2-1.6,3.3-3.5,3.3
		C105.3,106.1,104.2,105.5,103.5,104.4z"/>
	<path fill="#FFFFFF" d="M112.7,106l-0.4-0.4c0.5-0.3,0.9-0.9,0.9-1.4c0,0-0.1,0-0.2,0c-0.4,0-0.6-0.3-0.6-0.6
		c0-0.4,0.3-0.7,0.7-0.7c0.4,0,0.8,0.4,0.8,1C113.8,104.8,113.3,105.6,112.7,106z"/>
	<path fill="#FFFFFF" d="M119.6,104.1v-0.7c3.8-1.7,5.7-3.4,5.7-5.1c0-1.2-1-2-2.3-2c-1.3,0-2.4,0.5-2.9,1.3l-0.6-0.6
		c0.7-1,2.1-1.6,3.5-1.6c1.7,0,3.2,1.1,3.2,2.8c0,2-2.1,3.9-4.9,5.1h4.7v0.8H119.6z"/>
	<path fill="#FFFFFF" d="M132.2,104.3c-2.7,0-3.8-2.3-3.8-4.4c0-2.2,1.1-4.4,3.8-4.4c2.6,0,3.8,2.2,3.8,4.4
		C136,102.1,134.9,104.3,132.2,104.3z M132.2,96.3c-2.1,0-2.9,1.8-2.9,3.6c0,1.8,0.8,3.6,2.9,3.6c2,0,2.8-1.8,2.8-3.6
		C135.1,98.1,134.3,96.3,132.2,96.3z"/>
	<path fill="#FFFFFF" d="M139.5,104.1v-7.3l-1.6,1.8l-0.5-0.6l2.3-2.4h0.8v8.5H139.5z"/>
	<path fill="#FFFFFF" d="M142.7,104.4l0.6-0.6c0.7,0.9,1.6,1.5,2.9,1.5c1.5,0,2.6-1.1,2.6-2.5c0-1.6-1.1-2.5-2.6-2.5
		c-0.9,0-1.7,0.3-2.5,1l-0.7-0.3v-5.4h5.9v0.8h-5v4c0.5-0.5,1.4-1,2.4-1c1.7,0,3.3,1.1,3.3,3.3c0,2-1.6,3.3-3.5,3.3
		C144.5,106.1,143.5,105.5,142.7,104.4z"/>
</g>
</svg>
