<?xml version="1.0" encoding="utf-8"?>
<!-- Generator: Adobe Illustrator 18.1.1, SVG Export Plug-In . SVG Version: 6.00 Build 0)  -->
<svg version="1.1" id="Layer_1" xmlns="http://www.w3.org/2000/svg" xmlns:xlink="http://www.w3.org/1999/xlink" x="0px" y="0px"
	 viewBox="358.4 399.8 183.5 99.6" enable-background="new 358.4 399.8 183.5 99.6" xml:space="preserve">
<g opacity="0.75">
	<path fill="#FFFFFF" d="M425.8,492.2c0-1.9,1.3-3.3,3.2-3.3c2,0,3.2,1.5,3.2,3.3c0,1.9-1.3,3.3-3.2,3.3
		C427.1,495.5,425.8,494,425.8,492.2z M431.6,492.2c0-1.6-1-2.8-2.6-2.8c-1.6,0-2.6,1.2-2.6,2.8c0,1.6,1,2.8,2.6,2.8
		C430.6,495,431.6,493.8,431.6,492.2z"/>
	<path fill="#FFFFFF" d="M433.5,492.2c0-2,1.5-3.3,3.4-3.3c1.1,0,1.9,0.5,2.4,1.2l-0.5,0.3c-0.4-0.6-1.2-0.9-1.9-0.9
		c-1.5,0-2.7,1.1-2.7,2.7c0,1.6,1.2,2.8,2.7,2.8c0.8,0,1.6-0.4,1.9-0.9l0.5,0.3c-0.6,0.7-1.4,1.2-2.5,1.2
		C435,495.5,433.5,494.2,433.5,492.2z"/>
	<path fill="#FFFFFF" d="M442,495.4v-5.8h-2V489h4.7v0.6h-2.1v5.8H442z"/>
	<path fill="#FFFFFF" d="M445.3,492.2c0-1.9,1.3-3.3,3.2-3.3c2,0,3.2,1.5,3.2,3.3c0,1.9-1.3,3.3-3.2,3.3
		C446.6,495.5,445.3,494,445.3,492.2z M451.1,492.2c0-1.6-1-2.8-2.6-2.8c-1.6,0-2.6,1.2-2.6,2.8c0,1.6,1,2.8,2.6,2.8
		C450.1,495,451.1,493.8,451.1,492.2z"/>
	<path fill="#FFFFFF" d="M453.3,495.4V489h2.8c1.1,0,1.9,0.6,1.9,1.6c0,0.8-0.5,1.3-1.1,1.4c0.7,0.2,1.2,0.8,1.2,1.6
		c0,1.1-0.7,1.7-1.9,1.7H453.3z M457.3,490.7c0-0.7-0.5-1.1-1.3-1.1H454v2.2h2.1C456.9,491.8,457.3,491.3,457.3,490.7z M457.4,493.6
		c0-0.6-0.5-1.2-1.3-1.2H454v2.4h2.1C456.9,494.8,457.4,494.3,457.4,493.6z"/>
	<path fill="#FFFFFF" d="M459.6,495.4V489h4.3v0.6h-3.6v2.2h3.6v0.6h-3.6v2.4h3.6v0.6H459.6z"/>
	<path fill="#FFFFFF" d="M469.3,495.4l-1.8-2.6h-1.4v2.6h-0.6V489h2.5c1.3,0,2,0.8,2,1.9c0,1.1-0.7,1.8-1.8,1.9l1.9,2.6H469.3z
		 M469.4,490.9c0-0.8-0.5-1.3-1.4-1.3h-1.8v2.6h1.8C468.9,492.2,469.4,491.7,469.4,490.9z"/>
	<path fill="#FFFFFF" d="M474.4,495.4v-0.6c2.8-1.3,4.3-2.6,4.3-3.8c0-0.9-0.8-1.5-1.7-1.5c-1,0-1.8,0.4-2.2,1l-0.4-0.4
		c0.5-0.7,1.6-1.2,2.7-1.2c1.3,0,2.4,0.8,2.4,2.1c0,1.5-1.6,2.9-3.7,3.8h3.5v0.6H474.4z"/>
	<path fill="#FFFFFF" d="M480.7,492.9v-0.6h6.2v0.6H480.7z"/>
	<path fill="#FFFFFF" d="M488.1,495.6l0.4-0.4c0.5,0.7,1.2,1.1,2.2,1.1c1.1,0,1.9-0.8,1.9-1.9c0-1.2-0.8-1.9-1.9-1.9
		c-0.7,0-1.3,0.2-1.9,0.8l-0.5-0.2V489h4.5v0.6H489v3c0.4-0.4,1-0.7,1.8-0.7c1.3,0,2.5,0.9,2.5,2.5c0,1.5-1.2,2.5-2.6,2.5
		C489.4,496.9,488.6,496.4,488.1,495.6z"/>
	<path fill="#FFFFFF" d="M495,496.8l-0.3-0.3c0.4-0.3,0.6-0.7,0.7-1.1c0,0-0.1,0-0.1,0c-0.3,0-0.5-0.2-0.5-0.5
		c0-0.3,0.2-0.5,0.5-0.5c0.3,0,0.6,0.3,0.6,0.7C495.8,495.9,495.5,496.5,495,496.8z"/>
	<path fill="#FFFFFF" d="M500.3,495.4v-0.6c2.8-1.3,4.3-2.6,4.3-3.8c0-0.9-0.8-1.5-1.7-1.5c-1,0-1.8,0.4-2.2,1l-0.4-0.4
		c0.5-0.7,1.6-1.2,2.7-1.2c1.3,0,2.4,0.8,2.4,2.1c0,1.5-1.6,2.9-3.7,3.8h3.5v0.6H500.3z"/>
	<path fill="#FFFFFF" d="M509.7,495.5c-2,0-2.9-1.7-2.9-3.3c0-1.6,0.8-3.3,2.9-3.3c2,0,2.9,1.7,2.9,3.3
		C512.6,493.8,511.7,495.5,509.7,495.5z M509.7,489.5c-1.6,0-2.2,1.4-2.2,2.7c0,1.3,0.6,2.7,2.2,2.7c1.5,0,2.1-1.4,2.1-2.7
		C511.9,490.8,511.3,489.5,509.7,489.5z"/>
	<path fill="#FFFFFF" d="M515.2,495.4v-5.5l-1.2,1.3l-0.4-0.4l1.7-1.8h0.6v6.4H515.2z"/>
	<path fill="#FFFFFF" d="M517.7,495.6l0.4-0.4c0.5,0.7,1.2,1.1,2.2,1.1c1.1,0,1.9-0.8,1.9-1.9c0-1.2-0.8-1.9-1.9-1.9
		c-0.7,0-1.3,0.2-1.9,0.8l-0.5-0.2V489h4.5v0.6h-3.8v3c0.4-0.4,1-0.7,1.8-0.7c1.3,0,2.5,0.9,2.5,2.5c0,1.5-1.2,2.5-2.6,2.5
		C519,496.9,518.2,496.4,517.7,495.6z"/>
</g>
<g>
	<path fill="#E25926" d="M384.2,413.3c0,0-1.7-0.5-3.9-0.5c-7.6,0-12,4-12,7.8c0,3.3,3.5,6.5,11.4,6.5c4.4,0,9.9-0.3,14.8-0.7
		c2.8-3.3,5.2-6.5,6.9-9.3c3.7-6.2,5.9-9.3,8.5-16.9c0.1-0.4,0.5-0.4,0.5-0.4l1.7,0.2c0.4,0,0.4,0.3,0.4,0.3c0,0.1,0,0.3-0.2,1.7
		c-0.6,5-1.6,14.6-2,23.6c4.3,0.5,4.5,2.1,4.5,2.3c0,0-1.1-0.2-1.8-0.2c-0.8,0-1.8,0-2.8,0.1c0,1.5,0,2.9,0,4.2
		c0,7.6,0.8,13.9,3.4,13.9c0.3,0,0.6-0.3,0.6-0.3s0.1,0,0.1,0.1c0,0.8-0.8,1.1-2.1,1.1c-5.4,0-6.9-4.7-6.9-11.2
		c0-2.3,0.2-4.8,0.5-7.4c-3.1,0.3-6.5,0.8-9.7,1.2c-6.3,9.1-14.8,17.5-26.2,17.5c-6.9,0-11.5-4.3-11.5-8.5c0-1.2,0.3-2,0.8-3
		c0,0,0.1,0.1,0.1,0.1c-0.2,0.6-0.3,1.2-0.3,1.8c0,4,4.2,6.3,9.9,6.3c6.9,0,15.5-6.4,22.5-13.6c-3.4,0.4-6.5,0.8-8.8,0.8
		c-8.1,0-16.2-2.5-16.2-9.2c0-6.5,7.7-9.4,12.8-9.4c1.4,0,3.6,0.3,5.1,1L384.2,413.3z M398.1,426.1c3.3-0.3,6.1-0.5,7.9-0.6
		c0.8-6.1,2-12.6,2.4-17.7C406.2,411,402.9,418.5,398.1,426.1z"/>
	<path fill="#E25926" d="M413.2,441.9c-0.5,0-1.1-0.1-1.1-0.4c0-0.1,0-0.2,0.1-0.3c2.5-3.2,4.4-8.9,4.9-12.7c-1-0.9-1.5-2.6-1.5-4.1
		c0-1.8,0.7-3.4,2.1-3.4c1.3,0,1.6,0.9,1.6,2c0,0.9-0.2,2-0.2,2.9c0,0.8,0.1,1.1,0.4,1.1c0.2,0,0.5-0.2,1-0.4c1.5-1,3.9-3.5,4.2-3.5
		c0.6,0,1.5,1.1,1.5,1.8c0,0.3-0.1,0.6-0.1,0.6c-1.2,2.5-2.5,6.9-2.5,9.2c0,2.3,0.8,3.8,1.8,3.8c0.9,0,1.9-1.1,2.9-3.7
		c0.1-0.3,0-0.5,0.6-0.9c0.1-0.1,0.2-0.1,0.3-0.1c0.1,0,0.1,0.1,0.1,0.2s0,0.2,0,0.2c-0.3,2.6-2,7.5-5.4,7.5c-2.4,0-3.1-2.5-3.1-5.4
		s0.7-6,1.1-7.4c-0.7,0.4-1.7,0.5-2.6,0.5c-0.2,0-0.5,0-0.7,0c-0.4,3.6-2.7,9.7-4.7,12.6C413.8,441.8,413.5,441.9,413.2,441.9z"/>
	<path fill="#E25926" d="M432.4,409.9c0,0,0.1,0,0.2,0c1,0.7,3.1,0.6,3.1,1.5c0,0.6-0.6,2.9-1.2,6c3-0.4,5.4-0.9,6.1-0.9
		c0.5,0,1.3,0,1.3,0.4c0,0.3-0.5,0.3-0.7,0.5c-0.3,0.5-0.4,0.8-0.4,0.8c-0.8,0.4-3.7,1.5-7,2.3c-0.9,4.6-1.8,10.3-1.8,15.1
		c0,3.4,0.4,6.5,1.7,8.4c0,0,0,0.6-0.6,0.6c-2.7-1.3-3.6-6.3-3.6-12.1c0-3.6,0.3-7.7,0.8-11.3c-1,0.2-1.9,0.2-2.8,0.2
		c-2.3,0-3.4-1.5-3.4-3.9c0-0.4,0.1-1.1,0.4-1.1c0.1,0,0.2,0,0.3,0.2c1.5,0.7,3.5,0.9,5.6,0.9h0.4c0.4-2.5,0.8-4.7,1.2-7.6
		C432,410.1,432.2,409.9,432.4,409.9z"/>
	<path fill="#E25926" d="M447.3,428c-0.5,0.9-1.1,3.1-2,5.5c-2.3,5.7-4.8,8.5-6.6,8.5s-3.1-2.7-3.1-7.7c0-3.8,0.7-8.1,1.1-10
		c0,0,0.2-0.6,0.5-0.6c0.8,0,1.5,0,2.7-0.3c0.5,0,0.5,0.4,0.5,0.4c-1.1,6.4-1.8,9-1.8,13.4c0,2,0.3,2.9,0.9,2.9c1,0,2.7-2.7,4.6-7.2
		c1.9-4.5,2.8-9.5,3-11.3c0.1-1,2-1.8,2.7-1.8c0.1,0,0.4,0,0.4,0.2c0,0-0.7,2.9-0.7,6.3c0,3.2,2.7,10,2.7,13.6
		c0,3.4-2.4,4.9-4.8,4.9c-2.2,0-4.3-1.3-4.3-3.6c0-0.9,0.3-2.2,1.3-2.2c0.2,0,0.3,0,0.5,0.1c-0.1,0.4-0.1,0.7-0.1,1
		c0,1.5,1.1,2.3,2.2,2.3s2.3-0.8,2.3-2.6C449.2,436.2,447.3,429,447.3,428z"/>
	<path fill="#E25926" d="M484,439.6c1.1,0,2.7-4.5,3.6-6.9c1.9-4.5,2.8-9.5,3-11.3c0.1-1,2-1.8,2.7-1.8c0.1,0,0.4,0,0.4,0.2
		c0,0-0.7,2.9-0.7,6.3c0,3.2,2.7,10,2.7,13.6c0,2.6-2.2,3.9-4.2,3.9c-2,0-4-1.2-4-3.7c0-1.3,0.4-2.9,0.7-2.9c0,0,0.1,0,0.1,0.1v0.1
		c0,2.5,1.5,4,2.7,4c0.9,0,1.6-0.8,1.6-2.5c0-3.6-1.9-9.8-1.9-10.8c-0.5,0.9-1.1,3.1-2,5.5c-1.5,3.7-3.2,8.2-5.3,8.2
		c-3.8,0-4.2-8.5-4.3-11.6c-2.1,2.3-3.2,8.4-4.2,11.3c0,0.3-0.3,0.4-0.7,0.4c-0.5,0-1.1-0.3-1.2-0.5c-0.2-0.4-0.8-0.2-0.8-0.7
		c0-0.1,0-0.3,0-0.4c0.2-0.9,0.3-3.3,0.5-6.1c0-0.3,0.4-5.4,0.4-7.3c0-0.4,0-0.7-0.1-0.7c-1.2,0-2.1,15.3-6.6,15.3
		c-1.7,0-3.4-1.5-3.8-5.5c-1.2,3.1-2.9,5.5-4.6,5.5c-3.1,0-4.4-3.2-4.4-7c0-5.5,2.7-12.3,6.9-12.3c2.3,0,3.5,1.5,3.8,3.5
		c0.8,0.2,1.9,0.6,1.9,1.1c0,1.3-0.6,5.3-0.6,8.4c0,2.3,0.3,4,1.4,4c3.2,0,4.3-15.3,5.8-16.2c0.6-0.4,1.4-0.7,2.1-0.7
		c0.5,0,0.9,0.2,1,0.8c0.1,1.5,0.1,3.3,0.1,5c0,2.1,0,4.1,0,5.2c1.4-3.1,3.1-8.3,5.6-10.7c0.1-0.1,0.2-0.1,0.4-0.1c0.5,0,2,1,2,1.5
		c0,0.1,0,0.1,0,0.2c-1.5,3.4-1.6,8.9-1.6,10.3C482.5,436.5,482.8,439.6,484,439.6z M463,426.9c-0.8-1-1.5-1.4-2.1-1.4
		c-2.7,0-4.6,7.1-4.6,10.6c0,1.8,0.4,3.1,1.3,3.1C461.3,439.2,462.6,430.4,463,426.9z"/>
</g>
<g opacity="0.75">
	<path fill="#E25926" d="M504.5,435.1c0.2,0,0.4,0,0.6,0c0.1-0.1,0.1-0.2,0.1-0.3c0,0,0.2-0.4,0.6-8.1c0-0.1,0-0.2,0-0.2
		c0.1,0,0.1,0,0.2,0.1c0.1,0.2,0.6,0.9,0.8,1.1c0.1,0.1,0.2,0.2,0.2,0.4c0,0.1,0,0.1,0,0.2c-0.3,2.3-0.6,4.6-0.9,6.7
		c0.6-0.1,1.1-0.2,1.6-0.2c0.5,0,0.9,0.5,1.2,1c0.1,0.1,0.4,0.1,0.4,0.2c0,0.1,0,0.1-0.1,0.2c-0.3,0.1-1.6,0.2-2.4,0.2
		c-0.2,0-0.3,0-0.4,0c-0.1,0-0.2,0.2-0.2,0.2c0.9,1.5,1.4,4.4,1.4,7c0,2.8-0.6,5.3-1.8,5.3c-1.3,0-1.7-1.3-1.7-3.1
		c0-2.7,0.8-6.5,0.9-9.3c0,0,0-0.3-0.3-0.4c-0.5-0.1-0.8-0.1-1-0.2c0,0.2,0,0.3,0,0.5c0,1.9-1,4-2.5,4c-1.5,0-2.1-1.4-2.1-2.9
		c0-2.1,1.1-4.5,2.7-4.5c1.3,0,1.4,0.9,1.4,1.2v0.1c-0.3-0.1-0.5-0.2-0.8-0.2c-1.5,0-2.2,2.1-2.2,3.7c0,1.1,0.3,2,0.9,2
		c0.8,0,1.3-1.6,1.3-3c0-0.8-0.2-1.5-0.6-1.8c0,0,0.6-0.3,0.9-0.4C503.7,435.1,504.1,435.1,504.5,435.1z M505.7,437.8
		c-0.4,3.9-0.7,6.9-0.7,8c0,1.4,0.1,2,0.3,2c0.3,0,1-3.4,1-6.4C506.3,440,506.1,438.6,505.7,437.8z"/>
	<path fill="#E25926" d="M513.5,428.6C513.5,428.6,513.5,428.6,513.5,428.6c0.4,0.3,1.2,0.2,1.2,0.6c0,0.2-0.2,1.1-0.5,2.3
		c1.1-0.1,2.1-0.3,2.3-0.3c0.2,0,0.5,0,0.5,0.1c0,0.1-0.2,0.1-0.3,0.2c-0.1,0.2-0.2,0.3-0.2,0.3c-0.3,0.1-1.4,0.6-2.7,0.9
		c-0.4,1.8-0.7,3.9-0.7,5.8c0,1.3,0.2,2.5,0.6,3.2c0,0,0,0.2-0.2,0.2c-1-0.5-1.4-2.4-1.4-4.6c0-1.4,0.1-2.9,0.3-4.3
		c-0.4,0.1-0.7,0.1-1.1,0.1c-0.9,0-1.3-0.6-1.3-1.5c0-0.2,0.1-0.4,0.2-0.4c0,0,0.1,0,0.1,0.1c0.6,0.3,1.3,0.3,2.1,0.3h0.2
		c0.1-1,0.3-1.8,0.5-2.9C513.3,428.7,513.4,428.6,513.5,428.6z"/>
	<path fill="#E25926" d="M516.1,436.8C516.1,436.8,516.1,436.8,516.1,436.8c0.3-0.6,1.6-3.1,2.1-3.1c0.2,0,0.3,0.2,0.3,0.2
		c0.3,0,0.7,0.1,0.7,0.4c-0.2,1.3-0.3,2.5-0.3,3.7c0,0.8,0.1,1.8,0.6,1.8c0.6,0,1-0.8,1.2-1.3c0,0,0-0.1,0.1-0.1
		c0.1,0,0.2,0.2,0.2,0.3c0,0.6-0.5,1.3-0.9,1.7c-0.3,0.2-0.6,0.3-0.8,0.3c-1.5,0-1.6-2.3-1.6-3.3c0-0.8,0.1-1.6,0.1-2
		c0-0.1,0-0.3-0.1-0.3c-0.1,0-0.9,1.5-1,1.9c-0.4,0.8-0.6,2-0.6,2.8c0,0.6,0,1.1,0,1.1c0,0.2,0,0.3-0.1,0.3c0,0-0.1,0-0.1-0.1
		c-0.3-0.2-0.9-0.5-1-0.7c0-0.6,0.3-2.9,0.4-5.4H515c-0.1,0-0.1,0-0.1,0c-0.2-0.1-0.1-0.2-0.2-0.2c-0.1,0-0.2,0-0.2-0.1
		c0,0,0.4-0.1,0.6-0.2l0.1-0.6c0.3-4.2,1.6-8.8,2.6-8.8c0.8,0,1.2,0.9,1.2,2.1c0,2.2-1.1,5.5-2.8,7.1
		C516.1,435.3,516,436.3,516.1,436.8C516,436.8,516,436.8,516.1,436.8z M517.9,427.2c-0.6,0-1.4,3.3-1.7,6.4
		c1.2-1.5,1.9-4.4,1.9-5.7C518.1,427.5,518,427.2,517.9,427.2z"/>
	<path fill="#E25926" d="M528.9,435.4c0,0,0.1-0.1,0.1-0.1c0.1,0,0.1,0,0.1,0.2c0,0.1,0,0.2,0,0.3c0,0.2,0.1,0.2,0.1,0.4v0
		c0,3.3-2.4,4.8-4.7,4.8c-2.1,0-4-1.2-4-3.5c0-2,1.1-4.3,2.7-4.3c0.8,0,1.2,0.6,1.2,1.3c0,1.1-0.8,2.5-2.6,3.5c0.1,1.4,0.8,2,1.7,2
		C525.2,439.9,527.8,437.8,528.9,435.4z M523.2,434.1c-0.7,0-1.3,1.7-1.4,3.2c1.1-0.8,1.7-2.1,1.7-2.8
		C523.5,434.2,523.4,434.1,523.2,434.1z"/>
</g>
<g>
	<path fill="#E25926" d="M399.4,465.3c0,0-0.1,0-0.2,0.2c-1.7,6.3-5.3,18.4-14.1,18.4c-7.3,0-10.7-6.9-10.7-14.9
		c0-11.1,6.6-24.3,19-24.3c3.7,0,7.7,2.6,7.7,6.2c0,1.3-0.8,2.2-1.2,3.1c-0.7,1.1-2.5,4.1-2.5,4.1s-0.3,0.4-0.6,0.4
		c-0.9,0-1.8-3.6-1.8-4.5c0-1.4,1.2-2.9,1.2-2.9s1-1.3,1.2-1.8c0-0.3-1.4-0.5-2.7-0.5c-9.5,0-17.2,12.9-17.2,22.2
		c0,5.3,2.5,9.4,8.5,9.4c6.1,0,11.7-7.2,14.2-25c0-0.2,0-0.4,0.1-0.4c0.4,0,2.4,1.4,2.6,1.5c0.3,0.3,0.4,0.6,0.4,1
		c0,0.1,0,0.3,0,0.5c-0.9,7.3-0.4,19.2-2.5,29.2c3.6,0.2,7.3,0.4,10.8,0.4c3.6,0,6.9-0.2,9.2-1.1c0.3-0.1,0.5-0.1,0.6-0.1
		c0.1,0,0.1,0,0.1,0.1c0,0.5-1,0.6-1.1,1.2c-0.9,3.2-3.4,4.2-9.3,4.2c-3,0-7.1-1.1-11.1-1.9c-0.3,0.9-0.5,1.7-0.8,2.6
		c-1.5,4-5.1,6.8-8.8,6.8c-5.7,0-8.2-2.4-8.2-5.1c0-3.4,4.2-7.3,11.6-7.3c0.9,0,1.8,0,2.7,0c1.9-7.6,2.9-14.6,3.2-21.7
		C399.5,465.4,399.5,465.3,399.4,465.3z M395.7,489.2c-1.8-0.3-3.5-0.5-5-0.5c-3.7,0-6.1,2.4-6.1,4.6c0,1.6,1.3,3,4.5,3
		C391.7,496.2,394.4,494.1,395.7,489.2z"/>
	<path fill="#E25926" d="M404,483.1c-0.5,0-1.1-0.1-1.1-0.4c0-0.1,0-0.2,0.1-0.3c2.5-3.2,4.4-8.9,4.9-12.7c-1-0.9-1.5-2.6-1.5-4.1
		c0-1.8,0.7-3.4,2.1-3.4c1.3,0,1.6,0.9,1.6,2c0,0.9-0.2,2-0.2,2.9c0,0.8,0.1,1.1,0.4,1.1c0.2,0,0.5-0.2,1-0.4c1.5-1,3.9-3.5,4.2-3.5
		c0.6,0,1.5,1.1,1.5,1.8c0,0.3-0.1,0.6-0.1,0.6c-1.2,2.5-2.5,6.9-2.5,9.2c0,2.3,0.8,3.8,1.8,3.8c0.9,0,1.9-1.1,2.9-3.7
		c0.1-0.3,0-0.5,0.6-0.9c0.1-0.1,0.2-0.1,0.3-0.1c0.1,0,0.1,0.1,0.1,0.2c0,0.1,0,0.2,0,0.2c-0.3,2.6-2,7.5-5.4,7.5
		c-2.4,0-3.1-2.5-3.1-5.4s0.7-6,1.1-7.4c-0.7,0.4-1.7,0.5-2.6,0.5c-0.2,0-0.5,0-0.7,0c-0.4,3.6-2.7,9.7-4.7,12.6
		C404.6,483,404.3,483.1,404,483.1z"/>
	<path fill="#E25926" d="M441.4,460.9c0.1,0,0.4,0,0.4,0.2c0,0-0.7,2.9-0.7,6.3c0,1.8,1,3.8,1.9,5.9c2.6-1.7,5-3.5,5.5-5.3
		c0,0-0.4-1.4-0.4-3c0-0.8,0.1-1.6,0.3-2.4c0.2-0.8,2.1-1.9,3.4-1.9c0.1,0,0.2,0,0.4,0c0.1,0,0.4,0,0.4,0.2c0,0-1.2,2.9-1.9,5
		c0,0.4,0,0.9,0,1.4c0,4.2,3.1,7.7,3.1,11.5c0,3.1-2.4,5-4.6,5c-1.8,0-3.4-1.2-3.4-3.8c0-2.1,0.8-4.3,2.5-4.3c0.5,0,0.5,0.2,0.5,0.3
		c-0.5,0.8-1.1,2.4-1.1,3.8s0.6,1.9,1.3,1.9c1,0,2.1-1,2.1-2.3c0-3.3-1.6-6.2-2.2-9.3c-1.5,1.9-3.5,3.3-5.3,4.5
		c0.4,1.2,0.8,2.4,0.8,3.5c0,3.3-2.2,4.9-4.2,4.9c-1.7,0-3.3-1.1-3.3-3.4c0-1.5,1.8-3.1,3.9-4.6c-0.7-2.5-1.8-5-1.8-5.7
		c-0.5,0.9-1.1,3.1-2,5.5c-1.5,3.7-4.2,7.6-6.3,7.6c-1.2,0-2.3-1.4-2.5-5.1c-1.2,3-2.8,5.4-4.6,5.4c-3.1,0-4.4-3.2-4.4-7
		c0-5.5,2.7-12.3,6.9-12.3c2.3,0,3.5,1.5,3.8,3.5c0.8,0.2,1.9,0.6,1.9,1.1c0,1.3-0.6,5.3-0.6,8.4c0,2.7,0.4,3.8,0.9,3.8
		c1.1,0,2.7-3.7,3.7-6.1c1.9-4.5,2.8-9.5,3-11.3C438.8,461.7,440.7,460.9,441.4,460.9z M428.3,468.1c-0.8-1-1.5-1.4-2.1-1.4
		c-2.7,0-4.6,7.1-4.6,10.6c0,1.8,0.4,3.1,1.3,3.1C426.6,480.4,427.9,471.6,428.3,468.1z M439.3,480.5c1.4,0,1.9-1,1.9-2.3
		c0-0.6-0.1-1.2-0.3-1.9c-1.6,1.1-2.7,2-2.7,3.1C438.2,480,438.7,480.5,439.3,480.5z"/>
	<path fill="#E25926" d="M465.3,477.5c0.2-0.4,0.3-0.5,0.4-0.5c0.1,0,0.1,0.2,0.1,0.3v0.1c0,0.1,0.3,0.2,0.3,0.2
		c0,2-1.8,5.8-4.2,5.8c-4.6,0-6.1-6-6.1-13.4c0-11.6,4-26.7,6.8-26.7c2.2,0,3.1,2.2,3.1,5.4c0,6.5-3.7,17.5-7.6,23.7
		c0.3,4.5,1.5,7.8,4.3,7.8C463,480.2,464.2,480.1,465.3,477.5z M462.8,448.9c-1.7,0-4.7,11.4-5,20.4c3.3-5.8,5.5-15.1,5.5-18.8
		C463.4,449.5,463.2,448.9,462.8,448.9z"/>
	<path fill="#E25926" d="M493.2,463.8c0.1-0.1,0.2-0.1,0.4-0.1c0.4,0,1.2,0.5,1.7,1c0.1,0.1,0.4,0.4,0.4,0.6c0,0,0,0.1-0.1,0.2
		c-1.4,1.6-2.4,6.5-2.4,10.9c0,3.8,0.8,7.1,2.7,7.1c0.7,0,1.5-0.4,2.6-1.5c0,0,0.1,0,0.2,0c0.1,0,0.1,0,0.1,0.1c0,2.4-1.9,3.5-4,3.5
		c-3.7,0-4.5-5.4-4.5-9.7c0-2,0.2-3.8,0.3-4.6c-2.1,2.3-3.2,8.4-4.2,11.3c0,0.3-0.3,0.4-0.7,0.4c-0.5,0-1.1-0.3-1.2-0.5
		c-0.2-0.4-0.8-0.2-0.8-0.7c0-0.1,0-0.3,0-0.4c0.2-0.9,0.3-3.3,0.5-6.1c0-0.3,0.4-5.4,0.4-7.3c0-0.4,0-0.7-0.1-0.7
		c-1.2,0-2.1,15.3-6.6,15.3c-1.7,0-3.4-1.5-3.8-5.5c-1.2,3.1-2.9,5.5-4.6,5.5c-3.1,0-4.4-3.2-4.4-7c0-5.5,2.7-12.3,6.9-12.3
		c2.3,0,3.5,1.5,3.8,3.5c0.8,0.2,1.9,0.6,1.9,1.1c0,1.3-0.6,5.3-0.6,8.4c0,2.3,0.3,4,1.4,4c3.2,0,4.3-15.3,5.8-16.2
		c0.6-0.4,1.4-0.7,2.1-0.7c0.5,0,0.9,0.2,1,0.8c0.1,1.5,0.1,3.3,0.1,5c0,2.1,0,4.1,0,5.2C489,471.4,490.6,466.2,493.2,463.8z
		 M474.4,468.1c-0.8-1-1.5-1.4-2.1-1.4c-2.7,0-4.6,7.1-4.6,10.6c0,1.8,0.4,3.1,1.3,3.1C472.7,480.4,474,471.6,474.4,468.1z"/>
	<path fill="#E25926" d="M510.2,472.2c0,4.8,0.4,9.4,1.5,13v0.1c0,0.4-0.5,0.7-0.8,0.7c-2.3-1.1-3.5-5.5-3.9-11.1
		c-1.1,4.2-3.3,7.7-5.5,7.7c-3.3,0-4.7-3-4.7-6.6c0-8,4.6-12,7.4-12c1.3,0,2.2,0.8,2.2,2.4c0,0.4,0,1-0.2,1.5
		c-0.4-0.5-0.9-0.8-1.5-0.8c-2.2,0-5,3.8-5,10.1c0,2.3,0.6,3.2,1.5,3.2c2,0,5.2-4.6,5.6-10.4v-0.2c0-10.7,2.4-22.9,6.5-23.7
		C511.9,451.9,510.2,462.5,510.2,472.2z"/>
	<path fill="#E25926" d="M511.7,482.6c0,0-1-0.2-1-0.5c0,0,0-0.1,0-0.1c3-4.3,6.3-16.1,6.6-19.3c0.1-1,2-1.8,2.7-1.8
		c0.1,0,0.4,0,0.4,0.2c0,0-0.7,2.9-0.7,6.3c0,1.8,0.8,3.9,1.5,6.3c5.5-1.1,13.8,0,19.3-2c0.9-0.3,1.2-0.6,1.3-0.6c0,0,0.1,0,0.1,0
		c0,0.2-1.3,1.1-1.9,2c-2.3,3.7-5.5,4.6-8.8,4.6c-3.1,0-6.4-0.8-9.1-0.9c0.1,0.8,0.3,1.7,0.3,2.2c0,2.6-1.9,4-3.7,4
		c-1.6,0-3.2-1.1-3.2-3.5c0-2.6,1.3-4.1,3.3-5c-0.5-2.3-1.2-4.6-1.2-5.3C516.4,471.2,514.4,479.1,511.7,482.6z M517.9,480.5
		c1,0,1.3-0.9,1.3-2.3c0-0.3,0-0.6-0.1-0.9c-1.7,0.5-2.6,1.5-2.6,2.3C516.5,480.1,517,480.5,517.9,480.5z"/>
</g>
</svg>
