<?xml version="1.0" encoding="utf-8"?>
<!-- Generator: Adobe Illustrator 16.0.4, SVG Export Plug-In . SVG Version: 6.00 Build 0)  -->
<!DOCTYPE svg PUBLIC "-//W3C//DTD SVG 1.1//EN" "http://www.w3.org/Graphics/SVG/1.1/DTD/svg11.dtd">
<svg version="1.1" id="Layer_1" xmlns="http://www.w3.org/2000/svg" xmlns:xlink="http://www.w3.org/1999/xlink" x="0px" y="0px"
	 width="371.579px" height="207.368px" viewBox="0 0 371.579 207.368" enable-background="new 0 0 371.579 207.368"
	 xml:space="preserve">
<circle fill="#B5C034" cx="326.653" cy="108.465" r="43.926"/>
<g opacity="0.75">
	<path fill="#FFFFFF" d="M121.458,172.872c0-3.392,2.319-5.888,5.709-5.888c3.568,0,5.709,2.677,5.709,5.888
		c0,3.389-2.319,5.887-5.709,5.887C123.777,178.756,121.458,176.083,121.458,172.872z M131.806,172.872
		c0-2.855-1.784-4.996-4.638-4.996s-4.639,2.141-4.639,4.996c0,2.854,1.785,4.996,4.639,4.996S131.806,175.724,131.806,172.872z"/>
	<path fill="#FFFFFF" d="M135.196,172.872c0-3.568,2.677-5.888,6.066-5.888c1.962,0,3.39,0.892,4.283,2.142l-0.893,0.535
		c-0.713-1.07-2.14-1.605-3.39-1.605c-2.675,0-4.817,1.963-4.817,4.816s2.142,4.996,4.817,4.996c1.427,0,2.855-0.714,3.39-1.605
		l0.893,0.535c-1.07,1.248-2.497,2.142-4.459,2.142C137.872,178.756,135.196,176.44,135.196,172.872z"/>
	<path fill="#FFFFFF" d="M150.36,178.579v-10.346h-3.568v-1.072h8.386v1.072h-3.748v10.346H150.36z"/>
	<path fill="#FFFFFF" d="M156.247,172.872c0-3.392,2.32-5.888,5.71-5.888c3.567,0,5.708,2.677,5.708,5.888
		c0,3.389-2.318,5.887-5.708,5.887C158.566,178.756,156.247,176.083,156.247,172.872z M166.596,172.872
		c0-2.855-1.784-4.996-4.639-4.996s-4.639,2.141-4.639,4.996c0,2.854,1.784,4.996,4.639,4.996
		C164.811,177.868,166.596,175.724,166.596,172.872z"/>
	<path fill="#FFFFFF" d="M170.521,178.579v-11.418h4.995c1.962,0,3.39,1.072,3.39,2.854c0,1.429-0.892,2.319-1.962,2.498
		c1.25,0.358,2.142,1.427,2.142,2.854c0,1.963-1.249,3.031-3.391,3.031h-5.173L170.521,178.579L170.521,178.579z M177.656,170.194
		c0-1.249-0.892-1.961-2.32-1.961h-3.567v3.924h3.747C176.941,172.157,177.656,171.265,177.656,170.194z M177.835,175.368
		c0-1.07-0.894-2.14-2.32-2.14h-3.747v4.28h3.747C176.941,177.508,177.835,176.616,177.835,175.368z"/>
	<path fill="#FFFFFF" d="M181.759,178.579v-11.418h7.672v1.072h-6.423v3.926h6.422v1.069h-6.422v4.28h6.422v1.072h-7.671V178.579
		L181.759,178.579z"/>
	<path fill="#FFFFFF" d="M199.065,178.579l-3.213-4.639h-2.497v4.639h-1.069v-11.418h4.459c2.32,0,3.569,1.43,3.569,3.391
		c0,1.963-1.249,3.214-3.212,3.39l3.391,4.64h-1.428V178.579z M199.245,170.549c0-1.426-0.895-2.316-2.498-2.316h-3.213v4.639h3.213
		C198.35,172.872,199.245,171.978,199.245,170.549z"/>
	<path fill="#FFFFFF" d="M208.163,178.579v-1.07c4.998-2.318,7.674-4.637,7.674-6.778c0-1.604-1.43-2.675-3.033-2.675
		c-1.783,0-3.211,0.712-3.926,1.783l-0.711-0.715c0.893-1.248,2.854-2.142,4.815-2.142c2.319,0,4.282,1.429,4.282,3.747
		c0,2.676-2.855,5.174-6.604,6.779h6.244v1.07H208.163L208.163,178.579z"/>
	<path fill="#FFFFFF" d="M219.403,174.12v-1.07h11.062v1.07H219.403z"/>
	<path fill="#FFFFFF" d="M244.915,181.077l-0.533-0.535c0.713-0.535,1.07-1.248,1.248-1.963h-0.178
		c-0.537,0-0.895-0.355-0.895-0.893c0-0.534,0.357-0.895,0.895-0.895c0.532,0,1.068,0.537,1.068,1.25
		C246.342,179.472,245.807,180.542,244.915,181.077z"/>
	<path fill="#FFFFFF" d="M254.37,178.579v-1.07c4.996-2.318,7.674-4.637,7.674-6.778c0-1.604-1.431-2.675-3.033-2.675
		c-1.784,0-3.211,0.712-3.924,1.783l-0.715-0.715c0.894-1.248,2.854-2.142,4.817-2.142c2.317,0,4.282,1.429,4.282,3.747
		c0,2.676-2.855,5.174-6.602,6.779h6.243v1.07H254.37L254.37,178.579z"/>
	<path fill="#FFFFFF" d="M271.14,178.756c-3.565,0-5.175-3.032-5.175-5.887c0-2.855,1.43-5.889,5.175-5.889
		c3.567,0,5.174,3.033,5.174,5.889C276.314,175.724,274.708,178.756,271.14,178.756z M271.14,168.054
		c-2.854,0-3.925,2.495-3.925,4.817c0,2.318,1.07,4.815,3.925,4.815c2.676,0,3.747-2.497,3.747-4.815
		C275.067,170.374,273.995,168.054,271.14,168.054z"/>
	<path fill="#FFFFFF" d="M280.954,178.579v-9.811l-2.142,2.318l-0.714-0.713l3.031-3.213h1.072v11.418H280.954L280.954,178.579z"/>
	<path fill="#FFFFFF" d="M285.413,178.936l0.715-0.713c0.892,1.249,2.141,1.961,3.924,1.961c1.964,0,3.391-1.428,3.391-3.391
		c0-2.139-1.429-3.39-3.391-3.39c-1.248,0-2.317,0.359-3.389,1.429l-0.895-0.355v-7.316h8.029v1.072h-6.779v5.354
		c0.713-0.715,1.781-1.25,3.212-1.25c2.317,0,4.46,1.605,4.46,4.461c0,2.678-2.143,4.459-4.639,4.459
		C287.733,181.254,286.306,180.363,285.413,178.936z"/>
</g>
<g>
	<path fill="#E25926" d="M47.242,32.109c0,0-3.032-0.893-6.958-0.893c-13.559,0-21.409,7.137-21.409,13.915
		c0,5.887,6.245,11.597,20.339,11.597c7.85,0,17.662-0.534,26.403-1.248c4.996-5.887,9.278-11.597,12.311-16.592
		c6.601-11.061,10.526-16.592,15.164-30.15c0.179-0.714,0.894-0.714,0.894-0.714l3.032,0.357c0.713,0,0.713,0.536,0.713,0.536
		c0,0.178,0,0.536-0.358,3.033c-1.07,8.921-2.854,26.048-3.566,42.104c7.671,0.891,8.026,3.746,8.026,4.103
		c0,0-1.962-0.357-3.21-0.357c-1.428,0-3.212,0-4.996,0.178c0,2.675,0,5.172,0,7.493c0,13.558,1.428,24.798,6.065,24.798
		c0.536,0,1.071-0.536,1.071-0.536s0.178,0,0.178,0.18c0,1.427-1.428,1.962-3.746,1.962c-9.634,0-12.312-8.385-12.312-19.981
		c0-4.104,0.358-8.564,0.894-13.203c-5.532,0.536-11.597,1.428-17.308,2.142C57.231,77.066,42.067,92.05,21.729,92.05
		c-12.31,0-20.517-7.67-20.517-15.163c0-2.141,0.535-3.568,1.428-5.354l0.177,0.179c-0.357,1.069-0.535,2.141-0.535,3.211
		c0,7.136,7.493,11.24,17.662,11.24c12.31,0,27.652-11.417,40.141-24.262c-6.066,0.713-11.597,1.427-15.7,1.427
		c-14.451,0-28.901-4.459-28.901-16.413c0-11.598,13.737-16.77,22.836-16.77c2.498,0,6.422,0.535,9.098,1.784L47.242,32.109z
		 M72.04,54.945c5.887-0.535,10.883-0.892,14.094-1.07c1.427-10.884,3.567-22.479,4.283-31.579
		C86.491,28.005,80.604,41.386,72.04,54.945z"/>
	<path fill="#E25926" d="M98.979,83.133c-0.892,0-1.962-0.178-1.962-0.714c0-0.178,0-0.357,0.178-0.534
		c4.459-5.71,7.849-15.879,8.742-22.658c-1.785-1.605-2.677-4.638-2.677-7.315c0-3.211,1.249-6.065,3.748-6.065
		c2.319,0,2.855,1.605,2.855,3.568c0,1.605-0.358,3.566-0.358,5.172c0,1.429,0.179,1.963,0.714,1.963
		c0.355,0,0.891-0.357,1.783-0.714c2.677-1.783,6.958-6.243,7.494-6.243c1.07,0,2.675,1.962,2.675,3.211
		c0,0.534-0.178,1.07-0.178,1.07c-2.141,4.459-4.46,12.31-4.46,16.413s1.427,6.778,3.211,6.778c1.605,0,3.39-1.962,5.174-6.601
		c0.177-0.536,0-0.892,1.069-1.605c0.179-0.178,0.358-0.178,0.536-0.178c0.178,0,0.178,0.178,0.178,0.355c0,0.179,0,0.357,0,0.357
		c-0.535,4.64-3.568,13.381-9.633,13.381c-4.283,0-5.531-4.46-5.531-9.634c0-5.174,1.248-10.704,1.963-13.202
		c-1.249,0.713-3.033,0.892-4.639,0.892c-0.357,0-0.893,0-1.249,0c-0.713,6.422-4.818,17.305-8.385,22.479
		C100.05,82.955,99.515,83.133,98.979,83.133z"/>
	<path fill="#E25926" d="M133.233,26.042c0,0,0.178,0,0.357,0c1.783,1.249,5.53,1.07,5.53,2.675c0,1.07-1.069,5.174-2.142,10.705
		c5.353-0.714,9.634-1.605,10.884-1.605c0.891,0,2.318,0,2.318,0.713c0,0.535-0.892,0.535-1.249,0.893
		c-0.536,0.893-0.712,1.427-0.712,1.427c-1.429,0.713-6.604,2.676-12.489,4.103c-1.606,8.208-3.212,18.377-3.212,26.941
		c0,6.065,0.714,11.596,3.033,14.986c0,0,0,1.07-1.07,1.07c-4.817-2.319-6.422-11.239-6.422-21.588
		c0-6.421,0.536-13.735,1.428-20.159c-1.784,0.357-3.39,0.357-4.994,0.357c-4.104,0-6.067-2.677-6.067-6.957
		c0-0.714,0.179-1.962,0.714-1.962c0.178,0,0.357,0,0.534,0.356c2.677,1.248,6.246,1.606,9.991,1.606h0.714
		c0.713-4.46,1.427-8.385,2.14-13.559C132.519,26.399,132.877,26.042,133.233,26.042z"/>
	<path fill="#E25926" d="M159.815,58.334c-0.892,1.606-1.961,5.531-3.567,9.812c-4.102,10.168-8.564,15.166-11.773,15.166
		c-3.213,0-5.532-4.818-5.532-13.738c0-6.78,1.249-14.452,1.962-17.841c0,0,0.357-1.07,0.892-1.07c1.428,0,2.678,0,4.818-0.536
		c0.893,0,0.893,0.714,0.893,0.714c-1.963,11.418-3.211,16.057-3.211,23.907c0,3.567,0.534,5.174,1.606,5.174
		c1.782,0,4.817-4.817,8.207-12.846c3.39-8.027,4.996-16.949,5.351-20.16c0.179-1.784,3.568-3.212,4.818-3.212
		c0.179,0,0.714,0,0.714,0.357c0,0-1.249,5.174-1.249,11.24c0,5.71,4.818,17.842,4.818,24.263c0,6.066-4.284,8.742-8.564,8.742
		c-3.925,0-7.671-2.318-7.671-6.421c0-1.606,0.534-3.926,2.318-3.926c0.357,0,0.536,0,0.893,0.178
		c-0.178,0.713-0.178,1.249-0.178,1.784c0,2.676,1.962,4.102,3.925,4.102c1.962,0,4.104-1.427,4.104-4.637
		C163.206,72.963,159.815,60.118,159.815,58.334z"/>
	<path fill="#E25926" d="M225.29,79.029c1.963,0,4.816-8.027,6.422-12.31c3.391-8.028,4.996-16.949,5.354-20.159
		c0.179-1.784,3.567-3.211,4.817-3.211c0.178,0,0.714,0,0.714,0.357c0,0-1.251,5.173-1.251,11.239c0,5.709,4.818,17.84,4.818,24.262
		c0,4.639-3.926,6.958-7.492,6.958c-3.568,0-7.137-2.142-7.137-6.601c0-2.319,0.715-5.173,1.25-5.173c0,0,0.178,0,0.178,0.178v0.178
		c0,4.461,2.677,7.138,4.815,7.138c1.604,0,2.856-1.428,2.856-4.461c0-6.422-3.391-17.483-3.391-19.268
		c-0.896,1.604-1.963,5.531-3.568,9.811c-2.676,6.604-5.709,14.63-9.455,14.63c-6.78,0-7.494-15.164-7.672-20.695
		c-3.748,4.103-5.709,14.986-7.493,20.161c0,0.534-0.534,0.712-1.249,0.712c-0.891,0-1.963-0.535-2.141-0.891
		c-0.355-0.714-1.429-0.357-1.429-1.25c0-0.178,0-0.536,0-0.713c0.357-1.606,0.534-5.887,0.894-10.882
		c0-0.536,0.713-9.634,0.713-13.023c0-0.714,0-1.248-0.178-1.248c-2.141,0-3.746,27.295-11.773,27.295
		c-3.033,0-6.066-2.676-6.779-9.811c-2.143,5.529-5.175,9.811-8.208,9.811c-5.53,0-7.85-5.708-7.85-12.488
		c0-9.812,4.818-21.943,12.311-21.943c4.104,0,6.244,2.676,6.778,6.244c1.429,0.357,3.39,1.069,3.39,1.961
		c0,2.319-1.068,9.457-1.068,14.988c0,4.102,0.535,7.135,2.496,7.135c5.709,0,7.672-27.296,10.349-28.901
		c1.069-0.713,2.496-1.249,3.747-1.249c0.893,0,1.604,0.357,1.781,1.428c0.18,2.675,0.18,5.887,0.18,8.92c0,3.747,0,7.314,0,9.277
		c2.499-5.53,5.531-14.807,9.99-19.089c0.18-0.178,0.357-0.178,0.714-0.178c0.894,0,3.567,1.786,3.567,2.677
		c0,0.179,0,0.179,0,0.357c-2.676,6.066-2.854,15.878-2.854,18.376C222.614,73.499,223.15,79.029,225.29,79.029z M187.827,56.371
		c-1.43-1.785-2.679-2.497-3.749-2.497c-4.817,0-8.207,12.666-8.207,18.91c0,3.211,0.713,5.531,2.319,5.531
		C184.792,78.315,187.111,62.616,187.827,56.371z"/>
</g>
<g opacity="0.75">
	<path fill="#E25926" d="M261.862,71c0.357,0,0.715,0,1.072,0c0.178-0.179,0.178-0.356,0.178-0.535c0,0,0.357-0.713,1.07-14.451
		c0-0.179,0-0.358,0-0.358c0.179,0,0.179,0,0.357,0.178c0.178,0.358,1.069,1.606,1.426,1.963c0.18,0.178,0.359,0.357,0.359,0.712
		c0,0.179,0,0.179,0,0.358c-0.535,4.102-1.072,8.207-1.605,11.953c1.07-0.177,1.961-0.357,2.854-0.357
		c0.891,0,1.605,0.892,2.141,1.785c0.179,0.177,0.715,0.177,0.715,0.357c0,0.177,0,0.177-0.18,0.356
		c-0.535,0.178-2.854,0.358-4.283,0.358c-0.355,0-0.535,0-0.713,0s-0.356,0.357-0.356,0.357c1.606,2.676,2.498,7.85,2.498,12.487
		c0,4.997-1.069,9.457-3.212,9.457c-2.318,0-3.032-2.32-3.032-5.531c0-4.818,1.427-11.596,1.604-16.593c0,0,0-0.535-0.534-0.713
		c-0.894-0.178-1.429-0.178-1.785-0.356c0,0.356,0,0.534,0,0.892c0,3.39-1.783,7.138-4.459,7.138c-2.677,0-3.746-2.499-3.746-5.174
		c0-3.747,1.961-8.029,4.815-8.029c2.32,0,2.498,1.605,2.498,2.142v0.178c-0.537-0.178-0.894-0.358-1.428-0.358
		c-2.678,0-3.926,3.747-3.926,6.601c0,1.963,0.536,3.569,1.605,3.569c1.429,0,2.319-2.854,2.319-5.353
		c0-1.427-0.356-2.677-1.071-3.211c0,0,1.071-0.536,1.605-0.713C260.435,71,261.15,71,261.862,71z M264.002,75.817
		c-0.713,6.958-1.248,12.312-1.248,14.272c0,2.497,0.18,3.568,0.535,3.568c0.535,0,1.785-6.067,1.785-11.418
		C265.075,79.743,264.717,77.245,264.002,75.817z"/>
	<path fill="#E25926" d="M277.92,59.405L277.92,59.405c0.713,0.536,2.14,0.357,2.14,1.071c0,0.357-0.354,1.962-0.892,4.102
		c1.963-0.177,3.746-0.534,4.104-0.534s0.893,0,0.893,0.177c0,0.179-0.356,0.179-0.535,0.357c-0.18,0.357-0.356,0.536-0.356,0.536
		c-0.534,0.179-2.498,1.07-4.817,1.604c-0.715,3.211-1.248,6.958-1.248,10.347c0,2.32,0.356,4.461,1.069,5.709
		c0,0,0,0.358-0.356,0.358c-1.784-0.893-2.496-4.283-2.496-8.208c0-2.498,0.178-5.173,0.535-7.671
		c-0.715,0.178-1.252,0.178-1.963,0.178c-1.605,0-2.318-1.07-2.318-2.676c0-0.358,0.178-0.714,0.357-0.714c0,0,0.176,0,0.176,0.178
		c1.07,0.537,2.32,0.537,3.748,0.537h0.355c0.18-1.784,0.537-3.213,0.895-5.174C277.563,59.583,277.743,59.405,277.92,59.405z"/>
	<path fill="#E25926" d="M282.558,74.034L282.558,74.034c0.534-1.071,2.854-5.531,3.746-5.531c0.358,0,0.536,0.357,0.536,0.357
		c0.535,0,1.248,0.177,1.248,0.713c-0.355,2.32-0.534,4.461-0.534,6.602c0,1.427,0.179,3.211,1.069,3.211
		c1.069,0,1.783-1.427,2.142-2.318c0,0,0-0.179,0.18-0.179c0.177,0,0.354,0.357,0.354,0.536c0,1.071-0.893,2.318-1.605,3.033
		c-0.533,0.355-1.07,0.534-1.427,0.534c-2.679,0-2.854-4.103-2.854-5.887c0-1.427,0.178-2.854,0.178-3.568
		c0-0.179,0-0.535-0.178-0.535c-0.179,0-1.604,2.676-1.783,3.39c-0.715,1.428-1.07,3.568-1.07,4.995c0,1.071,0,1.962,0,1.962
		c0,0.357,0,0.536-0.178,0.536c0,0-0.178,0-0.178-0.179c-0.535-0.357-1.606-0.894-1.783-1.249c0-1.071,0.533-5.174,0.711-9.634
		h-0.534c-0.177,0-0.177,0-0.177,0c-0.359-0.178-0.18-0.357-0.359-0.357c-0.178,0-0.355,0-0.355-0.179c0,0,0.713-0.178,1.069-0.357
		l0.179-1.071c0.535-7.492,2.854-15.699,4.639-15.699c1.428,0,2.143,1.605,2.143,3.746c0,3.926-1.963,9.812-4.996,12.668
		C282.558,71.358,282.379,73.142,282.558,74.034C282.379,74.034,282.379,74.034,282.558,74.034z M285.77,56.907
		c-1.068,0-2.497,5.887-3.033,11.417c2.143-2.677,3.391-7.85,3.391-10.169C286.127,57.442,285.948,56.907,285.77,56.907z"/>
	<path fill="#E25926" d="M305.395,71.536l0.18-0.178c0.176,0,0.176,0,0.176,0.357c0,0.179,0,0.357,0,0.536
		c0,0.355,0.18,0.355,0.18,0.712l0,0c0,5.887-4.283,8.564-8.387,8.564c-3.746,0-7.137-2.142-7.137-6.244
		c0-3.569,1.963-7.673,4.816-7.673c1.429,0,2.145,1.071,2.145,2.319c0,1.962-1.43,4.46-4.641,6.244
		c0.179,2.498,1.426,3.567,3.031,3.567C298.793,79.564,303.432,75.817,305.395,71.536z M295.225,69.216
		c-1.249,0-2.316,3.034-2.496,5.709c1.961-1.428,3.032-3.747,3.032-4.996C295.76,69.394,295.583,69.216,295.225,69.216z"/>
</g>
<g>
	<path fill="#E25926" d="M74.359,124.879c0,0-0.178,0-0.357,0.357c-3.033,11.237-9.456,32.825-25.156,32.825
		c-13.022,0-19.088-12.31-19.088-26.581c0-19.805,11.774-43.353,33.895-43.353c6.603,0,13.738,4.638,13.738,11.061
		c0,2.318-1.428,3.923-2.142,5.53c-1.249,1.962-4.46,7.314-4.46,7.314s-0.535,0.713-1.07,0.713c-1.607,0-3.211-6.422-3.211-8.027
		c0-2.498,2.141-5.173,2.141-5.173s1.783-2.32,2.14-3.211c0-0.536-2.497-0.893-4.817-0.893c-16.947,0-30.686,23.014-30.686,39.607
		c0,9.455,4.46,16.77,15.165,16.77c10.883,0,20.874-12.846,25.333-44.602c0-0.356,0-0.713,0.178-0.713
		c0.712,0,4.281,2.496,4.638,2.677c0.535,0.534,0.713,1.071,0.713,1.784c0,0.179,0,0.533,0,0.893
		c-1.606,13.023-0.713,34.253-4.461,52.094c6.422,0.358,13.024,0.715,19.268,0.715c6.422,0,12.312-0.357,16.413-1.963
		c0.535-0.18,0.892-0.18,1.07-0.18s0.178,0,0.178,0.18c0,0.894-1.784,1.069-1.962,2.143c-1.606,5.707-6.067,7.49-16.592,7.49
		c-5.353,0-12.668-1.963-19.804-3.389c-0.535,1.604-0.892,3.032-1.427,4.639c-2.675,7.138-9.098,12.131-15.699,12.131
		c-10.17,0-14.629-4.281-14.629-9.098c0-6.066,7.493-13.022,20.695-13.022c1.606,0,3.211,0,4.817,0
		c3.39-13.562,5.174-26.048,5.709-38.716C74.539,125.059,74.539,124.879,74.359,124.879z M67.759,167.518
		c-3.212-0.536-6.244-0.893-8.922-0.893c-6.601,0-10.882,4.281-10.882,8.207c0,2.854,2.32,5.352,8.028,5.352
		C60.623,180.006,65.439,176.258,67.759,167.518z"/>
	<path fill="#E25926" d="M82.565,156.635c-0.892,0-1.961-0.178-1.961-0.715c0-0.176,0-0.356,0.178-0.533
		c4.46-5.708,7.85-15.879,8.742-22.658c-1.784-1.605-2.676-4.639-2.676-7.312c0-3.213,1.249-6.066,3.748-6.066
		c2.317,0,2.853,1.605,2.853,3.566c0,1.606-0.357,3.568-0.357,5.174c0,1.429,0.178,1.964,0.714,1.964
		c0.357,0,0.892-0.358,1.785-0.714c2.675-1.784,6.956-6.244,7.492-6.244c1.069,0,2.675,1.963,2.675,3.212
		c0,0.534-0.179,1.069-0.179,1.069c-2.14,4.459-4.459,12.31-4.459,16.414c0,4.103,1.428,6.777,3.212,6.777
		c1.605,0,3.389-1.964,5.173-6.602c0.179-0.534,0-0.891,1.07-1.604c0.179-0.179,0.358-0.179,0.536-0.179
		c0.179,0,0.179,0.179,0.179,0.355c0,0.18,0,0.359,0,0.359c-0.536,4.637-3.568,13.379-9.634,13.379c-4.283,0-5.531-4.46-5.531-9.633
		c0-5.174,1.249-10.705,1.963-13.202c-1.249,0.713-3.033,0.892-4.638,0.892c-0.358,0-0.893,0-1.249,0
		c-0.714,6.422-4.818,17.308-8.385,22.479C83.637,156.458,83.101,156.635,82.565,156.635z"/>
	<path fill="#E25926" d="M149.29,117.029c0.179,0,0.713,0,0.713,0.356c0,0-1.249,5.175-1.249,11.24c0,3.211,1.785,6.778,3.39,10.525
		c4.638-3.033,8.919-6.244,9.812-9.455c0,0-0.714-2.498-0.714-5.354c0-1.428,0.179-2.854,0.536-4.281
		c0.357-1.43,3.747-3.391,6.065-3.391c0.179,0,0.358,0,0.715,0c0.177,0,0.712,0,0.712,0.356c0,0-2.142,5.175-3.39,8.921
		c0,0.715,0,1.605,0,2.497c0,7.492,5.531,13.736,5.531,20.519c0,5.529-4.283,8.92-8.207,8.92c-3.211,0-6.067-2.143-6.067-6.78
		c0-3.746,1.429-7.671,4.461-7.671c0.892,0,0.892,0.357,0.892,0.533c-0.892,1.43-1.963,4.283-1.963,6.781
		c0,2.496,1.072,3.389,2.32,3.389c1.784,0,3.747-1.781,3.747-4.102c0-5.891-2.854-11.062-3.926-16.593
		c-2.675,3.39-6.244,5.886-9.455,8.026c0.714,2.141,1.427,4.283,1.427,6.244c0,5.888-3.924,8.742-7.493,8.742
		c-3.031,0-5.886-1.961-5.886-6.066c0-2.676,3.211-5.529,6.957-8.206c-1.248-4.46-3.211-8.919-3.211-10.171
		c-0.891,1.605-1.962,5.531-3.567,9.812c-2.677,6.602-7.493,13.561-11.239,13.561c-2.142,0-4.104-2.498-4.46-9.098
		c-2.141,5.353-4.996,9.631-8.207,9.631c-5.532,0-7.85-5.707-7.85-12.485c0-9.813,4.817-21.945,12.31-21.945
		c4.103,0,6.243,2.679,6.78,6.244c1.427,0.356,3.389,1.069,3.389,1.963c0,2.317-1.071,9.455-1.071,14.985
		c0,4.818,0.713,6.779,1.605,6.779c1.963,0,4.817-6.602,6.601-10.881c3.39-8.029,4.996-16.949,5.353-20.16
		C144.651,118.458,148.042,117.029,149.29,117.029z M125.919,129.875c-1.428-1.785-2.677-2.5-3.748-2.5
		c-4.818,0-8.208,12.67-8.208,18.914c0,3.211,0.714,5.528,2.32,5.528C122.885,151.819,125.205,136.12,125.919,129.875z
		 M145.542,151.997c2.498,0,3.39-1.783,3.39-4.102c0-1.07-0.179-2.143-0.536-3.391c-2.854,1.961-4.817,3.566-4.817,5.529
		C143.581,151.104,144.473,151.997,145.542,151.997z"/>
	<path fill="#E25926" d="M191.926,146.644c0.361-0.714,0.537-0.892,0.716-0.892s0.179,0.355,0.179,0.535v0.178
		c0,0.179,0.534,0.356,0.534,0.356c0,3.566-3.212,10.349-7.493,10.349c-8.207,0-10.882-10.705-10.882-23.906
		c0-20.696,7.137-47.636,12.133-47.636c3.925,0,5.531,3.926,5.531,9.635c0,11.596-6.601,31.22-13.559,42.28
		c0.535,8.028,2.675,13.916,7.669,13.916C187.827,151.461,189.965,151.284,191.926,146.644z M187.467,95.621
		c-3.031,0-8.385,20.336-8.918,36.394c5.887-10.347,9.81-26.938,9.81-33.54C188.54,96.69,188.182,95.621,187.467,95.621z"/>
	<path fill="#E25926" d="M241.704,122.204c0.18-0.18,0.356-0.18,0.715-0.18c0.711,0,2.14,0.893,3.033,1.784
		c0.176,0.178,0.711,0.714,0.711,1.071c0,0,0,0.179-0.179,0.357c-2.496,2.854-4.28,11.596-4.28,19.446
		c0,6.776,1.426,12.666,4.816,12.666c1.248,0,2.675-0.716,4.639-2.677c0,0,0.178,0,0.357,0c0.178,0,0.178,0,0.178,0.178
		c0,4.283-3.39,6.244-7.137,6.244c-6.602,0-8.028-9.635-8.028-17.305c0-3.568,0.356-6.781,0.536-8.207
		c-3.748,4.103-5.71,14.984-7.494,20.158c0,0.536-0.533,0.713-1.249,0.713c-0.891,0-1.961-0.533-2.14-0.892
		c-0.355-0.715-1.428-0.356-1.428-1.248c0-0.179,0-0.536,0-0.713c0.355-1.608,0.535-5.89,0.892-10.884
		c0-0.535,0.713-9.633,0.713-13.022c0-0.714,0-1.249-0.177-1.249c-2.143,0-3.747,27.297-11.775,27.297
		c-3.031,0-6.064-2.676-6.779-9.812c-2.142,5.53-5.172,9.812-8.207,9.812c-5.528,0-7.85-5.709-7.85-12.488
		c0-9.812,4.816-21.944,12.312-21.944c4.102,0,6.244,2.677,6.777,6.244c1.428,0.358,3.389,1.071,3.389,1.963
		c0,2.317-1.068,9.455-1.068,14.987c0,4.102,0.536,7.137,2.495,7.137c5.71,0,7.675-27.299,10.349-28.903
		c1.071-0.713,2.496-1.247,3.747-1.247c0.894,0,1.604,0.357,1.784,1.428c0.178,2.677,0.178,5.888,0.178,8.92
		c0,3.746,0,7.314,0,9.277C234.209,135.762,237.065,126.485,241.704,122.204z M208.163,129.875c-1.427-1.785-2.675-2.5-3.746-2.5
		c-4.816,0-8.207,12.67-8.207,18.914c0,3.211,0.715,5.528,2.319,5.528C205.129,151.819,207.452,136.12,208.163,129.875z"/>
	<path fill="#E25926" d="M272.032,137.189c0,8.563,0.713,16.771,2.678,23.192v0.179c0,0.714-0.894,1.248-1.43,1.248
		c-4.102-1.963-6.242-9.813-6.955-19.802c-1.964,7.492-5.89,13.736-9.812,13.736c-5.887,0-8.385-5.354-8.385-11.775
		c0-14.272,8.207-21.409,13.203-21.409c2.317,0,3.924,1.428,3.924,4.282c0,0.713,0,1.785-0.357,2.677
		c-0.712-0.892-1.605-1.429-2.677-1.429c-3.925,0-8.919,6.781-8.919,18.021c0,4.103,1.068,5.708,2.676,5.708
		c3.568,0,9.277-8.207,9.99-18.553v-0.357c0-19.09,4.281-40.856,11.597-42.283C275.067,100.974,272.032,119.883,272.032,137.189z"/>
	<path fill="#E25926" d="M274.708,155.743c0,0-1.783-0.355-1.783-0.894v-0.177c5.354-7.674,11.238-28.723,11.775-34.432
		c0.178-1.785,3.566-3.213,4.816-3.213c0.177,0,0.713,0,0.713,0.357c0,0-1.249,5.174-1.249,11.238c0,3.211,1.427,6.959,2.679,11.239
		c9.811-1.961,24.617,0,34.432-3.565c1.605-0.536,2.141-1.072,2.316-1.072h0.18c0,0.357-2.317,1.963-3.391,3.568
		c-4.104,6.602-9.811,8.207-15.699,8.207c-5.531,0-11.418-1.428-16.234-1.605c0.179,1.43,0.535,3.031,0.535,3.924
		c0,4.641-3.391,7.139-6.602,7.139c-2.854,0-5.709-1.963-5.709-6.246c0-4.637,2.319-7.312,5.887-8.918
		c-0.892-4.104-2.141-8.207-2.141-9.457C283.092,135.405,279.526,149.499,274.708,155.743z M285.77,151.997
		c1.784,0,2.318-1.604,2.318-4.102c0-0.535,0-1.07-0.18-1.605c-3.029,0.892-4.637,2.676-4.637,4.103
		C283.272,151.284,284.165,151.997,285.77,151.997z"/>
</g>
<g opacity="0.75">
	<path fill="#FFFFFF" d="M239.586,179.09v-3.366h-5.844v-0.942l5.473-8.023h1.425v8.007h1.812v0.962h-1.812v3.365h-1.054V179.09z
		 M239.586,167.813l-4.754,6.951h4.754V167.813z"/>
</g>
<g>
	<g>
		<path d="M294.253,114.302l1.234-5.909l0.834,0.174l-1.231,5.895c-0.406,1.941,0.368,3.333,2.253,3.727
			c1.883,0.394,3.149-0.571,3.555-2.514l1.23-5.895l0.836,0.175l-1.235,5.909c-0.495,2.373-2.069,3.59-4.541,3.073
			C294.727,118.421,293.76,116.661,294.253,114.302z"/>
		<path d="M303.35,120.043l2.005-9.589l3.596,0.751c1.84,0.385,2.619,1.897,2.304,3.407c-0.316,1.509-1.649,2.581-3.477,2.199
			l-2.775-0.579l-0.833,3.983L303.35,120.043z M310.39,114.433c0.253-1.208-0.403-2.229-1.684-2.498l-2.688-0.562l-0.859,4.112
			l2.688,0.562C309.126,116.314,310.14,115.626,310.39,114.433z"/>
		<path d="M311.565,121.761l2.003-9.591l3.063,0.641c2.977,0.623,4.393,3.185,3.843,5.814c-0.556,2.66-2.871,4.397-5.849,3.775
			L311.565,121.761z M319.613,118.446c0.466-2.243-0.592-4.355-3.138-4.887l-2.244-0.469l-1.69,8.095l2.242,0.468
			C317.314,122.182,319.143,120.689,319.613,118.446z"/>
		<path d="M327.901,125.175l-0.455-2.557l-5.073-1.061l-1.442,2.16l-0.951-0.198l5.93-8.77l1.021,0.213l1.922,10.409
			L327.901,125.175z M326.245,115.736l-3.444,5.133l4.529,0.944L326.245,115.736z"/>
		<path d="M331.716,125.972l1.848-8.842l-3.135-0.655l0.155-0.748l7.104,1.484l-0.156,0.748l-3.133-0.655l-1.85,8.842
			L331.716,125.972z"/>
		<path d="M337.384,127.157l2.005-9.59l6.08,1.271l-0.156,0.748l-5.261-1.1l-0.74,3.551l5.16,1.079l-0.157,0.748l-5.16-1.078
			l-0.795,3.795l5.264,1.099l-0.157,0.748L337.384,127.157z"/>
		<path d="M345.249,127.389l0.661-0.507c0.471,0.834,1.333,1.733,2.713,2.021c1.956,0.409,2.746-0.565,2.916-1.386
			c0.589-2.817-5.469-2.553-4.77-5.903c0.328-1.567,1.945-2.265,3.685-1.9c1.424,0.296,2.412,1.029,2.968,2.03l-0.673,0.49
			c-0.515-0.979-1.416-1.558-2.494-1.783c-1.279-0.267-2.396,0.266-2.612,1.301c-0.514,2.459,5.52,2.309,4.772,5.889
			c-0.26,1.236-1.39,2.546-3.978,2.005C346.857,129.317,345.797,128.419,345.249,127.389z"/>
	</g>
	<g>
		<path d="M310.388,104.336l-6.328-13.975l-2.534,12.123l-3.956-0.827l3.885-18.588l4.068,0.85l6.172,13.476l2.438-11.676
			l3.956,0.826l-3.883,18.587L310.388,104.336z"/>
		<path d="M317.891,105.905l3.883-18.588l13.153,2.749l-0.727,3.483l-9.196-1.921l-0.813,3.902l9,1.88l-0.729,3.483l-9-1.88
			l-0.887,4.235l9.197,1.921l-0.728,3.483L317.891,105.905z"/>
		<path d="M348.355,112.27l-0.595-13.444l-5.899,12.089l-4.209-0.881l-1.438-19.7l4.43,0.926l0.454,14.114l6.348-12.693l3.093,0.647
			l0.703,14.165l6.068-12.75l4.431,0.926l-9.178,17.481L348.355,112.27z"/>
	</g>
</g>
</svg>
