<?xml version="1.0" encoding="utf-8"?>
<!-- Generator: Adobe Illustrator 18.1.1, SVG Export Plug-In . SVG Version: 6.00 Build 0)  -->
<svg version="1.1" id="Layer_1" xmlns="http://www.w3.org/2000/svg" xmlns:xlink="http://www.w3.org/1999/xlink" x="0px" y="0px"
	 viewBox="358.2 399.9 183.5 99.6" enable-background="new 358.2 399.9 183.5 99.6" xml:space="preserve">
<g opacity="0.8">
	<g>
		<path fill="#FFFFFF" d="M384,413.4c0,0-1.7-0.5-3.9-0.5c-7.6,0-12,4-12,7.8c0,3.3,3.5,6.5,11.4,6.5c4.4,0,9.9-0.3,14.8-0.7
			c2.8-3.3,5.2-6.5,6.9-9.3c3.7-6.2,5.9-9.3,8.5-16.9c0.1-0.4,0.5-0.4,0.5-0.4l1.7,0.2c0.4,0,0.4,0.3,0.4,0.3c0,0.1,0,0.3-0.2,1.7
			c-0.6,5-1.6,14.6-2,23.6c4.3,0.5,4.5,2.1,4.5,2.3c0,0-1.1-0.2-1.8-0.2c-0.8,0-1.8,0-2.8,0.1c0,1.5,0,2.9,0,4.2
			c0,7.6,0.8,13.9,3.4,13.9c0.3,0,0.6-0.3,0.6-0.3s0.1,0,0.1,0.1c0,0.8-0.8,1.1-2.1,1.1c-5.4,0-6.9-4.7-6.9-11.2
			c0-2.3,0.2-4.8,0.5-7.4c-3.1,0.3-6.5,0.8-9.7,1.2c-6.3,9.1-14.8,17.5-26.2,17.5c-6.9,0-11.5-4.3-11.5-8.5c0-1.2,0.3-2,0.8-3
			c0,0,0.1,0.1,0.1,0.1c-0.2,0.6-0.3,1.2-0.3,1.8c0,4,4.2,6.3,9.9,6.3c6.9,0,15.5-6.4,22.5-13.6c-3.4,0.4-6.5,0.8-8.8,0.8
			c-8.1,0-16.2-2.5-16.2-9.2c0-6.5,7.7-9.4,12.8-9.4c1.4,0,3.6,0.3,5.1,1L384,413.4z M397.9,426.2c3.3-0.3,6.1-0.5,7.9-0.6
			c0.8-6.1,2-12.6,2.4-17.7C406,411.1,402.7,418.6,397.9,426.2z"/>
		<path fill="#FFFFFF" d="M412.9,442c-0.5,0-1.1-0.1-1.1-0.4c0-0.1,0-0.2,0.1-0.3c2.5-3.2,4.4-8.9,4.9-12.7c-1-0.9-1.5-2.6-1.5-4.1
			c0-1.8,0.7-3.4,2.1-3.4c1.3,0,1.6,0.9,1.6,2c0,0.9-0.2,2-0.2,2.9c0,0.8,0.1,1.1,0.4,1.1c0.2,0,0.5-0.2,1-0.4
			c1.5-1,3.9-3.5,4.2-3.5c0.6,0,1.5,1.1,1.5,1.8c0,0.3-0.1,0.6-0.1,0.6c-1.2,2.5-2.5,6.9-2.5,9.2c0,2.3,0.8,3.8,1.8,3.8
			c0.9,0,1.9-1.1,2.9-3.7c0.1-0.3,0-0.5,0.6-0.9c0.1-0.1,0.2-0.1,0.3-0.1c0.1,0,0.1,0.1,0.1,0.2s0,0.2,0,0.2c-0.3,2.6-2,7.5-5.4,7.5
			c-2.4,0-3.1-2.5-3.1-5.4s0.7-6,1.1-7.4c-0.7,0.4-1.7,0.5-2.6,0.5c-0.2,0-0.5,0-0.7,0c-0.4,3.6-2.7,9.7-4.7,12.6
			C413.6,441.9,413.3,442,412.9,442z"/>
		<path fill="#FFFFFF" d="M432.2,410c0,0,0.1,0,0.2,0c1,0.7,3.1,0.6,3.1,1.5c0,0.6-0.6,2.9-1.2,6c3-0.4,5.4-0.9,6.1-0.9
			c0.5,0,1.3,0,1.3,0.4c0,0.3-0.5,0.3-0.7,0.5c-0.3,0.5-0.4,0.8-0.4,0.8c-0.8,0.4-3.7,1.5-7,2.3c-0.9,4.6-1.8,10.3-1.8,15.1
			c0,3.4,0.4,6.5,1.7,8.4c0,0,0,0.6-0.6,0.6c-2.7-1.3-3.6-6.3-3.6-12.1c0-3.6,0.3-7.7,0.8-11.3c-1,0.2-1.9,0.2-2.8,0.2
			c-2.3,0-3.4-1.5-3.4-3.9c0-0.4,0.1-1.1,0.4-1.1c0.1,0,0.2,0,0.3,0.2c1.5,0.7,3.5,0.9,5.6,0.9h0.4c0.4-2.5,0.8-4.7,1.2-7.6
			C431.8,410.2,431.9,410,432.2,410z"/>
		<path fill="#FFFFFF" d="M447,428.1c-0.5,0.9-1.1,3.1-2,5.5c-2.3,5.7-4.8,8.5-6.6,8.5s-3.1-2.7-3.1-7.7c0-3.8,0.7-8.1,1.1-10
			c0,0,0.2-0.6,0.5-0.6c0.8,0,1.5,0,2.7-0.3c0.5,0,0.5,0.4,0.5,0.4c-1.1,6.4-1.8,9-1.8,13.4c0,2,0.3,2.9,0.9,2.9
			c1,0,2.7-2.7,4.6-7.2c1.9-4.5,2.8-9.5,3-11.3c0.1-1,2-1.8,2.7-1.8c0.1,0,0.4,0,0.4,0.2c0,0-0.7,2.9-0.7,6.3c0,3.2,2.7,10,2.7,13.6
			c0,3.4-2.4,4.9-4.8,4.9c-2.2,0-4.3-1.3-4.3-3.6c0-0.9,0.3-2.2,1.3-2.2c0.2,0,0.3,0,0.5,0.1c-0.1,0.4-0.1,0.7-0.1,1
			c0,1.5,1.1,2.3,2.2,2.3s2.3-0.8,2.3-2.6C449,436.3,447,429.1,447,428.1z"/>
		<path fill="#FFFFFF" d="M483.8,439.7c1.1,0,2.7-4.5,3.6-6.9c1.9-4.5,2.8-9.5,3-11.3c0.1-1,2-1.8,2.7-1.8c0.1,0,0.4,0,0.4,0.2
			c0,0-0.7,2.9-0.7,6.3c0,3.2,2.7,10,2.7,13.6c0,2.6-2.2,3.9-4.2,3.9c-2,0-4-1.2-4-3.7c0-1.3,0.4-2.9,0.7-2.9c0,0,0.1,0,0.1,0.1v0.1
			c0,2.5,1.5,4,2.7,4c0.9,0,1.6-0.8,1.6-2.5c0-3.6-1.9-9.8-1.9-10.8c-0.5,0.9-1.1,3.1-2,5.5c-1.5,3.7-3.2,8.2-5.3,8.2
			c-3.8,0-4.2-8.5-4.3-11.6c-2.1,2.3-3.2,8.4-4.2,11.3c0,0.3-0.3,0.4-0.7,0.4c-0.5,0-1.1-0.3-1.2-0.5c-0.2-0.4-0.8-0.2-0.8-0.7
			c0-0.1,0-0.3,0-0.4c0.2-0.9,0.3-3.3,0.5-6.1c0-0.3,0.4-5.4,0.4-7.3c0-0.4,0-0.7-0.1-0.7c-1.2,0-2.1,15.3-6.6,15.3
			c-1.7,0-3.4-1.5-3.8-5.5c-1.2,3.1-2.9,5.5-4.6,5.5c-3.1,0-4.4-3.2-4.4-7c0-5.5,2.7-12.3,6.9-12.3c2.3,0,3.5,1.5,3.8,3.5
			c0.8,0.2,1.9,0.6,1.9,1.1c0,1.3-0.6,5.3-0.6,8.4c0,2.3,0.3,4,1.4,4c3.2,0,4.3-15.3,5.8-16.2c0.6-0.4,1.4-0.7,2.1-0.7
			c0.5,0,0.9,0.2,1,0.8c0.1,1.5,0.1,3.3,0.1,5c0,2.1,0,4.1,0,5.2c1.4-3.1,3.1-8.3,5.6-10.7c0.1-0.1,0.2-0.1,0.4-0.1c0.5,0,2,1,2,1.5
			c0,0.1,0,0.1,0,0.2c-1.5,3.4-1.6,8.9-1.6,10.3C482.3,436.6,482.5,439.7,483.8,439.7z M462.8,427c-0.8-1-1.5-1.4-2.1-1.4
			c-2.7,0-4.6,7.1-4.6,10.6c0,1.8,0.4,3.1,1.3,3.1C461,439.3,462.4,430.5,462.8,427z"/>
	</g>
	<g>
		<path fill="#FFFFFF" d="M505.2,434.9c0.2,0,0.4,0,0.7,0c0.1-0.1,0.1-0.3,0.1-0.3c0,0,0.2-0.4,0.7-9.5c0-0.1,0-0.2,0-0.2
			c0.1,0,0.2,0,0.2,0.1c0.2,0.2,0.7,1.1,0.9,1.3c0.1,0.1,0.2,0.3,0.2,0.5c0,0.1,0,0.1,0,0.2c-0.4,2.7-0.7,5.4-1,7.8
			c0.7-0.1,1.3-0.2,1.9-0.2c0.5,0,1.1,0.6,1.5,1.1c0.1,0.1,0.4,0.1,0.4,0.3c0,0.1,0,0.1-0.1,0.2c-0.3,0.2-1.9,0.3-2.9,0.3
			c-0.2,0-0.4,0-0.5,0c-0.2,0-0.2,0.2-0.2,0.2c1.1,1.8,1.7,5.1,1.7,8.1c0,3.3-0.7,6.2-2.1,6.2c-1.5,0-2-1.5-2-3.6
			c0-3.1,0.9-7.6,1-10.8c0,0,0-0.4-0.3-0.4c-0.5-0.1-0.9-0.2-1.2-0.2c0,0.2,0,0.4,0,0.6c0,2.2-1.2,4.7-2.9,4.7
			c-1.8,0-2.5-1.6-2.5-3.4c0-2.4,1.3-5.2,3.2-5.2c1.5,0,1.6,1.1,1.6,1.4v0.1c-0.3-0.1-0.6-0.2-0.9-0.2c-1.7,0-2.5,2.4-2.5,4.4
			c0,1.3,0.4,2.3,1.1,2.3c0.9,0,1.6-1.9,1.6-3.5c0-0.9-0.2-1.8-0.7-2.1c0,0,0.7-0.3,1.1-0.5C504.2,434.8,504.7,434.9,505.2,434.9z
			 M506.6,438.1c-0.5,4.6-0.8,8.1-0.8,9.3c0,1.7,0.1,2.4,0.3,2.4c0.4,0,1.1-4,1.1-7.4C507.2,440.6,507.1,439,506.6,438.1z"/>
		<path fill="#FFFFFF" d="M515.6,427.3C515.7,427.3,515.7,427.3,515.6,427.3c0.5,0.3,1.4,0.3,1.4,0.7c0,0.3-0.3,1.3-0.6,2.7
			c1.3-0.2,2.4-0.4,2.7-0.4c0.2,0,0.6,0,0.6,0.2c0,0.1-0.2,0.1-0.3,0.2c-0.1,0.2-0.2,0.4-0.2,0.4c-0.3,0.2-1.6,0.7-3.1,1
			c-0.4,2.1-0.8,4.6-0.8,6.7c0,1.5,0.2,2.9,0.7,3.7c0,0,0,0.3-0.3,0.3c-1.2-0.6-1.6-2.8-1.6-5.4c0-1.6,0.1-3.4,0.3-5
			c-0.4,0.1-0.9,0.1-1.3,0.1c-1,0-1.5-0.7-1.5-1.8c0-0.2,0.1-0.5,0.2-0.5c0,0,0.1,0,0.1,0.1c0.7,0.3,1.6,0.4,2.5,0.4h0.2
			c0.2-1.1,0.3-2.1,0.6-3.4C515.5,427.4,515.5,427.3,515.6,427.3z"/>
		<path fill="#FFFFFF" d="M518.7,436.9C518.7,436.9,518.7,436.9,518.7,436.9c0.3-0.7,1.8-3.6,2.5-3.6c0.2,0,0.4,0.2,0.4,0.2
			c0.4,0,0.8,0.1,0.8,0.5c-0.2,1.6-0.3,2.9-0.3,4.3c0,1,0.1,2.1,0.7,2.1c0.7,0,1.2-0.9,1.4-1.5c0,0,0-0.1,0.1-0.1
			c0.2,0,0.2,0.2,0.2,0.3c0,0.7-0.5,1.6-1.1,2c-0.4,0.3-0.7,0.3-1,0.3c-1.7,0-1.8-2.7-1.8-3.9c0-0.9,0.1-1.8,0.1-2.4
			c0-0.1,0-0.3-0.1-0.3c-0.1,0-1,1.8-1.2,2.2c-0.4,1-0.7,2.3-0.7,3.3c0,0.7,0,1.3,0,1.3c0,0.2,0,0.3-0.1,0.3c0,0-0.1,0-0.1-0.1
			c-0.3-0.3-1-0.6-1.2-0.8c0-0.7,0.3-3.4,0.5-6.3h-0.1c-0.1,0-0.1,0-0.2,0c-0.2-0.1-0.1-0.2-0.3-0.3c-0.1,0-0.2,0-0.2-0.1
			c0,0,0.4-0.1,0.7-0.2l0.1-0.7c0.3-4.9,1.9-10.3,3-10.3c1,0,1.4,1,1.4,2.5c0,2.6-1.3,6.5-3.3,8.3
			C518.7,435.1,518.6,436.3,518.7,436.9C518.6,436.9,518.7,436.9,518.7,436.9z M520.8,425.7c-0.7,0-1.6,3.8-2,7.5
			c1.5-1.8,2.2-5.1,2.2-6.7C521.1,426,521,425.7,520.8,425.7z"/>
		<path fill="#FFFFFF" d="M533.6,435.2c0,0,0.1-0.1,0.2-0.1c0.1,0,0.1,0,0.1,0.2c0,0.1,0,0.2,0,0.3c0,0.2,0.2,0.2,0.2,0.4v0
			c0,3.8-2.8,5.6-5.4,5.6c-2.4,0-4.7-1.4-4.7-4.1c0-2.4,1.2-5,3.2-5c0.9,0,1.4,0.7,1.4,1.6c0,1.2-0.9,2.9-3.1,4.1
			c0.1,1.7,0.9,2.3,2,2.3C529.4,440.5,532.4,438.1,533.6,435.2z M527,433.7c-0.9,0-1.5,2-1.6,3.8c1.3-1,2-2.4,2-3.2
			C527.3,433.9,527.2,433.7,527,433.7z"/>
	</g>
	<g>
		<path fill="#FFFFFF" d="M399.1,465.4c0,0-0.1,0-0.2,0.2c-1.7,6.3-5.3,18.4-14.1,18.4c-7.3,0-10.7-6.9-10.7-14.9
			c0-11.1,6.6-24.3,19-24.3c3.7,0,7.7,2.6,7.7,6.2c0,1.3-0.8,2.2-1.2,3.1c-0.7,1.1-2.5,4.1-2.5,4.1s-0.3,0.4-0.6,0.4
			c-0.9,0-1.8-3.6-1.8-4.5c0-1.4,1.2-2.9,1.2-2.9s1-1.3,1.2-1.8c0-0.3-1.4-0.5-2.7-0.5c-9.5,0-17.2,12.9-17.2,22.2
			c0,5.3,2.5,9.4,8.5,9.4c6.1,0,11.7-7.2,14.2-25c0-0.2,0-0.4,0.1-0.4c0.4,0,2.4,1.4,2.6,1.5c0.3,0.3,0.4,0.6,0.4,1
			c0,0.1,0,0.3,0,0.5c-0.9,7.3-0.4,19.2-2.5,29.2c3.6,0.2,7.3,0.4,10.8,0.4c3.6,0,6.9-0.2,9.2-1.1c0.3-0.1,0.5-0.1,0.6-0.1
			c0.1,0,0.1,0,0.1,0.1c0,0.5-1,0.6-1.1,1.2c-0.9,3.2-3.4,4.2-9.3,4.2c-3,0-7.1-1.1-11.1-1.9c-0.3,0.9-0.5,1.7-0.8,2.6
			c-1.5,4-5.1,6.8-8.8,6.8c-5.7,0-8.2-2.4-8.2-5.1c0-3.4,4.2-7.3,11.6-7.3c0.9,0,1.8,0,2.7,0c1.9-7.6,2.9-14.6,3.2-21.7
			C399.2,465.5,399.2,465.4,399.1,465.4z M395.5,489.3c-1.8-0.3-3.5-0.5-5-0.5c-3.7,0-6.1,2.4-6.1,4.6c0,1.6,1.3,3,4.5,3
			C391.4,496.3,394.2,494.2,395.5,489.3z"/>
		<path fill="#FFFFFF" d="M403.7,483.2c-0.5,0-1.1-0.1-1.1-0.4c0-0.1,0-0.2,0.1-0.3c2.5-3.2,4.4-8.9,4.9-12.7
			c-1-0.9-1.5-2.6-1.5-4.1c0-1.8,0.7-3.4,2.1-3.4c1.3,0,1.6,0.9,1.6,2c0,0.9-0.2,2-0.2,2.9c0,0.8,0.1,1.1,0.4,1.1
			c0.2,0,0.5-0.2,1-0.4c1.5-1,3.9-3.5,4.2-3.5c0.6,0,1.5,1.1,1.5,1.8c0,0.3-0.1,0.6-0.1,0.6c-1.2,2.5-2.5,6.9-2.5,9.2
			c0,2.3,0.8,3.8,1.8,3.8c0.9,0,1.9-1.1,2.9-3.7c0.1-0.3,0-0.5,0.6-0.9c0.1-0.1,0.2-0.1,0.3-0.1c0.1,0,0.1,0.1,0.1,0.2
			c0,0.1,0,0.2,0,0.2c-0.3,2.6-2,7.5-5.4,7.5c-2.4,0-3.1-2.5-3.1-5.4s0.7-6,1.1-7.4c-0.7,0.4-1.7,0.5-2.6,0.5c-0.2,0-0.5,0-0.7,0
			c-0.4,3.6-2.7,9.7-4.7,12.6C404.4,483.1,404.1,483.2,403.7,483.2z"/>
		<path fill="#FFFFFF" d="M441.2,461c0.1,0,0.4,0,0.4,0.2c0,0-0.7,2.9-0.7,6.3c0,1.8,1,3.8,1.9,5.9c2.6-1.7,5-3.5,5.5-5.3
			c0,0-0.4-1.4-0.4-3c0-0.8,0.1-1.6,0.3-2.4c0.2-0.8,2.1-1.9,3.4-1.9c0.1,0,0.2,0,0.4,0c0.1,0,0.4,0,0.4,0.2c0,0-1.2,2.9-1.9,5
			c0,0.4,0,0.9,0,1.4c0,4.2,3.1,7.7,3.1,11.5c0,3.1-2.4,5-4.6,5c-1.8,0-3.4-1.2-3.4-3.8c0-2.1,0.8-4.3,2.5-4.3
			c0.5,0,0.5,0.2,0.5,0.3c-0.5,0.8-1.1,2.4-1.1,3.8s0.6,1.9,1.3,1.9c1,0,2.1-1,2.1-2.3c0-3.3-1.6-6.2-2.2-9.3
			c-1.5,1.9-3.5,3.3-5.3,4.5c0.4,1.2,0.8,2.4,0.8,3.5c0,3.3-2.2,4.9-4.2,4.9c-1.7,0-3.3-1.1-3.3-3.4c0-1.5,1.8-3.1,3.9-4.6
			c-0.7-2.5-1.8-5-1.8-5.7c-0.5,0.9-1.1,3.1-2,5.5c-1.5,3.7-4.2,7.6-6.3,7.6c-1.2,0-2.3-1.4-2.5-5.1c-1.2,3-2.8,5.4-4.6,5.4
			c-3.1,0-4.4-3.2-4.4-7c0-5.5,2.7-12.3,6.9-12.3c2.3,0,3.5,1.5,3.8,3.5c0.8,0.2,1.9,0.6,1.9,1.1c0,1.3-0.6,5.3-0.6,8.4
			c0,2.7,0.4,3.8,0.9,3.8c1.1,0,2.7-3.7,3.7-6.1c1.9-4.5,2.8-9.5,3-11.3C438.5,461.8,440.5,461,441.2,461z M428.1,468.2
			c-0.8-1-1.5-1.4-2.1-1.4c-2.7,0-4.6,7.1-4.6,10.6c0,1.8,0.4,3.1,1.3,3.1C426.3,480.5,427.7,471.7,428.1,468.2z M439,480.6
			c1.4,0,1.9-1,1.9-2.3c0-0.6-0.1-1.2-0.3-1.9c-1.6,1.1-2.7,2-2.7,3.1C438,480.1,438.5,480.6,439,480.6z"/>
		<path fill="#FFFFFF" d="M465,477.6c0.2-0.4,0.3-0.5,0.4-0.5c0.1,0,0.1,0.2,0.1,0.3v0.1c0,0.1,0.3,0.2,0.3,0.2c0,2-1.8,5.8-4.2,5.8
			c-4.6,0-6.1-6-6.1-13.4c0-11.6,4-26.7,6.8-26.7c2.2,0,3.1,2.2,3.1,5.4c0,6.5-3.7,17.5-7.6,23.7c0.3,4.5,1.5,7.8,4.3,7.8
			C462.8,480.3,464,480.2,465,477.6z M462.6,449c-1.7,0-4.7,11.4-5,20.4c3.3-5.8,5.5-15.1,5.5-18.8C463.1,449.6,463,449,462.6,449z"
			/>
		<path fill="#FFFFFF" d="M492.9,463.9c0.1-0.1,0.2-0.1,0.4-0.1c0.4,0,1.2,0.5,1.7,1c0.1,0.1,0.4,0.4,0.4,0.6c0,0,0,0.1-0.1,0.2
			c-1.4,1.6-2.4,6.5-2.4,10.9c0,3.8,0.8,7.1,2.7,7.1c0.7,0,1.5-0.4,2.6-1.5c0,0,0.1,0,0.2,0c0.1,0,0.1,0,0.1,0.1
			c0,2.4-1.9,3.5-4,3.5c-3.7,0-4.5-5.4-4.5-9.7c0-2,0.2-3.8,0.3-4.6c-2.1,2.3-3.2,8.4-4.2,11.3c0,0.3-0.3,0.4-0.7,0.4
			c-0.5,0-1.1-0.3-1.2-0.5c-0.2-0.4-0.8-0.2-0.8-0.7c0-0.1,0-0.3,0-0.4c0.2-0.9,0.3-3.3,0.5-6.1c0-0.3,0.4-5.4,0.4-7.3
			c0-0.4,0-0.7-0.1-0.7c-1.2,0-2.1,15.3-6.6,15.3c-1.7,0-3.4-1.5-3.8-5.5c-1.2,3.1-2.9,5.5-4.6,5.5c-3.1,0-4.4-3.2-4.4-7
			c0-5.5,2.7-12.3,6.9-12.3c2.3,0,3.5,1.5,3.8,3.5c0.8,0.2,1.9,0.6,1.9,1.1c0,1.3-0.6,5.3-0.6,8.4c0,2.3,0.3,4,1.4,4
			c3.2,0,4.3-15.3,5.8-16.2c0.6-0.4,1.4-0.7,2.1-0.7c0.5,0,0.9,0.2,1,0.8c0.1,1.5,0.1,3.3,0.1,5c0,2.1,0,4.1,0,5.2
			C488.7,471.5,490.4,466.3,492.9,463.9z M474.2,468.2c-0.8-1-1.5-1.4-2.1-1.4c-2.7,0-4.6,7.1-4.6,10.6c0,1.8,0.4,3.1,1.3,3.1
			C472.5,480.5,473.8,471.7,474.2,468.2z"/>
		<path fill="#FFFFFF" d="M509.9,472.3c0,4.8,0.4,9.4,1.5,13v0.1c0,0.4-0.5,0.7-0.8,0.7c-2.3-1.1-3.5-5.5-3.9-11.1
			c-1.1,4.2-3.3,7.7-5.5,7.7c-3.3,0-4.7-3-4.7-6.6c0-8,4.6-12,7.4-12c1.3,0,2.2,0.8,2.2,2.4c0,0.4,0,1-0.2,1.5
			c-0.4-0.5-0.9-0.8-1.5-0.8c-2.2,0-5,3.8-5,10.1c0,2.3,0.6,3.2,1.5,3.2c2,0,5.2-4.6,5.6-10.4V470c0-10.7,2.4-22.9,6.5-23.7
			C511.7,452,509.9,462.6,509.9,472.3z"/>
		<path fill="#FFFFFF" d="M511.4,482.7c0,0-1-0.2-1-0.5c0,0,0-0.1,0-0.1c3-4.3,6.3-16.1,6.6-19.3c0.1-1,2-1.8,2.7-1.8
			c0.1,0,0.4,0,0.4,0.2c0,0-0.7,2.9-0.7,6.3c0,1.8,0.8,3.9,1.5,6.3c5.5-1.1,13.8,0,19.3-2c0.9-0.3,1.2-0.6,1.3-0.6c0,0,0.1,0,0.1,0
			c0,0.2-1.3,1.1-1.9,2c-2.3,3.7-5.5,4.6-8.8,4.6c-3.1,0-6.4-0.8-9.1-0.9c0.1,0.8,0.3,1.7,0.3,2.2c0,2.6-1.9,4-3.7,4
			c-1.6,0-3.2-1.1-3.2-3.5c0-2.6,1.3-4.1,3.3-5c-0.5-2.3-1.2-4.6-1.2-5.3C516.2,471.3,514.2,479.2,511.4,482.7z M517.7,480.6
			c1,0,1.3-0.9,1.3-2.3c0-0.3,0-0.6-0.1-0.9c-1.7,0.5-2.6,1.5-2.6,2.3C516.3,480.2,516.7,480.6,517.7,480.6z"/>
	</g>
</g>
</svg>
