<?xml version="1.0" encoding="utf-8"?>
<!-- Generator: Adobe Illustrator 18.1.1, SVG Export Plug-In . SVG Version: 6.00 Build 0)  -->
<svg version="1.1" id="Layer_1" xmlns="http://www.w3.org/2000/svg" xmlns:xlink="http://www.w3.org/1999/xlink" x="0px" y="0px"
	 viewBox="0 204.8 900.1 488.9" enable-background="new 0 204.8 900.1 488.9" xml:space="preserve">
<g>
	<g>
		<path fill="#FFFFFF" d="M126.4,271.1c0,0-8.3-2.5-19.1-2.5c-37.3,0-58.9,19.6-58.9,38.3c0,16.2,17.2,31.9,55.9,31.9
			c21.6,0,48.6-1.5,72.6-3.4c13.7-16.2,25.5-31.9,33.8-45.6c18.1-30.4,28.9-45.6,41.7-82.9c0.5-2,2.5-2,2.5-2l8.3,1c2,0,2,1.5,2,1.5
			c0,0.5,0,1.5-1,8.3c-2.9,24.5-7.8,71.6-9.8,115.8c21.1,2.5,22.1,10.3,22.1,11.3c0,0-5.4-1-8.8-1c-3.9,0-8.8,0-13.7,0.5
			c0,7.4,0,14.2,0,20.6c0,37.3,3.9,68.2,16.7,68.2c1.5,0,2.9-1.5,2.9-1.5s0.5,0,0.5,0.5c0,3.9-3.9,5.4-10.3,5.4
			c-26.5,0-33.8-23.1-33.8-54.9c0-11.3,1-23.5,2.5-36.3c-15.2,1.5-31.9,3.9-47.6,5.9C154,394.7,112.3,436,56.4,436
			C22.6,436,0,414.8,0,394.2c0-5.9,1.5-9.8,3.9-14.7l0.5,0.5c-1,2.9-1.5,5.9-1.5,8.8c0,19.6,20.6,30.9,48.6,30.9
			c33.8,0,76-31.4,110.5-66.7c-16.7,2-31.9,3.9-43.2,3.9c-39.7,0-79.5-12.3-79.5-45.1c0-31.9,37.8-46.1,62.8-46.1
			c6.9,0,17.7,1.5,25,4.9L126.4,271.1z M194.7,333.8c16.2-1.5,29.9-2.5,38.7-2.9c3.9-29.9,9.8-61.8,11.8-86.8
			C234.4,259.8,218.3,296.6,194.7,333.8z"/>
		<path fill="#FFFFFF" d="M268.3,411.3c-2.5,0-5.4-0.5-5.4-2c0-0.5,0-1,0.5-1.5c12.3-15.7,21.6-43.7,24-62.3
			c-4.9-4.4-7.4-12.8-7.4-20.1c0-8.8,3.4-16.7,10.3-16.7c6.4,0,7.8,4.4,7.8,9.8c0,4.4-1,9.8-1,14.2c0,3.9,0.5,5.4,2,5.4
			c1,0,2.5-1,4.9-2c7.4-4.9,19.1-17.2,20.6-17.2c2.9,0,7.4,5.4,7.4,8.8c0,1.5-0.5,2.9-0.5,2.9c-5.9,12.3-12.3,33.8-12.3,45.1
			c0,11.3,3.9,18.6,8.8,18.6c4.4,0,9.3-5.4,14.2-18.1c0.5-1.5,0-2.5,2.9-4.4c0.5-0.5,1-0.5,1.5-0.5s0.5,0.5,0.5,1s0,1,0,1
			c-1.5,12.8-9.8,36.8-26.5,36.8c-11.8,0-15.2-12.3-15.2-26.5c0-14.2,3.4-29.4,5.4-36.3c-3.4,2-8.3,2.5-12.8,2.5c-1,0-2.5,0-3.4,0
			c-2,17.7-13.2,47.6-23.1,61.8C271.7,410.8,270.2,411.3,268.3,411.3z"/>
		<path fill="#FFFFFF" d="M363,254.4c0,0,0.5,0,1,0c4.9,3.4,15.2,2.9,15.2,7.4c0,2.9-2.9,14.2-5.9,29.4c14.7-2,26.5-4.4,29.9-4.4
			c2.5,0,6.4,0,6.4,2c0,1.5-2.5,1.5-3.4,2.5c-1.5,2.5-2,3.9-2,3.9c-3.9,2-18.1,7.4-34.3,11.3c-4.4,22.6-8.8,50.5-8.8,74.1
			c0,16.7,2,31.9,8.3,41.2c0,0,0,2.9-2.9,2.9c-13.2-6.4-17.7-30.9-17.7-59.3c0-17.7,1.5-37.8,3.9-55.4c-4.9,1-9.3,1-13.7,1
			c-11.3,0-16.7-7.4-16.7-19.1c0-2,0.5-5.4,2-5.4c0.5,0,1,0,1.5,1c7.4,3.4,17.2,4.4,27.5,4.4h2c2-12.3,3.9-23.1,5.9-37.3
			C361.1,255.4,361.6,254.4,363,254.4z"/>
		<path fill="#FFFFFF" d="M435.6,343.2c-2.5,4.4-5.4,15.2-9.8,27c-11.3,28-23.5,41.7-32.4,41.7c-8.9,0-15.2-13.2-15.2-37.8
			c0-18.6,3.4-39.7,5.4-49c0,0,1-2.9,2.5-2.9c3.9,0,7.4,0,13.2-1.5c2.5,0,2.5,2,2.5,2c-5.4,31.4-8.8,44.1-8.8,65.7
			c0,9.8,1.5,14.2,4.4,14.2c4.9,0,13.2-13.2,22.6-35.3c9.3-22.1,13.7-46.6,14.7-55.4c0.5-4.9,9.8-8.8,13.2-8.8c0.5,0,2,0,2,1
			c0,0-3.4,14.2-3.4,30.9c0,15.7,13.2,49,13.2,66.7c0,16.7-11.8,24-23.5,24c-10.8,0-21.1-6.4-21.1-17.7c0-4.4,1.5-10.8,6.4-10.8
			c1,0,1.5,0,2.5,0.5c-0.5,2-0.5,3.4-0.5,4.9c0,7.4,5.4,11.3,10.8,11.3c5.4,0,11.3-3.9,11.3-12.8
			C445.4,383.4,435.6,348.1,435.6,343.2z"/>
		<path fill="#FFFFFF" d="M616.2,400.1c5.4,0,13.2-22.1,17.7-33.8c9.3-22.1,13.7-46.6,14.7-55.4c0.5-4.9,9.8-8.8,13.2-8.8
			c0.5,0,2,0,2,1c0,0-3.4,14.2-3.4,30.9c0,15.7,13.2,49,13.2,66.7c0,12.8-10.8,19.1-20.6,19.1c-9.8,0-19.6-5.9-19.6-18.1
			c0-6.4,2-14.2,3.4-14.2c0,0,0.5,0,0.5,0.5v0.5c0,12.3,7.4,19.6,13.2,19.6c4.4,0,7.8-3.9,7.8-12.3c0-17.7-9.3-48.1-9.3-53
			c-2.5,4.4-5.4,15.2-9.8,27c-7.4,18.1-15.7,40.2-26,40.2c-18.6,0-20.6-41.7-21.1-56.9c-10.3,11.3-15.7,41.2-20.6,55.4
			c0,1.5-1.5,2-3.4,2c-2.5,0-5.4-1.5-5.9-2.5c-1-2-3.9-1-3.9-3.4c0-0.5,0-1.5,0-2c1-4.4,1.5-16.2,2.5-29.9c0-1.5,2-26.5,2-35.8
			c0-2,0-3.4-0.5-3.4c-5.9,0-10.3,75-32.4,75c-8.3,0-16.7-7.4-18.6-27c-5.9,15.2-14.2,27-22.6,27c-15.2,0-21.6-15.7-21.6-34.3
			c0-27,13.2-60.3,33.8-60.3c11.3,0,17.2,7.4,18.6,17.2c3.9,1,9.3,2.9,9.3,5.4c0,6.4-2.9,26-2.9,41.2c0,11.3,1.5,19.6,6.9,19.6
			c15.7,0,21.1-75,28.4-79.5c2.9-2,6.9-3.4,10.3-3.4c2.5,0,4.4,1,4.9,3.9c0.5,7.4,0.5,16.2,0.5,24.5c0,10.3,0,20.1,0,25.5
			c6.9-15.2,15.2-40.7,27.5-52.5c0.5-0.5,1-0.5,2-0.5c2.5,0,9.8,4.9,9.8,7.4c0,0.5,0,0.5,0,1c-7.4,16.7-7.8,43.7-7.8,50.5
			C608.9,384.8,609.8,400.1,616.2,400.1z M513.1,337.8c-3.9-4.9-7.4-6.9-10.3-6.9c-13.2,0-22.6,34.8-22.6,52c0,8.8,2,15.2,6.4,15.2
			C504.3,398.1,511.2,354.9,513.1,337.8z"/>
	</g>
	<g>
		<path fill="#FFFFFF" d="M721.3,376.5c1,0,2,0,3.4,0c0.5-0.5,0.5-1.5,0.5-1.5s1-2,3.4-46.6c0-0.5,0-1,0-1c0.5,0,1,0,1,0.5
			c1,1,3.4,5.4,4.4,6.4c0.5,0.5,1,1.5,1,2.5c0,0.5,0,0.5,0,1c-2,13.2-3.4,26.5-4.9,38.3c3.4-0.5,6.4-1,9.3-1c2.5,0,5.4,2.9,7.4,5.4
			c0.5,0.5,2,0.5,2,1.5c0,0.5,0,0.5-0.5,1c-1.5,1-9.3,1.5-14.2,1.5c-1,0-2,0-2.5,0c-1,0-1,1-1,1c5.4,8.8,8.3,25,8.3,39.7
			c0,16.2-3.4,30.4-10.3,30.4c-7.4,0-9.8-7.4-9.8-17.7c0-15.2,4.4-37.3,4.9-53c0,0,0-2-1.5-2c-2.5-0.5-4.4-1-5.9-1c0,1,0,2,0,2.9
			c0,10.8-5.9,23.1-14.2,23.1c-8.8,0-12.3-7.8-12.3-16.7c0-11.8,6.4-25.5,15.7-25.5c7.4,0,7.8,5.4,7.8,6.9v0.5c-1.5-0.5-2.9-1-4.4-1
			c-8.3,0-12.3,11.8-12.3,21.6c0,6.4,2,11.3,5.4,11.3c4.4,0,7.8-9.3,7.8-17.2c0-4.4-1-8.8-3.4-10.3c0,0,3.4-1.5,5.4-2.5
			C716.3,376,718.7,376.5,721.3,376.5z M728.1,392.2c-2.5,22.6-3.9,39.7-3.9,45.6c0,8.3,0.5,11.8,1.5,11.8c2,0,5.4-19.6,5.4-36.3
			C731.1,404.5,730.6,396.6,728.1,392.2z"/>
		<path fill="#FFFFFF" d="M772.3,339.2C772.8,339.2,772.8,339.2,772.3,339.2c2.5,1.5,6.9,1.5,6.9,3.4c0,1.5-1.5,6.4-2.9,13.2
			c6.4-1,11.8-2,13.2-2c1,0,2.9,0,2.9,1c0,0.5-1,0.5-1.5,1c-0.5,1-1,2-1,2c-1.5,1-7.8,3.4-15.2,4.9c-2,10.3-3.9,22.6-3.9,32.9
			c0,7.4,1,14.2,3.4,18.1c0,0,0,1.5-1.5,1.5c-5.9-2.9-7.8-13.7-7.8-26.5c0-7.8,0.5-16.7,1.5-24.5c-2,0.5-4.4,0.5-6.4,0.5
			c-4.9,0-7.4-3.4-7.4-8.8c0-1,0.5-2.5,1-2.5c0,0,0.5,0,0.5,0.5c3.4,1.5,7.8,2,12.3,2h1c1-5.4,1.5-10.3,2.9-16.7
			C771.8,339.7,771.8,339.2,772.3,339.2z"/>
		<path fill="#FFFFFF" d="M787.5,386.3L787.5,386.3c1.5-3.4,8.8-17.7,12.3-17.7c1,0,2,1,2,1c2,0,3.9,0.5,3.9,2.5
			c-1,7.8-1.5,14.2-1.5,21.1c0,4.9,0.5,10.3,3.4,10.3c3.4,0,5.9-4.4,6.9-7.4c0,0,0-0.5,0.5-0.5c1,0,1,1,1,1.5c0,3.4-2.5,7.8-5.4,9.8
			c-2,1.5-3.4,1.5-4.9,1.5c-8.3,0-8.8-13.2-8.8-19.1c0-4.4,0.5-8.8,0.5-11.8c0-0.5,0-1.5-0.5-1.5c-0.5,0-4.9,8.8-5.9,10.8
			c-2,4.9-3.4,11.3-3.4,16.2c0,3.4,0,6.4,0,6.4c0,1,0,1.5-0.5,1.5c0,0-0.5,0-0.5-0.5c-1.5-1.5-4.9-2.9-5.9-3.9
			c0-3.4,1.5-16.7,2.5-30.9h-0.5c-0.5,0-0.5,0-1,0c-1-0.5-0.5-1-1.5-1.5c-0.5,0-1,0-1-0.5c0,0,2-0.5,3.4-1l0.5-3.4
			c1.5-24,9.3-50.5,14.7-50.5c4.9,0,6.9,4.9,6.9,12.3c0,12.8-6.4,31.9-16.2,40.7C787.5,377.5,787,383.4,787.5,386.3
			C787,386.3,787.5,386.3,787.5,386.3z M797.8,331.4c-3.4,0-7.8,18.6-9.8,36.8c7.4-8.8,10.8-25,10.8-32.9
			C799.3,332.9,798.8,331.4,797.8,331.4z"/>
		<path fill="#FFFFFF" d="M860.6,378c0,0,0.5-0.5,1-0.5c0.5,0,0.5,0,0.5,1c0,0.5,0,1,0,1.5c0,1,1,1,1,2l0,0
			c0,18.6-13.7,27.5-26.5,27.5c-11.8,0-23.1-6.9-23.1-20.1c0-11.8,5.9-24.5,15.7-24.5c4.4,0,6.9,3.4,6.9,7.8
			c0,5.9-4.4,14.2-15.2,20.1c0.5,8.3,4.4,11.3,9.8,11.3C840,404,854.7,392.2,860.6,378z M828.2,370.6c-4.4,0-7.4,9.8-7.8,18.6
			c6.4-4.9,9.8-11.8,9.8-15.7C829.7,371.6,829.2,370.6,828.2,370.6z"/>
	</g>
	<g>
		<path fill="#FFFFFF" d="M200.6,526.2c0,0-0.5,0-1,1c-8.3,30.9-26,90.3-69.2,90.3c-35.8,0-52.5-33.8-52.5-73.1
			c0-54.4,32.4-119.3,93.3-119.3c18.1,0,37.8,12.8,37.8,30.4c0,6.4-3.9,10.8-5.9,15.2c-3.4,5.4-12.3,20.1-12.3,20.1s-1.5,2-2.9,2
			c-4.4,0-8.8-17.7-8.8-22.1c0-6.9,5.9-14.2,5.9-14.2s4.9-6.4,5.9-8.8c0-1.5-6.9-2.5-13.2-2.5c-46.6,0-84.4,63.3-84.4,109
			c0,26,12.3,46.1,41.7,46.1c29.9,0,57.4-35.3,69.6-122.7c0-1,0-2,0.5-2c2,0,11.8,6.9,12.8,7.4c1.5,1.5,2,2.9,2,4.9
			c0,0.5,0,1.5,0,2.5c-4.4,35.8-2,94.3-12.3,143.3c17.7,1,35.8,2,53,2c17.7,0,33.8-1,45.1-5.4c1.5-0.5,2.5-0.5,2.9-0.5
			s0.5,0,0.5,0.5c0,2.5-4.9,2.9-5.4,5.9c-4.4,15.7-16.7,20.6-45.6,20.6c-14.7,0-34.8-5.4-54.4-9.3c-1.5,4.4-2.5,8.3-3.9,12.8
			c-7.4,19.6-25,33.4-43.2,33.4c-28,0-40.2-11.8-40.2-25c0-16.7,20.6-35.8,56.9-35.8c4.4,0,8.8,0,13.2,0
			c9.3-37.3,14.2-71.6,15.7-106.5C201.1,526.7,201.1,526.2,200.6,526.2z M182.9,643.5c-8.8-1.5-17.2-2.5-24.5-2.5
			c-18.1,0-29.9,11.8-29.9,22.6c0,7.8,6.4,14.7,22.1,14.7C162.7,677.9,176.5,667.6,182.9,643.5z"/>
		<path fill="#FFFFFF" d="M223.2,613.6c-2.5,0-5.4-0.5-5.4-2c0-0.5,0-1,0.5-1.5c12.3-15.7,21.6-43.7,24-62.3
			c-4.9-4.4-7.4-12.8-7.4-20.1c0-8.8,3.4-16.7,10.3-16.7c6.4,0,7.8,4.4,7.8,9.8c0,4.4-1,9.8-1,14.2c0,3.9,0.5,5.4,2,5.4
			c1,0,2.5-1,4.9-2c7.4-4.9,19.1-17.2,20.6-17.2c2.9,0,7.4,5.4,7.4,8.8c0,1.5-0.5,2.9-0.5,2.9c-5.9,12.3-12.3,33.8-12.3,45.1
			s3.9,18.6,8.8,18.6c4.4,0,9.3-5.4,14.2-18.1c0.5-1.5,0-2.5,2.9-4.4c0.5-0.5,1-0.5,1.5-0.5s0.5,0.5,0.5,1c0,0.5,0,1,0,1
			c-1.5,12.8-9.8,36.8-26.5,36.8c-11.8,0-15.2-12.3-15.2-26.5s3.4-29.4,5.4-36.3c-3.4,2-8.3,2.5-12.8,2.5c-1,0-2.5,0-3.4,0
			c-2,17.7-13.2,47.6-23.1,61.8C226.6,613.1,225.1,613.6,223.2,613.6z"/>
		<path fill="#FFFFFF" d="M407.2,504.6c0.5,0,2,0,2,1c0,0-3.4,14.2-3.4,30.9c0,8.8,4.9,18.6,9.3,28.9c12.8-8.3,24.5-17.2,27-26
			c0,0-2-6.9-2-14.7c0-3.9,0.5-7.8,1.5-11.8c1-3.9,10.3-9.3,16.7-9.3c0.5,0,1,0,2,0c0.5,0,2,0,2,1c0,0-5.9,14.2-9.3,24.5
			c0,2,0,4.4,0,6.9c0,20.6,15.2,37.8,15.2,56.4c0,15.2-11.8,24.5-22.6,24.5c-8.8,0-16.7-5.9-16.7-18.6c0-10.3,3.9-21.1,12.3-21.1
			c2.5,0,2.5,1,2.5,1.5c-2.5,3.9-5.4,11.8-5.4,18.6s2.9,9.3,6.4,9.3c4.9,0,10.3-4.9,10.3-11.3c0-16.2-7.8-30.4-10.8-45.6
			c-7.4,9.3-17.2,16.2-26,22.1c2,5.9,3.9,11.8,3.9,17.2c0,16.2-10.8,24-20.6,24c-8.3,0-16.2-5.4-16.2-16.7c0-7.4,8.8-15.2,19.1-22.6
			c-3.4-12.3-8.8-24.5-8.8-28c-2.5,4.4-5.4,15.2-9.8,27c-7.4,18.1-20.6,37.3-30.9,37.3c-5.9,0-11.3-6.9-12.3-25
			c-5.9,14.7-13.7,26.5-22.6,26.5c-15.2,0-21.6-15.7-21.6-34.3c0-27,13.2-60.3,33.8-60.3c11.3,0,17.2,7.4,18.6,17.2
			c3.9,1,9.3,2.9,9.3,5.4c0,6.4-2.9,26-2.9,41.2c0,13.2,2,18.6,4.4,18.6c5.4,0,13.2-18.1,18.1-29.9c9.3-22.1,13.7-46.6,14.7-55.4
			C393.9,508.5,403.8,504.6,407.2,504.6z M342.8,539.9c-3.9-4.9-7.4-6.9-10.3-6.9c-13.2,0-22.6,34.8-22.6,52c0,8.8,2,15.2,6.4,15.2
			C334,600.3,340.9,557.1,342.8,539.9z M396.4,600.8c6.9,0,9.3-4.9,9.3-11.3c0-2.9-0.5-5.9-1.5-9.3c-7.8,5.4-13.2,9.8-13.2,15.2
			C391.5,598.3,393.9,600.8,396.4,600.8z"/>
		<path fill="#FFFFFF" d="M523.9,586c1-2,1.5-2.5,2-2.5s0.5,1,0.5,1.5v0.5c0,0.5,1.5,1,1.5,1c0,9.8-8.8,28.4-20.6,28.4
			c-22.6,0-29.9-29.4-29.9-65.7c0-56.9,19.6-131.1,33.4-131.1c10.8,0,15.2,10.8,15.2,26.5c0,31.9-18.1,85.8-37.3,116.3
			c1.5,22.1,7.4,38.3,21.1,38.3C513.1,599.3,519,598.8,523.9,586z M512.1,445.8c-8.3,0-23.1,55.9-24.5,100.2
			c16.2-28.4,27-74.1,27-92.3C514.6,448.7,514.1,445.8,512.1,445.8z"/>
		<path fill="#FFFFFF" d="M660.9,518.8c0.5-0.5,1-0.5,2-0.5c2,0,5.9,2.5,8.3,4.9c0.5,0.5,2,2,2,2.9c0,0,0,0.5-0.5,1
			c-6.9,7.8-11.8,31.9-11.8,53.5c0,18.6,3.9,34.8,13.2,34.8c3.4,0,7.4-2,12.8-7.4c0,0,0.5,0,1,0c0.5,0,0.5,0,0.5,0.5
			c0,11.8-9.3,17.2-19.6,17.2c-18.1,0-22.1-26.5-22.1-47.6c0-9.8,1-18.6,1.5-22.6c-10.3,11.3-15.7,41.2-20.6,55.4c0,1.5-1.5,2-3.4,2
			c-2.5,0-5.4-1.5-5.9-2.5c-1-2-3.9-1-3.9-3.4c0-0.5,0-1.5,0-2c1-4.4,1.5-16.2,2.5-29.9c0-1.5,2-26.5,2-35.8c0-2,0-3.4-0.5-3.4
			c-5.9,0-10.3,75-32.4,75c-8.3,0-16.7-7.4-18.6-27c-5.9,15.2-14.2,27-22.6,27c-15.2,0-21.6-15.7-21.6-34.3
			c0-27,13.2-60.3,33.8-60.3c11.3,0,17.2,7.4,18.6,17.2c3.9,1,9.3,2.9,9.3,5.4c0,6.4-2.9,26-2.9,41.2c0,11.3,1.5,19.6,6.9,19.6
			c15.7,0,21.1-75,28.4-79.5c2.9-2,6.9-3.4,10.3-3.4c2.5,0,4.4,1,4.9,3.9c0.5,7.4,0.5,16.2,0.5,24.5c0,10.3,0,20.1,0,25.5
			C640.3,556.1,648.6,530.6,660.9,518.8z M569.1,539.9c-3.9-4.9-7.4-6.9-10.3-6.9c-13.2,0-22.6,34.8-22.6,52c0,8.8,2,15.2,6.4,15.2
			C560.8,600.3,567.2,557.1,569.1,539.9z"/>
		<path fill="#FFFFFF" d="M744.3,560c0,23.5,2,46.1,7.4,63.8v0.5c0,2-2.5,3.4-3.9,3.4c-11.3-5.4-17.2-27-19.1-54.4
			c-5.4,20.6-16.2,37.8-27,37.8c-16.2,0-23.1-14.7-23.1-32.4c0-39.2,22.6-58.9,36.3-58.9c6.4,0,10.8,3.9,10.8,11.8c0,2,0,4.9-1,7.4
			c-2-2.5-4.4-3.9-7.4-3.9c-10.8,0-24.5,18.6-24.5,49.5c0,11.3,2.9,15.7,7.4,15.7c9.8,0,25.5-22.6,27.5-51v-0.5
			c0-52.5,11.8-112.4,31.9-116.3C753.2,460.5,744.3,512.5,744.3,560z"/>
		<path fill="#FFFFFF" d="M751.7,611.2c0,0-4.9-1-4.9-2.5v-0.5c14.7-21.1,30.9-79,32.4-94.8c0.5-4.9,9.8-8.8,13.2-8.8c0.5,0,2,0,2,1
			c0,0-3.4,14.2-3.4,30.9c0,8.8,3.9,19.1,7.4,30.9c27-5.4,67.7,0,94.8-9.8c4.4-1.5,5.9-2.9,6.4-2.9h0.5c0,1-6.4,5.4-9.3,9.8
			c-11.3,18.1-27,22.6-43.2,22.6c-15.2,0-31.4-3.9-44.6-4.4c0.5,3.9,1.5,8.3,1.5,10.8c0,12.8-9.3,19.6-18.1,19.6
			c-7.8,0-15.7-5.4-15.7-17.2c0-12.8,6.4-20.1,16.2-24.5c-2.5-11.3-5.9-22.6-5.9-26C775.2,555.1,765.4,593.9,751.7,611.2z
			 M782.6,600.8c4.9,0,6.4-4.4,6.4-11.3c0-1.5,0-2.9-0.5-4.4c-8.3,2.5-12.8,7.4-12.8,11.3C775.7,598.8,777.7,600.8,782.6,600.8z"/>
	</g>
</g>
</svg>
