<?xml version="1.0" encoding="utf-8"?>
<!-- Generator: Adobe Illustrator 18.1.1, SVG Export Plug-In . SVG Version: 6.00 Build 0)  -->
<svg version="1.1" id="Layer_1" xmlns="http://www.w3.org/2000/svg" xmlns:xlink="http://www.w3.org/1999/xlink" x="0px" y="0px"
	 viewBox="0 0 289.9 127.8" enable-background="new 0 0 289.9 127.8" xml:space="preserve">
<g opacity="0.8">
	<g>
		<path fill="#FFFFFF" d="M43.1,23.6c-0.5,7.1-2.5,19.8-7.4,24.8c-5.9,5.9-12.6,0.4-14.9-6c-2.8,6.1-7.4,10.5-13.5,9.9
			c-10.5-1-9.9-29.8,3-36.4c3.9-2,8.2-1.9,10.8,1.5c0.1,0.1,0.1,0.2,0.2,0.4c0.3-1,0.6-2,0.9-3c6.7,2.1,8.3,3.3,8.1,4.3
			c-9,37.8,9.2,34.1,11.3,4.2c-4.1-1.9-6.5-8.2-2.7-16l6.5,3.7c-5,14,2.7,12.5,3.7,4.9c1.1,0.3,8.5,2.4,8.2,4.2
			c-5.6,23.7-2.6,35.7,14.5,26.3l0.7,1.6c-20.6,12.2-29.5-2.5-25.2-24.8C45.8,23.7,44.5,23.9,43.1,23.6z M11,44.2
			c8.4,4.1,12-26.3,5-23.5C9.3,23.3,6.9,42.1,11,44.2z"/>
		<path fill="#FFFFFF" d="M92.7,47.9c-19.2,11.4-28.3-0.7-25.9-20.4c0.4-3.3,1.1-7,2.1-10.6c-2.2-0.6-3.6-1-3.6-1l-0.1-2
			c0,0,1.7,0.4,4.2,0.7c1.3-4.7,2.7-9.2,3.9-12.3C80,4.5,81.1,7,80.8,8c-0.7,2.5-1.3,5-2,7.4c2.7,0.1,5.6-0.1,8.2-0.6l0.1,3.3
			c-2.9,0.6-6.1,0.6-9.1,0.3c-1,3.5-1.8,7-2.4,10.8C73,46.6,77.3,54.3,92,46.3L92.7,47.9z"/>
		<path fill="#FFFFFF" d="M113.1,47.9c-22.9,13.4-31.3-6-23.4-32.2c6.8,2.1,8.3,3.3,8.1,4.2c-5.6,23.7-2.5,35.7,14.6,26.3
			L113.1,47.9z M94.7,0c6.7,2.2,7.7,4.7,7.5,5.7c-0.8,3.2-2.3,7.7-3.2,10.9C88.2,13.7,94.7,0,94.7,0z"/>
		<path fill="#FFFFFF" d="M114.3,14.5c3.3,0.4,7.1,2.2,7.9,5.7c1.9,8.8-5.4,21.8-5.4,22.2c2.3,18.6-2.7,27.7-19.3,15.7l1.6-1.4
			c15.4,10.7,8.8-9.6,7.3-22.6C105.5,27.3,105.3,13.3,114.3,14.5z M119.1,21c-1.7-0.6-4.7,5.6-2.8,18.3
			C121.2,27.5,120.6,21.4,119.1,21z"/>
		<path fill="#FFFFFF" d="M170,46.9c-13.1,7.6-21.4,4.5-24.7-4.5c-2.8,6.1-7.4,10.5-13.5,9.9c-10.5-1-9.9-29.8,3-36.4
			c3.9-2,8.2-1.9,10.8,1.5c0.1,0.1,0.1,0.2,0.2,0.4c0.3-1,0.6-2,0.9-3c6.7,2.1,8.3,3.3,8.1,4.3c-5.6,23.7-2.6,35.6,14.5,26.3
			L170,46.9z M135.5,44.2c8.4,4.1,12-26.3,5-23.5C133.8,23.3,131.4,42.1,135.5,44.2z"/>
		<path fill="#FFFFFF" d="M205.4,46.7c-28,16.5-25.5-16.5-25.5-17.8c-2.9,4.7-5.1,12.3-8.6,22.9c-0.4,1.3-5.6,0.2-6.2-2
			c-2.1-7.3-0.9-24,2.4-34.8c6.7,2.2,8.4,3.4,8.1,4.3c-1.6,3.7-4.2,15.4-4.8,24c2.7-7.8,9.8-26.8,13.3-26.9c1.9-0.1,6.2,1.6,6.1,2.4
			c-5.6,23.7-2.6,35.6,14.5,26.3L205.4,46.7z"/>
		<path fill="#FFFFFF" d="M206.6,14.5c3.3,0.4,7.1,2.2,7.9,5.7c1.9,8.8-5.4,21.8-5.4,22.2c2.3,18.6-2.7,27.7-19.3,15.7l1.6-1.4
			c15.4,10.7,8.8-9.6,7.3-22.6C197.9,27.3,197.6,13.3,206.6,14.5z M211.4,21c-1.7-0.6-4.7,5.6-2.8,18.3
			C213.5,27.5,212.9,21.4,211.4,21z"/>
	</g>
	<g>
		<path fill="#FFFFFF" d="M38.7,79.7C37,82,33.4,84.6,29,83.2c-0.8,9.7-1.9,19.6-4,29.1c-8.1,31.9-34.5,5.7-8.5-0.7
			c0.6-2.5,1.2-5.5,1.7-8.7c-2.8,3.6-6.5,5.9-10.9,5.4c-10.5-1.1-9.9-30,3-36.6c3.9-1.9,7.9-1.9,10.6,1.3c0-0.9,0-1.6,0.1-2.4
			c4.7,1,8.8,2.1,8.8,3c-0.1,1-0.2,3.8-0.5,7.6c2.9,0.7,5.7-0.7,7.1-2.5c-3.6-2.4-5.5-8.3-2.1-15.6l6.5,3.7
			c-5.1,14.1,2.8,12.6,3.7,4.9c1.1,0.3,8.6,2.5,8.1,4.3c-5.6,23.6-2.5,35.7,14.6,26.3l0.7,1.6c-20.7,12.2-29.6-2.5-25.3-24.8
			C41.4,79.8,40,80,38.7,79.7z M8.3,122.6c1.2,1.6,4.8,0.3,7.6-8.5C8.4,116.5,7,121,8.3,122.6z M11,100.3c8.3,4,12.7-26.7,5.1-23.6
			C9.3,79.4,6.9,98.3,11,100.3z"/>
		<path fill="#FFFFFF" d="M107.7,103c-13.1,7.7-21.5,4.5-24.8-4.5c-2.8,6.1-7.4,10.6-13.5,9.9c-10.5-1-9.9-29.9,3-36.5
			c3.9-2,8.2-1.9,10.8,1.5c0.1,0.1,0.1,0.2,0.2,0.4c0.3-1,0.6-2,0.9-3c6.7,2.1,8.3,3.3,8.1,4.3c-5.7,23.7-2.6,35.7,14.6,26.3
			L107.7,103z M73.1,100.3c8.4,4.1,12-26.4,5.1-23.6C71.4,79.4,69,98.3,73.1,100.3z"/>
		<path fill="#FFFFFF" d="M108.9,70.6c3.3,0.4,7.1,2.2,8,5.7c1.9,8.8-5.4,21.9-5.4,22.2c2.3,18.7-2.8,27.7-19.3,15.8l1.6-1.4
			c15.5,10.7,8.8-9.7,7.3-22.6C100.1,83.4,99.8,69.3,108.9,70.6z M113.6,77.1c-1.7-0.6-4.7,5.6-2.8,18.3
			C115.8,83.5,115.2,77.5,113.6,77.1z"/>
		<path fill="#FFFFFF" d="M128.4,70.6c3.3,0.4,7.1,2.2,8,5.7c1.9,8.8-5.4,21.9-5.4,22.2c2.3,18.7-2.8,27.7-19.3,15.8l1.6-1.4
			c15.5,10.7,8.8-9.7,7.3-22.6C119.7,83.4,119.4,69.3,128.4,70.6z M133.2,77.1c-1.7-0.6-4.7,5.6-2.8,18.3
			C135.4,83.5,134.8,77.5,133.2,77.1z"/>
		<path fill="#FFFFFF" d="M165.8,104.1c-19.7,11.6-28.7-1.3-25.8-21.8c1.3-9.4,5.4-23.4,8-30c6.7,2.1,7.7,4.8,7.5,5.7
			c-1.9,7.4-5.1,17.3-6.5,25.7c-3.2,18.6,1,27.1,16.2,18.8L165.8,104.1z"/>
		<path fill="#FFFFFF" d="M205.5,103c-13.1,7.7-21.5,4.5-24.8-4.5c-2.8,6.1-7.4,10.6-13.5,9.9c-10.5-1-9.9-29.9,3-36.5
			c3.9-2,8.2-1.9,10.8,1.5c0.1,0.1,0.1,0.2,0.2,0.4c0.3-1,0.6-2,0.9-3c6.7,2.1,8.3,3.3,8.1,4.3c-5.7,23.7-2.6,35.7,14.6,26.3
			L205.5,103z M170.9,100.3c8.4,4.1,12-26.4,5.1-23.6C169.2,79.4,166.8,98.3,170.9,100.3z"/>
		<path fill="#FFFFFF" d="M240.9,102.9c-28.1,16.6-25.5-16.5-25.5-17.8c-2.9,4.7-5.1,12.3-8.6,22.9c-0.4,1.3-5.7,0.2-6.2-2
			c-2.1-7.3-0.9-24.1,2.5-34.9c6.7,2.2,8.4,3.4,8.1,4.3c-1.6,3.7-4.2,15.5-4.8,24c2.7-7.8,9.8-26.8,13.3-26.9
			c1.9-0.1,6.2,1.6,6.1,2.5c-5.7,23.7-2.6,35.7,14.6,26.3L240.9,102.9z"/>
		<path fill="#FFFFFF" d="M280.8,102.9c-13.2,7.8-21.6,4.6-24.8-4.5c-2.8,6.2-7.4,10.7-13.6,10c-10.5-1-9.9-29.9,3-36.5
			c3.9-2,8.2-1.9,10.8,1.5c0.1,0.1,0.1,0.2,0.2,0.3c1.7-8,4.2-16.5,6.2-21.5c6.7,2.2,7.7,4.8,7.5,5.7c-1.9,7.4-4.7,16.1-6.2,24.5
			c-3.2,18.6,1,27.1,16.2,18.8L280.8,102.9z M246.1,100.3c8.4,4.1,12.3-26.5,5.1-23.6C244.4,79.4,242,98.3,246.1,100.3z"/>
		<path fill="#FFFFFF" d="M281.6,70.6c3.3,0.4,7.1,2.2,8,5.7c1.9,8.8-5.4,21.9-5.4,22.2c1.8,15.1-1.1,23.9-11.2,20.4
			c-21.5-7.7-47.7-6.5-67.4,7.4c0.9-6.1,3.2-10.3,6.8-11.4c18.7-5.7,40.4-4.4,59,1.3c8.7,2.6,3.5-14.7,2.2-26
			C272.8,83.4,272.6,69.3,281.6,70.6z M286.1,77c-1.7,0.1-4.3,6.4-2.6,18.4C288.8,82.9,287.9,76.8,286.1,77z"/>
	</g>
	<g>
		<path fill="#FFFFFF" d="M229,49.8c2.5-1.5,2-6.3,0.8-8.1c-3.7,1.5-3.6-2.9-1.3-2.9c2.5,0,3.3,3.8,3.5,5.8c0.3,3.4-0.7,6.8-3.9,8
			c-4.6,1.7-9.6-9.2-5.3-14.3c1.3-1.6,3.1-2.4,4.8-1.6c0.5,0.3,1,0.6,1.5,1C220.9,38,225.5,51.9,229,49.8z"/>
		<path fill="#FFFFFF" d="M258,45.3c5.7-1.3,8.2-2.9,12.5-7.1c-2,5.6-7.6,8.7-11.6,9.4c-6.7,1.3-13.7,0.5-19.6,2.9
			c1,13.2-12.6,6.7-3.4,0.6c-0.2-2.4-0.8-5.3-1.5-8.1c-2.3,1.1-2.1,1-3.4-0.6c0,0,1.4,0.2,3.1-0.4c-0.6-2.3-4.2-11.7,0.1-12.4
			c3.8-0.7,4.7,6.1,3.6,10.8c0.7-0.5,1.4-0.9,1.9-1.3c0.1,0.3,0.2,0.6,0.1,0.7c-0.7,0.6-1.4,1.1-2.1,1.6c0.7,2.7,1.2,5.4,1.5,8.1
			C245.5,46.9,251.8,46.8,258,45.3z M234.2,56.4c0.7,0.6,2-0.3,1.8-4.3C233.5,54,233.5,55.9,234.2,56.4z M235.9,30.9
			c-0.9,0.6,1.2,7.8,1.5,9.1C238.3,35.3,236.5,30.5,235.9,30.9z"/>
		<path fill="#FFFFFF" d="M256.1,42.7c-7,6.2-11.6,2-12.2-6.3c-0.1-1.4-0.1-3,0-4.5c-1-0.1-1.6-0.1-1.6-0.1l-0.2-0.8
			c0,0,0.7,0,1.8,0c0.2-2,0.4-4,0.6-5.3c2.9,0.3,3.6,1.3,3.5,1.7c-0.1,1.1-0.2,2.1-0.2,3.2c1.1-0.2,2.3-0.5,3.3-0.9l0.3,1.3
			c-1.1,0.5-2.4,0.7-3.7,0.8c-0.1,1.5-0.2,3-0.1,4.6c0.3,7.3,2.7,10.1,8.1,5.7L256.1,42.7z"/>
		<path fill="#FFFFFF" d="M264.9,42.3c-7.2,2.3-5.6-7.3-5.6-7.8c-1,2-1.7,5.3-2.7,9.8c-0.2,0.5-2.3,0.3-2.7-0.6
			c-2.1-5.6-0.4-17.2,1.2-22.5c2.9,0.6,3.4,1.7,3.3,2.1c-1,3.3-2.4,13.9-2.4,17.5c0.8-3.3,3.1-11.5,4.6-11.6
			c0.8-0.1,2.6,0.5,2.6,0.8c-1.2,8.1-2,12.1,2,11.1C266.1,41,266.1,42,264.9,42.3z"/>
		<path fill="#FFFFFF" d="M276.9,42.4c-12.2,8.1-13-9.9-5.1-13.3c5.1-2.2,9.3,3.4-1.3,10.8c-0.1,4.7,2,4.3,6.1,1.8
			c0.1-0.1,2.1-1.4,2.2-1.5C278.8,40.3,278.3,41.6,276.9,42.4z M275.1,31.7c-1-0.2-4,2-4.5,6.3C275.3,33.9,275.9,31.9,275.1,31.7z"
			/>
	</g>
</g>
</svg>
