<?xml version="1.0" encoding="utf-8"?>
<!-- Generator: Adobe Illustrator 18.1.0, SVG Export Plug-In . SVG Version: 6.00 Build 0)  -->
<!DOCTYPE svg PUBLIC "-//W3C//DTD SVG 1.1//EN" "http://www.w3.org/Graphics/SVG/1.1/DTD/svg11.dtd">
<svg version="1.1" id="Layer_1" xmlns="http://www.w3.org/2000/svg" xmlns:xlink="http://www.w3.org/1999/xlink" x="0px" y="0px"
	 viewBox="94 141.6 338.4 121.8" enable-background="new 94 141.6 338.4 121.8" xml:space="preserve">
<path fill="#DF5B26" d="M96.8,215.5c0.1,0,0.2,0,0.3,0.1c-0.2,0.1-0.1,0.1-0.1,0.2c0.4,0.1,0.8,0.1,1.2-0.8
	c-0.2-0.7-0.7,0.2-0.7-1.3c0,0.3,0.2,0.3,0.2-0.3c-0.1-0.4-0.2-0.8-0.2-0.4l0,0.1c0,0,0,0,0,0c0,0,0,0,0-0.1c0,0.2,0,0.4-0.1,0.9
	c-0.1-0.1-0.1-0.4-0.1-0.8c0,0-0.1,0.1-0.1,0.1c0.1-0.1-0.1-0.1,0.1-0.2c0,0,0,0,0,0.1c0-0.1,0-0.1,0-0.2c-0.3,0-0.6,0-0.5-0.2
	c0.1,0,0.2,0.1,0.4,0.1c-0.1,0,0-0.1,0.1-0.1l0,0.1c0.1-0.7,0.2-1.6,0.4-2.2c0.2,1.7,0.4,4.1,0.8,1c0,1.6,0.3-0.6,0.3,0.8
	c-0.2,1.1-0.3,0.3-0.3,1.2c0,1.1,0.2,0.4,0.4-0.1c0-0.3,0-0.7,0.1-1c0.1,1.1-0.1,2.2-0.4,3.2c-0.1-0.5,0-1.3-0.4-0.2
	c0.1,1.2-0.3,2.1-0.2,3.2c0.2-0.5,0.2-0.1,0.3-0.2c0.5-3.7,1.2-5.5,1.6-5.6c-0.3,0.9,0,1.6,0,1.3c0.3-1.9,0.5,0,0.7,0.3
	c-0.1,0.5-0.3,1-0.3,1.5c0.1,1,0.5-2.4,0.6-1.7c-0.3,2.1,0.2,0.3,0.3,0.5c-0.2,0.7,0,1.6,0,2.3c0.1-0.6,0.2-0.3,0.3-0.9
	c-0.1,0.2-0.3-0.2,0-1.4c0.1,1,0.3,1.2,0.5-0.8c0.1,0.7-0.2,1.2-0.1,1.9c0.4-2,0.2-0.1,0.3-0.2c0.2-0.7,0.2-1.5,0.3-2.2
	c-0.2,1.6-0.3-0.3-0.5-0.2c0.2-0.6,0.1-1.3,0.3-1.9c0.1,0.2,0.2,0.7,0.4-0.1c0.1-1.2,0-1.3-0.1-2c0.4,0.4,0.3,1.4,0.3,3.5
	c0.3-1,0.3,1.6,0.4,2.2c-0.1,1-0.3,1.8-0.4,2.8c0.2-0.2,0.4,0.7,0.6,0.3c0.1-0.8,0.3-2.4,0.4-1.5c-0.1,1.1-0.3,0.7-0.3,2.2
	c0.3-1.7,0.1-0.5,0.3-0.5c0.1-0.7,0.2-1.5,0.3-2.2c-0.1,0.2-0.3-0.3-0.1-1.1c0.1,0.1,0.1,1.3,0.3,0.2c0.1-1.2-0.2-0.5,0-1.4
	c0,0.5,0.2-0.4,0.2-0.9c0.1,0.9,0,1.8-0.1,2.6c0.1-0.2,0.2,0.8,0.3,0.2c0,1-0.2,3.6,0.1,2.7c0.3-0.9,0.1-2,0.4-2.8
	c0.1,1-0.3,1.8-0.2,2.9c0.3,0.5,0.6,1.1,1.1-0.5c-0.2,2,0.3,0.2,0.4,0.5c0.1,0.6-0.2,2.8,0.1,2.4c0.3-1.2,0.7-3,0.8-3.6
	c-0.1,0.7,0,1.2,0.1,2c-0.1,1.6-0.3-0.1-0.4,1.5c0.2,0.1,0.6,0.7,0.8-1c-0.1-0.7-0.4,0.4-0.2-1.1c0.5-1.2,0.8,1.6,1.3-0.1
	c0.4,1.3,0.4,3.9,0.9,1.4c0,0.9-0.1,2.1,0.1,1.4c0-0.6,0.1-1.1,0-1.7l0.4-1.8c-0.2,3.1,0.6-0.7,0.5,1.5c-0.1-0.8-0.2,0.3-0.3,1.2
	c0.2-0.6,0.1,1.5,0.4,0.2c0.1-1.7,0.2-0.6,0.4-1.5c0.1,0.7-0.2,1.2-0.1,2c0.1-0.2,0.1-0.6,0.2-0.3c-0.2,1.5-0.5,0.6-0.6,3
	c0.4-1.6,0.5,2.2,0.9-1.3c0,0.6-0.1,1.1,0,1.7c0.3-1.3,0.4,0.1,0.5-1.4c0-1-0.3,0.9-0.3-0.5c0.5-1.3,0.6-0.4,1-2.5
	c0,1-0.2,1.9-0.2,2.9c0-1.9-0.5,0.4-0.5,1.8c0.3-1,0.4-0.3,0.7-1c0-0.7,0.1-1.3,0-2c0.3-1.6,0.4-0.7,0.6-1.4
	c0.1,0.8-0.1,1.5-0.1,2.3c0.5-2.3,0.9,0.3,1.4-2c0,1-0.2,1.9-0.3,2.9c0.2,0.7,0.3-2.1,0.4-1.1c-0.1,0.4-0.2,0.8-0.1,1.3
	c0.1-0.4,0.3-0.9,0.4-1.8c-0.1-0.1-0.2-0.1-0.3-0.5c0.1-0.6,0.1-1.3,0.1-2c0.3-0.5,0.5,0.3,0.8,0.4c0.3-1,0.3-2.1,0.4-3.2
	c0.2,1.2,0,1.1,0,2.7c-0.6,2.3-0.6,0.9-1,1.5c0.1,0.8,0,1.3,0.2,2.1c0.8-1.8,1.6,3.6,2.1-1.9c-0.1,0.6-0.3,0.4-0.1-0.5
	c0.1-0.1,0.3,0.3,0.3-0.5c-0.2-0.3-0.5,0.7-0.8,2c0-2.4-0.4,0.2-0.5-1.2c0.2-1.3,0.2,0.3,0.3-0.2c0.1-0.8,0.2-1.5,0.2-2.3
	c0.3-0.7,0.4-2.1,0.5-0.8c-0.1,1.4-0.5,1.3-0.4,3.1c0.4-1.8,0.7-2.6,0.7-4c0-1-0.4,0.3-0.1-1.4c0,0.3,0.1,0.3,0.2-0.2
	c-0.1,2.4,0.5,0.8,0.1,4c0.3-1.8,1.1-3.5,1.2-1.5c0-0.4,0.1-0.9,0.1-1.3c0,0.4,0.1,0.7,0.2,0.1c0,0.9-0.1,1.7-0.2,2.6
	c-0.2-0.6-0.4-0.3-0.7-0.3c0,0.8-0.3,1.4-0.1,2.3c0.3-2,0.6,0.2,1.1-1.8c0-0.8-0.2-0.5,0-1.7c0.3-0.5,0.7,1.4,0.9-1.2
	c-0.1,1.5-0.1,3.2,0.3,1.1c0,0.6,0,1.1,0,1.7c-0.2,1.4-0.1-0.9-0.3,0.5c0.1,1.8-0.2,0.5-0.2,1.6c0,1,0.2,0,0.3,0.1
	c0-1.9,0.3-1.6,0.3-3.5c0,1.3,0.2,2.9,0.4,0.9c0,0.7,0.1,0.4,0.1,1.1c-0.1,2.6-0.6,1.1-0.6,3.4c-0.4-1.7-1,0.2-1.5,0.3
	c0,2.2,0.5-1,0.4,1.5c0.2-0.5,0.3-0.9,0.4-2.1c0.2,1.2,0.1,0.1,0,2c0.2-0.6,0.2,0.2,0.3-1.5c0.3,0.4-0.3,2.6-0.3,3.8
	c0.3-0.9,0.3,1.1,0.6,0.3l0.1-2c-0.2,1.3-0.2,0.4-0.4,0.8c-0.1-0.6,0.1-2.8,0.2-2.2c-0.1,0.2-0.3,2-0.1,1.3c0.2-0.6,0.3-1.2,0.3-1.8
	c0.1,0.1,0.4,1.4,0.5,0.2c0-1.2-0.3,0.4-0.4-0.8c0.2-1.5,0.3,0.1,0.4-1.5c-0.1,2.8,0.6,2.7,0.8,0c0.1,0.9-0.1,2.5,0.2,1.7
	c0.1-0.5,0.1-1.1,0.2-1.6c0.1,1,0.2-0.3,0.3-0.9c0.1,0.4,0.2,1.2,0.3,1.5c-0.4,1.2-0.8,2.8-1.1,5.1c0.2,0.1,0.2-1,0.3-1.8
	c0,1.6,0.3,0,0.4,1.2c-0.1,0.7-0.1,1.5-0.1,2.3c0.3-1.9,0.3,0.3,0.4,0.2c0.1-0.5,0.2-1,0.2-1.5c0-0.3-0.4,0.7-0.2-0.7
	c0,0.2,0.4-0.9,0.3-1.2c-0.1,0.7-0.4,0.2-0.2-1.1c0.4-2,0.4,0.1,0.7-2c0,0.6-0.1,1.1-0.1,1.6c0.2-0.2,0.5,0.8,0.7-1
	c0.2,2,0.5-0.5,0.8-0.6c0,0,0.1,1.8,0.2-0.2c0.1,0.7,0,1.3,0,2c0.2-2,0.5-0.1,0.7-1c-0.1,0.6-0.1,1.3-0.1,2c0.2,0.9,0.2-1.2,0.3-0.9
	c-0.1,0.5-0.1,1.1-0.1,1.6c0.2-1.6,0.1,1,0.2,0.1c0.2-0.6,0-1.3,0.1-1.9c0.2,0.8,0.6-1.3,0.9-0.3c-0.1,0.5-0.1,1-0.2,1.6
	c0.3-1.4,0.5-1.5,0.3,0.5c0.4-0.9,0.8-2,0.8,0.4c0.2-1.3,0.3,0,0.4-0.5c0.1-1.1,0.2-0.7,0.3-2.1c0,1.3,0,1.6,0.2,1.4
	c-0.1,1.4-0.3,0.8-0.4,1.1c0,1.3-0.2,2.5-0.3,3.8c0.1,0.5,0.3,0.6,0.5-1.1c0.2,0.5,0.4,2.2,0.8-0.3c0.1,0.4-0.2,2.3,0,1.7
	c0.1-0.3,0.1-0.6,0.1-0.9c0.2,2.3,1-0.2,1.4,1.3c-0.1-1.5-0.1-1.1-0.2-2.7c-0.2,1.4-0.1-0.9-0.3,0.5c0,0.4,0.1,0.1,0,0.7
	c-0.4,0.7-0.5-1.2-0.9-0.7c0.1-0.6,0.3-0.6,0.2-1.9c0.2-0.9,0.3-0.6,0.3,0.8c0.1-0.6,0.7-2.1,0.9-1.3c-0.1,0.5-0.2,1-0.1,1.6
	c0.1,0.8,0.3-0.6,0.4-0.5l-0.1-1c0.4,0.3,0.8-0.1,1.2-0.5c0.1,0.7,0,1.3,0,2l0.2-1.2c0.1,0.6,0,1.1,0,1.6c0.1-0.6,0.1,0.5,0.3-0.5
	c0-0.4-0.1-0.9,0-1.3c0.1,0.5,0.3-0.4,0.3,0.5c-0.1,0.5-0.2,1-0.1,1.6c0.1-0.9,0.2,0,0.3-1.2c0-0.6,0-1.1,0-1.6
	c0.1,2.7,0.5-0.1,0.7,0.6c0,0.7-0.2,1.2-0.2,1.9c0.4,2,1.3-1.6,1.8,2.4c0.1-0.5,0-1.1,0.1-1.6c0.2,0.1-0.1,0.8,0,1.6
	c0.2,0.1,0-0.8,0.2-1.5c0.1,0.7,0,1.3,0.1,2c0.2-0.9,0.3,0.3,0.6-0.7c0-0.6,0-1.1,0-1.6c0,0.3,0.1-0.1,0.2-0.6
	c0.2,2.1,0.5-0.5,0.7,0.6c-0.1,2-0.3,0.6-0.4,1.1c0,0.3,0,0.6,0,1c0.3-0.1,0.6,0.2,0.9,0.4c-0.1-1-0.3-1.5-0.5-1.2
	c0.1-0.5,0.1-1.1,0.1-1.6c0.2,2,0.2-0.2,0.4,0.2c0,0.9,0.2,2.2,0.3,2.1c0-1.5,0-1.6-0.1-2.6c0.1,1.1,0.2,0,0.3,1.8
	c0.1-1.2,0.3-1.7,0.3,0.1c0.4-1.8,0.6-0.8,0.9-0.6c0.2-0.5,0.2-2.7,0.3-2.1c-0.1,1.8,0.1,0.5,0.1,2.7c0.4-3,0.7-0.5,1-3.5
	c0.1,1.2,0.2-0.3,0.4-0.2c-0.3,3.7,0.7,1.2,1,0.1c0,2.1-0.3,1.1-0.3,2.1c0.1,0.8,0.2,1.7,0.3,1.8c0-1.8,0.1-0.5,0.2-0.6
	c0-1.5,0.1-1.5,0.1-2.5c0.1,0.9-0.1,1.7-0.1,2.6c0.1,1.1,0.3,1.1,0.2,3.3c0.1-1.4,0.2-2.7,0.3-4.1c0.1,1.7,0.3,1.5,0.4,2.8
	c0.1-1.4-0.2-2.9-0.2-4.3c0.3-0.5,0.3,4.2,0.7,1.6c-0.4-0.7-0.3-2.8-0.7-3.8c0.2,0.2,0.5-0.4,0.5,0.9c0-0.2-0.1-0.1-0.1,0.3
	c0.1,2,0.3,2.4,0.5,2.5c-0.1,1-0.2,1-0.1,2.6c0.1-0.2,0.2,0.6,0.3-0.2c0-0.9-0.2-0.2-0.1-1.3c0.2,0.5,0.3,1.5,0.4-0.8
	c0.1,2.2,0.6,1.6,0.5-0.1l0.1,1.3c0.1-1.7,0.2-0.7,0.3-1.2c0.1,1.3,0,2.1,0.2,2.7c0.2-1.2,0.4-2.4,0.6-1.4c-0.1,1-0.4,0.2-0.3,1.8
	c0.2-0.2,0.2,1.1,0.3,1.1c0.3-1.3,0.4-0.9,0.5-3c0.4,2.2,0.8-3.2,1.2,0.5c0-0.8,0.1-1.2,0.2-1.2c0.2,0.7,0,3,0.2,2.7
	c0.1-0.7-0.1-1.5,0-2.2c0.3-0.1,0.4,0.9,0.6-1c0.2,0.7-0.1,1.2,0,1.9c0.2,0.1,0.5,0.8,0.6-1.4c0.2,0.3,0.3,1.1,0.5-0.1
	c0.1,0.8,0.1,1.5,0.2,2.3c0.1-2,0.3,0.9,0.4-0.5c0-0.9,0-1.7,0.1-2.5c0.2,1.5-0.2,2.7,0.1,4.2c0.1-0.7,0.1-0.2,0.2-0.2
	c0-0.8-0.1-1.5,0-2.2c0.1,0.9,0,1.9,0.2,2c0.1-1,0-2.1,0-3.2c0.2,1.8,0-1.3,0.2-0.2c0,0.7,0.1,0.4,0.1,1c0.2-2,0.4,0.2,0.4-2.7
	c0,1.5,0.1,1.6,0.2,2.6c-0.1,0.2-0.1,1.2-0.1,2.2c0.1,0.1,0.5,1.5,0.5-0.8c-0.1,0.9-0.3-0.1-0.3-1.4c0.2-1.1,0.4-0.4,0.6-2.3
	c0.2,1.7,0.4-0.9,0.4,1.8c0.2-1.1,0.3-0.6,0.4-1.7c0,2.2,0.3-0.4,0.4,1.1c-0.1,1.3-0.2-0.4-0.3,0.8c0.3,2.2-0.2,0.6-0.1,2.5
	c0.2,0.7,0.2,0.1,0.3,0.8c0.1-2.1,0.4-2.3,0.6-4.2c0.1,1-0.1,1.9,0,2.9c0,1-0.3,0.1-0.2,1.5c0.2-0.5,0.4-1.3,0.7,0.6
	c0.2-0.8,0.3-2.5,0.5-0.4c0.3-0.3,0.2-4.5,0.5-2.7c-0.2,0.5-0.1,1.5-0.1,2.8c0.3-1.6,0.9,0.2,0.9-2.2c-0.2-1.7,0,1.3-0.2-0.4
	l0.1-1.5c0.1,1.8,0.3,1.8,0.4,1.8c0,0,0,0,0,0c0,0,0,0,0.1,0c0-0.1,0-0.1,0-0.2c0,0,0,0,0,0c0-0.1-0.1-0.2,0-0.2c0-0.1,0-0.1,0-0.2
	c-0.1-0.1-0.2-0.2-0.1-0.3c0.1,0,0.1,0,0.1,0c0,0,0-0.1,0-0.1c0,0-0.1,0-0.1,0c0,0,0-0.1,0.1-0.1c0.1-0.9,0.2-0.4,0.3-1.3
	c0,0,0,0.1,0,0.1c0-0.1,0-0.3,0-0.4c0,0,0.1,0.1,0.1,0.1c0,0,0,0,0-0.1c0,0,0-0.1,0-0.1c0,0,0-0.1-0.1-0.1c0,0,0,0,0,0
	c-0.5,0.2-0.6,0.7-0.5,1.2c-0.2-0.2-0.3-0.4-0.5-0.7c0.1,0,0.1-0.1,0.2,0c-0.1,0-0.4-0.3-0.4-0.4c0.2,0,0.3,0.3,0.4,0.2
	c-0.2,0.1-0.1,0.1,0,0c-0.2-0.3-0.3-0.5-0.2-0.7c0.3-0.1,0.2,0.3,0.5,0.3c0-0.1,0.1-0.1-0.1-0.2c0.3-0.3-0.4-0.9-0.5-1.2
	c0.1-0.1,0.2,0.2,0.3,0.1c-0.2-0.1-0.3-0.2-0.4-0.3c-0.1,0.1-0.1,0.1-0.1,0.2c0,0-0.1,0-0.1,0c-0.1-0.1,0.2-0.3-0.1-0.4
	c0.1,0,0.1,0,0.2-0.1c-0.2-0.1,0-0.2-0.1-0.3c0.1,0,0.2,0,0.2,0c0.1-0.1-0.1-0.1,0.1-0.2c-0.1-0.1-0.1,0-0.2,0
	c0.1-0.4,0-0.7-0.1-1.1c0.1,0,0.2,0,0.3,0.1c0-0.1-0.1-0.1,0-0.2c-0.1-0.1-0.2,0-0.3-0.1c0.2-0.1,0.1-0.2-0.1-0.3
	c0.1-0.1,0.2,0,0.3-0.1c-0.1,0-0.2,0-0.3,0c0.3-0.1,0-0.1-0.1-0.3c0.1-0.1,0.2,0,0.3-0.1c-0.1,0-0.1,0-0.2,0
	c-0.1-0.1,0.2-0.5,0.5-0.5c-0.2-0.2-0.3,0.2-0.5,0c0-0.1,0.1-0.1,0.2-0.2c-0.2-0.1,0-0.2-0.3-0.3c0-0.1,0-0.2,0.2-0.2l-0.2-0.1
	c-0.2,0.1,0.2,0,0,0.1c-0.3-0.1-0.1-0.4-0.3-0.6c0.2,0,0.3,0,0.4,0.1c0.2-0.2-0.3-0.2-0.4-0.3c0.3-0.1,0-0.2-0.1-0.3
	c0.2-0.1,0.1-0.2,0.1-0.4c0.2,0,0.1,0.1,0.2,0.2c0.1,0,0.3,0.1,0.4,0c-0.3-0.1-0.3-0.3-0.6-0.4c0.1,0,0-0.1,0.1-0.2
	c0.3,0,0,0.3,0.3,0.1c0.2,0.1-0.1,0.1,0.1,0.2c0.2-0.1-0.1-0.3,0.1-0.2c-0.2-0.1-0.1-0.2-0.2-0.3c0.4,0,0-0.1,0.2-0.2
	c-0.3-0.1-0.2-0.3-0.3-0.4c-0.2,0-0.3,0.1-0.2,0.2c-0.3,0-0.1-0.2-0.1-0.3c0.1,0,0.3,0,0.3,0.1c0.1,0,0.1-0.1,0.4-0.1
	c-0.4,0-0.1-0.1-0.4-0.2c-0.2,0.1,0,0.1-0.1,0.2c0-0.1-0.2-0.1,0-0.2c0.1,0,0,0,0.1,0.1c0.1,0,0-0.1,0.1-0.1c0.1-0.1-0.3,0,0-0.1
	c-0.1,0-0.3,0.1-0.4,0c0-0.1,0.1,0,0.3-0.1c-0.1-0.1-0.2,0-0.3,0c0,0,0.1-0.1,0-0.1c0.2-0.1,0.4,0.1,0.6,0c-0.1,0-0.2-0.1-0.3,0
	c-0.2-0.1,0.2-0.1-0.1-0.2c0.1-0.1,0.2-0.1,0.3-0.1c-0.2-0.1-0.1-0.2,0-0.3c-0.3-0.1-0.2-0.2-0.2-0.3c0.1-0.1,0.2,0.1,0.3,0
	c-0.3-0.1-0.1-0.2-0.2-0.4c-0.1-0.1-0.2,0-0.3,0c0-0.1,0.3,0,0.4-0.1c0-0.1-0.1-0.1-0.2-0.1c0.5-0.2-0.2-0.4,0-0.7
	c-0.3-0.1-0.2-0.1-0.4-0.3c0,0,0.2-0.1,0.1-0.2c0.2,0,0.1,0.1,0.3,0.2c0.1-0.1,0-0.2-0.2-0.3c0.1-0.1,0.2-0.1,0.4-0.1
	c-0.1-0.1,0.1-0.1-0.2-0.2l0.2-0.1c-0.2,0-0.3-0.2,0-0.3c-0.3-0.1-0.2-0.1-0.1-0.2c-0.2-0.1-0.1,0-0.2,0c-0.1-0.1,0-0.1,0-0.2
	c0.2-0.1,0.2,0,0.3,0c0-0.1,0.1-0.2,0.3-0.3c0.1,0,0.1,0,0,0.1c0.2,0,0.1-0.2,0.1-0.3c-0.1,0.2-0.4,0.2-0.5,0.4
	c-0.4-0.2,0.3-0.2,0.2-0.4c-0.2,0-0.4,0.2-0.6,0.2c0.2-0.1,0.1-0.2,0.4-0.3c-0.2-0.1-0.4-0.1-0.6-0.1c0.3,0,0.3-0.1,0.4-0.2
	c0.1,0,0.2,0.1,0.3,0c-0.1,0-0.1-0.1-0.3,0c0-0.1,0.2-0.1-0.1-0.1c0-0.1,0.1-0.1,0.2-0.2c0.1,0,0,0.2,0.3,0.2
	c-0.2-0.1-0.5-0.6,0-0.6c0-0.1-0.2-0.1,0-0.2c-0.4-0.1-0.1-0.3-0.5-0.5c0.3,0,0.1-0.2,0.4-0.1c0.1-0.1-0.2,0-0.3-0.1
	c0-0.2,0.2-0.3-0.1-0.5c0.2,0,0.2-0.2,0-0.2c0.2-0.1,0.1-0.1,0.2-0.2c-0.1,0-0.1,0.1-0.4,0.1c0-0.1,0.2-0.2,0.3-0.2
	c0-0.1-0.3-0.1,0-0.2c-0.1,0-0.1,0-0.2,0c0.1,0.1,0,0.2-0.1,0.3c0-0.2,0-0.3,0-0.5c0,0,0.1,0,0.1,0c0.1,0.1-0.1,0.2,0.2,0.2
	c0.1-0.1-0.2-0.2,0.1-0.4c-0.1,0-0.1-0.1-0.1-0.1c-0.1,0-0.1,0-0.2,0c-0.1-0.1,0-0.2-0.1-0.3c0.1-0.1,0.2,0,0.3-0.1
	c-0.1-0.1-0.2,0.1-0.2-0.1c0.1-0.1,0.2,0,0.2-0.1c-0.1-0.1-0.1,0-0.2,0c0.5-0.3,0-0.7,0.3-1c0.1,0,0.2,0.1,0.3,0
	c0.1-0.1-0.3-0.2,0.1-0.4c-0.1,0-0.1,0-0.2,0c-0.2,0,0-0.1-0.2-0.1c0.1-0.1,0.1,0,0.2,0c0.1-0.1,0-0.1,0.1-0.2c-0.1,0-0.1,0-0.2,0
	c-0.1,0,0-0.1-0.1-0.1c0.1,0,0.1,0,0.2,0l-0.2-0.1c0.1-0.1,0.2,0,0.3-0.1c-0.1-0.2-0.1-0.4-0.1-0.6l-0.1,0.1c0-0.1-0.2-0.1-0.1-0.2
	c0.1-0.1,0.1,0,0.2,0c0.1-0.1-0.1-0.3-0.2-0.4c0.2,0,0.2-0.1,0.1-0.2c-0.2,0.1-0.2,0-0.3,0c0.1,0.2-0.2,0.3-0.1,0.5c0.1,0,0,0,0.1,0
	c0.2,0-0.1,0.1,0.1,0.1c-0.2,0.1-0.2,0.1-0.4,0.2c0.2-0.3-0.2-0.6,0.1-0.8c0,0-0.1,0-0.1,0c-0.1-0.1,0.2,0,0.2-0.1
	c-0.4-0.1-0.1-0.3-0.1-0.4c-0.2,0-0.2-0.1-0.2-0.2c0.2,0,0.3,0.1,0.5,0c0.1,0.1,0,0.2,0.2,0.2c0-0.1,0-0.1,0.2-0.1
	c-0.2,0-0.2-0.1-0.3-0.1c-0.1-0.1,0.1-0.1-0.1-0.2c0.3-0.1,0.2-0.3,0-0.4c0.3,0,0.2-0.1,0.1-0.2c0.1,0,0.1,0,0.2,0
	c0.1-0.1-0.2-0.3-0.1-0.4c-0.1,0-0.2,0.1-0.3,0c-0.1,0,0.2-0.1,0-0.1c0.1,0,0.1,0,0.2,0c0-0.1-0.2,0-0.1-0.1c0.1-0.1,0.2-0.1,0.3,0
	c-0.1-0.1,0.1-0.3-0.2-0.3c0.1-0.1,0.2,0,0.3-0.1c-0.3,0,0-0.1,0-0.1c0-0.1-0.4-0.2-0.1-0.4c-0.3,0-0.1-0.2-0.2-0.3
	c0.1,0,0.1,0,0.2,0c-0.3-0.1,0-0.2-0.3-0.3c-0.2,0-0.2,0.1-0.1,0.1c0,0-0.2-0.1-0.2-0.1c-0.2,0-0.1,0.1-0.1,0.1
	c-0.1,0-0.1,0-0.2-0.1c0,0,0.3-0.1,0-0.2c0.1-0.1,0.2-0.1,0.3-0.1c0.2-0.1-0.1-0.2,0.1-0.2c0,0,0,0,0,0c-0.1,0-0.3,0-0.3-0.1
	c0.1,0,0.2,0.1,0.3,0.1c0,0,0,0,0,0s0,0,0,0c0.2,0.1,0.3,0.2,0.5,0.3c0-0.1,0.1-0.1,0.2-0.2c-0.1,0-0.3,0-0.1-0.1
	c-0.1,0-0.1,0-0.2,0c-0.1-0.1,0.1-0.1,0.2-0.1c-0.4,0-0.4-0.3,0-0.4c-0.2,0,0-0.1-0.2-0.1c-0.2,0.1,0.1,0.1-0.1,0.2
	c-0.2,0,0-0.2,0-0.3c-0.1,0-0.2,0-0.3-0.1c-0.1,0,0.1-0.1,0.2,0c0.1-0.1-0.2-0.1-0.3,0c0.1,0-0.1,0.1,0.1,0.1l-0.3,0
	c-0.1-0.1,0.2-0.2,0-0.3c0.2,0,0.5,0.1,0.5,0c-0.2,0-0.1,0-0.2-0.1c0.3,0,0.1,0.1,0.3-0.1c-0.2,0-0.2,0-0.3-0.1
	c0.3,0-0.1-0.2,0.2-0.3c0,0.3,0.3,0.4,0.1,0.7c0.3-0.1,0.1,0.2,0.5,0.1c0.1,0,0-0.1,0.1-0.1c-0.3,0-0.1-0.2,0.1-0.3
	c-0.3,0.1-0.2-0.1-0.5,0c0-0.1-0.1-0.1,0-0.2c0.1,0,0,0.2,0.2,0c0.2,0-0.1,0.1,0.1,0.1c0.1,0,0.1,0,0.2-0.1
	c-0.3-0.1-0.1-0.2,0.1-0.2c-0.4,0-0.1-0.3-0.2-0.4c-0.2,0-0.1,0-0.2,0.1c-0.3-0.1,0-0.4-0.3-0.4c0.1-0.1,0.2,0,0.3,0
	c0,0.1,0.1,0.2,0,0.3c0.1,0,0.2,0,0.3,0c-0.1,0,0-0.1,0-0.1c-0.1,0-0.1,0-0.2,0c0.3-0.1,0-0.4-0.2-0.5c0.4,0,0.2-0.2,0.5-0.2
	c-0.1,0-0.1-0.1,0-0.1c-0.2,0-0.1,0.1-0.2,0.1c-0.2,0-0.3-0.1-0.6-0.2c0.2-0.1,0.2,0.1,0.4,0.1c0.2-0.1,0-0.1-0.1-0.2
	c-0.1,0-0.2,0-0.3,0c-0.1,0,0.1-0.1,0-0.1c-0.2,0.1,0.2,0.2-0.2,0.3c0.2,0.1,0.3,0.2,0.3,0.3c-0.1,0-0.1-0.1-0.1-0.1
	c-0.2,0-0.2,0.1,0,0.1c-0.8,0-0.2-0.5-0.3-0.8l0-0.1c0.1,0,0.1-0.1,0.2-0.1c0.1,0.1-0.1,0.2,0.2,0.4c0.2-0.1,0.2,0,0.4-0.1
	c-0.1,0-0.3,0.1-0.4,0c0-0.1,0.1-0.3,0-0.4c-0.1,0.1-0.2,0.1-0.3,0c0,0.1-0.1,0.1-0.1,0.2c0,0,0,0-0.1,0l0.1-0.3c0,0,0.1,0,0.1,0
	c-0.1,0-0.1-0.1-0.1-0.1l0.1-0.5c0,0,0,0,0,0c0,0,0,0,0,0l0.1-0.2l-0.1,0.2c0,0,0-0.1-0.2-0.1c-0.1,0.1-0.2,0.1-0.3,0.1
	c0,0,0-0.1,0-0.1l0.1,0l-0.2-0.1c0,0,0,0,0,0c0.2,0,0.5,0.1,0.2,0.2c0.1,0,0.3,0,0.4,0c-0.3-0.1-0.2-0.2-0.4-0.4
	c-0.2,0,0.1,0.1-0.1,0.1c-0.2,0,0-0.1-0.2-0.2c0.1,0,0.1,0,0.2-0.1c-0.5-0.1,0-0.2-0.2-0.4c0.3-0.1,0.2,0.2,0.4,0.2c0,0,0,0,0-0.1
	c0.1-0.1,0.2,0.1,0.3,0c-0.1-0.1,0-0.2-0.2-0.1c-0.2-0.1,0.1-0.1,0-0.2c0,0,0,0,0.1,0c0.1,0.1,0.2,0.2,0.3,0.3l0.2-0.7
	c0,0,0,0.1,0.1,0.1c0.2,0,0-0.1,0.1-0.1c-0.1,0-0.2,0-0.2,0l0.2-0.7l-0.5,0.1c0,0,0,0,0,0c0.2,0,0.3-0.3,0.4-0.6
	c0.1,0,0.1,0,0.2-0.1l-0.1-0.1c0,0,0,0,0,0c0,0,0,0,0,0c0.1,0,0.1,0,0.2,0c0,0-0.1-0.1-0.1-0.1c0-0.1,0-0.2,0-0.3c0,0,0,0,0.1-0.1
	c-0.1,0-0.1,0-0.1,0c0,0,0-0.1,0-0.1l0,0c0,0,0,0,0,0c0,0,0,0,0-0.1c0,0,0,0,0,0.1c-0.1-0.1,0-0.1-0.1-0.2c0,0.1,0,0.1,0,0.2l0.1,0
	c0,0,0,0.1,0,0.1c0,0-0.1,0-0.2,0.1c0.2,0.1,0,0.1,0.2,0.2c0.1-0.1,0-0.1,0.1-0.2c0,0.1,0,0.2-0.1,0.3c0,0,0,0-0.1,0c0,0,0,0,0,0.1
	c0,0,0,0.1,0,0.1c0,0,0,0-0.1,0c0,0,0,0,0.1,0c-0.1,0.2-0.1,0.3-0.2,0.5c0-0.1,0-0.1,0-0.2c-0.2,0-0.1,0.1-0.1,0.1
	c-0.2,0-0.2-0.2-0.1-0.3c0.2,0,0,0.1,0.2,0.1c0.1-0.1,0.2-0.1,0.3-0.1c-0.1-0.1-0.3-0.1-0.5-0.2c-0.1-0.1,0.2-0.1,0.3-0.1
	c0,0-0.2-0.2,0.1-0.2c-0.2-0.2-0.1-0.3-0.1-0.5c0.1-0.1,0.3,0.1,0.4,0c-0.1-0.1-0.3,0-0.4-0.1c-0.1-0.1,0.2-0.1,0.4-0.2
	c-0.1-0.1,0-0.1,0-0.2c0.1,0,0.2,0,0.4-0.1c-0.1,0-0.2,0-0.1-0.1c-0.1-0.1,0,0.1-0.2,0.1c-0.2-0.1,0-0.1,0-0.2
	c-0.1,0-0.2,0.1-0.1,0.1c-0.1,0-0.2,0-0.3,0c0-0.1,0.2-0.1-0.1-0.1c0.2-0.1,0.2,0,0.3,0c0.1-0.1-0.1-0.1-0.2-0.1c0,0,0,0,0,0
	c0.1,0,0.3,0,0.4,0c0,0,0.1,0.1,0.2,0.1c0-0.1,0.1-0.1,0.2-0.1c0.2,0.1-0.1,0.2,0.1,0.3c0,0,0-0.1,0.1-0.1c0,0,0,0,0,0l0,0
	c0,0,0,0,0.1,0c0,0,0,0-0.1,0l0.1-0.2c0,0,0,0,0,0c0,0,0,0,0,0l0.4-1.7c0,0,0,0,0.1,0c0,0,0,0-0.1,0l1.6-6.7l-0.5-2.1h0.2
	c0-0.7-0.1-1.4-0.2-2.1c0.1,0,0.1,0,0.2,0c-0.3-0.1-0.2-0.3-0.2-0.5c0.2,0,0,0.1,0.2,0.1c0-0.1,0.2,0,0.3-0.1
	c-0.1-0.1,0-0.2-0.1-0.3l-0.1-0.1c0,0,0,0.1,0,0.1c-0.1,0-0.1-0.1-0.1-0.1c-0.1,0-0.2,0-0.3,0.1c-0.2-1.2-0.3-2.4,0.5-3.6
	c-0.2-0.7-0.4-1.4-0.2-2.6l0.7-0.3c-0.3-0.9,0.7-2.7,0-3c1.8-0.9,0.4-4.3,0.7-5.8l-0.9-0.1c0.1-1.8-0.2-3.6-0.6-5.5l-0.8,0.5
	c-0.4-0.9,0-2.9,0.3-5.1c-0.7-0.1-1.5-0.2-2.4-0.2c0.4-0.3,1.1-0.2,1.5-0.1c-0.5-0.4-1.3-0.6-2.3-0.6c-0.1-0.2-0.2-0.4-0.3-0.5
	c0.4-0.3,0.2-0.4,0.1-0.6c-1.5,0.1-0.2,0.5-0.3,0.7c-0.1,0.2-0.2,0.4-0.3,0.5c-0.4,0-0.8,0.1-1.1,0.1c-0.1-0.5-0.1-1.1-0.1-1.6
	c0.2-1.4-0.1-2.7-1.8-3.9c0.3-0.1,0.3-0.4,0.5-0.5c-0.4-0.1-0.4-0.2-1.1-0.2c0.4,0.1-0.3,0.1-0.4,0.2c-0.4,0.6,0.4,1.4-0.7,2
	c-0.1-0.1-0.3-0.1-0.6-0.2c-0.4,0.1-0.3,0.4-1.1,0.3c-0.5-0.7-0.3-1.4-1-2.1c-0.2-0.2-0.9-0.4-1-0.6c-0.1-0.1,0.3-0.3,0.1-0.3
	c-0.3-0.3-1.1-0.5-1.4-0.8c-0.3-0.3,0.2-0.5-1.2-0.6c0.3,1.1,1.4,2.1,1.7,3.3c0,0.3,0,0.6,0.1,0.9c0,0.1,0,0.1,0,0.2
	c-0.1,0-0.2,0.5-0.1,1.6c0,0.5-0.1-1-0.1-0.5c0-0.3,0-0.3,0-1c-0.1-0.1,0,1.1,0,1.6c0,0.2-0.1-0.9-0.1-1.2c0,0.5,0,1,0,1.4
	c0,0.4-0.1-0.5-0.1-0.7c-0.1-0.3,0,0.7,0,0.9c0-0.1-0.1-0.5-0.2-1c0-0.6,0-0.4,0-0.8c-0.1-0.6-0.1,0.6,0,1.2
	c-0.1,0.1-0.2,0.2-0.1,1.5c-0.1-0.5-0.1-0.9-0.1-1.3c0-0.3,0.1-0.4,0.1-0.6c-0.1-0.4-0.1-0.8-0.1-1.2c0.2-0.2,0.2-0.4,0-0.5
	c0-0.1,0-0.1,0-0.2c0-0.3-0.1-0.1-0.1,0.2c0,0,0,0,0,0c0-0.3-0.1,0-0.1-0.7c0,0.4,0,0.5,0,0.7c0,0,0,0-0.1,0c0-0.1,0-0.1,0-0.2
	l0-0.3c-0.1-0.6-0.1,0-0.1,0.2c-0.1-0.7-0.1-1.3-0.2-2c0,0.7,0,0.4,0,0.9c-0.1-0.4-0.1-0.8-0.2-1.2c0,0.3,0,0.5,0,0.8
	c-0.1-0.3-0.1-0.6-0.1-1c-0.1,0.4-0.1,0.2-0.2,0.2c-0.1-0.7,0-0.4,0-1.1c-0.1-0.4,0,0.5-0.1-0.2c0,0.3,0,0.5,0,0.8
	c-0.2-0.7-0.3,0.8-0.6,0.3c0,0.2,0,0.4,0.1,0.7c0,0.4,0,0.8,0,0.8c-0.2-1.9-0.2-0.6-0.3-0.1c0-0.1-0.1-0.1-0.1-0.2
	c-0.1-1.9,0.1-1.3,0.1-2.3c-0.1-0.5-0.1,0.6-0.2-0.6l0,0.9c-0.1-0.3-0.1-0.6-0.1-0.8c0,0,0-0.7,0.1-0.3c-0.1-0.7,0-0.4,0-1.1
	c-0.2-1.3,0,1.6-0.2,0.2l0,2.7c-0.1-0.5-0.1-0.9-0.1-1.3c-0.1-0.8-0.1-0.2-0.2-0.4c0,0.4,0.1,0.9,0,1.3c0,0.2,0-0.3,0.1,0.4
	c0,0.4-0.1,0.4-0.1-0.1l0,0.6c-0.1-0.1-0.1-0.1-0.2-0.2c-0.1-0.4,0-0.7-0.1-1.1c0,0.6,0,0.9,0,1.1c-0.1-0.1-0.1-0.1-0.2-0.2
	c0-0.1,0-0.3-0.1-0.5c0,0.1,0,0.3,0,0.4c0,0-0.1-0.1-0.1-0.1c0-0.2,0-0.4,0-0.3c0-0.3-0.1-0.6,0-0.8c0-0.2-0.1-0.2-0.1-0.4
	c0,0.4,0.1,1.4,0,0.9c0,0.2,0,0.3,0.1,0.5c-0.1-0.1-0.1-0.1-0.2-0.2c0-0.8,0-1.5,0.1-1.9c-0.1-1.1-0.1,0.8-0.1,1.5
	c-0.1-1-0.1-0.2-0.2-1.2c0,0.4,0,0.8,0,1.3c-0.1-0.1-0.2-0.2-0.3-0.3c-0.9,0-0.7-0.4-1.7-0.3c-0.6,0.1,0.5,0.3-0.5,0.3
	c-0.6,0.1-0.4-0.1-0.8-0.1c0.3,0.3,0.3,0.5-0.1,0.8c-0.9-0.6-1.5-1.3-2.5-1.7c0.1,0.3,0.6,0.7,0.5,1.1c-0.1,0.1,0.8,0,0.6,0.1
	c1.3,1.1,2.2,2.5,1.2,3.6c0-0.1-0.2-0.1-0.3-0.1c0.1,0.1-0.4,0.2,0.2,0.2c0.1,0,0.1,0,0.1,0c0,0-0.1,0.1-0.1,0.1
	c-0.3,0-0.1-0.1-0.6-0.1c-0.1,0.1,0.2,0.4-0.3,0.5c-0.2-0.4-0.6-0.7-0.3-1.1c0.8-0.1,0.4,0.1,0.8,0.1c0.1-0.3,0-0.3-0.1-0.6
	c-0.8,0.1-0.3,0.3-0.9,0.4c0.2-0.8-1-1.2-1-1.7c-0.1,0.1-0.3,0.1-0.4,0.1c0.3,0,0.2-0.1,0.4-0.1c-0.2-0.2,0.4-0.7-0.9-0.9
	c0-0.1,0-0.2-0.4-0.2c0,0.1-0.1,0.1-0.1,0.2c-0.1,0-0.2,0-0.3,0c-0.2,1.5,1.5,3.2,0.1,4.6c-0.3-0.4,0.1-1-0.9-1.3
	c0,0.1,0.1,0.1-0.2,0.1c0-0.3-0.7-0.5,0.1-0.7c0.1,0.1-0.2,0.2,0.2,0.2c0.2-0.2,0.5-0.7-0.4-0.8c1,0,0.5-0.5,0.3-0.6
	c-0.1,0.1,0.3,0.2-0.4,0.1c0.2-1.5-2.3-2.5-3.6-3.8c-0.4-0.4-0.4-0.7-1.3-1.1c-0.3-0.4-0.4-0.8-1.4-1c0.1,0.3,0.3,0.7,1.1,1
	c0.2,0.7,2.3,1.6,1.6,2.3c-1-0.1-1.2-0.1-1.7,0.1c-1.7-0.3-0.9-0.9-1.8-1.3c-0.1,0-0.1,0-0.1,0c0.1-0.4-0.3-0.8-1.2-1
	c-0.4,0.4-0.1,0.9,0.7,1.2c-0.9,0.4,0.4,0.9,0.6,1.3c0.4,0.9-0.1,1.9,0.3,2.7c0.4,0.8,0.3,1.6-0.1,2.4c-1-2.1,0.6-3.9-2.5-5.4
	c0.5,0.2-0.2,0.6,0.3,0.8c-1,0.1-1.3,0.4-1.5,0.6c-1.1-0.8,0-1.8-2.5-2.3c-0.3,0.4,0.1,0.7-0.8,1c-1.4-0.4-0.3-0.6-1.5-1
	c-0.2,0.6,0.9,1.1-0.8,1.4c-0.1-0.1,0.3-0.3-0.8-0.3c-0.9,0.5,0,1,0.2,1.5c0.1,0.3-0.4,0.6-0.4,0.9c-0.1,0.7,0.5,1.3,0.2,1.8
	c-0.3,0.8,0,1.6,0.2,2.3c0,0.2,0,0.7-0.2-0.3c0,0.6-0.2,0.1-0.3,0c0,0.3,0.1,0.5,0.2,0.8c0,0.3-0.1-0.3-0.1,0.4
	c0.1,0.2,0.1-0.6,0.2,0.1c-0.2-1.2,0-0.6,0.1-0.3c0,0,0,0.1,0,0.1c0,0.1,0,0.1-0.1,0.2c0,0.1-0.1,0.2-0.1,0.4c0-0.1-0.1-0.2-0.1-0.3
	c0,0.2,0,0.3,0,0.5c0,0-0.1,0-0.1,0c0-0.1,0-0.1-0.1-0.2c0,0.1,0,0.2,0,0.2c-0.1,0-0.1,0-0.2,0c-0.3-1.2-0.4-0.2-0.8-1.2
	c0.1,0.7,0.1,1.3,0,0.3c0,0.3,0,0.6,0.1,0.8c0,0,0,0,0,0c-0.1-0.4-0.1-0.8-0.1-1.2c-0.2-0.7,0.2,1.3-0.1,0.3c0.1,1.1,0.1,0.7,0,0.7
	c-0.1-0.4-0.1-0.7-0.1-1.1c0,0.7-0.2,0.2-0.2,1.2c0,0,0,0-0.1,0c-0.1-0.4-0.2-0.8-0.1-0.6c0-0.4-0.1-0.1-0.2-0.7
	c0.1,0.6,0,0.2,0,0.6c0.1,0.2,0.1,0.4,0.1,0.6c0,0,0,0,0,0c-0.1-0.4-0.1-0.7-0.2-1.1c0,0.4,0.1,0.7,0.1,1.1c0,0-0.1,0-0.1,0
	c-0.1-0.6-0.1-1.1,0-1.1c-0.1-0.3-0.1-0.5,0-0.3c-0.2-0.9-0.5-1.8-0.4-0.7c0,0,0,0,0,0c0-0.3,0-0.6-0.1-0.9c0.1,0.9-0.2-0.2-0.3-0.1
	c0,0.3,0.1,0.5,0.1,0.8c0-0.3-0.1-0.5-0.1-0.8c0,0,0,0.2,0,0.6c0-0.2,0-0.4-0.1-0.6c-0.2-0.7-0.1-0.1,0,0.6c0-0.2-0.1-0.3-0.1-0.2
	c0-0.2,0-0.4-0.1-0.6c0,0-0.1-0.1-0.1-0.2c0.1-0.4,0.3-0.7,0.4-1.2c-0.1,0-0.2-0.1-0.2-0.1c0.3,0,0.4,0.1,0.4,0.2
	c0.2,0.1,0.6,0.1,1.1,0.2c-0.2-1.2,1.1-2.7-0.6-3.9c-1.1,0.2-1.5,0.5-2,0.8c-0.1-0.3-0.3-0.6-0.6-0.2c-0.3-0.4-0.5-0.8-0.7-1.1
	c-0.1-0.2,0.2-0.5-1-0.6c-0.3,0.4,1,1.2,0,1.8c-0.4-0.3-0.9-0.6-1.6-0.8c0.3,0.8-0.8,1.8-1.6,2.7c-0.3-0.5,0.3-1.3-0.6-1.8
	c-1.1,0.8-0.7,1.8-1.6,2.6c-0.6-0.9,0-1.8-0.6-2.5c-0.2-0.3-0.6-0.6-1.4-0.7c-0.7,0.3-0.9,0.5-1,0.8c-2.2,0.4-1.6,0.9-1.7,1.4
	c-0.1,0.2-0.6,0.4-0.7,0.7c-0.3,0.9-0.5,1.7-0.3,2.6c0.4,1.5,0.2,3-0.1,4.4c-0.1,0-0.1,0-0.3,0l0.2,0.1c-0.2,1.2-0.4,2.3-0.3,3.5
	c-0.1,0.6-0.1,0.9,0,1.2c0.1,0.2,0.1,0.3,0.1,0.6c-0.1,0-0.2-0.1-0.2-0.1c-0.1,0.1-0.3,0.3-0.5,0.2c-0.2,0.2-0.2,0.6-0.7,0.6
	c0.2,0.1,0.1,0.3,0.4,0.3c0,0,0-0.1-0.1-0.1c0.2,0,0.1,0,0.2,0.1c-0.2,0.1-0.2,0.1-0.2,0.2c-0.1,0.1-0.2,0-0.3,0
	c0,0.1,0,0.1,0.1,0.1c-0.3,0.1-0.1,0.5,0.1,0.8c-0.4,0.3,0.1,0.6,0.4,0.9l-0.1,0c-0.5-0.1-0.5-0.4-0.8-0.6c-0.1,0,0,0.1-0.2,0.1
	c0.5,0.5,0.3,0.7,0.6,1.2c0,0-0.1,0-0.1,0c0-0.2-0.2-0.4-0.5-0.5c-0.1,0.1,0,0.1-0.1,0.2c0.2,0,0.2,0,0.1,0.1c0.1,0,0.2,0,0.3,0
	c-0.1,0.1,0,0.5,0.4,0.4c0.1,0.1-0.3,0-0.1,0.1c-0.1,0-0.1-0.1-0.3-0.1c0,0.1,0.3,0.2,0.4,0.2c0.1,0.1-0.2,0-0.3,0.1
	c0.1,0.1,0.3,0.1,0.4,0.1c0.1,0.1-0.1,0.1-0.2,0c-0.1,0.1,0.2,0.1,0.3,0.1c0,0-0.1,0.1-0.3,0.1c-0.2-0.1-0.1-0.1-0.2-0.2
	c-0.2,0.1,0.1,0.2,0.3,0.2c0,0.2,0,0.3,0.4,0.5c-0.1,0.1-0.2,0-0.4,0c-0.1-0.1-0.1-0.2-0.1-0.3c-0.2,0.1-0.4,0.1-0.5,0
	c-0.1,0.1,0,0.1,0.1,0.1c-0.2,0,0,0.1-0.3,0.1c0.2,0.1,0.2,0.3,0.2,0.5c-0.1,0-0.2-0.1,0-0.2c0,0-0.1,0-0.1,0l-0.1-0.1
	c-0.2,0.1,0,0.2,0.1,0.3c-0.2,0-0.3,0-0.5,0c0.2,0.1,0.1,0.1,0.2,0.2c-0.1,0.1-0.2,0.1-0.3,0.1c0.1,0.1,0.1,0.1,0.2,0.1
	c-0.1,0.1-0.2,0-0.3,0.1c0.1,0.2,0.1,0.3,0,0.5c-0.2,0.1-0.1-0.1-0.3-0.1c-0.1,0.1,0.1,0.2-0.1,0.2c0.1,0,0.1,0.1,0.2,0
	c-0.2,0.4,0.1,0.7,0.1,1.1c0-0.1-0.1-0.2-0.1-0.2c-0.2,0.5-0.3,0.7-0.3,0.9c0,0,0,0-0.1,0l0.1,0c0,0.1,0.1,0.1,0.1,0.1
	c-0.1,0-0.1,0-0.2,0c0-0.1-0.2-0.1-0.1-0.2c-0.2,0-0.1-0.1-0.3-0.1c-0.3,0.1,0.4,0.3,0.1,0.4l0.7,0.4c-0.1,0.1-0.2,0-0.3,0
	c-0.2,0.1-0.1,0.2-0.1,0.3c0.1,0,0.2,0,0.3,0.1c0.1-0.1-0.1-0.1,0.1-0.2c0.1,0.1,0.1,0.2,0,0.3l0,0c-0.2,0.1-0.3,0.2-0.3,0.6
	c0,0,0,0,0,0c0,0,0,0-0.1-0.1c-0.1,0.1,0,0.1,0,0.2c0,0.1,0,0.1,0,0.2c0,0,0,0.1-0.1,0.1c0,0,0.1,0,0.1,0c0,0.1,0.1,0.3,0.2,0.4
	c-0.2-0.1-0.4-0.3-0.5-0.4c-0.3,0,0.2,0.4,0.4,0.4c-0.3,0-0.1,0.2-0.3,0.1c0.2,0.1,0.4,0.3,0.7,0.4c0.1,0.2,0.2,0.4,0.3,0.5
	c0,0,0,0-0.1,0c0,0.1,0.1,0.2,0.2,0.3c0,0,0,0.1,0.1,0.1c0,0,0,0.1-0.1,0.1c0.1,0,0.1,0,0.1,0c0.1,0.2,0.1,0.4,0.2,0.6
	c0,0.1,0,0.1,0,0.2c0,0.1,0,0.2,0,0.2c0,0,0,0,0,0c0,0,0,0,0,0.1c0,0.1,0,0.2,0,0.3c0,0-0.1-0.1-0.1,0c-0.1,0,0,0.1,0.1,0.1
	c0,0.2-0.1,0.4-0.2,0.5c0.3-0.2,0.7-0.5,1-0.2c0,0,0,0,0,0c-0.2,0.1-0.2,0-0.2,0.2c0.2,0.1,0.1-0.2,0.2-0.1c0,0,0,0,0,0
	c0,0,0,0,0,0.1c0,0-0.1,0-0.1,0c0.1,0.1,0.2,0.1,0.3,0.2c0,0,0,0,0,0c0,0.1,0,0.3,0,0.5c-0.1,0-0.1,0-0.2,0c0.2,0,0.2,0.1,0.2,0.2
	c-0.1,0.2-0.1,0.4-0.2,0.6c0,0,0,0-0.1-0.1c-0.1,0.1,0,0.1,0,0.2c0,0,0,0.1,0,0.1c0,0,0-0.1-0.1-0.1c0,0,0,0.1,0,0.1
	c-0.4,0.9-0.8,1.9,0.1,2.5c0,0,0,0,0,0c0,0,0,0,0,0c0,0,0,0,0,0c-0.1,0.1-0.2,0.2-0.3,0.2c0.4,0.9,0.6,2.8,1.4,3.3
	c-1.5,0.4-1.1,1.8-0.7,3.1c-0.8,1.6-1.2,3.4-0.7,4.9c-0.1,1.4,0.3,2,0.8,2.5c-0.1,0.1-0.1,0.2-0.1,0.3c0.2,0,0.2-0.2,0.1-0.3
	c0.1,0.1,0.1,0.1,0.2,0.2c0,0,0,0.1,0,0.1c-0.2,0.3-0.4,0.1-0.5,0c-0.3,1.5-0.4,2.2-0.2,2.9c0,0-0.1,0.1-0.1,0.1c0,0,0.1,0,0.2,0
	c0,0.1,0.1,0.1,0.1,0.2c0,0-0.1,0-0.1-0.1c-0.1,0.1,0,0.2-0.1,0.3c0.1,0,0.1,0,0.2,0c0.1,0.1,0,0.1,0.1,0.2c-0.1,0-0.1-0.1-0.2,0
	l0.2,0.1c-0.1,0.1-0.2,0-0.3,0.1c0,0.3,0.1,0.6,0,0.9l0.1-0.1c0,0.1,0.2,0.2,0.1,0.2c-0.1,0.1-0.1,0-0.2,0c-0.1,0.2,0.1,0.5,0.2,0.6
	c-0.2,0-0.2,0.1-0.1,0.2c0.2-0.1,0.2,0,0.2,0.1c0,0,0,0,0,0c0,0,0,0,0,0c0,0,0,0,0,0c0,0.2,0,0.3-0.1,0.5c-0.1,0-0.1,0-0.2,0
	c-0.1,0.1,0,0.2,0.1,0.2c0.2-0.1,0-0.1,0-0.2c0,0,0.1,0,0.1,0c0,0.1-0.1,0.2-0.1,0.3c0,0,0,0-0.1,0c-0.1-0.1,0-0.2-0.2-0.2
	c0,0.1,0,0.1-0.2,0.2c0.2,0.1,0.1,0.1,0.3,0.2c0.1,0.1-0.1,0.2,0,0.3c0,0,0,0.1,0,0.1c-0.1,0.1-0.1,0.2-0.1,0.3c0,0.1,0,0.2-0.1,0.3
	c0,0,0,0,0,0c0,0,0,0.1,0,0.1c0,0,0,0-0.1,0c-0.1,0.1,0,0.2,0,0.2c-0.1,0.4-0.1,0.8-0.1,1.2c0,0,0,0,0,0c0,0,0,0,0,0
	c0,0.5,0.1,1.1,0.3,1.6c-0.1,0-0.1-0.1-0.2-0.1c0,0,0,0.1-0.1,0.1c0,0-0.1-0.1-0.1-0.1c0,0.1,0,0.1,0.1,0.2c0,0,0,0.1-0.1,0.1
	c0,0,0.1,0,0.1,0c0,0.1,0,0.2,0.1,0.3c0,0,0,0,0,0c0,0,0,0,0,0c0,0.1,0,0.3,0,0.4c0,0,0,0,0,0c0,0,0,0,0,0c0,0.1,0,0.1,0,0.2
	c0-0.1-0.1-0.1-0.3-0.1c-0.1,0,0,0.1-0.1,0.1c0.3,0,0.1,0.2-0.1,0.3c0.2-0.1,0.2,0.1,0.5,0c0,0.1,0,0.1,0,0.2c-0.1,0,0-0.2-0.2,0
	c-0.2,0,0.1-0.1-0.1-0.1c-0.1,0.1-0.1,0-0.2,0.1c0.3,0.1,0.1,0.2-0.1,0.2c0.4,0,0.1,0.3,0.2,0.4c0.2,0,0.1,0,0.2-0.1
	c0.1,0,0.1,0.1,0.1,0.1c0,0.1-0.1,0.3-0.1,0.4c0,0,0,0,0,0c0-0.1-0.1-0.2,0-0.4c-0.1,0-0.2,0-0.3,0c0.1,0,0,0.1,0,0.1
	c0.1,0,0.1,0,0.2,0c-0.2,0.1-0.1,0.4,0.1,0.5c0,0,0,0,0,0.1c-0.3,0-0.1,0.2-0.4,0.2c0.1,0,0.1,0.1,0,0.1c0.2,0,0-0.1,0.2-0.1
	c0.1,0,0.1,0,0.1,0c0,0,0,0.1,0,0.1c-0.1,0-0.1,0.1,0,0.1c-0.1,0.2-0.1,0.4-0.2,0.7c-0.1,0-0.2,0-0.3,0c0.2,0,0.1,0,0.2,0.1
	c0.1,0,0.1-0.1,0.1-0.1c-0.1,0.2-0.1,0.4-0.1,0.7c-0.1,0-0.1,0-0.2,0c0,0,0,0.1,0.1,0.1c0.1-0.1,0.1-0.1,0.1-0.1
	c-0.1,0.4-0.1,0.7-0.1,1c0,0,0,0.1-0.1,0.1c0,0,0.1,0,0.1,0c0,0.3,0.2,0.6,0.4,0.9c0,0.1,0.1,0.1,0,0.2c0.2,0,0.2-0.1,0.1-0.1
	c0.1,0.1,0.3,0.2,0.5,0.3c0,0,0,0,0,0c0.3,0.1,0,0.3-0.2,0.5c0.2,0.1-0.1,0.5,0.1,0.7c0.2,0,0.1-0.1,0.1-0.2c0.2,0,0.2,0.3,0.2,0.4
	c-0.2,0,0-0.1-0.2-0.1c-0.1,0.1-0.2,0.1-0.3,0.1c0.1,0.1,0.3,0.2,0.5,0.2c0.1,0.1-0.2,0.1-0.3,0.2c0,0.1,0.2,0.2-0.1,0.2
	c0.2,0.2,0.2,0.4,0.1,0.5c-0.1,0.1-0.3-0.1-0.4,0c0.1,0.1,0.3,0,0.4,0.1c0.1,0.1-0.2,0.1-0.4,0.2c0.1,0.1,0,0.1,0,0.2
	c-0.1,0-0.2,0-0.4,0.1c0.1,0,0.2,0,0.1,0.1c0.1,0.1,0-0.1,0.2-0.1c0.2,0.1,0,0.1,0,0.2c0.1,0.1,0.2-0.1,0.1-0.1c0.1,0,0.2,0,0.3,0
	c0,0.1-0.2,0.1,0.1,0.1c-0.2,0.1-0.2,0-0.3,0c-0.1,0.1,0.1,0.1,0.2,0.1c0,0.1,0,0.2,0,0.3c0.1,0,0.2,0.1,0.2,0.1
	C96.9,215.6,96.7,215.6,96.8,215.5z M158,228.9C158,228.9,158,228.9,158,228.9c0,0,0,0.1,0,0.1c0,0,0,0,0,0c0,0,0,0,0,0
	c0,0,0,0.1,0,0.1c0,0-0.1,0-0.1,0C157.9,229.1,158,229,158,228.9z M157.6,227.1l-0.2-0.1l0.1-0.1C157.8,227,157.7,227,157.6,227.1z
	 M157.4,226.9c0-0.1-0.1-0.2,0.1-0.3C157.7,226.7,157.7,226.8,157.4,226.9z M157.4,226.3c0.2,0.1,0.2,0.3,0,0.3
	C157.6,226.5,157.3,226.4,157.4,226.3z M157,222.1c0.2,0.1,0.1,0.2,0,0.2C156.9,222.3,157.1,222.2,157,222.1z M156.7,219.8
	c0.1-0.1-0.2-0.1-0.1-0.2C156.7,219.6,157,219.9,156.7,219.8z M156.8,219.4c0.1,0.1,0.1,0.1,0,0.2c-0.2,0-0.1-0.1-0.3-0.2
	C156.6,219.3,156.7,219.4,156.8,219.4z M156.7,215.2c-0.2,0.1,0,0.2-0.3,0.2C156.5,215.4,156.5,215.2,156.7,215.2z M156.7,217
	c-0.1,0.1,0,0.2-0.2,0.2C156.7,217.1,156.4,217,156.7,217z M156.5,216.3c0.1,0.1,0.1,0.1,0.3,0.2c-0.1,0.1,0,0.1-0.2,0.2
	c-0.2-0.1-0.2-0.2-0.2-0.3L156.5,216.3z M156.6,210.1c0,0.1,0.1,0.1-0.1,0.2C156.3,210.3,156.4,210.1,156.6,210.1z M156.6,207.4
	C156.5,207.5,156.7,207.4,156.6,207.4c-0.1,0,0,0.1-0.1,0.2C156.3,207.5,156.4,207.4,156.6,207.4z M157.4,200.8
	C157.4,200.8,157.3,200.7,157.4,200.8l0.2,0C157.5,200.9,157.4,200.9,157.4,200.8C157.3,200.8,157.4,200.8,157.4,200.8z M157,198
	l-0.1,0.1c0,0,0-0.1-0.1-0.1C156.9,198,157,198,157,198z M158,193C158,193,158,193,158,193c-0.1,0.1-0.2,0.1-0.2,0
	C157.9,193,157.9,193,158,193z M156.3,202.5c-0.1-0.1-0.1-0.1,0-0.2c0,0,0.1,0,0.1,0C156.5,202.4,156.5,202.4,156.3,202.5z
	 M156.4,201.6c0.1,0.1,0.2,0.1,0.2,0.1c-0.1,0-0.1,0.1-0.1,0.1c0.1,0,0.1,0,0.2,0c0,0.1-0.2,0.1-0.4,0.1
	C156.3,201.8,156.3,201.7,156.4,201.6z M156.4,201.1c-0.1-0.1,0-0.2,0.1-0.1C156.4,201,156.7,201.1,156.4,201.1z M156.9,200.7
	c0.1-0.1,0.1-0.1-0.1-0.2c0.3-0.1,0.3,0.1,0.3,0.1C157,200.6,156.9,200.7,156.9,200.7z M156.8,199.9c0.1,0.1,0.3,0.2,0.1,0.3
	C156.8,200.1,156.8,200,156.8,199.9z M156.6,200.1C156.7,200.1,156.7,200.2,156.6,200.1L156.6,200.1z M156.6,200.3
	c0.2,0,0.3,0.1,0.5,0.1C156.9,200.4,156.7,200.3,156.6,200.3L156.6,200.3z M156.6,200.4c0,0,0.1,0,0.1,0c0,0-0.1,0.1-0.2,0.1
	L156.6,200.4z M157,196.2C157,196.2,157,196.2,157,196.2C156.9,196.2,157,196.2,157,196.2C157,196.2,157,196.2,157,196.2z
	 M156.8,195c-0.1,0.1,0.1,0.1-0.1,0.2C156.5,195.1,156.6,195,156.8,195z M156.4,195c0,0.1,0.2,0.1,0.1,0.2
	C156.3,195.1,156.4,195.1,156.4,195z M156.4,195.2c0.2,0.2,0.9,0.1,0.7,0.2c-0.1,0-0.2-0.1-0.4-0.1c0.1,0.1,0,0.1-0.1,0.1
	C156.4,195.4,156.2,195.3,156.4,195.2z M156.4,195.6c0.1,0.1,0.2,0.1,0,0.1C156.3,195.7,156.2,195.7,156.4,195.6z M156.3,198.7
	c0,0,0.2,0.1,0.1,0.2c0.1,0,0.1,0,0.1,0l0,0C156.3,198.9,156.1,198.8,156.3,198.7z M156.1,205.6c-0.2-0.1-0.2-0.2-0.1-0.3
	C156.3,205.4,156.1,205.5,156.1,205.6z M156,205.3c0.1,0,0-0.1,0.1-0.1c0.1,0,0.1,0,0.2,0c0,0,0,0,0,0.1
	C156.2,205.3,156.1,205.3,156,205.3z M156.3,203.8c-0.2-0.1-0.1-0.2,0-0.4c0.1,0.1,0.2,0,0.3,0.1c-0.1,0.1,0,0.2-0.1,0.3
	C156.4,203.8,156.3,203.8,156.3,203.8z M156.3,204.5c-0.2-0.1-0.2-0.2,0-0.2C156.4,204.3,156.3,204.4,156.3,204.5z M156,203.4
	C156,203.4,156.1,203.4,156,203.4c0.2,0,0.4-0.2,0.6-0.1C156.4,203.5,156.2,203.5,156,203.4z M156.4,205c0.1,0.1,0.1,0.2-0.1,0.2
	C156.4,205.1,156.2,205.1,156.4,205z M156.6,205.7c-0.3,0-0.3-0.2-0.2-0.3C156.6,205.5,156.7,205.6,156.6,205.7z M156.7,204.9
	c-0.2-0.1,0-0.1-0.1-0.2c0,0-0.1,0-0.1,0c0.1,0,0.1,0,0.2,0C156.7,204.8,156.8,204.8,156.7,204.9z M156.9,204c-0.1,0-0.1,0-0.2,0.1
	C156.8,204,156.8,204,156.9,204c-0.2,0.2-0.3,0.1-0.4,0.1c0,0,0.1-0.1,0.1-0.1c-0.1,0-0.1,0-0.2,0l0.1-0.1
	C156.8,203.9,156.7,203.9,156.9,204z M156.7,203.6c0-0.1-0.1-0.2,0-0.3c0,0.1,0.1,0.1,0.1,0.2C156.8,203.5,156.7,203.5,156.7,203.6
	C156.7,203.6,156.8,203.6,156.7,203.6z M156.8,202.9c-0.1,0.1,0.1,0.3-0.2,0.3c0.1-0.1,0-0.1,0-0.2c-0.1,0-0.1,0.1-0.1,0.1
	c-0.1-0.1-0.1-0.1-0.3-0.1C156.4,203,156.6,202.9,156.8,202.9z M155.8,195.4C155.8,195.4,155.8,195.4,155.8,195.4
	c0.1,0,0.4,0,0.3,0.1c-0.1,0-0.2,0.1-0.3,0C155.8,195.5,155.8,195.5,155.8,195.4L155.8,195.4z M155.8,206c0,0.1,0.1,0.2,0.2,0.2
	c-0.1,0-0.1,0-0.2,0.1C155.6,206.2,155.6,206.1,155.8,206z M151.1,149.4c1.1,0.7,0.7,1.6,0.4,2.3c1.1,0.4,1.9,1,0.2,1.4
	c-0.2,0.3-0.2,0.6-0.1,0.8c-0.3,0.1-0.6,0.1-0.8,0.1c0.1-0.1,0.3-0.1,0.3-0.1c0-0.1-0.1-0.3-0.3-0.5c-0.3-0.4-0.3-0.7-0.5-1.1
	c-0.1-0.1,0.6-0.1,0.6-0.2c-0.9-0.4,0-0.7,0.3-1.2c0.1-0.1-1-0.1-1-0.2C151,150.4,151.4,149.8,151.1,149.4z M150.1,150.5
	c-0.4,0-0.1-0.1-0.2-0.1C150.2,150.3,150.4,150.5,150.1,150.5z M146.5,149.8c0,0,0.1,0,0.2,0c-0.1,0.1-0.1,0.3-0.2,0.8
	c0-0.2,0-0.3,0-0.5C146.5,150,146.5,149.9,146.5,149.8z M145.4,150.2c0.1,0.7,0.1,0.8,0.2,1.7c0-0.6-0.1-1.3-0.1-1.9
	c0.1,0.4,0.2,1.9,0.2,2.8c-0.1-0.4-0.1-0.4-0.1-0.3c-0.1-0.4-0.2-0.9-0.3-1.3c0-0.2,0-0.4,0-0.7C145.4,151,145.4,150.6,145.4,150.2z
	 M145.4,149C145.4,149,145.3,149,145.4,149L145.4,149C145.3,148.7,145.3,148.6,145.4,149z M145.2,149.9
	C145.3,150.2,145.3,150.2,145.2,149.9C145.3,149.9,145.3,149.9,145.2,149.9c0.1,0.5,0.1,1,0,0.5
	C145.2,150.2,145.2,150.1,145.2,149.9C145.2,149.9,145.2,149.9,145.2,149.9z M113.5,153.1C113.5,153.1,113.5,153.1,113.5,153.1
	c0-0.1-0.1-0.3-0.1-0.6C113.5,152.7,113.5,152.9,113.5,153.1z M113.3,151.2c0,0,0,0.1,0,0.1C113.3,151.3,113.3,151.3,113.3,151.2
	C113.3,151.2,113.3,151.2,113.3,151.2z M112.8,150.9c-0.1,0-0.1,0-0.2,0C112.7,150.7,112.7,150.6,112.8,150.9z M95.2,171.9
	C95.3,171.9,95.3,171.9,95.2,171.9c0.1,0.1,0.1,0.1,0.1,0.2C95.3,172.1,95.2,172,95.2,171.9z M95.4,168.4c0,0,0.1,0,0.1,0
	c0.1,0.1,0.2,0.1,0.2,0.1c0,0,0,0,0,0.1c-0.1,0-0.1,0-0.2,0.1C95.4,168.5,95.4,168.5,95.4,168.4z M95.7,169.2
	C95.7,169.2,95.7,169.2,95.7,169.2C95.7,169.2,95.7,169.2,95.7,169.2C95.7,169.2,95.7,169.2,95.7,169.2z M96.4,166.4
	c-0.1,0-0.1,0-0.2-0.1c0.1-0.1,0.1-0.1,0-0.1C96.4,166.2,96.6,166.4,96.4,166.4z M96.8,166.5c-0.1-0.2-0.1-0.2-0.4-0.3
	c0.2-0.1,0.1-0.1,0-0.2c0.2-0.1,0.2-0.1,0.4-0.1c-0.2-0.1-0.3-0.1-0.5,0c0.1-0.2,0.5-0.2,0.7,0c-0.3,0.2,0.2,0.4,0.1,0.5
	c-0.2,0.1-0.1-0.1-0.3-0.1C97,166.3,97,166.5,96.8,166.5z M97.1,167.2c-0.1-0.1-0.2-0.2-0.1-0.3C97.1,167,97.2,167.1,97.1,167.2
	C97.1,167.2,97.1,167.2,97.1,167.2z M97.1,166.6c-0.1-0.1-0.1-0.1,0-0.2C97.2,166.4,97.3,166.5,97.1,166.6z M97.1,197.9
	c0.1,0.1,0,0.3-0.2,0.2c0.1-0.1-0.1,0,0-0.1C97,198,97,197.9,97.1,197.9z M97.3,198.4c0,0.1,0,0.1-0.1,0.2l-0.3,0.1c0,0,0,0-0.1,0
	C97.1,198.6,97.1,198.6,97.3,198.4z M96.9,198.7c0,0,0,0.1,0,0.1c0,0,0,0,0,0C96.9,198.8,96.9,198.8,96.9,198.7z M96.2,206.6
	C96.2,206.6,96.3,206.6,96.2,206.6l-0.2,0C96.1,206.5,96.2,206.5,96.2,206.6C96.2,206.5,96.1,206.6,96.2,206.6z"/>
<path fill="#B5BE34" d="M115.2,225"/>
<path fill="#B5BE34" d="M115.5,222.8c-0.1-0.8,0-1.2-0.2-2.1c0.4-0.6,0.4,0.8,1-1.5c0-1.6,0.1-1.5,0-2.7c-0.1,1.1,0,2.2-0.4,3.2
	c-0.3-0.1-0.5-0.9-0.8-0.4c0,0.7,0,1.3-0.1,2c0.1,0.4,0.2,0.4,0.3,0.5c-0.1,0.9-0.3,1.4-0.4,1.8c0-0.5,0-0.9,0.1-1.3
	c-0.2-1-0.2,1.8-0.4,1.1c0.1-1,0.3-1.9,0.3-2.9c-0.5,2.3-0.9-0.3-1.4,2c0-0.8,0.2-1.5,0.1-2.3c-0.2,0.7-0.3-0.3-0.6,1.4
	c0.1,0.7,0,1.3,0,2c-0.3,0.7-0.4,0-0.7,1c0-1.3,0.5-3.6,0.5-1.8c0-1,0.2-1.9,0.2-2.9c-0.4,2.2-0.5,1.2-1,2.5c0,1.4,0.3-0.5,0.3,0.5
	c-0.1,1.6-0.3,0.1-0.5,1.4c0-0.6,0.1-1.1,0-1.7c-0.4,3.4-0.5-0.3-0.9,1.3c0.1-2.4,0.5-1.6,0.6-3c0-0.3-0.1,0.1-0.2,0.3
	c-0.1-0.7,0.2-1.2,0.1-2c-0.2,0.9-0.4-0.2-0.4,1.5c-0.3,1.3-0.2-0.8-0.4-0.2c0-0.9,0.2-2,0.3-1.2c0.2-2.2-0.7,1.6-0.5-1.5l-0.4,1.8
	c0.1,0.6,0,1.1,0,1.7c-0.2,0.7-0.1-0.5-0.1-1.4c-0.5,2.4-0.5-0.1-0.9-1.4c-0.4,1.7-0.7-1.1-1.3,0.1c-0.1,1.5,0.1,0.4,0.2,1.1
	c-0.2,1.7-0.6,1.1-0.8,1c0.1-1.6,0.3,0.1,0.4-1.5c-0.1-0.8-0.1-1.3-0.1-2c-0.1,0.6-0.5,2.5-0.8,3.6c-0.2,0.4,0-1.7-0.1-2.4
	c-0.1-0.3-0.6,1.5-0.4-0.5c-0.5,1.6-0.8,1-1.1,0.5c-0.1-1,0.3-1.8,0.2-2.9c-0.3,0.8-0.1,2-0.4,2.8c-0.3,0.9-0.1-1.7-0.1-2.7
	c-0.2,0.6-0.2-0.4-0.3-0.2c0.1-0.8,0.2-1.7,0.1-2.6c-0.1,0.5-0.2,1.3-0.2,0.9c-0.2,0.9,0.1,0.2,0,1.4c-0.2,1.1-0.2,0-0.3-0.2
	c-0.2,0.8,0.1,1.2,0.1,1.1c-0.1,0.8-0.2,1.5-0.3,2.2c-0.2,0-0.1-1.2-0.3,0.5c0-1.5,0.2-1.1,0.3-2.2c-0.1-0.9-0.2,0.7-0.4,1.5
	c-0.3,0.4-0.4-0.4-0.6-0.3c0.1-1,0.3-1.9,0.4-2.8c-0.1-0.6-0.1-3.2-0.4-2.2c0-2,0.1-3.1-0.3-3.5c0.1,0.7,0.2,0.8,0.1,2
	c-0.2,0.9-0.3,0.3-0.4,0.1c-0.1,0.6-0.1,1.3-0.3,1.9c0.2-0.1,0.3,1.8,0.5,0.2c0,0.8-0.1,1.5-0.3,2.2c-0.2,0.1,0.1-1.8-0.3,0.2
	c-0.1-0.7,0.2-1.2,0.1-1.9c-0.2,1.9-0.4,1.8-0.5,0.8c-0.2,1.2-0.1,1.5,0,1.4c-0.1,0.6-0.2,0.2-0.3,0.9c0-0.8-0.2-1.6,0-2.3
	c-0.1-0.2-0.5,1.6-0.3-0.5c-0.1-0.7-0.5,2.7-0.6,1.7c0-0.6,0.2-1,0.3-1.5c-0.2-0.3-0.4-2.2-0.7-0.3c-0.1,0.2-0.3-0.5,0-1.3
	c-0.4,0.1-1.1,1.9-1.6,5.6c-0.1,0.1-0.2-0.3-0.3,0.2c-0.1-1.1,0.4-2.1,0.2-3.2c0.3-1.2,0.2-0.3,0.4,0.2c0.3-1,0.5-2,0.4-3.2
	c-0.1,0.3,0,0.6-0.1,1c-0.2,0.5-0.4,1.2-0.4,0.1c0-0.9,0.1-0.1,0.3-1.2c0-1.4-0.3,0.8-0.3-0.8c-0.4,3.1-0.7,0.7-0.8-1
	c-0.1,0.6-0.3,1.5-0.4,2.2l0.1,0.2c0,0-0.1,0-0.1,0c0,0.1,0,0.1,0,0.2c0,0,0,0,0,0.1c0,0.4,0,0.7,0.1,0.8c0-0.4,0-0.7,0.1-0.9
	c-0.1-0.1-0.1-0.1,0-0.2c0,0,0,0,0,0l0,0.1c0.1-0.3,0.2,0.1,0.2,0.4c0,0.6-0.1,0.6-0.2,0.3c-0.1,1.5,0.5,0.6,0.7,1.3
	c-0.4,0.8-0.8,0.9-1.2,0.8c0,0,0,0-0.1,0l-0.1,0c0,0,0,0,0,0c-0.1,0-0.2-0.1-0.2-0.1c0,0,0,0,0,0.1c-0.1,0-0.3-0.1-0.4-0.1
	c-0.1,0.1-0.4,0.2-0.3,0.3c-0.3,0.1-0.4,0.1-0.5,0.3c0.1-0.1,0.1-0.1,0.3-0.1c0.1,0.1,0.1,0.1,0,0.2c0.1,0,0.2,0,0.3,0
	c0-0.1,0.2-0.3,0-0.3c0.1,0,0.2,0,0.3,0c0,0.1-0.2,0.1,0,0.2c-0.1,0.1-0.2-0.1-0.3,0c0.3,0,0.2,0.1,0.1,0.2c0.2,0.1,0.2,0,0.2-0.1
	c0.1,0,0,0.1,0.1,0.1c-0.1,0-0.2,0.2-0.3,0.1c0,0,0.2,0.2-0.1,0.2c-0.1,0.1,0.4,0.1,0.2,0.2c-0.1,0-0.1,0-0.2-0.1
	c0,0.1-0.3,0.3,0,0.4c0,0-0.1,0.2-0.2,0.1c0,0.2,0.3,0.5,0.8,0.6c0,0.1,0,0.1,0,0.2c-0.2,0.1-0.3-0.1-0.4,0c-0.2-0.1,0-0.1,0-0.2
	c-0.1-0.1-0.3-0.1-0.4-0.1c0,0,0.1,0,0.1,0c0.1,0.1,0.2,0.1,0,0.2c-0.1,0.1,0-0.1-0.2-0.1c-0.2,0.1,0.1,0.1-0.1,0.2
	c0.4,0,0.1,0.3-0.1,0.5c0.2,0.1,0.4,0.1,0.5,0c-0.2,0-0.1-0.1-0.1-0.1c0.1,0,0.1,0,0,0.1c0.2,0,0.1-0.3,0.2-0.4c0.3,0.4,0,1,0.1,1.4
	c-0.1,0-0.1,0-0.2-0.1c-0.1,0.1-0.1,0.1,0.1,0.2c-0.3,0,0,0.1-0.2,0.2c-0.1,0.1-0.2-0.2-0.3,0c0.3,0.1,0.1,0.1,0,0.3
	c0.2,0.1,0.4,0.2,0.1,0.3c0.2,0.1,0,0.2,0.2,0.2c-0.6,0.2-0.2,0.7-0.5,1.1c0.2,0,0.3,0.1,0.1,0.1c0.1,0.1,0.2,0.1,0.3,0.1
	c0,0,0,0.1,0,0.1c-0.1,0-0.3,0-0.4-0.1c-0.2,0.1,0.4,0,0.1,0.2c0.3,0,0.2,0.1,0.2,0.2c-0.1,0-0.2,0-0.3-0.1c0.2,0.2,0,0.6,0.5,0.8
	c0.1,0.1-0.1,0.1-0.1,0.2c-0.1,0.1-0.3-0.1-0.4,0c0.1,0.1,0.2,0.1,0.3,0.1c-0.1,0.1,0.1,0.1,0.2,0.2c-0.2,0.1-0.5-0.1-0.5-0.2
	c-0.1,0-0.1,0-0.1,0c-0.3,0.2-0.6,0.4-0.1,0.6c-0.1,0.1-0.2-0.1-0.3,0c0.2,0.1-0.1,0.3,0,0.5c0.1,0,0.1,0,0.2,0.1
	c-0.1,0-0.1,0-0.2,0c0,0.1,0.1,0,0.2,0.1c-0.1,0-0.1,0-0.2,0c-0.2,0.1,0,0.2,0.2,0.2c-0.1,0-0.1,0-0.1,0.1c-0.1,0-0.1,0-0.2-0.1
	c0,0.2-0.4,0.6-0.1,0.7c-0.3,0.2,0.1,0.2-0.1,0.3c0.3,0.1,0.3,0.2,0.4,0.4c0.1-0.1,0.1-0.1,0.1-0.2c0.1,0.1-0.1,0.1,0,0.2
	c-0.1,0-0.1,0-0.2-0.1c0,0.2-0.2,0.3-0.3,0.4c-0.1,0-0.1,0-0.2-0.1c0,0.1-0.1,0.1,0,0.2c0.5,0.1-0.2,0.5,0,0.8
	c0.1-0.3,0.2-0.6,0.3-0.8c0.1,0.1,0,0.2,0,0.3c0.2,0,0.1-0.1,0.1-0.2l0.2,0.2c-0.1,0-0.1,0-0.2,0.1c0.1,0.2,0.5,0.2,0.3,0.4
	c-0.2,0-0.2-0.2-0.3-0.2c-0.1,0-0.2,0.1-0.3,0c0.1,0.1,0.6,0.2,0.4,0.4c-0.1,0-0.2,0-0.3-0.1c-0.2,0.1,0.4,0.2,0.2,0.3
	c-0.1,0.1-0.2-0.1-0.4,0c0,0,0.1,0,0.1,0c0.1,0,0,0.1,0.3,0.1c0,0-0.1,0.2,0.1,0.2c0,0.1,0.1,0.1-0.1,0.2c-0.2,0-0.3-0.2-0.5-0.1
	c0,0.1,0.1,0.2,0.2,0.2c-0.1,0.1-0.2,0-0.3,0.1c0,0.1,0,0.3,0,0.4c-0.1,0,0-0.1-0.2-0.1c-0.2,0.2,0.4,0.2,0.1,0.4
	c0,0.1,0.3,0.1,0.2,0.2c0.1,0.1,0-0.1,0.2-0.1l0.1,0.1c-0.2,0.1,0,0.3-0.2,0.4c-0.2,0-0.2-0.2,0-0.3c-0.1-0.1-0.2-0.1-0.2-0.2
	c0,0.1-0.3,0.3,0,0.4c-0.1,0.1-0.3,0-0.4,0.1c0.3,0.1,0.2,0.4,0.2,0.6c-0.2,0,0-0.1-0.2-0.1c0,0.1-0.2,0-0.3,0.1
	c0.1,0.1,0,0.3,0.1,0.4c-0.3,0.2,0,0.2,0.3,0.5c0-0.1-0.1-0.2,0-0.3c-0.1-0.1-0.1,0-0.2,0c-0.1-0.1-0.1-0.1,0-0.2
	c0.1-0.1,0.1,0.1,0.1,0.1c0.1,0,0.6-0.2,0.3-0.4c0.3-0.1,0.3-0.3,0.2-0.5c0.1-0.1,0.2,0,0.1-0.1c0.3-0.2,0.4-0.5,0.3-0.7
	c0.3,0,0.1-0.3,0.4-0.2c-0.1,0-0.1-0.1-0.1-0.2c-0.1,0,0,0.1-0.1,0.1c0-0.1,0-0.1-0.1-0.1c0.1,0,0.1,0,0.2,0
	c0.1-0.1,0.1-0.1,0.2-0.2c-0.1,0-0.1,0-0.2-0.1c0.1-0.1,0.2-0.1,0.1-0.2c0.1,0,0.2-0.1,0.1-0.1c0.1-0.1,0.2,0.1,0.3,0
	c-0.3-0.1-0.1-0.5,0.1-0.6c0.1-0.1-0.1,0-0.2-0.1c0,0,0,0,0-0.1c0.1-0.1,0.2,0,0.3-0.1c-0.2-0.2,0-0.4,0.1-0.6
	c0,0.5-0.1,1.1-0.1,1.6c-0.1,0.1,0,0.2-0.3,0.2c0.1,0.1,0.2-0.1,0.3,0.1c0,0,0,0,0,0c0,0.3,0,0.6-0.1,1c-0.1,0-0.2,0-0.3,0
	c-0.1-0.1,0.1-0.2-0.1-0.2c-0.1,0.1,0.1,0.1-0.1,0.2c0.3,0.1,0,0.2,0.2,0.3c0.1-0.1,0-0.2,0.2-0.3c0,0.1,0,0.3,0,0.4l0.2-0.1
	c0,0.2-0.1,0.3-0.4,0.5c-0.1-0.1-0.2-0.2-0.3-0.3c0,0.2,0.3,0.5,0,0.6c0.2,0,0.4,0.1,0.6,0.1c0,0.3,0.2,0.7,0.5,0.9
	c-0.1,0-0.2,0-0.2,0.1c-0.2,0-0.1,0-0.2-0.1c0,0.1-0.1,0.2,0,0.3c-0.1,0.1-0.2,0-0.4,0c-0.1-0.1-0.2-0.2-0.2-0.1l0.1,0.9l0.1-0.2
	c0.1,0.2,0.3,0.3,0.4,0.5c-0.1,0.1-0.1,0.1-0.2,0.2c0.1,0,0.2,0.1,0.3,0.1c0.1-0.1,0.1-0.1,0.1-0.1c0,0,0.1,0.1,0.1,0.1
	c0,0,0,0.1-0.1,0.1c0.2,0,0.1,0.1,0.3,0.2c0,0,0,0,0,0c-0.1,0.1-0.3,0-0.4,0.1c0.1,0.1-0.1,0.3-0.2,0.3c0.1,0.1,0,0.1,0,0.2
	c0.1,0.1,0.3-0.4,0.3,0.3c0,0,0.1,0,0.1,0c-0.1,0-0.1,0-0.1,0c0,0,0,0,0,0c0,0,0,0,0,0c0,0,0.1,0.1,0,0.1c0,0,0,0-0.1,0
	c0,0.1-0.1,0.1-0.1,0.2c0,0,0.1,0.1,0.1,0.1c-0.1,0.1-0.1,0-0.2,0c0,0-0.1,0.1-0.1,0.1c0,0,0,0.1-0.1,0.1c0.1,0.1,0.2,0,0.2,0.1
	c-0.2,0.1-0.3-0.1-0.4-0.1c-0.1-0.1,0.3-0.1,0.1-0.2c-0.2,0-0.2,0.2-0.1,0.3c-0.1,0.1-0.2,0-0.3,0.1c0.1,0.1,0.3,0.4,0.1,0.4
	c-0.1,0,0.1,0,0.1,0c0,0.1,0.1,0.2-0.2,0.3c0.2,0.1,0,0.1,0.2,0.2c-0.1-0.1,0.3-0.2,0.1-0.3c0.1,0,0.2,0,0.3,0c0,0,0-0.1,0.1-0.1
	c0,0,0,0,0-0.1c0,0,0-0.1,0-0.1c0,0,0,0,0,0c0,0,0,0,0,0c0.2-0.3,0.3-0.6,0.4-0.7c0,0.1-0.1,0.3-0.1,0.4c0.1,0,0.3,0,0.2,0.1
	c0,0,0,0,0-0.1c-0.1,0.2-0.2,0.3-0.2,0.4c-0.1,0-0.1-0.1-0.1-0.1c-0.1,0.3-0.2,0.7-0.2,1.1c0.3-0.8,0.4-0.4,0.6-1.4
	c0-0.4-0.2-0.2,0-1c0.1,1.2,0.7-0.8,0.5,1.2c-0.1-1-0.7,1.3-0.7,3c0.3-2.3,0.7-0.8,0.6,0.3c-0.1-0.1-0.2-0.4-0.4-0.4
	c0.3,0.8,0,2,0.8,0.8c0-0.2,0-0.3,0.1-0.5c0.1,0.2,0.2,0,0.4,0.2c-0.3,1-0.4,2.3-0.5,1.8c0.1-0.4,0.1-0.9,0.1-1.3
	c-0.2,0.4-0.3,0.8-0.4,1.3c-0.3,0.2-0.5,0.6-0.6,1c0.1,0.1,0.2,0.3,0.1,0.5c0.1,0.1,0.1,0.1,0.2,0.1c0,0.1,0,0.1,0,0.2
	c0.1,0,0.2,0,0.2,0c0,0.1,0.1,0.2,0.1,0.3c0.1-0.2,0.2-0.1,0.3-0.3c0.1,0,0.1,0,0.2,0c0,0.1,0,0.2,0,0.2c0.1,0,0.1,0,0.1-0.1
	c0.1,0.2,0.3,0.1,0.5,0c0-0.2,0.1-0.4,0.1-0.6c0,0.3,0,0.5,0,0.6c0.1,0.1,0.2,0.1,0.4-0.1c0.1,0,0.1,0,0.2,0
	c-0.1,0.2-0.3,0.2-0.3,0.4c0,0.1,0.1,0,0.1,0.2c0.2-0.2,0.3-0.2,0.4-0.3c0-0.4,0-1,0.1-1.4c-0.5,1.4-0.9,0.5-0.9-2
	c0.2,1.6,0.7,0.9,1.1-0.2c-0.1,0.8-0.2,1.7-0.2,2.6c0.2-1.4,0.2-1.5,0.4-1.5c0,0.6-0.1,1.1-0.1,1.6c0.3-1.7,0.1-0.5,0.3-0.5
	c0-1.4,0.3-1.5,0.3-0.5c-0.1,1.1-0.3,0.8-0.5,2c0.1,0,0.1-0.1,0.1-0.3c0,0,0,0,0,0c0,0.1,0,0.1,0.1,0.1c0,0.1-0.1,0.1-0.1,0.2
	c0.1,0,0.1-0.2,0.1-0.3c0,0,0,0,0,0c0,0.1,0,0.2,0,0.2c0.1-0.1,0.1-0.1,0.1-0.2c0,0,0,0,0.1,0c0-0.2,0-0.5,0.1-1.3
	c-0.1,1.6,0.5-0.7,0.2,1.1c0,0.1-0.1,0.1-0.1,0.2c0,0,0,0,0,0c-0.1,0.1-0.1,0.1-0.2,0.2c0.1,0.1,0.2-0.1,0.2-0.2c0.1,0,0.1,0,0.2,0
	c0,0,0-0.1,0-0.1c0.3-1.2,0.4-1.1,0.6-3.4c-0.1,3.7,0.7,0.9,1,2.5c-0.4,0.8-0.8,0.6-1.2,0.8c0,0.2,0,0.5,0,0.7c0.1,0,0.1,0,0.2,0
	c0,0.1-0.1,0.2-0.1,0c0,0,0,0.1,0,0.1l0,0c0,0,0,0,0,0c0.1,0.1,0.2,0,0.2-0.1c0,0.2,0,0.3,0,0.5c0-0.2,0-0.1,0.1-0.2
	c0.1,0.1,0,0.2,0.1,0.3c0.1-0.1,0-0.1,0.1-0.2c0.1,0.1,0,0.2,0.1,0.2c0.1-0.1,0.3-0.1,0.4,0c0.1,0.2-0.1,0.1-0.1,0.3
	c0.1,0.1,0.1-0.1,0.2,0.1c0-0.1,0-0.1,0-0.2c0.2,0.1,0.3,0,0.5,0c0.1-1.1,0.1-1.7-0.1-2.1c0.4-1.4,0.3,0.2,0.3,1.8
	c0,0.1,0,0.2,0,0.3c0.1,0,0.2,0,0.2,0c0,0,0-0.1,0-0.2c0.1-0.1,0.1-0.2,0.2-0.2c0,0,0,0,0,0.1c0-0.2,0-0.5,0.1-0.8
	c0.1,1.5,0.6-1.3,0.7,0.3c-0.1,0-0.2,0.2-0.3,0.4c0,0,0.1,0,0.1,0c-0.1,0.6-0.3,0.4-0.5,0.6c0.1,0.1,0.2-0.1,0.2,0.1l0.1-0.2
	c0.1,0.1,0,0.1,0.1,0.2c-0.1,0-0.1,0.2-0.2,0.1c0,0.2-0.1,0.1-0.1,0.3c0.1,0.3,0.2-0.4,0.3-0.1l0.3-0.6c0.1,0.1,0,0.2,0,0.3
	c0.1,0.2,0.1,0.1,0.2,0.1c0-0.1,0-0.1,0.1-0.2c0,0,0-0.1,0-0.1c0,0-0.1,0.1-0.1-0.1c0,0,0.1-0.1,0.1-0.1c0-0.2,0-0.3,0-0.5
	c0,0.3,0.1,0.4,0.1,0.6l0.2-0.3c0,0.2,0,0.2,0.1,0.2c0.1,0.1,0,0.2,0,0.3c0-0.4,0.1-0.3,0.3-0.6c0.1,0.1,0.3,0.1,0.4,0.2
	c0.1-0.4,0.2-0.4,0.4-0.6c0.1,0.1-0.1,0.2,0,0.3c0.2,0,0.4-0.5,0.5-0.8c-0.2-0.1-0.2,0.4-0.4,0.5c0-0.1,0-0.1,0-0.2
	c-0.1-0.1-0.1,0.2-0.1,0.2c-0.2-0.3-0.5,0.6-0.8,0.2c0.1-0.5,0.5-0.5,0.7-0.4c0-0.1,0.1-0.2,0.1-0.3c0.1,0,0.3-0.1,0.4-0.1
	c0,0,0.1,0,0.1,0c-0.1,0.2-0.1,0.4-0.1,0.6c0.1-0.2,0.1-0.1,0.2-0.2l4.1-0.4c0.8,0.4,2.2,0.2,2.9,1.3c-1-1.1,3.7-0.3,2.2-1.8
	c1.1,0.2,0.1,0.9,0.9,1.4c2.5-0.9,5.6,0.6,8.7,0.3c0-0.2-0.2-0.5-0.1-0.8c0.1,0,0.2,0,0.2,0.1c0-0.1,0-0.1,0-0.2
	c0.1-0.1,0.1,0,0.2-0.1c0.1,0.1,0,0.1-0.1,0.2c0.1,0.1,0.2,0,0.2,0.1c0,0,0-0.1,0-0.2c0,0,0,0,0,0l0.1,0.1c0,0,0,0,0,0.1l0,0
	l1.2,1.1c0.4-0.1,0.5-0.6,0.8-0.9c0,0,0,0,0.1,0c0,0,0-0.1,0-0.1c0,0,0.1,0,0.1,0c0,0,0,0,0,0c0.1,0,0.1,0,0.2,0c0,0,0.1,0,0.1,0
	c-0.1,0-0.1,0-0.1,0.1c0.1,0,0.1,0,0.1,0.2c0-0.2,0.1-0.1,0.1-0.3c0.1,0.1,0.2,0.1,0.3,0.2c-0.1-0.1-0.1-0.2-0.2-0.3
	c0,0,0,0,0.1-0.1c0.1,0.3,0.3,0.1,0.5,0c0,0.2,0.1,0.2,0.2,0c0,0.1,0,0.1,0,0.2c0.2,0.1,0.3-0.1,0.5-0.1c0-0.1-0.1-0.2,0-0.2
	c0-0.1,0.1,0.2,0.1,0c0,0.1,0,0.1,0,0.2c0.1,0,0-0.2,0.1-0.1c0.1,0.1,0.1,0.2,0.1,0.2c0.1-0.1,0.3,0.1,0.4-0.1
	c0.1,0.1,0,0.2,0.1,0.2c0-0.2,0.1,0,0.1,0c0.2,0,0.2-0.3,0.4-0.1c0-0.2,0.2-0.1,0.3-0.2c0,0.1,0,0.1,0,0.2c0.1-0.3,0.2,0,0.3-0.3
	c0,0,0,0,0,0c0.1,0,0.2,0,0.3,0c-0.1,0.1-0.1,0.2-0.2,0.3c0.1,0,0.1,0.1,0.2,0.2c0-0.1,0-0.2,0.1-0.1c0-0.1,0-0.1,0-0.2
	c0.1-0.1,0.1,0.1,0.2,0.2c0-0.3,0.3-0.4,0.4,0c0-0.2,0.1,0,0.1-0.2c-0.1-0.1-0.1,0.1-0.2-0.1c0,0,0,0,0,0c0.1,0,0.1,0,0.2,0
	c0,0,0,0,0,0c0,0,0,0,0,0c0.1,0,0.1,0,0.2,0c0,0,0,0,0,0c0,0,0,0,0,0c0,0,0.1,0,0.1,0c0,0,0,0,0.1,0c0,0,0,0,0,0c0,0,0.1,0,0.1,0
	c-0.1,0.1-0.3,0.2-0.5,0c0.1,0.3-0.2,0.1-0.1,0.4c0,0.1,0.1,0,0.1,0.1c0-0.3,0.2-0.1,0.2,0.1c-0.1-0.2,0.1-0.2,0-0.4
	c0.1,0,0.1-0.1,0.2,0c0,0.1-0.2,0,0,0.2c0,0.2-0.1-0.1-0.1,0.1c0,0.1,0,0.1,0.1,0.2c0.1-0.3,0.1-0.1,0.2,0.1c0-0.3,0.2-0.1,0.3-0.2
	c0-0.1,0-0.1-0.1-0.2c0.1-0.3,0.3,0,0.4-0.3c0.1,0.1,0,0.2,0,0.3c-0.1,0-0.2,0.1-0.3,0c0,0.1,0,0.2,0,0.3c0-0.1,0,0,0.1,0
	c0-0.1,0-0.1,0-0.2c0.1,0.2,0.4,0,0.4-0.2c0,0.4,0.1,0.2,0.2,0.5c0-0.1,0.1-0.1,0.1,0c0-0.2-0.1,0-0.1-0.2c0-0.2,0.1-0.3,0.1-0.5
	c0.1,0.2-0.1,0.2-0.1,0.4c0.1,0.2,0.1,0,0.2-0.1c0-0.1,0-0.2,0-0.3c0-0.1,0.1,0.1,0.1,0c-0.1-0.2-0.2,0.2-0.2-0.1
	c-0.1,0.2-0.2,0.3-0.3,0.3c0-0.1,0.1-0.1,0.1-0.1c0-0.1-0.1-0.1-0.1,0c0-0.1,0-0.1,0-0.2c0.3,0,0.6,0,0.9,0c0,0,0,0.1,0.1,0.1
	c-0.1,0.1-0.2-0.1-0.4,0.2c0.1,0.2,0,0.2,0.1,0.3c0-0.1-0.1-0.3,0-0.4c0.1,0,0.2,0.1,0.4,0c-0.1-0.1-0.1-0.2,0-0.2c0,0-0.1,0-0.1,0
	c0.1,0,0.1,0,0.2,0c0,0,0,0.1,0,0.1c0-0.1,0.1-0.1,0.1-0.1c0.1,0,0.3,0,0.4,0c0,0,0,0.1,0,0.1c0.1-0.1,0.1,0,0.2-0.1c0,0,0,0,0.1,0
	c0,0,0,0.1,0,0.1c0-0.1,0-0.1,0.1-0.1c0.2,0,0.3,0,0.5,0c0,0,0,0,0,0c0,0,0,0,0,0c0,0,0,0,0,0c0,0.1,0,0.1,0,0.2
	c0.1-0.1,0.2,0,0.1-0.2c0,0,0,0,0,0c0,0,0,0,0.1,0c0,0,0.1,0.1,0.1,0c0,0.1,0,0.2-0.1,0.2c0,0.3,0.2-0.2,0.3,0.2l0.1-0.2
	c0-0.1,0-0.1,0-0.2c0,0,0,0,0.1,0c0,0,0,0.1,0,0.1c0-0.1,0.1-0.1,0.1-0.1c0,0,0,0,0,0c0.1,0,0.2,0.2,0.3,0.3c0.1-0.2,0.4,0.1,0.5,0
	c0-0.2-0.1,0-0.1-0.1c0-0.1,0.1-0.1,0.1-0.1c0.1,0,0.1,0,0.2,0c0,0.2-0.1,0-0.1,0.2c0.1,0.1,0.1,0.2,0.1,0.2c0-0.1,0.1-0.3,0.2-0.4
	c0,0,0,0,0.1,0c0,0.1,0,0.2,0.1,0.3c0,0,0.2-0.2,0.2,0.1c0.1-0.2,0.3-0.1,0.4-0.1c0.1,0.1-0.1,0.2,0,0.3c0.1-0.1,0-0.2,0.1-0.3
	c0.1-0.1,0.1,0.2,0.2,0.3c0-0.1,0.1,0,0.1,0c0,0.1,0,0.2,0.1,0.3c0-0.1,0-0.2,0.1-0.1c0-0.1-0.1,0-0.1-0.2c0-0.1,0.1,0,0.1,0
	c0-0.1-0.1-0.1-0.1-0.1c0-0.1,0-0.2,0-0.3c0.1,0,0.1,0.1,0.1-0.1c0.1,0.2,0,0.1,0,0.3c0.1,0.1,0.1-0.1,0.1-0.2c0.1-0.1,0.2,0,0.3,0
	c0,0.1-0.1,0.2-0.1,0.3c0.1,0.1,0.2,0.4,0.3,0.3c0.1,0.2,0.1,0.4,0.3,0.4c0-0.1-0.1-0.1-0.1-0.2c0.1-0.1,0.1,0,0.2,0
	c0-0.1,0-0.2,0-0.2c-0.1,0-0.2-0.2-0.2,0c0-0.1,0-0.2,0-0.3c0.1,0,0,0.2,0.1,0c0.1,0.1,0,0.2,0,0.2c0-0.2,0.1-0.2,0.2-0.1
	c0-0.1,0-0.2-0.1-0.2c0-0.1,0.1,0,0.1-0.1c0,0.1,0.1,0.2,0.1,0.3c0,0,0.2-0.2,0.1,0c0.1,0.1,0.1-0.3,0.2-0.2c0,0.1,0,0.1-0.1,0.2
	c0.1,0,0.3,0.3,0.3,0c0,0,0.2,0,0.1,0.2c0.2,0,0.4-0.2,0.4-0.7c0,0,0.1,0,0.1,0c0,0,0,0,0,0c0.1,0.1-0.1,0.2,0,0.4
	c-0.1,0.1-0.1,0-0.1,0c-0.1,0.1-0.1,0.2,0,0.4c0,0,0-0.1,0-0.1c0.1-0.1,0.1-0.2,0.2,0c0,0.1-0.1,0-0.1,0.1c0,0.2,0.1-0.1,0.1,0.1
	c0-0.4,0.2-0.1,0.4,0.1c0.1-0.1,0.1-0.4,0-0.4c0,0.2,0,0.1-0.1,0.1c0-0.1,0-0.1,0.1,0c0-0.2-0.2-0.1-0.3-0.1c0.3-0.2,0.8,0,1.1-0.1
	c0,0.1,0,0.1,0,0.2c0,0.1,0.1,0.1,0.2-0.1c0,0.3,0.1,0,0.1,0.2c0.1,0.1-0.1,0.2,0,0.3c0.1-0.2,0.1-0.1,0.2,0
	c0.1-0.2,0.1-0.3,0.2-0.1c0.1-0.2,0.1,0,0.2-0.2c0.2,0.6,0.6,0.2,0.9,0.5c0-0.2,0.1-0.3,0.1-0.1c0.1-0.1,0.1-0.2,0.1-0.3
	c0,0,0.1,0,0.1,0c0,0.1,0,0.2-0.1,0.3c0.1,0.2,0-0.3,0.2-0.1c0-0.3,0.1-0.2,0.2-0.2c0,0.1,0,0.2-0.1,0.3c0.2-0.2,0.4-0.1,0.5-0.3
	c0,0,0.1,0,0.1,0c0,0.1,0,0.2-0.1,0.1c0,0.1,0.1,0,0.1,0.2c0-0.1,0,0,0.1-0.1c0,0,0-0.1,0-0.1c0,0,0,0,0.1,0c0,0.1,0,0.1,0,0.2
	c0-0.1,0.1-0.1,0.1-0.2c0,0,0.1,0,0.1,0c0,0.1-0.1,0.1-0.1,0.1c0,0.1,0,0.1,0,0.1c0.1,0.2,0.3,0.5,0.5,0.1c0.1,0.1-0.1,0.2,0,0.3
	c0.1-0.2,0.3,0.1,0.4,0c0-0.1,0-0.1,0.1-0.2c0,0.1,0,0.1,0,0.2c0.1,0,0-0.1,0.1-0.1c0,0.1,0,0.1,0,0.2c0.1,0.2,0.2,0,0.2-0.1
	c0,0.1,0,0.1,0.1,0c0,0.1,0,0.1,0,0.2c0.2,0,0.4,0.3,0.6,0.1c0.2,0.2,0.1-0.1,0.2,0.1c0.1-0.3,0.2-0.2,0.3-0.4
	c0-0.1-0.1-0.1-0.1-0.1c0.1-0.1,0.1,0.1,0.2,0c0,0.1,0,0.1,0,0.2c0.1,0,0.2,0.2,0.3,0.2c0,0.1,0,0.1,0,0.2c0.1,0,0.1,0.1,0.2,0
	c0.1-0.4,0.4,0.2,0.6,0c-0.2-0.1-0.4-0.1-0.7-0.3c0.1-0.1,0.2,0,0.2,0c0-0.2-0.1-0.1-0.1-0.1l0.1-0.2c0,0.1,0,0.1,0,0.2
	c0.2-0.1,0.2-0.4,0.4-0.3c0,0.1-0.1,0.1-0.2,0.3c0,0.1,0,0.2,0,0.3c0-0.1,0.2-0.5,0.3-0.3c0,0.1,0,0.2,0,0.2
	c0.1,0.1,0.2-0.3,0.3-0.2c0.1,0.1-0.1,0.2,0,0.3c0,0,0,0,0-0.1c0-0.1,0.1,0,0.1-0.2c0,0,0.2,0.1,0.1-0.1c0,0,0.1-0.1,0.1,0.1
	c0,0.1-0.1,0.3-0.1,0.4c0,0,0.1-0.1,0.2-0.2c0,0.1,0,0.2,0.1,0.2c0.1,0,0.2,0,0.3,0c0,0.1-0.1,0-0.1,0.2c0.1,0.1,0.2-0.4,0.3-0.1
	c0,0,0.1-0.2,0.1-0.1c0-0.1-0.1,0-0.1-0.2l0.1-0.1c0.1,0.2,0.2,0,0.3,0.2c0,0.2-0.2,0.2-0.2,0c-0.1,0.1-0.1,0.2-0.2,0.1
	c0.1,0,0.2,0.3,0.3,0c0.1,0.1,0,0.2,0,0.4c0.1-0.3,0.3-0.2,0.5-0.2c0,0.1-0.1,0-0.1,0.1c0.1,0,0,0.1,0.1,0.2c0.1-0.1,0.2,0,0.3-0.1
	c0.1,0.3,0.1,0,0.4-0.3c-0.1,0-0.2,0.1-0.2,0c0,0,0,0.1,0,0.2c-0.1,0.1-0.1,0-0.2,0c0-0.1,0.1-0.1,0.1-0.1c0-0.1-0.2-0.5-0.3-0.3
	c0-0.2-0.3-0.2-0.4-0.2c0-0.1,0-0.2-0.1-0.1c-0.2-0.3-0.4-0.4-0.6-0.3c0-0.3-0.2-0.1-0.1-0.3c0,0.1-0.1,0.1-0.2,0.1
	c0,0.1,0.1,0,0.1,0.1c0,0-0.1,0-0.1,0.1c0-0.1,0-0.1,0-0.2c0-0.1-0.1,0-0.1-0.2c0,0,0,0.1,0,0.2c0-0.1-0.1-0.2-0.1-0.1
	c0-0.1-0.1-0.2-0.1-0.1c0-0.1,0.1-0.1,0-0.2c-0.1,0.3-0.4,0.1-0.5-0.1c-0.1-0.1,0,0.1-0.1,0.1c0,0,0,0-0.1,0c-0.1-0.1,0-0.2-0.1-0.3
	c-0.1,0.2-0.4,0-0.5-0.1c0,0.1-0.1,0.1-0.1,0.2c0,0,0,0,0,0c0,0,0,0,0,0c0,0,0,0,0,0c0,0,0,0,0,0c0,0,0,0,0,0c0,0,0,0,0,0
	c0-0.1,0-0.1,0-0.2c-0.1,0-0.2-0.1-0.4-0.2c0-0.2,0-0.1-0.1-0.2c0.1,0,0.1,0,0.2,0.2c0-0.1,0-0.1,0-0.2l1.4,0.6
	c0-0.1,0.1-0.2,0.2-0.2c0,0.3,0.2,0.1,0.2,0.4c0.1-0.1,0-0.2,0-0.2c-0.1-0.1-0.1-0.2-0.1-0.2c0.1-0.1,0.3-0.2,0.5-0.2l0,0
	c0-0.1,0.1,0.1,0.1-0.1c0.1,0.4,0.3,0,0.5,0.4c0.2-0.2,0.3,0,0.5,0.3c-0.1,0.1-0.1,0.2-0.2,0.3c0.2,0,0.4-0.2,0.5,0
	c0-0.3,0.2-0.5,0.1-0.8c0.1,0.1,0.2,0.2,0.3,0.2c0-0.3-0.3-0.2-0.3-0.5c0,0,0,0,0.1,0c0,0,0,0.1,0,0.1c0-0.1,0-0.1,0-0.1
	c0.1,0,0.1,0,0.2,0c0,0.1,0,0.2,0.1,0.3c0-0.2,0.1-0.2,0.2-0.3c0.1,0.2,0.2,0.4,0.2,0.1c0.1,0.1,0,0.2,0.1,0.2c0,0.2,0,0.1-0.1,0.2
	c0.1,0,0.2,0.1,0.3,0c0.1,0.1-0.1,0.2,0,0.4c0-0.1,0.1-0.4,0.1-0.2c0-0.1,0.1-0.2,0-0.3c0.1-0.1,0.1,0,0.1-0.3
	c0-0.1,0.1,0.2,0.1,0.1c0.1-0.1,0-0.2-0.1-0.2c0.1,0,0.1,0.1,0.2,0c0,0.1-0.1,0.2,0,0.3c0-0.2,0.1-0.1,0.1,0.1
	c0.1-0.3,0.3-0.1,0.5,0.2c0,0,0-0.1,0-0.1l0.2,0.9l0.5-0.9c0,0,0.1,0.1,0.1,0.1c0,0.1-0.1,0-0.1,0.1c0.1,0.2,0.2,0,0.3,0.2
	c0-0.1,0.1-0.2,0.1-0.3c0.1,0,0.2,0,0.2-0.2c0.1,0.1-0.1,0.1,0,0.2c0.1,0.1,0.1-0.1,0.2,0.1c0.1-0.1,0-0.2,0.1-0.2
	c0.1,0.1-0.1,0.2-0.1,0.4c-0.1,0.1-0.1-0.3-0.1-0.1c0,0.2,0.2,0.2,0.2,0.1c0.1,0.1,0,0.2,0.1,0.2c0.1-0.1,0.3-0.3,0.3-0.1
	c0,0,0-0.1,0-0.1c0.1,0,0.1-0.1,0.2,0.1c0.1-0.1,0.1,0,0.1-0.2c-0.1,0.1-0.1-0.3-0.2-0.1c0-0.2,0-0.3-0.1-0.4c0.1-0.2,0.1,0,0.2,0.1
	c0.1-0.2-0.1-0.1-0.1-0.3c0,0.1-0.1,0.1-0.1,0c-0.1,0.1-0.1,0-0.1,0.2c0.1,0.1,0.1,0,0.1,0.2c0,0.1-0.1-0.2-0.1-0.1
	c0-0.2,0.1-0.2,0-0.3c0,0.3-0.1,0-0.2,0c0,0,0-0.3,0.1-0.2c-0.1,0-0.2-0.3-0.3-0.2c-0.1-0.3-0.2-0.1-0.2-0.5
	c-0.1,0.1-0.1,0.2-0.2,0.2c0-0.1,0-0.1,0.1-0.2c-0.1-0.3-0.2-0.1-0.2-0.2c0,0.1,0,0.1,0,0.2c-0.1,0.2-0.1,0-0.1,0.2
	c0,0,0-0.2-0.1-0.2c0-0.2,0-0.1,0.1-0.2c-0.1-0.2-0.2,0-0.3-0.3c-0.1,0.4-0.1-0.2-0.2,0.1c0-0.2-0.1-0.1-0.1-0.3
	c0.1,0,0.1-0.1,0.2,0.1c0.1-0.3,0.2,0,0.4,0.2c0-0.1,0-0.2,0.1-0.3c-0.2,0.3-0.5-0.6-0.7,0.1c-0.1-0.1-0.2,0-0.4-0.2
	c0,0.1,0,0.1,0,0.2l-0.1,0.2c0,0-0.1,0-0.1-0.1c0.1-0.1,0.1,0,0.2-0.2c-0.1-0.1-0.1-0.1-0.2-0.2l-0.1,0.1c0,0-0.1,0-0.1-0.1
	c0-0.1,0-0.2,0.1-0.3c-0.1-0.1-0.1,0.4-0.2,0.2c0,0.1,0,0.1,0,0.2c0,0.1-0.1,0.1-0.1,0.1c0.1-0.3-0.2-0.5-0.3-0.6
	c0.1-0.1,0.4,0.2,0.4-0.1c0.1,0,0.2,0.2,0.3,0.1c0-0.2-0.1-0.1-0.2-0.2c0.1-0.1,0.1,0,0.2-0.2c0,0.3,0.1,0.1,0.1,0.4
	c0.1-0.1,0.1-0.3,0-0.4c0.1-0.1,0.1,0.2,0.1,0.2c0-0.1,0.1-0.1,0.1-0.1c0,0,0,0.1,0.1,0.1c0,0,0,0.1,0,0.1c0,0,0,0,0,0
	c0,0,0,0,0.1,0.1c0,0,0,0,0,0c0,0,0,0,0,0c0.1,0.1,0.1,0.1,0.2,0.2c-0.1,0-0.2-0.1-0.2,0.2c0,0,0.1-0.1,0.2-0.1c0,0.1,0,0.1,0,0.2
	c0-0.1,0.1-0.1,0.1-0.1c0,0,0,0,0,0c0,0,0,0,0.1,0.1c0,0,0,0,0,0c0.1,0.1,0.3,0.1,0.5,0.2c0.1-0.1,0.3-0.2,0.5-0.1c0,0,0,0,0,0
	c0.1,0,0.1,0.1,0.1,0.2c0.1-0.2,0.1,0,0.2-0.1c0-0.2,0-0.2,0.1-0.3c0-0.1,0-0.1-0.1-0.1c0.1,0,0.2-0.1,0.4-0.1
	c-0.2-0.1-0.1-0.3-0.4-0.3c0,0,0,0.1,0.1,0.1c-0.2,0-0.1,0-0.2-0.1c0.2,0,0.2-0.1,0.2-0.1c0.1,0,0.2,0,0.3,0.1c0-0.1,0-0.1-0.1-0.1
	c0.3-0.1,0.1-0.4,0-0.7c0.4-0.2-0.1-0.5-0.4-0.8l0.1,0c0.4,0.2,0.4,0.4,0.7,0.6c0.1,0,0-0.1,0.2-0.1c-0.4-0.4-0.2-0.6-0.5-1
	c0,0,0.1,0,0.1,0c0,0.1,0.2,0.4,0.4,0.5c0.1,0,0-0.1,0.1-0.2c-0.2,0-0.2-0.1-0.1-0.1c-0.1,0-0.2,0-0.3,0c0.1-0.1,0-0.4-0.4-0.4
	c-0.1-0.1,0.3,0,0.2-0.1c0.1,0,0.1,0.1,0.2,0.1c0-0.1-0.3-0.2-0.4-0.2c-0.1-0.1,0.2,0,0.3-0.1c-0.1-0.1-0.3-0.1-0.4-0.2
	c-0.1-0.1,0.1-0.1,0.2,0c0.1-0.1-0.2-0.1-0.2-0.1c0,0,0.1-0.1,0.3-0.1c0.2,0.1,0.1,0.1,0.2,0.2c0.2-0.1-0.1-0.2-0.3-0.2
	c0-0.2,0-0.3-0.3-0.4c0.1-0.1,0.2,0,0.4,0c0.1,0.1,0.1,0.2,0.1,0.3c0.2-0.1,0.4,0,0.5,0.1c0.1,0,0-0.1-0.1-0.1c0.2,0,0-0.1,0.3-0.1
	c-0.2-0.1-0.2-0.3-0.2-0.4c0.1,0,0.2,0.1,0,0.2c0,0,0.1,0,0.1,0l0.1,0.1c0.2-0.1,0-0.2,0-0.3c0.2,0,0.3,0,0.5,0
	c-0.2-0.1-0.1-0.1-0.2-0.2c0.1-0.1,0.2,0,0.3-0.1c-0.1-0.1-0.1-0.1-0.2-0.1c0.1-0.1,0.2,0,0.3-0.1c-0.1-0.1,0-0.3,0-0.4
	c0.2,0,0.1,0.1,0.3,0.1c0.1-0.1-0.1-0.2,0.1-0.2c-0.1,0-0.1-0.1-0.2-0.1c0.1-0.1,0.1-0.3,0-0.5c0,0,0.1,0,0.1,0
	c0-0.2-0.1-0.1-0.1-0.1c0-0.1,0-0.1,0-0.1c0.1,0,0.1-0.1,0.2-0.1c0-0.2-0.1-0.2-0.1,0c-0.1-0.1,0.1-0.2,0-0.2
	c0.1-0.1,0.2-0.1,0.1-0.3c-0.1,0-0.1,0.1,0,0.2c0,0,0,0-0.1-0.1c-0.1,0.1-0.1,0.2-0.1,0.3c-0.1,0-0.1,0-0.2,0c0,0-0.1-0.1-0.1-0.1
	c0,0,0,0,0,0c0,0.1,0,0,0.1,0c0,0,0,0,0.1,0c0,0,0,0,0,0c0,0,0,0,0,0c0.4-0.1-0.3-0.5-0.1-0.6c0.6,0.1,0.4,0.3,0.6,0.6c0,0,0,0,0,0
	c0,0.1,0,0.1,0,0.2c0.1-0.3,0.2-0.1,0.2-0.2c-0.1-0.1-0.2-0.1-0.3-0.1c0-0.1-0.1-0.1,0.1-0.1l-0.2-0.2c0.1,0,0.2,0,0.2,0
	c0,0.1,0.2,0.1,0.1,0.2c0.2,0,0.1,0.1,0.3,0.1c0.4-0.1-0.4-0.3,0-0.3l-0.7-0.4c0.1-0.1,0.2,0,0.3,0c0.2,0,0.1-0.1,0.1-0.2
	c-0.1,0-0.2,0-0.3-0.1c-0.1,0,0.1,0.1-0.1,0.1c-0.1-0.1-0.1-0.2,0-0.2l-0.4-0.2c0.3,0,0.2,0.1,0.2-0.1c0.1-0.1,0.2,0.1,0.4,0
	c-0.4-0.1-0.3-0.2-0.6-0.4c0.1-0.1,0.1-0.3,0.2-0.4c-0.4-0.1-0.5-0.3-0.7-0.5c0.1-0.1,0.2,0.1,0.3,0.1c0-0.2-0.6-0.5-0.9-0.6
	c0,0,0,0.1,0,0.1c0,0,0-0.1-0.1-0.2c0,0.1,0,0.3,0,0.4l0.1-0.1c0,0,0,0,0,0c0,0,0.1,0.1,0.1,0.1c0,0,0,0,0,0c0.1,0.1,0.1,0.1,0.2,0
	c0.1,0,0.2,0.1,0.2,0.2c-0.1,0-0.2,0-0.2,0c-0.1,0.1,0.2,0.2,0.2,0.1c-0.4,0.2,0.6,0.6,0.1,0.8c-0.5-0.2-0.5-0.6-0.4-0.8
	c-0.6-0.2-0.5-0.5-0.5-0.8c0.3,0.1,0.4,0.2,0.8,0.2c-0.2-0.1-0.1-0.1-0.2-0.2c0,0,0,0,0,0l0.5,0.2c0-0.5-0.1-0.9-0.2-1.4
	c0.1,0,0.2,0,0.3,0.1c0.1-0.1,0-0.2,0-0.3c0,0.1-0.2,0.1-0.3,0.1c0-0.2-0.1-0.3-0.1-0.5c0,0,0,0,0.1,0c0,0,0-0.1-0.1-0.1
	c0-0.1,0-0.3-0.1-0.4c0,0,0.1,0,0.1-0.1c0,0-0.1,0-0.1,0c0-0.1,0-0.2,0-0.4c0,0,0.1,0,0.1,0c0,0,0,0,0-0.1c0,0-0.1,0-0.1,0
	c0,0,0,0,0,0c0-0.1,0-0.2,0-0.2c0,0,0,0,0,0c0,0,0,0,0,0c0-0.1,0-0.2,0-0.3c0,0,0-0.1,0-0.1c-0.1,1-0.3,0.4-0.3,1.3c0,0,0,0,0,0
	c0,0,0,0.1,0,0.1c0.1-0.8,0.2-0.6,0.4,0.2c-0.1,0.9-0.2,0.1-0.3,0.1c0.1,0.2,0.1,0.5,0.1,0.7c0-0.1-0.1-0.2-0.2-0.2
	c0,0.1,0,0.1,0,0.2c0.1,0,0.2,0.1,0.2,0.1c0,0,0.1,0,0.1,0c0,0,0,0.1,0,0.1c-0.1,0-0.1,0-0.2,0c-0.1-0.1,0-0.1-0.1-0.2
	c-0.2,0-0.3,0-0.4-1.8l-0.1,1.5c0.2,1.7,0-1.4,0.2,0.4c0,2.4-0.6,0.6-0.9,2.2c0-1.3-0.1-2.4,0.1-2.8c-0.3-1.8-0.2,2.4-0.5,2.7
	c-0.2-2.1-0.4-0.3-0.5,0.4c-0.3-1.8-0.5-1-0.7-0.6c-0.1-1.4,0.2-0.5,0.2-1.5c-0.1-1,0.1-1.9,0-2.9c-0.2,1.9-0.5,2.1-0.6,4.2
	c-0.1-0.6-0.2-0.1-0.3-0.8c-0.1-1.9,0.4-0.3,0.1-2.5c0.1-1.3,0.2,0.4,0.3-0.8c-0.1-1.5-0.4,1-0.4-1.1c-0.1,1.1-0.2,0.6-0.4,1.7
	c0-2.6-0.2-0.1-0.4-1.8c-0.2,1.9-0.4,1.2-0.6,2.3c0,1.3,0.2,2.3,0.3,1.4c0,2.2-0.3,0.9-0.5,0.8c0-1,0-2,0.1-2.2
	c0-1.1-0.2-1.1-0.2-2.6c0,2.9-0.2,0.7-0.4,2.7c0.1,1.7,0.2-0.2,0.3,1.1c-0.1,0.1-0.2,1.3-0.4-0.1c0-0.6,0.1-0.3,0.1-0.9
	c-0.1-0.6-0.2-0.4-0.1-1c-0.2-1,0,2.1-0.2,0.2c0.1,1.1,0.1,2.2,0,3.2c-0.2,0,0-1.1-0.2-2c-0.1,0.7-0.1,1.5,0,2.2
	c-0.1,0.1-0.1-0.5-0.2,0.2c-0.2-1.5,0.1-2.7-0.1-4.2c0,0.8-0.1,1.7-0.1,2.5c-0.1,1.4-0.3-1.5-0.4,0.5c-0.1-0.8-0.1-1.5-0.2-2.3
	c-0.2,1.3-0.3,0.4-0.5,0.1c-0.1,2.2-0.4,1.5-0.6,1.4c-0.1-0.7,0.2-1.2,0-1.9c-0.2,2-0.4,0.9-0.6,1c-0.2,0.7,0.1,1.5,0,2.2
	c-0.2,0.3,0-1.9-0.2-2.7c-0.1,0.1-0.1,0.4-0.2,1.2c-0.4-3.7-0.8,1.7-1.2-0.5c-0.1,2.1-0.2,1.8-0.5,3c-0.1,0-0.1-1.3-0.3-1.1
	c0-1.6,0.2-0.8,0.3-1.8c-0.2-1.1-0.4,0.2-0.6,1.4c-0.2-0.6-0.1-1.3-0.2-2.7c-0.2,0.4-0.2-0.5-0.3,1.2l-0.1-1.3
	c0,1.8-0.4,2.4-0.5,0.1c-0.2,2.3-0.3,1.3-0.4,0.8c-0.2,1.1,0,0.4,0.1,1.3c-0.1,0.8-0.2,0-0.3,0.2c-0.1-1.6,0-1.5,0.1-2.6
	c-0.2-0.1-0.3-0.5-0.5-2.5c0-0.4,0.1-0.5,0.1-0.3c0-1.2-0.4-0.7-0.5-0.9c0.4,1,0.3,3.1,0.7,3.8c-0.4,2.6-0.4-2-0.7-1.6
	c0,1.4,0.2,2.9,0.2,4.3c-0.1-1.3-0.4-1.1-0.4-2.8c-0.1,1.3-0.2,2.7-0.3,4.1c0.1-2.3-0.1-2.2-0.2-3.3c-0.1-0.9,0.2-1.6,0.1-2.6
	c-0.1,1-0.1,1-0.1,2.5c-0.1,0-0.2-1.2-0.2,0.6c-0.1-0.1-0.2-1-0.3-1.8c0-1,0.4,0,0.3-2.1c-0.2,1.1-1.2,3.6-1-0.1
	c-0.1-0.2-0.3,1.3-0.4,0.2c-0.3,3-0.6,0.5-1,3.5c0-2.1-0.3-0.8-0.1-2.7c-0.1-0.5-0.2,1.6-0.3,2.1c-0.3-0.3-0.6-1.3-0.9,0.6
	c0-1.8-0.2-1.4-0.3-0.1c-0.1-1.7-0.2-0.7-0.3-1.8c0,1.1,0,1.1,0.1,2.6c-0.2,0.2-0.3-1.2-0.3-2.1c-0.2-0.4-0.2,1.9-0.4-0.2
	c0,0.5,0,1.1-0.1,1.6c0.2-0.4,0.3,0.2,0.5,1.2c-0.3-0.1-0.6-0.4-0.9-0.4c0-0.3,0-0.6,0-1c0.2-0.6,0.4,0.8,0.4-1.1
	c-0.2-1.1-0.5,1.5-0.7-0.6c-0.1,0.5-0.1,0.9-0.2,0.6c-0.1,0.5-0.1,1.1,0,1.6c-0.2,1.1-0.3-0.2-0.6,0.7c-0.1-0.7,0-1.3-0.1-2
	c-0.2,0.8,0,1.6-0.2,1.5c-0.1-0.9,0.2-1.6,0-1.6c-0.1,0.5,0,1.1-0.1,1.6c-0.4-4-1.4-0.4-1.8-2.4c0-0.7,0.2-1.2,0.2-1.9
	c-0.2-0.7-0.6,2.1-0.7-0.6c-0.1,0.5-0.1,1.1,0,1.6c-0.1,1.1-0.2,0.3-0.3,1.2c-0.1-0.6,0-1.1,0.1-1.6c-0.1-0.9-0.2,0.1-0.3-0.5
	c-0.1,0.4,0,0.9,0,1.3c-0.1,1.1-0.2-0.1-0.3,0.5c0-0.5,0.1-1,0-1.6l-0.2,1.2c-0.1-0.7,0.1-1.3,0-2c-0.4,0.4-0.8,0.7-1.2,0.5l0.1,1
	c-0.1-0.1-0.3,1.3-0.4,0.5c-0.1-0.6,0-1.1,0.1-1.6c-0.2-0.9-0.7,0.7-0.9,1.3c0-1.4-0.1-1.7-0.3-0.8c0.1,1.3-0.1,1.3-0.2,1.9
	c0.4-0.5,0.5,1.4,0.9,0.7c0.1-0.6,0-0.3,0-0.7c0.2-1.4,0.1,0.9,0.3-0.5c0,1.6,0.1,1.2,0.2,2.7c-0.4-1.5-1.2,1-1.4-1.3
	c0,0.3,0,0.6-0.1,0.9c-0.2,0.6,0.1-1.2,0-1.7c-0.4,2.5-0.6,0.9-0.8,0.3c-0.2,1.7-0.3,1.6-0.5,1.1c0.1-1.3,0.4-2.5,0.3-3.8
	c0.1-0.4,0.3,0.2,0.4-1.1c-0.2,0.2-0.2-0.1-0.2-1.4c-0.2,1.4-0.2,1.1-0.3,2.1c-0.2,0.4-0.2-0.8-0.4,0.5c0-2.4-0.4-1.2-0.8-0.4
	c0.1-2,0-1.8-0.3-0.5c0-0.6,0-1.1,0.2-1.6c-0.2-1-0.6,1.1-0.9,0.3c-0.1,0.6,0,1.3-0.1,1.9c-0.1,0.9,0-1.7-0.2-0.1
	c0-0.6,0-1.1,0.1-1.6c-0.1-0.3-0.1,1.8-0.3,0.9c-0.1-0.7,0-1.3,0.1-2c-0.3,0.9-0.5-1-0.7,1c-0.1-0.7,0.1-1.3,0-2
	c-0.1,2-0.2,0.2-0.2,0.2c-0.3,0.2-0.6,2.7-0.8,0.6c-0.2,1.9-0.5,0.8-0.7,1c0-0.5,0.1-1,0.1-1.6c-0.3,2-0.3,0-0.7,2
	c-0.2,1.3,0.1,1.8,0.2,1.1c0.1,0.3-0.3,1.4-0.3,1.2c-0.2,1.5,0.2,0.4,0.2,0.7c0,0.6-0.2,1-0.2,1.5c-0.1,0.2-0.1-2.1-0.4-0.2
	c0-0.8-0.1-1.6,0.1-2.3c-0.1-1.2-0.3,0.4-0.4-1.2c-0.1,0.8-0.1,2-0.3,1.8c0.3-2.3,0.7-3.9,1.1-5.1c-0.1-0.3-0.2-1-0.3-1.5
	c-0.1,0.6-0.2,1.9-0.3,0.9c-0.1,0.5-0.1,1.1-0.2,1.6c-0.3,0.8,0-0.8-0.2-1.7c-0.2,2.7-0.9,2.8-0.8,0c-0.1,1.6-0.2-0.1-0.4,1.5
	c0,1.2,0.3-0.4,0.4,0.8c-0.1,1.2-0.4-0.1-0.5-0.2c-0.1,0.6-0.2,1.3-0.3,1.8c-0.2,0.7,0-1,0.1-1.3c-0.1-0.5-0.3,1.6-0.2,2.2
	c0.1-0.4,0.2,0.4,0.4-0.8l-0.1,2c-0.3,0.9-0.3-1.2-0.6-0.3c0.1-1.3,0.6-3.5,0.3-3.8c-0.1,1.8-0.1,0.9-0.3,1.5c0.1-1.9,0.2-0.8,0-2
	c-0.1,1.2-0.2,1.7-0.4,2.1c0.1-2.5-0.4,0.7-0.4-1.5c0.5-0.2,1.1-2,1.5-0.3c0-2.2,0.5-0.8,0.6-3.4c0-0.6-0.1-0.4-0.1-1.1
	c-0.2,2.1-0.5,0.4-0.4-0.9c0,1.9-0.3,1.6-0.3,3.5c-0.1-0.1-0.3,0.9-0.3-0.1c0-1.1,0.3,0.2,0.2-1.6c0.2-1.4,0.1,0.9,0.3-0.5
	c0-0.6,0.1-1.1,0-1.7c-0.4,2-0.3,0.4-0.3-1.1c-0.2,2.7-0.6,0.7-0.9,1.2c-0.2,1.2-0.1,0.8,0,1.7c-0.5,2-0.7-0.1-1.1,1.8
	c-0.1-0.8,0.1-1.5,0.1-2.3c0.2,0,0.5-0.3,0.7,0.3c0.1-0.8,0.2-1.7,0.2-2.6c-0.1,0.6-0.1,0.3-0.2-0.1c-0.1,0.4-0.1,0.8-0.1,1.3
	c-0.1-2-0.9-0.3-1.2,1.5c0.4-3.2-0.2-1.7-0.1-4c-0.1,0.5-0.2,0.5-0.2,0.2c-0.2,1.7,0.2,0.4,0.1,1.4c0,1.4-0.4,2.1-0.7,4
	c0-1.8,0.3-1.8,0.4-3.1c-0.1-1.3-0.2,0.1-0.5,0.8c0,0.8-0.1,1.5-0.2,2.3c-0.1,0.4-0.1-1.1-0.3,0.2c0.1,1.4,0.5-1.2,0.5,1.2
	c0.3-1.2,0.6-2.3,0.8-2c0,0.8-0.2,0.5-0.3,0.5c-0.1,0.9,0,1.2,0.1,0.5c0-0.2,0-0.3,0-0.5c0,0.2,0,0.3,0,0.5
	C117,226.4,116.3,221.1,115.5,222.8"/>
<g>
	<path fill="#574C41" d="M224.1,215.7V231c0,11.6-5.9,17.5-17.7,17.5h-3.2c-11.7,0-17.7-5.9-17.7-17.3v-20.8h8.6v21.1
		c0,6.1,3.2,9,9.4,9h2.6c6.2,0,9.4-2.9,9.4-9v-15.5c0-5.7-1.9-8.1-5.7-11.2l-14.8-11.2c-6.9-5-9.1-10.1-9.1-18v-12.4
		c0-11.6,5.7-17.5,17.7-17.5h2.8c11.7,0,17.7,5.9,17.7,17.3v17.7h-8.6v-18c0-6.1-3-9-9.4-9h-2.2c-6.4,0-9.4,2.9-9.4,9v12.8
		c0,5.5,1.9,8.1,5.7,11.2l14.8,11C221.9,202.7,224.1,207.3,224.1,215.7z"/>
	<path fill="#574C41" d="M232.9,221c0-9,3.2-12.7,11.6-15.8l15.3-5.7v-14.3c0-5.4-2.8-8.3-8.4-8.3h-1c-5.7,0-8.6,2.9-8.6,8.3v10
		h-8.1v-9.7c0-10.7,5.7-16.3,16.7-16.3h1.2c11,0,16.5,5.7,16.5,16.3v62.1h-8.3v-5.2c-4,3.3-8.1,6.1-14,6.1h-0.3
		c-8.4,0-12.6-4.5-12.6-13.1L232.9,221L232.9,221z M259.8,236.1v-28.8l-11.8,4.5c-5,2-6.7,4.2-6.7,9.4v12.6c0,4.5,2.3,6.7,6.7,6.7
		h0.1C251.9,240.5,255.1,239.1,259.8,236.1z"/>
	<path fill="#574C41" d="M289.6,247.7L274.8,170h8.6l11,65.2l11-65.2h8.2l-14.8,77.7H289.6L289.6,247.7z"/>
	<path fill="#574C41" d="M336.7,248.5c-11.3,0-17-5.7-17-17v-45.5c0-11.3,5.7-17,17-17h3c11.2,0,16.7,5.7,16.7,17v45.5
		c0,11.2-5.7,17-16.7,17H336.7L336.7,248.5z M336.9,177c-5.7,0-8.6,2.9-8.6,8.8v46.1c0,5.9,2.9,8.6,8.6,8.6h2.8
		c5.7,0,8.6-2.8,8.6-8.6v-46c0-5.9-2.9-8.8-8.6-8.8L336.9,177L336.9,177z"/>
	<path fill="#574C41" d="M365.5,170h8.3v7.8c3.5-5.7,7.2-8.4,13.2-8.6v9.4c-5.7,0.4-9.7,2-13.2,5.7v63.3h-8.3V170z"/>
	<path fill="#574C41" d="M405.1,263.4l3.5-16L392.9,170h8.4l11.5,61.8l11.5-61.8h8.1l-18.9,93.4L405.1,263.4L405.1,263.4z"/>
</g>
<g>
	<path fill="#FFFFFF" d="M119.4,195.6c-3.3,0.8-5.6,12.2-5.6,12.2c1,0.1,8.5-6.3,9.8-8.1C124.9,197.9,122.7,194.8,119.4,195.6z"/>
	<path fill="#FFFFFF" d="M134.7,186.6c-3.4-0.9-10.6,7.7-10.6,7.7c0.9,0.5,10.6-1.1,12.6-2.1C138.8,191.3,138.2,187.4,134.7,186.6z"
		/>
	<path fill="#FFFFFF" d="M129.2,182.3c1-2.1-1.7-4.8-4.8-3.3c-3.1,1.5-3.4,13.2-3.4,13.2C122.1,192,128.2,184.3,129.2,182.3z"/>
	<path fill="#FFFFFF" d="M136.7,171.4c-3.3,0.9-5.6,12.3-5.6,12.3c-0.3,0,8.8-6.9,9.8-8.2C142.3,173.7,140,170.6,136.7,171.4z"/>
	<path fill="#FFFFFF" d="M134.9,164.4c0.5-2.3-2.8-4.2-5.4-2c-2.6,2.4-0.1,13.9-0.1,13.9C130.5,175.9,134.5,166.7,134.9,164.4z"/>
	<path fill="#FFFFFF" d="M142.4,157.2c-3.4,0.9-5.6,12.3-5.6,12.3c-0.2,0,8.9-6.9,9.8-8.1C148,159.5,145.7,156.2,142.4,157.2z"/>
	<path fill="#FFFFFF" d="M111.1,243.1c2.5-24.5,8-35.2,8-35.2l-5.8,3.8c-3.5,9.5-5.7,21-6.9,32.3 M106.8,243.1
		C106.8,243.1,106.8,243.1,106.8,243.1C106.8,243.1,106.8,243.1,106.8,243.1C106.8,243.1,106.8,243.1,106.8,243.1z"/>
</g>
</svg>
