<?xml version="1.0" encoding="utf-8"?>
<!-- Generator: Adobe Illustrator 18.1.1, SVG Export Plug-In . SVG Version: 6.00 Build 0)  -->
<!DOCTYPE svg PUBLIC "-//W3C//DTD SVG 1.1//EN" "http://www.w3.org/Graphics/SVG/1.1/DTD/svg11.dtd">
<svg version="1.1" id="Layer_1" xmlns="http://www.w3.org/2000/svg" xmlns:xlink="http://www.w3.org/1999/xlink" x="0px" y="0px"
	 viewBox="0 0 20.6 383" enable-background="new 0 0 20.6 383" xml:space="preserve">
<g>
	<defs>
		<rect id="SVGID_1_" x="0" width="20.6" height="383"/>
	</defs>
	<clipPath id="SVGID_2_">
		<use xlink:href="#SVGID_1_"  overflow="visible"/>
	</clipPath>
	<g clip-path="url(#SVGID_2_)">
		<defs>
			<rect id="SVGID_3_" x="4" width="19.8" height="383"/>
		</defs>
		<clipPath id="SVGID_4_">
			<use xlink:href="#SVGID_3_"  overflow="visible"/>
		</clipPath>
		<path clip-path="url(#SVGID_4_)" fill="#656668" d="M15.8,327.2c3-0.1,5.4-0.7,6.7-1.1c0.4-12.1,1.3-16.4,1.3-35.1
			c0-10.2-0.1-16.1-0.2-21.4c-1.2,0.3-3.1,0.6-5.2,0.6c-3.5,0-8.6-2.2-8.6-2.2s3,0.4,5.2,0.4c2.2,0,4.7,0,7.3-0.9
			c0.4-0.2,0.8-0.3,1.2-0.3c-0.1-6.3-0.3-12.4-0.3-24.9c0-18.2-0.6-22.8-0.9-34.1l-0.6,0c0,0-3.5-0.4-6.9-1.3
			c-3.4-1-4.4-1.4-4.4-1.4s3,0.6,7.5,0.5c1.7,0,3.1-0.2,4.3-0.5c-0.1-3.3-0.1-7.1-0.1-11.9c0-21.8,0.7-24.1,0.9-41.8
			c-1,0.1-2.1,0.2-3.3,0.2c-3.5,0-8.6-2.2-8.6-2.2s3,0.4,5.2,0.4c2,0,4.4,0,6.8-0.7c0-1.5,0-3,0-4.7c0-24.3-0.6-24.3-0.6-48.7
			c0-24.3-0.3-24.3-0.3-48.7c0-1.1,0-2.2,0-3.2c-0.8,0.2-3.3,0.8-6.1,0.8c-3.5,0-8.6-2.2-8.6-2.2s3,0.4,5.2,0.4s4.7,0,7.3-0.9
			c0.9-0.3,1.6-0.4,2.3-0.5c0.1-18.6,0.7-20.7,0.7-41.9H4.6c0,6.2,0.1,10.8,0.1,14.7c1.1,0.8,3,2,5.3,2.5c3.9,0.9,6.5,0.4,6.5,0.4
			s-0.9,0.4-3.9,1.3c-3,0.9-6,0.9-6,0.9l-1.7-0.4c0.2,7.6,0.4,13.4,0.4,28C5.2,71.9,4,71.9,4,96.2c0,0.5,0,0.9,0,1.3
			c1.4,0.4,3.6,0.9,6.2,1c4.6,0.1,7.5-0.5,7.5-0.5s-1,0.4-4.4,1.4c-3.4,1-6.9,1.3-6.9,1.3l-2.4,0c0.2,20,1.5,21.5,1.5,44.2
			c0,11.9,0,18-0.1,23.9c0,0,0,0,0,0c2.6,0.9,5.2,0.9,7.3,0.9c2.2,0,5.2-0.4,5.2-0.4s-5.2,2.2-8.6,2.2c-1.5,0-2.8-0.2-3.9-0.3
			c0,5.5-0.1,11.5-0.1,22.4c0,24.3-1.3,24.3-1.3,48.7c0,22.9,0.1,24.3,0.2,44.7c0,0,0,0,0,0c2.6,0.9,5.2,0.9,7.3,0.9
			s5.2-0.4,5.2-0.4s-5.2,2.2-8.6,2.2c-1.4,0-2.8-0.2-3.9-0.3v1.7c0,24.3,0.1,24.3,0.1,48.7c0,22.4,0.9,24.2,1,43.4h17.4
			c-0.1-19.2-0.5-21-0.5-43.4c0-4,0.1-7.4,0.1-10.3l-2.8,0c0,0-3.5-0.4-6.9-1.3c-3.4-1-4.4-1.4-4.4-1.4S11.3,327.3,15.8,327.2"/>
	</g>
</g>
</svg>
