<?xml version="1.0" encoding="utf-8"?>
<!-- Generator: Adobe Illustrator 18.1.1, SVG Export Plug-In . SVG Version: 6.00 Build 0)  -->
<!DOCTYPE svg PUBLIC "-//W3C//DTD SVG 1.1//EN" "http://www.w3.org/Graphics/SVG/1.1/DTD/svg11.dtd">
<svg version="1.1" id="Layer_1" xmlns="http://www.w3.org/2000/svg" xmlns:xlink="http://www.w3.org/1999/xlink" x="0px" y="0px"
	 viewBox="20.5 0 479.5 503" enable-background="new 20.5 0 479.5 503" xml:space="preserve">
<g>
	<g>
		<defs>
			<rect id="SVGID_1_" x="473.1" width="26.9" height="500"/>
		</defs>
		<clipPath id="SVGID_2_">
			<use xlink:href="#SVGID_1_"  overflow="visible"/>
		</clipPath>
		<g clip-path="url(#SVGID_2_)">
			<g>
				<defs>
					<rect id="SVGID_3_" x="478.3" width="25.8" height="500"/>
				</defs>
				<clipPath id="SVGID_4_">
					<use xlink:href="#SVGID_3_"  overflow="visible"/>
				</clipPath>
				<path clip-path="url(#SVGID_4_)" fill="#656668" d="M493.7,427.2c3.9-0.1,7-0.9,8.7-1.4c0.5-15.8,1.7-21.4,1.7-45.8
					c0-13.3-0.1-21-0.3-27.9c-1.6,0.4-4,0.8-6.8,0.8c-4.6,0-11.2-2.9-11.2-2.9s3.9,0.5,6.8,0.5s6.1,0,9.5-1.2c0.5-0.3,1-0.4,1.6-0.4
					c-0.1-8.2-0.4-16.2-0.4-32.5c0-23.8-0.8-29.8-1.2-44.5h-0.8c0,0-4.6-0.5-9-1.7c-4.4-1.3-5.7-1.8-5.7-1.8s3.9,0.8,9.8,0.7
					c2.2,0,4-0.3,5.6-0.7c-0.1-4.3-0.1-9.3-0.1-15.5c0-28.5,0.9-31.5,1.2-54.6c-1.3,0.1-2.7,0.3-4.3,0.3c-4.6,0-11.2-2.9-11.2-2.9
					s3.9,0.5,6.8,0.5c2.6,0,5.7,0,8.9-0.9c0-2,0-3.9,0-6.1c0-31.7-0.8-31.7-0.8-63.6c0-31.7-0.4-31.7-0.4-63.6c0-1.4,0-2.9,0-4.2
					c-1,0.3-4.3,1-8,1c-4.6,0-11.2-2.9-11.2-2.9s3.9,0.5,6.8,0.5c2.9,0,6.1,0,9.5-1.2c1.2-0.4,2.1-0.5,3-0.7
					c0.1-24.3,0.9-27,0.9-54.7h-24c0,8.1,0.1,14.1,0.1,19.2c1.4,1,3.9,2.6,6.9,3.3c5.1,1.2,8.5,0.5,8.5,0.5s-1.2,0.5-5.1,1.7
					c-3.9,1.2-7.8,1.2-7.8,1.2l-2.2-0.5c0.3,9.9,0.5,17.5,0.5,36.6c-0.1,32.1-1.7,32.1-1.7,63.8c0,0.7,0,1.2,0,1.7
					c1.8,0.5,4.7,1.2,8.1,1.3c6,0.1,9.8-0.7,9.8-0.7s-1.3,0.5-5.7,1.8c-4.4,1.3-9,1.7-9,1.7h-3.1c0.3,26.1,2,28.1,2,57.7
					c0,15.5,0,23.5-0.1,31.2l0,0c3.4,1.2,6.8,1.2,9.5,1.2c2.9,0,6.8-0.5,6.8-0.5s-6.8,2.9-11.2,2.9c-2,0-3.7-0.3-5.1-0.4
					c0,7.2-0.1,15-0.1,29.2c0,31.7-1.7,31.7-1.7,63.6c0,29.9,0.1,31.7,0.3,58.4l0,0c3.4,1.2,6.8,1.2,9.5,1.2s6.8-0.5,6.8-0.5
					s-6.8,2.9-11.2,2.9c-1.8,0-3.7-0.3-5.1-0.4v2.2c0,31.7,0.1,31.7,0.1,63.6c0,29.2,1.2,31.6,1.3,56.7h22.7
					c-0.1-25.1-0.7-27.4-0.7-56.7c0-5.2,0.1-9.7,0.1-13.4h-3.7c0,0-4.6-0.5-9-1.7c-4.4-1.3-5.7-1.8-5.7-1.8S487.9,427.3,493.7,427.2
					"/>
			</g>
		</g>
	</g>
</g>
<path opacity="0.19" fill="#424242" d="M454.5,70.9c0.3-0.2,0.6-0.4,0.8-0.5c0-2.8,0-5.8,0-9.3c0-28.2-0.4-31.2-0.5-54.1l-0.9,0
	c0,0-2.1-0.5-4.1-1.9c-2-1.3-2.6-1.9-2.6-1.9s1.8,0.9,4.5,0.7c1.3-0.1,2.4-0.5,3.2-1c0-0.9,0-1.9,0-2.9H444c0,22.8,0.1,28.4,0.2,44
	c1.4,0.9,2.7,0.9,3.9,0.9c1.3,0,3.1-0.6,3.1-0.6s-3.1,3.1-5.1,3.1c-0.7,0-1.3-0.1-1.8-0.3c0,3.9,0,8.5,0,14
	c0,31.6,0.4,31.6,0.4,63.2c0,14.3-0.1,22.1-0.2,29.3c0.7,0.4,1.6,0.7,2.7,0.7c2.7,0.1,4.5-0.7,4.5-0.7s-0.6,0.6-2.6,1.9
	c-2,1.3-4.1,1.9-4.1,1.9l-0.4,0c-0.1,7.4-0.2,15.3-0.2,30c0,27.6-0.2,31.1-0.2,52.6c0.2,0.1,0.3,0.2,0.5,0.4
	c1.5,1.2,3.1,1.2,4.3,1.2c1.3,0,3.1-0.6,3.1-0.6s-3.1,3.1-5.1,3.1c-1.1,0-2.1-0.4-2.8-0.7c0,2.2,0,4.6,0,7.2c0,31.6,1,31.6,1,63.2
	c0,3.3,0,6.3,0,9c0.8,0.5,2,1.1,3.4,1.2c2.7,0.1,4.5-0.7,4.5-0.7s-0.6,0.6-2.6,1.9c-2,1.3-4.1,1.9-4.1,1.9l-1.2,0
	c-0.2,16-0.7,21.7-0.8,38.5c1.5,1.2,3,1.2,4.2,1.2c1.3,0,3.1-0.6,3.1-0.6s-3.1,3.1-5.1,3.1c-0.8,0-1.6-0.2-2.2-0.4
	c0,2.5,0,5.2,0,8.2c0,31.6,0.6,31.6,0.6,63.2c0,2.9,0,5.4,0,7.8c0.8,0.5,1.9,1,3.2,1.1c2.7,0.1,4.5-0.7,4.5-0.7s-0.6,0.6-2.6,1.9
	c-2,1.3-4.1,1.9-4.1,1.9l-1,0c-0.1,19.5-0.3,23.9-0.3,48h10.2c0-28.1,0-25,0-60c0-13.7,0.1-28.7,0.2-44.2c-0.7,0.3-1.5,0.5-2.3,0.5
	c-2,0-5.1-3.1-5.1-3.1s1.8,0.6,3.1,0.6c1.3,0,2.8,0,4.3-1.2c0,0,0,0,0.1,0c0-5.2,0-10.5,0-15.7c0-21.9,0.3-43.9,0.3-63.2
	c0-16.9,0-31.7,0-42.8c-0.6,0.2-1.4,0.4-2.2,0.4c-2,0-5.1-3.1-5.1-3.1s1.8,0.6,3.1,0.6c1.2,0,2.7,0,4.2-1.2c0-10.8,0-17.2,0-17.2
	c0-31.6-0.5-31.6-0.5-63.2c0-31.6,0.5-31.6,0.5-63.2c0-26.7,0.1-30.8,0.1-50.4c-0.7,0.4-1.9,0.8-3.1,0.8c-2,0-5.1-3.1-5.1-3.1
	s1.8,0.6,3.1,0.6S452.9,72.1,454.5,70.9z M417.6,303.2c-0.4-0.1-0.8-0.1-1.2-0.2c-4.7-0.9-9.4-0.9-13.4-0.9c-3.9,0-9.4,0.5-9.4,0.5
	s9.4-2.3,15.7-2.3c3.1,0,6,0.2,8.2,0.4c-0.9-17.9-3.2-22.6-3.2-48.3c0-4.9,0-9,0.1-12.6c-1.9-0.2-4-0.3-6.4-0.4
	c-8.3-0.1-13.7,0.5-13.7,0.5s1.8-0.4,8-1.4c5.3-0.8,10.6-1.2,12.1-1.3c0.2-17.5,0.8-22.4,0.8-47.8c0-10.1-0.1-17-0.3-22.7
	c-4.1-0.6-8.1-0.6-11.5-0.6c-3.9,0-9.4,0.5-9.4,0.5s9.4-2.3,15.7-2.3c1.8,0,3.6,0.1,5.2,0.2c-0.4-10.7-1-18-1-37.9
	c0-31.5,0.7-31.5,0.7-62.9c0-7.9,0.1-13.8,0.4-18.8c-3.3-0.3-6.4-0.3-9.2-0.3c-3.9,0-9.4,0.5-9.4,0.5s9.4-2.3,15.7-2.3
	c1,0,2,0,3,0.1c0.7-13.2,1.9-19.7,1.9-42.1c0-0.2-0.1-0.5-0.2-0.7h-32.4c0,0.2,0,0.5,0,0.7v1.1l6.6,0c0,0,6.4,0.4,12.6,1.4
	c6.3,1,8,1.4,8,1.4s-5.4-0.6-13.7-0.5c-6.9,0.1-12,1.1-13.6,1.4c-0.2,26.8-1.9,28.4-1.9,58.1c1.9-0.3,6.1-0.8,10.7-0.8
	c6.3,0,15.7,2.3,15.7,2.3s-5.5-0.5-9.4-0.5c-3.9,0-8.6,0-13.4,0.9c-1.4,0.3-2.6,0.4-3.6,0.5c0.1,29.2,1.9,30,1.9,60.6l2.7,0
	c0,0,6.4,0.4,12.6,1.4c6.3,1,8,1.4,8,1.4s-5.4-0.6-13.7-0.5c-3.9,0-7.2,0.4-9.6,0.7c0,26.9-0.3,29.4-0.3,55.1
	c1.9-0.2,4.3-0.3,6.8-0.3c6.3,0,15.7,2.3,15.7,2.3s-5.5-0.5-9.4-0.5c-3.8,0-8.4,0-13,0.9c0,0.8,0,1.6,0,2.5
	c0,31.5-2.5,31.5-2.5,62.9c0,2.5,0,4.8,0,6.9l6.9,0c0,0,6.4,0.4,12.6,1.4c6.3,1,8,1.4,8,1.4s-5.4-0.6-13.7-0.5
	c-7.5,0.1-12.9,1.3-13.9,1.5c-0.1,21.4-0.4,24.9-0.4,52.4c0,1.9,0,3.8,0,5.5c2.2-0.3,5.7-0.6,9.5-0.6c6.3,0,15.7,2.3,15.7,2.3
	s-5.5-0.5-9.4-0.5c-3.9,0-8.6,0-13.4,0.9c-0.8,0.2-1.6,0.3-2.4,0.4c0.3,23.8,1.7,26.4,1.7,55c0,2.1,0,4,0,5.8l1.6,0
	c0,0,6.4,0.4,12.6,1.4c6.3,1,8,1.4,8,1.4s-5.4-0.6-13.7-0.5c-3.4,0-6.3,0.3-8.6,0.6c-0.4,23.2-2.6,26-2.6,54.3c0,0.4,0,0.7,0,1.1
	c2.1-0.2,5-0.4,8-0.4c6.3,0,15.7,2.3,15.7,2.3s-5.5-0.5-9.4-0.5c-3.9,0-8.6,0-13.4,0.9c-0.3,0.1-0.6,0.1-0.9,0.2
	c0.2,26.6,3.1,29,3.4,55.2H417c0-0.6,0-1.3,0-1.9c-2.4-0.4-6.6-1-11.6-1.1c-8.3-0.1-13.7,0.5-13.7,0.5s1.8-0.4,8-1.4
	c6.3-1,12.6-1.4,12.6-1.4l4.7,0c0-22.4-0.1-25.6-0.5-53.6c-0.1-6.7-0.3-11.9-0.5-16.4c-0.6-0.1-1.3-0.2-1.9-0.3
	c-4.7-0.9-9.4-0.9-13.4-0.9c-3.9,0-9.4,0.5-9.4,0.5s9.4-2.3,15.7-2.3c3.5,0,6.7,0.3,8.9,0.5c-0.8-14.6-2.1-20.6-2.1-44.1
	c0-31.5,4.1-31.5,4.1-62.9C417.8,310.7,417.7,306.7,417.6,303.2z M241.9,427.1c3.9-0.1,7.1-0.9,8.8-1.5c0.6-15.7,1.7-21.4,1.7-45.8
	c0-13.3-0.1-21.1-0.2-27.9c-1.6,0.3-4.1,0.7-6.8,0.7c-4.5,0-11.3-2.9-11.3-2.9s4,0.6,6.8,0.6c2.8,0,6.2,0,9.6-1.2
	c0.6-0.2,1.1-0.3,1.6-0.4c-0.2-8.2-0.3-16.1-0.3-32.5c0-23.7-0.8-29.7-1.2-44.5l-0.8,0c0,0-4.6-0.5-9.1-1.7
	c-4.5-1.3-5.8-1.8-5.8-1.8s3.9,0.8,9.9,0.7c2.2,0,4.1-0.3,5.7-0.6c-0.1-4.3-0.1-9.3-0.1-15.6c0-28.4,0.9-31.4,1.1-54.5
	c-1.3,0.2-2.8,0.3-4.4,0.3c-4.5,0-11.3-2.9-11.3-2.9s4,0.6,6.8,0.6c2.6,0,5.8,0,8.9-0.9c0-1.9,0-3.9,0-6.1c0-31.8-0.8-31.8-0.8-63.6
	c0-31.8-0.4-31.8-0.4-63.5c0-1.5,0-2.9,0-4.2c-1.1,0.3-4.4,1-8.1,1c-4.5,0-11.3-2.9-11.3-2.9s4,0.6,6.8,0.6c2.8,0,6.2,0,9.6-1.2
	c1.1-0.4,2.1-0.6,3-0.7c0.1-24.2,0.9-27,0.9-54.7h-24c0,8.1,0.1,14.1,0.1,19.2c1.5,1.1,3.9,2.6,6.9,3.3c5.1,1.2,8.5,0.6,8.5,0.6
	s-1.1,0.6-5.1,1.7c-4,1.2-7.9,1.2-7.9,1.2l-2.3-0.5c0.2,9.9,0.5,17.5,0.5,36.6c0,31.8-1.6,31.8-1.6,63.6c0,0.6,0,1.2,0,1.7
	c1.8,0.5,4.7,1.2,8.2,1.3c6,0.1,9.9-0.7,9.9-0.7s-1.3,0.5-5.8,1.8c-4.5,1.3-9.1,1.7-9.1,1.7l-3.2,0c0.2,26.1,2,28,2,57.7
	c0,15.5-0.1,23.5-0.1,31.3c0,0,0,0,0,0c3.4,1.2,6.8,1.2,9.6,1.2c2.8,0,6.8-0.6,6.8-0.6s-6.8,2.9-11.3,2.9c-1.9,0-3.7-0.2-5.2-0.4
	c-0.1,7.2-0.1,15-0.1,29.3c0,31.8-1.8,31.8-1.8,63.6c0,29.9,0.2,31.7,0.2,58.3c0,0,0,0,0,0c3.4,1.2,6.8,1.2,9.6,1.2
	c2.8,0,6.8-0.6,6.8-0.6s-6.8,2.9-11.3,2.9c-1.9,0-3.7-0.2-5.1-0.4v2.2c0,31.8,0.2,31.8,0.2,63.5c0,29.3,1.2,31.6,1.4,56.6H251
	c-0.1-25-0.7-27.4-0.6-56.6c0-5.3,0.1-9.6,0.2-13.5l-3.6,0c0,0-4.6-0.5-9.1-1.7c-4.5-1.3-5.8-1.8-5.8-1.8S235.9,427.2,241.9,427.1z
	 M116.4,7.6c0,0-3.4-0.5-6.8-1.9c-3.4-1.3-4.3-1.9-4.3-1.9s2.9,0.9,7.4,0.7c2.1-0.1,3.9-0.5,5.2-1c0-1.1,0-2.3,0-3.5H100
	c0,23.3,0.2,28.9,0.3,44.6c2.3,0.9,4.5,0.9,6.4,0.9c2.1,0,5.1-0.6,5.1-0.6s-5.1,3.1-8.5,3.1c-1.1,0-2.1-0.1-3-0.3c0,3.9,0,8.5,0,14
	c0,31.6,0.6,31.6,0.6,63.2c0,14.3-0.1,22.1-0.3,29.3c1.2,0.4,2.7,0.7,4.4,0.7c4.5,0.1,7.4-0.7,7.4-0.7s-1,0.6-4.3,1.9
	c-3.4,1.3-6.8,1.9-6.8,1.9l-0.7,0c-0.2,7.4-0.3,15.3-0.3,30c0,27.6-0.3,31.1-0.3,52.6c0.3,0.1,0.6,0.2,0.9,0.4
	c2.5,1.2,5.1,1.2,7.2,1.2c2.1,0,5.1-0.6,5.1-0.6s-5.1,3.1-8.5,3.1c-1.8,0-3.5-0.4-4.7-0.7c0,2.2,0,4.6,0,7.2
	c0,31.6,1.7,31.6,1.7,63.2c0,3.3,0,6.3,0,9c1.3,0.5,3.3,1.1,5.7,1.2c4.5,0.1,7.4-0.7,7.4-0.7s-0.9,0.6-4.3,1.9
	c-3.4,1.3-6.8,1.9-6.8,1.9l-2,0c-0.3,16-1.1,21.7-1.4,38.5c2.5,1.2,5,1.2,7.1,1.2c2.1,0,5.1-0.6,5.1-0.6s-5.1,3.1-8.5,3.1
	c-1.4,0-2.6-0.2-3.7-0.4c0,2.5,0,5.2,0,8.2c0,31.6,1,31.6,1,63.2c0,2.9,0,5.4,0,7.8c1.3,0.5,3.2,1,5.4,1.1c4.5,0.1,7.4-0.7,7.4-0.7
	s-0.9,0.6-4.3,1.9c-3.4,1.3-6.8,1.9-6.8,1.9l-1.6,0c-0.1,19.3-0.5,23.8-0.5,47.4h17c0-27.4,0-24.6,0-59.4c0-13.7,0.2-28.7,0.4-44.2
	c-1.1,0.3-2.4,0.5-3.9,0.5c-3.4,0-8.5-3.1-8.5-3.1s3,0.6,5.1,0.6c2.1,0,4.7,0,7.2-1.2c0,0,0.1,0,0.1,0c0-5.2,0.1-10.5,0.1-15.7
	c0-21.9,0.6-43.9,0.6-63.2c0-16.9,0-31.7,0-42.8c-1.1,0.2-2.3,0.4-3.7,0.4c-3.4,0-8.5-3.1-8.5-3.1s3,0.6,5.1,0.6c2.1,0,4.6,0,7-1.2
	c0-10.7-0.1-17.2-0.1-17.2c0-31.6-0.8-31.6-0.8-63.2c0-31.6,0.9-31.6,0.9-63.2c0-26.7,0.2-30.8,0.2-50.4c-1.2,0.4-3.1,0.8-5.1,0.8
	c-3.4,0-8.5-3.1-8.5-3.1s3,0.6,5.1,0.6c2.1,0,4.7,0,7.2-1.2c0.5-0.2,0.9-0.4,1.3-0.5c0-2.8,0-5.8,0-9.3c0-28.2-0.6-31.2-0.8-54.1
	L116.4,7.6z M40.6,117.6c2.5,0,4.8-0.3,6.5-0.6c0.3-23.2,2-26,2-54.3c0-0.4,0-0.7,0-1.1C47.4,61.8,45.3,62,43,62
	c-4.8,0-11.9-2.3-11.9-2.3s4.2,0.5,7.1,0.5c3,0,6.5,0,10.1-0.9c0.2-0.1,0.5-0.1,0.7-0.2C48.8,31.2,46.5,30,46.5,0H21.1
	c0,2.1,0,4,0,5.9c1.8,0.4,5,1,8.8,1.1C36.2,7,40.3,6.4,40.3,6.4s-1.3,0.4-6.1,1.4c-4.7,1-9.5,1.4-9.5,1.4l-3.5,0
	c0,22.4,0.1,25.6,0.4,53.6c0.1,6.7,0.2,11.9,0.4,16.4c0.5,0.1,1,0.2,1.5,0.3c3.6,0.9,7.1,0.9,10.1,0.9c3,0,7.1-0.5,7.1-0.5
	s-7.1,2.3-11.9,2.3c-2.6,0-5.1-0.3-6.7-0.5c0.6,14.6,1.6,20.6,1.6,44.1c0,31.5-3.1,31.5-3.1,62.9c0,4.7,0.1,8.7,0.2,12.2
	c0.3,0.1,0.6,0.1,0.9,0.2c3.6,0.9,7.1,0.9,10.1,0.9c3,0,7.1-0.5,7.1-0.5s-7.1,2.3-11.9,2.3c-2.3,0-4.5-0.2-6.2-0.4
	c0.7,17.9,2.4,22.6,2.4,48.3c0,4.9,0,9,0,12.6c1.4,0.2,3.1,0.3,4.9,0.4c6.3,0.1,10.4-0.5,10.4-0.5s-1.3,0.4-6.1,1.4
	c-4,0.8-8,1.2-9.2,1.3c-0.2,17.5-0.6,22.4-0.6,47.8c0,10.1,0.1,17,0.3,22.7c3.1,0.6,6.1,0.6,8.7,0.6c3,0,7.1-0.5,7.1-0.5
	s-7.1,2.3-11.9,2.3c-1.4,0-2.7-0.1-3.9-0.2c0.3,10.7,0.7,18,0.7,37.9c0,31.5-0.5,31.5-0.5,62.9c0,7.9-0.1,13.8-0.3,18.8
	c2.5,0.3,4.9,0.3,7,0.3c3,0,7.1-0.5,7.1-0.5s-7.1,2.3-11.9,2.3c-0.8,0-1.5,0-2.3-0.1c-0.5,12.5-1.3,19-1.4,38.8h6.3
	c-1.7-0.4-2.2-0.6-2.2-0.6s4.1,0.6,10.4,0.5c5.2-0.1,9.1-1.1,10.3-1.4c0.1-26.8,1.4-28.4,1.4-58.1c-1.4,0.3-4.6,0.8-8.1,0.8
	c-4.8,0-11.9-2.3-11.9-2.3s4.2,0.5,7.1,0.5c3,0,6.5,0,10.1-0.9c1-0.3,1.9-0.4,2.7-0.5c-0.1-29.2-1.4-30-1.4-60.6l-2,0
	c0,0-4.8-0.4-9.5-1.4c-4.7-1-6.1-1.4-6.1-1.4s4.1,0.6,10.4,0.5c2.9,0,5.4-0.4,7.3-0.7c0-27,0.2-29.4,0.2-55.1
	c-1.5,0.2-3.2,0.3-5.1,0.3c-4.8,0-11.9-2.3-11.9-2.3s4.2,0.5,7.1,0.5c2.9,0,6.4,0,9.9-0.9c0-0.8,0-1.6,0-2.5
	c0-31.5,1.9-31.5,1.9-62.9c0-2.5,0-4.7,0-6.9l-5.2,0c0,0-4.8-0.4-9.5-1.4c-4.7-1-6.1-1.4-6.1-1.4s4.1,0.6,10.4,0.5
	c5.7-0.1,9.7-1.3,10.5-1.5c0.1-21.4,0.3-24.9,0.3-52.4c0-1.9,0-3.8,0-5.5c-1.7,0.3-4.3,0.6-7.2,0.6c-4.8,0-11.9-2.3-11.9-2.3
	s4.2,0.5,7.1,0.5c3,0,6.5,0,10.1-0.9c0.6-0.2,1.2-0.3,1.8-0.4c-0.2-23.8-1.3-26.4-1.3-55c0-2.1,0-4,0-5.8l-1.2,0
	c0,0-4.8-0.4-9.5-1.4c-4.7-1-6.1-1.4-6.1-1.4S34.3,117.7,40.6,117.6z"/>
<path opacity="0.19" fill="#BBBDBF" d="M308,375.8c-0.7-0.5-1.8-1.2-3.1-1.3c-2.3-0.1-3.8,0.7-3.8,0.7s0.5-0.5,2.2-1.8
	c1.7-1.2,3.5-1.7,3.5-1.7l1.2,0c-0.1-25.9-0.8-27.9-0.8-57.4c0-15.5,0-23.4,0-31.1c0,0,0,0,0,0c-1.3-1.1-2.6-1.1-3.7-1.1
	c-1.1,0-2.6,0.6-2.6,0.6s2.6-2.9,4.3-2.9c0.7,0,1.4,0.2,2,0.4c0-7.1,0-15,0-29.1c0-31.6,0.7-31.6,0.7-63.2c0-29.8-0.1-31.5-0.1-58
	c0,0,0,0,0,0c-1.3-1.1-2.6-1.1-3.7-1.1c-1.1,0-2.6,0.6-2.6,0.6s2.6-2.9,4.3-2.9c0.7,0,1.4,0.2,1.9,0.4v-2.2
	c0-31.6-0.1-31.6-0.1-63.2c0-31-0.5-31.6-0.5-61.5h-8.7c0,29.9,0.3,30.5,0.2,61.5c0,5.2,0,9.6-0.1,13.4l1.4,0c0,0,1.8,0.5,3.5,1.7
	c1.7,1.2,2.2,1.8,2.2,1.8s-1.5-0.8-3.8-0.7c-1.5,0.1-2.7,0.9-3.4,1.5c-0.2,15.7-0.6,21.3-0.6,45.6c0,13.3,0,21,0.1,27.8
	c0.6-0.3,1.6-0.7,2.6-0.7c1.7,0,4.3,2.9,4.3,2.9s-1.5-0.6-2.6-0.6c-1.1,0-2.4,0-3.7,1.1c-0.2,0.2-0.4,0.3-0.6,0.4
	c0.1,8.1,0.1,16,0.1,32.3c0,23.6,0.3,29.6,0.5,44.3l0.3,0c0,0,1.8,0.5,3.5,1.7c1.7,1.2,2.2,1.8,2.2,1.8s-1.5-0.8-3.8-0.7
	c-0.8,0-1.6,0.3-2.2,0.6c0,4.3,0.1,9.3,0.1,15.5c0,28.3-0.4,31.3-0.4,54.2c0.5-0.2,1.1-0.3,1.7-0.3c1.7,0,4.3,2.9,4.3,2.9
	s-1.5-0.6-2.6-0.6c-1,0-2.2,0-3.4,0.9c0,1.9,0,3.9,0,6.1c0,31.6,0.3,31.6,0.3,63.2c0,31.6,0.1,31.6,0.1,63.2c0,1.5,0,2.9,0,4.2
	c0.4-0.3,1.7-1,3.1-1c1.7,0,4.3,2.9,4.3,2.9s-1.5-0.6-2.6-0.6c-1.1,0-2.4,0-3.7,1.1c-0.4,0.4-0.8,0.6-1.1,0.7
	c-0.1,24.2-0.3,26.9-0.3,54.9h9.2c0-8.4,0-14.5-0.1-19.6c-0.6-1.1-1.5-2.6-2.6-3.3c-1.9-1.1-3.2-0.6-3.2-0.6s0.4-0.6,1.9-1.7
	c1.5-1.1,3-1.1,3-1.1l0.9,0.5c-0.1-9.8-0.2-17.4-0.2-36.4c0-31.6,0.6-31.6,0.6-63.2C308,377,308,376.4,308,375.8z M346.7,72.3
	c0.3-0.2,0.6-0.4,0.8-0.5c0-2.8,0-5.8,0-9.3c0-28.1-0.4-31.1-0.5-53.8l-0.9,0c0,0-2.1-0.5-4.1-1.9c-2-1.3-2.6-1.9-2.6-1.9
	s1.8,0.9,4.5,0.7c1.3-0.1,2.4-0.5,3.2-1c0-1.5,0-3.1,0-4.7h-10.8c0,24.2,0.1,29.7,0.2,45.6c1.4,0.9,2.7,0.9,3.9,0.9
	c1.3,0,3.1-0.6,3.1-0.6s-3.1,3.1-5.1,3.1c-0.7,0-1.3-0.1-1.8-0.3c0,3.9,0,8.4,0,14c0,31.4,0.4,31.4,0.4,62.8c0,14.2-0.1,22-0.2,29.2
	c0.7,0.4,1.6,0.7,2.7,0.7c2.7,0.1,4.5-0.7,4.5-0.7s-0.6,0.6-2.6,1.9c-2,1.3-4.1,1.9-4.1,1.9l-0.4,0c-0.1,7.4-0.2,15.2-0.2,29.9
	c0,27.5-0.2,30.9-0.2,52.3c0.2,0.1,0.3,0.2,0.5,0.4c1.5,1.2,3.1,1.2,4.3,1.2c1.3,0,3.1-0.6,3.1-0.6s-3.1,3.1-5.1,3.1
	c-1.1,0-2.1-0.4-2.8-0.7c0,2.2,0,4.5,0,7.1c0,31.4,1,31.4,1,62.8c0,3.3,0,6.3,0,9c0.8,0.5,2,1.1,3.4,1.2c2.7,0.1,4.5-0.7,4.5-0.7
	s-0.6,0.6-2.6,1.9c-2,1.3-4.1,1.9-4.1,1.9l-1.2,0c-0.2,15.9-0.7,21.6-0.8,38.3c1.5,1.2,3,1.2,4.2,1.2c1.3,0,3.1-0.6,3.1-0.6
	s-3.1,3.1-5.1,3.1c-0.8,0-1.6-0.2-2.2-0.4c0,2.5,0,5.2,0,8.2c0,31.4,0.6,31.4,0.6,62.8c0,2.8,0,5.4,0,7.8c0.8,0.5,1.9,1,3.2,1.1
	c2.7,0.1,4.5-0.7,4.5-0.7s-0.6,0.6-2.6,1.9c-2,1.3-4.1,1.9-4.1,1.9l-1,0c-0.1,20.2-0.3,24.1-0.3,50.9c0,0.2,0,0.5,0,0.7h10.2
	c0-0.2,0-0.5,0-0.7c0-31.4,0-26.8,0-62.8c0-13.6,0.1-28.6,0.2-43.9c-0.7,0.3-1.5,0.5-2.3,0.5c-2,0-5.1-3.1-5.1-3.1s1.8,0.6,3.1,0.6
	c1.3,0,2.8,0,4.3-1.2c0,0,0,0,0.1,0c0-5.2,0-10.4,0-15.7c0-21.8,0.3-43.6,0.3-62.8c0-16.8,0-31.6,0-42.6c-0.6,0.2-1.4,0.4-2.2,0.4
	c-2,0-5.1-3.1-5.1-3.1s1.8,0.6,3.1,0.6c1.2,0,2.7,0,4.2-1.2c0-10.7,0-17.1,0-17.1c0-31.4-0.5-31.4-0.5-62.8
	c0-31.4,0.5-31.4,0.5-62.8c0-26.5,0.1-30.6,0.1-50.2c-0.7,0.4-1.9,0.8-3.1,0.8c-2,0-5.1-3.1-5.1-3.1s1.8,0.6,3.1,0.6
	S345.1,73.6,346.7,72.3z M188.2,425.4c2.6-0.1,4.6-0.9,5.7-1.5c0.4-15.7,1.1-21.3,1.1-45.6c0-13.3-0.1-21-0.2-27.8
	c-1,0.3-2.6,0.7-4.4,0.7c-2.9,0-7.3-2.9-7.3-2.9s2.6,0.6,4.4,0.6c1.8,0,4,0,6.2-1.1c0.4-0.2,0.7-0.3,1-0.4c-0.1-8.1-0.2-16-0.2-32.3
	c0-23.6-0.5-29.6-0.8-44.3l-0.5,0c0,0-3-0.5-5.9-1.7c-2.9-1.2-3.7-1.8-3.7-1.8s2.5,0.8,6.4,0.7c1.4,0,2.7-0.3,3.7-0.6
	c-0.1-4.3-0.1-9.3-0.1-15.5c0-28.3,0.6-31.3,0.7-54.2c-0.8,0.2-1.8,0.3-2.8,0.3c-2.9,0-7.3-2.9-7.3-2.9s2.6,0.6,4.4,0.6
	c1.7,0,3.7,0,5.8-0.9c0-1.9,0-3.9,0-6.1c0-31.6-0.5-31.6-0.5-63.2c0-31.6-0.2-31.6-0.2-63.2c0-1.5,0-2.9,0-4.2c-0.7,0.3-2.8,1-5.2,1
	c-2.9,0-7.3-2.9-7.3-2.9s2.6,0.6,4.4,0.6c1.8,0,4,0,6.2-1.1c0.7-0.4,1.4-0.6,1.9-0.7c0.1-24.3,0.6-26.9,0.6-55.1h-15.5
	c0,8.4,0,14.6,0.1,19.7c1,1.1,2.5,2.6,4.5,3.3c3.3,1.1,5.5,0.6,5.5,0.6s-0.7,0.6-3.3,1.7c-2.6,1.1-5.1,1.1-5.1,1.1l-1.5-0.5
	c0.1,9.8,0.3,17.4,0.3,36.4c0,31.6-1,31.6-1,63.2c0,0.6,0,1.2,0,1.7c1.2,0.5,3,1.2,5.3,1.3c3.9,0.1,6.4-0.7,6.4-0.7
	s-0.8,0.5-3.7,1.8c-2.9,1.2-5.9,1.7-5.9,1.7l-2,0c0.1,25.9,1.3,27.9,1.3,57.4c0,15.5,0,23.4-0.1,31.1c0,0,0,0,0,0
	c2.2,1.1,4.4,1.1,6.2,1.1c1.8,0,4.4-0.6,4.4-0.6s-4.4,2.9-7.3,2.9c-1.2,0-2.4-0.2-3.3-0.4c0,7.1-0.1,15-0.1,29.1
	c0,31.6-1.1,31.6-1.1,63.2c0,29.8,0.1,31.5,0.1,58c0,0,0,0,0,0c2.2,1.1,4.4,1.1,6.2,1.1c1.8,0,4.4-0.6,4.4-0.6s-4.4,2.9-7.3,2.9
	c-1.2,0-2.4-0.2-3.3-0.4v2.2c0,31.6,0.1,31.6,0.1,63.2c0,31,0.9,31.6,0.9,61.4h14.7c0-29.8-0.5-30.4-0.4-61.4
	c0-5.2,0.1-9.6,0.1-13.4l-2.4,0c0,0-3-0.5-5.9-1.7c-2.9-1.2-3.7-1.8-3.7-1.8S184.3,425.6,188.2,425.4z M70.5,376.4
	c-0.7-0.5-1.8-1.2-3.1-1.3c-2.3-0.1-3.8,0.7-3.8,0.7s0.5-0.5,2.2-1.8c1.7-1.2,3.5-1.7,3.5-1.7l1.2,0c-0.1-25.9-0.8-27.9-0.8-57.4
	c0-15.5,0-23.4,0-31.1c0,0,0,0,0,0c-1.3-1.1-2.6-1.1-3.7-1.1c-1.1,0-2.6,0.6-2.6,0.6s2.6-2.9,4.3-2.9c0.7,0,1.4,0.2,2,0.4
	c0-7.2,0-15,0-29.1c0-31.6,0.7-31.6,0.7-63.2c0-29.8-0.1-31.5-0.1-58c0,0,0,0,0,0c-1.3-1.1-2.6-1.1-3.7-1.1c-1.1,0-2.6,0.6-2.6,0.6
	s2.6-2.9,4.3-2.9c0.7,0,1.4,0.2,1.9,0.4v-2.2c0-31.6-0.1-31.6-0.1-63.2c0-31.2-0.5-31.6-0.5-62.1h-8.7c0,30.5,0.3,30.9,0.2,62.1
	c0,5.2,0,9.6-0.1,13.4l1.4,0c0,0,1.8,0.5,3.5,1.7c1.7,1.2,2.2,1.8,2.2,1.8s-1.5-0.8-3.8-0.7c-1.5,0.1-2.7,0.9-3.4,1.5
	c-0.2,15.7-0.6,21.3-0.6,45.6c0,13.3,0,21,0.1,27.8c0.6-0.3,1.6-0.7,2.6-0.7c1.7,0,4.3,2.9,4.3,2.9s-1.5-0.6-2.6-0.6
	c-1.1,0-2.4,0-3.7,1.1c-0.2,0.2-0.4,0.3-0.6,0.4c0.1,8.1,0.1,16,0.1,32.3c0,23.6,0.3,29.6,0.5,44.3l0.3,0c0,0,1.8,0.5,3.5,1.7
	c1.7,1.2,2.2,1.8,2.2,1.8s-1.5-0.8-3.8-0.7c-0.8,0-1.6,0.3-2.2,0.6c0,4.3,0.1,9.3,0.1,15.5c0,28.3-0.4,31.3-0.4,54.2
	c0.5-0.2,1.1-0.3,1.7-0.3c1.7,0,4.3,2.9,4.3,2.9s-1.5-0.6-2.6-0.6c-1,0-2.2,0-3.4,0.9c0,1.9,0,3.9,0,6.1c0,31.6,0.3,31.6,0.3,63.2
	c0,31.6,0.1,31.6,0.1,63.2c0,1.5,0,2.9,0,4.2c0.4-0.3,1.7-1,3.1-1c1.7,0,4.3,2.9,4.3,2.9s-1.5-0.6-2.6-0.6s-2.4,0-3.7,1.1
	c-0.4,0.4-0.8,0.6-1.1,0.7c0,24.1-0.3,26.9-0.3,54.3h9.2c0-8.1,0-14-0.1-19c-0.6-1.1-1.5-2.6-2.6-3.3c-1.9-1.1-3.2-0.6-3.2-0.6
	s0.4-0.6,1.9-1.7c1.5-1.1,3-1.1,3-1.1l0.9,0.5c-0.1-9.8-0.2-17.4-0.2-36.4c0-31.6,0.6-31.6,0.6-63.2C70.5,377.6,70.5,377,70.5,376.4
	z"/>
</svg>
