<?xml version="1.0" encoding="utf-8"?>
<!-- Generator: Adobe Illustrator 18.1.1, SVG Export Plug-In . SVG Version: 6.00 Build 0)  -->
<svg version="1.1" id="initials" xmlns="http://www.w3.org/2000/svg" xmlns:xlink="http://www.w3.org/1999/xlink" x="0px" y="0px"
	 viewBox="0 0 177.9 161.9" enable-background="new 0 0 177.9 161.9" xml:space="preserve">
<path fill="#8B8177" d="M41.9,56.3h-14V0H0v139.6h27.9V81.2h14v58.5h8.5c1.7-16,4.8-30.5,9.7-43.9l8.1-5.3c0,0-7.6,14.8-11.2,49.2
	h12.7V83.7c-3.7,3.2-8.1,6.6-9,6.5c0,0,3.2-16.1,7.9-17.2c0.4-0.1,0.7-0.1,1.1-0.2V0H41.9V56.3z M136.7,0l-8.6,84.6l-8-84.6H79.8
	v49.3c2.3,0.7,3.7,3,2.8,5c-0.4,0.9-1.4,2.4-2.8,4.2v8c3.3-3.2,7.8-6.8,10.5-6.1c4.9,1.2,5.8,6.6,2.8,7.9c-1.9,0.9-8.7,2.3-13.4,2.8
	v68.6h22.3V47.3l10.6,92.4H139l10.6-91.4v91.4h27.5V0H136.7z M82.9,46c0,0-3.6-16.2,0.1-19.5c3.6-3.2,8.2-0.5,7.6,2.7
	C90,32.4,84.3,45.4,82.9,46z M99.1,44.8c-1.4,1.8-13.4,10.9-13.8,11.5c0.1-0.7,3.3-16.1,7.9-17.3C97.8,37.8,101,42.3,99.1,44.8z
	 M107.1,24.9c-1.3,1.8-14.1,11.5-13.8,11.5c0,0,3.1-16,7.9-17.3C105.8,17.7,109,22.2,107.1,24.9z"/>
<g>
	<path fill="#E05B26" d="M6.3,157.1v2.4c0,1.6-0.8,2.4-2.5,2.4H3.3c-1.6,0-2.5-0.8-2.5-2.4v-3.1h0.8v3.1c0,1,0.6,1.6,1.7,1.6h0.4
		c1.1,0,1.7-0.5,1.7-1.6v-2.4c0-0.9-0.3-1.4-1-1.9l-2.3-1.8c-1-0.7-1.3-1.5-1.3-2.6v-1.9c0-1.6,0.8-2.4,2.5-2.4h0.4
		c1.6,0,2.5,0.8,2.5,2.4v2.6H5.4v-2.6c0-1-0.5-1.6-1.7-1.6H3.4c-1.1,0-1.7,0.5-1.7,1.6v2c0,0.9,0.3,1.4,1,1.9l2.3,1.8
		C6,155.2,6.3,155.9,6.3,157.1z"/>
	<path fill="#E05B26" d="M14.3,161.8h-0.8l-0.6-3.2H9.3l-0.5,3.2H8l2.7-15.2h0.9L14.3,161.8z M9.5,157.8h3.3l-1.7-9.6L9.5,157.8z"/>
	<path fill="#E05B26" d="M17.3,161.9l-2.6-15.2h0.8l2.2,13.6l2.3-13.6h0.8l-2.6,15.2H17.3z"/>
	<path fill="#E05B26" d="M25.7,161.9H25c-1.7,0-2.5-0.8-2.5-2.5V149c0-1.6,0.8-2.4,2.5-2.4h0.7c1.7,0,2.5,0.8,2.5,2.4v10.5
		C28.2,161.1,27.4,161.9,25.7,161.9z M25.7,147.3H25c-1.1,0-1.7,0.5-1.7,1.6v10.5c0,1.1,0.6,1.6,1.7,1.6h0.7c1.1,0,1.7-0.5,1.7-1.6
		v-10.5C27.4,147.9,26.8,147.3,25.7,147.3z"/>
	<path fill="#E05B26" d="M35.6,156.7v5h-0.8v-5c0-1.3-0.6-1.9-1.9-1.9h-1.7v6.9h-0.8v-15.2h2.8c1.7,0,2.5,0.8,2.5,2.5v3
		c0,1.5-0.6,2.1-1.5,2.4C35.1,154.7,35.6,155.4,35.6,156.7z M33.1,147.4h-1.9v6.7h1.7c1.3,0,1.9-0.6,1.9-1.9V149
		C34.8,148,34.2,147.4,33.1,147.4z"/>
	<path fill="#E05B26" d="M40.6,156.6v5.2h-0.8v-5.2l-2.6-9.9H38l2.1,8.7l2.2-8.7h0.8L40.6,156.6z"/>
	<path fill="#4F483F" d="M52,153.7v-7h0.8v15.2H52v-7.3h-3.9v7.3h-0.8v-15.2h0.8v7H52z"/>
	<path fill="#4F483F" d="M58.2,161.9h-0.7c-1.7,0-2.5-0.8-2.5-2.5V149c0-1.6,0.8-2.4,2.5-2.4h0.7c1.7,0,2.5,0.8,2.5,2.4v10.5
		C60.7,161.1,59.9,161.9,58.2,161.9z M58.2,147.3h-0.7c-1.1,0-1.7,0.5-1.7,1.6v10.5c0,1.1,0.6,1.6,1.7,1.6h0.7
		c1.1,0,1.7-0.5,1.7-1.6v-10.5C59.9,147.9,59.3,147.3,58.2,147.3z"/>
	<path fill="#4F483F" d="M63.7,146.6V161H67v0.8h-4.2v-15.2H63.7z"/>
	<path fill="#4F483F" d="M69.7,161.8h-0.8v-15.2h0.8V161.8z"/>
	<path fill="#4F483F" d="M77.2,157.1v2.4c0,1.6-0.8,2.4-2.5,2.4h-0.5c-1.6,0-2.5-0.8-2.5-2.4v-3.1h0.8v3.1c0,1,0.6,1.6,1.7,1.6h0.4
		c1.1,0,1.7-0.5,1.7-1.6v-2.4c0-0.9-0.3-1.4-1-1.9l-2.3-1.8c-1-0.7-1.3-1.5-1.3-2.6v-1.9c0-1.6,0.8-2.4,2.5-2.4h0.4
		c1.6,0,2.5,0.8,2.5,2.4v2.6h-0.8v-2.6c0-1-0.5-1.6-1.7-1.6h-0.4c-1.1,0-1.7,0.5-1.7,1.6v2c0,0.9,0.3,1.4,1,1.9l2.3,1.8
		C76.8,155.2,77.2,155.9,77.2,157.1z"/>
	<path fill="#4F483F" d="M81.2,161.8v-14.4h-2.5v-0.8h5.8v0.8H82v14.4H81.2z"/>
	<path fill="#4F483F" d="M87.1,161.8h-0.8v-15.2h0.8V161.8z"/>
	<path fill="#4F483F" d="M94.8,156.2v3.3c0,1.6-0.8,2.5-2.5,2.5h-0.6c-1.7,0-2.5-0.8-2.5-2.5V149c0-1.6,0.8-2.4,2.5-2.4h0.6
		c1.6,0,2.5,0.8,2.5,2.4v2.8h-0.8v-2.9c0-1.1-0.5-1.6-1.7-1.6h-0.5c-1.1,0-1.7,0.5-1.7,1.6v10.5c0,1.1,0.6,1.6,1.7,1.6h0.6
		c1.1,0,1.6-0.5,1.6-1.6v-3.3H94.8z"/>
	<path fill="#4F483F" d="M100.2,148.6l0.1,10.1v3.1h-0.8v-15.2h1.1l3.1,13.6l3.1-13.6h1.1v15.2h-0.8v-3.2l0.1-9.9l-3,13.1h-0.8
		L100.2,148.6z"/>
	<path fill="#4F483F" d="M116,161.8h-0.8l-0.6-3.2H111l-0.5,3.2h-0.8l2.7-15.2h0.9L116,161.8z M111.2,157.8h3.3l-1.7-9.6
		L111.2,157.8z"/>
	<path fill="#4F483F" d="M122.8,161.8l-4.2-13.1l0.1,10.4v2.7h-0.8v-15.2h0.9l4.1,13.1l-0.1-10.4v-2.7h0.8v15.2H122.8z"/>
	<path fill="#4F483F" d="M131.9,161.8h-0.8l-0.6-3.2h-3.6l-0.5,3.2h-0.8l2.7-15.2h0.9L131.9,161.8z M127.1,157.8h3.3l-1.7-9.6
		L127.1,157.8z"/>
	<path fill="#4F483F" d="M136.4,154.9v-0.8h2.9v5.4c0,1.6-0.8,2.5-2.5,2.5h-0.7c-1.7,0-2.5-0.8-2.5-2.5V149c0-1.6,0.8-2.4,2.5-2.4
		h0.7c1.6,0,2.5,0.8,2.5,2.4v2.4h-0.8v-2.4c0-1.1-0.5-1.6-1.6-1.6h-0.6c-1.1,0-1.7,0.6-1.7,1.6v10.5c0,1.1,0.6,1.6,1.7,1.6h0.6
		c1.1,0,1.7-0.6,1.7-1.6v-4.6H136.4z"/>
	<path fill="#4F483F" d="M145.7,146.6v0.8h-3.5v6.2h3.4v0.8h-3.4v6.5h3.6v0.8h-4.4v-15.2H145.7z"/>
	<path fill="#4F483F" d="M148.5,148.6l0.1,10.1v3.1h-0.8v-15.2h1.1l3.1,13.6l3.1-13.6h1.1v15.2h-0.8v-3.2l0.1-9.9l-3,13.1h-0.8
		L148.5,148.6z"/>
	<path fill="#4F483F" d="M162.6,146.6v0.8h-3.5v6.2h3.4v0.8h-3.4v6.5h3.6v0.8h-4.4v-15.2H162.6z"/>
	<path fill="#4F483F" d="M169.5,161.8l-4.2-13.1l0.1,10.4v2.7h-0.8v-15.2h0.9l4.1,13.1l-0.1-10.4v-2.7h0.8v15.2H169.5z"/>
	<path fill="#4F483F" d="M174.6,161.8v-14.4h-2.5v-0.8h5.8v0.8h-2.5v14.4H174.6z"/>
</g>
</svg>
