<?xml version="1.0" encoding="utf-8"?>
<!-- Generator: Adobe Illustrator 18.1.1, SVG Export Plug-In . SVG Version: 6.00 Build 0)  -->
<!DOCTYPE svg PUBLIC "-//W3C//DTD SVG 1.1//EN" "http://www.w3.org/Graphics/SVG/1.1/DTD/svg11.dtd">
<svg version="1.1" id="Layer_1" xmlns="http://www.w3.org/2000/svg" xmlns:xlink="http://www.w3.org/1999/xlink" x="0px" y="0px"
	 viewBox="160.4 168.2 177.9 161.9" enable-background="new 160.4 168.2 177.9 161.9" xml:space="preserve">
<path opacity="0.28" fill="#FFFFFF" d="M202.3,224.5h-14v-56.3h-27.9v139.6h27.9v-58.5h14v58.5h8.5c1.7-16,4.8-30.5,9.7-43.9
	l8.1-5.3c0,0-7.6,14.8-11.2,49.2h12.7V252c-3.7,3.2-8.1,6.6-9,6.5c0,0,3.2-16.1,7.9-17.2c0.4-0.1,0.7-0.1,1.1-0.2v-72.9h-27.9V224.5
	z M297.1,168.2l-8.6,84.6l-8-84.6h-40.3v49.3c2.3,0.7,3.7,3,2.8,5c-0.4,0.9-1.4,2.4-2.8,4.2v8c3.3-3.2,7.8-6.8,10.5-6.1
	c4.9,1.2,5.8,6.6,2.8,7.9c-1.9,0.9-8.7,2.3-13.4,2.8v68.6h22.3v-92.4l10.6,92.4h26.3l10.6-91.4v91.4h27.5V168.2H297.1z M243.4,214.2
	c0,0-3.6-16.2,0.1-19.5c3.6-3.2,8.2-0.5,7.6,2.7C250.5,200.7,244.8,213.6,243.4,214.2z M259.5,213.1c-1.4,1.8-13.4,10.9-13.8,11.5
	c0.1-0.7,3.3-16.1,7.9-17.3C258.2,206.1,261.4,210.5,259.5,213.1z M267.5,193.1c-1.3,1.8-14.1,11.5-13.8,11.5c0,0,3.1-16,7.9-17.3
	C266.3,185.9,269.4,190.4,267.5,193.1z"/>
<g>
	<path fill="#FFFFFF" d="M166.7,325.4v2.4c0,1.6-0.8,2.4-2.5,2.4h-0.5c-1.6,0-2.5-0.8-2.5-2.4v-3.1h0.8v3.1c0,1,0.6,1.6,1.7,1.6h0.4
		c1.1,0,1.7-0.5,1.7-1.6v-2.4c0-0.9-0.3-1.4-1-1.9l-2.3-1.8c-1-0.7-1.3-1.5-1.3-2.6v-1.9c0-1.6,0.8-2.4,2.5-2.4h0.4
		c1.6,0,2.5,0.8,2.5,2.4v2.6h-0.8v-2.6c0-1-0.5-1.6-1.7-1.6h-0.4c-1.1,0-1.7,0.5-1.7,1.6v2c0,0.9,0.3,1.4,1,1.9l2.3,1.8
		C166.4,323.5,166.7,324.2,166.7,325.4z"/>
	<path fill="#FFFFFF" d="M174.7,330h-0.8l-0.6-3.2h-3.6l-0.5,3.2h-0.8l2.7-15.2h0.9L174.7,330z M169.9,326h3.3l-1.7-9.6L169.9,326z"
		/>
	<path fill="#FFFFFF" d="M177.7,330.1l-2.6-15.2h0.8l2.2,13.6l2.3-13.6h0.8l-2.6,15.2H177.7z"/>
	<path fill="#FFFFFF" d="M186.1,330.1h-0.7c-1.7,0-2.5-0.8-2.5-2.5v-10.5c0-1.6,0.8-2.4,2.5-2.4h0.7c1.7,0,2.5,0.8,2.5,2.4v10.5
		C188.7,329.3,187.8,330.1,186.1,330.1z M186.1,315.6h-0.7c-1.1,0-1.7,0.5-1.7,1.6v10.5c0,1.1,0.6,1.6,1.7,1.6h0.7
		c1.1,0,1.7-0.5,1.7-1.6v-10.5C187.8,316.1,187.2,315.6,186.1,315.6z"/>
	<path fill="#FFFFFF" d="M196.1,325v5h-0.8v-5c0-1.3-0.6-1.9-1.9-1.9h-1.7v6.9h-0.8v-15.2h2.8c1.7,0,2.5,0.8,2.5,2.5v3
		c0,1.5-0.6,2.1-1.5,2.4C195.5,322.9,196.1,323.6,196.1,325z M193.5,315.7h-1.9v6.7h1.7c1.3,0,1.9-0.6,1.9-1.9v-3.1
		C195.2,316.2,194.7,315.7,193.5,315.7z"/>
	<path fill="#FFFFFF" d="M201,324.8v5.2h-0.8v-5.2l-2.6-9.9h0.8l2.1,8.7l2.2-8.7h0.8L201,324.8z"/>
	<path opacity="0.45" fill="#FFFFFF" d="M212.4,321.9v-7h0.8V330h-0.8v-7.3h-3.9v7.3h-0.8v-15.2h0.8v7H212.4z"/>
	<path opacity="0.45" fill="#FFFFFF" d="M218.6,330.1h-0.7c-1.7,0-2.5-0.8-2.5-2.5v-10.5c0-1.6,0.8-2.4,2.5-2.4h0.7
		c1.7,0,2.5,0.8,2.5,2.4v10.5C221.1,329.3,220.3,330.1,218.6,330.1z M218.6,315.6h-0.7c-1.1,0-1.7,0.5-1.7,1.6v10.5
		c0,1.1,0.6,1.6,1.7,1.6h0.7c1.1,0,1.7-0.5,1.7-1.6v-10.5C220.3,316.1,219.7,315.6,218.6,315.6z"/>
	<path opacity="0.45" fill="#FFFFFF" d="M224.1,314.9v14.4h3.3v0.8h-4.2v-15.2H224.1z"/>
	<path opacity="0.45" fill="#FFFFFF" d="M230.1,330h-0.8v-15.2h0.8V330z"/>
	<path opacity="0.45" fill="#FFFFFF" d="M237.6,325.4v2.4c0,1.6-0.8,2.4-2.5,2.4h-0.5c-1.6,0-2.5-0.8-2.5-2.4v-3.1h0.8v3.1
		c0,1,0.6,1.6,1.7,1.6h0.4c1.1,0,1.7-0.5,1.7-1.6v-2.4c0-0.9-0.3-1.4-1-1.9l-2.3-1.8c-1-0.7-1.3-1.5-1.3-2.6v-1.9
		c0-1.6,0.8-2.4,2.5-2.4h0.4c1.6,0,2.5,0.8,2.5,2.4v2.6h-0.8v-2.6c0-1-0.5-1.6-1.7-1.6h-0.4c-1.1,0-1.7,0.5-1.7,1.6v2
		c0,0.9,0.3,1.4,1,1.9l2.3,1.8C237.3,323.5,237.6,324.2,237.6,325.4z"/>
	<path opacity="0.45" fill="#FFFFFF" d="M241.6,330v-14.4h-2.5v-0.8h5.8v0.8h-2.5V330H241.6z"/>
	<path opacity="0.45" fill="#FFFFFF" d="M247.5,330h-0.8v-15.2h0.8V330z"/>
	<path opacity="0.45" fill="#FFFFFF" d="M255.2,324.4v3.3c0,1.6-0.8,2.5-2.5,2.5h-0.6c-1.7,0-2.5-0.8-2.5-2.5v-10.5
		c0-1.6,0.8-2.4,2.5-2.4h0.6c1.6,0,2.5,0.8,2.5,2.4v2.8h-0.8v-2.9c0-1.1-0.5-1.6-1.7-1.6h-0.5c-1.1,0-1.7,0.5-1.7,1.6v10.5
		c0,1.1,0.6,1.6,1.7,1.6h0.6c1.1,0,1.6-0.5,1.6-1.6v-3.3H255.2z"/>
	<path opacity="0.45" fill="#FFFFFF" d="M260.6,316.8l0.1,10.1v3.1h-0.8v-15.2h1.1l3.1,13.6l3.1-13.6h1.1V330h-0.8v-3.2l0.1-9.9
		l-3,13.1h-0.8L260.6,316.8z"/>
	<path opacity="0.45" fill="#FFFFFF" d="M276.5,330h-0.8l-0.6-3.2h-3.6l-0.5,3.2h-0.8l2.7-15.2h0.9L276.5,330z M271.6,326h3.3
		l-1.7-9.6L271.6,326z"/>
	<path opacity="0.45" fill="#FFFFFF" d="M283.2,330l-4.2-13.1l0.1,10.4v2.7h-0.8v-15.2h0.9l4.1,13.1l-0.1-10.4v-2.7h0.8V330H283.2z"
		/>
	<path opacity="0.45" fill="#FFFFFF" d="M292.3,330h-0.8l-0.6-3.2h-3.6l-0.5,3.2H286l2.7-15.2h0.9L292.3,330z M287.5,326h3.3
		l-1.7-9.6L287.5,326z"/>
	<path opacity="0.45" fill="#FFFFFF" d="M296.8,323.1v-0.8h2.9v5.4c0,1.6-0.8,2.5-2.5,2.5h-0.7c-1.7,0-2.5-0.8-2.5-2.5v-10.5
		c0-1.6,0.8-2.4,2.5-2.4h0.7c1.6,0,2.5,0.8,2.5,2.4v2.4h-0.8v-2.4c0-1.1-0.5-1.6-1.6-1.6h-0.6c-1.1,0-1.7,0.6-1.7,1.6v10.5
		c0,1.1,0.6,1.6,1.7,1.6h0.6c1.1,0,1.7-0.6,1.7-1.6v-4.6H296.8z"/>
	<path opacity="0.45" fill="#FFFFFF" d="M306.2,314.9v0.8h-3.5v6.2h3.4v0.8h-3.4v6.5h3.6v0.8h-4.4v-15.2H306.2z"/>
	<path opacity="0.45" fill="#FFFFFF" d="M308.9,316.8l0.1,10.1v3.1h-0.8v-15.2h1.1l3.1,13.6l3.1-13.6h1.1V330h-0.8v-3.2l0.1-9.9
		l-3,13.1H312L308.9,316.8z"/>
	<path opacity="0.45" fill="#FFFFFF" d="M323,314.9v0.8h-3.5v6.2h3.4v0.8h-3.4v6.5h3.6v0.8h-4.4v-15.2H323z"/>
	<path opacity="0.45" fill="#FFFFFF" d="M330,330l-4.2-13.1l0.1,10.4v2.7h-0.8v-15.2h0.9l4.1,13.1l-0.1-10.4v-2.7h0.8V330H330z"/>
	<path opacity="0.45" fill="#FFFFFF" d="M335,330v-14.4h-2.5v-0.8h5.8v0.8h-2.5V330H335z"/>
</g>
</svg>
