<?xml version="1.0" encoding="utf-8"?>
<!-- Generator: Adobe Illustrator 18.1.1, SVG Export Plug-In . SVG Version: 6.00 Build 0)  -->
<svg version="1.1" id="Layer_1" xmlns="http://www.w3.org/2000/svg" xmlns:xlink="http://www.w3.org/1999/xlink" x="0px" y="0px"
	 viewBox="0 0 177.6 165.3" enable-background="new 0 0 177.6 165.3" xml:space="preserve">
<path opacity="0.28" fill="#FFFFFF" d="M41.9,56.3h-14V0H0v139.6h27.9V81.2h14v58.5h8.5c1.7-16,4.8-30.5,9.7-43.9l8.1-5.3
	c0,0-7.6,14.8-11.2,49.2h12.7V83.7c-3.7,3.2-8.1,6.6-9,6.5c0,0,3.2-16.1,7.9-17.2c0.4-0.1,0.7-0.1,1.1-0.2V0H41.9V56.3z M136.7,0
	l-8.6,84.6l-8-84.6H79.8v49.3c2.3,0.7,3.7,3,2.8,5c-0.4,0.9-1.4,2.4-2.8,4.2v8c3.3-3.2,7.8-6.8,10.5-6.1c4.9,1.2,5.8,6.6,2.8,7.9
	c-1.9,0.9-8.7,2.3-13.4,2.8v68.6h22.3V47.3l10.6,92.4H139l10.6-91.4v91.4h27.5V0H136.7z M82.9,46c0,0-3.6-16.2,0.1-19.5
	c3.6-3.2,8.2-0.5,7.6,2.7C90,32.4,84.3,45.4,82.9,46z M99.1,44.8c-1.4,1.8-13.4,10.9-13.8,11.5c0.1-0.7,3.3-16.1,7.9-17.3
	C97.8,37.8,101,42.3,99.1,44.8z M107.1,24.9c-1.3,1.8-14.1,11.5-13.8,11.5c0,0,3.1-16,7.9-17.3C105.8,17.7,109,22.2,107.1,24.9z"/>
<g>
	<path fill="#FFFFFF" d="M6.5,154v-9.7h1.2v20.8H6.5v-10H1.2v10H0v-20.8h1.2v9.7H6.5z"/>
	<path fill="#FFFFFF" d="M14.9,165.3h-1c-2.3,0-3.4-1.2-3.4-3.4v-14.4c0-2.2,1.2-3.4,3.4-3.4h1c2.3,0,3.4,1.2,3.4,3.4V162
		C18.4,164.2,17.2,165.3,14.9,165.3z M14.9,145.3h-1c-1.5,0-2.3,0.7-2.3,2.2V162c0,1.5,0.8,2.2,2.3,2.2h1c1.5,0,2.3-0.7,2.3-2.2
		v-14.4C17.2,146.1,16.4,145.3,14.9,145.3z"/>
	<path fill="#FFFFFF" d="M22.3,144.4v19.7h4.6v1.1h-5.7v-20.8H22.3z"/>
	<path fill="#FFFFFF" d="M30.4,165.2h-1.2v-20.8h1.2V165.2z"/>
	<path fill="#FFFFFF" d="M40.6,158.8v3.2c0,2.2-1.2,3.3-3.4,3.3h-0.7c-2.3,0-3.4-1.1-3.4-3.3v-4.2h1.2v4.3c0,1.4,0.8,2.1,2.3,2.1
		h0.6c1.5,0,2.3-0.7,2.3-2.1v-3.2c0-1.3-0.4-1.9-1.3-2.6l-3.2-2.5c-1.3-1-1.8-2-1.8-3.6v-2.6c0-2.2,1.1-3.3,3.4-3.3h0.6
		c2.3,0,3.4,1.1,3.4,3.3v3.6h-1.2v-3.6c0-1.4-0.7-2.1-2.3-2.1h-0.5c-1.5,0-2.3,0.7-2.3,2.1v2.7c0,1.2,0.4,1.9,1.3,2.6l3.2,2.4
		C40.2,156.2,40.6,157.1,40.6,158.8z"/>
	<path fill="#FFFFFF" d="M46,165.2v-19.7h-3.4v-1.1h8v1.1h-3.4v19.7H46z"/>
	<path fill="#FFFFFF" d="M54,165.2h-1.2v-20.8H54V165.2z"/>
	<path fill="#FFFFFF" d="M64.5,157.5v4.5c0,2.2-1.2,3.4-3.4,3.4h-0.8c-2.3,0-3.4-1.2-3.4-3.4v-14.4c0-2.2,1.2-3.4,3.4-3.4H61
		c2.3,0,3.4,1.2,3.4,3.4v3.9h-1.2v-3.9c0-1.5-0.7-2.2-2.3-2.2h-0.7c-1.5,0-2.3,0.7-2.3,2.2V162c0,1.5,0.8,2.2,2.3,2.2h0.8
		c1.5,0,2.3-0.7,2.3-2.2v-4.5H64.5z"/>
	<path fill="#FFFFFF" d="M71.9,147.1l0.1,13.8v4.3h-1.1v-20.8h1.5l4.2,18.6l4.2-18.6h1.5v20.8h-1.2v-4.4l0.1-13.6l-4.1,18h-1
		L71.9,147.1z"/>
	<path fill="#FFFFFF" d="M93.5,165.2h-1.1l-0.8-4.4h-5l-0.7,4.4h-1.1l3.7-20.9h1.2L93.5,165.2z M86.9,159.7h4.5l-2.3-13.2
		L86.9,159.7z"/>
	<path fill="#FFFFFF" d="M102.7,165.2L97,147.3l0.1,14.2v3.7H96v-20.8h1.2l5.7,18l-0.1-14.2v-3.7h1.1v20.8H102.7z"/>
	<path fill="#FFFFFF" d="M115.1,165.2H114l-0.8-4.4h-5l-0.7,4.4h-1.1l3.7-20.9h1.2L115.1,165.2z M108.5,159.7h4.5l-2.3-13.2
		L108.5,159.7z"/>
	<path fill="#FFFFFF" d="M121.1,155.7v-1.1h4v7.4c0,2.2-1.2,3.4-3.4,3.4h-0.9c-2.3,0-3.4-1.2-3.4-3.4v-14.4c0-2.2,1.2-3.4,3.4-3.4
		h0.9c2.3,0,3.4,1.2,3.4,3.4v3.3h-1.2v-3.3c0-1.5-0.7-2.3-2.3-2.3h-0.9c-1.5,0-2.3,0.8-2.3,2.3V162c0,1.5,0.8,2.3,2.3,2.3h0.9
		c1.5,0,2.3-0.8,2.3-2.3v-6.3H121.1z"/>
	<path fill="#FFFFFF" d="M133.8,144.4v1.1H129v8.6h4.7v1.1H129v8.9h4.9v1.1h-6v-20.8H133.8z"/>
	<path fill="#FFFFFF" d="M137.5,147.1l0.1,13.8v4.3h-1.1v-20.8h1.5l4.2,18.6l4.2-18.6h1.5v20.8h-1.2v-4.4l0.1-13.6l-4.1,18h-1
		L137.5,147.1z"/>
	<path fill="#FFFFFF" d="M156.8,144.4v1.1h-4.8v8.6h4.7v1.1h-4.7v8.9h4.9v1.1h-6v-20.8H156.8z"/>
	<path fill="#FFFFFF" d="M166.2,165.2l-5.7-17.9l0.1,14.2v3.7h-1.1v-20.8h1.2l5.7,18l-0.1-14.2v-3.7h1.1v20.8H166.2z"/>
	<path fill="#FFFFFF" d="M173,165.2v-19.7h-3.4v-1.1h8v1.1h-3.4v19.7H173z"/>
</g>
</svg>
