<?xml version="1.0" encoding="utf-8"?>
<!-- Generator: Adobe Illustrator 18.1.1, SVG Export Plug-In . SVG Version: 6.00 Build 0)  -->
<!DOCTYPE svg PUBLIC "-//W3C//DTD SVG 1.1//EN" "http://www.w3.org/Graphics/SVG/1.1/DTD/svg11.dtd">
<svg version="1.1" id="Layer_1" xmlns="http://www.w3.org/2000/svg" xmlns:xlink="http://www.w3.org/1999/xlink" x="0px" y="0px"
	 viewBox="142.4 0.1 357.7 500" enable-background="new 142.4 0.1 357.7 500" xml:space="preserve">
<path fill="#E05B26" d="M491.3,361.7H150.3c-4.3,0-7.5-3.5-7.5-7.5V13c0-3.9,3.5-7.5,7.5-7.5h341.2c4.3,0,7.5,3.5,7.5,7.5v341.2
	C498.8,358.5,495.7,361.7,491.3,361.7z"/>
<rect x="142.8" y="224.4" fill="#B6BF34" width="356.2" height="105.7"/>
<g>
	<path fill="#FFFFFF" d="M302.1,172.7c5.5-7.5-3.9-20.1-17-17c-13.1,3.1-22.5,49.3-22.5,49.3C266.6,205.4,296.9,179.8,302.1,172.7z"
		/>
	<path fill="#FFFFFF" d="M304,150.2c3.9,2.4,42.6-4.7,50.5-8.3c8.3-3.5,5.9-18.9-8.3-22.5C332.8,115.9,304,150.2,304,150.2z"/>
	<path fill="#FFFFFF" d="M324.2,102.1c3.9-8.3-7.1-19.3-19.3-13.4c-12.2,6.3-13,53.2-13,53.2C295.8,141.6,320.6,110.4,324.2,102.1z"
		/>
	<path fill="#FFFFFF" d="M371.5,74.9c5.5-7.5-3.9-20.1-17-16.6C341.4,61.8,332,108,332,108C330.9,108,367.5,80.4,371.5,74.9z"/>
	<path fill="#FFFFFF" d="M347,30c2-9.1-11.4-17-21.7-7.9c-10.6,9.5-0.4,56-0.4,56C329.3,76.5,345.5,39.4,347,30z"/>
	<path fill="#FFFFFF" d="M377,0.8c-13.4,3.9-22.5,49.7-22.5,49.7c-0.8,0,35.5-27.6,39.4-32.7C399.5,9.9,390.8-3.2,377,0.8z"/>
	<path fill="#FFFFFF" d="M283.5,205.8l-23.3,15c-15.8,43-24.4,91.5-28.8,143.5h18.5C259.5,254,283.5,205.8,283.5,205.8z"/>
</g>
<g>
	<path fill="#FFFFFF" d="M283.5,274.5c0-3.9-2-5.9-5.9-5.9H276c-3.9,0-5.9,2-5.9,5.9v5.9c0,3.2,0.8,4.7,3.5,6.7l11.8,7.1
		c5.5,3.5,8.3,6.7,8.3,13.8v7.5c0,10.6-5.1,15.8-15.8,15.8h-2c-10.3,0-15.4-5.1-15.4-15.4v-10.3h9.9v11c0,3.9,2,5.9,5.9,5.9h2
		c3.9,0,5.9-2,5.9-5.9v-6.7c0-3.2-1.2-4.7-3.5-6.7l-12.2-7.5c-5.5-3.5-8.3-6.7-8.3-13.8v-6.3c0-10.6,5.1-15.8,15.8-15.8h1.6
		c10.3,0,15.4,5.1,15.4,15.4v9.9h-9.9v-10.6H283.5z"/>
	<path fill="#FFFFFF" d="M300.9,306.1c0-8.7,2.8-12.2,10.3-14.6l13-4.3v-11.8c0-3.9-2-6.3-6.3-6.3h-0.8c-3.9,0-6.3,2.4-6.3,6.3v8.7
		h-9.5v-8.3c0-10.6,5.1-15.8,15.8-15.8h1.2c10.6,0,15.8,5.1,15.8,15.8v54.8h-9.9v-4.3c-2.8,2.8-6.3,5.1-11.8,5.1
		c-7.9,0-11.4-4.3-11.4-12.2L300.9,306.1L300.9,306.1z M324.6,318.7v-22.9l-9.1,3.2c-3.5,1.6-4.7,3.2-4.7,7.1v10.6
		c0,3.5,1.6,5.1,4.7,5.1C318.2,321.9,321,320.7,324.6,318.7z"/>
	<path fill="#FFFFFF" d="M352.2,330.5l-12.6-69.8h9.9l8.3,54.4l8.3-54.4h9.9l-12.8,69.8H352.2z"/>
	<path fill="#FFFFFF" d="M396.7,331.3c-10.6,0-15.8-5.1-15.8-15.8v-39.8c0-10.6,5.1-15.8,15.8-15.8h2.8c10.6,0,15.8,5.1,15.8,15.8
		v39.8c0,10.6-5.1,15.8-15.8,15.8H396.7z M396.7,269c-3.9,0-6.3,2-6.3,6.3v40.6c0,3.9,2,6.3,6.3,6.3h2.4c3.9,0,6.3-2,6.3-6.3v-40.6
		c0-3.9-2-6.3-6.3-6.3H396.7L396.7,269z"/>
	<path fill="#FFFFFF" d="M423.9,260.7h9.9v7.5c3.2-5.5,5.9-7.9,11.4-7.9v11c-5.1,0.4-8.3,2-11.4,4.3v54.8h-9.9V260.7z"/>
	<path fill="#FFFFFF" d="M457.8,344.7l3.2-15l-13.4-69h9.9l8.7,50.1l8.7-50.1h9.9l-16.6,84H457.8L457.8,344.7z"/>
</g>
<g opacity="0.9">
	<path fill="#FFFFFF" d="M142.4,407.8h13v5.9c3.5-3.5,8.7-7.1,16.2-7.1c10.6,0,15.4,5.9,15.4,16.6v76.1h-12.6V426
		c0-4.7-2.4-7.1-6.7-7.1c-3.9,0-7.9,1.2-12.2,4.7v75.7h-13v-91.5H142.4z"/>
	<path fill="#FFFFFF" d="M209.4,458.3V480c0,5.5,2.8,8.3,8.3,8.3h2.4c5.5,0,8.3-2.8,8.3-8.3v-10.6H241v9.9
		c0,13.8-7.1,20.5-20.5,20.5h-3.2c-13.8,0-20.5-7.1-20.5-20.5v-52.1c0-13.8,7.1-20.5,20.5-20.5h2.8c13.8,0,20.5,7.1,20.5,20.5V458
		h-31.2L209.4,458.3L209.4,458.3z M209.4,446.1h18.1v-18.9c0-5.5-2.8-8.3-8.3-8.3h-2c-5.5,0-8.3,2.8-8.3,8.3v18.9H209.4z"/>
	<path fill="#FFFFFF" d="M267.8,498.9h-13v-79.7h-5.9v-11.8h5.9v-15.3h13v15.4h9.5v11.8h-9.5C267.8,419.3,267.8,498.9,267.8,498.9z"
		/>
	<path fill="#FFFFFF" d="M320.2,434.6l-9.5,64.3h-13l-13.8-91.5h12.6l7.9,66.6l9.5-66.6h12.2l9.5,66.6l7.9-66.6h12.2l-13.8,91.5h-13
		L320.2,434.6z"/>
	<path fill="#FFFFFF" d="M383.7,500.1c-13.8,0-20.5-7.1-20.5-20.5v-52.1c0-13.8,7.1-20.5,20.5-20.5h3.5c13.8,0,20.5,7.1,20.5,20.5
		v52.1c0,13.8-7.1,20.5-20.5,20.5H383.7z M384.1,418.9c-5.5,0-8.3,2.8-8.3,8.3v53.2c0,5.5,2.8,8.3,8.3,8.3h3.2
		c5.5,0,8.3-2.8,8.3-8.3v-53.2c0-5.5-2.8-8.3-8.3-8.3H384.1z"/>
	<path fill="#FFFFFF" d="M418,407.8h13v9.5c3.9-7.1,7.9-10.6,14.6-10.6v14.6c-6.7,0.4-11,2.4-14.6,5.9V499h-13V407.8z"/>
	<path fill="#FFFFFF" d="M500,407.8l-21.3,44.6l20.5,46.5h-13.8l-18.9-45.3v45.3h-13V379h13v72.9l20.1-44.2H500V407.8z"/>
</g>
</svg>
