<?xml version="1.0" encoding="utf-8"?>
<!-- Generator: Adobe Illustrator 18.1.0, SVG Export Plug-In . SVG Version: 6.00 Build 0)  -->
<!DOCTYPE svg PUBLIC "-//W3C//DTD SVG 1.1//EN" "http://www.w3.org/Graphics/SVG/1.1/DTD/svg11.dtd">
<svg version="1.1" id="Layer_1" xmlns="http://www.w3.org/2000/svg" xmlns:xlink="http://www.w3.org/1999/xlink" x="0px" y="0px"
	 viewBox="0 0 90.7 126.8" enable-background="new 0 0 90.7 126.8" xml:space="preserve">
<path fill="#E05B26" d="M88.5,91.7H2c-1.1,0-1.9-0.9-1.9-1.9V3.3C0.1,2.3,1,1.4,2,1.4h86.5c1.1,0,1.9,0.9,1.9,1.9v86.5
	C90.4,90.9,89.6,91.7,88.5,91.7z"/>
<rect x="0.1" y="56.9" fill="#B6BF34" width="90.3" height="26.8"/>
<g>
	<path fill="#FFFFFF" d="M40.5,43.8c1.4-1.9-1-5.1-4.3-4.3c-3.3,0.8-5.7,12.5-5.7,12.5C31.5,52.1,39.2,45.6,40.5,43.8z"/>
	<path fill="#FFFFFF" d="M41,38.1c1,0.6,10.8-1.2,12.8-2.1c2.1-0.9,1.5-4.8-2.1-5.7C48.3,29.4,41,38.1,41,38.1z"/>
	<path fill="#FFFFFF" d="M46.1,25.9c1-2.1-1.8-4.9-4.9-3.4C38.1,24.1,37.9,36,37.9,36C38.9,35.9,45.2,28,46.1,25.9z"/>
	<path fill="#FFFFFF" d="M58.1,19c1.4-1.9-1-5.1-4.3-4.2c-3.3,0.9-5.7,12.6-5.7,12.6C47.8,27.4,57.1,20.4,58.1,19z"/>
	<path fill="#FFFFFF" d="M51.9,7.6c0.5-2.3-2.9-4.3-5.5-2c-2.7,2.4-0.1,14.2-0.1,14.2C47.4,19.4,51.5,10,51.9,7.6z"/>
	<path fill="#FFFFFF" d="M59.5,0.2c-3.4,1-5.7,12.6-5.7,12.6c-0.2,0,9-7,10-8.3C65.2,2.5,63-0.8,59.5,0.2z"/>
	<path fill="#FFFFFF" d="M35.8,52.2L29.9,56c-4,10.9-6.2,23.2-7.3,36.4l4.7,0C29.7,64.4,35.8,52.2,35.8,52.2z"/>
</g>
<g>
	<path fill="#FFFFFF" d="M35.8,69.6c0-1-0.5-1.5-1.5-1.5h-0.4c-1,0-1.5,0.5-1.5,1.5v1.5c0,0.8,0.2,1.2,0.9,1.7l3,1.8
		c1.4,0.9,2.1,1.7,2.1,3.5V80c0,2.7-1.3,4-4,4h-0.5c-2.6,0-3.9-1.3-3.9-3.9v-2.6h2.5v2.8c0,1,0.5,1.5,1.5,1.5h0.5
		c1,0,1.5-0.5,1.5-1.5v-1.7c0-0.8-0.3-1.2-0.9-1.7L32,75c-1.4-0.9-2.1-1.7-2.1-3.5v-1.6c0-2.7,1.3-4,4-4h0.4c2.6,0,3.9,1.3,3.9,3.9
		v2.5h-2.5V69.6z"/>
	<path fill="#FFFFFF" d="M40.2,77.6c0-2.2,0.7-3.1,2.6-3.7l3.3-1.1v-3c0-1-0.5-1.6-1.6-1.6h-0.2c-1,0-1.6,0.6-1.6,1.6V72h-2.4v-2.1
		c0-2.7,1.3-4,4-4h0.3c2.7,0,4,1.3,4,4v13.9h-2.5v-1.1c-0.7,0.7-1.6,1.3-3,1.3c-2,0-2.9-1.1-2.9-3.1V77.6z M46.2,80.8V75l-2.3,0.8
		c-0.9,0.4-1.2,0.8-1.2,1.8v2.7c0,0.9,0.4,1.3,1.2,1.3C44.6,81.6,45.3,81.3,46.2,80.8z"/>
	<path fill="#FFFFFF" d="M53.2,83.8L50,66.1h2.5l2.1,13.8l2.1-13.8h2.5L56,83.8H53.2z"/>
	<path fill="#FFFFFF" d="M64.5,84c-2.7,0-4-1.3-4-4V69.9c0-2.7,1.3-4,4-4h0.7c2.7,0,4,1.3,4,4V80c0,2.7-1.3,4-4,4H64.5z M64.5,68.2
		c-1,0-1.6,0.5-1.6,1.6v10.3c0,1,0.5,1.6,1.6,1.6h0.6c1,0,1.6-0.5,1.6-1.6V69.8c0-1-0.5-1.6-1.6-1.6H64.5z"/>
	<path fill="#FFFFFF" d="M71.4,66.1h2.5v1.9c0.8-1.4,1.5-2,2.9-2v2.8c-1.3,0.1-2.1,0.5-2.9,1.1v13.9h-2.5V66.1z"/>
	<path fill="#FFFFFF" d="M80,87.4l0.8-3.8l-3.4-17.5h2.5l2.2,12.7l2.2-12.7h2.5l-4.2,21.3H80z"/>
</g>
<g>
	<path fill="#6F645A" d="M0,103.4h3.3v1.5c0.9-0.9,2.2-1.8,4.1-1.8c2.7,0,3.9,1.5,3.9,4.2v19.3H8.1V108c0-1.2-0.6-1.8-1.7-1.8
		c-1,0-2,0.3-3.1,1.2v19.2H0V103.4z"/>
	<path fill="#6F645A" d="M17,116.2v5.5c0,1.4,0.7,2.1,2.1,2.1h0.6c1.4,0,2.1-0.7,2.1-2.1V119h3.2v2.5c0,3.5-1.8,5.2-5.2,5.2H19
		c-3.5,0-5.2-1.8-5.2-5.2v-13.2c0-3.5,1.8-5.2,5.2-5.2h0.7c3.5,0,5.2,1.8,5.2,5.2v7.8H17z M17,113.1h4.6v-4.8c0-1.4-0.7-2.1-2.1-2.1
		h-0.5c-1.4,0-2.1,0.7-2.1,2.1V113.1z"/>
	<path fill="#6F645A" d="M31.8,126.5h-3.3v-20.2H27v-3h1.5v-3.9h3.3v3.9h2.4v3h-2.4V126.5z"/>
	<path fill="#6F645A" d="M45.1,110.2l-2.4,16.3h-3.3l-3.5-23.2h3.2l2,16.9l2.4-16.9h3.1l2.4,16.9l2-16.9h3.1l-3.5,23.2h-3.3
		L45.1,110.2z"/>
	<path fill="#6F645A" d="M61.2,126.8c-3.5,0-5.2-1.8-5.2-5.2v-13.2c0-3.5,1.8-5.2,5.2-5.2h0.9c3.5,0,5.2,1.8,5.2,5.2v13.2
		c0,3.5-1.8,5.2-5.2,5.2H61.2z M61.3,106.2c-1.4,0-2.1,0.7-2.1,2.1v13.5c0,1.4,0.7,2.1,2.1,2.1h0.8c1.4,0,2.1-0.7,2.1-2.1v-13.5
		c0-1.4-0.7-2.1-2.1-2.1H61.3z"/>
	<path fill="#6F645A" d="M69.9,103.4h3.3v2.4c1-1.8,2-2.7,3.7-2.7v3.7c-1.7,0.1-2.8,0.6-3.7,1.5v18.2h-3.3V103.4z"/>
	<path fill="#6F645A" d="M90.7,103.4l-5.4,11.3l5.2,11.8H87L82.2,115v11.5h-3.3V96.1h3.3v18.5l5.1-11.2H90.7z"/>
</g>
</svg>
