<?xml version="1.0" encoding="utf-8"?>
<!-- Generator: Adobe Illustrator 18.1.1, SVG Export Plug-In . SVG Version: 6.00 Build 0)  -->
<svg version="1.1" id="Layer_1" xmlns="http://www.w3.org/2000/svg" xmlns:xlink="http://www.w3.org/1999/xlink" x="0px" y="0px"
	 viewBox="94 141.6 67.7 104.3" enable-background="new 94 141.6 67.7 104.3" xml:space="preserve">
<path fill="#B5BE34" d="M115.2,225"/>
<g opacity="0.25">
	<path fill="#FFFFFF" d="M145.3,149.9C145.3,149.9,145.3,149.9,145.3,149.9C145.3,150.2,145.3,150.2,145.3,149.9
		C145.2,149.9,145.2,149.9,145.3,149.9c-0.1,0.2,0,0.3-0.1,0.5C145.3,150.9,145.3,150.4,145.3,149.9z"/>
	<path fill="#FFFFFF" d="M145.4,149C145.3,148.6,145.3,148.7,145.4,149L145.4,149C145.3,149,145.4,149,145.4,149z"/>
	<path fill="#FFFFFF" d="M149.9,150.3c0.1,0-0.2,0.1,0.2,0.1C150.4,150.5,150.2,150.3,149.9,150.3z"/>
	<path fill="#FFFFFF" d="M146.7,149.8c-0.1,0-0.1,0-0.2,0c0,0.1,0,0.2-0.1,0.3c0,0.2,0,0.3,0,0.5
		C146.6,150.1,146.6,149.9,146.7,149.8z"/>
	<path fill="#FFFFFF" d="M113.3,151.2C113.3,151.3,113.3,151.3,113.3,151.2C113.3,151.3,113.3,151.3,113.3,151.2
		C113.3,151.2,113.3,151.2,113.3,151.2z"/>
	<path fill="#FFFFFF" d="M112.7,150.9c0,0,0.1,0,0.2,0C112.7,150.6,112.7,150.7,112.7,150.9z"/>
	<path fill="#FFFFFF" d="M151.5,151.7c0.3-0.7,0.6-1.6-0.4-2.3c0.3,0.4-0.1,1-0.9,1.3c-0.1,0.1,1.1,0.1,1,0.2
		c-0.3,0.5-1.1,0.8-0.3,1.2c0.1,0.1-0.7,0.1-0.6,0.2c0.3,0.4,0.3,0.7,0.5,1.1c0.1,0.2,0.3,0.4,0.3,0.5c0,0.1-0.2,0.1-0.3,0.1
		c0.3-0.1,0.5-0.1,0.8-0.1c-0.1-0.3-0.1-0.5,0.1-0.8C153.5,152.7,152.6,152,151.5,151.7z"/>
	<path fill="#FFFFFF" d="M145.4,151c0.1,0.4,0.2,0.9,0.3,1.3c0-0.1,0.1,0,0.1,0.3c0-0.8-0.1-2.4-0.2-2.8c0.1,0.7,0.2,1.3,0.1,1.9
		c-0.1-0.9-0.1-0.9-0.2-1.7c0,0.4,0,0.8-0.1,0.1C145.4,150.6,145.4,150.8,145.4,151z"/>
	<path fill="#FFFFFF" d="M113.5,153.1C113.5,153.1,113.5,153.1,113.5,153.1c0-0.2,0-0.4-0.1-0.7C113.5,152.8,113.5,153,113.5,153.1z
		"/>
	<path fill="#FFFFFF" d="M156.8,219.4c-0.1,0-0.2,0-0.3,0c0.2,0.1,0.1,0.2,0.3,0.2C156.9,219.5,156.9,219.4,156.8,219.4z"/>
	<path fill="#FFFFFF" d="M157.1,222.4c0.1-0.1,0.1-0.2,0-0.2C157.1,222.2,156.9,222.3,157.1,222.4z"/>
	<path fill="#FFFFFF" d="M156.6,219.7c-0.1,0.1,0.2,0.1,0.1,0.2C157,219.9,156.7,219.6,156.6,219.7z"/>
	<path fill="#FFFFFF" d="M158.1,229.2c0,0,0-0.1,0-0.1c0,0,0,0,0,0c0,0,0,0,0,0c0,0,0-0.1,0-0.1c0,0,0,0,0,0c0,0.1-0.1,0.1,0,0.2
		C158,229.2,158.1,229.2,158.1,229.2z"/>
	<path fill="#FFFFFF" d="M156.7,215.2c-0.2,0-0.2,0.1-0.3,0.2C156.6,215.5,156.5,215.3,156.7,215.2z"/>
	<path fill="#FFFFFF" d="M157.5,227l0.2,0.1c0-0.1,0.1-0.1,0-0.2L157.5,227z"/>
	<path fill="#FFFFFF" d="M157.4,226.5c0.2,0,0.2-0.2,0-0.3C157.3,226.4,157.6,226.5,157.4,226.5z"/>
	<path fill="#FFFFFF" d="M157.4,226.9c0.2-0.1,0.3-0.2,0.1-0.3C157.4,226.7,157.5,226.8,157.4,226.9z"/>
	<path fill="#FFFFFF" d="M97,198.8C97,198.8,97,198.8,97,198.8c0,0,0-0.1,0-0.1C96.9,198.8,96.9,198.8,97,198.8z"/>
	<path fill="#FFFFFF" d="M156.7,202.3c-0.1,0-0.2-0.1-0.3-0.1C156.4,202.3,156.5,202.3,156.7,202.3
		C156.7,202.3,156.7,202.3,156.7,202.3L156.7,202.3C156.7,202.3,156.7,202.3,156.7,202.3z"/>
	<path fill="#FFFFFF" d="M106.8,243.1C106.8,243.1,106.8,243.1,106.8,243.1C106.8,243.1,106.8,243.1,106.8,243.1
		C106.8,243.1,106.8,243.1,106.8,243.1z"/>
	<path fill="#FFFFFF" d="M97,198.7l0.3-0.1c0-0.1,0-0.1,0.1-0.2C97.1,198.6,97.1,198.6,97,198.7C96.9,198.7,97,198.7,97,198.7z"/>
	<path fill="#FFFFFF" d="M95.2,171.9c-0.1,0.1,0,0.2,0.1,0.2C95.4,172,95.3,172,95.2,171.9C95.3,171.9,95.3,171.9,95.2,171.9z"/>
	<path fill="#FFFFFF" d="M97,199.4C97,199.4,97,199.4,97,199.4C97,199.4,97,199.4,97,199.4C97,199.4,97,199.4,97,199.4z"/>
	<path fill="#FFFFFF" d="M135.8,146.8c-0.2,0-0.1,0.1-0.4,0.1C135.5,146.9,135.7,146.9,135.8,146.8z"/>
	<path fill="#FFFFFF" d="M95.7,168.5c0,0-0.1-0.1-0.2-0.1c0,0-0.1,0-0.1,0c0,0.1,0.1,0.2,0.1,0.2C95.5,168.6,95.6,168.5,95.7,168.5
		C95.6,168.5,95.7,168.5,95.7,168.5z"/>
	<path fill="#FFFFFF" d="M156.8,218.9c0.2-0.1-0.1-0.1,0.1-0.2c-0.1,0,0-0.1-0.1-0.1C156.6,218.7,156.8,218.8,156.8,218.9z"/>
	<path fill="#FFFFFF" d="M97,198.1c0.1,0.1,0.3-0.1,0.2-0.2C97,197.9,97,198,97,198.1C96.9,198,97,198,97,198.1z"/>
	<path fill="#FFFFFF" d="M96,206.5l0.2,0.1c0,0,0,0,0-0.1c0,0,0-0.1,0.1-0.1C96.2,206.5,96.1,206.5,96,206.5z"/>
	<path fill="#FFFFFF" d="M156.5,217.2c0.2,0,0.1-0.1,0.2-0.2C156.4,217,156.7,217.1,156.5,217.2z"/>
	<path fill="#FFFFFF" d="M97.1,166.4c-0.1,0.1-0.1,0.1,0,0.2C97.3,166.5,97.2,166.4,97.1,166.4z"/>
	<path fill="#FFFFFF" d="M96.3,166.3c0.1,0,0.1,0,0,0.1c0.1,0,0.1,0,0.2,0.1C96.6,166.4,96.4,166.2,96.3,166.3z"/>
	<path fill="#FFFFFF" d="M95.7,169.2C95.7,169.2,95.7,169.2,95.7,169.2C95.7,169.2,95.7,169.2,95.7,169.2
		C95.7,169.2,95.7,169.2,95.7,169.2z"/>
	<path fill="#FFFFFF" d="M96.9,166.3c0.2,0,0.1,0.1,0.3,0.1c0.2-0.2-0.4-0.4-0.1-0.5c-0.2-0.1-0.6-0.2-0.7,0c0.2,0,0.4-0.1,0.5,0
		c-0.2,0-0.3,0.1-0.4,0.1c0.1,0.1,0.2,0.1,0,0.2c0.3,0.1,0.3,0.2,0.4,0.3C97,166.5,97,166.3,96.9,166.3z"/>
	<path fill="#FFFFFF" d="M97.1,167.2C97.1,167.2,97.1,167.2,97.1,167.2c0.1-0.1,0-0.2-0.1-0.3C96.9,167,97,167.1,97.1,167.2z"/>
	<path fill="#FFFFFF" d="M156.4,195.8c0.1,0,0.1-0.1,0-0.1C156.2,195.7,156.3,195.7,156.4,195.8z"/>
	<path fill="#FFFFFF" d="M156.3,202.3c-0.1,0.1-0.1,0.1,0,0.2C156.5,202.4,156.5,202.4,156.3,202.3
		C156.4,202.3,156.3,202.3,156.3,202.3z"/>
	<path fill="#FFFFFF" d="M156.5,195.2c0.1-0.1,0-0.1-0.1-0.2C156.4,195.1,156.3,195.1,156.5,195.2z"/>
	<path fill="#FFFFFF" d="M156.7,201.9c-0.1,0-0.1,0-0.2,0c0,0,0.1-0.1,0.1-0.1c0,0-0.1-0.1-0.2-0.1c-0.1,0.1-0.1,0.2-0.1,0.3
		C156.5,202,156.7,202,156.7,201.9z"/>
	<path fill="#FFFFFF" d="M156.5,198.9C156.4,198.9,156.4,198.9,156.5,198.9c0,0-0.1-0.2-0.2-0.2
		C156.1,198.8,156.3,198.9,156.5,198.9L156.5,198.9z"/>
	<path fill="#FFFFFF" d="M157.6,200.8l-0.2-0.1c0,0,0,0,0,0.1c0,0,0,0.1-0.1,0.1C157.4,200.9,157.5,200.9,157.6,200.8z"/>
	<path fill="#FFFFFF" d="M156.8,195c-0.2,0-0.2,0.1-0.1,0.2C156.9,195.1,156.7,195.1,156.8,195z"/>
	<path fill="#FFFFFF" d="M156.5,203.2c0.1,0,0-0.1,0.1-0.1c0,0.1,0.1,0.1,0,0.2c0.2,0,0.1-0.2,0.2-0.3c-0.2,0-0.4,0-0.6,0.1
		C156.3,203,156.4,203.1,156.5,203.2z"/>
	<path fill="#FFFFFF" d="M156.4,201.1c0.2,0,0-0.1,0.1-0.1C156.4,200.9,156.4,201.1,156.4,201.1z"/>
	<path fill="#FFFFFF" d="M157,198.1l0.1-0.1c-0.1,0-0.1,0-0.2,0C156.9,198,156.9,198.1,157,198.1z"/>
	<path fill="#FFFFFF" d="M156.8,200.5c0.2,0,0.3,0.1,0.1,0.2c0.1,0,0.1,0,0.2-0.1C157,200.5,157,200.4,156.8,200.5z"/>
	<path fill="#FFFFFF" d="M156.5,195.5c0.1,0,0.2-0.1,0.1-0.1c0.2,0,0.3,0.1,0.4,0.1c0.2-0.2-0.5-0.1-0.7-0.2
		C156.2,195.3,156.4,195.4,156.5,195.5z"/>
	<path fill="#FFFFFF" d="M156.6,216.6c0.2-0.1,0.1-0.1,0.2-0.2c-0.2,0-0.2,0-0.3-0.2l-0.1,0.1C156.4,216.5,156.4,216.6,156.6,216.6z
		"/>
	<path fill="#FFFFFF" d="M157.9,193C158,193,158,193,157.9,193c0-0.1-0.1,0-0.1,0C157.8,193,157.8,193.1,157.9,193z"/>
	<path fill="#FFFFFF" d="M157,196.2C157,196.2,157,196.2,157,196.2C157,196.2,157,196.2,157,196.2C157,196.2,156.9,196.2,157,196.2z
		"/>
	<path fill="#FFFFFF" d="M156.6,200.1L156.6,200.1C156.7,200.2,156.7,200.1,156.6,200.1z"/>
	<path fill="#FFFFFF" d="M157,200.2c0.2-0.1,0-0.2-0.1-0.3C156.8,200,156.8,200.1,157,200.2z"/>
	<path fill="#FFFFFF" d="M156.7,203.3c-0.1,0.1-0.1,0.2,0,0.3c0.1,0,0.1-0.1,0-0.1c0,0,0.1,0,0.1,0
		C156.8,203.4,156.7,203.4,156.7,203.3z"/>
	<path fill="#FFFFFF" d="M156.7,200.4c0,0-0.1,0-0.1,0l0,0.1C156.6,200.5,156.7,200.4,156.7,200.4z"/>
	<path fill="#FFFFFF" d="M157,200.4c-0.1,0-0.3-0.1-0.5-0.1l0,0C156.7,200.3,156.9,200.4,157,200.4z"/>
	<path fill="#FFFFFF" d="M156.1,205.6c-0.1-0.1,0.1-0.2-0.1-0.3C156,205.4,155.9,205.5,156.1,205.6z"/>
	<path fill="#FFFFFF" d="M156.4,205c-0.2,0.1,0,0.1-0.1,0.2C156.5,205.2,156.5,205,156.4,205z"/>
	<path fill="#FFFFFF" d="M155.8,206c-0.2,0.1-0.1,0.2,0,0.3c0.1-0.1,0.1,0,0.2-0.1C155.9,206.2,155.8,206.1,155.8,206z"/>
	<path fill="#FFFFFF" d="M156.2,205.2c-0.1,0-0.1,0-0.2,0c0,0,0,0.1-0.1,0.1C156.1,205.3,156.2,205.3,156.2,205.2
		C156.2,205.2,156.2,205.2,156.2,205.2z"/>
	<path fill="#FFFFFF" d="M156.1,203.4C156.1,203.4,156,203.4,156.1,203.4c0.1,0.1,0.3,0.1,0.5,0
		C156.4,203.3,156.2,203.4,156.1,203.4z"/>
	<path fill="#FFFFFF" d="M156.2,195.5c0.1-0.1-0.2,0-0.3-0.1c0,0,0,0,0,0v0.1c0,0,0,0,0.1,0.1C156,195.5,156.1,195.4,156.2,195.5z"
		/>
	<path fill="#FFFFFF" d="M156.6,207.5C156.7,207.4,156.5,207.5,156.6,207.5c-0.2-0.1-0.3,0.1-0.2,0.1
		C156.6,207.5,156.5,207.4,156.6,207.5z"/>
	<path fill="#FFFFFF" d="M156.3,204.5c0-0.1,0.1-0.1,0-0.2C156.1,204.3,156.1,204.4,156.3,204.5z"/>
	<path fill="#FFFFFF" d="M156.6,203.6c-0.1-0.1-0.2,0-0.3-0.1c-0.1,0.1-0.2,0.2,0,0.4c0.1,0,0.1,0,0.2,0
		C156.6,203.7,156.5,203.6,156.6,203.6z"/>
	<path fill="#FFFFFF" d="M156.5,204.8c0,0,0.1,0,0.1,0c0,0.1-0.1,0.1,0.1,0.2c0.1-0.1,0-0.1,0-0.2
		C156.6,204.7,156.5,204.7,156.5,204.8z"/>
	<path fill="#FFFFFF" d="M156.4,205.4c-0.1,0.1-0.1,0.2,0.2,0.3C156.7,205.6,156.6,205.5,156.4,205.4z"/>
	<path fill="#FFFFFF" d="M156.5,203.9c0.1,0,0.1,0.1,0.2,0c0,0,0,0.1-0.1,0.1c0.1,0.1,0.2,0.1,0.3,0c0,0-0.1,0-0.1,0
		c0.1,0,0.1,0,0.2-0.1c-0.2,0-0.2,0-0.3-0.1L156.5,203.9z"/>
	<path fill="#FFFFFF" d="M156.5,210.3c0.2-0.1,0.1-0.1,0.1-0.2C156.4,210.1,156.3,210.3,156.5,210.3z"/>
	<path fill="#FFFFFF" d="M114.9,220.6c0,1-0.2,1.9-0.3,2.9c0.2,0.7,0.3-2.1,0.4-1.1c-0.1,0.4-0.2,0.8-0.1,1.3
		c0.1-0.4,0.3-0.9,0.4-1.8c-0.1-0.1-0.2-0.1-0.3-0.5c0.1-0.5,0.1-1,0.1-1.6c-0.1,0.4-0.2,0.9-0.3,1.4
		C114.8,220.9,114.8,220.8,114.9,220.6z"/>
	<path fill="#FFFFFF" d="M110.6,220c0.1-0.3,0.1-0.6,0.2-0.8C110.8,218.9,110.7,219.4,110.6,220z"/>
	<path fill="#FFFFFF" d="M161.4,164.1l-0.9-0.1c0.1-1.8-0.2-3.6-0.6-5.5l-0.8,0.5c-0.4-0.9,0-2.9,0.3-5.1c-0.7-0.1-1.5-0.2-2.4-0.2
		c0.4-0.3,1.1-0.2,1.5-0.1c-0.5-0.4-1.3-0.6-2.3-0.6c-0.1-0.2-0.2-0.4-0.3-0.5c0.4-0.3,0.2-0.4,0.1-0.6c-1.5,0.1-0.2,0.5-0.3,0.7
		c-0.1,0.2-0.2,0.4-0.3,0.5c-0.4,0-0.8,0.1-1.1,0.1c-0.1-0.5-0.1-1.1-0.1-1.6c0.2-1.4-0.1-2.7-1.8-3.9c0.3-0.1,0.3-0.4,0.5-0.5
		c-0.4-0.1-0.4-0.2-1.1-0.2c0.4,0.1-0.3,0.1-0.4,0.2c-0.4,0.6,0.4,1.4-0.7,2c-0.1-0.1-0.3-0.1-0.6-0.2c-0.4,0.1-0.3,0.4-1.1,0.3
		c-0.5-0.7-0.3-1.4-1-2.1c-0.2-0.2-0.9-0.4-1-0.6c-0.1-0.1,0.3-0.3,0.1-0.3c-0.3-0.3-1.1-0.5-1.4-0.8c-0.3-0.3,0.2-0.5-1.2-0.6
		c0.3,1.1,1.4,2.1,1.7,3.3c0,0.3,0,0.6,0.1,0.9c0,0.1,0,0.1,0,0.2c-0.1,0-0.2,0.5-0.1,1.6c0,0.5-0.1-1-0.1-0.5c0-0.3,0-0.3,0-1
		c-0.1-0.1,0,1.1,0,1.6c0,0.2-0.1-0.9-0.1-1.2c0,0.5,0,1,0,1.4c0,0.4-0.1-0.5-0.1-0.7c-0.1-0.3,0,0.7,0,0.9c0-0.1-0.1-0.5-0.2-1
		c0-0.6,0-0.4,0-0.8c-0.1-0.6-0.1,0.6,0,1.2c-0.1,0.1-0.2,0.2-0.1,1.5c-0.1-0.5-0.1-0.9-0.1-1.3c0-0.3,0.1-0.4,0.1-0.6
		c-0.1-0.4-0.1-0.8-0.1-1.2c0.2-0.2,0.2-0.4,0-0.5c0-0.1,0-0.1,0-0.2c0-0.3-0.1-0.1-0.1,0.2c0,0,0,0,0,0c0-0.3-0.1,0-0.1-0.7
		c0,0.4,0,0.5,0,0.7c0,0,0,0-0.1,0c0-0.1,0-0.1,0-0.2l0-0.3c-0.1-0.6-0.1,0-0.1,0.2c-0.1-0.7-0.1-1.3-0.2-2c0,0.7,0,0.4,0,0.9
		c-0.1-0.4-0.1-0.8-0.2-1.2c0,0.3,0,0.5,0,0.8c-0.1-0.3-0.1-0.6-0.1-1c-0.1,0.4-0.1,0.2-0.2,0.2c-0.1-0.7,0-0.4,0-1.1
		c-0.1-0.4,0,0.5-0.1-0.2c0,0.3,0,0.5,0,0.8c-0.2-0.7-0.3,0.8-0.6,0.3c0,0.2,0,0.4,0.1,0.7c0,0.4,0,0.8,0,0.8
		c-0.2-1.9-0.2-0.6-0.3-0.1c0-0.1-0.1-0.1-0.1-0.2c-0.1-1.9,0.1-1.3,0.1-2.3c-0.1-0.5-0.1,0.6-0.2-0.6l0,0.9
		c-0.1-0.3-0.1-0.6-0.1-0.8c0,0,0-0.7,0.1-0.3c-0.1-0.7,0-0.4,0-1.1c-0.2-1.3,0,1.6-0.2,0.2l0,2.7c-0.1-0.5-0.1-0.9-0.1-1.3
		c-0.1-0.8-0.1-0.2-0.2-0.4c0,0.4,0.1,0.9,0,1.3c0,0.2,0-0.3,0.1,0.4c0,0.4-0.1,0.4-0.1-0.1l0,0.6c-0.1-0.1-0.1-0.1-0.2-0.2
		c-0.1-0.4,0-0.7-0.1-1.1c0,0.6,0,0.9,0,1.1c-0.1-0.1-0.1-0.1-0.2-0.2c0-0.1,0-0.3-0.1-0.5c0,0.1,0,0.3,0,0.4c0,0-0.1-0.1-0.1-0.1
		c0-0.2,0-0.4,0-0.3c0-0.3-0.1-0.6,0-0.8c0-0.2-0.1-0.2-0.1-0.4c0,0.4,0.1,1.4,0,0.9c0,0.2,0,0.3,0.1,0.5c-0.1-0.1-0.1-0.1-0.2-0.2
		c0-0.8,0-1.5,0.1-1.9c-0.1-1.1-0.1,0.8-0.1,1.5c-0.1-1-0.1-0.2-0.2-1.2c0,0.4,0,0.8,0,1.3c-0.1-0.1-0.2-0.2-0.3-0.3
		c-0.9,0-0.7-0.4-1.7-0.3c-0.6,0.1,0.5,0.3-0.5,0.3c-0.6,0.1-0.4-0.1-0.8-0.1c0.3,0.3,0.3,0.5-0.1,0.8c-0.9-0.6-1.5-1.3-2.5-1.7
		c0.1,0.3,0.6,0.7,0.5,1.1c-0.1,0.1,0.8,0,0.6,0.1c1.3,1.1,2.2,2.5,1.2,3.6c0-0.1-0.2-0.1-0.3-0.1c0.1,0.1-0.4,0.2,0.2,0.2
		c0.1,0,0.1,0,0.1,0c0,0-0.1,0.1-0.1,0.1c-0.3,0-0.1-0.1-0.6-0.1c-0.1,0.1,0.2,0.4-0.3,0.5c-0.2-0.4-0.6-0.7-0.3-1.1
		c0.8-0.1,0.4,0.1,0.8,0.1c0.1-0.3,0-0.3-0.1-0.6c-0.8,0.1-0.3,0.3-0.9,0.4c0.2-0.8-1-1.2-1-1.7c-0.1,0.1-0.3,0.1-0.4,0.1
		c0.3,0,0.2-0.1,0.4-0.1c-0.2-0.2,0.4-0.7-0.9-0.9c0-0.1,0-0.2-0.4-0.2c0,0.1-0.1,0.1-0.1,0.2c-0.1,0-0.2,0-0.3,0
		c-0.2,1.5,1.5,3.2,0.1,4.6c-0.3-0.4,0.1-1-0.9-1.3c0,0.1,0.1,0.1-0.2,0.1c0-0.3-0.7-0.5,0.1-0.7c0.1,0.1-0.2,0.2,0.2,0.2
		c0.2-0.2,0.5-0.7-0.4-0.8c1,0,0.5-0.5,0.3-0.6c-0.1,0.1,0.3,0.2-0.4,0.1c0.2-1.5-2.3-2.5-3.6-3.8c-0.4-0.4-0.4-0.7-1.3-1.1
		c-0.3-0.4-0.4-0.8-1.4-1c0.1,0.3,0.3,0.7,1.1,1c0.2,0.7,2.3,1.6,1.6,2.3c-1-0.1-1.2-0.1-1.7,0.1c-1.7-0.3-0.9-0.9-1.8-1.3
		c-0.1,0-0.1,0-0.1,0c0.1-0.4-0.3-0.8-1.2-1c-0.4,0.4-0.1,0.9,0.7,1.2c-0.9,0.4,0.4,0.9,0.6,1.3c0.4,0.9-0.1,1.9,0.3,2.7
		c0.4,0.8,0.3,1.6-0.1,2.4c-1-2.1,0.6-3.9-2.5-5.4c0.5,0.2-0.2,0.6,0.3,0.8c-1,0.1-1.3,0.4-1.5,0.6c-1.1-0.8,0-1.8-2.5-2.3
		c-0.3,0.4,0.1,0.7-0.8,1c-1.4-0.4-0.3-0.6-1.5-1c-0.2,0.6,0.9,1.1-0.8,1.4c-0.1-0.1,0.3-0.3-0.8-0.3c-0.9,0.5,0,1,0.2,1.5
		c0.1,0.3-0.4,0.6-0.4,0.9c-0.1,0.7,0.5,1.3,0.2,1.8c-0.3,0.8,0,1.6,0.2,2.3c0,0.2,0,0.7-0.2-0.3c0,0.6-0.2,0.1-0.3,0
		c0,0.3,0.1,0.5,0.2,0.8c0,0.3-0.1-0.3-0.1,0.4c0.1,0.2,0.1-0.6,0.2,0.1c-0.2-1.2,0-0.6,0.1-0.3c0,0,0,0.1,0,0.1
		c0,0.1,0,0.1-0.1,0.2c0,0.1-0.1,0.2-0.1,0.4c0-0.1-0.1-0.2-0.1-0.3c0,0.2,0,0.3,0,0.5c0,0-0.1,0-0.1,0c0-0.1,0-0.1-0.1-0.2
		c0,0.1,0,0.2,0,0.2c-0.1,0-0.1,0-0.2,0c-0.3-1.2-0.4-0.2-0.8-1.2c0.1,0.7,0.1,1.3,0,0.3c0,0.3,0,0.6,0.1,0.8c0,0,0,0,0,0
		c-0.1-0.4-0.1-0.8-0.1-1.2c-0.2-0.7,0.2,1.3-0.1,0.3c0.1,1.1,0.1,0.7,0,0.7c-0.1-0.4-0.1-0.7-0.1-1.1c0,0.7-0.2,0.2-0.2,1.2
		c0,0,0,0-0.1,0c-0.1-0.4-0.2-0.8-0.1-0.6c0-0.4-0.1-0.1-0.2-0.7c0.1,0.6,0,0.2,0,0.6c0.1,0.2,0.1,0.4,0.1,0.6c0,0,0,0,0,0
		c-0.1-0.4-0.1-0.7-0.2-1.1c0,0.4,0.1,0.7,0.1,1.1c0,0-0.1,0-0.1,0c-0.1-0.6-0.1-1.1,0-1.1c-0.1-0.3-0.1-0.5,0-0.3
		c-0.2-0.9-0.5-1.8-0.4-0.7c0,0,0,0,0,0c0-0.3,0-0.6-0.1-0.9c0.1,0.9-0.2-0.2-0.3-0.1c0,0.3,0.1,0.5,0.1,0.8c0-0.3-0.1-0.5-0.1-0.8
		c0,0,0,0.2,0,0.6c0-0.2,0-0.4-0.1-0.6c-0.2-0.7-0.1-0.1,0,0.6c0-0.2-0.1-0.3-0.1-0.2c0-0.2,0-0.4-0.1-0.6c0,0-0.1-0.1-0.1-0.2
		c0.1-0.4,0.3-0.7,0.4-1.2c-0.1,0-0.2-0.1-0.2-0.1c0.3,0,0.4,0.1,0.4,0.2c0.2,0.1,0.6,0.1,1.1,0.2c-0.2-1.2,1.1-2.7-0.6-3.9
		c-1.1,0.2-1.5,0.5-2,0.8c-0.1-0.3-0.3-0.6-0.6-0.2c-0.3-0.4-0.5-0.8-0.7-1.1c-0.1-0.2,0.2-0.5-1-0.6c-0.3,0.4,1,1.2,0,1.8
		c-0.4-0.3-0.9-0.6-1.6-0.8c0.3,0.8-0.8,1.8-1.6,2.7c-0.3-0.5,0.3-1.3-0.6-1.8c-1.1,0.8-0.7,1.8-1.6,2.6c-0.6-0.9,0-1.8-0.6-2.5
		c-0.2-0.3-0.6-0.6-1.4-0.7c-0.7,0.3-0.9,0.5-1,0.8c-2.2,0.4-1.6,0.9-1.7,1.4c-0.1,0.2-0.6,0.4-0.7,0.7c-0.3,0.9-0.5,1.7-0.3,2.6
		c0.4,1.5,0.2,3-0.1,4.4c-0.1,0-0.1,0-0.3,0l0.2,0.1c-0.2,1.2-0.4,2.3-0.3,3.5c-0.1,0.6-0.1,0.9,0,1.2c0.1,0.2,0.1,0.3,0.1,0.6
		c-0.1,0-0.2-0.1-0.2-0.1c-0.1,0.1-0.3,0.3-0.5,0.2c-0.2,0.2-0.2,0.6-0.7,0.6c0.2,0.1,0.1,0.3,0.4,0.3c0,0,0-0.1-0.1-0.1
		c0.2,0,0.1,0,0.2,0.1c-0.2,0.1-0.2,0.1-0.2,0.2c-0.1,0.1-0.2,0-0.3,0c0,0.1,0,0.1,0.1,0.1c-0.3,0.1-0.1,0.5,0.1,0.8
		c-0.4,0.3,0.1,0.6,0.4,0.9l-0.1,0c-0.5-0.1-0.5-0.4-0.8-0.6c-0.1,0,0,0.1-0.2,0.1c0.5,0.5,0.3,0.7,0.6,1.2c0,0-0.1,0-0.1,0
		c0-0.2-0.2-0.4-0.5-0.5c-0.1,0.1,0,0.1-0.1,0.2c0.2,0,0.2,0,0.1,0.1c0.1,0,0.2,0,0.3,0c-0.1,0.1,0,0.5,0.4,0.4
		c0.1,0.1-0.3,0-0.1,0.1c-0.1,0-0.1-0.1-0.3-0.1c0,0.1,0.3,0.2,0.4,0.2c0.1,0.1-0.2,0-0.3,0.1c0.1,0.1,0.3,0.1,0.4,0.1
		c0.1,0.1-0.1,0.1-0.2,0c-0.1,0.1,0.2,0.1,0.3,0.1c0,0-0.1,0.1-0.3,0.1c-0.2-0.1-0.1-0.1-0.2-0.2c-0.2,0.1,0.1,0.2,0.3,0.2
		c0,0.2,0,0.3,0.4,0.5c-0.1,0.1-0.2,0-0.4,0c-0.1-0.1-0.1-0.2-0.1-0.3c-0.2,0.1-0.4,0.1-0.5,0c-0.1,0.1,0,0.1,0.1,0.1
		c-0.2,0,0,0.1-0.3,0.1c0.2,0.1,0.2,0.3,0.2,0.5c-0.1,0-0.2-0.1,0-0.2c0,0-0.1,0-0.1,0l-0.1-0.1c-0.2,0.1,0,0.2,0.1,0.3
		c-0.2,0-0.3,0-0.5,0c0.2,0.1,0.1,0.1,0.2,0.2c-0.1,0.1-0.2,0.1-0.3,0.1c0.1,0.1,0.1,0.1,0.2,0.1c-0.1,0.1-0.2,0-0.3,0.1
		c0.1,0.2,0.1,0.3,0,0.5c-0.2,0.1-0.1-0.1-0.3-0.1c-0.1,0.1,0.1,0.2-0.1,0.2c0.1,0,0.1,0.1,0.2,0c-0.2,0.4,0.1,0.7,0.1,1.1
		c0-0.1-0.1-0.2-0.1-0.2c-0.2,0.5-0.3,0.7-0.3,0.9c0,0,0,0-0.1,0l0.1,0c0,0.1,0.1,0.1,0.1,0.1c-0.1,0-0.1,0-0.2,0
		c0-0.1-0.2-0.1-0.1-0.2c-0.2,0-0.1-0.1-0.3-0.1c-0.3,0.1,0.4,0.3,0.1,0.4l0.7,0.4c-0.1,0.1-0.2,0-0.3,0c-0.2,0.1-0.1,0.2-0.1,0.3
		c0.1,0,0.2,0,0.3,0.1c0.1-0.1-0.1-0.1,0.1-0.2c0.1,0.1,0.1,0.2,0,0.3l0,0c-0.2,0.1-0.3,0.2-0.3,0.6c0,0,0,0,0,0c0,0,0,0-0.1-0.1
		c-0.1,0.1,0,0.1,0,0.2c0,0.1,0,0.1,0,0.2c0,0,0,0.1-0.1,0.1c0,0,0.1,0,0.1,0c0,0.1,0.1,0.3,0.2,0.4c-0.2-0.1-0.4-0.3-0.5-0.4
		c-0.3,0,0.2,0.4,0.4,0.4c-0.3,0-0.1,0.2-0.3,0.1c0.2,0.1,0.4,0.3,0.7,0.4c0.1,0.2,0.2,0.4,0.3,0.5c0,0,0,0-0.1,0
		c0,0.1,0.1,0.2,0.2,0.3c0,0,0,0.1,0.1,0.1c0,0,0,0.1-0.1,0.1c0.1,0,0.1,0,0.1,0c0.1,0.2,0.1,0.4,0.2,0.6c0,0.1,0,0.1,0,0.2
		c0,0.1,0,0.2,0,0.2c0,0,0,0,0,0c0,0,0,0,0,0.1c0,0.1,0,0.2,0,0.3c0,0-0.1-0.1-0.1,0c-0.1,0,0,0.1,0.1,0.1c0,0.2-0.1,0.4-0.2,0.5
		c0.3-0.2,0.7-0.5,1-0.2c0,0,0,0,0,0c-0.2,0.1-0.2,0-0.2,0.2c0.2,0.1,0.1-0.2,0.2-0.1c0,0,0,0,0,0c0,0,0,0,0,0.1c0,0-0.1,0-0.1,0
		c0.1,0.1,0.2,0.1,0.3,0.2c0,0,0,0,0,0c0,0.1,0,0.3,0,0.5c-0.1,0-0.1,0-0.2,0c0.2,0,0.2,0.1,0.2,0.2c-0.1,0.2-0.1,0.4-0.2,0.6
		c0,0,0,0-0.1-0.1c-0.1,0.1,0,0.1,0,0.2c0,0,0,0.1,0,0.1c0,0,0-0.1-0.1-0.1c0,0,0,0.1,0,0.1c-0.4,0.9-0.8,1.9,0.1,2.5c0,0,0,0,0,0
		c0,0,0,0,0,0c0,0,0,0,0,0c-0.1,0.1-0.2,0.2-0.3,0.2c0.4,0.9,0.6,2.8,1.4,3.3c-1.5,0.4-1.1,1.8-0.7,3.1c-0.8,1.6-1.2,3.4-0.7,4.9
		c-0.1,1.4,0.3,2,0.8,2.5c-0.1,0.1-0.1,0.2-0.1,0.3c0.2,0,0.2-0.2,0.1-0.3c0.1,0.1,0.1,0.1,0.2,0.2c0,0,0,0.1,0,0.1
		c-0.2,0.3-0.4,0.1-0.5,0c-0.3,1.5-0.4,2.2-0.2,2.9c0,0-0.1,0.1-0.1,0.1c0,0,0.1,0,0.2,0c0,0.1,0.1,0.1,0.1,0.2c0,0-0.1,0-0.1-0.1
		c-0.1,0.1,0,0.2-0.1,0.3c0.1,0,0.1,0,0.2,0c0.1,0.1,0,0.1,0.1,0.2c-0.1,0-0.1-0.1-0.2,0l0.2,0.1c-0.1,0.1-0.2,0-0.3,0.1
		c0,0.3,0.1,0.6,0,0.9l0.1-0.1c0,0.1,0.2,0.2,0.1,0.2c-0.1,0.1-0.1,0-0.2,0c-0.1,0.2,0.1,0.5,0.2,0.6c-0.2,0-0.2,0.1-0.1,0.2
		c0.2-0.1,0.2,0,0.2,0.1c0,0,0,0,0,0c0,0,0,0,0,0c0,0,0,0,0,0c0,0.2,0,0.3-0.1,0.5c-0.1,0-0.1,0-0.2,0c-0.1,0.1,0,0.2,0.1,0.2
		c0.2-0.1,0-0.1,0-0.2c0,0,0.1,0,0.1,0c0,0.1-0.1,0.2-0.1,0.3c0,0,0,0-0.1,0c-0.1-0.1,0-0.2-0.2-0.2c0,0.1,0,0.1-0.2,0.2
		c0.2,0.1,0.1,0.1,0.3,0.2c0.1,0.1-0.1,0.2,0,0.3c0,0,0,0.1,0,0.1c-0.1,0.1-0.1,0.2-0.1,0.3c0,0.1,0,0.2-0.1,0.3c0,0,0,0,0,0
		c0,0,0,0.1,0,0.1c0,0,0,0-0.1,0c-0.1,0.1,0,0.2,0,0.2c-0.1,0.4-0.1,0.8-0.1,1.2c0,0,0,0,0,0c0,0,0,0,0,0c0,0.5,0.1,1.1,0.3,1.6
		c-0.1,0-0.1-0.1-0.2-0.1c0,0,0,0.1-0.1,0.1c0,0-0.1-0.1-0.1-0.1c0,0.1,0,0.1,0.1,0.2c0,0,0,0.1-0.1,0.1c0,0,0.1,0,0.1,0
		c0,0.1,0,0.2,0.1,0.3c0,0,0,0,0,0c0,0,0,0,0,0c0,0.1,0,0.3,0,0.4c0,0,0,0,0,0c0,0,0,0,0,0c0,0.1,0,0.1,0,0.2c0-0.1-0.1-0.1-0.3-0.1
		c-0.1,0,0,0.1-0.1,0.1c0.3,0,0.1,0.2-0.1,0.3c0.2-0.1,0.2,0.1,0.5,0c0,0.1,0,0.1,0,0.2c-0.1,0,0-0.2-0.2,0c-0.2,0,0.1-0.1-0.1-0.1
		c-0.1,0.1-0.1,0-0.2,0.1c0.3,0.1,0.1,0.2-0.1,0.2c0.4,0,0.1,0.3,0.2,0.4c0.2,0,0.1,0,0.2-0.1c0.1,0,0.1,0.1,0.1,0.1
		c0,0.1-0.1,0.3-0.1,0.4c0,0,0,0,0,0c0-0.1-0.1-0.2,0-0.4c-0.1,0-0.2,0-0.3,0c0.1,0,0,0.1,0,0.1c0.1,0,0.1,0,0.2,0
		c-0.2,0.1-0.1,0.4,0.1,0.5c0,0,0,0,0,0.1c-0.3,0-0.1,0.2-0.4,0.2c0.1,0,0.1,0.1,0,0.1c0.2,0,0-0.1,0.2-0.1c0.1,0,0.1,0,0.1,0
		c0,0,0,0.1,0,0.1c-0.1,0-0.1,0.1,0,0.1c-0.1,0.2-0.1,0.4-0.2,0.7c-0.1,0-0.2,0-0.3,0c0.2,0,0.1,0,0.2,0.1c0.1,0,0.1-0.1,0.1-0.1
		c-0.1,0.2-0.1,0.4-0.1,0.7c-0.1,0-0.1,0-0.2,0c0,0,0,0.1,0.1,0.1c0.1-0.1,0.1-0.1,0.1-0.1c-0.1,0.4-0.1,0.7-0.1,1
		c0,0,0,0.1-0.1,0.1c0,0,0.1,0,0.1,0c0,0.3,0.2,0.6,0.4,0.9c0,0.1,0.1,0.1,0,0.2c0.2,0,0.2-0.1,0.1-0.1c0.1,0.1,0.3,0.2,0.5,0.3
		c0,0,0,0,0,0c0.3,0.1,0,0.3-0.2,0.5c0.2,0.1-0.1,0.5,0.1,0.7c0.2,0,0.1-0.1,0.1-0.2c0.2,0,0.2,0.3,0.2,0.4c-0.2,0,0-0.1-0.2-0.1
		c-0.1,0.1-0.2,0.1-0.3,0.1c0.1,0.1,0.3,0.2,0.5,0.2c0.1,0.1-0.2,0.1-0.3,0.2c0,0.1,0.2,0.2-0.1,0.2c0.2,0.2,0.2,0.4,0.1,0.5
		c-0.1,0.1-0.3-0.1-0.4,0c0.1,0.1,0.3,0,0.4,0.1c0.1,0.1-0.2,0.1-0.4,0.2c0.1,0.1,0,0.1,0,0.2c-0.1,0-0.2,0-0.4,0.1
		c0.1,0,0.2,0,0.1,0.1c0.1,0.1,0-0.1,0.2-0.1c0.2,0.1,0,0.1,0,0.2c0.1,0.1,0.2-0.1,0.1-0.1c0.1,0,0.2,0,0.3,0c0,0.1-0.2,0.1,0.1,0.1
		c-0.2,0.1-0.2,0-0.3,0c-0.1,0.1,0.1,0.1,0.2,0.1c0,0.1,0,0.2,0,0.3c0.1,0,0.2,0.1,0.2,0.1c0.1-0.1-0.1-0.1,0-0.2
		c0.1,0,0.2,0,0.3,0.1c-0.2,0.1-0.1,0.1-0.1,0.2c0.4,0.1,0.8,0.1,1.2-0.8c-0.2-0.7-0.7,0.2-0.7-1.3c0,0.3,0.2,0.3,0.2-0.3
		c-0.1-0.4-0.2-0.8-0.2-0.4l0,0.1c0,0,0,0,0,0c0,0,0,0,0-0.1c0,0.2,0,0.4-0.1,0.9c-0.1-0.1-0.1-0.4-0.1-0.8c0,0-0.1,0.1-0.1,0.1
		c0.1-0.1-0.1-0.1,0.1-0.2c0,0,0,0,0,0.1c0-0.1,0-0.1,0-0.2c-0.3,0-0.6,0-0.5-0.2c0.1,0,0.2,0.1,0.4,0.1c-0.1,0,0-0.1,0.1-0.1l0,0.1
		c0.1-0.7,0.2-1.6,0.4-2.2c0.2,1.7,0.4,4.1,0.8,1c0,1.6,0.3-0.6,0.3,0.8c-0.2,1.1-0.3,0.3-0.3,1.2c0,1.1,0.2,0.4,0.4-0.1
		c0-0.3,0-0.7,0.1-1c0.1,1.1-0.1,2.2-0.4,3.2c-0.1-0.5,0-1.3-0.4-0.2c0.1,1.2-0.3,2.1-0.2,3.2c0.2-0.5,0.2-0.1,0.3-0.2
		c0.5-3.7,1.2-5.5,1.6-5.6c-0.3,0.9,0,1.6,0,1.3c0.3-1.9,0.5,0,0.7,0.3c-0.1,0.5-0.3,1-0.3,1.5c0.1,1,0.5-2.4,0.6-1.7
		c-0.3,2.1,0.2,0.3,0.3,0.5c-0.2,0.7,0,1.6,0,2.3c0.1-0.6,0.2-0.3,0.3-0.9c-0.1,0.2-0.3-0.2,0-1.4c0.1,1,0.3,1.2,0.5-0.8
		c0.1,0.7-0.2,1.2-0.1,1.9c0.4-2,0.2-0.1,0.3-0.2c0.2-0.7,0.2-1.5,0.3-2.2c-0.2,1.6-0.3-0.3-0.5-0.2c0.2-0.6,0.1-1.3,0.3-1.9
		c0.1,0.2,0.2,0.7,0.4-0.1c0.1-1.2,0-1.3-0.1-2c0.4,0.4,0.3,1.4,0.3,3.5c0.3-1,0.3,1.6,0.4,2.2c-0.1,1-0.3,1.8-0.4,2.8
		c0.2-0.2,0.4,0.7,0.6,0.3c0.1-0.8,0.3-2.4,0.4-1.5c-0.1,1.1-0.3,0.7-0.3,2.2c0.3-1.7,0.1-0.5,0.3-0.5c0.1-0.7,0.2-1.5,0.3-2.2
		c-0.1,0.2-0.3-0.3-0.1-1.1c0.1,0.1,0.1,1.3,0.3,0.2c0.1-1.2-0.2-0.5,0-1.4c0,0.5,0.2-0.4,0.2-0.9c0.1,0.9,0,1.8-0.1,2.6
		c0.1-0.2,0.2,0.8,0.3,0.2c0,1-0.2,3.6,0.1,2.7c0.3-0.9,0.1-2,0.4-2.8c0.1,1-0.3,1.8-0.2,2.9c0.3,0.5,0.6,1.1,1.1-0.5
		c-0.2,2,0.3,0.2,0.4,0.5c0.1,0.6-0.2,2.8,0.1,2.4c0.3-1.2,0.7-3,0.8-3.6c-0.1,0.7,0,1.2,0.1,2c-0.1,1.6-0.3-0.1-0.4,1.5
		c0.2,0.1,0.6,0.7,0.8-1c-0.1-0.7-0.4,0.4-0.2-1.1c0.5-1.2,0.8,1.6,1.3-0.1c0.4,1.3,0.4,3.9,0.9,1.4c0,0.9-0.1,2.1,0.1,1.4
		c0-0.6,0.1-1.1,0-1.7l0.4-1.8c-0.2,2.9,0.5-0.2,0.5,1.2c0.7-2.5,1.5-5,2.3-7.3l5.8-3.8c0,0-1.8,3.6-3.8,11.2
		c0.3-0.1,0.4,0.4,0.7,0.5c0.3-1,0.3-2.1,0.4-3.2c0.2,1.2,0,1.1,0,2.7c-0.6,2.3-0.6,0.9-1,1.5c0.1,0.8,0,1.3,0.2,2.1
		c0.8-1.8,1.6,3.6,2.1-1.9c-0.1,0.6-0.3,0.4-0.1-0.5c0.1-0.1,0.3,0.3,0.3-0.5c-0.2-0.3-0.5,0.7-0.8,2c0-2.4-0.4,0.2-0.5-1.2
		c0.2-1.3,0.2,0.3,0.3-0.2c0.1-0.8,0.2-1.5,0.2-2.3c0.3-0.7,0.4-2.1,0.5-0.8c-0.1,1.4-0.5,1.3-0.4,3.1c0.4-1.8,0.7-2.6,0.7-4
		c0-1-0.4,0.3-0.1-1.4c0,0.3,0.1,0.3,0.2-0.2c-0.1,2.4,0.5,0.8,0.1,4c0.3-1.8,1.1-3.5,1.2-1.5c0-0.4,0.1-0.9,0.1-1.3
		c0,0.4,0.1,0.7,0.2,0.1c0,0.9-0.1,1.7-0.2,2.6c-0.2-0.6-0.4-0.3-0.7-0.3c0,0.8-0.3,1.4-0.1,2.3c0.3-2,0.6,0.2,1.1-1.8
		c0-0.8-0.2-0.5,0-1.7c0.3-0.5,0.7,1.4,0.9-1.2c-0.1,1.5-0.1,3.2,0.3,1.1c0,0.6,0,1.1,0,1.7c-0.2,1.4-0.1-0.9-0.3,0.5
		c0.1,1.8-0.2,0.5-0.2,1.6c0,1,0.2,0,0.3,0.1c0-1.9,0.3-1.6,0.3-3.5c0,1.3,0.2,2.9,0.4,0.9c0,0.7,0.1,0.4,0.1,1.1
		c-0.1,2.6-0.6,1.1-0.6,3.4c-0.4-1.7-1,0.2-1.5,0.3c0,2.2,0.5-1,0.4,1.5c0.2-0.5,0.3-0.9,0.4-2.1c0.2,1.2,0.1,0.1,0,2
		c0.2-0.6,0.2,0.2,0.3-1.5c0.3,0.4-0.3,2.6-0.3,3.8c0.3-0.9,0.3,1.1,0.6,0.3l0.1-2c-0.2,1.3-0.2,0.4-0.4,0.8
		c-0.1-0.6,0.1-2.8,0.2-2.2c-0.1,0.2-0.3,2-0.1,1.3c0.2-0.6,0.3-1.2,0.3-1.8c0.1,0.1,0.4,1.4,0.5,0.2c0-1.2-0.3,0.4-0.4-0.8
		c0.2-1.5,0.3,0.1,0.4-1.5c-0.1,2.8,0.6,2.7,0.8,0c0.1,0.9-0.1,2.5,0.2,1.7c0.1-0.5,0.1-1.1,0.2-1.6c0.1,1,0.2-0.3,0.3-0.9
		c0.1,0.4,0.2,1.2,0.3,1.5c-0.4,1.2-0.8,2.8-1.1,5.1c0.2,0.1,0.2-1,0.3-1.8c0,1.6,0.3,0,0.4,1.2c-0.1,0.7-0.1,1.5-0.1,2.3
		c0.3-1.9,0.3,0.3,0.4,0.2c0.1-0.5,0.2-1,0.2-1.5c0-0.3-0.4,0.7-0.2-0.7c0,0.2,0.4-0.9,0.3-1.2c-0.1,0.7-0.4,0.2-0.2-1.1
		c0.4-2,0.4,0.1,0.7-2c0,0.6-0.1,1.1-0.1,1.6c0.2-0.2,0.5,0.8,0.7-1c0.2,2,0.5-0.5,0.8-0.6c0,0,0.1,1.8,0.2-0.2c0.1,0.7,0,1.3,0,2
		c0.2-2,0.5-0.1,0.7-1c-0.1,0.6-0.1,1.3-0.1,2c0.2,0.9,0.2-1.2,0.3-0.9c-0.1,0.5-0.1,1.1-0.1,1.6c0.2-1.6,0.1,1,0.2,0.1
		c0.2-0.6,0-1.3,0.1-1.9c0.2,0.8,0.6-1.3,0.9-0.3c-0.1,0.5-0.1,1-0.2,1.6c0.3-1.4,0.5-1.5,0.3,0.5c0.4-0.9,0.8-2,0.8,0.4
		c0.2-1.3,0.3,0,0.4-0.5c0.1-1.1,0.2-0.7,0.3-2.1c0,1.3,0,1.6,0.2,1.4c-0.1,1.4-0.3,0.8-0.4,1.1c0,1.3-0.2,2.5-0.3,3.8
		c0.1,0.5,0.3,0.6,0.5-1.1c0.2,0.5,0.4,2.2,0.8-0.3c0.1,0.4-0.2,2.3,0,1.7c0.1-0.3,0.1-0.6,0.1-0.9c0.2,2.3,1-0.2,1.4,1.3
		c-0.1-1.5-0.1-1.1-0.2-2.7c-0.2,1.4-0.1-0.9-0.3,0.5c0,0.4,0.1,0.1,0,0.7c-0.4,0.7-0.5-1.2-0.9-0.7c0.1-0.6,0.3-0.6,0.2-1.9
		c0.2-0.9,0.3-0.6,0.3,0.8c0.1-0.6,0.7-2.1,0.9-1.3c-0.1,0.5-0.2,1-0.1,1.6c0.1,0.8,0.3-0.6,0.4-0.5l-0.1-1c0.4,0.3,0.8-0.1,1.2-0.5
		c0.1,0.7,0,1.3,0,2l0.2-1.2c0.1,0.6,0,1.1,0,1.6c0.1-0.6,0.1,0.5,0.3-0.5c0-0.4-0.1-0.9,0-1.3c0.1,0.5,0.3-0.4,0.3,0.5
		c-0.1,0.5-0.2,1-0.1,1.6c0.1-0.9,0.2,0,0.3-1.2c0-0.6,0-1.1,0-1.6c0.1,2.7,0.5-0.1,0.7,0.6c0,0.7-0.2,1.2-0.2,1.9
		c0.4,2,1.3-1.6,1.8,2.4c0.1-0.5,0-1.1,0.1-1.6c0.2,0.1-0.1,0.8,0,1.6c0.2,0.1,0-0.8,0.2-1.5c0.1,0.7,0,1.3,0.1,2
		c0.2-0.9,0.3,0.3,0.6-0.7c0-0.6,0-1.1,0-1.6c0,0.3,0.1-0.1,0.2-0.6c0.2,2.1,0.5-0.5,0.7,0.6c-0.1,2-0.3,0.6-0.4,1.1
		c0,0.3,0,0.6,0,1c0.3-0.1,0.6,0.2,0.9,0.4c-0.1-1-0.3-1.5-0.5-1.2c0.1-0.5,0.1-1.1,0.1-1.6c0.2,2,0.2-0.2,0.4,0.2
		c0,0.9,0.2,2.2,0.3,2.1c0-1.5,0-1.6-0.1-2.6c0.1,1.1,0.2,0,0.3,1.8c0.1-1.2,0.3-1.7,0.3,0.1c0.4-1.8,0.6-0.8,0.9-0.6
		c0.2-0.5,0.2-2.7,0.3-2.1c-0.1,1.8,0.1,0.5,0.1,2.7c0.4-3,0.7-0.5,1-3.5c0.1,1.2,0.2-0.3,0.4-0.2c-0.3,3.7,0.7,1.2,1,0.1
		c0,2.1-0.3,1.1-0.3,2.1c0.1,0.8,0.2,1.7,0.3,1.8c0-1.8,0.1-0.5,0.2-0.6c0-1.5,0.1-1.5,0.1-2.5c0.1,0.9-0.1,1.7-0.1,2.6
		c0.1,1.1,0.3,1.1,0.2,3.3c0.1-1.4,0.2-2.7,0.3-4.1c0.1,1.7,0.3,1.5,0.4,2.8c0.1-1.4-0.2-2.9-0.2-4.3c0.3-0.5,0.3,4.2,0.7,1.6
		c-0.4-0.7-0.3-2.8-0.7-3.8c0.2,0.2,0.5-0.4,0.5,0.9c0-0.2-0.1-0.1-0.1,0.3c0.1,2,0.3,2.4,0.5,2.5c-0.1,1-0.2,1-0.1,2.6
		c0.1-0.2,0.2,0.6,0.3-0.2c0-0.9-0.2-0.2-0.1-1.3c0.2,0.5,0.3,1.5,0.4-0.8c0.1,2.2,0.6,1.6,0.5-0.1l0.1,1.3c0.1-1.7,0.2-0.7,0.3-1.2
		c0.1,1.3,0,2.1,0.2,2.7c0.2-1.2,0.4-2.4,0.6-1.4c-0.1,1-0.4,0.2-0.3,1.8c0.2-0.2,0.2,1.1,0.3,1.1c0.3-1.3,0.4-0.9,0.5-3
		c0.4,2.2,0.8-3.2,1.2,0.5c0-0.8,0.1-1.2,0.2-1.2c0.2,0.7,0,3,0.2,2.7c0.1-0.7-0.1-1.5,0-2.2c0.3-0.1,0.4,0.9,0.6-1
		c0.2,0.7-0.1,1.2,0,1.9c0.2,0.1,0.5,0.8,0.6-1.4c0.2,0.3,0.3,1.1,0.5-0.1c0.1,0.8,0.1,1.5,0.2,2.3c0.1-2,0.3,0.9,0.4-0.5
		c0-0.9,0-1.7,0.1-2.5c0.2,1.5-0.2,2.7,0.1,4.2c0.1-0.7,0.1-0.2,0.2-0.2c0-0.8-0.1-1.5,0-2.2c0.1,0.9,0,1.9,0.2,2c0.1-1,0-2.1,0-3.2
		c0.2,1.8,0-1.3,0.2-0.2c0,0.7,0.1,0.4,0.1,1c0.2-2,0.4,0.2,0.4-2.7c0,1.5,0.1,1.6,0.2,2.6c-0.1,0.2-0.1,1.2-0.1,2.2
		c0.1,0.1,0.5,1.5,0.5-0.8c-0.1,0.9-0.3-0.1-0.3-1.4c0.2-1.1,0.4-0.4,0.6-2.3c0.2,1.7,0.4-0.9,0.4,1.8c0.2-1.1,0.3-0.6,0.4-1.7
		c0,2.2,0.3-0.4,0.4,1.1c-0.1,1.3-0.2-0.4-0.3,0.8c0.3,2.2-0.2,0.6-0.1,2.5c0.2,0.7,0.2,0.1,0.3,0.8c0.1-2.1,0.4-2.3,0.6-4.2
		c0.1,1-0.1,1.9,0,2.9c0,1-0.3,0.1-0.2,1.5c0.2-0.5,0.4-1.3,0.7,0.6c0.2-0.8,0.3-2.5,0.5-0.4c0.3-0.3,0.2-4.5,0.5-2.7
		c-0.2,0.5-0.1,1.5-0.1,2.8c0.3-1.6,0.9,0.2,0.9-2.2c-0.2-1.7,0,1.3-0.2-0.4l0.1-1.5c0.1,1.8,0.3,1.8,0.4,1.8c0,0,0,0,0,0
		c0,0,0,0,0.1,0c0-0.1,0-0.1,0-0.2c0,0,0,0,0,0c0-0.1-0.1-0.2,0-0.2c0-0.1,0-0.1,0-0.2c-0.1-0.1-0.2-0.2-0.1-0.3c0.1,0,0.1,0,0.1,0
		c0,0,0-0.1,0-0.1c0,0-0.1,0-0.1,0c0,0,0-0.1,0.1-0.1c0.1-0.9,0.2-0.4,0.3-1.3c0,0,0,0.1,0,0.1c0-0.1,0-0.3,0-0.4
		c0,0,0.1,0.1,0.1,0.1c0,0,0,0,0-0.1c0,0,0-0.1,0-0.1c0,0,0-0.1-0.1-0.1c0,0,0,0,0,0c-0.5,0.2-0.6,0.7-0.5,1.2
		c-0.2-0.2-0.3-0.4-0.5-0.7c0.1,0,0.1-0.1,0.2,0c-0.1,0-0.4-0.3-0.4-0.4c0.2,0,0.3,0.3,0.4,0.2c-0.2,0.1-0.1,0.1,0,0
		c-0.2-0.3-0.3-0.5-0.2-0.7c0.3-0.1,0.2,0.3,0.5,0.3c0-0.1,0.1-0.1-0.1-0.2c0.3-0.3-0.4-0.9-0.5-1.2c0.1-0.1,0.2,0.2,0.3,0.1
		c-0.2-0.1-0.3-0.2-0.4-0.3c-0.1,0.1-0.1,0.1-0.1,0.2c0,0-0.1,0-0.1,0c-0.1-0.1,0.2-0.3-0.1-0.4c0.1,0,0.1,0,0.2-0.1
		c-0.2-0.1,0-0.2-0.1-0.3c0.1,0,0.2,0,0.2,0c0.1-0.1-0.1-0.1,0.1-0.2c-0.1-0.1-0.1,0-0.2,0c0.1-0.4,0-0.7-0.1-1.1
		c0.1,0,0.2,0,0.3,0.1c0-0.1-0.1-0.1,0-0.2c-0.1-0.1-0.2,0-0.3-0.1c0.2-0.1,0.1-0.2-0.1-0.3c0.1-0.1,0.2,0,0.3-0.1
		c-0.1,0-0.2,0-0.3,0c0.3-0.1,0-0.1-0.1-0.3c0.1-0.1,0.2,0,0.3-0.1c-0.1,0-0.1,0-0.2,0c-0.1-0.1,0.2-0.5,0.5-0.5
		c-0.2-0.2-0.3,0.2-0.5,0c0-0.1,0.1-0.1,0.2-0.2c-0.2-0.1,0-0.2-0.3-0.3c0-0.1,0-0.2,0.2-0.2l-0.2-0.1c-0.2,0.1,0.2,0,0,0.1
		c-0.3-0.1-0.1-0.4-0.3-0.6c0.2,0,0.3,0,0.4,0.1c0.2-0.2-0.3-0.2-0.4-0.3c0.3-0.1,0-0.2-0.1-0.3c0.2-0.1,0.1-0.2,0.1-0.4
		c0.2,0,0.1,0.1,0.2,0.2c0.1,0,0.3,0.1,0.4,0c-0.3-0.1-0.3-0.3-0.6-0.4c0.1,0,0-0.1,0.1-0.2c0.3,0,0,0.3,0.3,0.1
		c0.2,0.1-0.1,0.1,0.1,0.2c0.2-0.1-0.1-0.3,0.1-0.2c-0.2-0.1-0.1-0.2-0.2-0.3c0.4,0,0-0.1,0.2-0.2c-0.3-0.1-0.2-0.3-0.3-0.4
		c-0.2,0-0.3,0.1-0.2,0.2c-0.3,0-0.1-0.2-0.1-0.3c0.1,0,0.3,0,0.3,0.1c0.1,0,0.1-0.1,0.4-0.1c-0.4,0-0.1-0.1-0.4-0.2
		c-0.2,0.1,0,0.1-0.1,0.2c0-0.1-0.2-0.1,0-0.2c0.1,0,0,0,0.1,0.1c0.1,0,0-0.1,0.1-0.1c0.1-0.1-0.3,0,0-0.1c-0.1,0-0.3,0.1-0.4,0
		c0-0.1,0.1,0,0.3-0.1c-0.1-0.1-0.2,0-0.3,0c0,0,0.1-0.1,0-0.1c0.2-0.1,0.4,0.1,0.6,0c-0.1,0-0.2-0.1-0.3,0
		c-0.2-0.1,0.2-0.1-0.1-0.2c0.1-0.1,0.2-0.1,0.3-0.1c-0.2-0.1-0.1-0.2,0-0.3c-0.3-0.1-0.2-0.2-0.2-0.3c0.1-0.1,0.2,0.1,0.3,0
		c-0.3-0.1-0.1-0.2-0.2-0.4c-0.1-0.1-0.2,0-0.3,0c0-0.1,0.3,0,0.4-0.1c0-0.1-0.1-0.1-0.2-0.1c0.5-0.2-0.2-0.4,0-0.7
		c-0.3-0.1-0.2-0.1-0.4-0.3c0,0,0.2-0.1,0.1-0.2c0.2,0,0.1,0.1,0.3,0.2c0.1-0.1,0-0.2-0.2-0.3c0.1-0.1,0.2-0.1,0.4-0.1
		c-0.1-0.1,0.1-0.1-0.2-0.2l0.2-0.1c-0.2,0-0.3-0.2,0-0.3c-0.3-0.1-0.2-0.1-0.1-0.2c-0.2-0.1-0.1,0-0.2,0c-0.1-0.1,0-0.1,0-0.2
		c0.2-0.1,0.2,0,0.3,0c0-0.1,0.1-0.2,0.3-0.3c0.1,0,0.1,0,0,0.1c0.2,0,0.1-0.2,0.1-0.3c-0.1,0.2-0.4,0.2-0.5,0.4
		c-0.4-0.2,0.3-0.2,0.2-0.4c-0.2,0-0.4,0.2-0.6,0.2c0.2-0.1,0.1-0.2,0.4-0.3c-0.2-0.1-0.4-0.1-0.6-0.1c0.3,0,0.3-0.1,0.4-0.2
		c0.1,0,0.2,0.1,0.3,0c-0.1,0-0.1-0.1-0.3,0c0-0.1,0.2-0.1-0.1-0.1c0-0.1,0.1-0.1,0.2-0.2c0.1,0,0,0.2,0.3,0.2
		c-0.2-0.1-0.5-0.6,0-0.6c0-0.1-0.2-0.1,0-0.2c-0.4-0.1-0.1-0.3-0.5-0.5c0.3,0,0.1-0.2,0.4-0.1c0.1-0.1-0.2,0-0.3-0.1
		c0-0.2,0.2-0.3-0.1-0.5c0.2,0,0.2-0.2,0-0.2c0.2-0.1,0.1-0.1,0.2-0.2c-0.1,0-0.1,0.1-0.4,0.1c0-0.1,0.2-0.2,0.3-0.2
		c0-0.1-0.3-0.1,0-0.2c-0.1,0-0.1,0-0.2,0c0.1,0.1,0,0.2-0.1,0.3c0-0.2,0-0.3,0-0.5c0,0,0.1,0,0.1,0c0.1,0.1-0.1,0.2,0.2,0.2
		c0.1-0.1-0.2-0.2,0.1-0.4c-0.1,0-0.1-0.1-0.1-0.1c-0.1,0-0.1,0-0.2,0c-0.1-0.1,0-0.2-0.1-0.3c0.1-0.1,0.2,0,0.3-0.1
		c-0.1-0.1-0.2,0.1-0.2-0.1c0.1-0.1,0.2,0,0.2-0.1c-0.1-0.1-0.1,0-0.2,0c0.5-0.3,0-0.7,0.3-1c0.1,0,0.2,0.1,0.3,0
		c0.1-0.1-0.3-0.2,0.1-0.4c-0.1,0-0.1,0-0.2,0c-0.2,0,0-0.1-0.2-0.1c0.1-0.1,0.1,0,0.2,0c0.1-0.1,0-0.1,0.1-0.2c-0.1,0-0.1,0-0.2,0
		c-0.1,0,0-0.1-0.1-0.1c0.1,0,0.1,0,0.2,0l-0.2-0.1c0.1-0.1,0.2,0,0.3-0.1c-0.1-0.2-0.1-0.4-0.1-0.6l-0.1,0.1c0-0.1-0.2-0.1-0.1-0.2
		c0.1-0.1,0.1,0,0.2,0c0.1-0.1-0.1-0.3-0.2-0.4c0.2,0,0.2-0.1,0.1-0.2c-0.2,0.1-0.2,0-0.3,0c0.1,0.2-0.2,0.3-0.1,0.5
		c0.1,0,0,0,0.1,0c0.2,0-0.1,0.1,0.1,0.1c-0.2,0.1-0.2,0.1-0.4,0.2c0.2-0.3-0.2-0.6,0.1-0.8c0,0-0.1,0-0.1,0c-0.1-0.1,0.2,0,0.2-0.1
		c-0.4-0.1-0.1-0.3-0.1-0.4c-0.2,0-0.2-0.1-0.2-0.2c0.2,0,0.3,0.1,0.5,0c0.1,0.1,0,0.2,0.2,0.2c0-0.1,0-0.1,0.2-0.1
		c-0.2,0-0.2-0.1-0.3-0.1c-0.1-0.1,0.1-0.1-0.1-0.2c0.3-0.1,0.2-0.3,0-0.4c0.3,0,0.2-0.1,0.1-0.2c0.1,0,0.1,0,0.2,0
		c0.1-0.1-0.2-0.3-0.1-0.4c-0.1,0-0.2,0.1-0.3,0c-0.1,0,0.2-0.1,0-0.1c0.1,0,0.1,0,0.2,0c0-0.1-0.2,0-0.1-0.1c0.1-0.1,0.2-0.1,0.3,0
		c-0.1-0.1,0.1-0.3-0.2-0.3c0.1-0.1,0.2,0,0.3-0.1c-0.3,0,0-0.1,0-0.1c0-0.1-0.4-0.2-0.1-0.4c-0.3,0-0.1-0.2-0.2-0.3
		c0.1,0,0.1,0,0.2,0c-0.3-0.1,0-0.2-0.3-0.3c-0.2,0-0.2,0.1-0.1,0.1c0,0-0.2-0.1-0.2-0.1c-0.2,0-0.1,0.1-0.1,0.1
		c-0.1,0-0.1,0-0.2-0.1c0,0,0.3-0.1,0-0.2c0.1-0.1,0.2-0.1,0.3-0.1c0.2-0.1-0.1-0.2,0.1-0.2c0,0,0,0,0,0c-0.1,0-0.3,0-0.3-0.1
		c0.1,0,0.2,0.1,0.3,0.1c0,0,0,0,0,0l0,0c0.2,0.1,0.3,0.2,0.5,0.3c0-0.1,0.1-0.1,0.2-0.2c-0.1,0-0.3,0-0.1-0.1c-0.1,0-0.1,0-0.2,0
		c-0.1-0.1,0.1-0.1,0.2-0.1c-0.4,0-0.4-0.3,0-0.4c-0.2,0,0-0.1-0.2-0.1c-0.2,0.1,0.1,0.1-0.1,0.2c-0.2,0,0-0.2,0-0.3
		c-0.1,0-0.2,0-0.3-0.1c-0.1,0,0.1-0.1,0.2,0c0.1-0.1-0.2-0.1-0.3,0c0.1,0-0.1,0.1,0.1,0.1l-0.3,0c-0.1-0.1,0.2-0.2,0-0.3
		c0.2,0,0.5,0.1,0.5,0c-0.2,0-0.1,0-0.2-0.1c0.3,0,0.1,0.1,0.3-0.1c-0.2,0-0.2,0-0.3-0.1c0.3,0-0.1-0.2,0.2-0.3
		c0,0.3,0.3,0.4,0.1,0.7c0.3-0.1,0.1,0.2,0.5,0.1c0.1,0,0-0.1,0.1-0.1c-0.3,0-0.1-0.2,0.1-0.3c-0.3,0.1-0.2-0.1-0.5,0
		c0-0.1-0.1-0.1,0-0.2c0.1,0,0,0.2,0.2,0c0.2,0-0.1,0.1,0.1,0.1c0.1,0,0.1,0,0.2-0.1c-0.3-0.1-0.1-0.2,0.1-0.2
		c-0.4,0-0.1-0.3-0.2-0.4c-0.2,0-0.1,0-0.2,0.1c-0.3-0.1,0-0.4-0.3-0.4c0.1-0.1,0.2,0,0.3,0c0,0.1,0.1,0.2,0,0.3c0.1,0,0.2,0,0.3,0
		c-0.1,0,0-0.1,0-0.1c-0.1,0-0.1,0-0.2,0c0.3-0.1,0-0.4-0.2-0.5c0.4,0,0.2-0.2,0.5-0.2c-0.1,0-0.1-0.1,0-0.1c-0.2,0-0.1,0.1-0.2,0.1
		c-0.2,0-0.3-0.1-0.6-0.2c0.2-0.1,0.2,0.1,0.4,0.1c0.2-0.1,0-0.1-0.1-0.2c-0.1,0-0.2,0-0.3,0c-0.1,0,0.1-0.1,0-0.1
		c-0.2,0.1,0.2,0.2-0.2,0.3c0.2,0.1,0.3,0.2,0.3,0.3c-0.1,0-0.1-0.1-0.1-0.1c-0.2,0-0.2,0.1,0,0.1c-0.8,0-0.2-0.5-0.3-0.8l0-0.1
		c0.1,0,0.1-0.1,0.2-0.1c0.1,0.1-0.1,0.2,0.2,0.4c0.2-0.1,0.2,0,0.4-0.1c-0.1,0-0.3,0.1-0.4,0c0-0.1,0.1-0.3,0-0.4
		c-0.1,0.1-0.2,0.1-0.3,0c0,0.1-0.1,0.1-0.1,0.2c0,0,0,0-0.1,0l0.1-0.3c0,0,0.1,0,0.1,0c-0.1,0-0.1-0.1-0.1-0.1l0.1-0.5c0,0,0,0,0,0
		c0,0,0,0,0,0l0.1-0.2l-0.1,0.2c0,0,0-0.1-0.2-0.1c-0.1,0.1-0.2,0.1-0.3,0.1c0,0,0-0.1,0-0.1l0.1,0l-0.2-0.1c0,0,0,0,0,0
		c0.2,0,0.5,0.1,0.2,0.2c0.1,0,0.3,0,0.4,0c-0.3-0.1-0.2-0.2-0.4-0.4c-0.2,0,0.1,0.1-0.1,0.1c-0.2,0,0-0.1-0.2-0.2
		c0.1,0,0.1,0,0.2-0.1c-0.5-0.1,0-0.2-0.2-0.4c0.3-0.1,0.2,0.2,0.4,0.2c0,0,0,0,0-0.1c0.1-0.1,0.2,0.1,0.3,0c-0.1-0.1,0-0.2-0.2-0.1
		c-0.2-0.1,0.1-0.1,0-0.2c0,0,0,0,0.1,0c0.1,0.1,0.2,0.2,0.3,0.3l0.2-0.7c0,0,0,0.1,0.1,0.1c0.2,0,0-0.1,0.1-0.1c-0.1,0-0.2,0-0.2,0
		l0.2-0.7l-0.5,0.1c0,0,0,0,0,0c0.2,0,0.3-0.3,0.4-0.6c0.1,0,0.1,0,0.2-0.1l-0.1-0.1c0,0,0,0,0,0c0,0,0,0,0,0c0.1,0,0.1,0,0.2,0
		c0,0-0.1-0.1-0.1-0.1c0-0.1,0-0.2,0-0.3c0,0,0,0,0.1-0.1c-0.1,0-0.1,0-0.1,0c0,0,0-0.1,0-0.1l0,0c0,0,0,0,0,0c0,0,0,0,0-0.1
		c0,0,0,0,0,0.1c-0.1-0.1,0-0.1-0.1-0.2c0,0.1,0,0.1,0,0.2l0.1,0c0,0,0,0.1,0,0.1c0,0-0.1,0-0.2,0.1c0.2,0.1,0,0.1,0.2,0.2
		c0.1-0.1,0-0.1,0.1-0.2c0,0.1,0,0.2-0.1,0.3c0,0,0,0-0.1,0c0,0,0,0,0,0.1c0,0,0,0.1,0,0.1c0,0,0,0-0.1,0c0,0,0,0,0.1,0
		c-0.1,0.2-0.1,0.3-0.2,0.5c0-0.1,0-0.1,0-0.2c-0.2,0-0.1,0.1-0.1,0.1c-0.2,0-0.2-0.2-0.1-0.3c0.2,0,0,0.1,0.2,0.1
		c0.1-0.1,0.2-0.1,0.3-0.1c-0.1-0.1-0.3-0.1-0.5-0.2c-0.1-0.1,0.2-0.1,0.3-0.1c0,0-0.2-0.2,0.1-0.2c-0.2-0.2-0.1-0.3-0.1-0.5
		c0.1-0.1,0.3,0.1,0.4,0c-0.1-0.1-0.3,0-0.4-0.1c-0.1-0.1,0.2-0.1,0.4-0.2c-0.1-0.1,0-0.1,0-0.2c0.1,0,0.2,0,0.4-0.1
		c-0.1,0-0.2,0-0.1-0.1c-0.1-0.1,0,0.1-0.2,0.1c-0.2-0.1,0-0.1,0-0.2c-0.1,0-0.2,0.1-0.1,0.1c-0.1,0-0.2,0-0.3,0
		c0-0.1,0.2-0.1-0.1-0.1c0.2-0.1,0.2,0,0.3,0c0.1-0.1-0.1-0.1-0.2-0.1c0,0,0,0,0,0c0.1,0,0.3,0,0.4,0c0,0,0.1,0.1,0.2,0.1
		c0-0.1,0.1-0.1,0.2-0.1c0.2,0.1-0.1,0.2,0.1,0.3c0,0,0-0.1,0.1-0.1c0,0,0,0,0,0l0,0c0,0,0,0,0.1,0c0,0,0,0-0.1,0l0.1-0.2
		c0,0,0,0,0,0c0,0,0,0,0,0l0.4-1.7c0,0,0,0,0.1,0c0,0,0,0-0.1,0l1.6-6.7l-0.5-2.1h0.2c0-0.7-0.1-1.4-0.2-2.1c0.1,0,0.1,0,0.2,0
		c-0.3-0.1-0.2-0.3-0.2-0.5c0.2,0,0,0.1,0.2,0.1c0-0.1,0.2,0,0.3-0.1c-0.1-0.1,0-0.2-0.1-0.3l-0.1-0.1c0,0,0,0.1,0,0.1
		c-0.1,0-0.1-0.1-0.1-0.1c-0.1,0-0.2,0-0.3,0.1c-0.2-1.2-0.3-2.4,0.5-3.6c-0.2-0.7-0.4-1.4-0.2-2.6l0.7-0.3c-0.3-0.9,0.7-2.7,0-3
		C162.6,169,161.1,165.6,161.4,164.1z M95.2,171.9C95.3,171.9,95.3,171.9,95.2,171.9c0.1,0.1,0.1,0.1,0.1,0.2
		C95.3,172.1,95.2,172,95.2,171.9z M95.4,168.4c0,0,0.1,0,0.1,0c0.1,0.1,0.2,0.1,0.2,0.1c0,0,0,0,0,0.1c-0.1,0-0.1,0-0.2,0.1
		C95.4,168.5,95.4,168.5,95.4,168.4z M95.7,169.2C95.7,169.2,95.7,169.2,95.7,169.2C95.7,169.2,95.7,169.2,95.7,169.2
		C95.7,169.2,95.7,169.2,95.7,169.2z M96.4,166.4c-0.1,0-0.1,0-0.2-0.1c0.1-0.1,0.1-0.1,0-0.1C96.4,166.2,96.6,166.4,96.4,166.4z
		 M96.8,166.5c-0.1-0.2-0.1-0.2-0.4-0.3c0.2-0.1,0.1-0.1,0-0.2c0.2-0.1,0.2-0.1,0.4-0.1c-0.2-0.1-0.3-0.1-0.5,0
		c0.1-0.2,0.5-0.2,0.7,0c-0.3,0.2,0.2,0.4,0.1,0.5c-0.2,0.1-0.1-0.1-0.3-0.1C97,166.3,97,166.5,96.8,166.5z M97.1,167.2
		c-0.1-0.1-0.2-0.2-0.1-0.3C97.1,167,97.2,167.1,97.1,167.2C97.1,167.2,97.1,167.2,97.1,167.2z M97.1,166.6c-0.1-0.1-0.1-0.1,0-0.2
		C97.2,166.4,97.3,166.5,97.1,166.6z M96.2,206.6C96.2,206.6,96.3,206.6,96.2,206.6l-0.2,0C96.1,206.5,96.2,206.5,96.2,206.6
		C96.2,206.5,96.1,206.6,96.2,206.6z M96.9,198c0.1,0.1,0-0.1,0.2-0.1C97.3,197.9,97.1,198.1,96.9,198C97,198,96.9,198,96.9,198z
		 M97,198.8c-0.1,0-0.1-0.1,0-0.1C97,198.7,97,198.8,97,198.8C97,198.8,97,198.8,97,198.8z M97.2,198.6l-0.3,0.1c0,0,0,0-0.1,0
		c0.2-0.1,0.2-0.1,0.4-0.2C97.2,198.5,97.2,198.6,97.2,198.6z M112.7,150.9c0-0.2,0.1-0.3,0.2,0
		C112.8,150.9,112.7,150.9,112.7,150.9z M113.3,151.2C113.3,151.2,113.3,151.2,113.3,151.2C113.3,151.3,113.3,151.3,113.3,151.2
		C113.3,151.3,113.3,151.3,113.3,151.2z M113.5,153.1c0-0.1,0-0.3-0.1-0.7C113.5,152.7,113.5,152.9,113.5,153.1
		C113.5,153.1,113.5,153.1,113.5,153.1z M146.5,149.8c0,0,0.1,0,0.2,0c-0.1,0.1-0.1,0.3-0.2,0.8c0-0.2,0-0.3,0-0.5
		C146.5,150,146.5,149.9,146.5,149.8z M145.4,150.2c0.1,0.7,0.1,0.8,0.2,1.7c0-0.6-0.1-1.3-0.1-1.9c0.1,0.4,0.2,1.9,0.2,2.8
		c-0.1-0.4-0.1-0.4-0.1-0.3c-0.1-0.4-0.2-0.9-0.3-1.3c0-0.2,0-0.4,0-0.7C145.4,151,145.4,150.6,145.4,150.2z M145.4,149
		C145.4,149,145.3,149,145.4,149L145.4,149C145.3,148.7,145.3,148.6,145.4,149z M145.2,149.9C145.3,150.2,145.3,150.2,145.2,149.9
		C145.3,149.9,145.3,149.9,145.2,149.9c0.1,0.5,0.1,1,0,0.5C145.2,150.2,145.2,150.1,145.2,149.9
		C145.2,149.9,145.2,149.9,145.2,149.9z M129.5,162.5c2.6-2.3,5.9-0.3,5.4,2c-0.4,2.3-4.4,11.5-5.4,11.9
		C129.5,176.3,126.9,164.8,129.5,162.5z M123.6,199.7c-1.3,1.8-8.8,8.1-9.8,8.1c0,0,2.3-11.4,5.6-12.2
		C122.7,194.8,124.9,197.9,123.6,199.7z M121,192.1c0,0,0.3-11.6,3.4-13.2c3-1.5,5.8,1.2,4.8,3.3C128.2,184.3,122.1,192,121,192.1z
		 M136.7,192.1c-2,0.9-11.6,2.6-12.6,2.1c0,0,7.1-8.5,10.6-7.7C138.2,187.4,138.8,191.3,136.7,192.1z M141,175.5
		c-1,1.3-10.1,8.2-9.8,8.2c0,0,2.3-11.4,5.6-12.3C140,170.6,142.3,173.7,141,175.5z M146.6,161.3c-0.9,1.3-10,8.1-9.8,8.1
		c0,0,2.2-11.4,5.6-12.3C145.7,156.2,148,159.5,146.6,161.3z M150.1,150.5c-0.4,0-0.1-0.1-0.2-0.1
		C150.2,150.3,150.4,150.5,150.1,150.5z M151.7,153.1c-0.2,0.3-0.2,0.6-0.1,0.8c-0.3,0.1-0.6,0.1-0.8,0.1c0.1-0.1,0.3-0.1,0.3-0.1
		c0-0.1-0.1-0.3-0.3-0.5c-0.3-0.4-0.3-0.7-0.5-1.1c-0.1-0.1,0.6-0.1,0.6-0.2c-0.9-0.4,0-0.7,0.3-1.2c0.1-0.1-1-0.1-1-0.2
		c0.8-0.3,1.1-0.9,0.9-1.3c1.1,0.7,0.7,1.6,0.4,2.3C152.6,152,153.5,152.7,151.7,153.1z M158,228.9C158,228.9,158,228.9,158,228.9
		c0,0,0,0.1,0,0.1c0,0,0,0,0,0c0,0,0,0,0,0c0,0,0,0.1,0,0.1c0,0-0.1,0-0.1,0C157.9,229.1,158,229,158,228.9z M157.6,227.1l-0.2-0.1
		l0.1-0.1C157.8,227,157.7,227,157.6,227.1z M157.4,226.9c0-0.1-0.1-0.2,0.1-0.3C157.7,226.7,157.7,226.8,157.4,226.9z M157.4,226.3
		c0.2,0.1,0.2,0.3,0,0.3C157.6,226.5,157.3,226.4,157.4,226.3z M157,222.1c0.2,0.1,0.1,0.2,0,0.2C156.9,222.3,157.1,222.2,157,222.1
		z M156.7,219.8c0.1-0.1-0.2-0.1-0.1-0.2C156.7,219.6,157,219.9,156.7,219.8z M156.8,219.4c0.1,0.1,0.1,0.1,0,0.2
		c-0.2,0-0.1-0.1-0.3-0.2C156.6,219.3,156.7,219.4,156.8,219.4z M156.7,215.2c-0.2,0.1,0,0.2-0.3,0.2
		C156.5,215.4,156.5,215.2,156.7,215.2z M156.7,217c-0.1,0.1,0,0.2-0.2,0.2C156.7,217.1,156.4,217,156.7,217z M156.5,216.3
		c0.1,0.1,0.1,0.1,0.3,0.2c-0.1,0.1,0,0.1-0.2,0.2c-0.2-0.1-0.2-0.2-0.2-0.3L156.5,216.3z M156.6,210.1c0,0.1,0.1,0.1-0.1,0.2
		C156.3,210.3,156.4,210.1,156.6,210.1z M156.6,207.4C156.5,207.5,156.7,207.4,156.6,207.4c-0.1,0,0,0.1-0.1,0.2
		C156.3,207.5,156.4,207.4,156.6,207.4z M155.8,195.4C155.8,195.4,155.8,195.4,155.8,195.4c0.1,0,0.4,0,0.3,0.1
		c-0.1,0-0.2,0.1-0.3,0C155.8,195.5,155.8,195.5,155.8,195.4L155.8,195.4z M156.3,203.8c-0.2-0.1-0.1-0.2,0-0.4
		c0.1,0.1,0.2,0,0.3,0.1c-0.1,0.1,0,0.2-0.1,0.3C156.4,203.8,156.3,203.8,156.3,203.8z M156.3,204.5c-0.2-0.1-0.2-0.2,0-0.2
		C156.4,204.3,156.3,204.4,156.3,204.5z M156,203.4C156,203.4,156.1,203.4,156,203.4c0.2,0,0.4-0.2,0.6-0.1
		C156.4,203.5,156.2,203.5,156,203.4z M155.8,206.3c-0.2-0.1-0.2-0.2,0-0.3c0,0.1,0.1,0.2,0.2,0.2
		C155.9,206.3,155.9,206.3,155.8,206.3z M156.1,205.6c-0.2-0.1-0.2-0.2-0.1-0.3C156.3,205.4,156.1,205.5,156.1,205.6z M156,205.3
		c0.1,0,0-0.1,0.1-0.1c0.1,0,0.1,0,0.2,0c0,0,0,0,0,0.1C156.2,205.3,156.1,205.3,156,205.3z M156.4,205c0.1,0.1,0.1,0.2-0.1,0.2
		C156.4,205.1,156.2,205.1,156.4,205z M156.6,205.7c-0.3,0-0.3-0.2-0.2-0.3C156.6,205.5,156.7,205.6,156.6,205.7z M156.7,204.9
		c-0.2-0.1,0-0.1-0.1-0.2c0,0-0.1,0-0.1,0c0.1,0,0.1,0,0.2,0C156.7,204.8,156.8,204.8,156.7,204.9z M156.9,204c-0.1,0-0.1,0-0.2,0.1
		C156.8,204,156.8,204,156.9,204c-0.2,0.2-0.3,0.1-0.4,0.1c0,0,0.1-0.1,0.1-0.1c-0.1,0-0.1,0-0.2,0l0.1-0.1
		C156.8,203.9,156.7,203.9,156.9,204z M156.7,203.6c0-0.1-0.1-0.2,0-0.3c0,0.1,0.1,0.1,0.1,0.2C156.8,203.5,156.7,203.5,156.7,203.6
		C156.7,203.6,156.8,203.6,156.7,203.6z M156.8,202.9c-0.1,0.1,0.1,0.3-0.2,0.3c0.1-0.1,0-0.1,0-0.2c-0.1,0-0.1,0.1-0.1,0.1
		c-0.1-0.1-0.1-0.1-0.3-0.1C156.4,203,156.6,202.9,156.8,202.9z M157.4,200.8C157.4,200.8,157.3,200.7,157.4,200.8l0.2,0
		C157.5,200.9,157.4,200.9,157.4,200.8C157.3,200.8,157.4,200.8,157.4,200.8z M157,198l-0.1,0.1c0,0,0-0.1-0.1-0.1
		C156.9,198,157,198,157,198z M156.8,195c-0.1,0.1,0.1,0.1-0.1,0.2C156.5,195.1,156.6,195,156.8,195z M156.4,195
		c0,0.1,0.2,0.1,0.1,0.2C156.3,195.1,156.4,195.1,156.4,195z M156.4,195.6c0.1,0.1,0.2,0.1,0,0.1
		C156.3,195.7,156.2,195.7,156.4,195.6z M156.3,202.5c-0.1-0.1-0.1-0.1,0-0.2c0,0,0.1,0,0.1,0C156.5,202.4,156.5,202.4,156.3,202.5z
		 M156.4,201.6c0.1,0.1,0.2,0.1,0.2,0.1c-0.1,0-0.1,0.1-0.1,0.1c0.1,0,0.1,0,0.2,0c0,0.1-0.2,0.1-0.4,0.1
		C156.3,201.8,156.3,201.7,156.4,201.6z M156.3,198.7c0,0,0.2,0.1,0.1,0.2c0.1,0,0.1,0,0.1,0l0,0
		C156.3,198.9,156.1,198.8,156.3,198.7z M156.4,201.1c-0.1-0.1,0-0.2,0.1-0.1C156.4,201,156.7,201.1,156.4,201.1z M156.9,200.7
		c0.1-0.1,0.1-0.1-0.1-0.2c0.3-0.1,0.3,0.1,0.3,0.1C157,200.6,156.9,200.7,156.9,200.7z M156.8,199.9c0.1,0.1,0.3,0.2,0.1,0.3
		C156.8,200.1,156.8,200,156.8,199.9z M156.6,200.1C156.7,200.1,156.7,200.2,156.6,200.1L156.6,200.1z M156.6,200.3
		c0.2,0,0.3,0.1,0.5,0.1C156.9,200.4,156.7,200.3,156.6,200.3L156.6,200.3z M156.6,200.4c0,0,0.1,0,0.1,0c0,0-0.1,0.1-0.2,0.1
		L156.6,200.4z M157,196.2C157,196.2,157,196.2,157,196.2C156.9,196.2,157,196.2,157,196.2C157,196.2,157,196.2,157,196.2z
		 M157.1,195.5c-0.1,0-0.2-0.1-0.4-0.1c0.1,0.1,0,0.1-0.1,0.1c-0.1-0.1-0.4-0.2-0.2-0.3C156.6,195.4,157.3,195.3,157.1,195.5z
		 M157.9,193c-0.1,0-0.1,0-0.1,0C157.9,193,157.9,193,157.9,193C158,193,158,193,157.9,193z"/>
</g>
<g opacity="0.5">
	<path fill="#FFFFFF" d="M95.2,226.3c-0.1,0.1,0,0.1-0.1,0.2c0.1,0,0.1,0.1,0.2,0.1C95.2,226.5,95.4,226.4,95.2,226.3z"/>
	<path fill="#FFFFFF" d="M110.6,220c0.1-0.3,0.1-0.6,0.2-0.8C110.8,218.9,110.7,219.4,110.6,220z"/>
	<path fill="#FFFFFF" d="M95.2,229.1c0,0.1,0,0.1,0.1,0.1c0.1,0,0.1-0.1,0.1-0.1C95.4,229.1,95.3,229.1,95.2,229.1z"/>
	<path fill="#FFFFFF" d="M114.9,220.6c0,1-0.2,1.9-0.3,2.9c0.2,0.7,0.3-2.1,0.4-1.1c-0.1,0.4-0.2,0.8-0.1,1.3
		c0.1-0.4,0.3-0.9,0.4-1.8c-0.1-0.1-0.2-0.1-0.3-0.5c0.1-0.5,0.1-1,0.1-1.6c-0.1,0.4-0.2,0.9-0.3,1.4
		C114.8,220.9,114.8,220.8,114.9,220.6z"/>
	<path fill="#FFFFFF" d="M152.2,230.4c0.1,1.4,0.3,0.3,0.4,0.1c-0.1-1.3-0.2,0.6-0.3-1.1C152.3,230.1,152.2,229.7,152.2,230.4z"/>
	<path fill="#FFFFFF" d="M106.1,243.6c-0.2,0-0.5,0-0.7,0.4c0.2,0.4,0.6-0.5,0.8-0.2c-0.1-0.1,0-0.3,0.1-0.2c0,0.1,0,0.1,0,0.2
		c0.1-0.1,0.1-0.2,0.2-0.3c0-0.1,0-0.2,0-0.3c-0.1,0-0.2,0.1-0.2,0.1C106.1,243.3,106.1,243.4,106.1,243.6z"/>
	<path fill="#FFFFFF" d="M151.6,244.7c0-0.1-0.1-0.1-0.1-0.1c0,0.1,0,0.1,0,0.2C151.5,244.7,151.5,244.7,151.6,244.7z"/>
	<path fill="#FFFFFF" d="M149.7,244C149.7,244,149.7,244,149.7,244C149.7,244,149.7,244,149.7,244C149.7,244,149.7,244,149.7,244z"
		/>
	<path fill="#FFFFFF" d="M149.2,244.7c0,0.1,0.1,0,0.1,0.1c0,0,0.1-0.1,0-0.2C149.3,244.8,149.3,244.5,149.2,244.7z"/>
	<polygon fill="#FFFFFF" points="149.7,244 149.7,243.9 149.7,244 	"/>
	<path fill="#FFFFFF" d="M106.2,243.8c0-0.1,0-0.1,0-0.2c-0.1-0.1-0.1,0.2-0.1,0.2c-0.2-0.3-0.5,0.6-0.8,0.2
		c0.1-0.5,0.5-0.5,0.7-0.4c0-0.1,0.1-0.2,0.1-0.3c0.1,0,0.2-0.1,0.2-0.1c0.9-7.9,2.2-15.9,4.2-23.1c0.1-0.6,0.2-1.1,0.2-0.8
		c0-0.1,0-0.1,0-0.2c0-1.4-0.7,1.7-0.5-1.2l-0.4,1.8c0.1,0.6,0,1.1,0,1.7c-0.2,0.7-0.1-0.5-0.1-1.4c-0.5,2.4-0.5-0.1-0.9-1.4
		c-0.4,1.7-0.7-1.1-1.3,0.1c-0.1,1.5,0.1,0.4,0.2,1.1c-0.2,1.7-0.6,1.1-0.8,1c0.1-1.6,0.3,0.1,0.4-1.5c-0.1-0.8-0.1-1.3-0.1-2
		c-0.1,0.6-0.5,2.5-0.8,3.6c-0.2,0.4,0-1.7-0.1-2.4c-0.1-0.3-0.6,1.5-0.4-0.5c-0.5,1.6-0.8,1-1.1,0.5c-0.1-1,0.3-1.8,0.2-2.9
		c-0.3,0.8-0.1,2-0.4,2.8c-0.3,0.9-0.1-1.7-0.1-2.7c-0.2,0.6-0.2-0.4-0.3-0.2c0.1-0.8,0.2-1.7,0.1-2.6c-0.1,0.5-0.2,1.3-0.2,0.9
		c-0.2,0.9,0.1,0.2,0,1.4c-0.2,1.1-0.2,0-0.3-0.2c-0.2,0.8,0.1,1.2,0.1,1.1c-0.1,0.8-0.2,1.5-0.3,2.2c-0.2,0-0.1-1.2-0.3,0.5
		c0-1.5,0.2-1.1,0.3-2.2c-0.1-0.9-0.2,0.7-0.4,1.5c-0.3,0.4-0.4-0.4-0.6-0.3c0.1-1,0.3-1.9,0.4-2.8c-0.1-0.6-0.1-3.2-0.4-2.2
		c0-2,0.1-3.1-0.3-3.5c0.1,0.7,0.2,0.8,0.1,2c-0.2,0.9-0.3,0.3-0.4,0.1c-0.1,0.6-0.1,1.3-0.3,1.9c0.2-0.1,0.3,1.8,0.5,0.2
		c0,0.8-0.1,1.5-0.3,2.2c-0.2,0.1,0.1-1.8-0.3,0.2c-0.1-0.7,0.2-1.2,0.1-1.9c-0.2,1.9-0.4,1.8-0.5,0.8c-0.2,1.2-0.1,1.5,0,1.4
		c-0.1,0.6-0.2,0.2-0.3,0.9c0-0.8-0.2-1.6,0-2.3c-0.1-0.2-0.5,1.6-0.3-0.5c-0.1-0.7-0.5,2.7-0.6,1.7c0-0.6,0.2-1,0.3-1.5
		c-0.2-0.3-0.4-2.2-0.7-0.3c-0.1,0.2-0.3-0.5,0-1.3c-0.4,0.1-1.1,1.9-1.6,5.6c-0.1,0.1-0.2-0.3-0.3,0.2c-0.1-1.1,0.4-2.1,0.2-3.2
		c0.3-1.2,0.2-0.3,0.4,0.2c0.3-1,0.5-2,0.4-3.2c-0.1,0.3,0,0.6-0.1,1c-0.2,0.5-0.4,1.2-0.4,0.1c0-0.9,0.1-0.1,0.3-1.2
		c0-1.4-0.3,0.8-0.3-0.8c-0.4,3.1-0.7,0.7-0.8-1c-0.1,0.6-0.3,1.5-0.4,2.2l0.1,0.2c0,0-0.1,0-0.1,0c0,0.1,0,0.1,0,0.2c0,0,0,0,0,0.1
		c0,0.4,0,0.7,0.1,0.8c0-0.4,0-0.7,0.1-0.9c-0.1-0.1-0.1-0.1,0-0.2c0,0,0,0,0,0l0,0.1c0.1-0.3,0.2,0.1,0.2,0.4
		c0,0.6-0.1,0.6-0.2,0.3c-0.1,1.5,0.5,0.6,0.7,1.3c-0.4,0.8-0.8,0.9-1.2,0.8c0,0,0,0-0.1,0l-0.1,0c0,0,0,0,0,0
		c-0.1,0-0.2-0.1-0.2-0.1c0,0,0,0,0,0.1c-0.1,0-0.3-0.1-0.4-0.1c-0.1,0.1-0.4,0.2-0.3,0.3c-0.3,0.1-0.4,0.1-0.5,0.3
		c0.1-0.1,0.1-0.1,0.3-0.1c0.1,0.1,0.1,0.1,0,0.2c0.1,0,0.2,0,0.3,0c0-0.1,0.2-0.3,0-0.3c0.1,0,0.2,0,0.3,0c0,0.1-0.2,0.1,0,0.2
		c-0.1,0.1-0.2-0.1-0.3,0c0.3,0,0.2,0.1,0.1,0.2c0.2,0.1,0.2,0,0.2-0.1c0.1,0,0,0.1,0.1,0.1c-0.1,0-0.2,0.2-0.3,0.1
		c0,0,0.2,0.2-0.1,0.2c-0.1,0.1,0.4,0.1,0.2,0.2c-0.1,0-0.1,0-0.2-0.1c0,0.1-0.3,0.3,0,0.4c0,0-0.1,0.2-0.2,0.1
		c0,0.2,0.3,0.5,0.8,0.6c0,0.1,0,0.1,0,0.2c-0.2,0.1-0.3-0.1-0.4,0c-0.2-0.1,0-0.1,0-0.2c-0.1-0.1-0.3-0.1-0.4-0.1c0,0,0.1,0,0.1,0
		c0.1,0.1,0.2,0.1,0,0.2c-0.1,0.1,0-0.1-0.2-0.1c-0.2,0.1,0.1,0.1-0.1,0.2c0.4,0,0.1,0.3-0.1,0.5c0.2,0.1,0.4,0.1,0.5,0
		c-0.2,0-0.1-0.1-0.1-0.1c0.1,0,0.1,0,0,0.1c0.2,0,0.1-0.3,0.2-0.4c0.3,0.4,0,1,0.1,1.4c-0.1,0-0.1,0-0.2-0.1
		c-0.1,0.1-0.1,0.1,0.1,0.2c-0.3,0,0,0.1-0.2,0.2c-0.1,0.1-0.2-0.2-0.3,0c0.3,0.1,0.1,0.1,0,0.3c0.2,0.1,0.4,0.2,0.1,0.3
		c0.2,0.1,0,0.2,0.2,0.2c-0.6,0.2-0.2,0.7-0.5,1.1c0.2,0,0.3,0.1,0.1,0.1c0.1,0.1,0.2,0.1,0.3,0.1c0,0,0,0.1,0,0.1
		c-0.1,0-0.3,0-0.4-0.1c-0.2,0.1,0.4,0,0.1,0.2c0.3,0,0.2,0.1,0.2,0.2c-0.1,0-0.2,0-0.3-0.1c0.2,0.2,0,0.6,0.5,0.8
		c0.1,0.1-0.1,0.1-0.1,0.2c-0.1,0.1-0.3-0.1-0.4,0c0.1,0.1,0.2,0.1,0.3,0.1c-0.1,0.1,0.1,0.1,0.2,0.2c-0.2,0.1-0.5-0.1-0.5-0.2
		c-0.1,0-0.1,0-0.1,0c-0.3,0.2-0.6,0.4-0.1,0.6c-0.1,0.1-0.2-0.1-0.3,0c0.2,0.1-0.1,0.3,0,0.5c0.1,0,0.1,0,0.2,0.1
		c-0.1,0-0.1,0-0.2,0c0,0.1,0.1,0,0.2,0.1c-0.1,0-0.1,0-0.2,0c-0.2,0.1,0,0.2,0.2,0.2c-0.1,0-0.1,0-0.1,0.1c-0.1,0-0.1,0-0.2-0.1
		c0,0.2-0.4,0.6-0.1,0.7c-0.3,0.2,0.1,0.2-0.1,0.3c0.3,0.1,0.3,0.2,0.4,0.4c0.1-0.1,0.1-0.1,0.1-0.2c0.1,0.1-0.1,0.1,0,0.2
		c-0.1,0-0.1,0-0.2-0.1c0,0.2-0.2,0.3-0.3,0.4c-0.1,0-0.1,0-0.2-0.1c0,0.1-0.1,0.1,0,0.2c0.5,0.1-0.2,0.5,0,0.8
		c0.1-0.3,0.2-0.6,0.3-0.8c0.1,0.1,0,0.2,0,0.3c0.2,0,0.1-0.1,0.1-0.2l0.2,0.2c-0.1,0-0.1,0-0.2,0.1c0.1,0.2,0.5,0.2,0.3,0.4
		c-0.2,0-0.2-0.2-0.3-0.2c-0.1,0-0.2,0.1-0.3,0c0.1,0.1,0.6,0.2,0.4,0.4c-0.1,0-0.2,0-0.3-0.1c-0.2,0.1,0.4,0.2,0.2,0.3
		c-0.1,0.1-0.2-0.1-0.4,0c0,0,0.1,0,0.1,0c0.1,0,0,0.1,0.3,0.1c0,0-0.1,0.2,0.1,0.2c0,0.1,0.1,0.1-0.1,0.2c-0.2,0-0.3-0.2-0.5-0.1
		c0,0.1,0.1,0.2,0.2,0.2c-0.1,0.1-0.2,0-0.3,0.1c0,0.1,0,0.3,0,0.4c-0.1,0,0-0.1-0.2-0.1c-0.2,0.2,0.4,0.2,0.1,0.4
		c0,0.1,0.3,0.1,0.2,0.2c0.1,0.1,0-0.1,0.2-0.1l0.1,0.1c-0.2,0.1,0,0.3-0.2,0.4c-0.2,0-0.2-0.2,0-0.3c-0.1-0.1-0.2-0.1-0.2-0.2
		c0,0.1-0.3,0.3,0,0.4c-0.1,0.1-0.3,0-0.4,0.1c0.3,0.1,0.2,0.4,0.2,0.6c-0.2,0,0-0.1-0.2-0.1c0,0.1-0.2,0-0.3,0.1
		c0.1,0.1,0,0.3,0.1,0.4c-0.3,0.2,0,0.2,0.3,0.5c0-0.1-0.1-0.2,0-0.3c-0.1-0.1-0.1,0-0.2,0c-0.1-0.1-0.1-0.1,0-0.2
		c0.1-0.1,0.1,0.1,0.1,0.1c0.1,0,0.6-0.2,0.3-0.4c0.3-0.1,0.3-0.3,0.2-0.5c0.1-0.1,0.2,0,0.1-0.1c0.3-0.2,0.4-0.5,0.3-0.7
		c0.3,0,0.1-0.3,0.4-0.2c-0.1,0-0.1-0.1-0.1-0.2c-0.1,0,0,0.1-0.1,0.1c0-0.1,0-0.1-0.1-0.1c0.1,0,0.1,0,0.2,0
		c0.1-0.1,0.1-0.1,0.2-0.2c-0.1,0-0.1,0-0.2-0.1c0.1-0.1,0.2-0.1,0.1-0.2c0.1,0,0.2-0.1,0.1-0.1c0.1-0.1,0.2,0.1,0.3,0
		c-0.3-0.1-0.1-0.5,0.1-0.6c0.1-0.1-0.1,0-0.2-0.1c0,0,0,0,0-0.1c0.1-0.1,0.2,0,0.3-0.1c-0.2-0.2,0-0.4,0.1-0.6
		c0,0.5-0.1,1.1-0.1,1.6c-0.1,0.1,0,0.2-0.3,0.2c0.1,0.1,0.2-0.1,0.3,0.1c0,0,0,0,0,0c0,0.3,0,0.6-0.1,1c-0.1,0-0.2,0-0.3,0
		c-0.1-0.1,0.1-0.2-0.1-0.2c-0.1,0.1,0.1,0.1-0.1,0.2c0.3,0.1,0,0.2,0.2,0.3c0.1-0.1,0-0.2,0.2-0.3c0,0.1,0,0.3,0,0.4l0.2-0.1
		c0,0.2-0.1,0.3-0.4,0.5c-0.1-0.1-0.2-0.2-0.3-0.3c0,0.2,0.3,0.5,0,0.6c0.2,0,0.4,0.1,0.6,0.1c0,0.3,0.2,0.7,0.5,0.9
		c-0.1,0-0.2,0-0.2,0.1c-0.2,0-0.1,0-0.2-0.1c0,0.1-0.1,0.2,0,0.3c-0.1,0.1-0.2,0-0.4,0c-0.1-0.1-0.2-0.2-0.2-0.1l0.1,0.9l0.1-0.2
		c0.1,0.2,0.3,0.3,0.4,0.5c-0.1,0.1-0.1,0.1-0.2,0.2c0.1,0,0.2,0.1,0.3,0.1c0.1-0.1,0.1-0.1,0.1-0.1c0,0,0.1,0.1,0.1,0.1
		c0,0,0,0.1-0.1,0.1c0.2,0,0.1,0.1,0.3,0.2c0,0,0,0,0,0c-0.1,0.1-0.3,0-0.4,0.1c0.1,0.1-0.1,0.3-0.2,0.3c0.1,0.1,0,0.1,0,0.2
		c0.1,0.1,0.3-0.4,0.3,0.3c0,0,0.1,0,0.1,0c-0.1,0-0.1,0-0.1,0c0,0,0,0,0,0c0,0,0,0,0,0c0,0,0.1,0.1,0,0.1c0,0,0,0-0.1,0
		c0,0.1-0.1,0.1-0.1,0.2c0,0,0.1,0.1,0.1,0.1c-0.1,0.1-0.1,0-0.2,0c0,0-0.1,0.1-0.1,0.1c0,0,0,0.1-0.1,0.1c0.1,0.1,0.2,0,0.2,0.1
		c-0.2,0.1-0.3-0.1-0.4-0.1c-0.1-0.1,0.3-0.1,0.1-0.2c-0.2,0-0.2,0.2-0.1,0.3c-0.1,0.1-0.2,0-0.3,0.1c0.1,0.1,0.3,0.4,0.1,0.4
		c-0.1,0,0.1,0,0.1,0c0,0.1,0.1,0.2-0.2,0.3c0.2,0.1,0,0.1,0.2,0.2c-0.1-0.1,0.3-0.2,0.1-0.3c0.1,0,0.2,0,0.3,0c0,0,0-0.1,0.1-0.1
		c0,0,0,0,0-0.1c0,0,0-0.1,0-0.1c0,0,0,0,0,0c0,0,0,0,0,0c0.2-0.3,0.3-0.6,0.4-0.7c0,0.1-0.1,0.3-0.1,0.4c0.1,0,0.3,0,0.2,0.1
		c0,0,0,0,0-0.1c-0.1,0.2-0.2,0.3-0.2,0.4c-0.1,0-0.1-0.1-0.1-0.1c-0.1,0.3-0.2,0.7-0.2,1.1c0.3-0.8,0.4-0.4,0.6-1.4
		c0-0.4-0.2-0.2,0-1c0.1,1.2,0.7-0.8,0.5,1.2c-0.1-1-0.7,1.3-0.7,3c0.3-2.3,0.7-0.8,0.6,0.3c-0.1-0.1-0.2-0.4-0.4-0.4
		c0.3,0.8,0,2,0.8,0.8c0-0.2,0-0.3,0.1-0.5c0.1,0.2,0.2,0,0.4,0.2c-0.3,1-0.4,2.3-0.5,1.8c0.1-0.4,0.1-0.9,0.1-1.3
		c-0.2,0.4-0.3,0.8-0.4,1.3c-0.3,0.2-0.5,0.6-0.6,1c0.1,0.1,0.2,0.3,0.1,0.5c0.1,0.1,0.1,0.1,0.2,0.1c0,0.1,0,0.1,0,0.2
		c0.1,0,0.2,0,0.2,0c0,0.1,0.1,0.2,0.1,0.3c0.1-0.2,0.2-0.1,0.3-0.3c0.1,0,0.1,0,0.2,0c0,0.1,0,0.2,0,0.2c0.1,0,0.1,0,0.1-0.1
		c0.1,0.2,0.3,0.1,0.5,0c0-0.2,0.1-0.4,0.1-0.6c0,0.3,0,0.5,0,0.6c0.1,0.1,0.2,0.1,0.4-0.1c0.1,0,0.1,0,0.2,0
		c-0.1,0.2-0.3,0.2-0.3,0.4c0,0.1,0.1,0,0.1,0.2c0.2-0.2,0.3-0.2,0.4-0.3c0-0.4,0-1,0.1-1.4c-0.5,1.4-0.9,0.5-0.9-2
		c0.2,1.6,0.7,0.9,1.1-0.2c-0.1,0.8-0.2,1.7-0.2,2.6c0.2-1.4,0.2-1.5,0.4-1.5c0,0.6-0.1,1.1-0.1,1.6c0.3-1.7,0.1-0.5,0.3-0.5
		c0-1.4,0.3-1.5,0.3-0.5c-0.1,1.1-0.3,0.8-0.5,2c0.1,0,0.1-0.1,0.1-0.3c0,0,0,0,0,0c0,0.1,0,0.1,0.1,0.1c0,0.1-0.1,0.1-0.1,0.2
		c0.1,0,0.1-0.2,0.1-0.3c0,0,0,0,0,0c0,0.1,0,0.2,0,0.2c0.1-0.1,0.1-0.1,0.1-0.2c0,0,0,0,0.1,0c0-0.2,0-0.5,0.1-1.3
		c-0.1,1.6,0.5-0.7,0.2,1.1c0,0.1-0.1,0.1-0.1,0.2c0,0,0,0,0,0c-0.1,0.1-0.1,0.1-0.2,0.2c0.1,0.1,0.2-0.1,0.2-0.2c0.1,0,0.1,0,0.2,0
		c0,0,0-0.1,0-0.1c0.3-1.2,0.4-1.1,0.6-3.4c-0.1,3.7,0.7,0.9,1,2.5c-0.4,0.8-0.8,0.6-1.2,0.8c0,0.2,0,0.5,0,0.7c0.1,0,0.1,0,0.2,0
		c0,0.1-0.1,0.2-0.1,0c0,0,0,0.1,0,0.1l0,0c0,0,0,0,0,0c0.1,0.1,0.2,0,0.2-0.1c0,0.2,0,0.3,0,0.5c0-0.2,0-0.1,0.1-0.2
		c0.1,0.1,0,0.2,0.1,0.3c0.1-0.1,0-0.1,0.1-0.2c0.1,0.1,0,0.2,0.1,0.2c0.1-0.1,0.3-0.1,0.4,0c0.1,0.2-0.1,0.1-0.1,0.3
		c0.1,0.1,0.1-0.1,0.2,0.1c0-0.1,0-0.1,0-0.2c0.2,0.1,0.3,0,0.5,0c0.1-1.1,0.1-1.7-0.1-2.1c0.4-1.4,0.3,0.2,0.3,1.8
		c0,0.1,0,0.2,0,0.3c0.1,0,0.2,0,0.2,0c0,0,0-0.1,0-0.2c0.1-0.1,0.1-0.2,0.2-0.2c0,0,0,0,0,0.1c0-0.2,0-0.5,0.1-0.8
		c0.1,1.5,0.6-1.3,0.7,0.3c-0.1,0-0.2,0.2-0.3,0.4c0,0,0.1,0,0.1,0c-0.1,0.6-0.3,0.4-0.5,0.6c0.1,0.1,0.2-0.1,0.2,0.1l0.1-0.2
		c0.1,0.1,0,0.1,0.1,0.2c-0.1,0-0.1,0.2-0.2,0.1c0,0.2-0.1,0.1-0.1,0.3c0.1,0.3,0.2-0.4,0.3-0.1l0.3-0.6c0.1,0.1,0,0.2,0,0.3
		c0.1,0.2,0.1,0.1,0.2,0.1c0-0.1,0-0.1,0.1-0.2c0,0,0-0.1,0-0.1c0,0-0.1,0.1-0.1-0.1c0,0,0.1-0.1,0.1-0.1c0-0.2,0-0.3,0-0.5
		c0,0.3,0.1,0.4,0.1,0.6l0.2-0.3c0,0.2,0,0.2,0.1,0.2c0.1,0.1,0,0.2,0,0.3c0-0.4,0.1-0.3,0.3-0.6c0.1,0.1,0.3,0.1,0.4,0.2
		C105.9,244,106.1,244,106.2,243.8c0.1,0.1-0.1,0.2-0.1,0.3c0.1,0,0.1-0.1,0.2-0.2c0-0.2,0-0.3,0.1-0.5
		C106.4,243.6,106.3,243.7,106.2,243.8z"/>
	<path fill="#FFFFFF" d="M106.8,243.1C106.8,243.1,106.8,243.1,106.8,243.1C106.8,243.1,106.8,243.1,106.8,243.1
		C106.8,243.1,106.8,243.1,106.8,243.1z"/>
	<path fill="#FFFFFF" d="M160,234.4l-0.7-0.4c0.1-0.1,0.2,0,0.3,0c0.2,0,0.1-0.1,0.1-0.2c-0.1,0-0.2,0-0.3-0.1
		c-0.1,0,0.1,0.1-0.1,0.1c-0.1-0.1-0.1-0.2,0-0.2l-0.4-0.2c0.3,0,0.2,0.1,0.2-0.1c0.1-0.1,0.2,0.1,0.4,0c-0.4-0.1-0.3-0.2-0.6-0.4
		c0.1-0.1,0.1-0.3,0.2-0.4c-0.4-0.1-0.5-0.3-0.7-0.5c0.1-0.1,0.2,0.1,0.3,0.1c0-0.2-0.6-0.5-0.9-0.6c0,0,0,0,0,0c0,0,0-0.1,0-0.1
		c0,0.1,0,0.3,0,0.4l0.1-0.1c0,0,0,0,0,0c0,0,0.1,0.1,0.1,0.1c0,0,0,0,0,0c0.1,0.1,0.1,0.1,0.2,0c0.1,0,0.2,0.1,0.2,0.2
		c-0.1,0-0.2,0-0.2,0c-0.1,0.1,0.2,0.2,0.2,0.1c-0.4,0.2,0.6,0.6,0.1,0.8c-0.5-0.2-0.5-0.6-0.4-0.8c-0.6-0.2-0.5-0.5-0.5-0.8
		c0.3,0.1,0.4,0.2,0.8,0.2c-0.2-0.1-0.1-0.1-0.2-0.2c0,0,0,0,0,0l0.5,0.2c0-0.5-0.1-0.9-0.2-1.4c0.1,0,0.2,0,0.3,0.1
		c0.1-0.1,0-0.2,0-0.3c0,0.1-0.2,0.1-0.3,0.1c0-0.2-0.1-0.3-0.1-0.5c0,0,0,0,0.1,0c0,0,0-0.1-0.1-0.1c0-0.1,0-0.3-0.1-0.4
		c0,0,0.1,0,0.1-0.1c0,0-0.1,0-0.1,0c0-0.1,0-0.2,0-0.4c0,0,0.1,0,0.1,0c0,0,0,0,0-0.1c0,0-0.1,0-0.1,0c0,0,0,0,0,0
		c0-0.1,0-0.2,0-0.2c0,0,0,0,0,0c0,0,0,0,0,0c0-0.1,0-0.2,0-0.3c0,0,0-0.1,0-0.1c-0.1,1-0.3,0.4-0.3,1.3c0,0,0,0,0,0
		c0,0,0,0.1,0,0.1c0.1-0.8,0.2-0.6,0.4,0.2c-0.1,0.9-0.2,0.1-0.3,0.1c0.1,0.2,0.1,0.5,0.1,0.7c0-0.1-0.1-0.2-0.2-0.2
		c0,0.1,0,0.1,0,0.2c0.1,0,0.2,0.1,0.2,0.1c0,0,0.1,0,0.1,0c0,0,0,0.1,0,0.1c-0.1,0-0.1,0-0.2,0c-0.1-0.1,0-0.1-0.1-0.2
		c-0.2,0-0.3,0-0.4-1.8l-0.1,1.5c0.2,1.7,0-1.4,0.2,0.4c0,2.4-0.6,0.6-0.9,2.2c0-1.3-0.1-2.4,0.1-2.8c-0.3-1.8-0.2,2.4-0.5,2.7
		c-0.2-2.1-0.4-0.3-0.5,0.4c-0.3-1.8-0.5-1-0.7-0.6c-0.1-1.4,0.2-0.5,0.2-1.5c-0.1-1,0.1-1.9,0-2.9c-0.2,1.9-0.5,2.1-0.6,4.2
		c-0.1-0.6-0.2-0.1-0.3-0.8c-0.1-1.9,0.4-0.3,0.1-2.5c0.1-1.3,0.2,0.4,0.3-0.8c-0.1-1.5-0.4,1-0.4-1.1c-0.1,1.1-0.2,0.6-0.4,1.7
		c0-2.6-0.2-0.1-0.4-1.8c-0.2,1.9-0.4,1.2-0.6,2.3c0,1.3,0.2,2.3,0.3,1.4c0,2.2-0.3,0.9-0.5,0.8c0-1,0-2,0.1-2.2
		c0-1.1-0.2-1.1-0.2-2.6c0,2.9-0.2,0.7-0.4,2.7c0.1,1.7,0.2-0.2,0.3,1.1c-0.1,0.1-0.2,1.3-0.4-0.1c0-0.6,0.1-0.3,0.1-0.9
		c-0.1-0.6-0.2-0.4-0.1-1c-0.2-1,0,2.1-0.2,0.2c0.1,1.1,0.1,2.2,0,3.2c-0.2,0,0-1.1-0.2-2c-0.1,0.7-0.1,1.5,0,2.2
		c-0.1,0.1-0.1-0.5-0.2,0.2c-0.2-1.5,0.1-2.7-0.1-4.2c0,0.8-0.1,1.7-0.1,2.5c-0.1,1.4-0.3-1.5-0.4,0.5c-0.1-0.8-0.1-1.5-0.2-2.3
		c-0.2,1.3-0.3,0.4-0.5,0.1c-0.1,2.2-0.4,1.5-0.6,1.4c-0.1-0.7,0.2-1.2,0-1.9c-0.2,2-0.4,0.9-0.6,1c-0.2,0.7,0.1,1.5,0,2.2
		c-0.2,0.3,0-1.9-0.2-2.7c-0.1,0.1-0.1,0.4-0.2,1.2c-0.4-3.7-0.8,1.7-1.2-0.5c-0.1,2.1-0.2,1.8-0.5,3c-0.1,0-0.1-1.3-0.3-1.1
		c0-1.6,0.2-0.8,0.3-1.8c-0.2-1.1-0.4,0.2-0.6,1.4c-0.2-0.6-0.1-1.3-0.2-2.7c-0.2,0.4-0.2-0.5-0.3,1.2l-0.1-1.3
		c0,1.8-0.4,2.4-0.5,0.1c-0.2,2.3-0.3,1.3-0.4,0.8c-0.2,1.1,0,0.4,0.1,1.3c-0.1,0.8-0.2,0-0.3,0.2c-0.1-1.6,0-1.5,0.1-2.6
		c-0.2-0.1-0.3-0.5-0.5-2.5c0-0.4,0.1-0.5,0.1-0.3c0-1.2-0.4-0.7-0.5-0.9c0.4,1,0.3,3.1,0.7,3.8c-0.4,2.6-0.4-2-0.7-1.6
		c0,1.4,0.2,2.9,0.2,4.3c-0.1-1.3-0.4-1.1-0.4-2.8c-0.1,1.3-0.2,2.7-0.3,4.1c0.1-2.3-0.1-2.2-0.2-3.3c-0.1-0.9,0.2-1.6,0.1-2.6
		c-0.1,1-0.1,1-0.1,2.5c-0.1,0-0.2-1.2-0.2,0.6c-0.1-0.1-0.2-1-0.3-1.8c0-1,0.4,0,0.3-2.1c-0.2,1.1-1.2,3.6-1-0.1
		c-0.1-0.2-0.3,1.3-0.4,0.2c-0.3,3-0.6,0.5-1,3.5c0-2.1-0.3-0.8-0.1-2.7c-0.1-0.5-0.2,1.6-0.3,2.1c-0.3-0.3-0.6-1.3-0.9,0.6
		c0-1.8-0.2-1.4-0.3-0.1c-0.1-1.7-0.2-0.7-0.3-1.8c0,1.1,0,1.1,0.1,2.6c-0.2,0.2-0.3-1.2-0.3-2.1c-0.2-0.4-0.2,1.9-0.4-0.2
		c0,0.5,0,1.1-0.1,1.6c0.2-0.4,0.3,0.2,0.5,1.2c-0.3-0.1-0.6-0.4-0.9-0.4c0-0.3,0-0.6,0-1c0.2-0.6,0.4,0.8,0.4-1.1
		c-0.2-1.1-0.5,1.5-0.7-0.6c-0.1,0.5-0.1,0.9-0.2,0.6c-0.1,0.5-0.1,1.1,0,1.6c-0.2,1.1-0.3-0.2-0.6,0.7c-0.1-0.7,0-1.3-0.1-2
		c-0.2,0.8,0,1.6-0.2,1.5c-0.1-0.9,0.2-1.6,0-1.6c-0.1,0.5,0,1.1-0.1,1.6c-0.4-4-1.4-0.4-1.8-2.4c0-0.7,0.2-1.2,0.2-1.9
		c-0.2-0.7-0.6,2.1-0.7-0.6c-0.1,0.5-0.1,1.1,0,1.6c-0.1,1.1-0.2,0.3-0.3,1.2c-0.1-0.6,0-1.1,0.1-1.6c-0.1-0.9-0.2,0.1-0.3-0.5
		c-0.1,0.4,0,0.9,0,1.3c-0.1,1.1-0.2-0.1-0.3,0.5c0-0.5,0.1-1,0-1.6l-0.2,1.2c-0.1-0.7,0.1-1.3,0-2c-0.4,0.4-0.8,0.7-1.2,0.5l0.1,1
		c-0.1-0.1-0.3,1.3-0.4,0.5c-0.1-0.6,0-1.1,0.1-1.6c-0.2-0.9-0.7,0.7-0.9,1.3c0-1.4-0.1-1.7-0.3-0.8c0.1,1.3-0.1,1.3-0.2,1.9
		c0.4-0.5,0.5,1.4,0.9,0.7c0.1-0.6,0-0.3,0-0.7c0.2-1.4,0.1,0.9,0.3-0.5c0,1.6,0.1,1.2,0.2,2.7c-0.4-1.5-1.2,1-1.4-1.3
		c0,0.3,0,0.6-0.1,0.9c-0.2,0.6,0.1-1.2,0-1.7c-0.4,2.5-0.6,0.9-0.8,0.3c-0.2,1.7-0.3,1.6-0.5,1.1c0.1-1.3,0.4-2.5,0.3-3.8
		c0.1-0.4,0.3,0.2,0.4-1.1c-0.2,0.2-0.2-0.1-0.2-1.4c-0.2,1.4-0.2,1.1-0.3,2.1c-0.2,0.4-0.2-0.8-0.4,0.5c0-2.4-0.4-1.2-0.8-0.4
		c0.1-2,0-1.8-0.3-0.5c0-0.6,0-1.1,0.2-1.6c-0.2-1-0.6,1.1-0.9,0.3c-0.1,0.6,0,1.3-0.1,1.9c-0.1,0.9,0-1.7-0.2-0.1
		c0-0.6,0-1.1,0.1-1.6c-0.1-0.3-0.1,1.8-0.3,0.9c-0.1-0.7,0-1.3,0.1-2c-0.3,0.9-0.5-1-0.7,1c-0.1-0.7,0.1-1.3,0-2
		c-0.1,2-0.2,0.2-0.2,0.2c-0.3,0.2-0.6,2.7-0.8,0.6c-0.2,1.9-0.5,0.8-0.7,1c0-0.5,0.1-1,0.1-1.6c-0.3,2-0.3,0-0.7,2
		c-0.2,1.3,0.1,1.8,0.2,1.1c0.1,0.3-0.3,1.4-0.3,1.2c-0.2,1.5,0.2,0.4,0.2,0.7c0,0.6-0.2,1-0.2,1.5c-0.1,0.2-0.1-2.1-0.4-0.2
		c0-0.8-0.1-1.6,0.1-2.3c-0.1-1.2-0.3,0.4-0.4-1.2c-0.1,0.8-0.1,2-0.3,1.8c0.3-2.3,0.7-3.9,1.1-5.1c-0.1-0.3-0.2-1-0.3-1.5
		c-0.1,0.6-0.2,1.9-0.3,0.9c-0.1,0.5-0.1,1.1-0.2,1.6c-0.3,0.8,0-0.8-0.2-1.7c-0.2,2.7-0.9,2.8-0.8,0c-0.1,1.6-0.2-0.1-0.4,1.5
		c0,1.2,0.3-0.4,0.4,0.8c-0.1,1.2-0.4-0.1-0.5-0.2c-0.1,0.6-0.2,1.3-0.3,1.8c-0.2,0.7,0-1,0.1-1.3c-0.1-0.5-0.3,1.6-0.2,2.2
		c0.1-0.4,0.2,0.4,0.4-0.8l-0.1,2c-0.3,0.9-0.3-1.2-0.6-0.3c0.1-1.3,0.6-3.5,0.3-3.8c-0.1,1.8-0.1,0.9-0.3,1.5c0.1-1.9,0.2-0.8,0-2
		c-0.1,1.2-0.2,1.7-0.4,2.1c0.1-2.5-0.4,0.7-0.4-1.5c0.5-0.2,1.1-2,1.5-0.3c0-2.2,0.5-0.8,0.6-3.4c0-0.6-0.1-0.4-0.1-1.1
		c-0.2,2.1-0.5,0.4-0.4-0.9c0,1.9-0.3,1.6-0.3,3.5c-0.1-0.1-0.3,0.9-0.3-0.1c0-1.1,0.3,0.2,0.2-1.6c0.2-1.4,0.1,0.9,0.3-0.5
		c0-0.6,0.1-1.1,0-1.7c-0.4,2-0.3,0.4-0.3-1.1c-0.2,2.7-0.6,0.7-0.9,1.2c-0.2,1.2-0.1,0.8,0,1.7c-0.5,2-0.7-0.1-1.1,1.8
		c-0.1-0.8,0.1-1.5,0.1-2.3c0.2,0,0.5-0.3,0.7,0.3c0.1-0.8,0.2-1.7,0.2-2.6c-0.1,0.6-0.1,0.3-0.2-0.1c-0.1,0.4-0.1,0.8-0.1,1.3
		c-0.1-2-0.9-0.3-1.2,1.5c0.4-3.2-0.2-1.7-0.1-4c-0.1,0.5-0.2,0.5-0.2,0.2c-0.2,1.7,0.2,0.4,0.1,1.4c0,1.4-0.4,2.1-0.7,4
		c0-1.8,0.3-1.8,0.4-3.1c-0.1-1.3-0.2,0.1-0.5,0.8c0,0.8-0.1,1.5-0.2,2.3c-0.1,0.4-0.1-1.1-0.3,0.2c0.1,1.4,0.5-1.2,0.5,1.2
		c0.3-1.2,0.6-2.3,0.8-2c0,0.8-0.2,0.5-0.3,0.5c-0.1,0.9,0,1.2,0.1,0.5c-0.5,5.5-1.3,0.1-2.1,1.9c-0.1-0.8,0-1.2-0.2-2.1
		c0.4-0.6,0.4,0.8,1-1.5c0-1.6,0.1-1.5,0-2.7c-0.1,1.1,0,2.2-0.4,3.2c-0.2-0.1-0.4-0.6-0.7-0.5c0,0.2-0.1,0.3-0.1,0.5
		c0,0.5,0,1.1-0.1,1.6c0.1,0.4,0.2,0.4,0.3,0.5c-0.1,0.9-0.3,1.4-0.4,1.8c0-0.5,0-0.9,0.1-1.3c-0.2-1-0.2,1.8-0.4,1.1
		c0.1-1,0.3-1.9,0.3-2.9c0,0.2-0.1,0.4-0.1,0.5c-1.3,5.5-2.7,12.8-3.7,22.1c0.8,0.3,2,0.2,2.6,1.2c-1-1.1,3.7-0.3,2.2-1.8
		c1.1,0.2,0.1,0.9,0.9,1.4c2.5-0.9,5.6,0.6,8.7,0.3c0-0.2-0.2-0.5-0.1-0.8c0.1,0,0.2,0,0.2,0.1c0-0.1,0-0.1,0-0.2
		c0.1-0.1,0.1,0,0.2-0.1c0.1,0.1,0,0.1-0.1,0.2c0.1,0.1,0.2,0,0.2,0.1c0,0,0-0.1,0-0.2c0,0,0,0,0,0l0.1,0.1c0,0,0,0,0,0.1l0,0
		l1.2,1.1c0.4-0.1,0.5-0.6,0.8-0.9c0,0,0,0,0.1,0c0,0,0-0.1,0-0.1c0,0,0.1,0,0.1,0c0,0,0,0,0,0c0.1,0,0.1,0,0.2,0c0,0,0.1,0,0.1,0
		c-0.1,0-0.1,0-0.1,0.1c0.1,0,0.1,0,0.1,0.2c0-0.2,0.1-0.1,0.1-0.2c0.1,0.1,0.2,0.1,0.3,0.2c-0.1-0.1-0.1-0.2-0.2-0.3
		c0,0,0,0,0.1-0.1c0.1,0.3,0.3,0.1,0.5,0c0,0.2,0.1,0.2,0.2,0c0,0.1,0,0.1,0,0.2c0.2,0.1,0.3-0.1,0.5-0.1c0-0.1-0.1-0.2,0-0.2
		c0-0.1,0.1,0.2,0.1,0c0,0.1,0,0.1,0,0.2c0.1,0,0-0.2,0.1-0.1c0.1,0.1,0.1,0.2,0.1,0.2c0.1-0.1,0.3,0.1,0.4-0.1
		c0.1,0.1,0,0.2,0.1,0.2c0-0.2,0.1,0,0.1,0c0.2,0,0.2-0.3,0.4-0.1c0-0.2,0.2-0.1,0.3-0.2c0,0.1,0,0.1,0,0.2c0.1-0.3,0.2,0,0.3-0.3
		c0,0,0,0,0,0c0.1,0,0.2,0,0.3,0c-0.1,0.1-0.1,0.2-0.2,0.3c0.1,0,0.1,0.1,0.2,0.2c0-0.1,0-0.2,0.1-0.1c0-0.1,0-0.1,0-0.2
		c0.1-0.1,0.1,0.1,0.2,0.2c0-0.3,0.3-0.4,0.4,0c0-0.2,0.1,0,0.1-0.2c-0.1-0.1-0.1,0.1-0.2-0.1c0,0,0,0,0,0c0.1,0,0.1,0,0.2,0
		c0,0,0,0,0,0c0,0,0,0,0,0c0.1,0,0.1,0,0.2,0c0,0,0,0,0,0c0,0,0,0,0,0c0,0,0.1,0,0.1,0c0,0,0,0,0.1,0c0,0,0,0,0,0c0,0,0.1,0,0.1,0
		c-0.1,0.1-0.3,0.2-0.5,0c0.1,0.3-0.2,0.1-0.1,0.4c0,0.1,0.1,0,0.1,0.1c0-0.3,0.2-0.1,0.2,0.1c-0.1-0.2,0.1-0.2,0-0.4
		c0.1,0,0.1-0.1,0.2,0c0,0.1-0.2,0,0,0.2c0,0.2-0.1-0.1-0.1,0.1c0,0.1,0,0.1,0.1,0.2c0.1-0.3,0.1-0.1,0.2,0.1c0-0.3,0.2-0.1,0.3-0.2
		c0-0.1,0-0.1-0.1-0.2c0.1-0.3,0.3,0,0.4-0.3c0.1,0.1,0,0.2,0,0.3c-0.1,0-0.2,0.1-0.3,0c0,0.1,0,0.2,0,0.3c0-0.1,0,0,0.1,0
		c0-0.1,0-0.1,0-0.2c0.1,0.2,0.4,0,0.4-0.2c0,0.4,0.1,0.2,0.2,0.5c0-0.1,0.1-0.1,0.1,0c0-0.2-0.1,0-0.1-0.2c0-0.2,0.1-0.3,0.1-0.5
		c0.1,0.2-0.1,0.2-0.1,0.4c0.1,0.2,0.1,0,0.2-0.1c0-0.1,0-0.2,0-0.3c0-0.1,0.1,0.1,0.1,0c-0.1-0.2-0.2,0.2-0.2-0.1
		c-0.1,0.2-0.2,0.3-0.3,0.3c0-0.1,0.1-0.1,0.1-0.1c0-0.1-0.1-0.1-0.1,0c0-0.1,0-0.1,0-0.2c0.3,0,0.6,0,0.9,0c0,0,0,0.1,0.1,0.1
		c-0.1,0.1-0.2-0.1-0.4,0.2c0.1,0.2,0,0.2,0.1,0.3c0-0.1-0.1-0.3,0-0.4c0.1,0,0.2,0.1,0.4,0c-0.1-0.1-0.1-0.2,0-0.2c0,0-0.1,0-0.1,0
		c0.1,0,0.1,0,0.2,0c0,0,0,0.1,0,0.1c0-0.1,0.1-0.1,0.1-0.1c0.1,0,0.3,0,0.4,0c0,0,0,0.1,0,0.1c0.1-0.1,0.1,0,0.2-0.1c0,0,0,0,0.1,0
		c0,0,0,0.1,0,0.1c0-0.1,0-0.1,0.1-0.1c0.2,0,0.3,0,0.5,0c0,0,0,0,0,0c0,0,0,0,0,0c0,0,0,0,0,0c0,0.1,0,0.1,0,0.2
		c0.1-0.1,0.2,0,0.1-0.2c0,0,0,0,0,0c0,0,0,0,0.1,0c0,0,0.1,0.1,0.1,0c0,0.1,0,0.2-0.1,0.2c0,0.3,0.2-0.2,0.3,0.2l0.1-0.2
		c0-0.1,0-0.1,0-0.2c0,0,0,0,0.1,0c0,0,0,0.1,0,0.1c0-0.1,0.1-0.1,0.1-0.1c0,0,0,0,0,0c0.1,0,0.2,0.2,0.3,0.3c0.1-0.2,0.4,0.1,0.5,0
		c0-0.2-0.1,0-0.1-0.1c0-0.1,0.1-0.1,0.1-0.1c0.1,0,0.1,0,0.2,0c0,0.2-0.1,0-0.1,0.2c0.1,0.1,0.1,0.2,0.1,0.2c0-0.1,0.1-0.3,0.2-0.4
		c0,0,0,0,0.1,0c0,0.1,0,0.2,0.1,0.3c0,0,0.2-0.2,0.2,0.1c0.1-0.2,0.3-0.1,0.4-0.1c0.1,0.1-0.1,0.2,0,0.3c0.1-0.1,0-0.2,0.1-0.3
		c0.1-0.1,0.1,0.2,0.2,0.3c0-0.1,0.1,0,0.1,0c0,0.1,0,0.2,0.1,0.3c0-0.1,0-0.2,0.1-0.1c0-0.1-0.1,0-0.1-0.2c0-0.1,0.1,0,0.1,0
		c0-0.1-0.1-0.1-0.1-0.1c0-0.1,0-0.2,0-0.3c0.1,0,0.1,0.1,0.1-0.1c0.1,0.2,0,0.1,0,0.3c0.1,0.1,0.1-0.1,0.1-0.2c0.1-0.1,0.2,0,0.3,0
		c0,0.1-0.1,0.2-0.1,0.3c0.1,0.1,0.2,0.4,0.3,0.3c0.1,0.2,0.1,0.4,0.3,0.4c0-0.1-0.1-0.1-0.1-0.2c0.1-0.1,0.1,0,0.2,0
		c0-0.1,0-0.2,0-0.2c-0.1,0-0.2-0.2-0.2,0c0-0.1,0-0.2,0-0.3c0.1,0,0,0.2,0.1,0c0.1,0.1,0,0.2,0,0.2c0-0.2,0.1-0.2,0.2-0.1
		c0-0.1,0-0.2-0.1-0.2c0-0.1,0.1,0,0.1-0.1c0,0.1,0.1,0.2,0.1,0.3c0,0,0.2-0.2,0.1,0c0.1,0.1,0.1-0.3,0.2-0.2c0,0.1,0,0.1-0.1,0.2
		c0.1,0,0.3,0.3,0.3,0c0,0,0.2,0,0.1,0.2c0.2,0,0.4-0.2,0.4-0.7c0,0,0.1,0,0.1,0c0,0,0,0,0,0c0.1,0.1-0.1,0.2,0,0.4
		c-0.1,0.1-0.1,0-0.1,0c-0.1,0.1-0.1,0.2,0,0.4c0,0,0-0.1,0-0.1c0.1-0.1,0.1-0.2,0.2,0c0,0.1-0.1,0-0.1,0.1c0,0.2,0.1-0.1,0.1,0.1
		c0-0.4,0.2-0.1,0.4,0.1c0.1-0.1,0.1-0.4,0-0.4c0,0.2,0,0.1-0.1,0.1c0-0.1,0-0.1,0.1,0c0-0.2-0.2-0.1-0.3-0.1c0.3-0.2,0.8,0,1.1-0.1
		c0,0.1,0,0.1,0,0.2c0,0.1,0.1,0.1,0.2-0.1c0,0.3,0.1,0,0.1,0.2c0.1,0.1-0.1,0.2,0,0.3c0.1-0.2,0.1-0.1,0.2,0
		c0.1-0.2,0.1-0.3,0.2-0.1c0.1-0.2,0.1,0,0.2-0.2c0.2,0.6,0.6,0.2,0.9,0.5c0-0.2,0.1-0.3,0.1-0.1c0.1-0.1,0.1-0.2,0.1-0.3
		c0,0,0.1,0,0.1,0c0,0.1,0,0.2-0.1,0.3c0.1,0.2,0-0.3,0.2-0.1c0-0.3,0.1-0.2,0.2-0.2c0,0.1,0,0.2-0.1,0.3c0.2-0.2,0.4-0.1,0.5-0.3
		c0,0,0.1,0,0.1,0c0,0.1,0,0.2-0.1,0.1c0,0.1,0.1,0,0.1,0.2c0-0.1,0,0,0.1-0.1c0,0,0-0.1,0-0.1c0,0,0,0,0.1,0c0,0.1,0,0.1,0,0.2
		c0-0.1,0.1-0.1,0.1-0.2c0,0,0.1,0,0.1,0c0,0.1-0.1,0.1-0.1,0.1c0,0.1,0,0.1,0,0.1c0.1,0.2,0.3,0.5,0.5,0.1c0.1,0.1-0.1,0.2,0,0.3
		c0.1-0.2,0.3,0.1,0.4,0c0-0.1,0-0.1,0.1-0.2c0,0.1,0,0.1,0,0.2c0.1,0,0-0.1,0.1-0.1c0,0.1,0,0.1,0,0.2c0.1,0.2,0.2,0,0.2-0.1
		c0,0.1,0,0.1,0.1,0c0,0.1,0,0.1,0,0.2c0.2,0,0.4,0.3,0.6,0.1c0.2,0.2,0.1-0.1,0.2,0.1c0.1-0.3,0.2-0.2,0.3-0.4
		c0-0.1-0.1-0.1-0.1-0.1c0.1-0.1,0.1,0.1,0.2,0c0,0.1,0,0.1,0,0.2c0.1,0,0.2,0.2,0.3,0.2c0,0.1,0,0.1,0,0.2c0.1,0,0.1,0.1,0.2,0
		c0.1-0.4,0.4,0.2,0.6,0c-0.2-0.1-0.4-0.1-0.7-0.3c0.1-0.1,0.2,0,0.2,0c0-0.2-0.1-0.1-0.1-0.1l0.1-0.2c0,0.1,0,0.1,0,0.2
		c0.2-0.1,0.2-0.4,0.4-0.3c0,0.1-0.1,0.1-0.2,0.3c0,0.1,0,0.2,0,0.3c0-0.1,0.2-0.5,0.3-0.3c0,0.1,0,0.2,0,0.2
		c0.1,0.1,0.2-0.3,0.3-0.2c0.1,0.1-0.1,0.2,0,0.3c0,0,0,0,0-0.1c0-0.1,0.1,0,0.1-0.2c0,0,0.2,0.1,0.1-0.1c0,0,0.1-0.1,0.1,0.1
		c0,0.1-0.1,0.3-0.1,0.4c0,0,0.1-0.1,0.2-0.2c0,0.1,0,0.2,0.1,0.2c0.1,0,0.2,0,0.3,0c0,0.1-0.1,0-0.1,0.2c0.1,0.1,0.2-0.4,0.3-0.1
		c0,0,0.1-0.2,0.1-0.1c0-0.1-0.1,0-0.1-0.2l0.1-0.1c0.1,0.2,0.2,0,0.3,0.2c0,0.2-0.2,0.2-0.2,0c-0.1,0.1-0.1,0.2-0.2,0.1
		c0.1,0,0.2,0.3,0.3,0c0.1,0.1,0,0.2,0,0.4c0.1-0.3,0.3-0.2,0.5-0.2c0,0.1-0.1,0-0.1,0.1c0.1,0,0,0.1,0.1,0.2c0.1-0.1,0.2,0,0.3-0.1
		c0.1,0.3,0.1,0,0.4-0.3c-0.1,0-0.2,0.1-0.2,0c0,0,0,0.1,0,0.2c-0.1,0.1-0.1,0-0.2,0c0-0.1,0.1-0.1,0.1-0.1c0-0.1-0.2-0.5-0.3-0.3
		c0-0.2-0.3-0.2-0.4-0.2c0-0.1,0-0.2-0.1-0.1c-0.2-0.3-0.4-0.4-0.6-0.3c0-0.3-0.2-0.1-0.1-0.3c0,0.1-0.1,0.1-0.2,0.1
		c0,0.1,0.1,0,0.1,0.1c0,0-0.1,0-0.1,0.1c0-0.1,0-0.1,0-0.2c0-0.1-0.1,0-0.1-0.2c0,0,0,0.1,0,0.2c0-0.1-0.1-0.2-0.1-0.1
		c0-0.1-0.1-0.2-0.1-0.1c0-0.1,0.1-0.1,0-0.2c-0.1,0.3-0.4,0.1-0.5-0.1c-0.1-0.1,0,0.1-0.1,0.1c0,0,0,0-0.1,0
		c-0.1-0.1,0-0.2-0.1-0.3c-0.1,0.2-0.4,0-0.5-0.1c0,0.1-0.1,0.1-0.1,0.2c0,0,0,0,0,0c0,0,0,0,0,0c0,0,0,0,0,0c0,0,0,0,0,0
		c0,0,0,0,0,0c0,0,0,0,0,0c0-0.1,0-0.1,0-0.2c-0.1,0-0.2-0.1-0.4-0.2c0-0.2,0-0.1-0.1-0.2c0.1,0,0.1,0,0.2,0.2c0-0.1,0-0.1,0-0.2
		l1.4,0.6c0-0.1,0.1-0.2,0.2-0.2c0,0.3,0.2,0.1,0.2,0.4c0.1-0.1,0-0.2,0-0.2c-0.1-0.1-0.1-0.2-0.1-0.2c0.1-0.1,0.3-0.2,0.5-0.2l0,0
		c0-0.1,0.1,0.1,0.1-0.1c0.1,0.4,0.3,0,0.5,0.4c0.2-0.2,0.3,0,0.5,0.3c-0.1,0.1-0.1,0.2-0.2,0.3c0.2,0,0.4-0.2,0.5,0
		c0-0.3,0.2-0.5,0.1-0.8c0.1,0.1,0.2,0.2,0.3,0.2c0-0.3-0.3-0.2-0.3-0.5c0,0,0,0,0.1,0c0,0,0,0.1,0,0.1c0-0.1,0-0.1,0-0.1
		c0.1,0,0.1,0,0.2,0c0,0.1,0,0.2,0.1,0.3c0-0.2,0.1-0.2,0.2-0.3c0.1,0.2,0.2,0.4,0.2,0.1c0.1,0.1,0,0.2,0.1,0.2c0,0.2,0,0.1-0.1,0.2
		c0.1,0,0.2,0.1,0.3,0c0.1,0.1-0.1,0.2,0,0.4c0-0.1,0.1-0.4,0.1-0.2c0-0.1,0.1-0.2,0-0.3c0.1-0.1,0.1,0,0.1-0.3
		c0-0.1,0.1,0.2,0.1,0.1c0.1-0.1,0-0.2-0.1-0.2c0.1,0,0.1,0.1,0.2,0c0,0.1-0.1,0.2,0,0.3c0-0.2,0.1-0.1,0.1,0.1
		c0.1-0.3,0.3-0.1,0.5,0.2c0,0,0-0.1,0-0.1l0.2,0.9l0.5-0.9c0,0,0.1,0.1,0.1,0.1c0,0.1-0.1,0-0.1,0.1c0.1,0.2,0.2,0,0.3,0.2
		c0-0.1,0.1-0.2,0.1-0.3c0.1,0,0.2,0,0.2-0.2c0.1,0.1-0.1,0.1,0,0.2c0.1,0.1,0.1-0.1,0.2,0.1c0.1-0.1,0-0.2,0.1-0.2
		c0.1,0.1-0.1,0.2-0.1,0.4c-0.1,0.1-0.1-0.3-0.1-0.1c0,0.2,0.2,0.2,0.2,0.1c0.1,0.1,0,0.2,0.1,0.2c0.1-0.1,0.3-0.3,0.3-0.1
		c0,0,0-0.1,0-0.1c0.1,0,0.1-0.1,0.2,0.1c0.1-0.1,0.1,0,0.1-0.2c-0.1,0.1-0.1-0.3-0.2-0.1c0-0.2,0-0.3-0.1-0.4
		c0.1-0.2,0.1,0,0.2,0.1c0.1-0.2-0.1-0.1-0.1-0.3c0,0.1-0.1,0.1-0.1,0c-0.1,0.1-0.1,0-0.1,0.2c0.1,0.1,0.1,0,0.1,0.2
		c0,0.1-0.1-0.2-0.1-0.1c0-0.2,0.1-0.2,0-0.3c0,0.3-0.1,0-0.2,0c0,0,0-0.3,0.1-0.2c-0.1,0-0.2-0.3-0.3-0.2c-0.1-0.3-0.2-0.1-0.2-0.5
		c-0.1,0.1-0.1,0.2-0.2,0.2c0-0.1,0-0.1,0.1-0.2c-0.1-0.3-0.2-0.1-0.2-0.2c0,0.1,0,0.1,0,0.2c-0.1,0.2-0.1,0-0.1,0.2
		c0,0,0-0.2-0.1-0.2c0-0.2,0-0.1,0.1-0.2c-0.1-0.2-0.2,0-0.3-0.3c-0.1,0.4-0.1-0.2-0.2,0.1c0-0.2-0.1-0.1-0.1-0.3
		c0.1,0,0.1-0.1,0.2,0.1c0.1-0.3,0.2,0,0.4,0.2c0-0.1,0-0.2,0.1-0.3c-0.2,0.3-0.5-0.6-0.7,0.1c-0.1-0.1-0.2,0-0.4-0.2
		c0,0.1,0,0.1,0,0.2l-0.1,0.2c0,0-0.1,0-0.1-0.1c0.1-0.1,0.1,0,0.2-0.2c-0.1-0.1-0.1-0.1-0.2-0.2l-0.1,0.1c0,0-0.1,0-0.1-0.1
		c0-0.1,0-0.2,0.1-0.3c-0.1-0.1-0.1,0.4-0.2,0.2c0,0.1,0,0.1,0,0.2c0,0.1-0.1,0.1-0.1,0.1c0.1-0.3-0.2-0.5-0.3-0.6
		c0.1-0.1,0.4,0.2,0.4-0.1c0.1,0,0.2,0.2,0.3,0.1c0-0.2-0.1-0.1-0.2-0.2c0.1-0.1,0.1,0,0.2-0.2c0,0.3,0.1,0.1,0.1,0.4
		c0.1-0.1,0.1-0.3,0-0.4c0.1-0.1,0.1,0.2,0.1,0.2c0-0.1,0.1-0.1,0.1-0.1c0,0,0,0.1,0.1,0.1c0,0,0,0.1,0,0.1c0,0,0,0,0,0
		c0,0,0,0,0.1,0.1c0,0,0,0,0,0c0,0,0,0,0,0c0.1,0.1,0.1,0.1,0.2,0.2c-0.1,0-0.2-0.1-0.2,0.2c0,0,0.1-0.1,0.2-0.1c0,0.1,0,0.1,0,0.2
		c0-0.1,0.1-0.1,0.1-0.1c0,0,0,0,0,0c0,0,0,0,0.1,0.1c0,0,0,0,0,0c0.1,0.1,0.3,0.1,0.5,0.2c0.1-0.1,0.3-0.2,0.5-0.1c0,0,0,0,0,0
		c0.1,0,0.1,0.1,0.1,0.2c0.1-0.2,0.1,0,0.2-0.1c0-0.2,0-0.2,0.1-0.3c0-0.1,0-0.1-0.1-0.1c0.1,0,0.2-0.1,0.4-0.1
		c-0.2-0.1-0.1-0.3-0.4-0.3c0,0,0,0.1,0.1,0.1c-0.2,0-0.1,0-0.2-0.1c0.2,0,0.2-0.1,0.2-0.1c0.1,0,0.2,0,0.3,0.1c0-0.1,0-0.1-0.1-0.1
		c0.3-0.1,0.1-0.4,0-0.7c0.4-0.2-0.1-0.5-0.4-0.8l0.1,0c0.4,0.2,0.4,0.4,0.7,0.6c0.1,0,0-0.1,0.2-0.1c-0.4-0.4-0.2-0.6-0.5-1
		c0,0,0.1,0,0.1,0c0,0.1,0.2,0.4,0.4,0.5c0.1,0,0-0.1,0.1-0.2c-0.2,0-0.2-0.1-0.1-0.1c-0.1,0-0.2,0-0.3,0c0.1-0.1,0-0.4-0.4-0.4
		c-0.1-0.1,0.3,0,0.2-0.1c0.1,0,0.1,0.1,0.2,0.1c0-0.1-0.3-0.2-0.4-0.2c-0.1-0.1,0.2,0,0.3-0.1c-0.1-0.1-0.3-0.1-0.4-0.2
		c-0.1-0.1,0.1-0.1,0.2,0c0.1-0.1-0.2-0.1-0.2-0.1c0,0,0.1-0.1,0.3-0.1c0.2,0.1,0.1,0.1,0.2,0.2c0.2-0.1-0.1-0.2-0.3-0.2
		c0-0.2,0-0.3-0.3-0.4c0.1-0.1,0.2,0,0.4,0c0.1,0.1,0.1,0.2,0.1,0.3c0.2-0.1,0.4,0,0.5,0.1c0.1,0,0-0.1-0.1-0.1c0.2,0,0-0.1,0.3-0.1
		c-0.2-0.1-0.2-0.3-0.2-0.4c0.1,0,0.2,0.1,0,0.2c0,0,0.1,0,0.1,0l0.1,0.1c0.2-0.1,0-0.2,0-0.3c0.2,0,0.3,0,0.5,0
		c-0.2-0.1-0.1-0.1-0.2-0.2c0.1-0.1,0.2,0,0.3-0.1c-0.1-0.1-0.1-0.1-0.2-0.1c0.1-0.1,0.2,0,0.3-0.1c-0.1-0.1,0-0.3,0-0.4
		c0.2,0,0.1,0.1,0.3,0.1c0.1-0.1-0.1-0.2,0.1-0.2c-0.1,0-0.1-0.1-0.2-0.1c0.1-0.1,0.1-0.3,0-0.5c0,0,0.1,0,0.1,0
		c0-0.2-0.1-0.1-0.1-0.1c0-0.1,0-0.1,0-0.1c0.1,0,0.1-0.1,0.2-0.1c0-0.2-0.1-0.2-0.1,0c-0.1-0.1,0.1-0.2,0-0.2
		c0.1-0.1,0.2-0.1,0.1-0.3c-0.1,0-0.1,0.1,0,0.2c0,0,0,0-0.1-0.1c-0.1,0.1-0.1,0.2-0.1,0.3c-0.1,0-0.1,0-0.2,0c0,0-0.1-0.1-0.1-0.1
		c0,0,0,0,0,0c0,0.1,0,0,0.1,0c0,0,0,0,0.1,0c0,0,0,0,0,0c0,0,0,0,0,0c0.4-0.1-0.3-0.5-0.1-0.6c0.6,0.1,0.4,0.3,0.6,0.6c0,0,0,0,0,0
		c0,0.1,0,0.1,0,0.2c0.1-0.3,0.2-0.1,0.2-0.2c-0.1-0.1-0.2-0.1-0.3-0.1c0-0.1-0.1-0.1,0.1-0.1l-0.2-0.2c0.1,0,0.2,0,0.2,0
		c0,0.1,0.2,0.1,0.1,0.2c0.2,0,0.1,0.1,0.3,0.1C160.4,234.6,159.6,234.4,160,234.4z"/>
</g>
</svg>
