<?xml version="1.0" encoding="utf-8"?>
<!-- Generator: Adobe Illustrator 18.1.1, SVG Export Plug-In . SVG Version: 6.00 Build 0)  -->
<svg version="1.1" id="Layer_1" xmlns="http://www.w3.org/2000/svg" xmlns:xlink="http://www.w3.org/1999/xlink" x="0px" y="0px"
	 viewBox="56.7 178.7 377.6 68.8" enable-background="new 56.7 178.7 377.6 68.8" xml:space="preserve">
<g>
	<path fill="#FFFFFF" d="M108.2,215.8c-1.8,0.7-4.1,1.6-6.6,2.3c-11.4,3.4-28.5,4.5-37.8,0.2c-4.7-2.1-7.3-6.2-7.1-10.4
		c0.5-12.8,21.3-19.1,29.7-19.5c8.9-0.3,11.1,0.7,13.2,2.8c0.7,0.8,0.7,2.3,0.5,3.1c-0.5,1.2-1.3,2.1-2.2,2
		c-1.2-0.1-1.7-1.1-2.2-1.6c-2.8-1.5-7.4-2.5-10.4-2.5c-5.8,0-20.2,3.5-21.3,12.9c-0.7,5.3,2.5,8.6,8.6,10.6
		c10.1,3.1,25,0.8,36.6-2.6C111.7,212.4,110.1,215.1,108.2,215.8z"/>
	<path fill="#FFFFFF" d="M129.6,208.9c-2,0-2.5-0.5-6.1-0.5c-2.6,0-4.6,1.2-7.1,3.9c-0.4,0.5-0.6,0.9-0.6,1.3c0,1.1,0.7,1.5,2.1,1.5
		c1.6,0,4.5-0.4,10.4-2.7c1.7-0.7,2.5-1.1,4,0.2c0.6,0.5,1.2,1.2,2,2.1c0.7,0.6,2.2,0.9,3.7,0.9c1.4,0,4.2-0.2,8.4-1.3
		c0.7-0.2,0.2,1.4-0.8,1.8c-5.1,2.2-8.6,2.8-11.3,2.8c-3.6,0-5.9-0.7-7.9-3.4c-7.9,3.1-12.2,3.8-13.8,3.8c-2.5,0-3.7-1.3-3.7-3.9
		c0-2,3.8-5.6,9.6-8.3c1.3-0.6,5.9-2.4,8.7-2.4c2.1,0,5.4,1.2,5.4,2.5C132.8,208,130.4,208.9,129.6,208.9z"/>
	<path fill="#FFFFFF" d="M152.7,203.5c-2.3,2.2-3.4,3.8-3.4,5c0,2.2,2.7,3.7,6.4,5.5c3.7-1.1,7-1.6,12.5-1.6c0.7,0,1.1,0.2,1.4,0.5
		c0,0.6-0.9,1.2-2.7,1.7c-1.7,0.6-5.5,0.8-8.7,1.3c0.6,0.9,0.8,2,0.8,3.1c0,2.7-8.3,6.9-11,6.9c-2.2,0-4.4-1.4-4.4-2.9
		c-0.1-1.8,3-4.5,5.7-6.3c-2.8-1.9-6-4.3-6-7c0-1.9,3.7-5.9,8.9-8.5c1.9-0.9,3.4-1.2,4.4-1.2c0.2,0,0.8,0.1,0.8,0.7
		C157.3,201.2,155.8,202.2,152.7,203.5z M151.2,222.3c1.4,0,2.1-0.8,2.1-1.7c0-0.8-0.9-1.6-2.2-2.5c-1.1,0.6-2,1.4-2,2.3
		C149.2,221.6,150,222.3,151.2,222.3z"/>
	<path fill="#FFFFFF" d="M189.2,208.3c0,2-3.6,3.9-10.8,5.9c-1.4,0.4-3.2,1.3-4.1,1.6c0.7,1.3,2.6,1.6,7.6,1.6
		c4.6-0.1,9.7-0.7,14.8-2.8c0.4-0.2,1.2-0.1,1.2,0.5c0,0.7-0.7,1.4-2.1,2.1c-0.8,0.4-1.9,0.8-3.5,1.3c-3.8,1.2-11,2.5-15.3,2.5
		c-2.6,0-10.4,0.1-10.4-4.8c0-6.4,11.1-11.3,15.7-11.3C184,204.9,189.2,206.9,189.2,208.3z M179.1,208c-1.8,0-4.1,1.2-5.4,3.6
		c-0.3,0.4-0.4,1-0.3,1.4c7-1.2,9.8-2.5,9.8-3.6C183.2,208.5,181.8,208,179.1,208z"/>
	<path fill="#FFFFFF" d="M252.8,193.2c0.7,2.3,0,3.4-2,4.4c-2.3,1.1-3,0.4-3.7-1.9c-1.6-1.4-2.6-3.1-8-3.5
		c-5.4-0.5-25.5-0.3-27.4,7.5c-0.8,3.6,4.3,5.6,7.8,6.2c12.9,2,20.7,3.8,25,5.9c1.3,0.6,3.1,1.4,2.9,2.8c-0.2,4.2-6.3,6.4-16.4,6.5
		c-3.5,0.1-17-0.4-17.1-4.2c-0.1-0.6,1.7-1.4,3.7-2c4.7,2.1,10.2,3.6,16,3.5c3.4,0.1,5.6-1.5,5.6-2.8c0.1-1.3-1.7-2.3-5.2-3.3
		c-3.4-0.9-9.4-0.8-18.1-2.5c-7.4-1.5-11.8-4.6-11.7-8.8c0.4-8.7,22.6-12.9,31.7-12.9c5,0,10.2,0.3,14.7,2.8
		C251.8,191.4,252.4,192.1,252.8,193.2z"/>
	<path fill="#FFFFFF" d="M260.3,205c5.7,0.3,14.1-0.4,17.5-0.1c0.9,0.1,0.3,1.3-1.4,1.8c-1.4,0.5-12.3,1-16.3,1.4
		c0,6.5,4.3,9.8,10.2,10.1c3,0.2,7.9-0.4,13.3-1.9c0.9-0.3,0.4,1.4-0.7,1.9c-3.4,1.7-10.5,2.8-15.5,2.7c-7.9-0.2-13-4-13.5-13
		c-1.2-0.4-2.1-0.9-2.5-1.7c0.4-0.9,1.6-2,3.1-1.8c1.2-3.5,3.1-5.2,5.6-5.2c0.8,0,1.5,0.7,1.3,1.2C260.5,201.7,260.3,204,260.3,205z
		"/>
	<path fill="#FFFFFF" d="M304.3,214.7c2.4,2.3,6.3,2.5,11.6,1.4c0.9-0.2,0.5,1.2-0.1,1.5c-2,1.3-5.3,1.8-9.1,1.8
		c-3.4,0-7-1.1-10.2-3.5c-2.5,2.2-7.7,4.5-11.4,4.5c-3.3,0-6.9-3.6-6.3-9.5c0.1-1.7,2-2.2,4.7-2.6c1.3-0.2,2.2,0.4,2.1,3
		c-0.1,1.2,0.2,5.2,2.1,5.5c3.3,0.7,4.8-1.6,8.7-5.5c0.4-0.4,1.6-0.8,2.6-1.1C300,210.1,301.6,212,304.3,214.7z"/>
	<path fill="#FFFFFF" d="M324.3,206.3c0.9-0.2,1.8-0.3,2.3-0.3c-0.1-2.6-0.2-5.3-0.2-7.9c0-12.3,3-18.5,8.7-18.5l3-0.9
		c4.1,0,9,3.2,12.6,6.8c3.1,3,8.5,9.8,8.5,15.3c0,7.9-9.6,12-15.5,13.5c-2.5,0.6-5.6,1.4-8.9,2.2c0.5,1.9,1.3,4.4,2.7,8.3
		c0.6,1.3,0.2,5.3-1.3,5.3c-1.9,0-3.3-2.9-5.6-8.4c-0.5-1.2-1.1-2.6-1.5-4.1c-3.8,0.7-7.6,1.3-10.4,1.3c-3.4,0-7.4-2.2-7.4-5
		C311.2,210.6,315.5,208.1,324.3,206.3z M324.4,209.3c-4.6-0.2-7,0.9-7,3c0,3.6,3.8,3.7,6.7,3.7c1.3,0,2.7-0.1,4.3-0.3
		c-0.6-2.3-1.2-4.5-1.6-6.2L324.4,209.3z M335.7,209.8c-0.7,1.1-1.4,2.1-1.7,2.7c0.1,0.7,0.2,1.3,0.3,2.1c6.4-1.5,12.9-3.7,15.1-5.2
		c3.2-2.1,4.5-4.6,4.5-8.1c0-4.7-3-10.1-9.1-15.8c-2.7-2.5-5.7-3.8-8.9-3.8c-0.9,0-2.2,2.1-3.2,6.4c-0.4,1.7-0.8,4.9-0.8,9.8
		c-0.1,4.3,0.4,7.6,1.1,9C334.3,207.2,335.7,208.3,335.7,209.8z"/>
	<path fill="#FFFFFF" d="M365.8,213.7c0.5,2.8,3.9,2.8,5.9,1.9c3-1.3,4.8-2.9,6-5.1c0.5-1,3.8-3,4.9-3c0.6,0,1.1,1.2,1.5,3.3
		c0.3,2.2,0.7,7.4,0.9,12h4c3.8,0,7.6,0.6,10,2.1c1.2,0.7-0.9,1.7-4.6,1.8c-3.3,0.1-6.4,0.1-9.3,0.1c0,10.2-6.2,20.8-17.6,20.7
		c-6.4-0.1-10.5-1.7-14.8-4.8c-2.8-2-6.1-6.5-6-9.3c0.2-4.3,6.9-7.8,20.3-9.4c5.1-0.6,8-0.9,11.3-1c-0.2-2.4-0.5-5.3-1.3-7.1
		c-4.9,2.6-9.5,4.6-11.6,4.6c-4.4,0-6.6-3.4-7.3-10.1c-0.1-1.5,2.6-2.6,5.7-2.3C364.3,208.2,365.1,210,365.8,213.7z M352.4,231.5
		c-0.1,2.4,1.7,5.3,6,8.5c1.6,1.2,5.3,3.2,10.8,4.3c2.9,0.5,3.8-0.1,4.9-1.2c4.2-4.6,5.4-9.7,4.7-16.2c-5.9,0.1-11.9,0.3-18.9,0.9
		C356.7,228.1,352.5,230.1,352.4,231.5z"/>
</g>
<g>
	<path fill="#FFFFFF" d="M413.9,206.9c0.4,0.6,0.6,0.8,1,0.9c2.7,1.2,4.7,3,4.1,5.2c-1,3.5-7.6,4.9-12.1,5.2
		c-3.4,0.2-7.3-0.9-7.3-4.5c0-2.3,4.2-6.5,8.7-7.3c1.1-0.3,2.4-0.5,3.2-0.5C412.5,206,413.4,206.2,413.9,206.9z M416.7,212.7
		c0-3.4-5-4.5-8.7-4.6c-2.7,0.6-5.8,3.1-5.8,5.9c0,2,2.9,3.2,5.1,3.2C411.4,217.1,416.7,215,416.7,212.7z"/>
	<path fill="#FFFFFF" d="M433.8,217.2c0.7,0.2-0.3,1-0.8,1c-3,0-3.9-0.1-7.4,0.2c-0.8,0.1-2.2-0.3-2.2-0.8c0-0.3,1.3-1.1,2.8-1.7
		c1.8-1.2,5.4-3.5,5.5-5.9c0.1-1.7-1.8-2.7-3.6-2.6s-3.5,0.5-4.4,1.3c-0.1,0.1-0.2,0.2-0.2,0.4c0.1,0.2,0.6,0,0.9,0
		c0.3,0,0.6,0.4,0.6,0.7c0,0.2-0.6,0.7-2.3,0.7c-0.7,0-1.3-0.3-1.3-1.1c0-0.9,0.8-1.8,2.5-2.5c1.7-0.6,3.1-0.8,4.1-0.8
		c2.7,0,6.2,0.6,6.2,3.8c0,2.9-5.3,6.1-6.8,7.1C429.5,216.9,431.8,216.7,433.8,217.2z"/>
</g>
</svg>
