<?xml version="1.0" encoding="utf-8"?>
<!-- Generator: Adobe Illustrator 18.1.1, SVG Export Plug-In . SVG Version: 6.00 Build 0)  -->
<!DOCTYPE svg PUBLIC "-//W3C//DTD SVG 1.1//EN" "http://www.w3.org/Graphics/SVG/1.1/DTD/svg11.dtd">
<svg version="1.1" id="Layer_1" xmlns="http://www.w3.org/2000/svg" xmlns:xlink="http://www.w3.org/1999/xlink" x="0px" y="0px"
	 viewBox="129.4 94.4 270.6 247.2" enable-background="new 129.4 94.4 270.6 247.2" xml:space="preserve">
<g opacity="0.5">
	<path fill="#FFFFFF" d="M291.3,189.7c1.8,0,3.8-1.4,3.8-3.2c0-2-1.6-3.2-3.2-3.2c-2.6,0-6.7,2.4-6.7,3.8
		C285.3,188.3,289.1,189.7,291.3,189.7z"/>
	<path fill="#FFFFFF" d="M396.6,216.5h-10.9c-0.4-3.2-1-6.7-1.6-10.1c0.2-1.4,0.8-2.8,1.2-3.6c0.2-0.8-0.8-1.4-3-1.6
		c0.6-0.4,0.8-1.6,0.6-2.2c-1.4-3.2-3.6-4.9-6.5-4.9c-1,0-3.8,0.4-5.7,1.2c-9.1,4-13.8,7.9-13.8,10.7c0,0.6,0.1,1.1,0.3,1.6
		c-4.9,0.5-10.9,0.5-14.1-1.6c-5.1-3.4-7.9-5.3-9.9-5.3c-1.8,0-4.3,0.6-6.9,2c-3.2,2-4.5,3-5.9,3.2c-1-0.6-2.2-1.4-2.2-3.6
		c-0.2-3.6-0.6-7.1-2.2-7.1c-1.6,0.4-2.8,0.6-3.4,1c-1.6,0.8-2.4,2-2.4,4.3c0,1.4,0,3,0.4,4.4c-3.7,1-7.5,1.7-9.3,1.7
		c-2,0-6.7-1.6-6.7-4.5v-4.3c0-1.2-0.2-2.6-1.6-2.6c-3.8,1-6.3,3.6-6.3,6.7c0,1.9,1,3.8,2.6,5.2c-2.8,1-4.1,1.5-7,1.5
		c-3.2,0-7.7-2.4-9.5-5.7c-2.4-4-3.2-9.9-3.2-18.2c0-7.9,1-13.8,2.8-22.1c0.2-1.2-0.2-2.2-1-2.6c-1-0.2-1.8,0.2-3.2,0.8
		c-1.8,1-3.6,2.8-4.5,6.9c-0.8,4.3-1.2,13.2-1.2,18c0,3.8,0.4,9.5,1.6,14.8c0.3,1.3,0.7,2.5,1.3,3.6c-4.3,1.1-7.1,1.3-8.8,1.3
		c-1.8,0-3.6-0.4-4.5-1.2c-1-1-1.8-1.8-2.4-2.4c-1.8-1.4-2.8-1-4.9-0.2c-7.1,2.6-10.5,3.2-12.6,3.2c-1.8,0-2.6-0.6-2.6-1.8
		c0-0.4,0.2-1,0.6-1.6c2.8-3.2,5.3-4.7,8.5-4.7c4.3,0,4.9,0.6,7.3,0.6c1,0,4-1,4-2c0-1.6-3.8-3-6.5-3c-3.6,0-9.1,2.2-10.7,2.8
		c-6.3,2.9-10.6,6.7-11.6,9.2c-6.2,2.6-12.2,3.4-17.8,3.4c-6.1,0.2-8.5-0.2-9.3-1.8c1.2-0.4,3.4-1.6,5.1-2
		c8.7-2.4,13.2-4.7,13.2-7.1c0-1.8-6.3-4.3-8.5-4.5c-5.3,0-18.2,5.7-19,13c-0.9,0-1.8,0.1-2.9,0.1c-6.7,0.2-12.8-1.4-16.4-5.3
		c-1.6-1.8-4.7-6.3-5.7-6.3c-1.8-0.2-3.6,1-5.9,4.3c-0.6,1.2-2,3.6-2.6,4.9c-0.6-2.2-1-5.3-0.2-10.7c6.7-2.6,13.2-6.5,19.4-11.9
		c3.4-3.2,4.9-6.5,5.1-9.3c0-2.8-1.8-7.1-5.1-9.9c-3.8-3.4-7.3-4.9-10.5-4.9c-3,0-7.1,3-9.5,5.9c-1.8,2.4-3.6,7.7-5.5,16.8
		c-0.6,2.6-1.4,7.5-1.8,13.4c-2.2,0.8-4,1-5.1,0.8l-4.5-0.6c-1,0-4.5,1.8-4.5,2.6c0,0.8,1.6,1.6,5.1,1.6c2.4,0,5.7-0.4,8.9-1.6
		c-0.2,2-0.2,4.3-0.2,6.5c0,6.3,1.6,10.3,4.5,11.3c2,0.8,3.4-3.2,5.1-5.7c2-2.8,3.6-3.8,4.3-4.3c6.1,4.3,11.7,6.3,17.8,6.3
		c5.1,0,8.4-0.4,10.7-1.1c2,3.7,9.4,3.7,12.2,3.7c5.3,0,14-1.6,18.6-3c2-0.6,3.2-1.2,4.3-1.6c0.3-0.1,0.5-0.3,0.8-0.4
		c0.4,2,1.8,3.1,4.3,3.1c2,0,7.3-0.8,16.8-4.7c2.4,3.4,5.1,4.3,9.5,4.3c3.2,0,7.5-0.8,13.8-3.4c0.2-0.1,0.3-0.2,0.5-0.3
		c2.4,4,6.3,6.4,10.2,6.4c4.9,0,11.3-1.8,13.2-2.8c0.4-0.2,0.8-0.6,1.1-0.9c1.9,1.3,4.2,2.2,6.4,2.2c3.8,0,10-1.8,14.4-3.3
		c1.2,2.1,3.2,3.1,5.9,3.1c4.7-1.2,8.5-4.5,12.4-5.1c2.4-0.2,4.3,2.4,8.9,4c3,1.2,6.7,1.8,10.7,1.8c2.5,0,6.9-0.6,10.5-1.4
		c0.5,0.1,1.1,0.2,1.7,0.2c2.2,0,6.5-0.6,14.2-2.4c1,3,1.8,6.3,2.4,9.5c-10.5,0.2-21.9,1-31,3.4c-5.5,1.4-10.3,3.4-10.7,6.7
		c-0.4,2.8,1,8.5,8.7,13.2c8.9,5.5,21.1,5.7,25.3,5.7c9.7-1.6,14.8-7.3,15.8-17c0.2-2.6,0.4-5.3,0.2-7.7c8.1,0.2,12.1-0.8,13.6-3.6
		C400.5,216.7,397.6,216.5,396.6,216.5z M158.5,160.4c6.9-0.2,11.3,5.5,11.1,12.6c0,1.4,0,3.4-2.4,5.9c-2.2,2.4-7.5,6.5-15.8,10.1
		C153.3,171.1,155.7,162,158.5,160.4z M193.4,200.7c1.8-3,4.5-4.5,6.7-4.5c3.2,0,5.1,0.6,4.9,1.8c0,1.4-3.4,3-11.9,4.5
		C192.7,201.9,192.9,201.3,193.4,200.7z M378.8,231.9c-0.8,5.5-1.8,8.3-3.4,8.7c-3.2,0.8-12.4,0.6-18.4-2.4
		c-12.6-6.5-13.8-11.3-13.8-12.1c0-1,2-1.8,3.2-2c8.7-2.6,23.5-2.6,32.4-2.6C379.2,225,379.2,228.6,378.8,231.9z M368.5,205.3
		c-2.4,0-4.5-0.6-3.2-3.2c0.6-1.6,4.7-3.8,6.9-3.6c3.2,0,5.1,0.8,7.3,4.7C375.6,204.7,371.7,205.5,368.5,205.3z"/>
</g>
<g opacity="0.5">
	<path fill="#FFFFFF" d="M207.6,242.4c-4,1.7-7.9,2.2-11.6,2.2c-3.9,0.1-5.5-0.1-6-1.2c0.8-0.3,2.2-1,3.3-1.3c5.6-1.6,8.5-3,8.5-4.6
		c0-1.2-4-2.7-5.5-2.9c-3.4,0-11.7,3.7-12.2,8.4c-0.5,0-1.2,0-1.8,0.1c-4.3,0.1-8.2-0.9-10.5-3.4c-1-1.2-3-4-3.6-4
		c-1.2-0.1-2.3,0.7-3.8,2.7c-0.4,0.8-1.3,2.3-1.7,3.1c-0.4-1.4-0.7-3.4-0.1-6.9c4.3-1.7,8.5-4.2,12.5-7.7c2.1-2.1,3.1-4.2,3.1-6
		c0-1.8-1.2-4.6-3.3-6.4c-2.5-2.2-4.7-3.1-6.8-3.1c-1.8,0-4.4,2-6,3.8c-1.2,1.6-2.3,4.9-3.5,10.8c-0.5,2.5-1.3,7.9-1.3,14.6
		c0,1.3,0.1,2.5,0.3,3.5c-3.4,0.8-6.4,1.2-8.4,1.1c-4.6-0.1-7.9-2.7-7.9-7.8c3.1-0.4,11.6-0.8,12.7-1.2c1.4-0.4,2-1.3,1.2-1.4
		c-2.6-0.1-9.2,0.4-13.7,0.1c0-0.8,0.3-2.6,0.9-3.6c0.1-0.4-0.4-0.9-1-0.9c-2.1,0-3.5,1.3-4.4,4c-1.3-0.1-2.2,0.8-2.5,1.4
		c0.4,0.5,1,1,2,1.3c0.4,7,4.4,10,10.5,10.1c3.4,0.1,8.2-0.6,11.1-1.6c0.5,1.2,1.2,2,2.1,2.3c1.3,0.5,2.2-2.1,3.3-3.6
		c1.3-1.8,2.3-2.5,2.7-2.7c3.9,2.7,7.5,4,11.4,4c3.3,0,5.4-0.2,6.9-0.7c1.3,2.4,6.1,2.4,7.8,2.4c3.4,0,9-1,12-2
		c1.3-0.4,2.1-0.8,2.7-1c1-0.5,1.6-1,1.6-1.6C208.5,242.3,208,242.3,207.6,242.4z M167.2,214.3c4.4-0.1,7.3,3.5,7.2,8.1
		c0,0.9,0,2.2-1.6,3.8c-1.6,1.6-4.8,4.2-10.1,6.5C163.8,221.2,165.3,215.4,167.2,214.3z M189.5,240.2c1.2-2,2.9-2.9,4.3-2.9
		c2.1,0,3.3,0.4,3.1,1.2c0,0.9-2.2,2-7.7,2.9C189.1,241,189.3,240.6,189.5,240.2z"/>
	<path fill="#FFFFFF" d="M328.3,219.8c-2.9-2.9-6.8-5.3-9.9-5.3l-2.3,0.8c-4.6,0-6.9,4.8-6.9,14.4c0,2,0,4,0.1,6.1
		c-0.4,0-1,0.1-1.8,0.3c-6.9,1.3-10.3,3.3-10.1,6.1c0,0.9,0.6,1.8,1.4,2.4c-3.2,0.3-7.1,0.4-9.1-1c-3.3-2.2-5.1-3.4-6.4-3.4
		c-1.2,0-2.7,0.4-4.4,1.3c-2.1,1.3-2.9,2-3.8,2.1c-0.7-0.4-1.4-0.9-1.4-2.3c0-2.3-0.4-4.6-1.4-4.6c-1,0.3-1.8,0.4-2.2,0.7
		c-1,0.5-1.6,1.3-1.6,2.7c0,0.8,0,1.8,0.2,2.7c-1.9,0.4-3.3,0.5-4.1,0.5c-1.2,0-2.3-0.3-2.9-0.8c-0.7-0.7-1.2-1.2-1.6-1.6
		c-1.2-0.9-1.8-0.7-3.1-0.1c-4.6,1.7-6.8,2.1-8.1,2.1c-1.2,0-1.7-0.4-1.7-1.2c0-0.3,0.1-0.7,0.4-1c1.8-2.1,3.4-3,5.5-3
		c2.7,0,3.1,0.4,4.7,0.4c0.5,0,2.5-0.7,2.6-1.3c0-1-2.5-2-4.2-2c-2.3,0-5.9,1.4-6.9,1.8c-4.6,2.1-7.5,4.9-7.5,6.5
		c0,0.6,0.1,1.1,0.3,1.6c-1.3,0.4-2.1,0.7-3.7,0.7c-2.1,0-4.9-1.6-6.1-3.6c-1.6-2.6-2.1-6.4-2.1-11.7c0-5.1,0.7-8.8,1.8-14.2
		c0.3-0.8,0-1.4-0.7-1.7c-0.7-0.1-1.2,0.1-2.1,0.5c-1.2,0.7-2.3,1.8-2.9,4.4c-0.5,2.7-0.8,8.5-0.8,11.6c0,2.5,0.3,6.1,1,9.5
		c1,4.4,4.4,7.4,7.9,7.4c3.1,0,7.2-1.1,8.4-1.8c0.4,0.2,1,0.4,1.6,0.4c1.3,0,4.7-0.5,10.8-3c1.6,2.2,3.3,2.7,6.1,2.7
		c1.9,0,4.2-0.4,7.6-1.7c0.7,1.5,2.1,2.2,3.9,2.2c3-0.8,5.5-2.9,7.9-3.3c1.6-0.1,2.7,1.6,5.7,2.6c2,0.8,4.3,1.2,6.9,1.2
		c1.8,0,5.1-0.5,7.5-1.1c0.7,0.2,1.4,0.3,2.1,0.3c2.2,0,5.2-0.5,8.2-1c0.4,1,0.8,2.2,1.2,3.1c1.8,4.3,3,6.5,4.4,6.5
		c1.2,0,1.4-3.1,1-4.2c-1-3-1.7-5.1-2.1-6.5c2.5-0.5,4.9-1.2,6.9-1.7c4.6-1.2,12.1-4.4,12.1-10.5
		C334.9,227.5,330.6,222.1,328.3,219.8z M307.5,243.6c-2.3,0-5.3,0-5.3-2.9c0-1.6,1.8-2.5,5.5-2.3l2,0.1c0.4,1.3,0.8,3,1.3,4.8
		C309.6,243.5,308.5,243.6,307.5,243.6z M327.1,238.5c-1.8,1.2-6.8,2.9-11.8,4c-0.1-0.7-0.1-1.2-0.3-1.7c0.3-0.5,0.8-1.2,1.3-2.1
		c0-1.2-1-2.1-2.1-2.2c-0.5-1-0.8-3.6-0.8-7c0-3.9,0.4-6.4,0.7-7.7c0.8-3.4,1.7-4.9,2.5-4.9c2.5,0,4.8,1,6.9,3
		c4.8,4.6,7.2,8.7,7.2,12.4C330.6,234.9,329.6,236.8,327.1,238.5z"/>
</g>
<g opacity="0.2">
	<g>
		<path fill-rule="evenodd" clip-rule="evenodd" fill="#FFFFFF" d="M301.3,133.7c17.4-13.8,51.2,4.7,49.7,26.6
			c-26.3,5.4-46.1-6.9-50.4-22c15.7-0.2,23.8,1.5,37.8,14.2C332.1,137.9,317.9,132.8,301.3,133.7z"/>
	</g>
	<g>
		<path fill-rule="evenodd" clip-rule="evenodd" fill="#FFFFFF" d="M262,136.5c-5.1-12.9-12.1-25.5-2.3-34.9
			c10.2-10,23.9-8.2,37.1-2.5c-8.1-0.4-8.2,9.8-12,16.9c-4.1,7.6-12,10.2-20.5,8.1c1.6-9.6,5.4-15.5,13.7-20.8
			c-8.4,1.8-14.5,5.9-17,14.2C258.8,124.5,263.8,129.3,262,136.5z"/>
	</g>
	<g>
		<path fill-rule="evenodd" clip-rule="evenodd" fill="#FFFFFF" d="M193.2,153.6c-11.8-3.1-5.3-10.8-4.7-16.4
			C194.7,139.3,191.9,147.1,193.2,153.6z"/>
	</g>
	<g>
		<path fill-rule="evenodd" clip-rule="evenodd" fill="#FFFFFF" d="M202.5,129.9c-4.5-4.5-5.5-12.8-0.3-16.5
			c4.8-3.4,11,0.7,14.3,5.7C209.7,118,198.2,124.6,202.5,129.9z"/>
	</g>
	<g>
		<path fill-rule="evenodd" clip-rule="evenodd" fill="#FFFFFF" d="M224.2,139.6c-4.5-2.9-1.9-8.5-2.8-13.9c3.1,0.2,6.3,0.6,7,3.6
			C229.3,133.5,223.1,135.3,224.2,139.6z"/>
	</g>
	<g>
		<path fill-rule="evenodd" clip-rule="evenodd" fill="#FFFFFF" d="M273.9,147.6c10.2,4.1,12.4-12.3,18-21.7
			c-8.3,1.4-14.7,6-16,14.3l8.1-6.4C281.6,139.9,279.6,144.3,273.9,147.6z"/>
	</g>
	<g>
		<path fill-rule="evenodd" clip-rule="evenodd" fill="#FFFFFF" d="M168.1,264.1c-3.1,12.7,4.2,27.1,19.8,22.6
			c-5.8-2.7-10.5-5.8-13.9-11.9c5.5,5.2,10.9,9,19.2,11.9C191.3,268.8,172.8,271.6,168.1,264.1z"/>
	</g>
	<g>
		<path fill-rule="evenodd" clip-rule="evenodd" fill="#FFFFFF" d="M207.1,288.2c3.2-2.2,5.1-5.2,4.7-9.2c2.9,2.3,3.7,6.1,2,9.3
			C212.6,290.6,209.2,289.6,207.1,288.2z"/>
	</g>
	<g>
		<path fill-rule="evenodd" clip-rule="evenodd" fill="#FFFFFF" d="M215.4,289.1c4.2-4.8,4.6-11.7,2.5-17.7c5.1,2,9.7,6.9,7.2,11.7
			C222.9,287.2,219.2,286,215.4,289.1z"/>
	</g>
	<g>
		<path fill-rule="evenodd" clip-rule="evenodd" fill="#FFFFFF" d="M203.2,313.4c8.2-3.3,13.8,2.6,22.6,1c-5.2-2.7-9.2-3.7-14.8-3.7
			c8-11.1,29.9,1.1,33-12.2c-0.8,10.8-3.8,21.5-14.4,23.9C215.3,325.6,213.9,310.7,203.2,313.4z"/>
	</g>
	<g>
		<path fill-rule="evenodd" clip-rule="evenodd" fill="#FFFFFF" d="M249.5,313c8.5-7.3,16.3-16,26-11c10.3,5.2,12.5,16,11.7,27.6
			c-1.8-6.3-9.7-3.7-16.1-4.6c-6.9-1.1-11-6.5-11.6-13.5c7.7-1.3,13.3,0,19.5,4.9c-3.6-5.9-8.4-9.5-15.4-9.2
			C257.7,307.4,255.4,312.5,249.5,313z"/>
	</g>
	<g>
		<path fill-rule="evenodd" clip-rule="evenodd" fill="#FFFFFF" d="M262.2,328.8c1.6,9.8,14.7,16.2,23,10.9
			c-6.8-3.2-9.1-9.5-16.6-10.1c1.2,4,3.6,5.6,6.5,8.7C269.2,336.4,268.4,329.2,262.2,328.8z"/>
	</g>
	<g>
		<path fill-rule="evenodd" clip-rule="evenodd" fill="#FFFFFF" d="M287.2,294.5c1.7,4.6,5.1,14.2,12.8,12.7
			c5.8-1.1,8.3-7.4,4.1-13.6c-4.3,2.7-5.8,8.4-10.8,7.5c1.7,1.9,4.4,2.3,6.7,1.4C295.2,306.9,290.5,300.1,287.2,294.5z"/>
	</g>
	<g>
		<path fill-rule="evenodd" clip-rule="evenodd" fill="#FFFFFF" d="M318,321.5c0.5-7-5.1-10.4-4.6-17.5c0.6-8,7.2-12.6,15.2-14
			c-6.2,7.8,7.4,20-5.5,29.2c-1.5-6.2-3.3-10-1.7-16.3C317,308.7,322.3,315.5,318,321.5z"/>
	</g>
	<g>
		<path fill-rule="evenodd" clip-rule="evenodd" fill="#FFFFFF" d="M343.4,263.8c-0.8-9.8,6.8-6.9,11.3-7.9
			C354.7,261.2,348,261.1,343.4,263.8z"/>
	</g>
	<g>
		<path fill-rule="evenodd" clip-rule="evenodd" fill="#FFFFFF" d="M322.6,275.2c2.3-4.6,8.3-7.6,12.5-4.6c3.9,2.8,2.4,8.6-0.6,12.4
			C333.6,277.6,325.6,270.5,322.6,275.2z"/>
	</g>
	<g>
		<path fill-rule="evenodd" clip-rule="evenodd" fill="#FFFFFF" d="M340.2,279.7c1.1-6.9,12.5-2.9,15.2-9.4c1,3.6,0.9,7.6-2.4,9.4
			C348.8,282.2,345,278.1,340.2,279.7z"/>
	</g>
	<g>
		<path fill-rule="evenodd" clip-rule="evenodd" fill="#FFFFFF" d="M248.2,328.5c0,3.1,1.7,6.4,4.9,6.5
			C251.9,332.1,250.2,330.8,248.2,328.5z"/>
	</g>
</g>
</svg>
