<?xml version="1.0" encoding="utf-8"?>
<!-- Generator: Adobe Illustrator 18.1.1, SVG Export Plug-In . SVG Version: 6.00 Build 0)  -->
<!DOCTYPE svg PUBLIC "-//W3C//DTD SVG 1.1//EN" "http://www.w3.org/Graphics/SVG/1.1/DTD/svg11.dtd">
<svg version="1.1" id="Layer_1" xmlns="http://www.w3.org/2000/svg" xmlns:xlink="http://www.w3.org/1999/xlink" x="0px" y="0px"
	 viewBox="0 0 295.5 44.2" enable-background="new 0 0 295.5 44.2" xml:space="preserve">
<g>
	<path fill="#FFFFFF" d="M20.4,11.9c-3.1,2.7-6.3,4.6-9.6,5.9c-0.4,2.7-0.2,4.2,0.1,5.3c0.3-0.6,1-1.8,1.3-2.4
		c1.1-1.6,2-2.2,2.9-2.1c0.5,0,2,2.2,2.8,3.1c1.8,1.9,4.8,2.7,8.1,2.6c2.4-0.1,3.8-0.2,3.3,0.4c-0.9,1-2.7,1.5-6.9,1.5
		c-3,0-5.8-1-8.8-3.1c-0.3,0.2-1.1,0.7-2.1,2.1c-0.8,1.2-1.5,3.2-2.5,2.8c-1.4-0.5-2.2-2.5-2.2-5.6c0-1.1,0-2.2,0.1-3.2
		C5.3,19.8,3.7,20,2.5,20C0.8,20,0,19.6,0,19.2s1.7-1.3,2.2-1.3l2.2,0.3c0.5,0.1,1.4,0,2.5-0.4c0.2-2.9,0.6-5.3,0.9-6.6
		c0.9-4.5,1.8-7.1,2.7-8.3C11.7,1.5,13.7,0,15.2,0c1.6,0,3.3,0.7,5.2,2.4c1.6,1.4,2.5,3.5,2.5,4.9C22.8,8.7,22.1,10.3,20.4,11.9z
		 M18.7,11.2c1.2-1.2,1.2-2.2,1.2-2.9C20,4.8,17.8,2,14.4,2.1c-1.4,0.8-2.6,5.3-3.5,14.1C15,14.4,17.6,12.4,18.7,11.2z"/>
	<path fill="#FFFFFF" d="M41,20c0,1.2-2.2,2.3-6.5,3.5c-0.8,0.2-1.9,0.8-2.5,1c0.4,0.8,1.6,1,4.6,0.9c2.8,0,5.8-0.4,8.9-1.7
		c0.3-0.1,0.7-0.1,0.7,0.3c0,0.4-0.4,0.8-1.2,1.2c-0.5,0.2-1.1,0.5-2.1,0.8c-2.3,0.7-6.6,1.5-9.2,1.5c-1.6,0-6.3,0-6.3-2.9
		c0-3.8,6.7-6.8,9.4-6.8C37.9,17.9,41,19.1,41,20z M34.9,19.8c-1.1,0-2.4,0.7-3.3,2.2c-0.2,0.3-0.3,0.6-0.2,0.9
		c4.2-0.7,5.9-1.5,5.9-2.2C37.4,20.1,36.5,19.8,34.9,19.8z"/>
	<path fill="#FFFFFF" d="M57.6,20.3c-1.2,0-1.5-0.3-3.6-0.3c-1.6,0-2.8,0.7-4.2,2.3c-0.2,0.3-0.3,0.6-0.3,0.8c0,0.6,0.4,0.9,1.3,0.9
		c1,0,2.7-0.3,6.2-1.6c1-0.4,1.5-0.6,2.4,0.1c0.3,0.3,0.7,0.7,1.2,1.2c0.4,0.4,1.3,0.6,2.2,0.6c0.9,0,2.5-0.1,5-0.8
		c0.4-0.1,0.1,0.8-0.5,1.1c-3.1,1.3-5.2,1.7-6.8,1.7c-2.2,0-3.5-0.4-4.7-2.1c-4.7,1.9-7.3,2.3-8.3,2.3c-1.5,0-2.2-0.8-2.2-2.3
		c0-1.2,2.3-3.4,5.8-5c0.8-0.3,3.5-1.4,5.3-1.4c1.3,0,3.2,0.7,3.2,1.5C59.6,19.8,58.1,20.3,57.6,20.3z"/>
	<path fill="#FFFFFF" d="M70.6,3.2c-0.9,4.1-1.4,7-1.4,10.9c0,4.1,0.4,7,1.6,9c0.9,1.6,3.1,2.8,4.7,2.8c1.6,0,2.2-0.3,4-0.9
		c0.9-0.3,0.2,0.9-0.4,1.2c-0.9,0.5-4.1,1.4-6.5,1.4c-2.7,0-5.3-2.3-6.1-5.7c-0.6-2.6-0.8-5.4-0.8-7.3c0-2.4,0.2-6.8,0.6-8.9
		c0.4-2,1.3-2.9,2.2-3.4c0.7-0.3,1.1-0.5,1.6-0.4C70.5,2.1,70.7,2.6,70.6,3.2z"/>
	<path fill="#FFFFFF" d="M81.9,15c0,0.9-1,1.6-1.9,1.6c-1.1,0-3-0.7-3-1.3c0-0.7,2-1.9,3.3-1.9C81.1,13.4,81.9,14,81.9,15z
		 M81.6,20.6v2.1c0,1.4,2.3,2.2,3.3,2.2c1.4,0,5.3-0.9,7.6-1.8c1.2-0.4,0.4,0.9-0.4,1.2c-1,0.5-6.5,2.5-9.3,2.5
		c-2.4,0-5.1-2-5.1-4.2c0-1.5,1.2-2.8,3.1-3.3C81.5,19.3,81.6,20,81.6,20.6z"/>
	<path fill="#FFFFFF" d="M93.3,22.8c0,1.1,0.6,1.5,1.1,1.8c0.7-0.1,1.3-0.6,2.9-1.6c1.3-0.7,2.5-1,3.4-1c1,0,2.4,0.9,4.9,2.6
		c2.5,1.7,8.6,0.6,10.4,0.3c0.6-0.1,0.1,0.7-0.3,0.9c-1.6,0.7-5.3,1.3-7.1,1.3c-2,0-3.8-0.3-5.3-0.9c-2.3-0.8-3.2-2.1-4.4-2
		c-1.9,0.3-3.8,1.9-6.1,2.5c-1.7,0-2.9-0.8-3.3-2.6c-0.2-0.7-0.2-1.5-0.2-2.2c0-1.1,0.4-1.7,1.2-2.1c0.3-0.2,0.9-0.3,1.7-0.5
		C93,19.3,93.2,21,93.3,22.8z"/>
	<path fill="#FFFFFF" d="M126.9,32.1c0.1,1.2,0,2.5-0.1,3.8c-0.5,4.8-3,7.6-7.8,8.4c-2.1,0-8.1-0.1-12.5-2.8
		c-3.8-2.3-4.5-5.1-4.3-6.5c0.2-1.6,2.6-2.6,5.3-3.3c4.5-1.2,10.1-1.6,15.3-1.7c-0.3-1.6-0.7-3.2-1.2-4.7c-3.8,0.9-5.9,1.2-7,1.2
		c-1.3,0-2.2-0.6-2.2-1.9c0-1.4,2.3-3.3,6.8-5.3c0.9-0.4,2.3-0.6,2.8-0.6c1.4,0,2.5,0.8,3.2,2.4c0.1,0.3,0,0.9-0.3,1.1
		c1.1,0.1,1.6,0.4,1.5,0.8c-0.2,0.4-0.5,1.1-0.6,1.8c0.3,1.7,0.6,3.4,0.8,5h5.4c0.5,0,1.9,0.1,1.6,0.5
		C132.9,31.7,130.9,32.2,126.9,32.1z M105.6,34.5c0,0.4,0.6,2.8,6.8,6c3,1.5,7.5,1.6,9.1,1.2c0.8-0.2,1.3-1.6,1.7-4.3
		c0.2-1.6,0.2-3.4,0-5.2c-4.4,0-11.7,0-16,1.3C106.6,33.6,105.6,34,105.6,34.5z M116.5,22.7c-0.6,1.3,0.4,1.6,1.6,1.6
		c1.6,0.1,3.5-0.3,5.4-1.1c-1.1-1.9-2-2.3-3.6-2.3C118.8,20.8,116.8,21.9,116.5,22.7z"/>
	<path fill="#FFFFFF" d="M147,18c3.4,0.2,8.5-0.2,10.5-0.1c0.6,0.1,0.2,0.8-0.9,1.1c-0.9,0.3-7.4,0.6-9.8,0.9c0,3.9,2.6,5.9,6.1,6
		c1.8,0.1,4.7-0.3,8-1.2c0.6-0.2,0.2,0.9-0.4,1.2c-2,1-6.3,1.7-9.3,1.6c-4.7-0.1-7.8-2.4-8.1-7.8c-0.7-0.2-1.2-0.6-1.5-1
		c0.2-0.5,0.9-1.2,1.9-1.1c0.7-2.1,1.8-3.1,3.4-3.1c0.5,0,0.9,0.4,0.8,0.7C147.2,16,147,17.4,147,18z"/>
	<path fill="#FFFFFF" d="M172.7,11.9c-3.1,2.7-6.3,4.6-9.6,5.9c-0.4,2.7-0.2,4.2,0.1,5.3c0.3-0.6,1-1.8,1.3-2.4
		c1.1-1.6,2-2.2,2.9-2.1c0.5,0,2,2.2,2.8,3.1c1.8,1.9,4.8,2.7,8.1,2.6c2.4-0.1,3.8-0.2,3.3,0.4c-0.9,1-2.7,1.5-6.9,1.5
		c-3,0-5.8-1-8.8-3.1c-0.3,0.2-1.1,0.7-2.1,2.1c-0.8,1.2-1.5,3.2-2.5,2.8c-1.4-0.5-2.2-2.5-2.2-5.6c0-5.1,0.6-9.3,1-11.2
		c0.9-4.5,1.8-7.1,2.7-8.3C164,1.5,166,0,167.4,0c1.6,0,3.3,0.7,5.2,2.4c1.6,1.4,2.5,3.5,2.5,4.9C175.1,8.7,174.3,10.3,172.7,11.9z
		 M171,11.2c1.2-1.2,1.2-2.2,1.2-2.9c0.1-3.5-2.1-6.3-5.5-6.2c-1.4,0.8-2.6,5.3-3.5,14.1C167.3,14.4,169.8,12.4,171,11.2z"/>
	<path fill="#FFFFFF" d="M193.3,20c0,1.2-2.2,2.3-6.5,3.5c-0.8,0.2-1.9,0.8-2.5,1c0.4,0.8,1.6,1,4.6,0.9c2.8,0,5.8-0.4,8.9-1.7
		c0.3-0.1,0.7-0.1,0.7,0.3c0,0.4-0.4,0.8-1.2,1.2c-0.5,0.2-1.1,0.5-2.1,0.8c-2.3,0.7-6.6,1.5-9.2,1.5c-1.6,0-6.3,0-6.3-2.9
		c0-3.8,6.7-6.8,9.4-6.8C190.2,17.9,193.3,19.1,193.3,20z M187.2,19.8c-1.1,0-2.4,0.7-3.3,2.2c-0.2,0.3-0.3,0.6-0.2,0.9
		c4.2-0.7,5.9-1.5,5.9-2.2C189.7,20.1,188.8,19.8,187.2,19.8z"/>
	<path fill="#FFFFFF" d="M216.6,3.2c-0.9,4.1-1.4,7-1.4,10.9c0,4.1,0.4,7,1.6,9c0.9,1.6,3.1,2.8,4.7,2.8c1.6,0,2.2-0.3,4-0.9
		c0.9-0.3,0.2,0.9-0.4,1.2c-0.9,0.5-4.1,1.4-6.5,1.4c-2.7,0-5.3-2.3-6.1-5.7c-0.6-2.6-0.8-5.4-0.8-7.3c0-2.4,0.2-6.8,0.6-8.9
		c0.4-2,1.3-2.9,2.2-3.4c0.7-0.3,1.1-0.5,1.6-0.4C216.6,2.1,216.8,2.6,216.6,3.2z"/>
	<path fill="#FFFFFF" d="M236.4,20.3c-1.2,0-1.5-0.3-3.6-0.3c-1.6,0-2.8,0.7-4.2,2.3c-0.2,0.3-0.3,0.6-0.3,0.8
		c0,0.6,0.4,0.9,1.3,0.9c1,0,2.7-0.3,6.2-1.6c1-0.4,1.5-0.6,2.4,0.1c0.3,0.3,0.7,0.7,1.2,1.2c0.4,0.4,1.3,0.6,2.2,0.6
		c0.9,0,2.5-0.1,5-0.8c0.4-0.1,0.1,0.8-0.5,1.1c-3.1,1.3-5.2,1.7-6.8,1.7c-2.2,0-3.5-0.4-4.7-2.1c-4.7,1.9-7.3,2.3-8.3,2.3
		c-1.5,0-2.2-0.8-2.2-2.3c0-1.2,2.3-3.4,5.8-5c0.8-0.3,3.5-1.4,5.3-1.4c1.3,0,3.2,0.7,3.2,1.5C238.3,19.8,236.8,20.3,236.4,20.3z"/>
	<path fill="#FFFFFF" d="M248.6,22.8c0,1.1,0.6,1.5,1.1,1.8c0.7-0.1,1.3-0.6,2.9-1.6c1.3-0.7,2.5-1,3.4-1c1,0,2.4,0.9,4.9,2.6
		c2.5,1.7,8.6,0.6,10.4,0.3c0.6-0.1,0.1,0.7-0.3,0.9c-1.6,0.7-5.3,1.3-7.1,1.3c-2,0-3.8-0.3-5.3-0.9c-2.3-0.8-3.2-2.1-4.4-2
		c-1.9,0.3-3.8,1.9-6.1,2.5c-1.7,0-2.9-0.8-3.3-2.6c-0.2-0.7-0.2-1.5-0.2-2.2c0-1.1,0.4-1.7,1.2-2.1c0.3-0.2,0.9-0.3,1.7-0.5
		C248.3,19.3,248.6,21,248.6,22.8z"/>
	<path fill="#FFFFFF" d="M274.6,18.8c0.6-0.1,1.1-0.2,1.4-0.2c-0.1-1.6-0.1-3.2-0.1-4.7c0-7.4,1.8-11.1,5.3-11.1l1.8-0.6
		c2.4,0,5.4,1.9,7.6,4.1c1.8,1.8,5.1,5.9,5.1,9.2c0,4.7-5.8,7.2-9.3,8.1c-1.5,0.4-3.4,0.9-5.3,1.3c0.3,1.1,0.8,2.7,1.6,5
		c0.3,0.8,0.1,3.2-0.8,3.2c-1.1,0-2-1.7-3.4-5c-0.3-0.7-0.6-1.6-0.9-2.4c-2.3,0.4-4.6,0.8-6.3,0.8c-2.1,0-4.5-1.3-4.5-3
		C266.7,21.3,269.3,19.8,274.6,18.8z M274.7,20.6c-2.8-0.1-4.2,0.6-4.2,1.8c0,2.2,2.3,2.2,4.1,2.2c0.8,0,1.6-0.1,2.6-0.2
		c-0.4-1.4-0.7-2.7-1-3.7L274.7,20.6z M281.4,20.9c-0.4,0.7-0.8,1.2-1,1.6c0.1,0.4,0.1,0.8,0.2,1.3c3.9-0.9,7.7-2.2,9.1-3.1
		c1.9-1.3,2.7-2.8,2.7-4.8c0-2.8-1.8-6-5.5-9.5c-1.6-1.5-3.4-2.3-5.3-2.3c-0.6,0-1.3,1.2-1.9,3.8c-0.2,1-0.5,2.9-0.5,5.9
		c0,2.6,0.2,4.6,0.6,5.4C280.6,19.3,281.4,20,281.4,20.9z"/>
</g>
</svg>
