<?xml version="1.0" encoding="utf-8"?>
<!-- Generator: Adobe Illustrator 18.1.1, SVG Export Plug-In . SVG Version: 6.00 Build 0)  -->
<svg version="1.1" xmlns="http://www.w3.org/2000/svg" xmlns:xlink="http://www.w3.org/1999/xlink" x="0px" y="0px"
	 viewBox="0 0 638.9 88.5" enable-background="new 0 0 638.9 88.5" xml:space="preserve">
<g id="full">
	<g opacity="0.2">
		<path fill="#FFFFFF" d="M105.9,69.7c7.9,0.4,13.2-6.1,15.6-13.6c1.4-4.5,3.4-13.4-2.1-15.7c-4.9-2-9.3,7.2,0.1,7.5
			c1.1,4.9-2.4,15.7-9,16.6c-9.3,1.1-6.5-32.7,11.1-25.7c-0.6-1.4-1.4-2.6-2.2-3.6c-3-3.2-7.6-3-11.8-0.9
			c-10.1,5.1-12.4,21.4-8.5,30c-13.8,5.9-16-5.6-10.9-27c0.2-0.8-4-2.4-5.8-2.4C78.9,35.1,72,53.4,69.4,61
			c0.6-7.5,3.4-22.3,6.5-31.7c29.3-6.5,5.5-35.3-6.2-8.1c-0.9,2.1-1.7,4.4-2.4,6.9C56.6,29,36.8,18.2,20.8,17.5
			C12.5,17.2,2.4,22.2,0,30.7c22.3-14.2,45-1.5,66.6-0.6c-3.4,11.7-5.7,26.7-2.7,37.2c0.6,2.2,5.1,3.1,6.1,1.9
			c3.4-10.2,5.5-17.6,8.3-22.1C78.2,48.4,76,78,99.9,66C101.4,68.2,103.4,69.6,105.9,69.7z M86.7,17c1.7,2.2-0.3,8.4-10.1,10.3
			C80.8,16.5,85.2,15,86.7,17z"/>
		<path fill="#FFFFFF" d="M157.1,35.2c0.9-3.1,2.3-7.5,3.1-10.6c0.2-0.9-0.8-3.4-7.3-5.5C153,19.1,146.7,32.4,157.1,35.2z"/>
		<path fill="#FFFFFF" d="M179.3,38.7c-0.8-3.4-4.5-5.1-7.7-5.5c-8.7-1.2-8.5,12.4-7.7,19c0.5,4.1,1.5,9.2,2.2,13.6
			c-13,5-15-6.5-10.1-27.4c0.2-0.9-1.3-2.1-7.8-4.1c-4,13-3.7,24.3,0.5,30.5c-13.3,6.5-16.9-1.8-13.9-19.1
			c1.4-8.1,4.5-17.7,6.3-24.9c0.2-0.9-0.8-3.4-7.3-5.5c-2.5,6.4-6.4,19.9-7.7,29c-2.7,19.4,5.5,31.7,23.6,21.8
			c3.5,3.8,9,4.8,16.5,1.6c0.7,6.3,0.2,10.9-4.5,9.5c-18-5.5-39-6.7-57-1.2c-3.5,1.1-5.7,5.1-6.6,11c19-13.5,44.4-14.6,65.1-7.2
			c9.7,3.4,12.5-5.1,10.8-19.7C174,59.8,181.1,47.3,179.3,38.7z M173.5,57.1c-1.7-11.6,0.9-17.6,2.5-17.7
			C177.7,39.2,178.6,45,173.5,57.1z"/>
		<path fill="#FFFFFF" d="M214.2,35.2c0.9-3.1,2.3-7.5,3.1-10.6c0.2-0.9-0.8-3.4-7.3-5.5C210,19.1,203.7,32.4,214.2,35.2z"/>
		<path fill="#FFFFFF" d="M245.6,62.7c-22.8,15.1-17.7-24.4-4.5-21.5l4.2-6.8c-3.8-2.2-8.8-2.2-12.9,0.4c-10,6.3-12.9,22.5-7.8,30.4
			c-14.3,6.4-16.7-5.1-11.6-26.8c0.2-0.9-1.3-2.1-7.8-4.1c-4,13-3.7,24.3,0.5,30.5c-12.9,6.2-16.6-1.3-14.2-17.4
			c0.6-3.7,1.4-7.1,2.3-10.5c2.9,0.3,6,0.3,8.8-0.3l-0.1-3.2c-2.4,0.5-5.2,0.6-7.9,0.6c0.6-2.4,1.3-4.7,1.9-7.2
			c0.3-0.9-0.7-3.4-7.3-5.5c-1.1,3-2.4,7.3-3.7,11.9c-2.4-0.4-4.1-0.7-4.1-0.7l0.1,1.9c0,0,1.4,0.4,3.5,1c-0.9,3.4-1.7,7-2,10.3
			c-2.2,18.7,6.1,30.2,23.8,20.5c3.9,4.2,10.2,4.9,18.9,0.4c3.8,4.2,10.6,4.8,20.8-2.5c0.2-0.1,4.7-3.4,4.9-3.6l-0.8-1.5
			C250.4,59.3,245.8,62.6,245.6,62.7z"/>
		<path fill="#FFFFFF" d="M448.4,71.4c2.7-12.5,4-32.2,4.2-35.2c0.1-0.9-4-1.9-8.5-2.9c-0.1,0.6-0.1,1.4-0.1,2.2
			c-2.6-3-6.5-3.1-10.2-1.1c-9.3,4.8-12,21.6-8.5,30.2c-13.4,5.5-15.5-6-10.5-27.1c0.2-0.9-1.4-2.2-7.8-4.2c-0.3,1-0.6,1.9-0.9,2.9
			c-0.1-0.1-0.1-0.2-0.2-0.4c-2.5-3.3-6.6-3.4-10.4-1.4c-9.3,4.8-12,21.5-8.6,30.1c-13.4,5.4-15.5-6-10.5-27.1
			c0.1-0.8-4-2.4-5.9-2.4c-3.4,0.1-10.3,18.5-12.9,26c0.6-8.3,3.2-19.6,4.7-23.2c0.3-0.9-1.4-2.1-7.8-4.2
			c-2.9,9.4-4.1,23.5-2.9,31.3c-12.5,4.5-14.4-6.9-9.5-27.5c0.2-0.9-1.4-2.2-7.8-4.2c-0.3,1-0.6,1.9-0.9,2.9
			c-0.1-0.1-0.1-0.2-0.2-0.4c-2.5-3.3-6.6-3.4-10.4-1.4c-9.3,4.8-12,21.5-8.6,30.1c-13.4,5.4-15.5-6.1-10.5-27.2
			c0.1-0.7-4-2.4-5.8-2.3c-2.9,0.1-8.4,13.4-11.6,22c-0.4-4.9,0.5-11.6,2.4-19.8c0.1-0.7-4-2.4-5.9-2.3c-3.4,0.1-10.3,18.5-12.9,26
			c0.6-8.3,3.2-19.6,4.7-23.2c0.3-0.9-1.4-2.1-7.9-4.2c-3.2,10.4-4.3,26.6-2.3,33.7c0.6,2.2,4.7,3.2,6,1.9
			c3.4-10.3,5.5-17.6,8.3-22.1c0,0.8-0.9,12.7,4.3,18.5c2.6,2.8,3.2,0.2,4.2-2.6c2.2-6,2.9-10.3,6.4-15.9c0,0.7-0.9,12,3.9,18
			c0.4,0.6,0.9,1.1,1.4,1.6c3.2,2.6,8.1,3.3,15.9-0.5c1.2,2,2.8,3.3,4.8,3.5c5.9,0.6,10.3-3.7,13.1-9.6c2.7,7.6,9.2,10.9,19.1,6.8
			c0,0.1,0.1,0.3,0.1,0.4c0.6,2.2,5.6,3.2,6,1.9c3.4-10.2,5.5-17.6,8.3-22.1c0,1.2-2.3,30.5,21.2,19.1c1.2,2,2.8,3.3,4.8,3.5
			c5.9,0.6,10.3-3.7,13.1-9.6c2.9,8,9.8,11.2,20.5,6.2c1.2,1.9,2.7,3.2,4.7,3.4c4.3,0.5,7.9-1.7,10.6-5.2c-0.5,3.1-1.1,6-1.7,8.4
			c-25.1,6.2,0.4,31.5,8.2,0.6c14.5-1.6,31.7,7.4,50.2,10.2c9.8,1.6,26.1,4.1,34.6-12.5C500.5,86.2,477.4,68.7,448.4,71.4z
			 M323.5,61.8c-4-1.9-1.7-20.2,4.9-22.8C335.1,36.3,331.6,65.8,323.5,61.8z M396.1,61.8c-4-1.9-1.7-20.2,4.9-22.8
			C407.7,36.3,404.2,65.8,396.1,61.8z M431.9,83.5c-1.3-1.5-0.1-6,7.3-8.3C436.5,83.6,433.1,84.9,431.9,83.5z M434.5,61.8
			c-3.9-1.9-1.7-20.2,4.9-22.8C446.7,36.1,442.5,65.8,434.5,61.8z"/>
		<path fill="#FFFFFF" d="M603.2,36.6c19.3,1.2,35.2-14.9,35.6-25.5c0.4-11.3-15.5-11.7-14-10.7c14.4,9.7,0.8,35.9-20.9,33.7
			c0.6-2.4,1.3-4.7,1.9-7.2c0.3-0.9-0.7-3.4-7.3-5.5c-1.1,3-2.4,7.3-3.7,11.9c-2.4-0.4-4.1-0.7-4.1-0.7l0.1,1.9c0,0,1.4,0.4,3.5,1
			c-0.9,3.4-1.7,7-2,10.3c-0.9,7.5-0.1,13.9,2.4,18.2c-14.5,6.7-16.9-4.8-11.7-26.6c0.1-0.8-4-2.4-5.9-2.4
			c-3.4,0.1-10.3,18.5-12.9,26c0.6-8.3,3.2-19.6,4.7-23.2c0.3-0.9-1.4-2.1-7.8-4.2c-2.4,7.7-3.7,18.7-3.3,26.7
			c-1.4,1-3.6,2.6-3.7,2.7c-9.3,6.2-14.4,5.6-14.4-5.2c24.3-18,14.1-29.2,2.4-23.7c-10.6,4.9-13.8,21.4-9.1,30.2
			c-14,6.1-16.2-5.5-11.1-27c0.1-0.7-4-2.4-5.8-2.3c-2.9,0.1-8.4,13.4-11.6,22c-0.4-4.9,0.5-11.6,2.4-19.8c0.1-0.7-4-2.4-5.9-2.3
			c-3.4,0.1-10.3,18.5-12.9,26c0.6-8.3,3.2-19.6,4.7-23.2c0.3-0.9-1.4-2.1-7.9-4.2c-2.4,7.7-3.6,18.7-3.2,26.7
			c-1.4,1-3.6,2.6-3.7,2.7c-9.3,6.2-14.4,5.6-14.4-5.2c24.3-18,14.1-29.2,2.4-23.7c-18,8.3-14.8,50.3,12.9,30.5
			c0.1-0.1,1.6-1.2,2.9-2.1c0.2,1.9,0.4,3.6,0.8,5c0.6,2.2,4.7,3.2,6,1.9c3.4-10.3,5.5-17.6,8.3-22.1c0,0.8-0.9,12.7,4.3,18.5
			c2.6,2.8,3.2,0.2,4.2-2.6c2.2-6,2.9-10.3,6.4-15.9c0,0.7-0.9,12,3.9,18c0.4,0.6,0.9,1.1,1.4,1.6c3.3,2.7,8.5,3.3,16.7-0.9
			c3.7,4.9,10.6,6.1,21-1.3c0.1-0.1,1.6-1.2,2.9-2.1c0.2,1.9,0.4,3.6,0.8,5c0.6,2.2,5.6,3.2,6,1.9c3.4-10.2,5.5-17.6,8.3-22.1
			c0,1.3-2.4,31.7,22.6,18.4c4.1,5.3,11.3,6.1,21.7,0l-0.6-1.6c-14.3,7.8-18.5,0.3-15.9-16.5C601.4,43.7,602.3,39.9,603.2,36.6z
			 M550,39.8c1.9,0.4,0.5,5.1-10.1,14.9C541,44.8,547.7,39.3,550,39.8z M474,39.8c1.9,0.4,0.5,5.1-10.1,14.9
			C464.9,44.8,471.7,39.3,474,39.8z"/>
	</g>
</g>
<g id="partial">
	<path opacity="0.7" fill="#FFFFFF" d="M319,69.5c0.2,0.1,0.5,0.1,0.7,0.1C319.5,69.5,319.2,69.4,319,69.5z M305.2,66.1
		c0,0.5,0.1,1.3-0.1,1.5c-0.5,0.5-0.4,0.7-0.2,1.2c0.4,0,0.9,0,1.4,0c0.3-1.6,1.1-1.6,3.4-1.1c0.4,0.1,0.7,0.2,1.1,0.2
		c0.1,0,0.1,0,0.2-0.1c-0.9-0.5-1.9-1-2.8-1.3C307.1,66.3,306.1,66.3,305.2,66.1z M273.9,50.7c1,0.3,1.7,1,2.2,2.2
		c0.4-1.1,0.9-2.1,1.3-3.1l-2.9-0.8C274.4,49.6,274.2,50.2,273.9,50.7z M338.4,66.9c0,0.1,0,0.2,0.1,0.3c2,1.1,4.3,1.6,7,1.4
		c-0.8-0.2-1.6-0.4-2.4-0.6C341.6,67.7,340.2,67.3,338.4,66.9z M328.6,59.7l-0.1,0.6l1,0.1c0-0.1,0.1-0.4,0-0.4
		C329.2,59.8,328.9,59.7,328.6,59.7C328.6,59.6,328.6,59.6,328.6,59.7z M285.3,62.7c-1.5-0.4-2.7-0.8-4-1.1c-0.2,0-0.3-0.1-0.5-0.1
		c0.6,1.6,1.4,3,2.5,4.2c1.6,1.7,2.4,1.4,3.1,0.3c-0.4,0.1-0.8,0.2-1.2,0.3C284.9,65.1,283.9,64.2,285.3,62.7z M280.9,58.7
		c-0.4-0.2-0.8-0.4-1.2-0.7c0.1,0.6,0.3,1.3,0.5,1.9c0.2-0.2,0.4-0.4,0.6-0.6C280.9,59.1,280.9,58.9,280.9,58.7z M356.1,34.8
		c-0.1-0.3-0.3-0.6-0.5-0.8c-0.4-0.1-0.7-0.2-1.1-0.4c-0.1,0.4-0.3,0.9-0.4,1.4c0.4,0.3,0.8,0.7,1.2,1
		C355.6,35.6,356.2,35,356.1,34.8z M355.2,42.6c0.7,0.6,1.2,0.6,2,0.2c0.7-0.3,1.6-0.5,1.4-1.4c-0.1-0.7-0.8-1.3-1.2-1.9
		c-0.2-0.2-0.5-0.2-0.8-0.3c-1.1-0.2-2.3-0.5-3.4-0.8c-0.2,1-0.5,2.1-0.6,3.2c0.1,0,0.2,0.1,0.3,0.1C353.6,42,354.6,42,355.2,42.6z
		 M356.4,44.4c-0.2,0.7-0.3,1.2-0.5,1.8C357.3,45.5,357.3,45.5,356.4,44.4z M394.9,68.6c-0.7-0.3-1.4-0.5-2.1-0.4
		c-1.1,0.1-1.9-0.3-2.4-1.5c-0.8,0.3-1.4,0.5-2.1,0.4c1.1,1.5,2.5,2.4,4.2,2.6c1.1,0.1,2.1,0.1,3.1-0.1
		C395.6,69.1,395.3,68.7,394.9,68.6z M372.7,35.6c-0.6-0.3-1.3-0.5-1.9-0.7c-0.1,0-0.2,0-0.3,0c-0.5,0-1.1,0.4-1.7,1.2c0,0,0,0,0,0
		c0,0-0.1,0.1-0.1,0.1c-0.3,0.4-0.7,0.8-1,1.4c1.2,0.3,2.1,0.5,2.9,0.6C371.3,37.3,371.9,36.6,372.7,35.6z M379.8,65.7
		c0.1,0.1,0.3,0.4,0.2,0.4c-0.2,0.2-0.4,0.3-0.6,0.6c-0.2-0.3-0.2-0.5-0.3-0.7c0.2-0.1,0.4-0.3,0.6-0.3c-1.3-0.2-2.4-0.8-3.3-1.8
		c-1-0.2-2-0.4-3-0.6c-1.6-0.3-3.1-0.5-4.7-0.8c2.5,5.3,7.7,8.8,18.3,3.9c-0.8-0.7-2-0.8-3.2-1C382.4,65.8,381,65.9,379.8,65.7z
		 M374.5,39c0.1-1.1,1.1-2.2,0-3c-0.1,0-0.2-0.1-0.3-0.1c-0.5-0.1-1.2,0.7-1.4,1.7C372.6,39,373.4,39.1,374.5,39z M281.7,47.9
		c0.2,0,0.3,0.6,0.4,0.9l-0.4,0.5c-0.9-0.4-1.9-0.6-2.8-0.9c0,0.2,0,0.4,0,0.6c0.8,0.2,1.5,0.5,2.2,0.9c1,0.7,2.6,0.4,3.9,0.8
		c0.5,0.1,1.1,0.2,1.6,0.5c0.2-2.5,0.6-5.4,1.2-8.5c-0.3-0.1-0.5-0.3-0.7-0.5c-1-1.4-0.9-1.4-2.3-0.6c-0.4,0.2-0.8,0.4-1.4,0.7
		c0.1-2.1-1.2-2.5-2.5-2.8c-0.5-0.1-1.1-0.3-1.6-0.4c-1.4,2.4-2.8,5.5-4.2,8.8c0.4,0.1,0.8,0.2,1.3,0.4c0.6,0.2,1.1,0.3,1.7,0.5
		c0.1-0.2,0.2-0.4,0.3-0.6c-0.6-0.3-1.2-0.6-1.8-1.2C278.5,46.4,280,47.6,281.7,47.9z M283.4,48.6c0.7-0.4,1.1-0.1,1.4,0.6
		c-0.6,0.7-1.1,0.7-1.5,0C283.2,49.1,283.3,48.7,283.4,48.6z M353.9,46.3c0.3-1,0.4-1.5,0.6-2.1l-0.6-0.1
		C353.3,44.6,353.2,45.1,353.9,46.3z M280.8,55.5c-0.5,0.2-1,0.2-1.5,0.5c0,0.3,0.1,0.6,0.1,0.9c0.6-0.3,1-0.6,1.5-0.9L280.8,55.5z
		 M301.8,59.5c-0.1-0.6-0.2-1.2-0.3-1.9c-1.8-0.5-3.6-0.9-5.4-1.5c-0.7-0.2-1.3-0.6-1.9-0.9c0.1,0.9,0.3,1.8,0.5,2.7
		c0-0.3,0.1-0.6,0.3-1.1c0.5,0.7,0.9,1.2,1.2,1.7c-0.7,0.1-1.2,0.1-1.4,0c0.1,0.5,0.2,0.9,0.4,1.3c0.6,0,1.2-0.2,1.8-0.2
		C298.6,59.4,300.2,59.1,301.8,59.5z M286.6,56.7c0,0.1-0.1,0.2-0.1,0.4c0-0.1,0-0.3,0-0.4c-0.5-0.2-1-0.4-1.5-0.6
		c-1-0.4-1.9-0.6-2.9,0.4c0.8,0.5,1.5,1,2.3,1.3c0.5,0.2,1.1,0.2,1.7,0.2c0.3,0,0.9-0.3,1-0.1c0.6,0.8,1.3,0.9,2,1
		c0.2-0.6,0.4-1.2,0.6-1.8c-0.2,0-0.4,0-0.7,0.1C288.1,57.2,287.3,57,286.6,56.7z M313.4,61.5c0.1,0.3,0.2,0.7,0.2,1
		c0.1,0,0.1,0,0.2,0c0.9-0.1,1.9-0.1,2.7,0.2c1,0.4,1.9,1.2,2.8,1.8c0.6,1,0,3,2.1,3c-0.3-0.9-0.5-1.8-0.8-2.7
		c0.7-0.1,1.1-0.2,1.5-0.2l0.2-0.6C319.4,62.6,316.8,60.9,313.4,61.5z M282.4,59l-0.2,0.6c1,1,2.7,0.5,3.7,1.3
		c0.6,0.5,1.3,0.8,1.9,1.1c0.1-0.4,0.3-0.8,0.4-1.2c-0.7-0.3-1.5-0.7-2.2-0.9C284.9,59.4,283.7,59.3,282.4,59z M281.3,53.6
		c1.5-0.6,2.4-0.1,3.4,1.1c0.5-0.1,1.1-0.3,1.7-0.2c0-0.7,0-1.4,0.1-2.1c-1.7-0.2-3.6,0.2-5-1.4c-0.2-0.2-0.6-0.2-0.9-0.3l-1.6-0.4
		c0,1.1,0.1,2.3,0.2,3.7C279.8,54.3,280.6,53.9,281.3,53.6z M296.5,62.9C296.4,62.9,296.4,62.9,296.5,62.9c0.3,0.8,0.8,1.5,1.3,2.2
		c0,0,0.1,0.1,0.1,0.1c0.2,0.1,0.4,0.1,0.6,0.2c1.4,0.3,3,0.3,4.7,0.5C301.1,63.9,298.2,65,296.5,62.9z M288.9,37.3
		c0.1-0.3-0.5-0.7-1.4-1.1c-0.2,0.1-0.4,0.2-0.7,0.4c0.6,0.4,1.2,0.9,1.9,1.3c-1.3,0.6-4.6-0.3-7.4-1.8c-0.5,0.5-0.9,1.2-1.4,2
		l8.3,2.3C288.4,39.4,288.6,38.4,288.9,37.3z M273.6,36.3c-1.2-0.7-3.2-1.6-6.7-2.7c-0.1,0.2-0.1,0.4-0.2,0.7c0,0,0,0,0,0
		L273.6,36.3z M301.3,55.5c0-0.4,0-0.8,0-1.1c-0.7,0.2-1.3,0-1.7-1.1c0.7-0.3,1.3-0.4,1.8-0.1c0.1-2,0.3-4.2,0.6-6.7
		c-1.2-0.3-2.4-0.5-3.6-0.8c-2.2-0.6-4.3-1.3-6.5-2c-1.6,3.4-3.2,7.4-4.5,10.9c0.9,0.2,1.8,0.5,2.7,0.8c0.1-0.4,0.3-0.9,0.5-1.3
		c-0.7-0.4-1.2-1.1-2.1-1.4c0.9-1.2,1.6-0.7,2.3-0.5l0.4,0.1c0.7-1.7,1.6-3.5,2.7-5.3c0,0.3-0.2,2.9,0.1,6.2l6.1,1.8
		C300.5,55.3,300.9,55.4,301.3,55.5z M294.6,50c1.2-0.4,1.2-0.4,2.5,0.6C295.5,51.2,295.5,51.2,294.6,50z M298.2,53.3
		c-0.7,0.5-1,0.1-1.7-1c0.9,0.1,1.4,0.1,2,0.2C298.4,52.9,298.3,53.2,298.2,53.3z M312.8,55.5c0,0.4,0,0.7,0,1.1
		c1.8,0.5,3.6,0.8,5.6,0.8C316.6,56.6,314.7,56,312.8,55.5z M301.8,67.3c-0.2,0-0.6,0.2-0.7,0.4c0,0,0,0.1,0,0.2
		c0.2,0.1,0.5,0.2,0.8,0.3c0.2-0.1,0.3-0.1,0.5-0.2C302.1,67.6,301.9,67.3,301.8,67.3z M314.2,64.3c0,0.1,0,0.1,0.1,0.2
		c-0.2,0.1-0.3,0.1-0.5,0.2c0.5,0.5,1,0.9,1.6,1.4c0.6-0.2,1.3-0.4,2-0.6c-0.3-0.6-0.6-1-0.8-1.3C315.8,64.2,315.1,64.3,314.2,64.3z
		 M398.3,68.6c-0.2,0-0.4,0.1-0.6,0.3C398,68.8,398.2,68.7,398.3,68.6z M446.4,41.1l-0.6-1.1l-0.5,0.4l0.6,1.1L446.4,41.1z
		 M449.9,44.3c0.5,0,0.9,0,1.4,0C450.6,43.5,450.6,43.5,449.9,44.3z M443.1,44.5c1.8,0.3,3.6,0,5.3-0.1c0.1,0,0.2-0.2,0.3-0.4
		c-0.3-0.7-0.5-1.5-1.1-2.9c-0.2,2.2-1.1,2-2,2c-0.9,0-1.8-0.2-2.7-0.4C443,43.2,443.1,43.8,443.1,44.5z M451.6,48.7
		c-0.5,0-1,0.1-1.6,0.4c-0.8,0.4-1.4,0.5-1.7-0.8c-0.3-1.3-0.9-1.4-1.7-0.4c-0.6,0.7-1.1,1.6-1.7,2.4L445,51
		c0.9-0.1,1.8-0.3,2.7-0.4c0.6,0.3,1.3,0.6,2,0.8c0.5,0.2,1,0.3,1.5,0.5C451.4,50.8,451.5,49.7,451.6,48.7z M442.5,40.8
		c0.1,0.2,0.1,0.3,0.2,0.5c0.4,0.2,0.8,0.4,1.3-0.6c-0.6,0-1.1-0.1-1.5-0.1L442.5,40.8z M444.7,48.1c0-0.4-0.3-0.8-0.5-1.3
		c-0.4,0.4-0.8,0.6-0.8,0.8c0.1,0.4,0.3,0.8,0.6,1C444.1,48.6,444.7,48.2,444.7,48.1z M442.7,50.5c0.2,0.1,0.5,0,0.7,0.1l0.2-0.5
		c-0.2-0.1-0.5-0.2-0.8-0.4C442.8,49.9,442.8,50.2,442.7,50.5z M497,48.2c0,0.7,0,1.8,0,3c1.4,0.4,2.9,0,4.2-1.4
		c0,0,0.2,0.1,0.4,0.2c-0.2,0.4-0.3,0.8-0.5,1.2c0.8,0.5,1.9,0.1,2.1,1.7c-1.3,0-2.4-0.1-3.6-0.1c-0.3,0.6-0.6,1.1-0.9,1.8
		c-0.5-0.8-0.8-1.9-1.5-2.1c0.1,1.3,0.2,2.8,0.5,4.3c0.3,0,0.7,0,1,0c0.2-0.4,0.5-0.8,0.8-1.4c0.2,0.4,0.4,0.5,0.4,0.7
		c0.1,0.8,0.3,1.4,1.2,1.4c0.9,0,1.2-0.6,1.3-1.5c0.1-0.4,0.4-0.7,0.8-1.3c0.2,1.2,0.3,1.9,0.4,2.8c0.5,0,1,0,1.5,0
		c0-0.4,0-0.7,0-0.9c0-0.3,0.1-0.5,0.2-1c0.6,0.6,0.9,1,1.3,1.4c0.2,0.2,0.5,0.4,0.7,0.5c0.1-0.4,0.3-0.8,0.4-1.1
		c-0.4-0.4-0.5-0.9,0-1.3c0.2-0.2,0.4-0.2,0.6-0.2c0.6-1.8,1.3-3.5,2.3-5.3c-0.5,0-1,0.2-1.5,0.3c0.1,0.7,0.2,1.2,0.3,2.1
		c-1.1-0.9-2-1.5-1.1-2.8c-0.2-0.1-0.4-0.3-0.6-0.4c-0.7,1.7-1.4,3.5-2.1,5.2c0.4-0.5,0.7-0.3,1.7,0.7c-0.8,0-1.3,0.1-2,0.1
		c-0.3,0.8-0.6,1.5-0.8,2.3c-0.2-2.3-0.1-4.9,0.3-7.9c-0.6,0.5-0.6,1.9-1.7,1.5c-0.1-1.2-0.2-2.3-0.3-3.3c0.8-0.5,1.5-0.9,1.8-1
		c0.2,0,0.4,0,0.6,0.1c0.1-0.5,0.2-0.9,0.2-1.4c-0.6-0.4-0.7-1-0.6-2.1c0.3,0.3,0.6,0.4,0.9,0.6c0.1-0.4,0.2-0.9,0.3-1.3
		c-0.7-0.3-1.3-0.5-2-0.8c-0.1-0.3-0.2-0.8-0.4-1.6c-1,1.8-3.1,0.1-3.8,2.6c1.1,0.5,2.2,0.9,3.3,1.4c0.9,0.4,0.8,1.1,0.4,1.7
		c-1.6-0.4-3.1-0.9-4.7-1.4c-0.2,1.5,1.5,2.8,0,4.4c-0.2-1.1-0.4-1.9-0.6-2.8l-0.4,0c-0.2,0.9-0.4,1.7-0.6,2.6
		C497.1,48.2,497.1,48.2,497,48.2z M501.9,46.5c-0.2,1.4-0.8,1.2-1.5,0.9C500.5,46.2,501.1,46.3,501.9,46.5z M437.6,40.2
		c0.2-0.2,0.4-0.3,0.5-0.5c-0.1-0.2-0.2-0.4-0.7-0.6C437.5,39.6,437.5,39.9,437.6,40.2z M513.8,57.8c0.1-0.6,0.2-1.2,0.3-1.9
		c0.7,0.3,1.2,0.5,1.8,0.7c0.2-0.5,0.4-1,0.7-1.6c0.3,0.5,0.5,0.7,0.5,0.9c0.3,1.5,1.1,2.2,2.4,2.2c-0.3-2.1-0.3-4.7,0-7.6
		c-0.4-0.2-0.8-0.3-1.3-0.5c0.1,0.8,0.2,1.4,0.2,1.9l-0.4,0.3c-0.3-0.4-0.7-0.7-1-1.1c-0.3-0.3-0.5-0.9-0.8-1c-1-0.4-2.2-1-3.1-0.7
		c-0.5,0.2-1,0.3-1.4,0.4c0,0.3,0,0.7,0,1.1c3.1-0.4,5.6,2,6.5,3.9c-0.6-0.2-1.3-0.5-1.9-0.5c-0.9,0.1-1.8,0.5-2.7,0.7
		c-0.6,0.1-1,0.5-1,1.2C512.7,57.1,512.8,57.9,513.8,57.8z M568,38.6c0,0.2,0.3,0.4,0.5,0.4c0.1-0.3,0.2-0.5,0.3-0.8
		c-0.1-0.2-0.3-0.5-0.5-0.8C568.2,38,568,38.3,568,38.6z M509.1,47.7c-0.3,0.7-0.5,1.1-0.6,1.5C509,49.1,509.5,49,509.1,47.7z
		 M508.5,49.1C508.5,49.1,508.4,49.1,508.5,49.1c-0.1,0-0.1,0-0.1,0C508.4,49.2,508.4,49.2,508.5,49.1
		C508.5,49.2,508.5,49.2,508.5,49.1z M460.5,42.2c0.7-0.2,1.4-0.3,2.3-0.6c-0.2,0.9-0.4,1.4-0.6,2.3c0.5-0.2,1.1-0.2,1.2-0.4
		c0.2-1.3,1-1.5,1.8-1.6c-0.2-2.3-0.3-4.4-0.5-6.8c0.3,0,0.7-0.2,1.2-0.1c0.8,0.1,1,0.6,0.7,1.5c-0.4,1.3-0.6,2.7-1,4.4
		c1.7,0.3,2.9,0.4,4.6,0.7c-0.6,0.7-1.3,1-1.6,1.6c0.9-1.1,1.8-1.9,2.6-2.5c-0.4-0.9-0.3-1.1,0.4-2c-0.1,0.6,0.1,1,0.4,1.5
		c0.5-0.2,0.9-0.4,1.3-0.5c0-0.3,0.1-0.5,0.5-0.7c0.1-0.1,0.4,0.1,0.5,0.2c0.2,0.3,0.2,0.6,0.2,0.8c0.5,0.5,0.3,1.7-0.9,3.8
		c0.2,0.1,0.3,0.3,0.4,0.4c0.6,0.7,1.2,0.5,1.9,0.1c0.4-0.2,0.7-0.3,1-0.3c1-1.9,1.6-3.6,1.6-5.1c0,0,0,0,0,0c0,0,0,0,0-0.1
		c0.1-1.6-0.4-3-1.2-4c-1.3,0.6-2.6,0.3-3.4-0.8c0.7-0.3,1.4-0.4,2.1-0.3c-0.9-0.6-1.9-0.9-3.2-1.1c0,0.1,0.1,0.1,0.1,0.2
		c0.5,0.9,0.1,1.4-0.9,1.7c0.1-0.7-0.2-1.3-0.5-1.9c-0.4,0-0.8,0-1.3,0.1c0.2,0.2,0,0.7-0.3,1.6c-0.3-0.4-0.6-0.8-1.1-1.4
		c-0.3,0.1-0.6,0.2-0.9,0.3c0,0.2,0.1,0.4,0.2,0.7c-0.5-0.1-0.9-0.2-1.3-0.3c-0.3,0.1-0.6,0.2-0.9,0.4c-2.7,1.2-4.9,3.2-6.6,5.6
		c0.2,0.2,0.2,0.6,0.3,1C459.9,41.2,460.2,41.6,460.5,42.2z M475.8,38.8c-1.3-0.5-2.6-0.9-4-1.5C473.8,35.8,475.5,36.5,475.8,38.8z
		 M470.7,35.5c0.1,0.1,0.4,0.2,0.4,0.4c0,0.2-0.2,0.4-0.3,0.6c-0.2-0.2-0.4-0.4-0.4-0.5C470.4,35.9,470.6,35.7,470.7,35.5z
		 M469,34.6l0.3,0.3l-0.9,1.4l-0.5-0.5L469,34.6z M467.9,38.1c0.8,0.3,0.9,0.9,0.5,1.5c-0.3,0.6-0.8,1-1.4,0.1
		C467.3,39.2,467.6,38.6,467.9,38.1z M298,35c-0.4,0-0.8,0.3-1.3,0.7l0.3,0.1l6.7,1.8c0-0.1,0-0.2,0.1-0.3
		C304,36.6,299.8,34.9,298,35z M432.2,39.4c-0.4-0.3-0.8-0.7-1.4-1.2c-0.3,1.7,0.2,1.8,1,1.7C432,39.9,432,39.7,432.2,39.4z
		 M359.4,48.9c-0.2-0.1-0.5-0.1-0.7-0.1c-1.4-0.2-2.9-0.5-4.3-0.9c-0.9-0.3-1.7-1.3-2.5-1.3c-0.1,0.6-0.1,1.2-0.2,1.8
		c2.6,0.8,5.9,1.4,7.6,1.5C359.3,49.6,359.4,49.2,359.4,48.9z M564.6,57.7c0.1-0.4,0.1-0.8,0.2-1.3c-0.1,0-0.1,0-0.2-0.1
		C564.5,56.9,564.4,57.3,564.6,57.7z M275.4,55.1c0.2-0.5,0.4-1,0.6-1.5c-0.3,0.3-0.6,0.6-0.8,0.9C275.1,54.7,275.2,54.9,275.4,55.1
		z M321.6,56.6c-0.1-1.5,0-3.3,0.3-5c-0.8-0.2-1.5-0.4-2.3-0.6c-0.8-0.2-1.5-0.1-2.2,0.7c-0.5,0.6-1.2,0.9-2.1,1.6
		c-0.3-0.9-0.5-1.6-0.8-2.5c-0.5,0.3-1,0.5-1.4,0.8c-0.1,0.9-0.2,1.9-0.2,2.8c2.7,0.7,5.5,1.4,8.2,2.1
		C321.3,56.5,321.4,56.5,321.6,56.6z M359,57.3c1,0.2,2,0.4,2.9,0.6c0.5-1.4,1-2.7,1.4-4c-1-0.2-1.9-0.4-2.9-0.5
		C359.9,54.8,359.4,56.1,359,57.3z M357.4,62.1c-0.2-0.9-0.3-1.4-0.5-2.1c-0.1-0.1-0.3-0.2-0.5-0.3c-1.7-0.4-3.5-0.8-5.2-1.2
		c0,1.9,0.1,3.7,0.3,5.2c0.5-0.1,0.7,0.3,1.1,1.2c0.3,0.8,0.8,1,1.4,1.1l2.5,0.4c0.8,0.1,1.6,0.3,2.4,0.4c0.7-2.2,1.4-4.3,2.1-6.3
		c-0.7-0.2-1.5-0.3-2.3-0.5C358.3,60.8,357.9,61.3,357.4,62.1z M353.2,60.4c0.4,0,0.8,0,1.4,0.1C354,61.5,353.6,61.2,353.2,60.4z
		 M273.3,52.3c-0.3,0.7-0.5,1.4-0.8,2.1c0.7,0.1,1.3-0.6,1.8-1.1C274.2,52.3,273.9,52.2,273.3,52.3z M428.8,48.9
		c0.3-0.2,0.8,0,1.1,0.3c1,0.7,2.1,1.1,3.2,0.7c0.1-0.5,0.2-1,0.3-1.5c-0.4,0-0.8-0.1-1.2-0.2c-0.2-0.6-0.4-1.3-0.5-1.9
		c-2.5,0.7-2.7,0.5-3.1-2.4c-0.2-1.3,0.2-2.7-0.7-3.9c-0.5,0.8-1,1.7-1.4,2.6c0.2,0,0.5,0.1,0.7,0.2c0,0.8-0.1,1.5-0.1,2.5
		c-0.6-0.3-1-0.6-1.4-0.8c-0.5,1.4-1,2.9-1.3,4.5c0.1,0,0.2,0,0.3,0C426.2,49.1,427.4,49.8,428.8,48.9z M434.4,45.5
		c0.5-1.4,1.1-2.6,1.9-3.7c-1.4-0.9-3.1-0.4-4.6-0.5c0.2,2.6,2.7,0.7,3.4,2.5c-0.5,0.4-1,0.7-1.5,1.1
		C433.8,45.2,434.1,45.4,434.4,45.5z M406,36.1c0-0.1-0.1-0.1-0.1-0.2c-0.3-0.4-0.6-0.7-0.9-1c0.2,0.4,0.5,0.8,0.7,1.2
		C405.7,36,405.8,36.1,406,36.1z M397.6,42.3c0.3-0.6,0.7-1.1,1.1-1.5c-0.1-0.2-0.3-0.3-0.4-0.5C397.7,40.9,397.6,41.6,397.6,42.3z
		 M395.1,47.1c-1.8,0.3-2.5-2-4.2-1.5c0,1-0.1,1.9-0.1,2.8C392.2,48.9,393.5,48.6,395.1,47.1z M391.6,56.7c0.8,0.1,1.6,0.2,2.6,0.3
		c0-0.1,0-0.1,0-0.2C392.7,55.3,392.5,55.4,391.6,56.7z M386.9,64.5c-0.3,0.1-0.6,0.2-0.9,0.3c4.8,1,9.7,2.1,14.6,2.2
		c0,0,0.1-0.1,0.1-0.1c-4.6-1.2-9.3-2-14-2.8C386.8,64.3,386.8,64.4,386.9,64.5z M444.7,57.4c0.7,0.7,1.3,1.2,1.9,1.8
		C446.5,57.9,446.2,57,444.7,57.4z M424.1,59.1c2.4,0.2,4.8,1.2,7.3,0.3c0.2-0.1,0.5,0.2,0.8,0.3c0.3,0.1,0.6,0.2,0.9,0.3
		c-0.1-0.4-0.2-0.8-0.3-1.3c-0.7-0.1-1.3-0.2-2-0.2c-0.8-0.1-1.6,0-2.4,0.2c-1.9,0.5-3.2-0.3-3.6-2.4c2.6,0.4,5.2,0.7,7.9,0.9
		c0-0.3,0-0.5,0-0.8l-5.2-0.6c-0.8-0.1-1.5-0.1-2.3-0.3c-0.4-0.1-0.7-0.5-1.1-0.7c0.3-0.3,0.4-0.6,0.4-0.5c2.6,0.3,5.2,0.6,7.9,0.8
		c0.1,0,0.2,0,0.3,0c0-1,0.1-2,0.2-3c-0.7-0.1-1.3-0.2-1.9-0.6c-1-0.6-2.4-1.2-3.8-0.3c-0.2,0.1-0.5,0.2-0.6,0.1
		c-0.7-0.8-1.4-0.8-2.2-0.6c-0.4,2.9-0.5,5.7-0.2,8.4C424,59.1,424,59.1,424.1,59.1z M450.9,54.9c0-0.4,0.1-0.8,0.1-1.1
		c-1.9-0.2-3.7-0.6-5.6-0.7c-1.1-0.1-2.1,0-3.2,0c-0.2,0.8-0.4,1.5-0.7,2.3c1.4,0.1,2.7,0.2,4.1,0.2c0.9,0,1.4,0.4,1.8,1.2
		c0.8,1.6,0.8,1.6,2.8,1.4c-0.8-0.4-1.4-0.7-2.1-1.1c1.1-0.6,1.2-0.7,2.5-0.5c0-0.4,0.1-0.8,0.1-1.2c-1.3,0.4-2.3,0.5-3-0.8
		C448.9,54.2,449.9,54.1,450.9,54.9z M173.9,55.9c0.6,0.2,1.2,0.4,1.8,0.6c0.9-2,1.9-4.6,2.7-7.5c-0.2-0.1-0.4-0.2-0.7-0.3
		c0.2-0.8,0.5-0.7,0.9-0.6c0.1-0.3,0.1-0.6,0.2-0.9c-0.7-0.3-1.4-0.7-2.1-0.6C176.4,49,175.5,52.1,173.9,55.9z M474.3,67.4
		c-0.6,0-1.2,0-1.7,0c-0.4,0-0.8,0.8-1.1,1.2c-0.6-1.3-0.8-1.6-1.6-1.8c-1,0.2-1.9,0.1-2.7-0.2c-1,0-2,0-2.8-0.4
		c-1.9-1-3.6-0.4-5.4,0.3c-0.4-0.8-0.9-1.3-1.5-1.6c1.7,2.6,4.1,4.4,7.5,4.7c0.5-0.3,0.7-0.6,1-0.6c0.2,0,0.5,0.4,0.5,0.5
		c0,0,0,0.1-0.1,0.1C468.6,69.7,471.3,69,474.3,67.4z M173.5,43.8c0-0.2,0.1-0.3,0.1-0.5c-1.1-1-2.2-1.5-3.6-1
		C171,43.3,172,43.9,173.5,43.8z M576.9,63.9c-0.2,0.1-0.3,0.2-0.5,0.4c0.3,0.5,0.7,0.9,1.1,1.4c0.3-0.2,0.5-0.6,0.6-0.9
		C578.1,64.1,577.5,63.7,576.9,63.9z M580.1,37.7c-0.3-1-0.7-1.6-1.7-1.6C578.6,37.5,579.5,37.4,580.1,37.7z M512.3,40.1
		c-0.1-0.2-0.2-0.3-0.2-0.5c-0.1,0.2-0.2,0.4-0.3,0.6C512,40.2,512.1,40.2,512.3,40.1C512.3,40.2,512.3,40.1,512.3,40.1L512.3,40.1z
		 M208.8,40.1c-0.7,0.1-1.4,0.1-2,0.2c0.2,0.5,0.4,0.8,0.7,0.9c1.4,0.4,2.7,0.9,3.8,1.9c0.2,0.2,0.4,0.2,0.6,0.3
		c0.2-1.2,0.5-2.5,0.8-3.8c-1.9-0.6-3.9-1.3-5.9-1.9c-0.8-0.3-1.7-0.3-2.6,0c-0.1,0.4-0.2,0.9-0.3,1.3c0.4,0.4,0.7,0.8,1,1.2
		C206.9,38.5,207.3,38.5,208.8,40.1z M511.5,45.2c0-0.1,0.2-0.1,0.4-0.1c0.2,0.6,0.3,1.1,0.6,1.9c2-2.8,3.1-0.2,4.6,1.1
		c0.1-1.1,0.3-1.9,0.4-2.8c0.8,0.5,1.6,0.9,2.4,0.9c0.1,0,0.2,0,0.3,0c0.1-0.4,0.1-0.8,0.2-1.2c-0.5,0.3-1,0.3-1.2-0.8
		c-1.5-0.4-3.1-0.8-4.6-1.3c-0.3-0.1-0.6-0.7-0.6-1.1c0-0.6,0.2-1.2,0.2-1.8l-1.9,0.1c0,0,0,0,0,0l0,0c0,0,0,0,0,0
		c0.1,0.4,0.3,0.8,0.6,1.6c-0.6-0.5-0.9-0.8-1.3-1.2c-0.7,1.3-1.4,2.8-2.1,4.4c0.3,0,0.6-0.1,1-0.1c-0.5,0.7-0.6,0.9-1.1,0.5
		c-0.2,0.5-0.4,0.9-0.6,1.4c0.3,0,0.6,0.1,0.9,0.1C510.7,47.1,511.3,46.5,511.5,45.2z M513,43.7c-0.6,0-1.1,0-1.6,0
		C511.9,42.2,511.9,42.2,513,43.7z M137.4,34.4c0.1-0.4,0.2-0.7,0.3-1.1c-0.4-0.1-0.7-0.3-1.1-0.5C136.8,33.8,137,34.3,137.4,34.4z
		 M155.7,29.3c0.1-0.2,0-0.5-0.1-0.9c-0.4,0.2-0.8,0.3-0.8,0.4c0,0.3,0.2,0.6,0.3,0.9C155.3,29.6,155.6,29.5,155.7,29.3z
		 M519.1,44.1C519.1,44.1,519.1,44.1,519.1,44.1C519.1,44.1,519.1,44.1,519.1,44.1C519.1,44.1,519.1,44.1,519.1,44.1
		C519.1,44.1,519.1,44.1,519.1,44.1z M520.3,43.3c-0.7-0.2-1.2-0.3-1.1,0.8C519.6,44.1,520.1,44.3,520.3,43.3z M100.2,64.3
		c0.7,0.3,1.4,0.7,2.1,0.6c1.2-0.1,2.1,0.1,2.8,1.2c0.1,0.2,0.6,0.5,0.8,0.5c1.7-0.4,3,0.7,4.5,1.2c0.5,0.2,1.1,0.4,1.6,0.6
		c4.6-2.2,7.8-7,9.5-12.4c0.3-1,0.7-2.3,1-3.7c-0.1-0.2-0.3-0.3-0.4-0.5c-0.8-0.1-1.6-0.2-2.4-0.3c-0.6,5.3-3.9,12.2-9.1,12.9
		c-3.2,0.4-4.9-3.3-5.2-8c-0.7-0.3-1.2-0.8-1.7-1.5c0.6-0.2,1.1-0.3,1.6-0.3c0.1-2.3,0.4-4.7,1.1-6.9c-0.3-0.1-0.7-0.3-1.1-0.4
		c-2.1-1-4.1-2-6.2-3c-2.5,6.4-2.5,14.1-0.4,19.3C99.3,63.9,99.7,64.1,100.2,64.3z M104.8,49.4c0.1,0.1-0.1,0.5-0.3,0.6
		c-0.8,0.2-1.4-0.1-1.5-1C103.9,48.4,104.5,48.6,104.8,49.4z M99.5,52.1c0.3,0.1,0.4,0.6,0.5,0.9c-0.3,0.1-0.7,0.4-1,0.3
		c-0.3-0.1-0.5-0.5-0.9-1C98.9,52.2,99.3,52,99.5,52.1z M102.9,68.5c-0.5-1.1-1.3-1.4-2.2-1.5c1.4,1.6,3.1,2.7,5.2,2.7
		c0.5,0,1,0,1.5,0c-1.2-0.3-2.3-0.7-3.6-0.7C103.4,69,103,68.8,102.9,68.5z M83.7,56.2c0.9,0.3,1.5,1,2.1,1.6
		c-0.6-4.7,0.2-11.2,2-19.3c-1.4-0.7-2.8-1.5-4.3-2.2c-0.7-0.4-1.4-0.7-2-1.1c-2.2,1.5-5.5,8.4-8.2,15.1c0.3,0.2,0.5,0.5,0.8,0.7
		c0.5,0.5,1,0.8,1.6,1.2c0.8-2,1.6-3.8,2.5-5.2c0,0.4-0.2,3.1,0.1,6.5c0.6,0.3,1.3,0.6,1.8,0.9C81.4,55.1,82.5,55.8,83.7,56.2z
		 M575.2,39.5c0.2-0.2,0.1-1.1-0.1-1.3c-0.2-0.2-0.5-0.4-0.7-0.6c-0.4,0.7-0.9,1.4-1.4,2.3c0.4,0.1,0.7,0.1,1,0.1
		C574.4,40,574.9,39.8,575.2,39.5z M245.1,63c-7.2,4.6-11.5,3.7-13.6,0.5c-0.9-0.2-1.8-0.6-2.7-0.9c-2-0.7-4-1.3-6.1-1.9
		c0.4,1.7,1,3.3,1.9,4.6c-1.4,0.6-2.6,1.1-3.8,1.4c0.1,0.2,0.2,0.3,0.2,0.5c-0.9,0.5-1.5,0.3-2-0.2c-6.6,0.8-9-4.6-8.4-14.4
		c-0.6-0.2-1.2-0.5-1.9-0.7c-0.4-0.2-0.8-0.2-1.2-0.3c-1.6-0.4-3.3-0.2-4.8-1.2c-0.1-0.1-0.3-0.1-0.4-0.2c0,1.2,0,2.4,0,3.6
		c1.3-1.4,3.4-1.5,4.1-0.1c0.2,0.3,0,0.9-0.1,1.3c-0.1,0.2-0.8,0.5-0.9,0.4c-0.8-1-2-0.8-3.1-1.1c0.3,4.4,1.4,8,3.2,10.7
		c-3.7,1.8-6.7,2.4-9,2.1c-0.2,0.1-0.4,0.3-0.6,0.5c-0.1-0.2-0.1-0.5-0.2-0.7c-0.9-0.3-1.7-0.8-2.4-1.5c-0.8-0.1-1.6-0.4-1.9-1.3
		l0.2-0.7c0.1,0,0.2,0,0.4,0.1c-1.3-2.7-1.6-6.7-1.1-11.9c-0.2-0.1-0.4-0.1-0.6-0.2c-0.8-0.2-1.7-0.2-2.6-0.3c-0.3,0-0.9,0.1-1-0.1
		c-0.4-0.7-0.9-0.7-1.7-0.6c-0.5,0.1-1.1-0.5-1.7-0.8c-0.2,0.2-0.4,0.4-0.7,0.7c-0.1,3.9,0.2,7.3,1.1,10.2c1.2,0.8,2.6,1.2,4.1,1.8
		c-0.9,1.1-1.6,1.3-2.7,0.7c-0.2-0.1-0.4-0.2-0.6-0.4c0.9,2,2,3.6,3.4,4.9c1.2,0,2.2,0.4,3,1.2c0.5,0.4,1.2,1,1.6,0.8
		c1.2-0.4,2.1,0,2.9,0.6c3.2-0.1,6.9-1.2,11.2-3.5c3.5,3.8,9.1,4.8,16.6,1.5l0.2-0.5c0.3,0,0.7-0.1,1-0.1c0.4-0.2,0.8-0.4,1.1-0.6
		c0.5,0.5,1,1,1.5,1.4l5.4,1.7c3,0.1,6.8-1.1,11.2-3.8c0-0.1-0.1-0.1-0.1-0.2c-0.2-0.3,0.2-1,0.3-1.6l0.7-0.1
		c0.2,0.3,0.4,0.6,0.7,0.9c0.4-0.3,0.8-0.5,1.2-0.8c0.1,0,0.5-0.3,1-0.8c-0.6-0.2-1.2-0.3-1.8-0.4C245.5,63,245.3,63,245.1,63z
		 M65.4,29.2c0.4,0.4,0.7,0.7,1,0.9c0,0,0.1,0,0.1,0c0,0,0,0.1,0,0.1c0.2,0.2,0.4,0.4,0.6,0.5l-0.5,0.5c-0.1,0-0.2,0-0.3,0
		c-1.2,4.4-2.3,9.2-3,14.1c0.6,0.3,1.1,0.7,1.7,1c0.4-0.5,0.8-1.4,1-1.3c0.7,0.2,1.3,0.7,1.8,1.1c0.4,0.3,0.5,0.9,0.9,1.2
		c0.8,0.5,1.6,1,2.4,1.5c1-5.7,2.4-11.9,4-17c-0.2-0.1-0.4-0.2-0.6-0.3c-0.2-0.1-0.5-0.2-0.7-0.4c-1.4-1.1-2.8-2.2-4.6-2.7
		c-0.5-0.1-1.2-0.5-1.4-1c-0.1-0.1-0.2-0.3-0.3-0.4c-0.1,0.4-0.2,0.7-0.4,1.1c-0.9,0.1-2,0.1-3.1,0c0.1,0.1,0.2,0.2,0.2,0.3
		c-0.9,0-1.7-0.2-2.4-0.5c-9.9-1.5-23.9-7.9-36.4-9.8c0.4,0.5,0.8,1,1.6,0.5c0.1-0.1,0.4,0,0.5,0.2c1.5,1.5,2.9,3,4.8,4.9
		c1-0.1,1.9,0.1,2.6,1.4c10.3,1.5,20.4,4.5,30.4,5.1C65.4,29.8,65.4,29.5,65.4,29.2z M171,64.7c-1.8-0.6-3.6-1.3-5.4-2
		c0.2,1,0.3,2,0.5,3c0.2,0,0.3,0,0.5,0.1c1.2,0.3,2.3,1.1,3.7,0.7c0.2-0.1,0.5,0.3,0.7,0.5c1,1,2.2,1.4,3.6,1.1c0-0.6,0-1.3,0-2
		C173.4,65.6,172.2,65.1,171,64.7z M125.7,54.2c1,13.3,9.2,20.1,24,12c3.4,3.7,8.7,4.7,15.8,1.9c-0.6-0.3-1.2-0.6-0.9-1.6
		c0-0.1,0.1-0.2,0.1-0.2c-4.6,1.5-7.7,0.6-9.4-2.3c-0.2-0.1-0.4-0.3-0.6-0.5c0.1-0.1,0.1-0.1,0.2-0.2c-0.5-1.1-0.9-2.5-1.1-4.1
		c-0.1,0-0.2-0.1-0.3-0.1c-1.6-0.8-3.1-1.7-4.7-2.5c-0.3-0.1-0.6-0.4-0.8-0.3c-0.9,0.3-1.7,0.1-2.4-0.2c0.1,0.4,0.1,0.8,0.2,1.2
		c0,0,0,0,0,0c0.8,0.9,1.7,0.9,2.7,0.3c0.6,1.4,1.3,2.4,0.7,3.9c-0.6-0.1-1.2,0-1.5-0.3c-0.3-0.3-0.7-0.5-1.1-0.6
		c0.5,1.6,1.2,3,2,4.2c-2.8,1.3-5.1,2-7.1,2.2c0.6,0.1,1.1,0.5,1.6,0.7c0.2,0.1,0.3,0.6,0.3,0.8c-0.1,0.2-0.4,0.6-0.6,0.5
		c-1.1-0.1-2.1-0.3-2.6-1.7c0.3-0.2,0.5-0.3,0.7-0.3c-4.9-0.1-7.1-4.2-7.1-11.4c-0.6-0.3-1.3-0.7-2.1-1.1c0.5-0.1,1.3-0.2,2.1-0.2
		c0-0.6,0.1-1.2,0.1-1.9c-0.6-0.2-1.3-0.5-1.8-0.4c-1.1,0.2-1.9,0.1-2.2-1.1c0-0.2-0.5-0.4-0.6-0.3c-0.7,0.3-0.9,0-1.4-0.5
		c-1-0.9-1.1-0.8-2.1,0.9c1.7,0.7,3.4,1.4,5.1,2.1l-0.1,0.5C129.1,54.2,127.4,54.4,125.7,54.2z M153.9,61.1c0.2,0.1,0.4,0.7,0.3,1
		c-0.1,0.3-0.6,0.5-0.9,0.5c-1-0.1-1.7-0.6-2.1-1.8C152.3,60,153.1,60.7,153.9,61.1z M128,57.4c-0.2-0.1-0.3-0.4-0.6-0.7
		c0.4-0.1,0.7-0.3,0.8-0.2c0.2,0.2,0.3,0.5,0.4,0.7C128.4,57.2,128.1,57.5,128,57.4z M130.8,55.8c-0.2,0.2-0.7,0.5-0.9,0.4
		c-0.2-0.1-0.5-0.6-0.4-0.9c0.1-0.3,0.5-0.6,0.8-0.9C130.7,55.3,130.9,55.7,130.8,55.8z M87.2,22.1c0.3,0.2,0.6,0.5,1,0.7
		c1.4-1.9,2-3.9,1.8-5.8c-0.3-0.1-0.6-0.2-0.9-0.3c-0.8-0.3-1.8-0.2-2.8-0.1c0.2,0.1,0.3,0.2,0.4,0.4c0.9,1.2,0.7,3.5-1.1,5.7
		C86.2,22.7,86.8,22.5,87.2,22.1z M528.4,73c-30,11.6-52.3-4.2-80-1.6c0.5-2.4,1-5,1.4-7.7c-0.5,0-0.9-0.1-1.4-0.1
		c-0.7-0.1-1.5,0.2-2.5,0.4c-0.5-0.3-1.1-0.8-2.1-1.6c2-1.2,3.8,0.1,5.7-0.6c-0.1-0.7-0.2-1.4-0.4-2.5c-2.3,2.1-4-0.4-5.9-0.3
		c0.1,1,0.2,1.8,0.3,3.1c-1.7-1-2.1-2-1.8-3.7c0.2-1.1,0.2-1.2-0.8-1.4c-0.1,0.2-0.2,0.4-0.3,0.7c0.2,0.5,0.3,1,0.5,1.6
		c-0.5,0-1,0.2-1.4,0.1c-0.3,0.4-0.6,0.8-0.9,1.2c0.1-0.1,0.3-0.2,0.4-0.1c0.8,0.3,1.8,0.5,2.3,1.7c-1,0.8-2,0.7-2.8,0.3
		c-0.3-0.1-0.7-0.9-0.6-1c0.1-0.1,0.2-0.2,0.3-0.3c-1.1,1-2.4,1.4-3.9,0.7c-0.1,0-0.2-0.1-0.2-0.1c-1.7-0.1-3.4,0-5,1.5
		c-0.6-1.1-1.3-1.7-2.6-1c-0.4,0.2-1-0.2-1.5-0.4c-0.3-0.1-0.5-0.2-0.8-0.3c0.2,1.1,0.5,2.1,0.9,3c-6.9,2.8-10.8,1.1-12.3-4.1
		c-1.8-0.3-3.6-0.2-5.5-0.2c-0.6,0-1.3,0-1.9,0c1.5,4.2,4.2,7,7.9,8c0.3-0.2,0.5-0.3,0.8-0.5c0.1,0.3,0.2,0.5,0.3,0.8
		c0.6,0.1,1.1,0.1,1.7,0.2c0-0.2,0.1-0.3,0.1-0.5c0.2,0.2,0.4,0.3,0.5,0.5c0.8,0,1.6-0.1,2.4-0.2c0.1-0.1,0.2-0.3,0.3-0.4
		c0,0.1,0,0.2,0.1,0.4c1.9-0.4,4-1,6.2-2.1c1.2,1.9,2.7,3.2,4.7,3.4c4.3,0.5,7.9-1.7,10.6-5.2c-0.4,2.4-0.8,4.7-1.3,6.8
		c0.6,0.1,1.1,0.6,1.5,1.1c1.5-0.8,3-1.1,4.3,0.3c-0.9,1.8-0.9,1.8-2.2,1.3c-0.4-0.1-0.9-0.1-1.3-0.1c-0.4,0-1,0.2-1.2,0
		c-0.9-0.8-2-0.6-3-0.5c-5.1,1.6-7.8,4-8.8,6.5c0,0.4-0.1,0.8-0.3,1c-0.2,1-0.2,2,0.1,3c0.4-0.3,0.7-0.6,1-0.7
		c0.2,0,0.6,0.7,0.6,0.8c-0.3,0.4-0.7,0.7-1,1c-0.2-0.3-0.3-0.5-0.6-0.9c0.8,2.6,3.3,4.5,6.3,4.6c0-0.3-0.1-0.6-0.1-0.8
		c0-0.2,0.1-0.4,0.2-1c0.8,0.2,1.7,0,2.2,0.5c0.3,0.3,0.6,0.5,0.8,0.6c0.6-0.3,1.2-0.6,1.8-1c-0.2-0.2-0.6-0.5-0.5-0.7
		c0.1-0.4,0.4-0.7,0.8-1.2c0.3,0.5,0.6,0.9,0.6,1c-0.1,0.2-0.3,0.4-0.4,0.6c2.6-2.1,5.2-6,6.9-12.5c-0.4-0.3-0.7-0.8-1-1.2
		c0.3-0.3,0.6-0.7,0.8-0.7c1.5,0.2,3.1-0.2,4.4,1.1c0,0,0,0,0.1,0.1c0.7,0,1.3,0,2,0.1c0.9-0.5,1.7-0.4,2.6-0.3l5.3,0.6
		c1.5,0.2,2.9,0.4,4.3,1.1c1.3,0.7,3.1,0.5,4.6,0.6c0.7,0.1,1.3,0.1,1.1,1.3c-0.2,0.1-0.4,0.1-0.6,0.2c0.8,0.2,1.5,0.4,2.3,0.7
		c-0.3-0.5-0.6-0.9-0.9-1.4c1.2-0.8,2.1-0.8,3.2,0.3c-0.4,0.4-0.8,0.8-1.2,1.3c7.5,2.2,15.4,4.6,23.5,5.8c6.5,1.1,15.9,2.5,24-1.5
		c-1.1,0-2.2,0-3.3,0c-0.9,0-1.8-0.3-2.7-0.4c-0.3,0-0.6-0.3-0.8-0.2c-2,1.4-3.8-0.7-5.8-0.5c-1.9,0.1-3.9-0.1-5.8-0.2
		c-0.2,0-0.4-0.2-0.5-0.3c-0.1-1.1,0.4-1.4,1.3-1.4l9.7,0.5l4.9,0.3L524,80c0.5,0,1,0,1.5,0.1c2.4-1.8,4.7-4.3,6.5-7.6
		c-1,0.2-2,0.5-3,0.5L528.4,73z M412.7,63.6c-0.3-0.1-0.5-0.4-0.9-0.7c0.4-0.2,0.7-0.5,0.9-0.4c0.3,0.1,0.5,0.4,0.7,0.7
		C413.2,63.2,412.9,63.6,412.7,63.6z M425.9,65.1c-0.1,0.2-0.4,0.3-0.7,0.4c-0.1-0.2-0.3-0.5-0.2-0.6c0.1-0.2,0.3-0.4,0.7-0.8
		C425.8,64.6,426,64.9,425.9,65.1z M431.6,66.3c-0.2-0.1-0.5-0.4-0.5-0.6c0-0.2,0.3-0.4,0.7-0.7c0.1,0.5,0.3,0.7,0.2,1
		C432,66.1,431.7,66.3,431.6,66.3z M442.2,66.9c-0.2-0.2-0.3-0.4-0.6-0.7c0.3-0.2,0.5-0.5,0.7-0.5c0.2,0,0.4,0.3,0.5,0.5L442.2,66.9
		z M431.9,83.5c-1.3-1.5-0.1-6,7.3-8.3C436.5,83.6,433.1,84.9,431.9,83.5z M437.2,86.2c-0.3-0.1-0.5-0.4-0.6-0.7
		c0-0.2,0.3-0.5,0.6-0.9c0.3,0.5,0.5,0.8,0.6,1.1C437.7,85.8,437.3,86.3,437.2,86.2z M438.2,83.5c-0.4-0.1-0.9-0.3-1.3-0.6
		c0,0,0.2-0.7,0.3-0.7c0.5,0,1,0.1,1.5,0.3c0.1,0,0.1,0.5,0.2,0.8C438.6,83.4,438.4,83.5,438.2,83.5z M437.6,80.6
		c1.6-0.8,1.8-0.7,3.1,0.7C438.7,81.9,438.5,81.9,437.6,80.6z M441.1,84.2l-0.5-0.4c-0.1-0.3-0.3-0.7-0.2-1c0.1-0.3,0.5-0.4,0.8-0.6
		c0.2,0.3,0.4,0.6,0.4,0.9C441.6,83.5,441.3,83.9,441.1,84.2z M503.6,83.2c0.2-0.5,0.6-0.9,0.9-1.4c0.2,0.3,0.7,0.7,0.6,1
		c0,0.4-0.4,0.8-0.6,1.2l-0.6,0.3C503.8,83.9,503.5,83.5,503.6,83.2z M486.3,78.7c-1.7,0.5-3.4,0.3-5-0.1c-1.6-0.5-3.3-1.2-5.1-1.6
		c0.6-0.6,0.8-1.1,1.1-1.1c1.4,0,2.7-0.3,4.1,0.4c1.2,0.6,2.6,0.7,3.9,1c0.4,0.1,0.8,0.4,1.2,0.6L486.3,78.7z M487.8,78.6
		c0.4-0.4,0.6-0.9,0.8-0.9c1.6-0.2,3.1,0.1,4.6,0.9C491.7,79.5,490,79.5,487.8,78.6z M500.1,80.8c-0.9-1.6-2.2-1.6-3.7-1.4
		c-0.6,0.1-1.3,0-2.1-0.1c0.1-1.4,0.8-1.5,1.5-1.2c1.5,0.7,3,0.6,4.6,0.3c1-0.2,1-0.1,1.8,1C501.5,79.8,500.9,80.3,500.1,80.8z
		 M117.5,46.9c-0.5,0-0.9,0.1-1.4,0.3c0.8,0.4,1.9,0.6,3.3,0.7c0.1,0.5,0.2,1.1,0.2,1.7c0.4,0.1,0.9,0.3,1.4,0.4
		c0.6,0.2,1.1,0.5,1.7,0.7c0.1-0.4,0.1-0.8,0.2-1.2c-1-0.4-2.1-0.7-2.8-1.6C119.6,47.2,118.4,46.9,117.5,46.9z M580.8,59
		c-1,1.6-1.1,1.6-0.2,3.2c0.2-0.7,0.4-1.3,0.6-1.9l0,0c-0.1-0.4-0.2-0.8-0.3-1.3C580.9,59.1,580.9,59.1,580.8,59z M169,57.5
		c-1.4-0.5-2.7-1.3-4.4-0.8c0,0,0,0-0.1,0c0.1,0.6,0.2,1.3,0.3,1.9c0.3,0,0.7,0,1-0.1c0.7-0.2,1.9,0.3,2.2,0.9
		c0.7,1.1,1.8,1.4,2.8,1.8c1.1,0.4,2.2,0.8,3.3,1.2c-0.1-0.7-0.1-1.4-0.2-2.1c0,0,0.1-0.3,0.3-0.8L169,57.5z M227.2,53.7
		c1.2-0.5,1.2,0.9,1.1,2.1c0.4-0.3,0.6-0.5,0.8-0.7c0.2-0.2,0.4-0.5,0.7-0.8c0.1,0,0.2,0,0.2,0.1c0.1-0.9,0.3-1.8,0.5-2.8
		c-0.8-0.2-1.7-0.2-2.6,0c-1.1-1.2-2.3-2.2-4.1-1.4c-0.3,0.1-0.7-0.1-1-0.3c-0.3,1.3-0.4,2.5-0.5,3.8
		C223.9,53.4,225.4,54.5,227.2,53.7z M153.6,54.7c0-0.6,0-1.3,0.1-1.9l-1.3-0.5c-1.2-0.4-2.3-1.2-3.8-0.8c-0.5,0.1-1.2-0.7-2.2-1.3
		c-0.3,0.1-0.7,0.1-1,0.1c0,0.4,0,0.8,0,1.2c0.4,0.1,0.8,0.3,1.2,0.4C148.9,52.9,151.2,53.8,153.6,54.7z M266.1,49
		c0.2-0.1,0.4-0.2,0.5-0.1c0.7,1.2,3,0,3.1,2.5c-0.8,0.1-1.6,0.1-2.3,0.2l-0.1,0.3c0.5,0.2,0.9,0.5,1.4,0.6c0.9,0.2,1.7,0.4,2.5,0.9
		c0.1-0.7,0.2-1.5,0.4-2.2c0-0.1,0-0.3,0-0.5c0,0,0.1,0,0.1,0c0.1-0.8,0.3-1.5,0.4-2.3l-5.4-1.5c-0.1,0-0.2-0.2-0.3-0.4
		c0.3-1.2,1-0.9,1.7-0.7c1.4,0.4,2.9,0.8,4.3,1.2c0.7-3.5,1.5-6.5,2.2-8.4c-0.2-0.1-0.3-0.2-0.5-0.3c-0.2-0.2-0.6-0.3-1-0.3
		c-1.3,0.1-2.3-0.4-2.9-1.6c-2,0.4-3,0.3-3.9-0.5c-0.8,3-1.4,6.3-1.8,9.7c0.1,0.2,0.2,0.4,0.3,0.7c-0.1,0-0.3-0.1-0.4-0.1
		c-0.2,1.7-0.4,3.5-0.5,5.2c0.4-0.1,1-0.2,1.7-0.5C265.7,50.3,265.9,49.6,266.1,49z M270.5,44.7c0.5,0.2,0.9,0.3,1.7,0.6
		c-1.1,1.1-1.6,0.9-1.9,0L270.5,44.7z M266.1,43.8c0-0.1,0.4-0.3,0.5-0.2c0.1,0.1,0.3,0.4,0.2,0.5c-0.1,0.2-0.3,0.4-0.7,0.8
		C266.1,44.3,266,44.1,266.1,43.8z M367.9,53c1.3,0.3,2.7,0.3,4,0.7c0,0,0.1-0.1,0.3-0.2c-0.2-0.4-0.3-0.9-0.5-1.4
		c-0.2-0.5-0.4-1.1-0.6-1.7c0.5-0.5,0.9-0.8,1.4-1.3c-1-0.8-1.1,0.2-1.5,0.7c-1.5,1.7-2,1.7-3.6,0.1c0,0-0.1,0-0.4-0.1
		C366.3,51.9,366.5,52.7,367.9,53z M374.8,45.4c0.1-0.6,0.2-1.2,0.3-1.8c-0.3,0.4-0.7,0.8-1,1.2C374.3,45.1,374.5,45.3,374.8,45.4z
		 M373.9,55.2c-0.7-0.2-1.5-0.4-2.2,0.3c-0.2,0.1-0.5,0.2-0.6,0.1c-1.3-1.1-2.9-0.7-4.3-0.8c0.2,1.4,0.4,2.9,0.8,4.3
		c2.4,0.5,4.7,1,7.1,1.4C374.2,59.1,374,57.3,373.9,55.2z M361.6,50.4c0.8,0.4,1.7,0.8,2.7,1.2c0.3-0.6,0.5-1.2,0.8-1.7
		c-1.2,0-2.2,0-3.2,0.1C361.7,50.1,361.7,50.2,361.6,50.4z M370.1,44.2c0.2,0.6,0.4,1.1,0.6,1.5c1.6-0.8,3-1.6,3.9-3.4
		c-0.7-0.6-1.4-0.8-1.9,0.3c-0.3,0.7-0.7,1-1.3,0.5c0.2-0.5,0.3-0.9,0.6-1.6c-0.8-0.1-1.4-0.3-2.1-0.3c-1.4-0.1-2.8-0.1-4.1,0
		c0,0,0,0,0,0c-0.4,0.7-0.7,1.5-1.1,2.3c0.5-0.2,0.9,0,1,0.4c-0.3,0.3-0.7,0.7-1.1,1.1c1.1,0.9,2.3,1.2,3.2,0.2
		C368.5,44.1,369.3,44.2,370.1,44.2z M343.2,64.9c-1.5,0-3-0.8-4.5-1c-0.8-0.1-1.5-0.3-2.3-0.3c-0.3,0-0.6,0.5-1,0.7
		c0.2,0.3,0.4,0.8,0.8,0.9c0.6,0.2,1.3,0,1.9,0.2c1.1,0.4,2.6-0.2,3.5,1c0.1,0.2,0.6,0.2,0.8,0.1c1.9-0.6,3.7,0.1,5.5,0.5l2.3,0.5
		c0.6-0.2,1.2-0.4,1.8-0.7c-1.5-0.3-2.9-0.7-4.4-1.1C345.8,66,344.4,65.7,343.2,64.9z M360.7,43.2c0.2-0.8,0.4-1.6,0.6-2.3
		c-0.1,0-0.2,0.1-0.3,0.1c-0.9,0.1-1.9,0.2-1.6,1.6C359.7,43.4,360.2,43.4,360.7,43.2z M329.9,62.9C330,63,330,63,329.9,62.9
		C330,63,330,63,329.9,62.9C330,63,330,62.9,329.9,62.9C330,62.9,330,62.9,329.9,62.9z M332.6,60.8c0-0.1,0.1-0.2,0.1-0.3
		c-0.1,0-0.2-0.1-0.4-0.1C332.5,60.6,332.5,60.7,332.6,60.8z M327.2,61.2c-0.4,0.3-0.8,0.6-1.2,0.7c-0.1,0.8,0.1,0.8,0.9,1
		c0.6,0.1,1.2,0.4,1.8,0.4c0.4,0,0.8-0.3,1.2-0.4C329.2,62,328.3,61.4,327.2,61.2z M352.1,67c0,0.1,0,0.2,0.1,0.3
		c0.1,0.3,0.3,0.6,0.5,0.9l5.4,1.2c0,0,0.1-0.1,0.1-0.1c0.1-0.3,0.2-0.5,0.3-0.8c-0.2,0-0.4-0.1-0.6-0.1
		C355.9,67.9,354,67.4,352.1,67z M330,63c0.3,0.2,0.6,0.4,1,0.7c0.2-0.3,0.4-0.6,0.6-0.9c-0.1-0.1-0.2-0.2-0.3-0.4
		C331.2,61.8,330.4,62.4,330,63z M329.5,65.6c0.1-0.2,0.3-0.3,0.4-0.5c-0.3-0.1-0.6-0.1-0.9-0.2C329.2,65.2,329.3,65.4,329.5,65.6z
		 M333.4,61.3c0.2-0.1,0.4-0.2,0.8-0.4c-0.4-0.1-0.7-0.2-1-0.2C333.3,60.9,333.4,61.1,333.4,61.3z M318.5,39.5
		c-0.3-0.2-0.6-0.3-0.9-0.4c-0.3,0.5-0.7,1-1,1.5C317.4,40.8,318,40.8,318.5,39.5z M326.5,65.4c-0.1,0.1,0.2,0.5,0.3,0.9
		c0.3-0.4,0.6-0.6,0.8-0.9c0.1-0.1-0.2-0.4-0.4-0.6C327,64.9,326.7,65.1,326.5,65.4z M322.2,60.1c-0.1-0.1-0.3-0.1-0.4-0.1
		c-2,0.3-3.4-1.1-5.2-1.4c-0.3-0.1-0.7,0.1-1,0.1c-0.8,0-1.7,0-2.5-0.1c0,0.3,0.1,0.5,0.1,0.8l0.2,0.1l9.9,2.7c0.3,0.1,0.7,0,1.2,0
		c-0.3-0.1-0.6-0.1-0.9-0.3C322.9,61.6,322.5,60.9,322.2,60.1z M386.8,55.7c0.2-0.1,0.3-0.7,0.6-1.5c-0.8,0.3-1.3,0.4-1.8,0.6
		C385.6,55.9,386.2,55.9,386.8,55.7z M489.2,67.7c0.1-0.4,0.2-0.7,0.3-1c-0.3-0.1-0.7-0.3-1.3-0.6c-0.3-0.1-0.7-0.2-1-0.2
		c-1.6-0.1-3.2-0.2-4.9-0.3c0.1,0.3,0.1,0.6,0.2,0.9c0.5,0,0.9,0.1,1.4,0.1c1.7,0.2,3.6,0.1,5.2,1.1
		C489.2,67.7,489.2,67.7,489.2,67.7z M506.9,59.2c-0.3,0-0.7,0-1,0.1c-1.8,0.7-3.6-0.1-5.4,0.5c-0.3,0.1-0.7,0-1-0.2
		c-0.6-0.5-1.1-0.8-1.6-0.8c0.4,1.5,0.9,2.9,1.6,4.2c0.1,0.1,0.2,0.2,0.3,0.3c0.3,0.3,0.4,0.6,0.4,0.9c0.2,0.4,0.5,0.7,0.8,1.1
		c0.6-1,1.7-0.8,2.7-0.7c0.4,0,0.8,0.1,1.3,0.1c0.1-0.3,0.2-0.6,0.3-0.9c-0.2-0.1-0.3-0.3-0.4-0.7c0.2-0.1,0.4-0.2,0.7-0.2
		C506.2,61.5,506.6,60.3,506.9,59.2z M389.3,56.3c0.7,0.1,1.4,0.2,1.5-0.8c0-0.5-0.5-0.9-0.9-1.7c-0.7,0.5-1.4,0.7-1.6,1.2
		C387.9,56,388.6,56.2,389.3,56.3z M408.4,46.3c0.2-0.7,0.1-2.1,1.4-1.1c-0.1,0.5-0.3,0.9-0.4,1.4c0.8,0.1,1.5,0.2,2.3,0.4
		c-0.2-1.3-0.1-2.3,1.1-2.5c0.2,0,0.4-0.1,0.6-0.1c0.2-0.9,0.3-1.8,0.5-2.7c0,0,0,0,0,0c-0.1,0.5-0.3,0.9-0.6,1.8
		c-0.8-1.5-2.2-1.7-2.6-3.7c2.1,0.9,3.2-0.2,4-2.2c0-0.1,0.1-0.1,0.1-0.2c0,0,0,0,0-0.1c0.1-0.4-0.2-0.9-1.1-1.5
		c-0.4,0.2-0.7,0.4-1.1,0.6c0.5,1.4-0.1,1.9-1.3,2c-0.7-0.4,0.5-2.3-1.1-1.7c-0.4,1.5-0.7,2.9-1,4.2c-1.6,1.1-3-1.1-4.4,0.1
		c0.6,1.4,1.2,2.8,1.7,4.2C406.8,46.2,407.3,46.7,408.4,46.3z M410.6,42.3c-1,1.3-1,1.3-2.2,0.9l0-0.5
		C409,42.6,409.7,42.5,410.6,42.3z M236.9,33.8c0.5-0.2,1.2,0.1,1.5,0.5c0.8,1.1,1.8,1.3,2.9,1.6c0.4,0.1,0.9,0.3,1.1,0.6
		c0.3,0.4,0.6,0.7,0.9,0.9l1.9-3c-3.2-1.8-7.2-2.1-10.8-0.7C235.1,34.1,235.9,34.1,236.9,33.8z M399.3,33.2
		c-1.2,0.1-2.5,0.5-3.7,1.1c0.7,0.4,1.6,0.3,2.3,0.4C399,34.9,399.3,34.4,399.3,33.2z M393.4,42.4c-0.5-1.2-1.1-1.3-2-0.3
		C392.1,42.9,392.7,43.1,393.4,42.4z M301.5,39.6c-0.2-0.1-0.4-0.5-0.6-0.5c-2.2,0.2-4.1-0.3-6.1-0.9c-0.6,1-1.3,2.3-2,3.6l6.9,2
		c0.9,0.3,1.7,0.7,2.5,1c0.1-0.4,0.2-0.9,0.2-1.3c-0.5-0.2-0.9-0.5-1.3-0.9c0.6-0.2,1.1-0.3,1.5-0.2c0.1-0.7,0.3-1.4,0.4-2.1
		c-0.2,0-0.3,0-0.5-0.1C302.2,40.1,301.9,39.8,301.5,39.6z M294.1,40.5c1.1-0.5,1.8-0.2,2.5,0.7C295.5,41.7,294.7,41.6,294.1,40.5z
		 M298.1,41.3c0.6,0.2,1.2,0.3,2.1,0.6C299.1,42.6,298.5,42.5,298.1,41.3z M340.6,61.2c-0.3-1-0.6-2.1-0.7-3.3
		c-1.3-0.1-2.4-0.8-3.2-2.1c-0.2-0.4-0.7-0.7-1.1-0.8c-1.5-0.4-3.1-0.8-4.6-1.1c-0.4,1.7-1,3.2-1.6,4.6c3.1,0.6,6.2,1.6,9.3,2.2
		C339.2,60.8,339.9,61,340.6,61.2z M335.6,57.4c-0.3,0.2-0.6,0.3-0.9,0.3c0,0-0.2-0.5-0.2-0.5c0.2-0.2,0.4-0.3,0.9-0.5
		C335.5,57,335.7,57.4,335.6,57.4z M410.5,34.5c-0.5-0.2-1.1-0.4-1.7-0.6c-0.1,0-0.1,0.1-0.2,0.1C409.3,34.6,409.9,34.8,410.5,34.5z
		 M407.4,33.4c-0.2-0.1-0.3-0.1-0.5-0.2c-0.3,1-0.5,1.8-0.8,2.8c0.2,0,0.3,0,0.5,0C406.1,34.8,406.8,34.1,407.4,33.4z M412.9,47.1
		c0,0-0.1,0.1-0.1,0.1c0,0,0,0,0.1,0C412.9,47.2,412.9,47.2,412.9,47.1z M409,51.9l-0.1,0.6c-0.9,0-1.9,0-3-0.1
		c1.2,2.1,1.5,2.2,3.1,1.4c1-0.5,2.1-1,3.1-1.5c0.1,0,0.1,0,0.2-0.1c0.1-1,0.1-2.1,0.3-3.2c-0.1-0.2-0.2-0.4-0.3-0.6
		c-0.3,1.2-0.4,1.7-0.6,2.5c-0.6-1.2-1.4-0.9-2.4-0.4c-0.3-1.2-0.6-2.3-2-2.3c-1.3,0-1.9,1.2-3.1,2.3c1.2,0.4,1.9,0.6,2.7,0.9
		C407.6,51.6,408.3,51.8,409,51.9z M488.7,69.2C488.8,69.2,488.8,69.2,488.7,69.2c-1.6-0.2-3.2-0.3-4.9-0.4
		C485.4,69.8,487.8,70.1,488.7,69.2z M408.6,57c0.3,1.5,0.4,1.6,2.8,1.8c0.3-0.6,0.6-1.2,1-1.9c0-0.1,0-0.3,0-0.4
		C411,56.7,409.9,56.9,408.6,57z M407.2,57.8c-1.5-0.8-3.1-1.1-4.6-1c-0.1,0.2-0.2,0.4-0.3,0.6C404.6,58.3,406.2,58.4,407.2,57.8z
		 M400.6,60.4c0.1,0,0.1,0,0.2-0.1c0.1,0,0.4,0.4,0.4,0.6c0,0.3-0.3,0.5-0.5,0.9c-0.3-0.5-0.5-0.7-0.6-0.9c-1.2,1.1-2.5,1.6-4,0.8
		c-0.5-0.3-1-0.8-1.3-1.6c-0.1,0-0.3,0-0.4,0c-3-0.5-5.9-0.9-8.8-1.6c0.1,1.4,0.4,2.8,0.7,4c1.4,0.4,2.8,0.8,4.2,1
		c3.9,0.7,7.8,1.3,11.6,1.9c1.3-1.5,2.5-3.3,3.4-5.3c-1.4-0.1-2.9-0.2-4.3-0.7C401.1,59.8,400.9,60.1,400.6,60.4z M233.3,38.2
		c0,0.3,0,0.8,0.1,1.5c0.5-0.2,0.9-0.3,1.2-0.5c0.3-0.2,0.6-0.4,1-0.7c1.5,1.8,3.6,2,5.5,2.6l1.1-1.7c-3.8-1.1-7.6-2.3-11.4-3.5
		c-0.6,0.5-1.2,1-1.7,1.6c0.3,0.1,0.7,0.2,1,0.2C231.1,37.9,232.1,38,233.3,38.2z M272.1,58.6c-0.3-0.3-0.6-0.5-0.9-0.7
		c-0.2,0.5-0.4,1.1-0.6,1.5c0.1,0.2,0,0.7-0.1,0.8c-0.1,0-0.1,0-0.2,0.1c-0.1,0.2-0.2,0.5-0.2,0.7c0-0.2,0-0.4,0.1-0.6
		c-0.6,0.2-1-0.2-1.5-0.9c0.7-0.7,1.2-0.8,1.6-0.4c0.1-0.5,0.1-1,0.2-1.6c-1.5-0.7-3.2-0.9-4.9-1.2c-0.5-0.1-1.1,0.3-1.7,0.5
		c-0.1,0.6-0.2,1.2-0.3,1.9h0c0,0.6,0,1.1,0,1.6c0.5,0.3,0.9,0.7,1.2,1.1c-0.4,0.1-0.8,0.3-1.1,0.4c0.2,2.1,0.4,4,0.8,5.5
		c0.6,2.2,4.7,3.2,6,1.9c0.1-0.2,0.1-0.4,0.2-0.7c-0.2,0.1-0.5,0.2-0.7,0.2c-0.3,0.1-0.7-0.4-0.9-0.7c-0.1-0.2,0.2-0.7,0.5-0.9
		c0.6-0.5,1.2-0.6,1.8-0.5c0.3-0.8,0.5-1.6,0.8-2.4c-0.1,0-0.1,0-0.2,0c-0.3-0.1-0.4-0.6-0.9-1.2c0.7-0.1,1.2-0.2,1.5-0.1
		c0.2-0.5,0.3-1,0.5-1.4c-0.3-0.1-0.6-0.3-0.9-0.7c0.4-0.8,0.9-1,1.4-0.8c0.1-0.3,0.2-0.6,0.3-1c-0.2,0-0.4,0.1-0.6,0.1
		C273,59.1,272.4,58.9,272.1,58.6z M458.8,61c2.7,0.7,4.2,1,5.2,0.8c0-0.2-0.1-0.4-0.1-0.6c-1-0.1-2,0.1-2.8-0.8
		c0.3-0.4,0.6-0.8,1-1.2C460.4,58.7,459.7,59.9,458.8,61z M217.3,24.6c0.2-0.9-0.8-3.4-7.3-5.5c0,0-1.1,2.4-1.7,5.4
		c2.7,0.9,5.5,1.8,8.2,2.6C216.8,26.3,217.1,25.4,217.3,24.6z M24.3,19.4c-0.3-0.3-0.7-0.6-1-0.7c-1.1-0.4-2.2-0.7-3.3-1.1
		c-8.2,0-17.7,4.9-20,13.1c10-6.4,20-7.3,30-6.4c-1-1.1-2.3-1.8-3.4-2.7C25.8,20.9,25.1,20.1,24.3,19.4z M580,44
		C580.1,44,580.1,44,580,44L580,44C580,44,580,44,580,44z M577.5,46.4C577.5,46.4,577.5,46.4,577.5,46.4
		C577.5,46.4,577.5,46.3,577.5,46.4C577.5,46.3,577.5,46.3,577.5,46.4C577.4,46.3,577.4,46.3,577.5,46.4z M580.1,44
		c0.5,0.4,0.9,0.7,1.4,1.1c0.1-0.5,0.2-1,0.3-1.6c-0.2-0.2-0.5-0.4-0.7-0.6C580.7,43.2,580.4,43.6,580.1,44z M576.1,39.7
		c0.6,1.7,2.3,2.3,2.7,4.3c-0.4-0.1-0.9,0-1-0.2c-0.6-0.8-1.4-1-2.2-1.1c-0.8-0.1-1.6-0.2-2.3-0.7c-0.3-0.3-1,0.2-1.7,0.4
		c0,0.1-0.1,0.1-0.1,0.2c0.7,1.1,1.1,1.9,1.7,2.8c0.7-0.1,1.6-0.2,2.4-0.4c0.9-0.2,1.5,0.2,1.8,1.3c1,0.2,2,0.3,3.4,0.5
		c-0.3-0.8-0.6-1.3-0.8-1.9c-0.1-0.3,0-0.6,0-1c0,0,0,0,0,0C579.2,41.9,578,40.2,576.1,39.7z M319.5,40.5c0.2,0,0.5-0.1,0.7-0.2
		c-0.1-0.2-0.1-0.5-0.2-0.5c-0.2-0.1-0.4,0-0.8,0C319.4,40.2,319.4,40.5,319.5,40.5z M536.6,61.1c-0.3,0.6-0.5,1.4-1,1.7
		c-0.9,0.6-0.8-1-1.5-1.1c-0.4,0.4-0.8,0.8-1.2,1.3c-0.5-0.7-0.9-1.3-1.2-1.9c0.3,1.2,0.8,2.2,1.3,3.2c-0.2,0.1-0.3,0.1-0.5,0.2
		c0,0,0,0.1,0,0.1c-0.2,0.1-0.5,0.1-0.7,0.2c-4.3,1.6-7.3,1.5-9.4-0.2c-0.1,0-0.1,0-0.2-0.1c-0.2,0.4-0.4,0.9-0.7,1.6
		c3.2,0.1,6.1,0.1,9.1,0.2c2.6,0,2.6,0,3.4-2.6c0.9,0.4,3.3,0.6,5.7,0.5c0.3,0,0.6,0,0.9,0c-0.2-0.4-0.3-0.8-0.4-1.3
		C538.6,62.8,538.3,62.6,536.6,61.1z M439.7,33.8c0.5,0.1,0.9,0.5,1.2,0.7c0.9,0.1,1.7,0.2,2.5,0.4c-2-1.8-4.7-2.2-7.4-1.3
		c0.1,0,0.2,0.1,0.3,0.1C437.4,33.7,438.5,33.7,439.7,33.8z M519.2,63.2c0.7,0,1.5,0,2.2,0.1c-0.2-0.3-0.4-0.7-0.6-1.1
		c-0.1,0-0.2,0-0.3,0c-1.8,0-3.7-0.5-5.6-0.3l-0.1-0.5l1.2-0.8c-0.7-0.5-1.3-0.5-2-0.6c-0.2,0-0.4,0-0.6,0c0.3,1,0.7,2,1.2,3
		C516.1,63,517.6,63.1,519.2,63.2z M95.8,65.4c-5.1,1.3-8.1-0.5-9.4-4.8c-0.2-0.1-0.5-0.2-0.7-0.3c-1.6-0.7-3.1-1.6-4.6-2.3
		c-0.7-0.3-1.4-0.3-2.2-0.5c1.5,7.5,6.2,15.2,19.7,9.1C97.7,66.3,96.7,65.9,95.8,65.4z M461.5,63.7l0.1-0.6l-4-1
		C458.6,63.9,460.1,63.7,461.5,63.7z M477.9,65.2c-0.2-0.1-0.4-0.3-0.5-0.6c-0.2-0.5-0.1-0.8,0-1.2c-0.8,0.5-1.6,1-2.3,1.4
		c0,0.1-0.1,0.2-0.1,0.3c-0.1,0-0.2,0-0.3-0.1c-0.5,0.3-1,0.5-1.5,0.7c0.2,0,0.4,0,0.6,0c1,0.1,1.9,0.2,2.9,0.2
		C477.1,65.8,477.5,65.5,477.9,65.2z M429.9,44.1c0,0.1,0.1,0.3,0.2,0.4c0.5,0.1,1.1,0.1,1.6,0.2c-0.3-0.6-0.9-1.1-0.8-1.6
		c0.2-2-0.8-3.3-1.9-4.5c0,0.1-0.1,0.1-0.1,0.2c0.1,0.7,0,1.6,0.3,2.1C429.9,41.9,430,42.9,429.9,44.1z M447.3,39.9
		c1.1,0.5,2,0.8,2.3,2.1c0.9-0.3,1.7-0.5,2.6-0.8c0.2-2.5,0.3-4.2,0.3-5c0.1-0.9-4-1.9-8.5-2.9c-0.1,0.6-0.1,1.4-0.1,2.2
		c0,0-0.1-0.1-0.1-0.1c0,0.3,0,0.6,0,0.9c-1.2-1.1-2.9,0.9-3.8-0.9c0,0-0.3,0.2-0.5,0.3c-0.3,0.1-0.8,0.3-1,0.1
		c-1.1-1-2-0.2-3.1,0.9c-0.3-1.3-1-2-1.8-2.3c-1.2,0.6-2.3,1.5-3.3,2.4c1,0,2,0.1,3,0.3C438.1,38.2,442.9,37.7,447.3,39.9z
		 M446,35.4c0.3,0.2,0.5,0.6,0.6,1c0,0.1-0.5,0.6-0.6,0.6c-0.3-0.1-0.5-0.4-0.9-0.8C445.6,35.7,445.9,35.3,446,35.4z M574.2,47.5
		c1.2,1.2,1.1,2.9,1.6,4.2c0.8,0.3,1.5,0.6,2.3,0.8c0.3-0.3,0.7-0.7,1.1-1.1c0.5,0.2,1,0.6,1.5,0.7c0-0.5,0.1-1.1,0.1-1.6
		c-0.6-0.4-1.2-0.6-2-0.3c-0.8,0.2-1.7,0.4-2.3-1.2c0.8,0.1,1.4,0.2,2.1,0.3c-0.4-1.1-0.8-2-1.1-2.9c-0.9-0.2-1.7-0.5-2.6-0.5
		C574.1,45.9,573.6,47,574.2,47.5z M333.6,51.7c0.7,1.1,1.5,1.1,2.6,0.6c0.5-0.2,1.1,0,1.7,0.1c0.6,0.1,1.2,0.3,1.8,0.4
		c0.1-1.3,0.2-2.8,0.4-4.3l-6.6-1.5l-1.5-0.4c-0.1,1.9-0.3,4-0.7,5.9c0.3,0.1,0.5,0.3,0.8,0.5c0.1-0.8,0.1-1.2,0.2-1.8
		C332.7,51.4,333.4,51.3,333.6,51.7z M322,50.6c0.1-0.4,0.2-0.8,0.2-1.2c-0.5-0.2-1-0.6-1.4-1.1c0.5,0.1,1,0.2,1.6,0.3
		c0.3-1.4,0.8-2.7,1.3-3.9c-1.3-0.3-2.6-0.6-3.9-0.9c-0.7-0.2-1.5-0.1-2.3-0.1c-0.2,0-0.5,0.1-0.6,0c-0.3-0.6-0.9-0.8-1.4-0.9
		c-0.4,1-0.8,2-1.2,3l2,0.5c-1,0.8-1.6,0.6-2.1-0.3c-0.2,0.8-0.4,1.6-0.6,2.3c1.3,0.4,2.6,0.8,4,1.1C319.1,49.8,320.6,50.2,322,50.6
		z M358.1,57.1c0.2-1.2,0.3-2.5,0.6-3.8c-0.3,0-0.7,0-1,0c-1.2-0.5-2.3-1.2-3.5-1.5c-0.9-0.2-1.8-0.4-2.8-0.6
		c-0.1,1.5-0.2,2.9-0.2,4.4c1.9,0.4,3.7,0.8,5.6,1.2C357.2,56.9,357.7,57,358.1,57.1z M601,46.4c0.1-0.3,0.1-0.7,0.2-1
		c-0.7-0.2-1.4-0.5-2-1.3c-0.4-0.5-1-0.8-1.6-1.1c-1-0.5-1.7-0.2-1.9,1.1c-0.1,0.8-0.2,1.7-0.4,2.8c-0.3,0-0.7,0.1-1.1,0.2
		c0.8,2.2,2.5,1.7,3.8,2.2c0.4-0.5,0.7-0.9,1.1-1.3c0.5,0.3,1.1,0.5,1.6,0.8c0.1-0.4,0.1-0.8,0.2-1.3c0,0,0-0.1,0-0.1
		c-0.2,0-0.3,0.1-0.5,0.1c-0.1,0-0.3-0.5-0.2-0.6C600.4,46.3,600.6,46.1,601,46.4z M72.5,52.5c-1.3,3.3-2.4,6.3-3.1,8.5
		c0.2-2.4,0.6-5.5,1.2-8.9c-0.5,0-1,0-1.6,0.1c-0.5-0.7-1.1-1.2-1.5-1.9c-0.6-1-1.3-1.7-2.7-1.5c-0.5,0.1-1.2-0.5-1.7-0.9
		c0,0-0.1-0.1-0.1-0.1c-0.8,6.9-0.7,13.8,0.9,19.3c0.6,2.2,5.1,3.1,6.1,1.9c1.9-5.7,3.4-10.5,4.8-14.4
		C74.3,53.7,73.5,52.9,72.5,52.5z M191.5,47.4C191.5,47.4,191.5,47.4,191.5,47.4c-0.8-0.3-1.7-0.6-2.6-0.9c-0.8-0.2-1.5,0.1-2,1
		c1.1,0.6,2.7,1.1,4.4,1.4C191.3,48.4,191.4,47.9,191.5,47.4z M203.1,47.3c1.2-0.3,1.5,0.4,2,1.2c1.2-0.5,2.3-0.6,3.2,0.5
		c0.3,0.3,0.8,0.4,1.3,0.5c0.4,0.1,0.9,0.1,1.4,0.1c0.1-1.1,0.3-2.3,0.5-3.6c-0.3,0-0.6,0-1-0.1c-1.5-0.2-3.2,0.1-4.5-1
		c-0.5-0.4-1.3-0.6-2-0.6c-0.4,0-0.7,0-1,0c-0.2,1.1-0.3,2.1-0.4,3.1C202.8,47.4,203,47.3,203.1,47.3z M196.5,27
		C196.5,26.9,196.5,26.9,196.5,27c0.1-0.4,0.1-1-0.4-1.7l-6.4-2.2c-0.3-0.1-0.6-0.2-1-0.3c-0.1,0.4-0.3,0.8-0.4,1.2
		c0.7,0.3,1.4,0.6,2.1,0.8L196.5,27z M178.7,37.3c-0.6-0.1-1.3-0.3-1.9-0.5l-0.3,0.5c0.1,0.2,0.1,0.5,0.2,0.6c0.8,0.3,1.7,0.6,2.5,1
		c0,0,0-0.1,0-0.1C179.2,38.2,179,37.7,178.7,37.3z M186.9,41.2c0-1.3-0.8-1.6-1.7-1.8c-0.3-0.1-0.7-0.2-1.1-0.3
		c-0.1,0.5-0.2,1-0.3,1.4c0.7,0.3,1.5,0.6,2.2,0.8C186.2,41.4,186.5,41.3,186.9,41.2z M568.4,36.8C568.4,36.8,568.4,36.8,568.4,36.8
		c-0.1-0.2-0.3-0.4-0.6-0.6c-0.1,0.1-0.1,0.2-0.2,0.3C568,36.7,568.2,36.9,568.4,36.8z M185.2,45.7c-0.5-1.1-1.1-1.3-2.1-1
		c0,0.2-0.1,0.4-0.1,0.6C183.6,46,184.3,46.1,185.2,45.7z M222.9,57.6c-0.2-0.2-0.4-0.4-0.7-0.5c0,0.2,0,0.4,0.1,0.7
		C222.4,57.7,222.6,57.6,222.9,57.6z M600.2,57c-1.2,0.5-2.4-0.2-3.6-0.6c-0.2,1.8-0.4,3.4-0.7,5.6c0.1,0.8,2.2,0.5,2.4,2
		c-1.3,0-2.5,0-3.8,0c-0.7,0.3-1.3,0.6-1.9,0.8c0.1,0.3,0.2,0.5,0.3,0.8c-0.6,0.6-1.2,1.2-2,2c1.5-0.5,3.1-1.2,4.8-2.2
		c4.1,5.3,11.3,6.1,21.7,0l-0.6-1.6C605.6,70,600.6,66.7,600.2,57z M597.5,60.8c0.4,0.2,0.9,0.3,1.5,0.6
		C597.9,62.4,597.7,61.8,597.5,60.8z M68.5,24.4c-0.1,0.3-0.2,0.6-0.3,0.9c0.4,0.2,0.9,0.4,1.7,0.4C69.3,25.1,68.9,24.6,68.5,24.4z
		 M600.2,54.7c0-0.3,0-0.5,0-0.8c-0.3-0.1-0.6-0.2-0.9-0.3c-0.7-0.2-1.4-0.5-2.2-0.8C597.6,54.7,598.6,55.2,600.2,54.7z M247.8,61.1
		c0.5,0.3,0.9,0.7,1.4,1.1c1-0.8,2-1.5,2.1-1.5l-0.8-1.5C250.5,59.2,249.1,60.2,247.8,61.1z M85.2,16.2c-1-1.7-2.4-2.8-4.7-2.7
		c-0.6,0-1.2-0.5-1.7-0.8l-2-1.2c-0.7,0.5-1.4,1.1-2.1,1.8c2.4,1.6,4.8,3.2,7.1,4.8C83.1,16.8,84.3,16.2,85.2,16.2z M582.3,63
		c0.2,1.4,0.6,2.4,1.7,2.5c1.2,0,1.6,0.8,2.2,1.7c1.3-0.6,2.6-1.2,3.8-0.1c0.2-0.5,0.3-1,0.3-1.5C586.5,66.4,583.9,65.5,582.3,63z
		 M177.2,44.5c0,0.3-0.1,0.6-0.1,0.9c0.5,0.1,1,0.1,1.7-0.3C178.2,44.9,177.7,44.7,177.2,44.5z M114.4,36.4
		c-0.2-0.7-0.3-1.4-0.6-2.3c2.1,0.6,4.1,1.2,6,1.9c0.1,0,0.1,0.1,0.2,0.1c-0.2-0.3-0.5-0.6-0.7-0.9c-2.3-2.4-5.5-2.9-8.8-2
		C112,33.9,113.6,34.6,114.4,36.4z M592.2,54.8c0,0.5,0.1,1,0.2,1.5c1.1-0.1,2.1-0.2,3.3-0.3c-0.8-1-1.8-0.9-2.9-1.1
		C592.5,54.8,592.4,54.8,592.2,54.8z M136.5,37.6c0.2-0.8,0.4-1.6,0.6-2.4c-0.7-0.1-1.5-0.2-2.3,0c0-0.7,0-1.2,0.1-1.8
		c-0.2,0-0.5,0-0.7,0.1c-1.1,0.5-2.1,0.5-3.1,0c-0.5-0.2-1-0.4-1.5-0.5c-0.4,0-0.8-0.1-1.1-0.2c-0.2,0.7-0.3,1.4-0.5,2.1
		c2.2,0.5,4.5,0.4,6.4,1.8C135,37,135.7,37.2,136.5,37.6z M515.6,37c0.2,1.4,0.5,2.6-0.8,3.2c0.1,0.3,0.1,0.7,0.2,0.9
		c0.5,1,0.9,0.9,1.4,0c0.1-0.2,0.2-0.5,0.5-1.2c0.6,2.3,2,2.2,3.4,2.2c0.2,0,0.4,0,0.6,0c0.2-1,0.4-2,0.7-3.1
		c-0.4,0-0.8-0.1-1.2-0.2c-0.7-0.2-0.7-0.8-0.2-1.4c0.5,0.2,1,0.3,1.6,0.4c0-0.2,0.1-0.4,0.1-0.6c0.1-0.5-1.6-1.3-3.3-1.8
		c-0.2,0.1-0.4,0.2-0.6,0.4c-0.1,0.1-0.4,0-0.5-0.2c-0.8-0.9-1.7-0.7-2.4-0.2c-0.5,0.4-1.1,1.1-1.7,1.9
		C514.1,37.9,514.8,37.5,515.6,37z M518.5,37.2c0.3,0.1,0.6,0.9,0.7,1.5c0.1,0.6-0.1,1.2-0.2,2.1c-0.9-1-1.5-1.7-2.2-2.5
		C516.9,37,517.8,37,518.5,37.2z M130.1,31.2l-1.1-0.3c0,0.2-0.1,0.3-0.1,0.5l1,0.5L130.1,31.2z M134.8,40.8c0,0.5,0,0.8,0.1,1.3
		c0.2-0.1,0.5-0.1,0.7-0.2c0.3-1.4,0.6-2.8,1-4.2c-0.6,0.3-1.2,0.6-1.7,0.5c-2.1-0.4-4.2-0.8-6.2-1.5c-0.3-0.1-0.7-0.2-1-0.3
		c-0.2,1.1-0.5,2.2-0.7,3.2c0.2,0.1,0.4,0.2,0.6,0.3C129.9,41.1,132.2,41.8,134.8,40.8z M330.7,36.9c1.1,0.1,2.2,0.2,3.3,0.4
		c1.3,0.2,2.6,0.9,3.9,0.8c1.6-0.2,2.8,0.2,3.9,1c0.1-0.5,0.2-1.1,0.4-1.6c0.1-0.2,0-0.5-0.2-0.8c-1.4-0.1-2.6-0.5-3.8-1.4
		c-1.2-0.9-2.6-1.2-4-1.3c-0.2,0.8-0.4,1.5-0.7,2.3c-0.1-0.1-0.1-0.2-0.2-0.4c-0.6-0.8-1.3-1.4-2.1-1.9c-0.1,0-0.2,0-0.3,0
		c-0.5,0-1.1-0.3-1.4-0.1c-1,0.7-1.9,0.2-2.8,0c-0.5-0.1-1-0.3-1.5-0.4c-0.7,0.2-1.5,0.5-2.2,0.9c0,0-0.1,0.1-0.1,0.1
		c2.5,0.5,5.1,0.9,7.4,2.3C330.3,36.9,330.5,36.8,330.7,36.9z M152.4,48c0.6,0.3,1.1,0.9,1.5,1.3c0.4-3,1-6.3,1.8-10
		c-0.8,0-1.6,0-2.4-0.1c-0.6,0-1.5-0.1-1.6-0.5c-0.7-1.5-2.1-1.7-3.3-2.3c-0.3-0.1-0.5-0.2-0.8-0.4c-0.1,0.5-0.3,1-0.4,1.5
		c0.7,0.3,1.3,0.5,1.9,0.8c-0.6-0.2-1.4,0.1-2.1,0c-0.2,0.8-0.4,1.6-0.5,2.4c0.6,0.3,1.2,0.8,1.6,1.5c-0.5,0.2-1.1,0.1-1.9-0.1
		c-0.3,1.4-0.5,2.8-0.6,4.1c0.3,0.1,0.7,0.2,1,0.2C148.8,46.3,150.6,47.1,152.4,48z M152,43.2c0.1,0.1,0,0.5-0.2,0.6
		c-0.7,0.5-1.2,0.3-1.7-0.6C150.9,42.6,151.5,42.5,152,43.2z M209.1,31.1c0.8,0.3,1.6,0.4,2.1,1.4c0.3,0.6,1.2,0.7,2,1.1
		c-0.3,0.3-0.5,0.6-0.6,0.5c-0.7-0.3-1.4-0.6-2-0.8c0.9,0.8,2.1,1.5,3.7,1.9c0.5-1.8,1.2-4,1.9-6.2c-0.8-0.3-1.6-0.5-2.3-0.8
		c-1.2-0.4-2.4-0.4-3.6,0c-0.6,0.2-1.3,0.4-1.9,0.5c0.1,0.8,0.3,1.6,0.6,2.3L209.1,31.1z M163.9,52.4c1.6,0.2,3.1,1,4.6,1.6l4.7,1.7
		c-0.5-3.9-0.4-7-0.1-9.5c-0.9-0.4-1.7-1-2.5-1.8c-0.5-0.5-1.5-0.7-2.3-0.6c-0.8,0.1-1.4,0.1-2-0.6c-0.7-0.9-1.5-1.5-2.5-1.5
		c-0.5,3.7-0.3,7.8,0.1,10.6C163.9,52.3,163.9,52.3,163.9,52.4z M107.5,44.9c0.1-0.3,0.3-0.6,0.5-0.9l-4.1-2l-2.9-1.4
		c-0.2,0.3-0.4,0.7-0.6,1c0.6,0.2,1.1,0.4,1.6,0.7C103.8,43.3,105.7,44.1,107.5,44.9z M227.9,48.3c0.2,0.3,0.9,0.4,1.3,0.4
		c0.7,0.1,1.4,0.1,2,0.1c0.4-1,0.8-1.9,1.3-2.7c-1.3-0.7-2.7-1.1-3.8-0.8c0.7,0.5,1.3,0.9,2.3,1.5c-1.5,0.6-2.4,0.3-2.8-0.4
		c-0.7-0.9-1.4-1.6-2.3-2.1c-0.4-0.2-0.7-0.5-1.1-0.7c-0.4,0.8-0.7,1.7-1.1,2.5l1.5,0.5C226.2,47.1,227.3,47.2,227.9,48.3z
		 M592.2,48.2c0.2,0,0.4,0.1,0.7,0.1c-0.2-0.3-0.4-0.5-0.6-0.7C592.2,47.7,592.2,47.9,592.2,48.2z M175.7,34.5
		C175.7,34.5,175.7,34.5,175.7,34.5c-0.9-0.5-1.9-0.8-2.8-1c-0.1,0-0.1,0-0.2,0C173.5,35.2,174,35.4,175.7,34.5z M323.6,41
		c-0.2-0.3-0.3-0.7-0.6-0.7c-0.3-0.1-0.7,0.2-1.4,0.4c0.6,0.4,0.9,0.8,1.2,0.8C323,41.5,323.3,41.2,323.6,41z M561.5,50.8
		c-0.8,0.8-1.6,1.4-2.6,0.3c-0.1-0.2-0.6,0-0.8,0.1c0,0,0,0,0,0c-0.1,0.7-0.1,1.3-0.1,2c0.4-0.1,0.7-0.3,0.9-0.9
		c1.4,0.9,1.4,1,4.4-0.9C562.7,50,562.1,50.2,561.5,50.8z M533.1,58.4c1.5,0.5,3.1,0.9,4.8,0.4c0-0.9,0-1.7,0-2.6
		c-1.6-0.1-3.1-0.7-4.3,1.1c-0.5-0.8-0.9-1.5-1.3-2.1c-0.6,0.4-0.5,1.7-1.3,1.7c0,0.5,0.1,1,0.2,1.6
		C531.9,58.1,532.5,58.2,533.1,58.4z M520.3,61c-0.1-0.3-0.2-0.6-0.3-1c-0.9,0-1.8,0.3-2.5,0.6C518.4,60.8,519.3,61,520.3,61z
		 M558.7,44.8c-0.1,0.5-0.1,1.1-0.2,1.6c0.3,0,0.5,0,0.8,0C559.5,45.5,559.3,44.9,558.7,44.8z M540.7,50.9c-0.1,0-0.1-0.1-0.2-0.1
		c-0.2,0-0.5,0.3-1,0.6c0.4,0.3,0.6,0.5,0.8,0.6C540.5,51.7,540.6,51.3,540.7,50.9z M552.3,65.8l0.1,0.5c0.4-0.2,0.8-0.5,1.2-0.7
		C553,65.1,552.6,65.3,552.3,65.8z M481.9,62.4C481.9,62.4,481.9,62.4,481.9,62.4C481.9,62.4,481.9,62.4,481.9,62.4
		c2.3,0.4,4.6,0.3,6.8,0.4c0-0.8-0.1-1.3-0.1-1.8c0-0.2,0-0.5-0.1-0.7c-0.1,0.2-0.2,0.5-0.2,0.7c0-0.3,0.1-0.6,0.1-0.8
		c-1.3-0.2-0.3-1.4-0.4-1.9c-1.2-0.5-2.2-1-3.2-1.4c-0.9,0.5-1.9,1-2.8,1.5c-0.1-0.1-0.2-0.2-0.2-0.2c0,0.7,0,1.5,0.1,2.2
		c-0.6,0.5-1.4,1-2.1,1.5C480.4,62.1,481.2,62.2,481.9,62.4z M484.3,59.7c0.9,0.4,1.8,0.9,3.1,1.6c-0.6,0.3-1,0.8-1.3,0.7
		c-1.4-0.3-3,0.5-4.3-1C482.8,60.5,483.6,60.1,484.3,59.7z M514.2,53.7c0.1-0.1,0.1-0.3,0.2-0.5c-0.3-0.2-0.5-0.4-0.8-0.5
		c-0.2,0-0.4,0.1-0.6,0.2C513.1,53.8,513.5,54.1,514.2,53.7z M470.8,49.8L470.8,49.8L470.8,49.8C470.8,49.8,470.8,49.8,470.8,49.8
		c-0.2,0.7,0.1,1.5-0.2,2.2c0.7-0.7,1.5-1.4,2.1-2.1C472,49.8,471.4,49.7,470.8,49.8C470.8,49.7,470.8,49.7,470.8,49.8z M537.4,68.7
		c0.2,0.1,0.4,0.2,0.7,0.3c0-0.2,0-0.5,0-0.7l-0.4-0.1C537.6,68.4,537.5,68.6,537.4,68.7z M542.4,44.2l1.3,0l0,0.2
		c0.3-0.4,0.5-0.7,0.8-1.1c-1.3-0.6-2.6-1.1-3.5-2.2c-1.2-1.3-2.3-1.5-3.6-1.2c-0.7,0.2-1.4,0.1-2.1,0c-0.4,0.5-0.7,1.1-1,1.6
		c0.6,0.6,1.3,0.6,2.2,0.6c0,2.2,1.3,2.1,2.6,1.9c0.5,0,1,0.1,1.6,0.2c-0.8,1.3-0.8,1.4-1.3,1.1c-1.4-0.8-2.8-0.2-4.2-0.3
		c-0.7,0-0.9,0.5-0.8,1.3c1.8,0.9,4,0.3,5.7,1.7c0.1,0.1,0.4,0.1,0.6,0.1c0.3,0,0.6,0.1,0.9,0.1c0.2-0.5,0.5-1,0.7-1.5c0,0,0,0,0,0
		l0-0.5c0.1,0,0.2,0,0.4-0.1c0.3-0.6,0.6-1.1,1-1.6l-1.2,0.1L542.4,44.2z M539.8,58.4c0-0.1,0-0.2,0-0.4c-0.1,0-0.2,0-0.3,0
		C539.5,58.2,539.7,58.3,539.8,58.4z M537.8,50.9c-0.2,0-0.4,0.4-0.6,0.6c0.2,0.3,0.4,0.5,0.7,0.9c0.3-0.3,0.5-0.6,0.7-0.8
		C538.3,51.4,538.1,51,537.8,50.9z M545,40.5c0.8,0.7,1.5,0.5,2.3,0.1C546.7,39.2,546.1,39.1,545,40.5z M531.2,51.1
		c0,0.3-0.1,0.7-0.1,1c0.6-0.1,1.2-0.3,1.9-0.5C532.4,51.4,531.8,51.3,531.2,51.1z M530.9,55C530.9,55,530.9,55,530.9,55
		C530.9,55,530.9,55,530.9,55C530.9,55,530.9,55,530.9,55z M533.2,45.2c-0.1-0.2-0.2-0.4-0.3-0.5c-0.1,0.3-0.2,0.6-0.4,1
		c0.4,0.7,0.4,1.5,0.5,2.3C533.6,47,533.5,46,533.2,45.2z M624.9,0.4c14.4,9.7,0.8,35.9-20.9,33.7c0.6-2.4,1.3-4.7,1.9-7.2
		c0.3-0.9-0.7-3.4-7.3-5.5c-0.7,2.1-1.6,4.7-2.5,7.7c0.4,0.5,1,1.1,0.4,1.8c-0.3,0.4-0.7,0.3-1,0.1c-0.2,0.8-0.5,1.5-0.7,2.3
		c-1.3-0.2-2.3-0.4-3.1-0.5c-0.1,0-0.1,0-0.2,0.1c1.1,0.7,1.7,1.1,2.3,1.6c0,0.3-0.1,0.6-0.1,1c0.2,0,0.4,0.1,0.5,0.1
		c-0.4,1.6-0.8,3.2-1.1,4.7c0,0,0,0,0,0c0,0.1-0.1,0.1-0.1,0.2c-0.2,1.1-0.4,2.2-0.6,3.3c0.5,0.3,1,0.7,1.5,1c0-0.5-0.1-1.4,0.1-1.5
		c0.8-0.6,1-1.2,0.4-2.4c-0.3-0.7,0-1.7,0-2.5l0.4,0c0.4,0.6,0.8,1.3,1.3,2.1c0.9-1.3,1.7-2.6,2.7-4.1c0-0.1-0.2-0.7-0.4-1.3l0,0
		c0,0,0,0,0,0c0,0,0,0,0,0c-0.7-0.3-1.3-0.7-2-0.9c-0.8-0.2-1.1-0.7-1.2-1.7c0.9-0.2,1.8-0.4,2.7-0.6c0.9-0.2,1.7-0.5,2.6-0.7
		c0.1,0,0.3,0.3,0.5,0.6c-0.8,1.2-2.6,1.2-2.6,3.3c0,0,0,0,0,0c0.6-0.3,1.2-0.6,1.8-0.9c0.3-0.1,0.6-0.1,1-0.1
		c0.1,0.4,0.3,0.9,0.3,1.3c-0.1,1.5-0.2,3-0.4,4.7c-1.9-1.3-2.2,0.4-3,1.4c1.4,1.6,2.5-0.1,3.6,0.3c0,0,0,0,0,0
		c0.4-1.6,0.8-3.3,1.2-4.8c-0.3-0.2-0.5-0.3-0.7-0.5c0.1-0.2,0.1-0.5,0.2-0.6c0-0.1,0.4,0.1,0.5,0.2c0.1,0.2,0.1,0.4,0.1,0.7
		c0-0.1,0-0.1,0-0.2c19.3,1.2,35.2-14.9,35.6-25.5C639.3-0.3,623.3-0.6,624.9,0.4z M595.6,35.4c0.4-0.3,0.9-0.1,1.2,0.6
		c0.1,0.4,0,0.8,0,1.5c-0.6-0.5-1-0.7-1.3-1.2C595.3,36.3,595.5,35.6,595.6,35.4z M598.5,27.9c-1.1-0.5-1-0.5-1-2
		C598.3,26.3,598.6,27,598.5,27.9z M600.1,26.3l-0.7-0.5l0-0.3l0.7,0.4L600.1,26.3z M601.1,23.5c-0.1,0.1-0.5-0.2-0.9-0.3
		c0.1-0.4,0-0.9,0.2-1c0.2-0.1,0.5,0.1,0.7,0.2C601.1,22.8,601.2,23.2,601.1,23.5z M601.3,26c0.1-0.3,0-0.9,0.2-1
		c0.3-0.1,0.7,0.1,1,0.2c0,0.4,0,0.8,0,1.5C602,26.4,601.6,26.2,601.3,26z M535.1,43.2c-0.7,0-1.1,0-1.5,0
		C534.1,44.2,534.6,44.3,535.1,43.2z M547.2,38.3c0.8,0.1,1.7,0.2,2.5,0.1c0.3-0.1,0.6-0.7,1.1-1.4c-0.7-0.6-1.2-1.3-1.6-1.3
		c-2-0.1-4.1-0.3-6.1,0.3c-1.1,0.3-2.2,0-2.8-0.4c-0.1-0.1-0.3-0.2-0.4-0.2c-1.2,0.8-2.2,1.7-3.2,2.8c3.1,0,6.2,0,9.2-0.1
		C546.4,38,546.8,38.2,547.2,38.3z M536.1,51.2c-1-0.4-1.7-0.7-2.7,0.4C534.5,52.3,535.3,52.7,536.1,51.2z M549,39.5
		c-0.1,0-0.3,0.2-0.4,0.5c0.6-0.2,1.1-0.3,1.5-0.3c0.4,0.1,0.6,0.3,0.7,0.7c0.2,0,0.4,0,0.6,0C550.5,39,549.7,39.4,549,39.5z
		 M553.9,63.8c0,0.2,0.3,0.6,0.5,0.6c0.2,0,0.5-0.3,0.5-0.5c0-0.2-0.2-0.5-0.5-0.9C554.1,63.4,553.8,63.6,553.9,63.8z M553.7,36.4
		c-0.8,0-1.6,0.1-2.6,0.2C552.5,38.1,553,38.1,553.7,36.4z M457,57.2c1.4,0.1,2.8,0.3,4.2,0.4c0.8,0.1,1.6,0.2,2.5,0.3
		c0,0,0-0.1,0-0.1c0.3-0.3,0.6-0.5,1-0.7c-0.6-0.5-1-0.9-1.4-1.4c-0.9-1.1-1.4-0.5-1.9,0.1c-0.8-0.4-1.5-1-2.3-1.1
		c-1.1-0.2-2.2,0-3.3,0c-0.3,0-0.6,0-0.9-0.1c0,0.8,0,1.5,0.1,2.3C455.7,56.9,456.4,57.1,457,57.2z M544.1,50.9
		c-0.8,0.6-0.5,1.3,0,2.2c0.8-0.7,1.2-1.2,0.8-2.1C544.7,50.8,544.3,50.8,544.1,50.9z M549.8,44.6c-0.3,0.1-0.5,0.2-0.8,0.2
		c-0.4,0.6-0.9,1.3-1.5,2.1c1,0.1,2.1-0.2,3.1,0c0.2,0,0.5,0,0.8-0.1c0.2-0.2,0.3-0.5,0.5-0.7C551.3,44.5,550.8,44.2,549.8,44.6z
		 M495.3,47.3c-0.3,1-1.4,1.3-1,2.5c0.2,0.1,0.6,0.2,0.9,0.4c0.1,0.1,0.2,0.1,0.2,0.2c0.4-0.8,0.7-1.5,1.1-2.2
		c-0.3-0.1-0.5-0.4-0.6-0.9c-0.2-1.1,0.3-1.6,1.6-2.2c-0.3-1.2-0.1-1.2,0-2.8c0.1-1,0.3-2.1-0.1-3.1c-0.2,0.3-0.4,0.6-0.5,1
		c0,0.1,0,0.1,0,0.2c-0.1,0-0.2,0.1-0.2,0.1c-0.4,0.8-0.9,1.7-1.3,2.7c0.2,0.2,0.4,0.5,0.6,0.9c-0.4,0.1-0.7,0.2-1.1,0.2
		c-0.2,0.4-0.4,0.9-0.6,1.3c0.1,0,0.1,0.1,0.2,0.1C494.8,46.2,495.1,46.9,495.3,47.3z M492.3,58.3c-0.7-0.4-1.5-0.3-2.6,0.3
		c0.6,0.7,1.5,0.2,2.3,0.6C492.1,58.9,492.2,58.6,492.3,58.3z M500.2,40.3c-0.1-0.7-0.2-1.2-0.2-1.6c1-0.4,2,0.5,2.9-0.6
		c-1.5-1.1-3,0.2-4.5-0.2C499.1,38.6,498.5,40.5,500.2,40.3z M486.3,50.4c-0.1,0.1-0.4,0.5-0.6,0.8c0.9,1.6,0.9,1.5,2.4,1
		c0.4-0.2,0.9-0.1,1.4-0.2c0.1-0.3,0.1-0.6,0.2-1C488.5,50.9,487.5,50.6,486.3,50.4z M488.8,55.7c0-0.3,0.1-0.6,0.1-0.8
		c-0.3,0.2-0.7,0.4-1.1,0.6C488.2,55.6,488.6,55.6,488.8,55.7z M463.4,59.3l0,0.3c0.1,0,0.3,0.1,0.4,0.1c0-0.1,0-0.2,0-0.4
		C463.6,59.3,463.5,59.3,463.4,59.3z M172.8,70.8l-6.5-2.4c0.4,3.8,0.3,6.9-1.1,8.3c0,0.1,0,0.1,0,0.2c0,0.1-0.3,0.2-0.6,0.3
		c-0.7,0.4-1.6,0.4-2.9,0.1c-18-5.5-39-6.7-57-1.2c-3.5,1.1-5.7,5.1-6.6,11c19-13.5,44.4-14.6,65.1-7.2c2.8,1,5,1,6.7,0.2
		c-0.3-0.2-0.5-0.3-0.7-0.5c-0.6-0.3-1.2-0.7-1.6-1.2c-0.2-0.2-0.4-0.7-0.3-1c0.1-0.2,0.7-0.5,0.9-0.4c1.2,0.3,2.3,0.8,3.8,1.3
		c1.3-1.7,2.1-4.2,2.4-7.3C173.9,71.1,173.4,71,172.8,70.8z M455.2,58.8l0.1-0.2c0,0-0.1,0-0.1,0C455.2,58.6,455.2,58.7,455.2,58.8
		C455.2,58.8,455.2,58.8,455.2,58.8z M491.7,60.1c-0.4,0.2-0.8,0.3-1.1,0.4c0.3,0.1,0.6,0.2,0.9,0.3
		C491.6,60.6,491.7,60.3,491.7,60.1z M488,48.7c0.2-0.6,0.4-1,0.6-1.5c0,1.3,0.7,1.6,1.4,1.8c0.8-3.9,1.6-7.4,2.4-9.7
		c-0.6-0.4-1.4-0.2-2.5,0.8c-0.4,0.4-0.9,0.8-1.4,0.8c-1.3-0.1-2.6-0.4-4-0.6c-0.3,0-0.6-0.1-0.9-0.1c-0.1,0-0.1,0-0.1,0
		c-0.3,1.3-0.5,2.7-0.7,4.1c0.9-0.3,1.7-0.7,2.3-1.6c0.1-0.1,0.4,0,0.9,0c-0.5,1.3-1.4,2.4-0.1,3.3c-1.7,1.8-1.7,1.8-3.3,0.9
		c0,0-0.1,0-0.1,0c-0.1,0.5-0.1,1-0.2,1.4c0.5,0.1,1,0.1,1.5,0.2C485.1,48.6,486.6,48.5,488,48.7z M487.4,43.6
		c0.1,1.1,0.2,1.8,0.2,2.5C486.3,45.2,486.3,45.2,487.4,43.6z M464.3,52.1c0.1-0.6,0.3-1.3,0.5-1.9c-0.4,0-0.9,0.2-1.3,0.5
		C463.9,51.4,464.1,51.8,464.3,52.1z M503.8,35.5c-0.9-0.3-1.7-0.5-2.4-0.5c0.1,0.2,0.2,0.3,0.3,0.5c-0.3-0.1-0.6-0.3-0.9-0.4
		c-0.4,0.2-0.8,0.5-1.3,1C500.8,36.7,502.4,37,503.8,35.5z M489.3,39.4c0.3,0,0.6-0.6,1-1.1c-1.6-0.5-2.8-0.5-4,1
		C487.5,39.4,488.4,39.5,489.3,39.4z M505.1,36.6c0.3-0.1,0.6-0.2,0.9-0.3c-0.4-0.2-0.8-0.4-1.3-0.6c-0.2,0.4-0.4,0.7-0.6,1.1
		c0.5,0.5,0.9,1,1.3,1.5C505.2,37.6,505.1,37.1,505.1,36.6z M455.3,50c-0.1,0.6-0.2,1.3-0.3,1.9c0.5,0.2,0.9,0.6,1.4,0.9
		C456.1,50.9,455.9,50.3,455.3,50z M456.6,49.5c1,1,1.5,1.9,2.7,1.8c0.7,0,1.3,0.6,2,1c0.6,0.4,1,0.5,1.4-0.4
		c-0.4-1.6-1.2-2.4-2.8-2.3C458.9,49.7,457.9,49.6,456.6,49.5z M465.4,42.6c0.3,0.4,0.5,0.7,0.7,0.7c0.2,0,0.4-0.2,0.6-0.4
		c-0.1-0.2-0.3-0.5-0.5-0.6C466.1,42.3,465.8,42.5,465.4,42.6z M470.8,49.7c0-0.6-0.3-1.1-0.7-1.3c-0.6,0.7-1.3,1.5-2.1,2.3
		c0,0.1-0.1,0.2-0.1,0.2c0,0-0.1,0-0.1,0c-0.5,0.5-1,1-1.5,1.5c0.1,0,0.2-0.1,0.4-0.1c0.7-0.2,1.4,0.1,2.2,0.1
		c-0.2,0.6-0.4,1.1-0.5,1.5c0.6-0.5,1.1-1,1.6-1.5c-0.1-0.5-0.3-1-0.4-1.4c-0.1-0.4-0.2-0.9-0.4-1.5
		C469.9,49.7,470.3,49.7,470.8,49.7C470.7,49.7,470.7,49.7,470.8,49.7C470.8,49.7,470.8,49.7,470.8,49.7z M457.7,45.9
		c0.1,0.6,0.2,0.9,0.3,1.3c0.1,0.3,0.3,0.5,0.6,1.1c0.3-1.2,0.5-2,0.7-2.8c0.5,0,0.9,0,1.3,0.1c1.4,0.1,2.6,1.1,4.1,0.5
		c0.7-0.3,1.2,0,1.6,0.3c0.2-0.3,0.4-0.6,0.5-0.9c0,0-0.1,0-0.1,0c-0.8-0.4-1.5-1-2.3-1.2c-0.7-0.2-1.5,0.3-2.3,0.3
		c-1.8,0-1.8,0-4.2-1.7c-0.2,0.2-0.4,0.3-0.7,0.5c-0.4,0.8-0.7,1.6-1,2.5C456.8,45.9,457.2,46.1,457.7,45.9z M465.4,48.6
		c0.2-0.4,0.3-0.7,0.5-1.1c-0.1,0-0.1-0.1-0.2-0.1c-0.1-0.1-0.5,0.3-0.9,0.6C465,48.3,465.2,48.5,465.4,48.6z M475.7,46
		c-0.1,0-0.2,0-0.3,0c-0.7-0.1-1.5,0-2-0.3c-0.3-0.2-0.6-0.4-0.8-0.5c-0.3,0.4-0.6,0.9-1,1.4c1.1,0.1,2.3,0.2,3.4,0.5
		C475.2,46.7,475.5,46.4,475.7,46z"/>
</g>
</svg>
