<?xml version="1.0" encoding="utf-8"?>
<!-- Generator: Adobe Illustrator 18.1.1, SVG Export Plug-In . SVG Version: 6.00 Build 0)  -->
<svg version="1.1" id="Layer_1" xmlns="http://www.w3.org/2000/svg" xmlns:xlink="http://www.w3.org/1999/xlink" x="0px" y="0px"
	 viewBox="248.9 294.7 394.6 181.2" enable-background="new 248.9 294.7 394.6 181.2" xml:space="preserve">
<polyline opacity="0.5" fill="none" stroke="#FFFFFF" stroke-width="0.5" stroke-linecap="round" stroke-linejoin="round" stroke-miterlimit="10" points="
	432.1,360.2 432.1,295 253.4,295 253.4,387.4 "/>
<line opacity="0.5" fill="none" stroke="#FFFFFF" stroke-width="0.5" stroke-linecap="round" stroke-linejoin="round" stroke-miterlimit="10" x1="432.1" y1="408.1" x2="432.1" y2="414.3"/>
<line opacity="0.5" fill="none" stroke="#FFFFFF" stroke-width="0.5" stroke-linecap="round" stroke-linejoin="round" stroke-miterlimit="10" x1="432.1" y1="439.9" x2="432.1" y2="453.1"/>
<polyline opacity="0.5" fill="none" stroke="#FFFFFF" stroke-width="0.5" stroke-linecap="round" stroke-linejoin="round" stroke-miterlimit="10" points="
	253.4,397.8 253.4,473.6 382,473.6 "/>
<g opacity="0.85">
	<path fill="#FFFFFF" d="M256,396.7l-7.1-1.1l25.8-33.8c0.9-1.1,21.7,6.4,20.8,9.2c-5.2,16.3-15.2,89.4-15.5,92.8
		c-14.4-3.7-16.6-8-16.5-9.7c0,0,1.7-34,10.3-78.4L256,396.7z"/>
	<path fill="#FFFFFF" d="M321.5,463.4l-9.7,0.2c22.6-46.8,43.2-89.6,66.6-138.6l5.4,8.4C357.4,381.1,342.8,413.5,321.5,463.4z"/>
	<path fill="#FFFFFF" d="M411.4,469.8c29.4-3.7,32.7-46.8-6.2-43.4c-5,0.4-1.9-16.1-1.9-16.1c42.5-9.2,29-45.3,11.2-45.8
		c-11.4-0.4-24.3,12.7-17.4,30.3c-24.3-4.9-10.1-30.7,10.3-34.6c41.1-8.2,62.8,33.3,14.4,51.4c47.9,12.3,33.3,67.3-23.6,64.1
		c-39.5-2.1-39.3-35.3-18.5-43.8C372.4,441.7,378.2,473.9,411.4,469.8z"/>
</g>
<g>
	<path fill="#FFFFFF" d="M463.3,383c0-4.2,2.7-7.5,6.8-7.5c4.2,0,6.9,3.3,6.9,7.5c0,4.2-2.7,7.5-6.9,7.5
		C465.9,390.4,463.3,387.1,463.3,383z M475.3,383c0-3.2-1.9-6.1-5.2-6.1c-3.3,0-5.2,2.9-5.2,6.1c0,3.2,1.9,6.1,5.2,6.1
		C473.5,389.1,475.3,386.1,475.3,383z"/>
	<path fill="#FFFFFF" d="M490.3,390.1v-9.6c0-2.7-1.4-3.6-3.4-3.6c-1.8,0-3.7,1.1-4.6,2.4v10.8h-1.5v-14.2h1.5v2.2
		c1-1.2,3.1-2.5,5.1-2.5c2.9,0,4.5,1.4,4.5,4.6v10H490.3z"/>
	<path fill="#FFFFFF" d="M495.4,383c0-4.1,2.9-7.5,6.9-7.5c4.3,0,6.7,3.4,6.7,7.5v0.4h-11.9c0.1,3.1,2.2,5.7,5.6,5.7
		c1.8,0,3.4-0.7,4.7-2l0.8,1c-1.4,1.5-3.2,2.3-5.6,2.3C498.4,390.4,495.4,387.3,495.4,383z M502.3,376.8c-3.4,0-5,2.9-5.2,5.4h10.3
		C507.4,379.8,505.8,376.8,502.3,376.8z"/>
	<path fill="#FFFFFF" d="M512,383.7v-1.4h7.1v1.4H512z"/>
	<path fill="#FFFFFF" d="M522.8,387.3v-10.1h-2.4v-1.4h2.4V372h1.6v3.9h2.9v1.4h-2.9v9.9c0,1.1,0.5,1.9,1.5,1.9
		c0.7,0,1.3-0.3,1.6-0.7l0.6,1.2c-0.6,0.5-1.2,0.9-2.4,0.9C523.7,390.4,522.8,389.3,522.8,387.3z"/>
	<path fill="#FFFFFF" d="M540.3,390.1v-9.7c0-2.7-1.4-3.5-3.4-3.5c-1.8,0-3.7,1.1-4.6,2.4v10.8h-1.5v-19.7h1.5v7.6
		c1-1.2,3.1-2.5,5.1-2.5c2.9,0,4.5,1.4,4.5,4.6v10H540.3z"/>
	<path fill="#FFFFFF" d="M545.8,372.4c0-0.6,0.6-1.1,1.2-1.1c0.6,0,1.2,0.5,1.2,1.1c0,0.6-0.5,1.2-1.2,1.2
		C546.4,373.6,545.8,373.1,545.8,372.4z M546.2,390.1v-14.2h1.5v14.2H546.2z"/>
	<path fill="#FFFFFF" d="M552.2,390.1v-14.2h1.5v2.4c1.2-1.6,2.8-2.7,4.8-2.7v1.7c-0.3-0.1-0.5-0.1-0.8-0.1c-1.4,0-3.4,1.3-4,2.5
		v10.4H552.2z"/>
	<path fill="#FFFFFF" d="M571.5,390.1v-2.3c-1,1.5-2.8,2.6-5,2.6c-3.8,0-6.4-2.9-6.4-7.5c0-4.5,2.6-7.5,6.4-7.5c2,0,3.8,1,5,2.7
		v-7.7h1.6v19.7H571.5z M571.5,386.5v-7c-0.8-1.4-2.7-2.6-4.7-2.6c-3.2,0-5,2.7-5,6.1s1.8,6.1,5,6.1
		C568.9,389.1,570.7,387.9,571.5,386.5z"/>
	<path fill="#FFFFFF" d="M584.4,384.4c0-3.5,2.3-6.3,5.8-6.3c3.6,0,5.8,2.8,5.8,6.3c0,3.5-2.2,6.3-5.8,6.3
		C586.7,390.7,584.4,387.9,584.4,384.4z M594.6,384.4c0-2.7-1.6-5.1-4.4-5.1c-2.8,0-4.4,2.5-4.4,5.1c0,2.7,1.6,5.2,4.4,5.2
		C593.1,389.5,594.6,387.1,594.6,384.4z"/>
	<path fill="#FFFFFF" d="M599.4,390.4v-10.9h-2v-1.1h2v-1.1c0-2.3,1.2-3.7,3.3-3.7c0.8,0,1.5,0.2,2.3,0.8l-0.6,0.9
		c-0.4-0.4-0.9-0.6-1.5-0.6c-1.4,0-2.1,0.9-2.1,2.6v1.1h2.4v1.1h-2.4v10.9H599.4z"/>
	<path fill="#FFFFFF" d="M612.3,388.1v-8.6h-2v-1.1h2v-3.3h1.3v3.3h2.4v1.1h-2.4v8.4c0,1,0.4,1.6,1.2,1.6c0.6,0,1.1-0.3,1.3-0.6
		l0.5,1c-0.5,0.4-1,0.7-2,0.7C613.1,390.7,612.3,389.7,612.3,388.1z"/>
	<path fill="#FFFFFF" d="M627.1,390.4v-8.2c0-2.3-1.2-3-2.9-3c-1.5,0-3.1,1-3.9,2.1v9.1H619v-16.6h1.3v6.4c0.9-1,2.6-2.1,4.3-2.1
		c2.4,0,3.8,1.1,3.8,3.9v8.5H627.1z"/>
	<path fill="#FFFFFF" d="M631.6,384.4c0-3.5,2.5-6.3,5.8-6.3c3.7,0,5.7,2.9,5.7,6.4v0.3H633c0.1,2.6,1.9,4.8,4.7,4.8
		c1.5,0,2.9-0.6,3.9-1.7l0.7,0.8c-1.2,1.2-2.7,1.9-4.7,1.9C634.1,390.7,631.6,388.1,631.6,384.4z M637.3,379.2
		c-2.8,0-4.3,2.5-4.4,4.6h8.7C641.7,381.7,640.3,379.2,637.3,379.2z"/>
</g>
<g>
	<path fill="#FFFFFF" d="M463.3,412.5c0-4.1,2.9-7.5,6.9-7.5c4.3,0,6.7,3.4,6.7,7.5v0.4h-11.9c0.1,3.1,2.2,5.7,5.6,5.7
		c1.8,0,3.4-0.7,4.7-2l0.8,1c-1.4,1.5-3.2,2.3-5.6,2.3C466.2,419.9,463.3,416.9,463.3,412.5z M470.1,406.3c-3.4,0-5,2.9-5.2,5.4
		h10.3C475.3,409.3,473.7,406.3,470.1,406.3z"/>
	<path fill="#FFFFFF" d="M489.5,419.6v-1.7c-1.3,1.4-2.9,2-4.8,2c-2.4,0-5-1.7-5-4.7c0-3.1,2.5-4.7,5-4.7c2,0,3.6,0.6,4.8,2v-2.9
		c0-2.1-1.7-3.3-3.8-3.3c-1.8,0-3.2,0.6-4.4,2.1l-0.9-1.1c1.5-1.6,3.1-2.4,5.5-2.4c2.9,0,5.2,1.4,5.2,4.6v10H489.5z M489.5,416.8
		v-3.1c-1-1.3-2.6-2-4.3-2c-2.4,0-3.9,1.5-3.9,3.5c0,2,1.5,3.5,3.9,3.5C486.9,418.7,488.5,418.1,489.5,416.8z"/>
	<path fill="#FFFFFF" d="M495.5,419.6v-14.2h1.5v2.4c1.2-1.6,2.8-2.7,4.8-2.7v1.7c-0.3-0.1-0.5-0.1-0.8-0.1c-1.4,0-3.4,1.3-4,2.5
		v10.4H495.5z"/>
	<path fill="#FFFFFF" d="M506.1,416.9v-10.1h-2.4v-1.4h2.4v-3.9h1.6v3.9h2.9v1.4h-2.9v9.9c0,1.1,0.5,1.9,1.5,1.9
		c0.7,0,1.3-0.3,1.6-0.7l0.6,1.2c-0.6,0.5-1.2,0.9-2.4,0.9C507,419.9,506.1,418.8,506.1,416.9z"/>
	<path fill="#FFFFFF" d="M523.5,419.6v-9.7c0-2.7-1.4-3.5-3.4-3.5c-1.8,0-3.7,1.1-4.6,2.4v10.8h-1.5v-19.7h1.5v7.6
		c1-1.2,3.1-2.5,5.1-2.5c2.9,0,4.5,1.4,4.5,4.6v10H523.5z"/>
	<path fill="#FFFFFF" d="M529,405.5l-0.9-0.7c0.9-0.6,1.7-1.8,1.7-2.7c0,0-0.2,0.1-0.3,0.1c-0.7,0-1.2-0.5-1.2-1.2
		c0-0.7,0.6-1.3,1.3-1.3c0.8,0,1.5,0.7,1.5,1.9C531.1,403.2,530.1,404.7,529,405.5z"/>
	<path fill="#FFFFFF" d="M532.8,417.7l0.9-1.1c0.9,1.1,2.6,2.1,4.6,2.1c2.4,0,3.8-1.2,3.8-2.9c0-3.9-9-1.7-9-6.8
		c0-2.2,1.9-3.9,5.1-3.9c2.4,0,4.1,0.9,5.1,2.1l-0.9,1.1c-0.8-1.1-2.4-1.9-4.2-1.9c-2.2,0-3.6,1.1-3.6,2.6c0,3.6,9,1.4,9,6.9
		c0,2.3-1.8,4.2-5.3,4.2C536,419.9,534.3,419.3,532.8,417.7z"/>
	<path fill="#FFFFFF" d="M554,417.7l0.9-1.1c0.9,1.1,2.6,2.1,4.6,2.1c2.4,0,3.8-1.2,3.8-2.9c0-3.9-9-1.7-9-6.8
		c0-2.2,1.9-3.9,5.1-3.9c2.4,0,4.1,0.9,5.1,2.1l-0.9,1.1c-0.8-1.1-2.4-1.9-4.2-1.9c-2.2,0-3.6,1.1-3.6,2.6c0,3.6,9,1.4,9,6.9
		c0,2.3-1.8,4.2-5.3,4.2C557.2,419.9,555.4,419.3,554,417.7z"/>
	<path fill="#FFFFFF" d="M577.9,419.6v-2.1c-1.2,1.3-3.1,2.4-5.1,2.4c-2.9,0-4.5-1.4-4.5-4.6v-10h1.5v9.7c0,2.8,1.4,3.5,3.4,3.5
		c1.8,0,3.7-1.1,4.6-2.4v-10.8h1.5v14.2H577.9z"/>
	<path fill="#FFFFFF" d="M584,419.6v-14.2h1.5v2.4c1.2-1.6,2.8-2.7,4.8-2.7v1.7c-0.3-0.1-0.5-0.1-0.8-0.1c-1.4,0-3.4,1.3-4,2.5v10.4
		H584z"/>
	<path fill="#FFFFFF" d="M594.6,419.6v-12.9h-2.4v-1.4h2.4v-1.3c0-2.8,1.5-4.4,3.9-4.4c1,0,1.8,0.2,2.7,1l-0.7,1.1
		c-0.5-0.4-1.1-0.7-1.8-0.7c-1.6,0-2.5,1.1-2.5,3.1v1.3h2.9v1.4h-2.9v12.9H594.6z"/>
	<path fill="#FFFFFF" d="M610.8,419.6v-1.7c-1.3,1.4-2.9,2-4.8,2c-2.4,0-5-1.7-5-4.7c0-3.1,2.5-4.7,5-4.7c2,0,3.6,0.6,4.8,2v-2.9
		c0-2.1-1.7-3.3-3.8-3.3c-1.8,0-3.2,0.6-4.4,2.1l-0.9-1.1c1.5-1.6,3.1-2.4,5.5-2.4c2.9,0,5.2,1.4,5.2,4.6v10H610.8z M610.8,416.8
		v-3.1c-1-1.3-2.6-2-4.3-2c-2.4,0-3.9,1.5-3.9,3.5c0,2,1.5,3.5,3.9,3.5C608.2,418.7,609.8,418.1,610.8,416.8z"/>
	<path fill="#FFFFFF" d="M615.9,412.5c0-4.2,2.7-7.5,6.9-7.5c2.5,0,3.9,1,5,2.4l-1.1,0.9c-1-1.4-2.3-2-3.9-2c-3.3,0-5.4,2.7-5.4,6.1
		s2,6.1,5.4,6.1c1.6,0,2.9-0.6,3.9-2l1.1,0.9c-1.1,1.5-2.6,2.4-5,2.4C618.7,419.9,615.9,416.6,615.9,412.5z"/>
	<path fill="#FFFFFF" d="M629.9,412.5c0-4.1,2.9-7.5,6.9-7.5c4.3,0,6.7,3.4,6.7,7.5v0.4h-11.9c0.1,3.1,2.2,5.7,5.6,5.7
		c1.8,0,3.4-0.7,4.7-2l0.8,1c-1.4,1.5-3.2,2.3-5.6,2.3C632.9,419.9,629.9,416.9,629.9,412.5z M636.8,406.3c-3.4,0-5,2.9-5.2,5.4
		h10.3C641.9,409.3,640.3,406.3,636.8,406.3z"/>
</g>
<g>
	<path fill="#FFFFFF" d="M463.7,434.3c0-0.7,0.6-1.2,1.2-1.2c0.7,0,1.2,0.5,1.2,1.2c0,0.7-0.5,1.2-1.2,1.2
		C464.3,435.5,463.7,435,463.7,434.3z M464.1,452.2v-14.4h1.6v14.4H464.1z"/>
	<path fill="#FFFFFF" d="M469,450.2l0.9-1.2c0.9,1.2,2.6,2.1,4.7,2.1c2.4,0,3.8-1.3,3.8-2.9c0-3.9-9.1-1.7-9.1-6.9
		c0-2.2,1.9-4,5.1-4c2.5,0,4.1,1,5.2,2.1l-0.9,1.1c-0.8-1.1-2.4-1.9-4.3-1.9c-2.2,0-3.6,1.1-3.6,2.6c0,3.6,9.1,1.4,9.1,6.9
		c0,2.3-1.8,4.2-5.4,4.2C472.2,452.5,470.4,451.8,469,450.2z"/>
	<path fill="#DBC32C" d="M492,456.1l1-1.4c1.4,1.7,3,2.3,5.5,2.3c3,0,5.7-1.5,5.7-5.3v-2.6c-1.2,1.7-3.3,3.1-5.8,3.1
		c-4.4,0-7.4-3.3-7.4-8.7c0-5.3,3-8.7,7.4-8.7c2.4,0,4.4,1.2,5.8,3.1v-2.7h1.8v16.4c0,5.1-3.4,6.9-7.5,6.9
		C495.8,458.6,494,458.1,492,456.1z M504.2,447.5v-8.1c-1-1.6-3.2-3-5.5-3c-3.7,0-5.8,3.1-5.8,7.1c0,4,2.1,7.1,5.8,7.1
		C501.1,450.6,503.3,449.1,504.2,447.5z"/>
	<path fill="#DBC32C" d="M511.2,451.8v-16.6h1.8v2.9c1.4-1.9,3.3-3.2,5.6-3.2v2c-0.3-0.1-0.5-0.1-0.9-0.1c-1.7,0-4,1.5-4.7,3v12.1
		H511.2z"/>
	<path fill="#DBC32C" d="M532.5,451.8v-2c-1.5,1.6-3.3,2.4-5.6,2.4c-2.9,0-5.8-2-5.8-5.5c0-3.6,2.9-5.5,5.8-5.5
		c2.3,0,4.2,0.8,5.6,2.4v-3.4c0-2.5-2-3.8-4.5-3.8c-2.1,0-3.7,0.7-5.2,2.4l-1-1.2c1.7-1.9,3.6-2.8,6.4-2.8c3.4,0,6.1,1.6,6.1,5.3
		v11.7H532.5z M532.5,448.6v-3.6c-1.2-1.5-3-2.3-5-2.3c-2.8,0-4.5,1.8-4.5,4.1c0,2.3,1.8,4.1,4.5,4.1
		C529.4,450.8,531.3,450.1,532.5,448.6z"/>
	<path fill="#DBC32C" d="M538,449.6l1.1-1.3c1.1,1.3,3,2.4,5.4,2.4c2.8,0,4.4-1.4,4.4-3.4c0-4.5-10.5-2-10.5-7.9
		c0-2.5,2.2-4.6,5.9-4.6c2.9,0,4.7,1.1,6,2.4l-1,1.3c-1-1.3-2.8-2.2-5-2.2c-2.6,0-4.2,1.3-4.2,3c0,4.2,10.5,1.6,10.5,8
		c0,2.7-2.1,4.9-6.2,4.9C541.7,452.2,539.7,451.4,538,449.6z"/>
	<path fill="#DBC32C" d="M553.6,449.6l1.1-1.3c1.1,1.3,3,2.4,5.4,2.4c2.8,0,4.4-1.4,4.4-3.4c0-4.5-10.5-2-10.5-7.9
		c0-2.5,2.2-4.6,5.9-4.6c2.9,0,4.7,1.1,6,2.4l-1,1.3c-1-1.3-2.8-2.2-5-2.2c-2.6,0-4.2,1.3-4.2,3c0,4.2,10.5,1.6,10.5,8
		c0,2.7-2.1,4.9-6.2,4.9C557.3,452.2,555.3,451.4,553.6,449.6z"/>
	<path fill="#DBC32C" d="M570.4,451.8v-23h1.8v23H570.4z"/>
	<path fill="#DBC32C" d="M587.8,451.8v-2c-1.5,1.6-3.3,2.4-5.6,2.4c-2.9,0-5.8-2-5.8-5.5c0-3.6,2.9-5.5,5.8-5.5
		c2.3,0,4.2,0.8,5.6,2.4v-3.4c0-2.5-2-3.8-4.5-3.8c-2.1,0-3.7,0.7-5.2,2.4l-1-1.2c1.7-1.9,3.6-2.8,6.4-2.8c3.4,0,6.1,1.6,6.1,5.3
		v11.7H587.8z M587.8,448.6v-3.6c-1.2-1.5-3-2.3-5-2.3c-2.8,0-4.5,1.8-4.5,4.1c0,2.3,1.8,4.1,4.5,4.1
		C584.8,450.8,586.6,450.1,587.8,448.6z"/>
	<path fill="#DBC32C" d="M606,451.8v-11.3c0-3.2-1.6-4.2-4-4.2c-2.1,0-4.3,1.3-5.4,2.9v12.6h-1.8v-16.6h1.8v2.5
		c1.2-1.4,3.6-2.9,6-2.9c3.4,0,5.2,1.7,5.2,5.4v11.6H606z"/>
	<path fill="#DBC32C" d="M625.2,451.8v-2.6c-1.2,1.7-3.3,3.1-5.8,3.1c-4.4,0-7.4-3.4-7.4-8.7c0-5.3,3-8.7,7.4-8.7
		c2.4,0,4.4,1.2,5.8,3.1v-9h1.8v23H625.2z M625.2,447.7v-8.2c-1-1.6-3.1-3-5.5-3c-3.7,0-5.8,3.1-5.8,7.1s2.1,7.1,5.8,7.1
		C622.1,450.6,624.3,449.2,625.2,447.7z"/>
	<path fill="#DBC32C" d="M630.9,449.6l1.1-1.3c1.1,1.3,3,2.4,5.4,2.4c2.8,0,4.4-1.4,4.4-3.4c0-4.5-10.5-2-10.5-7.9
		c0-2.5,2.2-4.6,5.9-4.6c2.9,0,4.7,1.1,6,2.4l-1,1.3c-1-1.3-2.8-2.2-5-2.2c-2.6,0-4.2,1.3-4.2,3c0,4.2,10.5,1.6,10.5,8
		c0,2.7-2.1,4.9-6.2,4.9C634.6,452.2,632.5,451.4,630.9,449.6z"/>
</g>
</svg>
