<?xml version="1.0" encoding="utf-8"?>
<!-- Generator: Adobe Illustrator 18.1.1, SVG Export Plug-In . SVG Version: 6.00 Build 0)  -->
<svg version="1.1" id="Layer_1" xmlns="http://www.w3.org/2000/svg" xmlns:xlink="http://www.w3.org/1999/xlink" x="0px" y="0px"
	 viewBox="252.4 347 394.7 204.2" enable-background="new 252.4 347 394.7 204.2" xml:space="preserve">
<rect x="257.3" y="349" opacity="0.63" fill="none" stroke="#FFFFFF" stroke-width="0.5" stroke-linecap="round" stroke-linejoin="round" stroke-miterlimit="10" width="178.3" height="178.3"/>
<g>
	<path fill="#FFFFFF" d="M280.1,417.5c0.2-1,0.8-1.8,1.6-1.8c1.8,0,6.3,2.4,6.3,4c-2.4,18.9-3.6,36-3.6,52.3c0,16.9,1.2,33,3.6,49.4
		c0.2,1.4-8.3,7.4-13.4,7.4c-1.6,0-2.8-0.6-3.4-2.2c-1.6-4-2.2-10.9-2.2-19.3c0-22.1,4.2-55.3,8.1-76.2
		c-4.9,6.4-14.6,16.7-22.9,16.7c-1.4,0-1.8-0.6-1.8-1.2c0-0.8,0.8-1.8,1.2-2.2C263.7,439.5,279.1,421.8,280.1,417.5z"/>
	<path fill="#FFFFFF" d="M385.7,347c1.2,0,1.6,1,1.6,2.4c0,1.4-0.4,3.4-0.4,4.6c0,0.8,0.2,1.2,0.6,1.4c2.4,1.2,3,2.8,3,4.4
		c0,1.2-0.2,2.4-0.8,3.4c-24.9,49.2-78.7,159.8-89.8,185.3c-0.6,1.8-1.6,2.6-2.8,2.6c-2.8,0-6.7-4.8-7.3-10.9
		c32.2-52.5,77.1-152.1,94.5-192.9C384.9,347.2,385.3,347,385.7,347z"/>
	<path fill="#FFFFFF" d="M415.9,465.2c14.8,0,23.7,13.3,23.7,27.7c0,17.1-12.5,35.8-42.3,35.8c-13.4,0-24.5-4.6-24.5-12.7
		c0-3.4,2-7.2,6.5-11.7c4,6,11.3,8.8,19,8.8c12.9,0,26.7-8.4,26.7-25.3c0-12.7-6.7-17.1-14.8-17.1c-8.3,0-17.8,4.6-22.3,9.4
		c-0.2,0.2-0.4,0.2-0.6,0.2c-0.8,0-1.6-1-1.6-2.2c0-3,0-9.2,1.8-11.3c1.4-1.4,3.2-1.4,4.2-1.6c14.6-2.2,32.8-6.8,32.8-23.1
		c0-5.8-4.7-8.4-10.7-8.4c-11.5,0-28.1,9.2-28.3,22.5c-8.9-3.6-12.3-8.2-12.3-13.1c0-11.7,20.8-24.3,37.2-24.3
		c14.6,0,21.6,9.4,21.6,20.1c0,9.8-6.1,20.9-17.8,26.1H415.9z"/>
</g>
<g>
	<path fill="#FFFFFF" d="M466.8,437.1c0-4.2,2.7-7.5,6.8-7.5c4.2,0,6.9,3.3,6.9,7.5c0,4.2-2.7,7.5-6.9,7.5
		C469.5,444.6,466.8,441.2,466.8,437.1z M478.9,437.1c0-3.2-1.9-6.1-5.2-6.1c-3.3,0-5.2,2.9-5.2,6.1c0,3.2,1.9,6.1,5.2,6.1
		C477,443.2,478.9,440.3,478.9,437.1z"/>
	<path fill="#FFFFFF" d="M493.8,444.2v-9.6c0-2.7-1.4-3.6-3.4-3.6c-1.8,0-3.7,1.1-4.6,2.4v10.8h-1.5V430h1.5v2.2
		c1-1.2,3.1-2.5,5.1-2.5c2.9,0,4.5,1.4,4.5,4.6v10H493.8z"/>
	<path fill="#FFFFFF" d="M499,437.1c0-4.1,2.9-7.5,6.9-7.5c4.3,0,6.7,3.4,6.7,7.5v0.4h-11.9c0.1,3.1,2.2,5.7,5.6,5.7
		c1.8,0,3.4-0.7,4.7-2l0.8,1c-1.4,1.5-3.2,2.3-5.6,2.3C502,444.6,499,441.5,499,437.1z M505.8,431c-3.4,0-5,2.9-5.2,5.4H511
		C511,434,509.4,431,505.8,431z"/>
	<path fill="#FFFFFF" d="M515.6,437.8v-1.4h7.1v1.4H515.6z"/>
	<path fill="#FFFFFF" d="M526.3,441.5v-10.1H524V430h2.4v-3.9h1.6v3.9h2.9v1.4h-2.9v9.9c0,1.1,0.5,1.9,1.5,1.9
		c0.7,0,1.3-0.3,1.6-0.7l0.6,1.2c-0.6,0.5-1.2,0.9-2.4,0.9C527.3,444.6,526.3,443.4,526.3,441.5z"/>
	<path fill="#FFFFFF" d="M543.8,444.2v-9.7c0-2.7-1.4-3.5-3.4-3.5c-1.8,0-3.7,1.1-4.6,2.4v10.8h-1.5v-19.7h1.5v7.6
		c1-1.2,3.1-2.5,5.1-2.5c2.9,0,4.5,1.4,4.5,4.6v10H543.8z"/>
	<path fill="#FFFFFF" d="M549.4,426.6c0-0.6,0.6-1.1,1.2-1.1c0.6,0,1.2,0.5,1.2,1.1c0,0.6-0.5,1.2-1.2,1.2
		C550,427.7,549.4,427.2,549.4,426.6z M549.8,444.2V430h1.5v14.2H549.8z"/>
	<path fill="#FFFFFF" d="M555.8,444.2V430h1.5v2.4c1.2-1.6,2.8-2.7,4.8-2.7v1.7c-0.3-0.1-0.5-0.1-0.8-0.1c-1.4,0-3.4,1.3-4,2.5v10.4
		H555.8z"/>
	<path fill="#FFFFFF" d="M575.1,444.2V442c-1,1.5-2.8,2.6-5,2.6c-3.8,0-6.4-2.9-6.4-7.5c0-4.5,2.6-7.5,6.4-7.5c2,0,3.8,1,5,2.7v-7.7
		h1.6v19.7H575.1z M575.1,440.7v-7c-0.8-1.4-2.7-2.6-4.7-2.6c-3.2,0-5,2.7-5,6.1s1.8,6.1,5,6.1C572.4,443.2,574.3,442,575.1,440.7z"
		/>
	<path fill="#FFFFFF" d="M588,438.5c0-3.5,2.3-6.3,5.8-6.3c3.6,0,5.8,2.8,5.8,6.3c0,3.5-2.2,6.3-5.8,6.3
		C590.3,444.8,588,442,588,438.5z M598.2,438.5c0-2.7-1.6-5.1-4.4-5.1c-2.8,0-4.4,2.5-4.4,5.1c0,2.7,1.6,5.2,4.4,5.2
		C596.6,443.7,598.2,441.2,598.2,438.5z"/>
	<path fill="#FFFFFF" d="M603,444.5v-10.9h-2v-1.1h2v-1.1c0-2.3,1.2-3.7,3.3-3.7c0.8,0,1.5,0.2,2.3,0.8l-0.6,0.9
		c-0.4-0.4-0.9-0.6-1.5-0.6c-1.4,0-2.1,0.9-2.1,2.6v1.1h2.4v1.1h-2.4v10.9H603z"/>
	<path fill="#FFFFFF" d="M615.9,442.2v-8.6h-2v-1.1h2v-3.3h1.3v3.3h2.4v1.1h-2.4v8.4c0,1,0.4,1.6,1.2,1.6c0.6,0,1.1-0.3,1.3-0.6
		l0.5,1c-0.5,0.4-1,0.7-2,0.7C616.7,444.8,615.9,443.9,615.9,442.2z"/>
	<path fill="#FFFFFF" d="M630.7,444.5v-8.2c0-2.3-1.2-3-2.9-3c-1.5,0-3.1,1-3.9,2.1v9.1h-1.3v-16.6h1.3v6.4c0.9-1,2.6-2.1,4.3-2.1
		c2.4,0,3.8,1.1,3.8,3.9v8.5H630.7z"/>
	<path fill="#FFFFFF" d="M635.1,438.5c0-3.5,2.5-6.3,5.8-6.3c3.7,0,5.7,2.9,5.7,6.4v0.3h-10.1c0.1,2.6,1.9,4.8,4.7,4.8
		c1.5,0,2.9-0.6,3.9-1.7l0.7,0.8c-1.2,1.2-2.7,1.9-4.7,1.9C637.6,444.8,635.1,442.2,635.1,438.5z M640.9,433.3
		c-2.8,0-4.3,2.5-4.4,4.6h8.7C645.3,435.9,643.9,433.3,640.9,433.3z"/>
</g>
<g>
	<path fill="#FFFFFF" d="M466.8,466.6c0-4.1,2.9-7.5,6.9-7.5c4.3,0,6.7,3.4,6.7,7.5v0.4h-11.9c0.1,3.1,2.2,5.7,5.6,5.7
		c1.8,0,3.4-0.7,4.7-2l0.8,1c-1.4,1.5-3.2,2.3-5.6,2.3C469.8,474.1,466.8,471,466.8,466.6z M473.7,460.5c-3.4,0-5,2.9-5.2,5.4h10.3
		C478.8,463.5,477.2,460.5,473.7,460.5z"/>
	<path fill="#FFFFFF" d="M493.1,473.7V472c-1.3,1.4-2.9,2-4.8,2c-2.4,0-5-1.7-5-4.7c0-3.1,2.5-4.7,5-4.7c2,0,3.6,0.6,4.8,2v-2.9
		c0-2.1-1.7-3.3-3.8-3.3c-1.8,0-3.2,0.6-4.4,2.1l-0.9-1.1c1.5-1.6,3.1-2.4,5.5-2.4c2.9,0,5.2,1.4,5.2,4.6v10H493.1z M493.1,470.9
		v-3.1c-1-1.3-2.6-2-4.3-2c-2.4,0-3.9,1.5-3.9,3.5c0,2,1.5,3.5,3.9,3.5C490.5,472.9,492.1,472.2,493.1,470.9z"/>
	<path fill="#FFFFFF" d="M499.1,473.7v-14.2h1.5v2.4c1.2-1.6,2.8-2.7,4.8-2.7v1.7c-0.3-0.1-0.5-0.1-0.8-0.1c-1.4,0-3.4,1.3-4,2.5
		v10.4H499.1z"/>
	<path fill="#FFFFFF" d="M509.6,471v-10.1h-2.4v-1.4h2.4v-3.9h1.6v3.9h2.9v1.4h-2.9v9.9c0,1.1,0.5,1.9,1.5,1.9
		c0.7,0,1.3-0.3,1.6-0.7l0.6,1.2c-0.6,0.5-1.2,0.9-2.4,0.9C510.5,474.1,509.6,472.9,509.6,471z"/>
	<path fill="#FFFFFF" d="M527.1,473.7V464c0-2.7-1.4-3.5-3.4-3.5c-1.8,0-3.7,1.1-4.6,2.4v10.8h-1.5v-19.7h1.5v7.6
		c1-1.2,3.1-2.5,5.1-2.5c2.9,0,4.5,1.4,4.5,4.6v10H527.1z"/>
	<path fill="#FFFFFF" d="M532.5,459.7l-0.9-0.7c0.9-0.6,1.7-1.8,1.7-2.7c0,0-0.2,0.1-0.3,0.1c-0.7,0-1.2-0.5-1.2-1.2
		c0-0.7,0.6-1.3,1.3-1.3c0.8,0,1.5,0.7,1.5,1.9C534.6,457.3,533.7,458.9,532.5,459.7z"/>
	<path fill="#FFFFFF" d="M536.4,471.8l0.9-1.1c0.9,1.1,2.6,2.1,4.6,2.1c2.4,0,3.8-1.2,3.8-2.9c0-3.9-9-1.7-9-6.8
		c0-2.2,1.9-3.9,5.1-3.9c2.4,0,4.1,0.9,5.1,2.1l-0.9,1.1c-0.8-1.1-2.4-1.9-4.2-1.9c-2.2,0-3.6,1.1-3.6,2.6c0,3.6,9,1.4,9,6.9
		c0,2.3-1.8,4.2-5.3,4.2C539.6,474.1,537.8,473.4,536.4,471.8z"/>
	<path fill="#FFFFFF" d="M557.6,471.8l0.9-1.1c0.9,1.1,2.6,2.1,4.6,2.1c2.4,0,3.8-1.2,3.8-2.9c0-3.9-9-1.7-9-6.8
		c0-2.2,1.9-3.9,5.1-3.9c2.4,0,4.1,0.9,5.1,2.1l-0.9,1.1c-0.8-1.1-2.4-1.9-4.2-1.9c-2.2,0-3.6,1.1-3.6,2.6c0,3.6,9,1.4,9,6.9
		c0,2.3-1.8,4.2-5.3,4.2C560.7,474.1,559,473.4,557.6,471.8z"/>
	<path fill="#FFFFFF" d="M581.5,473.7v-2.1c-1.2,1.3-3.1,2.4-5.1,2.4c-2.9,0-4.5-1.4-4.5-4.6v-10h1.5v9.7c0,2.8,1.4,3.5,3.4,3.5
		c1.8,0,3.7-1.1,4.6-2.4v-10.8h1.5v14.2H581.5z"/>
	<path fill="#FFFFFF" d="M587.5,473.7v-14.2h1.5v2.4c1.2-1.6,2.8-2.7,4.8-2.7v1.7c-0.3-0.1-0.5-0.1-0.8-0.1c-1.4,0-3.4,1.3-4,2.5
		v10.4H587.5z"/>
	<path fill="#FFFFFF" d="M598.2,473.7v-12.9h-2.4v-1.4h2.4v-1.3c0-2.8,1.5-4.4,3.9-4.4c1,0,1.8,0.2,2.7,1l-0.7,1.1
		c-0.5-0.4-1.1-0.7-1.8-0.7c-1.6,0-2.5,1.1-2.5,3.1v1.3h2.9v1.4h-2.9v12.9H598.2z"/>
	<path fill="#FFFFFF" d="M614.3,473.7V472c-1.3,1.4-2.9,2-4.8,2c-2.4,0-5-1.7-5-4.7c0-3.1,2.5-4.7,5-4.7c2,0,3.6,0.6,4.8,2v-2.9
		c0-2.1-1.7-3.3-3.8-3.3c-1.8,0-3.2,0.6-4.4,2.1l-0.9-1.1c1.5-1.6,3.1-2.4,5.5-2.4c2.9,0,5.2,1.4,5.2,4.6v10H614.3z M614.3,470.9
		v-3.1c-1-1.3-2.6-2-4.3-2c-2.4,0-3.9,1.5-3.9,3.5c0,2,1.5,3.5,3.9,3.5C611.7,472.9,613.3,472.2,614.3,470.9z"/>
	<path fill="#FFFFFF" d="M619.5,466.6c0-4.2,2.7-7.5,6.9-7.5c2.5,0,3.9,1,5,2.4l-1.1,0.9c-1-1.4-2.3-2-3.9-2c-3.3,0-5.4,2.7-5.4,6.1
		s2,6.1,5.4,6.1c1.6,0,2.9-0.6,3.9-2l1.1,0.9c-1.1,1.5-2.6,2.4-5,2.4C622.2,474.1,619.5,470.8,619.5,466.6z"/>
	<path fill="#FFFFFF" d="M633.5,466.6c0-4.1,2.9-7.5,6.9-7.5c4.3,0,6.7,3.4,6.7,7.5v0.4h-11.9c0.1,3.1,2.2,5.7,5.6,5.7
		c1.8,0,3.4-0.7,4.7-2l0.8,1c-1.4,1.5-3.2,2.3-5.6,2.3C636.5,474.1,633.5,471,633.5,466.6z M640.3,460.5c-3.4,0-5,2.9-5.2,5.4h10.3
		C645.5,463.5,643.9,460.5,640.3,460.5z"/>
</g>
<g>
	<path fill="#FFFFFF" d="M467.3,488.4c0-0.7,0.6-1.2,1.2-1.2c0.7,0,1.2,0.5,1.2,1.2c0,0.7-0.5,1.2-1.2,1.2
		C467.8,489.6,467.3,489.1,467.3,488.4z M467.7,506.3v-14.4h1.6v14.4H467.7z"/>
	<path fill="#FFFFFF" d="M472.5,504.4l0.9-1.2c0.9,1.2,2.6,2.1,4.7,2.1c2.4,0,3.8-1.3,3.8-2.9c0-3.9-9.1-1.7-9.1-6.9
		c0-2.2,1.9-4,5.1-4c2.5,0,4.1,1,5.2,2.1l-0.9,1.1c-0.8-1.1-2.4-1.9-4.3-1.9c-2.2,0-3.6,1.1-3.6,2.6c0,3.6,9.1,1.4,9.1,6.9
		c0,2.3-1.8,4.2-5.4,4.2C475.7,506.6,474,506,472.5,504.4z"/>
	<path fill="#B5BE34" d="M495.6,510.2l1-1.4c1.4,1.7,3,2.3,5.5,2.3c3,0,5.7-1.5,5.7-5.3v-2.6c-1.2,1.7-3.3,3.1-5.8,3.1
		c-4.4,0-7.4-3.3-7.4-8.7c0-5.3,3-8.7,7.4-8.7c2.4,0,4.4,1.2,5.8,3.1v-2.7h1.8v16.4c0,5.1-3.4,6.9-7.5,6.9
		C499.3,512.7,497.5,512.2,495.6,510.2z M507.8,501.7v-8.1c-1-1.6-3.2-3-5.5-3c-3.7,0-5.8,3.1-5.8,7.1c0,4,2.1,7.1,5.8,7.1
		C504.6,504.7,506.8,503.3,507.8,501.7z"/>
	<path fill="#B5BE34" d="M514.8,506v-16.6h1.8v2.9c1.4-1.9,3.3-3.2,5.6-3.2v2c-0.3-0.1-0.5-0.1-0.9-0.1c-1.7,0-4,1.5-4.7,3V506
		H514.8z"/>
	<path fill="#B5BE34" d="M536,506v-2c-1.5,1.6-3.3,2.4-5.6,2.4c-2.9,0-5.8-2-5.8-5.5c0-3.6,2.9-5.5,5.8-5.5c2.3,0,4.2,0.8,5.6,2.4
		v-3.4c0-2.5-2-3.8-4.5-3.8c-2.1,0-3.7,0.7-5.2,2.4l-1-1.2c1.7-1.9,3.6-2.8,6.4-2.8c3.4,0,6.1,1.6,6.1,5.3V506H536z M536,502.7V499
		c-1.2-1.5-3-2.3-5-2.3c-2.8,0-4.5,1.8-4.5,4.1c0,2.3,1.8,4.1,4.5,4.1C533,505,534.9,504.2,536,502.7z"/>
	<path fill="#B5BE34" d="M541.6,503.8l1.1-1.3c1.1,1.3,3,2.4,5.4,2.4c2.8,0,4.4-1.4,4.4-3.4c0-4.5-10.5-2-10.5-7.9
		c0-2.5,2.2-4.6,5.9-4.6c2.9,0,4.7,1.1,6,2.4l-1,1.3c-1-1.3-2.8-2.2-5-2.2c-2.6,0-4.2,1.3-4.2,3c0,4.2,10.5,1.6,10.5,8
		c0,2.7-2.1,4.9-6.2,4.9C545.3,506.4,543.2,505.6,541.6,503.8z"/>
	<path fill="#B5BE34" d="M557.2,503.8l1.1-1.3c1.1,1.3,3,2.4,5.4,2.4c2.8,0,4.4-1.4,4.4-3.4c0-4.5-10.5-2-10.5-7.9
		c0-2.5,2.2-4.6,5.9-4.6c2.9,0,4.7,1.1,6,2.4l-1,1.3c-1-1.3-2.8-2.2-5-2.2c-2.6,0-4.2,1.3-4.2,3c0,4.2,10.5,1.6,10.5,8
		c0,2.7-2.1,4.9-6.2,4.9C560.9,506.4,558.8,505.6,557.2,503.8z"/>
	<path fill="#B5BE34" d="M574,506v-23h1.8v23H574z"/>
	<path fill="#B5BE34" d="M591.4,506v-2c-1.5,1.6-3.3,2.4-5.6,2.4c-2.9,0-5.8-2-5.8-5.5c0-3.6,2.9-5.5,5.8-5.5c2.3,0,4.2,0.8,5.6,2.4
		v-3.4c0-2.5-2-3.8-4.5-3.8c-2.1,0-3.7,0.7-5.2,2.4l-1-1.2c1.7-1.9,3.6-2.8,6.4-2.8c3.4,0,6.1,1.6,6.1,5.3V506H591.4z M591.4,502.7
		V499c-1.2-1.5-3-2.3-5-2.3c-2.8,0-4.5,1.8-4.5,4.1c0,2.3,1.8,4.1,4.5,4.1C588.3,505,590.2,504.2,591.4,502.7z"/>
	<path fill="#B5BE34" d="M609.5,506v-11.3c0-3.2-1.6-4.2-4-4.2c-2.1,0-4.3,1.3-5.4,2.9V506h-1.8v-16.6h1.8v2.5
		c1.2-1.4,3.6-2.9,6-2.9c3.4,0,5.2,1.7,5.2,5.4V506H609.5z"/>
	<path fill="#B5BE34" d="M628.8,506v-2.6c-1.2,1.7-3.3,3.1-5.8,3.1c-4.4,0-7.4-3.4-7.4-8.7c0-5.3,3-8.7,7.4-8.7
		c2.4,0,4.4,1.2,5.8,3.1v-9h1.8v23H628.8z M628.8,501.8v-8.2c-1-1.6-3.1-3-5.5-3c-3.7,0-5.8,3.1-5.8,7.1s2.1,7.1,5.8,7.1
		C625.7,504.8,627.8,503.4,628.8,501.8z"/>
	<path fill="#B5BE34" d="M634.4,503.8l1.1-1.3c1.1,1.3,3,2.4,5.4,2.4c2.8,0,4.4-1.4,4.4-3.4c0-4.5-10.5-2-10.5-7.9
		c0-2.5,2.2-4.6,5.9-4.6c2.9,0,4.7,1.1,6,2.4l-1,1.3c-1-1.3-2.8-2.2-5-2.2c-2.6,0-4.2,1.3-4.2,3c0,4.2,10.5,1.6,10.5,8
		c0,2.7-2.1,4.9-6.2,4.9C638.2,506.4,636.1,505.6,634.4,503.8z"/>
</g>
</svg>
