<?xml version="1.0" encoding="utf-8"?>
<!-- Generator: Adobe Illustrator 18.1.1, SVG Export Plug-In . SVG Version: 6.00 Build 0)  -->
<svg version="1.1" id="Layer_1" xmlns="http://www.w3.org/2000/svg" xmlns:xlink="http://www.w3.org/1999/xlink" x="0px" y="0px"
	 viewBox="252.4 338 394.7 223.1" enable-background="new 252.4 338 394.7 223.1" xml:space="preserve">
<rect x="257.3" y="340" opacity="0.63" fill="none" stroke="#FFFFFF" stroke-width="0.5" stroke-linecap="round" stroke-linejoin="round" stroke-miterlimit="10" width="178.3" height="178.3"/>
<g>
	<path fill="#FFFFFF" d="M280.1,408.5c0.2-1,0.8-1.8,1.6-1.8c1.8,0,6.3,2.4,6.3,4c-2.4,18.9-3.6,36-3.6,52.3c0,16.9,1.2,33,3.6,49.4
		c0.2,1.4-8.3,7.4-13.4,7.4c-1.6,0-2.8-0.6-3.4-2.2c-1.6-4-2.2-10.9-2.2-19.3c0-22.1,4.2-55.3,8.1-76.2
		c-4.9,6.4-14.6,16.7-22.9,16.7c-1.4,0-1.8-0.6-1.8-1.2c0-0.8,0.8-1.8,1.2-2.2C263.7,430.5,279.1,412.8,280.1,408.5z"/>
	<path fill="#FFFFFF" d="M385.7,338c1.2,0,1.6,1,1.6,2.4c0,1.4-0.4,3.4-0.4,4.6c0,0.8,0.2,1.2,0.6,1.4c2.4,1.2,3,2.8,3,4.4
		c0,1.2-0.2,2.4-0.8,3.4c-24.9,49.2-78.7,159.8-89.8,185.3c-0.6,1.8-1.6,2.6-2.8,2.6c-2.8,0-6.7-4.8-7.3-10.9
		c32.2-52.5,77.1-152.1,94.5-192.9C384.9,338.2,385.3,338,385.7,338z"/>
	<path fill="#FFFFFF" d="M415.9,456.2c14.8,0,23.7,13.3,23.7,27.7c0,17.1-12.5,35.8-42.3,35.8c-13.4,0-24.5-4.6-24.5-12.7
		c0-3.4,2-7.2,6.5-11.7c4,6,11.3,8.8,19,8.8c12.9,0,26.7-8.4,26.7-25.3c0-12.7-6.7-17.1-14.8-17.1c-8.3,0-17.8,4.6-22.3,9.4
		c-0.2,0.2-0.4,0.2-0.6,0.2c-0.8,0-1.6-1-1.6-2.2c0-3,0-9.2,1.8-11.3c1.4-1.4,3.2-1.4,4.2-1.6c14.6-2.2,32.8-6.8,32.8-23.1
		c0-5.8-4.7-8.4-10.7-8.4c-11.5,0-28.1,9.2-28.3,22.5c-8.9-3.6-12.3-8.2-12.3-13.1c0-11.7,20.8-24.3,37.2-24.3
		c14.6,0,21.6,9.4,21.6,20.1c0,9.8-6.1,20.9-17.8,26.1H415.9z"/>
</g>
<g>
	<path fill="#FFFFFF" d="M466.8,442.5c0-4.2,2.7-7.5,6.8-7.5c4.2,0,6.9,3.3,6.9,7.5c0,4.2-2.7,7.5-6.9,7.5
		C469.5,449.9,466.8,446.6,466.8,442.5z M478.9,442.5c0-3.2-1.9-6.1-5.2-6.1c-3.3,0-5.2,2.9-5.2,6.1c0,3.2,1.9,6.1,5.2,6.1
		C477,448.6,478.9,445.6,478.9,442.5z"/>
	<path fill="#FFFFFF" d="M493.8,449.6V440c0-2.7-1.4-3.6-3.4-3.6c-1.8,0-3.7,1.1-4.6,2.4v10.8h-1.5v-14.2h1.5v2.2
		c1-1.2,3.1-2.5,5.1-2.5c2.9,0,4.5,1.4,4.5,4.6v10H493.8z"/>
	<path fill="#FFFFFF" d="M499,442.5c0-4.1,2.9-7.5,6.9-7.5c4.3,0,6.7,3.4,6.7,7.5v0.4h-11.9c0.1,3.1,2.2,5.7,5.6,5.7
		c1.8,0,3.4-0.7,4.7-2l0.8,1c-1.4,1.5-3.2,2.3-5.6,2.3C502,449.9,499,446.9,499,442.5z M505.8,436.3c-3.4,0-5,2.9-5.2,5.4H511
		C511,439.3,509.4,436.3,505.8,436.3z"/>
	<path fill="#FFFFFF" d="M515.6,443.2v-1.4h7.1v1.4H515.6z"/>
	<path fill="#FFFFFF" d="M526.3,446.9v-10.1H524v-1.4h2.4v-3.9h1.6v3.9h2.9v1.4h-2.9v9.9c0,1.1,0.5,1.9,1.5,1.9
		c0.7,0,1.3-0.3,1.6-0.7l0.6,1.2c-0.6,0.5-1.2,0.9-2.4,0.9C527.3,449.9,526.3,448.8,526.3,446.9z"/>
	<path fill="#FFFFFF" d="M543.8,449.6v-9.7c0-2.7-1.4-3.5-3.4-3.5c-1.8,0-3.7,1.1-4.6,2.4v10.8h-1.5v-19.7h1.5v7.6
		c1-1.2,3.1-2.5,5.1-2.5c2.9,0,4.5,1.4,4.5,4.6v10H543.8z"/>
	<path fill="#FFFFFF" d="M549.4,431.9c0-0.6,0.6-1.1,1.2-1.1c0.6,0,1.2,0.5,1.2,1.1c0,0.6-0.5,1.2-1.2,1.2
		C550,433.1,549.4,432.6,549.4,431.9z M549.8,449.6v-14.2h1.5v14.2H549.8z"/>
	<path fill="#FFFFFF" d="M555.8,449.6v-14.2h1.5v2.4c1.2-1.6,2.8-2.7,4.8-2.7v1.7c-0.3-0.1-0.5-0.1-0.8-0.1c-1.4,0-3.4,1.3-4,2.5
		v10.4H555.8z"/>
	<path fill="#FFFFFF" d="M575.1,449.6v-2.3c-1,1.5-2.8,2.6-5,2.6c-3.8,0-6.4-2.9-6.4-7.5c0-4.5,2.6-7.5,6.4-7.5c2,0,3.8,1,5,2.7
		v-7.7h1.6v19.7H575.1z M575.1,446v-7c-0.8-1.4-2.7-2.6-4.7-2.6c-3.2,0-5,2.7-5,6.1s1.8,6.1,5,6.1
		C572.4,448.6,574.3,447.4,575.1,446z"/>
	<path fill="#FFFFFF" d="M588,443.9c0-3.5,2.3-6.3,5.8-6.3c3.6,0,5.8,2.8,5.8,6.3c0,3.5-2.2,6.3-5.8,6.3
		C590.3,450.2,588,447.4,588,443.9z M598.2,443.9c0-2.7-1.6-5.1-4.4-5.1c-2.8,0-4.4,2.5-4.4,5.1c0,2.7,1.6,5.2,4.4,5.2
		C596.6,449,598.2,446.6,598.2,443.9z"/>
	<path fill="#FFFFFF" d="M603,449.9V439h-2v-1.1h2v-1.1c0-2.3,1.2-3.7,3.3-3.7c0.8,0,1.5,0.2,2.3,0.8l-0.6,0.9
		c-0.4-0.4-0.9-0.6-1.5-0.6c-1.4,0-2.1,0.9-2.1,2.6v1.1h2.4v1.1h-2.4v10.9H603z"/>
	<path fill="#FFFFFF" d="M615.9,447.6V439h-2v-1.1h2v-3.3h1.3v3.3h2.4v1.1h-2.4v8.4c0,1,0.4,1.6,1.2,1.6c0.6,0,1.1-0.3,1.3-0.6
		l0.5,1c-0.5,0.4-1,0.7-2,0.7C616.7,450.2,615.9,449.2,615.9,447.6z"/>
	<path fill="#FFFFFF" d="M630.7,449.9v-8.2c0-2.3-1.2-3-2.9-3c-1.5,0-3.1,1-3.9,2.1v9.1h-1.3v-16.6h1.3v6.4c0.9-1,2.6-2.1,4.3-2.1
		c2.4,0,3.8,1.1,3.8,3.9v8.5H630.7z"/>
	<path fill="#FFFFFF" d="M635.1,443.9c0-3.5,2.5-6.3,5.8-6.3c3.7,0,5.7,2.9,5.7,6.4v0.3h-10.1c0.1,2.6,1.9,4.8,4.7,4.8
		c1.5,0,2.9-0.6,3.9-1.7l0.7,0.8c-1.2,1.2-2.7,1.9-4.7,1.9C637.6,450.2,635.1,447.6,635.1,443.9z M640.9,438.7
		c-2.8,0-4.3,2.5-4.4,4.6h8.7C645.3,441.2,643.9,438.7,640.9,438.7z"/>
</g>
<g>
	<path fill="#FFFFFF" d="M466.8,472c0-4.1,2.9-7.5,6.9-7.5c4.3,0,6.7,3.4,6.7,7.5v0.4h-11.9c0.1,3.1,2.2,5.7,5.6,5.7
		c1.8,0,3.4-0.7,4.7-2l0.8,1c-1.4,1.5-3.2,2.3-5.6,2.3C469.8,479.5,466.8,476.4,466.8,472z M473.7,465.8c-3.4,0-5,2.9-5.2,5.4h10.3
		C478.8,468.8,477.2,465.8,473.7,465.8z"/>
	<path fill="#FFFFFF" d="M493.1,479.1v-1.7c-1.3,1.4-2.9,2-4.8,2c-2.4,0-5-1.7-5-4.7c0-3.1,2.5-4.7,5-4.7c2,0,3.6,0.6,4.8,2v-2.9
		c0-2.1-1.7-3.3-3.8-3.3c-1.8,0-3.2,0.6-4.4,2.1l-0.9-1.1c1.5-1.6,3.1-2.4,5.5-2.4c2.9,0,5.2,1.4,5.2,4.6v10H493.1z M493.1,476.3
		v-3.1c-1-1.3-2.6-2-4.3-2c-2.4,0-3.9,1.5-3.9,3.5c0,2,1.5,3.5,3.9,3.5C490.5,478.2,492.1,477.6,493.1,476.3z"/>
	<path fill="#FFFFFF" d="M499.1,479.1v-14.2h1.5v2.4c1.2-1.6,2.8-2.7,4.8-2.7v1.7c-0.3-0.1-0.5-0.1-0.8-0.1c-1.4,0-3.4,1.3-4,2.5
		v10.4H499.1z"/>
	<path fill="#FFFFFF" d="M509.6,476.4v-10.1h-2.4v-1.4h2.4V461h1.6v3.9h2.9v1.4h-2.9v9.9c0,1.1,0.5,1.9,1.5,1.9
		c0.7,0,1.3-0.3,1.6-0.7l0.6,1.2c-0.6,0.5-1.2,0.9-2.4,0.9C510.5,479.5,509.6,478.3,509.6,476.4z"/>
	<path fill="#FFFFFF" d="M527.1,479.1v-9.7c0-2.7-1.4-3.5-3.4-3.5c-1.8,0-3.7,1.1-4.6,2.4v10.8h-1.5v-19.7h1.5v7.6
		c1-1.2,3.1-2.5,5.1-2.5c2.9,0,4.5,1.4,4.5,4.6v10H527.1z"/>
	<path fill="#FFFFFF" d="M532.5,465l-0.9-0.7c0.9-0.6,1.7-1.8,1.7-2.7c0,0-0.2,0.1-0.3,0.1c-0.7,0-1.2-0.5-1.2-1.2
		c0-0.7,0.6-1.3,1.3-1.3c0.8,0,1.5,0.7,1.5,1.9C534.6,462.7,533.7,464.3,532.5,465z"/>
	<path fill="#FFFFFF" d="M536.4,477.2l0.9-1.1c0.9,1.1,2.6,2.1,4.6,2.1c2.4,0,3.8-1.2,3.8-2.9c0-3.9-9-1.7-9-6.8
		c0-2.2,1.9-3.9,5.1-3.9c2.4,0,4.1,0.9,5.1,2.1l-0.9,1.1c-0.8-1.1-2.4-1.9-4.2-1.9c-2.2,0-3.6,1.1-3.6,2.6c0,3.6,9,1.4,9,6.9
		c0,2.3-1.8,4.2-5.3,4.2C539.6,479.5,537.8,478.8,536.4,477.2z"/>
	<path fill="#FFFFFF" d="M557.6,477.2l0.9-1.1c0.9,1.1,2.6,2.1,4.6,2.1c2.4,0,3.8-1.2,3.8-2.9c0-3.9-9-1.7-9-6.8
		c0-2.2,1.9-3.9,5.1-3.9c2.4,0,4.1,0.9,5.1,2.1l-0.9,1.1c-0.8-1.1-2.4-1.9-4.2-1.9c-2.2,0-3.6,1.1-3.6,2.6c0,3.6,9,1.4,9,6.9
		c0,2.3-1.8,4.2-5.3,4.2C560.7,479.5,559,478.8,557.6,477.2z"/>
	<path fill="#FFFFFF" d="M581.5,479.1V477c-1.2,1.3-3.1,2.4-5.1,2.4c-2.9,0-4.5-1.4-4.5-4.6v-10h1.5v9.7c0,2.8,1.4,3.5,3.4,3.5
		c1.8,0,3.7-1.1,4.6-2.4v-10.8h1.5v14.2H581.5z"/>
	<path fill="#FFFFFF" d="M587.5,479.1v-14.2h1.5v2.4c1.2-1.6,2.8-2.7,4.8-2.7v1.7c-0.3-0.1-0.5-0.1-0.8-0.1c-1.4,0-3.4,1.3-4,2.5
		v10.4H587.5z"/>
	<path fill="#FFFFFF" d="M598.2,479.1v-12.9h-2.4v-1.4h2.4v-1.3c0-2.8,1.5-4.4,3.9-4.4c1,0,1.8,0.2,2.7,1l-0.7,1.1
		c-0.5-0.4-1.1-0.7-1.8-0.7c-1.6,0-2.5,1.1-2.5,3.1v1.3h2.9v1.4h-2.9v12.9H598.2z"/>
	<path fill="#FFFFFF" d="M614.3,479.1v-1.7c-1.3,1.4-2.9,2-4.8,2c-2.4,0-5-1.7-5-4.7c0-3.1,2.5-4.7,5-4.7c2,0,3.6,0.6,4.8,2v-2.9
		c0-2.1-1.7-3.3-3.8-3.3c-1.8,0-3.2,0.6-4.4,2.1l-0.9-1.1c1.5-1.6,3.1-2.4,5.5-2.4c2.9,0,5.2,1.4,5.2,4.6v10H614.3z M614.3,476.3
		v-3.1c-1-1.3-2.6-2-4.3-2c-2.4,0-3.9,1.5-3.9,3.5c0,2,1.5,3.5,3.9,3.5C611.7,478.2,613.3,477.6,614.3,476.3z"/>
	<path fill="#FFFFFF" d="M619.5,472c0-4.2,2.7-7.5,6.9-7.5c2.5,0,3.9,1,5,2.4l-1.1,0.9c-1-1.4-2.3-2-3.9-2c-3.3,0-5.4,2.7-5.4,6.1
		s2,6.1,5.4,6.1c1.6,0,2.9-0.6,3.9-2l1.1,0.9c-1.1,1.5-2.6,2.4-5,2.4C622.2,479.5,619.5,476.1,619.5,472z"/>
	<path fill="#FFFFFF" d="M633.5,472c0-4.1,2.9-7.5,6.9-7.5c4.3,0,6.7,3.4,6.7,7.5v0.4h-11.9c0.1,3.1,2.2,5.7,5.6,5.7
		c1.8,0,3.4-0.7,4.7-2l0.8,1c-1.4,1.5-3.2,2.3-5.6,2.3C636.5,479.5,633.5,476.4,633.5,472z M640.3,465.8c-3.4,0-5,2.9-5.2,5.4h10.3
		C645.5,468.8,643.9,465.8,640.3,465.8z"/>
</g>
<g>
	<path fill="#FFFFFF" d="M467.3,493.8c0-0.7,0.6-1.2,1.2-1.2c0.7,0,1.2,0.5,1.2,1.2c0,0.7-0.5,1.2-1.2,1.2
		C467.8,495,467.3,494.5,467.3,493.8z M467.7,511.7v-14.4h1.6v14.4H467.7z"/>
	<path fill="#FFFFFF" d="M472.5,509.8l0.9-1.2c0.9,1.2,2.6,2.1,4.7,2.1c2.4,0,3.8-1.3,3.8-2.9c0-3.9-9.1-1.7-9.1-6.9
		c0-2.2,1.9-4,5.1-4c2.5,0,4.1,1,5.2,2.1l-0.9,1.1c-0.8-1.1-2.4-1.9-4.3-1.9c-2.2,0-3.6,1.1-3.6,2.6c0,3.6,9.1,1.4,9.1,6.9
		c0,2.3-1.8,4.2-5.4,4.2C475.7,512,474,511.3,472.5,509.8z"/>
	<path fill="#B5BE34" d="M495.6,515.6l1-1.4c1.4,1.7,3,2.3,5.5,2.3c3,0,5.7-1.5,5.7-5.3v-2.6c-1.2,1.7-3.3,3.1-5.8,3.1
		c-4.4,0-7.4-3.3-7.4-8.7c0-5.3,3-8.7,7.4-8.7c2.4,0,4.4,1.2,5.8,3.1v-2.7h1.8v16.4c0,5.1-3.4,6.9-7.5,6.9
		C499.3,518.1,497.5,517.6,495.6,515.6z M507.8,507v-8.1c-1-1.6-3.2-3-5.5-3c-3.7,0-5.8,3.1-5.8,7.1c0,4,2.1,7.1,5.8,7.1
		C504.6,510.1,506.8,508.6,507.8,507z"/>
	<path fill="#B5BE34" d="M514.8,511.3v-16.6h1.8v2.9c1.4-1.9,3.3-3.2,5.6-3.2v2c-0.3-0.1-0.5-0.1-0.9-0.1c-1.7,0-4,1.5-4.7,3v12.1
		H514.8z"/>
	<path fill="#B5BE34" d="M536,511.3v-2c-1.5,1.6-3.3,2.4-5.6,2.4c-2.9,0-5.8-2-5.8-5.5c0-3.6,2.9-5.5,5.8-5.5c2.3,0,4.2,0.8,5.6,2.4
		v-3.4c0-2.5-2-3.8-4.5-3.8c-2.1,0-3.7,0.7-5.2,2.4l-1-1.2c1.7-1.9,3.6-2.8,6.4-2.8c3.4,0,6.1,1.6,6.1,5.3v11.7H536z M536,508.1
		v-3.6c-1.2-1.5-3-2.3-5-2.3c-2.8,0-4.5,1.8-4.5,4.1c0,2.3,1.8,4.1,4.5,4.1C533,510.3,534.9,509.6,536,508.1z"/>
	<path fill="#B5BE34" d="M541.6,509.1l1.1-1.3c1.1,1.3,3,2.4,5.4,2.4c2.8,0,4.4-1.4,4.4-3.4c0-4.5-10.5-2-10.5-7.9
		c0-2.5,2.2-4.6,5.9-4.6c2.9,0,4.7,1.1,6,2.4l-1,1.3c-1-1.3-2.8-2.2-5-2.2c-2.6,0-4.2,1.3-4.2,3c0,4.2,10.5,1.6,10.5,8
		c0,2.7-2.1,4.9-6.2,4.9C545.3,511.7,543.2,511,541.6,509.1z"/>
	<path fill="#B5BE34" d="M557.2,509.1l1.1-1.3c1.1,1.3,3,2.4,5.4,2.4c2.8,0,4.4-1.4,4.4-3.4c0-4.5-10.5-2-10.5-7.9
		c0-2.5,2.2-4.6,5.9-4.6c2.9,0,4.7,1.1,6,2.4l-1,1.3c-1-1.3-2.8-2.2-5-2.2c-2.6,0-4.2,1.3-4.2,3c0,4.2,10.5,1.6,10.5,8
		c0,2.7-2.1,4.9-6.2,4.9C560.9,511.7,558.8,511,557.2,509.1z"/>
	<path fill="#B5BE34" d="M574,511.3v-23h1.8v23H574z"/>
	<path fill="#B5BE34" d="M591.4,511.3v-2c-1.5,1.6-3.3,2.4-5.6,2.4c-2.9,0-5.8-2-5.8-5.5c0-3.6,2.9-5.5,5.8-5.5
		c2.3,0,4.2,0.8,5.6,2.4v-3.4c0-2.5-2-3.8-4.5-3.8c-2.1,0-3.7,0.7-5.2,2.4l-1-1.2c1.7-1.9,3.6-2.8,6.4-2.8c3.4,0,6.1,1.6,6.1,5.3
		v11.7H591.4z M591.4,508.1v-3.6c-1.2-1.5-3-2.3-5-2.3c-2.8,0-4.5,1.8-4.5,4.1c0,2.3,1.8,4.1,4.5,4.1
		C588.3,510.3,590.2,509.6,591.4,508.1z"/>
	<path fill="#B5BE34" d="M609.5,511.3v-11.3c0-3.2-1.6-4.2-4-4.2c-2.1,0-4.3,1.3-5.4,2.9v12.6h-1.8v-16.6h1.8v2.5
		c1.2-1.4,3.6-2.9,6-2.9c3.4,0,5.2,1.7,5.2,5.4v11.6H609.5z"/>
	<path fill="#B5BE34" d="M628.8,511.3v-2.6c-1.2,1.7-3.3,3.1-5.8,3.1c-4.4,0-7.4-3.4-7.4-8.7c0-5.3,3-8.7,7.4-8.7
		c2.4,0,4.4,1.2,5.8,3.1v-9h1.8v23H628.8z M628.8,507.2v-8.2c-1-1.6-3.1-3-5.5-3c-3.7,0-5.8,3.1-5.8,7.1s2.1,7.1,5.8,7.1
		C625.7,510.1,627.8,508.8,628.8,507.2z"/>
	<path fill="#B5BE34" d="M634.4,509.1l1.1-1.3c1.1,1.3,3,2.4,5.4,2.4c2.8,0,4.4-1.4,4.4-3.4c0-4.5-10.5-2-10.5-7.9
		c0-2.5,2.2-4.6,5.9-4.6c2.9,0,4.7,1.1,6,2.4l-1,1.3c-1-1.3-2.8-2.2-5-2.2c-2.6,0-4.2,1.3-4.2,3c0,4.2,10.5,1.6,10.5,8
		c0,2.7-2.1,4.9-6.2,4.9C638.2,511.7,636.1,511,634.4,509.1z"/>
</g>
<g>
	<path fill="#FFFFFF" d="M259.5,559.6l5-11h-6.6v-0.9h7.8v0.7l-5.1,11.2H259.5z"/>
	<path fill="#FFFFFF" d="M271.4,557.8c-3.1,0-4.4-2.6-4.4-5.1c0-2.5,1.3-5.1,4.4-5.1c3.1,0,4.4,2.6,4.4,5.1
		C275.8,555.1,274.4,557.8,271.4,557.8z M271.4,548.5c-2.4,0-3.3,2.1-3.3,4.2s0.9,4.2,3.3,4.2c2.4,0,3.3-2.1,3.3-4.2
		S273.8,548.5,271.4,548.5z"/>
	<path fill="#FFFFFF" d="M279.7,552.4c-1.4,0-2.3-1-2.3-2.4c0-1.4,0.9-2.4,2.3-2.4c1.4,0,2.3,1.1,2.3,2.4
		C282,551.4,281,552.4,279.7,552.4z M279.7,548.2c-0.9,0-1.6,0.8-1.6,1.8c0,1,0.6,1.8,1.6,1.8c1,0,1.6-0.8,1.6-1.8
		C281.2,549,280.6,548.2,279.7,548.2z M279,557.6h-0.8l6.8-9.8h0.8L279,557.6z M284.5,557.8c-1.4,0-2.3-1.1-2.3-2.4
		c0-1.4,0.9-2.4,2.3-2.4c1.4,0,2.3,1.1,2.3,2.4C286.8,556.7,285.9,557.8,284.5,557.8z M284.5,553.5c-0.9,0-1.6,0.8-1.6,1.8
		c0,1,0.6,1.8,1.6,1.8s1.6-0.8,1.6-1.8C286.1,554.3,285.4,553.5,284.5,553.5z"/>
	<path fill="#FFFFFF" d="M292.8,553.2c0-2.5,1.6-4.5,4.1-4.5c2.6,0,4.2,2,4.2,4.5c0,2.5-1.6,4.5-4.2,4.5
		C294.5,557.8,292.8,555.8,292.8,553.2z M300.1,553.2c0-1.9-1.1-3.7-3.2-3.7c-2,0-3.1,1.8-3.1,3.7c0,1.9,1.1,3.7,3.1,3.7
		C299,556.9,300.1,555.2,300.1,553.2z"/>
	<path fill="#FFFFFF" d="M303.6,557.6v-7.8h-1.4v-0.8h1.4v-0.8c0-1.7,0.9-2.7,2.3-2.7c0.6,0,1.1,0.1,1.6,0.6l-0.4,0.6
		c-0.3-0.3-0.6-0.4-1.1-0.4c-1,0-1.5,0.7-1.5,1.9v0.8h1.7v0.8h-1.7v7.8H303.6z"/>
	<path fill="#FFFFFF" d="M312.8,555.9v-6.1h-1.4v-0.8h1.4v-2.4h0.9v2.4h1.7v0.8h-1.7v6c0,0.7,0.3,1.2,0.9,1.2c0.4,0,0.8-0.2,1-0.4
		l0.4,0.7c-0.3,0.3-0.7,0.5-1.5,0.5C313.4,557.8,312.8,557.1,312.8,555.9z"/>
	<path fill="#FFFFFF" d="M323.5,557.6v-5.9c0-1.7-0.8-2.1-2.1-2.1c-1.1,0-2.2,0.7-2.8,1.5v6.5h-0.9v-11.9h0.9v4.6
		c0.6-0.7,1.9-1.5,3.1-1.5c1.7,0,2.7,0.8,2.7,2.8v6.1H323.5z"/>
	<path fill="#FFFFFF" d="M326.7,553.2c0-2.5,1.8-4.5,4.2-4.5c2.6,0,4.1,2.1,4.1,4.6v0.2h-7.2c0.1,1.9,1.3,3.4,3.4,3.4
		c1.1,0,2.1-0.4,2.8-1.2l0.5,0.6c-0.9,0.9-1.9,1.4-3.4,1.4C328.5,557.8,326.7,555.9,326.7,553.2z M330.8,549.5c-2,0-3,1.8-3.1,3.3
		h6.3C334,551.4,333,549.5,330.8,549.5z"/>
	<path fill="#FFFFFF" d="M349.3,557.6l-2.4-7.4l-2.4,7.4h-0.9l-2.8-8.6h1l2.3,7.3l2.4-7.3h0.8l2.4,7.3l2.3-7.3h1l-2.8,8.6H349.3z"/>
	<path fill="#FFFFFF" d="M354.1,553.2c0-2.5,1.6-4.5,4.1-4.5c2.6,0,4.2,2,4.2,4.5c0,2.5-1.6,4.5-4.2,4.5
		C355.7,557.8,354.1,555.8,354.1,553.2z M361.4,553.2c0-1.9-1.1-3.7-3.2-3.7c-2,0-3.1,1.8-3.1,3.7c0,1.9,1.1,3.7,3.1,3.7
		C360.2,556.9,361.4,555.2,361.4,553.2z"/>
	<path fill="#FFFFFF" d="M364.7,557.6v-8.6h0.9v1.5c0.7-1,1.7-1.7,2.9-1.7v1c-0.2,0-0.3,0-0.5,0c-0.9,0-2.1,0.8-2.4,1.5v6.3H364.7z"
		/>
	<path fill="#FFFFFF" d="M370.3,557.6v-11.9h0.9v11.9H370.3z"/>
	<path fill="#FFFFFF" d="M380.4,557.6v-1.4c-0.6,0.9-1.7,1.6-3,1.6c-2.3,0-3.9-1.7-3.9-4.5c0-2.7,1.6-4.5,3.9-4.5
		c1.2,0,2.3,0.6,3,1.6v-4.7h0.9v11.9H380.4z M380.4,555.4v-4.3c-0.5-0.8-1.6-1.6-2.8-1.6c-1.9,0-3,1.6-3,3.7s1.1,3.7,3,3.7
		C378.8,556.9,379.9,556.2,380.4,555.4z"/>
	<path fill="#FFFFFF" d="M384.3,549l-0.5-0.4c0.6-0.4,1-1.1,1-1.7c0,0-0.1,0-0.2,0c-0.4,0-0.7-0.3-0.7-0.7c0-0.4,0.3-0.8,0.8-0.8
		c0.5,0,0.9,0.4,0.9,1.1C385.6,547.6,385,548.6,384.3,549z"/>
	<path fill="#FFFFFF" d="M386.7,556.4l0.6-0.7c0.6,0.7,1.6,1.3,2.8,1.3c1.4,0,2.3-0.7,2.3-1.7c0-2.4-5.4-1-5.4-4.1
		c0-1.3,1.1-2.4,3.1-2.4c1.5,0,2.5,0.6,3.1,1.3l-0.5,0.7c-0.5-0.7-1.4-1.1-2.6-1.1c-1.3,0-2.2,0.7-2.2,1.6c0,2.2,5.4,0.8,5.4,4.2
		c0,1.4-1.1,2.5-3.2,2.5C388.6,557.8,387.6,557.4,386.7,556.4z"/>
	<path fill="#FFFFFF" d="M400.3,559.8l0.5-0.7c0.7,0.9,1.6,1.2,2.9,1.2c1.6,0,2.9-0.8,2.9-2.8v-1.4c-0.6,0.9-1.7,1.6-3,1.6
		c-2.3,0-3.9-1.7-3.9-4.5c0-2.7,1.6-4.5,3.9-4.5c1.2,0,2.3,0.6,3,1.6v-1.4h0.9v8.5c0,2.6-1.8,3.6-3.9,3.6
		C402.2,561.1,401.3,560.8,400.3,559.8z M406.6,555.3v-4.2c-0.5-0.8-1.6-1.6-2.8-1.6c-1.9,0-3,1.6-3,3.7s1.1,3.7,3,3.7
		C405,556.9,406.1,556.2,406.6,555.3z"/>
	<path fill="#FFFFFF" d="M410.3,557.6v-8.6h0.9v1.5c0.7-1,1.7-1.7,2.9-1.7v1c-0.2,0-0.3,0-0.5,0c-0.9,0-2.1,0.8-2.4,1.5v6.3H410.3z"
		/>
	<path fill="#FFFFFF" d="M421.5,557.6v-1c-0.8,0.8-1.7,1.2-2.9,1.2c-1.5,0-3-1-3-2.9c0-1.9,1.5-2.9,3-2.9c1.2,0,2.2,0.4,2.9,1.2
		v-1.7c0-1.3-1-2-2.3-2c-1.1,0-1.9,0.4-2.7,1.3l-0.5-0.6c0.9-1,1.9-1.4,3.3-1.4c1.7,0,3.1,0.8,3.1,2.8v6.1H421.5z M421.5,555.9V554
		c-0.6-0.8-1.6-1.2-2.6-1.2c-1.4,0-2.4,0.9-2.4,2.1c0,1.2,0.9,2.1,2.4,2.1C419.9,557,420.9,556.6,421.5,555.9z"/>
	<path fill="#FFFFFF" d="M424.4,556.4l0.6-0.7c0.6,0.7,1.6,1.3,2.8,1.3c1.4,0,2.3-0.7,2.3-1.7c0-2.4-5.4-1-5.4-4.1
		c0-1.3,1.1-2.4,3.1-2.4c1.5,0,2.5,0.6,3.1,1.3l-0.5,0.7c-0.5-0.7-1.4-1.1-2.6-1.1c-1.3,0-2.2,0.7-2.2,1.6c0,2.2,5.4,0.8,5.4,4.2
		c0,1.4-1.1,2.5-3.2,2.5C426.4,557.8,425.3,557.4,424.4,556.4z"/>
	<path fill="#FFFFFF" d="M432.6,556.4l0.6-0.7c0.6,0.7,1.6,1.3,2.8,1.3c1.4,0,2.3-0.7,2.3-1.7c0-2.4-5.4-1-5.4-4.1
		c0-1.3,1.1-2.4,3.1-2.4c1.5,0,2.5,0.6,3.1,1.3l-0.5,0.7c-0.5-0.7-1.4-1.1-2.6-1.1c-1.3,0-2.2,0.7-2.2,1.6c0,2.2,5.4,0.8,5.4,4.2
		c0,1.4-1.1,2.5-3.2,2.5C434.6,557.8,433.5,557.4,432.6,556.4z"/>
	<path fill="#FFFFFF" d="M441.4,557.6v-11.9h0.9v11.9H441.4z"/>
	<path fill="#FFFFFF" d="M450.6,557.6v-1c-0.8,0.8-1.7,1.2-2.9,1.2c-1.5,0-3-1-3-2.9c0-1.9,1.5-2.9,3-2.9c1.2,0,2.2,0.4,2.9,1.2
		v-1.7c0-1.3-1-2-2.3-2c-1.1,0-1.9,0.4-2.7,1.3l-0.5-0.6c0.9-1,1.9-1.4,3.3-1.4c1.7,0,3.1,0.8,3.1,2.8v6.1H450.6z M450.6,555.9V554
		c-0.6-0.8-1.6-1.2-2.6-1.2c-1.4,0-2.4,0.9-2.4,2.1c0,1.2,0.9,2.1,2.4,2.1C449,557,450,556.6,450.6,555.9z"/>
	<path fill="#FFFFFF" d="M460.1,557.6v-5.8c0-1.7-0.8-2.2-2.1-2.2c-1.1,0-2.2,0.7-2.8,1.5v6.5h-0.9v-8.6h0.9v1.3
		c0.6-0.7,1.9-1.5,3.1-1.5c1.7,0,2.7,0.9,2.7,2.8v6H460.1z"/>
	<path fill="#FFFFFF" d="M470.2,557.6v-1.4c-0.6,0.9-1.7,1.6-3,1.6c-2.3,0-3.9-1.7-3.9-4.5c0-2.7,1.6-4.5,3.9-4.5
		c1.2,0,2.3,0.6,3,1.6v-4.7h0.9v11.9H470.2z M470.2,555.4v-4.3c-0.5-0.8-1.6-1.6-2.8-1.6c-1.9,0-3,1.6-3,3.7s1.1,3.7,3,3.7
		C468.6,556.9,469.7,556.2,470.2,555.4z"/>
	<path fill="#FFFFFF" d="M473.2,556.4l0.6-0.7c0.6,0.7,1.6,1.3,2.8,1.3c1.4,0,2.3-0.7,2.3-1.7c0-2.4-5.4-1-5.4-4.1
		c0-1.3,1.1-2.4,3.1-2.4c1.5,0,2.5,0.6,3.1,1.3l-0.5,0.7c-0.5-0.7-1.4-1.1-2.6-1.1c-1.3,0-2.2,0.7-2.2,1.6c0,2.2,5.4,0.8,5.4,4.2
		c0,1.4-1.1,2.5-3.2,2.5C475.1,557.8,474.1,557.4,473.2,556.4z"/>
	<path fill="#FFFFFF" d="M492.6,557.6v-5.9c0-1.7-0.8-2.1-2.1-2.1c-1.1,0-2.2,0.7-2.8,1.5v6.5h-0.9v-11.9h0.9v4.6
		c0.6-0.7,1.9-1.5,3.1-1.5c1.7,0,2.7,0.8,2.7,2.8v6.1H492.6z"/>
	<path fill="#FFFFFF" d="M501.7,557.6v-1c-0.8,0.8-1.7,1.2-2.9,1.2c-1.5,0-3-1-3-2.9c0-1.9,1.5-2.9,3-2.9c1.2,0,2.2,0.4,2.9,1.2
		v-1.7c0-1.3-1-2-2.3-2c-1.1,0-1.9,0.4-2.7,1.3l-0.5-0.6c0.9-1,1.9-1.4,3.3-1.4c1.7,0,3.1,0.8,3.1,2.8v6.1H501.7z M501.7,555.9V554
		c-0.6-0.8-1.6-1.2-2.6-1.2c-1.4,0-2.4,0.9-2.4,2.1c0,1.2,0.9,2.1,2.4,2.1C500.2,557,501.1,556.6,501.7,555.9z"/>
	<path fill="#FFFFFF" d="M507.7,557.6l-3.6-8.6h1l3.1,7.5l3.1-7.5h1.1l-3.6,8.6H507.7z"/>
	<path fill="#FFFFFF" d="M513.2,553.2c0-2.5,1.8-4.5,4.2-4.5c2.6,0,4.1,2.1,4.1,4.6v0.2h-7.2c0.1,1.9,1.3,3.4,3.4,3.4
		c1.1,0,2.1-0.4,2.8-1.2l0.5,0.6c-0.9,0.9-1.9,1.4-3.4,1.4C515,557.8,513.2,555.9,513.2,553.2z M517.3,549.5c-2,0-3.1,1.8-3.1,3.3
		h6.3C520.4,551.4,519.5,549.5,517.3,549.5z"/>
	<path fill="#FFFFFF" d="M528.4,557.6v-11.9h0.9v4.7c0.7-1,1.8-1.6,3-1.6c2.3,0,3.9,1.8,3.9,4.5c0,2.8-1.6,4.5-3.9,4.5
		c-1.3,0-2.4-0.7-3-1.6v1.4H528.4z M532.2,556.9c1.9,0,3-1.6,3-3.7s-1.1-3.7-3-3.7c-1.2,0-2.3,0.7-2.8,1.6v4.3
		C529.8,556.2,531,556.9,532.2,556.9z"/>
	<path fill="#FFFFFF" d="M538.1,553.2c0-2.5,1.8-4.5,4.2-4.5c2.6,0,4.1,2.1,4.1,4.6v0.2h-7.2c0.1,1.9,1.3,3.4,3.4,3.4
		c1.1,0,2.1-0.4,2.8-1.2l0.5,0.6c-0.9,0.9-1.9,1.4-3.4,1.4C539.9,557.8,538.1,555.9,538.1,553.2z M542.2,549.5c-2,0-3.1,1.8-3.1,3.3
		h6.3C545.3,551.4,544.4,549.5,542.2,549.5z"/>
	<path fill="#FFFFFF" d="M548.1,553.2c0-2.5,1.8-4.5,4.2-4.5c2.6,0,4.1,2.1,4.1,4.6v0.2h-7.2c0.1,1.9,1.3,3.4,3.4,3.4
		c1.1,0,2.1-0.4,2.8-1.2l0.5,0.6c-0.9,0.9-1.9,1.4-3.4,1.4C549.9,557.8,548.1,555.9,548.1,553.2z M552.3,549.5c-2,0-3.1,1.8-3.1,3.3
		h6.3C555.4,551.4,554.4,549.5,552.3,549.5z"/>
	<path fill="#FFFFFF" d="M564.5,557.6v-5.8c0-1.7-0.8-2.2-2.1-2.2c-1.1,0-2.2,0.7-2.8,1.5v6.5h-0.9v-8.6h0.9v1.3
		c0.6-0.7,1.9-1.5,3.1-1.5c1.7,0,2.7,0.9,2.7,2.8v6H564.5z"/>
	<path fill="#FFFFFF" d="M579.2,557.6v-1.4c-0.6,0.9-1.7,1.6-3,1.6c-2.3,0-3.9-1.7-3.9-4.5c0-2.7,1.6-4.5,3.9-4.5
		c1.2,0,2.3,0.6,3,1.6v-4.7h0.9v11.9H579.2z M579.2,555.4v-4.3c-0.5-0.8-1.6-1.6-2.8-1.6c-1.9,0-3,1.6-3,3.7s1.1,3.7,3,3.7
		C577.6,556.9,578.7,556.2,579.2,555.4z"/>
	<path fill="#FFFFFF" d="M582.5,553.2c0-2.5,1.8-4.5,4.2-4.5c2.6,0,4.1,2.1,4.1,4.6v0.2h-7.2c0.1,1.9,1.3,3.4,3.4,3.4
		c1.1,0,2.1-0.4,2.8-1.2l0.5,0.6c-0.9,0.9-1.9,1.4-3.4,1.4C584.3,557.8,582.5,555.9,582.5,553.2z M586.6,549.5c-2,0-3.1,1.8-3.1,3.3
		h6.3C589.8,551.4,588.8,549.5,586.6,549.5z"/>
	<path fill="#FFFFFF" d="M593.1,559.8l0.5-0.7c0.7,0.9,1.6,1.2,2.9,1.2c1.6,0,2.9-0.8,2.9-2.8v-1.4c-0.6,0.9-1.7,1.6-3,1.6
		c-2.3,0-3.9-1.7-3.9-4.5c0-2.7,1.6-4.5,3.9-4.5c1.2,0,2.3,0.6,3,1.6v-1.4h0.9v8.5c0,2.6-1.8,3.6-3.9,3.6
		C595,561.1,594.1,560.8,593.1,559.8z M599.4,555.3v-4.2c-0.5-0.8-1.6-1.6-2.8-1.6c-1.9,0-3,1.6-3,3.7s1.1,3.7,3,3.7
		C597.8,556.9,598.9,556.2,599.4,555.3z"/>
	<path fill="#FFFFFF" d="M603.2,557.6v-8.6h0.9v1.5c0.7-1,1.7-1.7,2.9-1.7v1c-0.2,0-0.3,0-0.5,0c-0.9,0-2.1,0.8-2.4,1.5v6.3H603.2z"
		/>
	<path fill="#FFFFFF" d="M614.3,557.6v-1c-0.8,0.8-1.7,1.2-2.9,1.2c-1.5,0-3-1-3-2.9c0-1.9,1.5-2.9,3-2.9c1.2,0,2.2,0.4,2.9,1.2
		v-1.7c0-1.3-1-2-2.3-2c-1.1,0-1.9,0.4-2.7,1.3l-0.5-0.6c0.9-1,1.9-1.4,3.3-1.4c1.7,0,3.1,0.8,3.1,2.8v6.1H614.3z M614.3,555.9V554
		c-0.6-0.8-1.6-1.2-2.6-1.2c-1.4,0-2.4,0.9-2.4,2.1c0,1.2,0.9,2.1,2.4,2.1C612.7,557,613.7,556.6,614.3,555.9z"/>
	<path fill="#FFFFFF" d="M624.4,557.6v-1.4c-0.6,0.9-1.7,1.6-3,1.6c-2.3,0-3.9-1.7-3.9-4.5c0-2.7,1.6-4.5,3.9-4.5
		c1.2,0,2.3,0.6,3,1.6v-4.7h0.9v11.9H624.4z M624.4,555.4v-4.3c-0.5-0.8-1.6-1.6-2.8-1.6c-1.9,0-3,1.6-3,3.7s1.1,3.7,3,3.7
		C622.7,556.9,623.9,556.2,624.4,555.4z"/>
	<path fill="#FFFFFF" d="M627.6,553.2c0-2.5,1.8-4.5,4.2-4.5c2.6,0,4.1,2.1,4.1,4.6v0.2h-7.2c0.1,1.9,1.3,3.4,3.4,3.4
		c1.1,0,2.1-0.4,2.8-1.2l0.5,0.6c-0.9,0.9-1.9,1.4-3.4,1.4C629.4,557.8,627.6,555.9,627.6,553.2z M631.8,549.5c-2,0-3.1,1.8-3.1,3.3
		h6.3C634.9,551.4,633.9,549.5,631.8,549.5z"/>
	<path fill="#FFFFFF" d="M644.5,557.6v-1.4c-0.6,0.9-1.7,1.6-3,1.6c-2.3,0-3.9-1.7-3.9-4.5c0-2.7,1.6-4.5,3.9-4.5
		c1.2,0,2.3,0.6,3,1.6v-4.7h0.9v11.9H644.5z M644.5,555.4v-4.3c-0.5-0.8-1.6-1.6-2.8-1.6c-1.9,0-3,1.6-3,3.7s1.1,3.7,3,3.7
		C642.9,556.9,644,556.2,644.5,555.4z"/>
</g>
</svg>
