<?xml version="1.0" encoding="utf-8"?>
<!-- Generator: Adobe Illustrator 18.1.1, SVG Export Plug-In . SVG Version: 6.00 Build 0)  -->
<svg version="1.1" id="Layer_1" xmlns="http://www.w3.org/2000/svg" xmlns:xlink="http://www.w3.org/1999/xlink" x="0px" y="0px"
	 viewBox="251.4 330 395.4 239.2" enable-background="new 251.4 330 395.4 239.2" xml:space="preserve">
<rect x="256.3" y="332" opacity="0.63" fill="none" stroke="#FFFFFF" stroke-width="0.5" stroke-linecap="round" stroke-linejoin="round" stroke-miterlimit="10" width="178.3" height="178.3"/>
<rect x="256.3" y="524.6" fill="#DF5B26" width="390.5" height="44.7"/>
<g>
	<path fill="#FFFFFF" d="M279.1,400.5c0.2-1,0.8-1.8,1.6-1.8c1.8,0,6.3,2.4,6.3,4c-2.4,18.9-3.6,36-3.6,52.3c0,16.9,1.2,33,3.6,49.4
		c0.2,1.4-8.3,7.4-13.4,7.4c-1.6,0-2.8-0.6-3.4-2.2c-1.6-4-2.2-10.9-2.2-19.3c0-22.1,4.2-55.3,8.1-76.2
		c-4.9,6.4-14.6,16.7-22.9,16.7c-1.4,0-1.8-0.6-1.8-1.2c0-0.8,0.8-1.8,1.2-2.2C262.7,422.5,278.1,404.8,279.1,400.5z"/>
	<path fill="#FFFFFF" d="M384.7,330c1.2,0,1.6,1,1.6,2.4c0,1.4-0.4,3.4-0.4,4.6c0,0.8,0.2,1.2,0.6,1.4c2.4,1.2,3,2.8,3,4.4
		c0,1.2-0.2,2.4-0.8,3.4c-24.9,49.2-78.7,159.8-89.8,185.3c-0.6,1.8-1.6,2.6-2.8,2.6c-2.8,0-6.7-4.8-7.3-10.9
		c32.2-52.5,77.1-152.1,94.5-192.9C383.9,330.2,384.3,330,384.7,330z"/>
	<path fill="#FFFFFF" d="M414.9,448.2c14.8,0,23.7,13.3,23.7,27.7c0,17.1-12.5,35.8-42.3,35.8c-13.4,0-24.5-4.6-24.5-12.7
		c0-3.4,2-7.2,6.5-11.7c4,6,11.3,8.8,19,8.8c12.9,0,26.7-8.4,26.7-25.3c0-12.7-6.7-17.1-14.8-17.1c-8.3,0-17.8,4.6-22.3,9.4
		c-0.2,0.2-0.4,0.2-0.6,0.2c-0.8,0-1.6-1-1.6-2.2c0-3,0-9.2,1.8-11.3c1.4-1.4,3.2-1.4,4.2-1.6c14.6-2.2,32.8-6.8,32.8-23.1
		c0-5.8-4.7-8.4-10.7-8.4c-11.5,0-28.1,9.2-28.3,22.5c-8.9-3.6-12.3-8.2-12.3-13.1c0-11.7,20.8-24.3,37.2-24.3
		c14.6,0,21.6,9.4,21.6,20.1c0,9.8-6.1,20.9-17.8,26.1H414.9z"/>
</g>
<g>
	<path fill="#FFFFFF" d="M465.8,434.5c0-4.2,2.7-7.5,6.8-7.5c4.2,0,6.9,3.3,6.9,7.5c0,4.2-2.7,7.5-6.9,7.5
		C468.5,441.9,465.8,438.6,465.8,434.5z M477.9,434.5c0-3.2-1.9-6.1-5.2-6.1c-3.3,0-5.2,2.9-5.2,6.1c0,3.2,1.9,6.1,5.2,6.1
		C476,440.6,477.9,437.6,477.9,434.5z"/>
	<path fill="#FFFFFF" d="M492.8,441.6V432c0-2.7-1.4-3.6-3.4-3.6c-1.8,0-3.7,1.1-4.6,2.4v10.8h-1.5v-14.2h1.5v2.2
		c1-1.2,3.1-2.5,5.1-2.5c2.9,0,4.5,1.4,4.5,4.6v10H492.8z"/>
	<path fill="#FFFFFF" d="M498,434.5c0-4.1,2.9-7.5,6.9-7.5c4.3,0,6.7,3.4,6.7,7.5v0.4h-11.9c0.1,3.1,2.2,5.7,5.6,5.7
		c1.8,0,3.4-0.7,4.7-2l0.8,1c-1.4,1.5-3.2,2.3-5.6,2.3C501,441.9,498,438.9,498,434.5z M504.8,428.3c-3.4,0-5,2.9-5.2,5.4H510
		C510,431.3,508.4,428.3,504.8,428.3z"/>
	<path fill="#FFFFFF" d="M514.6,435.2v-1.4h7.1v1.4H514.6z"/>
	<path fill="#FFFFFF" d="M525.3,438.9v-10.1H523v-1.4h2.4v-3.9h1.6v3.9h2.9v1.4h-2.9v9.9c0,1.1,0.5,1.9,1.5,1.9
		c0.7,0,1.3-0.3,1.6-0.7l0.6,1.2c-0.6,0.5-1.2,0.9-2.4,0.9C526.3,441.9,525.3,440.8,525.3,438.9z"/>
	<path fill="#FFFFFF" d="M542.8,441.6v-9.7c0-2.7-1.4-3.5-3.4-3.5c-1.8,0-3.7,1.1-4.6,2.4v10.8h-1.5v-19.7h1.5v7.6
		c1-1.2,3.1-2.5,5.1-2.5c2.9,0,4.5,1.4,4.5,4.6v10H542.8z"/>
	<path fill="#FFFFFF" d="M548.4,423.9c0-0.6,0.6-1.1,1.2-1.1c0.6,0,1.2,0.5,1.2,1.1c0,0.6-0.5,1.2-1.2,1.2
		C549,425.1,548.4,424.6,548.4,423.9z M548.8,441.6v-14.2h1.5v14.2H548.8z"/>
	<path fill="#FFFFFF" d="M554.8,441.6v-14.2h1.5v2.4c1.2-1.6,2.8-2.7,4.8-2.7v1.7c-0.3-0.1-0.5-0.1-0.8-0.1c-1.4,0-3.4,1.3-4,2.5
		v10.4H554.8z"/>
	<path fill="#FFFFFF" d="M574.1,441.6v-2.3c-1,1.5-2.8,2.6-5,2.6c-3.8,0-6.4-2.9-6.4-7.5c0-4.5,2.6-7.5,6.4-7.5c2,0,3.8,1,5,2.7
		v-7.7h1.6v19.7H574.1z M574.1,438v-7c-0.8-1.4-2.7-2.6-4.7-2.6c-3.2,0-5,2.7-5,6.1s1.8,6.1,5,6.1
		C571.4,440.6,573.3,439.4,574.1,438z"/>
	<path fill="#FFFFFF" d="M587,435.9c0-3.5,2.3-6.3,5.8-6.3c3.6,0,5.8,2.8,5.8,6.3c0,3.5-2.2,6.3-5.8,6.3
		C589.3,442.2,587,439.4,587,435.9z M597.2,435.9c0-2.7-1.6-5.1-4.4-5.1c-2.8,0-4.4,2.5-4.4,5.1c0,2.7,1.6,5.2,4.4,5.2
		C595.6,441,597.2,438.6,597.2,435.9z"/>
	<path fill="#FFFFFF" d="M602,441.9V431h-2v-1.1h2v-1.1c0-2.3,1.2-3.7,3.3-3.7c0.8,0,1.5,0.2,2.3,0.8l-0.6,0.9
		c-0.4-0.4-0.9-0.6-1.5-0.6c-1.4,0-2.1,0.9-2.1,2.6v1.1h2.4v1.1h-2.4v10.9H602z"/>
	<path fill="#FFFFFF" d="M614.9,439.6V431h-2v-1.1h2v-3.3h1.3v3.3h2.4v1.1h-2.4v8.4c0,1,0.4,1.6,1.2,1.6c0.6,0,1.1-0.3,1.3-0.6
		l0.5,1c-0.5,0.4-1,0.7-2,0.7C615.7,442.2,614.9,441.2,614.9,439.6z"/>
	<path fill="#FFFFFF" d="M629.7,441.9v-8.2c0-2.3-1.2-3-2.9-3c-1.5,0-3.1,1-3.9,2.1v9.1h-1.3v-16.6h1.3v6.4c0.9-1,2.6-2.1,4.3-2.1
		c2.4,0,3.8,1.1,3.8,3.9v8.5H629.7z"/>
	<path fill="#FFFFFF" d="M634.1,435.9c0-3.5,2.5-6.3,5.8-6.3c3.7,0,5.7,2.9,5.7,6.4v0.3h-10.1c0.1,2.6,1.9,4.8,4.7,4.8
		c1.5,0,2.9-0.6,3.9-1.7l0.7,0.8c-1.2,1.2-2.7,1.9-4.7,1.9C636.6,442.2,634.1,439.6,634.1,435.9z M639.9,430.7
		c-2.8,0-4.3,2.5-4.4,4.6h8.7C644.3,433.2,642.9,430.7,639.9,430.7z"/>
</g>
<g>
	<path fill="#FFFFFF" d="M465.8,464c0-4.1,2.9-7.5,6.9-7.5c4.3,0,6.7,3.4,6.7,7.5v0.4h-11.9c0.1,3.1,2.2,5.7,5.6,5.7
		c1.8,0,3.4-0.7,4.7-2l0.8,1c-1.4,1.5-3.2,2.3-5.6,2.3C468.8,471.5,465.8,468.4,465.8,464z M472.7,457.8c-3.4,0-5,2.9-5.2,5.4h10.3
		C477.8,460.8,476.2,457.8,472.7,457.8z"/>
	<path fill="#FFFFFF" d="M492.1,471.1v-1.7c-1.3,1.4-2.9,2-4.8,2c-2.4,0-5-1.7-5-4.7c0-3.1,2.5-4.7,5-4.7c2,0,3.6,0.6,4.8,2v-2.9
		c0-2.1-1.7-3.3-3.8-3.3c-1.8,0-3.2,0.6-4.4,2.1l-0.9-1.1c1.5-1.6,3.1-2.4,5.5-2.4c2.9,0,5.2,1.4,5.2,4.6v10H492.1z M492.1,468.3
		v-3.1c-1-1.3-2.6-2-4.3-2c-2.4,0-3.9,1.5-3.9,3.5c0,2,1.5,3.5,3.9,3.5C489.5,470.2,491.1,469.6,492.1,468.3z"/>
	<path fill="#FFFFFF" d="M498.1,471.1v-14.2h1.5v2.4c1.2-1.6,2.8-2.7,4.8-2.7v1.7c-0.3-0.1-0.5-0.1-0.8-0.1c-1.4,0-3.4,1.3-4,2.5
		v10.4H498.1z"/>
	<path fill="#FFFFFF" d="M508.6,468.4v-10.1h-2.4v-1.4h2.4V453h1.6v3.9h2.9v1.4h-2.9v9.9c0,1.1,0.5,1.9,1.5,1.9
		c0.7,0,1.3-0.3,1.6-0.7l0.6,1.2c-0.6,0.5-1.2,0.9-2.4,0.9C509.5,471.5,508.6,470.3,508.6,468.4z"/>
	<path fill="#FFFFFF" d="M526.1,471.1v-9.7c0-2.7-1.4-3.5-3.4-3.5c-1.8,0-3.7,1.1-4.6,2.4v10.8h-1.5v-19.7h1.5v7.6
		c1-1.2,3.1-2.5,5.1-2.5c2.9,0,4.5,1.4,4.5,4.6v10H526.1z"/>
	<path fill="#FFFFFF" d="M531.5,457l-0.9-0.7c0.9-0.6,1.7-1.8,1.7-2.7c0,0-0.2,0.1-0.3,0.1c-0.7,0-1.2-0.5-1.2-1.2
		c0-0.7,0.6-1.3,1.3-1.3c0.8,0,1.5,0.7,1.5,1.9C533.6,454.7,532.7,456.3,531.5,457z"/>
	<path fill="#FFFFFF" d="M535.4,469.2l0.9-1.1c0.9,1.1,2.6,2.1,4.6,2.1c2.4,0,3.8-1.2,3.8-2.9c0-3.9-9-1.7-9-6.8
		c0-2.2,1.9-3.9,5.1-3.9c2.4,0,4.1,0.9,5.1,2.1l-0.9,1.1c-0.8-1.1-2.4-1.9-4.2-1.9c-2.2,0-3.6,1.1-3.6,2.6c0,3.6,9,1.4,9,6.9
		c0,2.3-1.8,4.2-5.3,4.2C538.6,471.5,536.8,470.8,535.4,469.2z"/>
	<path fill="#FFFFFF" d="M556.6,469.2l0.9-1.1c0.9,1.1,2.6,2.1,4.6,2.1c2.4,0,3.8-1.2,3.8-2.9c0-3.9-9-1.7-9-6.8
		c0-2.2,1.9-3.9,5.1-3.9c2.4,0,4.1,0.9,5.1,2.1l-0.9,1.1c-0.8-1.1-2.4-1.9-4.2-1.9c-2.2,0-3.6,1.1-3.6,2.6c0,3.6,9,1.4,9,6.9
		c0,2.3-1.8,4.2-5.3,4.2C559.7,471.5,558,470.8,556.6,469.2z"/>
	<path fill="#FFFFFF" d="M580.5,471.1V469c-1.2,1.3-3.1,2.4-5.1,2.4c-2.9,0-4.5-1.4-4.5-4.6v-10h1.5v9.7c0,2.8,1.4,3.5,3.4,3.5
		c1.8,0,3.7-1.1,4.6-2.4v-10.8h1.5v14.2H580.5z"/>
	<path fill="#FFFFFF" d="M586.5,471.1v-14.2h1.5v2.4c1.2-1.6,2.8-2.7,4.8-2.7v1.7c-0.3-0.1-0.5-0.1-0.8-0.1c-1.4,0-3.4,1.3-4,2.5
		v10.4H586.5z"/>
	<path fill="#FFFFFF" d="M597.2,471.1v-12.9h-2.4v-1.4h2.4v-1.3c0-2.8,1.5-4.4,3.9-4.4c1,0,1.8,0.2,2.7,1l-0.7,1.1
		c-0.5-0.4-1.1-0.7-1.8-0.7c-1.6,0-2.5,1.1-2.5,3.1v1.3h2.9v1.4h-2.9v12.9H597.2z"/>
	<path fill="#FFFFFF" d="M613.3,471.1v-1.7c-1.3,1.4-2.9,2-4.8,2c-2.4,0-5-1.7-5-4.7c0-3.1,2.5-4.7,5-4.7c2,0,3.6,0.6,4.8,2v-2.9
		c0-2.1-1.7-3.3-3.8-3.3c-1.8,0-3.2,0.6-4.4,2.1l-0.9-1.1c1.5-1.6,3.1-2.4,5.5-2.4c2.9,0,5.2,1.4,5.2,4.6v10H613.3z M613.3,468.3
		v-3.1c-1-1.3-2.6-2-4.3-2c-2.4,0-3.9,1.5-3.9,3.5c0,2,1.5,3.5,3.9,3.5C610.7,470.2,612.3,469.6,613.3,468.3z"/>
	<path fill="#FFFFFF" d="M618.5,464c0-4.2,2.7-7.5,6.9-7.5c2.5,0,3.9,1,5,2.4l-1.1,0.9c-1-1.4-2.3-2-3.9-2c-3.3,0-5.4,2.7-5.4,6.1
		s2,6.1,5.4,6.1c1.6,0,2.9-0.6,3.9-2l1.1,0.9c-1.1,1.5-2.6,2.4-5,2.4C621.2,471.5,618.5,468.1,618.5,464z"/>
	<path fill="#FFFFFF" d="M632.5,464c0-4.1,2.9-7.5,6.9-7.5c4.3,0,6.7,3.4,6.7,7.5v0.4h-11.9c0.1,3.1,2.2,5.7,5.6,5.7
		c1.8,0,3.4-0.7,4.7-2l0.8,1c-1.4,1.5-3.2,2.3-5.6,2.3C635.5,471.5,632.5,468.4,632.5,464z M639.3,457.8c-3.4,0-5,2.9-5.2,5.4h10.3
		C644.5,460.8,642.9,457.8,639.3,457.8z"/>
</g>
<g>
	<path fill="#FFFFFF" d="M466.3,485.8c0-0.7,0.6-1.2,1.2-1.2c0.7,0,1.2,0.5,1.2,1.2c0,0.7-0.5,1.2-1.2,1.2
		C466.8,487,466.3,486.5,466.3,485.8z M466.7,503.7v-14.4h1.6v14.4H466.7z"/>
	<path fill="#FFFFFF" d="M471.5,501.8l0.9-1.2c0.9,1.2,2.6,2.1,4.7,2.1c2.4,0,3.8-1.3,3.8-2.9c0-3.9-9.1-1.7-9.1-6.9
		c0-2.2,1.9-4,5.1-4c2.5,0,4.1,1,5.2,2.1l-0.9,1.1c-0.8-1.1-2.4-1.9-4.3-1.9c-2.2,0-3.6,1.1-3.6,2.6c0,3.6,9.1,1.4,9.1,6.9
		c0,2.3-1.8,4.2-5.4,4.2C474.7,504,473,503.3,471.5,501.8z"/>
	<path fill="#B5BE34" d="M494.6,507.6l1-1.4c1.4,1.7,3,2.3,5.5,2.3c3,0,5.7-1.5,5.7-5.3v-2.6c-1.2,1.7-3.3,3.1-5.8,3.1
		c-4.4,0-7.4-3.3-7.4-8.7c0-5.3,3-8.7,7.4-8.7c2.4,0,4.4,1.2,5.8,3.1v-2.7h1.8v16.4c0,5.1-3.4,6.9-7.5,6.9
		C498.3,510.1,496.5,509.6,494.6,507.6z M506.8,499v-8.1c-1-1.6-3.2-3-5.5-3c-3.7,0-5.8,3.1-5.8,7.1c0,4,2.1,7.1,5.8,7.1
		C503.6,502.1,505.8,500.6,506.8,499z"/>
	<path fill="#B5BE34" d="M513.8,503.3v-16.6h1.8v2.9c1.4-1.9,3.3-3.2,5.6-3.2v2c-0.3-0.1-0.5-0.1-0.9-0.1c-1.7,0-4,1.5-4.7,3v12.1
		H513.8z"/>
	<path fill="#B5BE34" d="M535,503.3v-2c-1.5,1.6-3.3,2.4-5.6,2.4c-2.9,0-5.8-2-5.8-5.5c0-3.6,2.9-5.5,5.8-5.5c2.3,0,4.2,0.8,5.6,2.4
		v-3.4c0-2.5-2-3.8-4.5-3.8c-2.1,0-3.7,0.7-5.2,2.4l-1-1.2c1.7-1.9,3.6-2.8,6.4-2.8c3.4,0,6.1,1.6,6.1,5.3v11.7H535z M535,500.1
		v-3.6c-1.2-1.5-3-2.3-5-2.3c-2.8,0-4.5,1.8-4.5,4.1c0,2.3,1.8,4.1,4.5,4.1C532,502.3,533.9,501.6,535,500.1z"/>
	<path fill="#B5BE34" d="M540.6,501.1l1.1-1.3c1.1,1.3,3,2.4,5.4,2.4c2.8,0,4.4-1.4,4.4-3.4c0-4.5-10.5-2-10.5-7.9
		c0-2.5,2.2-4.6,5.9-4.6c2.9,0,4.7,1.1,6,2.4l-1,1.3c-1-1.3-2.8-2.2-5-2.2c-2.6,0-4.2,1.3-4.2,3c0,4.2,10.5,1.6,10.5,8
		c0,2.7-2.1,4.9-6.2,4.9C544.3,503.7,542.2,503,540.6,501.1z"/>
	<path fill="#B5BE34" d="M556.2,501.1l1.1-1.3c1.1,1.3,3,2.4,5.4,2.4c2.8,0,4.4-1.4,4.4-3.4c0-4.5-10.5-2-10.5-7.9
		c0-2.5,2.2-4.6,5.9-4.6c2.9,0,4.7,1.1,6,2.4l-1,1.3c-1-1.3-2.8-2.2-5-2.2c-2.6,0-4.2,1.3-4.2,3c0,4.2,10.5,1.6,10.5,8
		c0,2.7-2.1,4.9-6.2,4.9C559.9,503.7,557.8,503,556.2,501.1z"/>
	<path fill="#B5BE34" d="M573,503.3v-23h1.8v23H573z"/>
	<path fill="#B5BE34" d="M590.4,503.3v-2c-1.5,1.6-3.3,2.4-5.6,2.4c-2.9,0-5.8-2-5.8-5.5c0-3.6,2.9-5.5,5.8-5.5
		c2.3,0,4.2,0.8,5.6,2.4v-3.4c0-2.5-2-3.8-4.5-3.8c-2.1,0-3.7,0.7-5.2,2.4l-1-1.2c1.7-1.9,3.6-2.8,6.4-2.8c3.4,0,6.1,1.6,6.1,5.3
		v11.7H590.4z M590.4,500.1v-3.6c-1.2-1.5-3-2.3-5-2.3c-2.8,0-4.5,1.8-4.5,4.1c0,2.3,1.8,4.1,4.5,4.1
		C587.3,502.3,589.2,501.6,590.4,500.1z"/>
	<path fill="#B5BE34" d="M608.5,503.3v-11.3c0-3.2-1.6-4.2-4-4.2c-2.1,0-4.3,1.3-5.4,2.9v12.6h-1.8v-16.6h1.8v2.5
		c1.2-1.4,3.6-2.9,6-2.9c3.4,0,5.2,1.7,5.2,5.4v11.6H608.5z"/>
	<path fill="#B5BE34" d="M627.8,503.3v-2.6c-1.2,1.7-3.3,3.1-5.8,3.1c-4.4,0-7.4-3.4-7.4-8.7c0-5.3,3-8.7,7.4-8.7
		c2.4,0,4.4,1.2,5.8,3.1v-9h1.8v23H627.8z M627.8,499.2v-8.2c-1-1.6-3.1-3-5.5-3c-3.7,0-5.8,3.1-5.8,7.1s2.1,7.1,5.8,7.1
		C624.7,502.1,626.8,500.8,627.8,499.2z"/>
	<path fill="#B5BE34" d="M633.4,501.1l1.1-1.3c1.1,1.3,3,2.4,5.4,2.4c2.8,0,4.4-1.4,4.4-3.4c0-4.5-10.5-2-10.5-7.9
		c0-2.5,2.2-4.6,5.9-4.6c2.9,0,4.7,1.1,6,2.4l-1,1.3c-1-1.3-2.8-2.2-5-2.2c-2.6,0-4.2,1.3-4.2,3c0,4.2,10.5,1.6,10.5,8
		c0,2.7-2.1,4.9-6.2,4.9C637.2,503.7,635.1,503,633.4,501.1z"/>
</g>
<g>
	<path fill="#FFFFFF" d="M265.7,554.3l4.9-10.7h-6.4v-0.9h7.6v0.7l-4.9,10.9H265.7z"/>
	<path fill="#FFFFFF" d="M277.2,552.4c-3,0-4.3-2.6-4.3-5c0-2.4,1.3-5,4.3-5c3,0,4.3,2.5,4.3,5C281.5,549.9,280.2,552.4,277.2,552.4
		z M277.2,543.4c-2.3,0-3.2,2.1-3.2,4.1s0.9,4.1,3.2,4.1c2.3,0,3.2-2.1,3.2-4.1S279.5,543.4,277.2,543.4z"/>
	<path fill="#FFFFFF" d="M285.3,547.2c-1.3,0-2.2-1-2.2-2.3c0-1.3,0.9-2.4,2.2-2.4c1.3,0,2.3,1,2.3,2.4
		C287.5,546.2,286.6,547.2,285.3,547.2z M285.3,543.1c-0.9,0-1.5,0.8-1.5,1.8c0,1,0.6,1.8,1.5,1.8c0.9,0,1.5-0.8,1.5-1.8
		C286.8,543.9,286.2,543.1,285.3,543.1z M284.7,552.2h-0.8l6.6-9.5h0.8L284.7,552.2z M290,552.4c-1.3,0-2.2-1-2.2-2.4
		c0-1.4,0.9-2.4,2.2-2.4c1.3,0,2.2,1,2.2,2.4C292.2,551.4,291.3,552.4,290,552.4z M290,548.3c-0.9,0-1.5,0.8-1.5,1.8
		c0,1,0.6,1.8,1.5,1.8s1.5-0.8,1.5-1.8C291.5,549.1,290.9,548.3,290,548.3z"/>
	<path fill="#FFFFFF" d="M298.1,548c0-2.4,1.6-4.4,4-4.4c2.5,0,4,1.9,4,4.4c0,2.4-1.6,4.4-4,4.4C299.7,552.4,298.1,550.5,298.1,548z
		 M305.2,548c0-1.9-1.1-3.6-3.1-3.6c-1.9,0-3.1,1.7-3.1,3.6c0,1.9,1.1,3.6,3.1,3.6C304.1,551.6,305.2,549.9,305.2,548z"/>
	<path fill="#FFFFFF" d="M308.6,552.2v-7.6h-1.4v-0.8h1.4v-0.8c0-1.6,0.9-2.6,2.3-2.6c0.6,0,1.1,0.1,1.6,0.6l-0.4,0.6
		c-0.3-0.3-0.6-0.4-1.1-0.4c-1,0-1.5,0.7-1.5,1.8v0.8h1.7v0.8h-1.7v7.6H308.6z"/>
	<path fill="#FFFFFF" d="M317.5,550.6v-6h-1.4v-0.8h1.4v-2.3h0.9v2.3h1.7v0.8h-1.7v5.8c0,0.7,0.3,1.1,0.9,1.1c0.4,0,0.7-0.2,0.9-0.4
		l0.3,0.7c-0.3,0.3-0.7,0.5-1.4,0.5C318.1,552.4,317.5,551.8,317.5,550.6z"/>
	<path fill="#FFFFFF" d="M327.9,552.2v-5.7c0-1.6-0.8-2.1-2-2.1c-1.1,0-2.2,0.7-2.7,1.4v6.3h-0.9v-11.6h0.9v4.5
		c0.6-0.7,1.8-1.5,3-1.5c1.7,0,2.6,0.8,2.6,2.7v5.9H327.9z"/>
	<path fill="#FFFFFF" d="M331,548c0-2.4,1.7-4.4,4-4.4c2.6,0,4,2,4,4.4v0.2h-7c0.1,1.8,1.3,3.3,3.3,3.3c1.1,0,2-0.4,2.7-1.2l0.5,0.6
		c-0.8,0.9-1.9,1.4-3.3,1.4C332.8,552.4,331,550.6,331,548z M335,544.4c-2,0-3,1.7-3,3.2h6.1C338.1,546.2,337.1,544.4,335,544.4z"/>
	<path fill="#FFFFFF" d="M353,552.2l-2.3-7.2l-2.4,7.2h-0.9l-2.7-8.4h1l2.2,7.1l2.4-7.1h0.8l2.4,7.1l2.2-7.1h1l-2.7,8.4H353z"/>
	<path fill="#FFFFFF" d="M357.6,548c0-2.4,1.6-4.4,4-4.4c2.5,0,4,1.9,4,4.4c0,2.4-1.6,4.4-4,4.4C359.2,552.4,357.6,550.5,357.6,548z
		 M364.7,548c0-1.9-1.1-3.6-3.1-3.6c-1.9,0-3.1,1.7-3.1,3.6c0,1.9,1.1,3.6,3.1,3.6C363.6,551.6,364.7,549.9,364.7,548z"/>
	<path fill="#FFFFFF" d="M368,552.2v-8.4h0.9v1.4c0.7-0.9,1.7-1.6,2.8-1.6v1c-0.2,0-0.3,0-0.5,0c-0.9,0-2,0.8-2.4,1.5v6.1H368z"/>
	<path fill="#FFFFFF" d="M373.4,552.2v-11.6h0.9v11.6H373.4z"/>
	<path fill="#FFFFFF" d="M383.3,552.2v-1.3c-0.6,0.9-1.7,1.5-2.9,1.5c-2.2,0-3.7-1.7-3.7-4.4c0-2.7,1.5-4.4,3.7-4.4
		c1.2,0,2.2,0.6,2.9,1.6v-4.5h0.9v11.6H383.3z M383.3,550.1V546c-0.5-0.8-1.6-1.5-2.8-1.5c-1.9,0-2.9,1.6-2.9,3.6s1.1,3.6,2.9,3.6
		C381.7,551.6,382.8,550.9,383.3,550.1z"/>
	<path fill="#FFFFFF" d="M387,544l-0.5-0.4c0.6-0.4,1-1.1,1-1.6c0,0-0.1,0-0.2,0c-0.4,0-0.7-0.3-0.7-0.7c0-0.4,0.3-0.7,0.7-0.7
		c0.5,0,0.9,0.4,0.9,1.1C388.3,542.6,387.7,543.5,387,544z"/>
	<path fill="#FFFFFF" d="M389.4,551.1l0.5-0.7c0.5,0.7,1.5,1.2,2.7,1.2c1.4,0,2.2-0.7,2.2-1.7c0-2.3-5.3-1-5.3-4
		c0-1.3,1.1-2.3,3-2.3c1.4,0,2.4,0.6,3,1.2l-0.5,0.6c-0.5-0.7-1.4-1.1-2.5-1.1c-1.3,0-2.1,0.7-2.1,1.5c0,2.1,5.3,0.8,5.3,4
		c0,1.4-1,2.5-3.1,2.5C391.3,552.4,390.2,552,389.4,551.1z"/>
	<path fill="#FFFFFF" d="M402.6,554.4l0.5-0.7c0.7,0.9,1.5,1.2,2.8,1.2c1.5,0,2.9-0.8,2.9-2.7v-1.3c-0.6,0.9-1.7,1.6-2.9,1.6
		c-2.2,0-3.7-1.7-3.7-4.4c0-2.7,1.5-4.4,3.7-4.4c1.2,0,2.2,0.6,2.9,1.6v-1.4h0.9v8.3c0,2.6-1.7,3.5-3.8,3.5
		C404.5,555.6,403.6,555.4,402.6,554.4z M408.8,550.1V546c-0.5-0.8-1.6-1.5-2.8-1.5c-1.9,0-2.9,1.5-2.9,3.6c0,2,1.1,3.6,2.9,3.6
		C407.2,551.6,408.3,550.9,408.8,550.1z"/>
	<path fill="#FFFFFF" d="M412.4,552.2v-8.4h0.9v1.4c0.7-0.9,1.7-1.6,2.8-1.6v1c-0.2,0-0.3,0-0.5,0c-0.9,0-2,0.8-2.4,1.5v6.1H412.4z"
		/>
	<path fill="#FFFFFF" d="M423.2,552.2v-1c-0.7,0.8-1.7,1.2-2.8,1.2c-1.4,0-2.9-1-2.9-2.8c0-1.8,1.5-2.8,2.9-2.8
		c1.2,0,2.1,0.4,2.8,1.2v-1.7c0-1.2-1-1.9-2.3-1.9c-1,0-1.9,0.4-2.6,1.2l-0.5-0.6c0.9-0.9,1.8-1.4,3.2-1.4c1.7,0,3.1,0.8,3.1,2.7
		v5.9H423.2z M423.2,550.6v-1.8c-0.6-0.8-1.5-1.2-2.5-1.2c-1.4,0-2.3,0.9-2.3,2.1c0,1.2,0.9,2.1,2.3,2.1
		C421.7,551.7,422.6,551.3,423.2,550.6z"/>
	<path fill="#FFFFFF" d="M426.1,551.1l0.5-0.7c0.5,0.7,1.5,1.2,2.7,1.2c1.4,0,2.2-0.7,2.2-1.7c0-2.3-5.3-1-5.3-4
		c0-1.3,1.1-2.3,3-2.3c1.4,0,2.4,0.6,3,1.2l-0.5,0.6c-0.5-0.7-1.4-1.1-2.5-1.1c-1.3,0-2.1,0.7-2.1,1.5c0,2.1,5.3,0.8,5.3,4
		c0,1.4-1,2.5-3.1,2.5C428,552.4,426.9,552,426.1,551.1z"/>
	<path fill="#FFFFFF" d="M434.1,551.1l0.5-0.7c0.5,0.7,1.5,1.2,2.7,1.2c1.4,0,2.2-0.7,2.2-1.7c0-2.3-5.3-1-5.3-4
		c0-1.3,1.1-2.3,3-2.3c1.4,0,2.4,0.6,3,1.2l-0.5,0.6c-0.5-0.7-1.4-1.1-2.5-1.1c-1.3,0-2.1,0.7-2.1,1.5c0,2.1,5.3,0.8,5.3,4
		c0,1.4-1,2.5-3.1,2.5C435.9,552.4,434.9,552,434.1,551.1z"/>
	<path fill="#FFFFFF" d="M442.6,552.2v-11.6h0.9v11.6H442.6z"/>
	<path fill="#FFFFFF" d="M451.5,552.2v-1c-0.7,0.8-1.7,1.2-2.8,1.2c-1.4,0-2.9-1-2.9-2.8c0-1.8,1.5-2.8,2.9-2.8
		c1.2,0,2.1,0.4,2.8,1.2v-1.7c0-1.2-1-1.9-2.3-1.9c-1,0-1.9,0.4-2.6,1.2l-0.5-0.6c0.9-0.9,1.8-1.4,3.2-1.4c1.7,0,3.1,0.8,3.1,2.7
		v5.9H451.5z M451.5,550.6v-1.8c-0.6-0.8-1.5-1.2-2.5-1.2c-1.4,0-2.3,0.9-2.3,2.1c0,1.2,0.9,2.1,2.3,2.1
		C450,551.7,450.9,551.3,451.5,550.6z"/>
	<path fill="#FFFFFF" d="M460.8,552.2v-5.7c0-1.6-0.8-2.1-2-2.1c-1.1,0-2.2,0.7-2.7,1.4v6.3h-0.9v-8.4h0.9v1.3
		c0.6-0.7,1.8-1.5,3-1.5c1.7,0,2.6,0.8,2.6,2.7v5.9H460.8z"/>
	<path fill="#FFFFFF" d="M470.6,552.2v-1.3c-0.6,0.9-1.7,1.5-2.9,1.5c-2.2,0-3.7-1.7-3.7-4.4c0-2.7,1.5-4.4,3.7-4.4
		c1.2,0,2.2,0.6,2.9,1.6v-4.5h0.9v11.6H470.6z M470.6,550.1V546c-0.5-0.8-1.6-1.5-2.8-1.5c-1.9,0-2.9,1.6-2.9,3.6s1.1,3.6,2.9,3.6
		C469,551.6,470.1,550.9,470.6,550.1z"/>
	<path fill="#FFFFFF" d="M473.5,551.1l0.5-0.7c0.5,0.7,1.5,1.2,2.7,1.2c1.4,0,2.2-0.7,2.2-1.7c0-2.3-5.3-1-5.3-4
		c0-1.3,1.1-2.3,3-2.3c1.4,0,2.4,0.6,3,1.2l-0.5,0.6c-0.5-0.7-1.4-1.1-2.5-1.1c-1.3,0-2.1,0.7-2.1,1.5c0,2.1,5.3,0.8,5.3,4
		c0,1.4-1,2.5-3.1,2.5C475.4,552.4,474.4,552,473.5,551.1z"/>
	<path fill="#FFFFFF" d="M492.4,552.2v-5.7c0-1.6-0.8-2.1-2-2.1c-1.1,0-2.2,0.7-2.7,1.4v6.3h-0.9v-11.6h0.9v4.5
		c0.6-0.7,1.8-1.5,3-1.5c1.7,0,2.6,0.8,2.6,2.7v5.9H492.4z"/>
	<path fill="#FFFFFF" d="M501.3,552.2v-1c-0.7,0.8-1.7,1.2-2.8,1.2c-1.4,0-2.9-1-2.9-2.8c0-1.8,1.5-2.8,2.9-2.8
		c1.2,0,2.1,0.4,2.8,1.2v-1.7c0-1.2-1-1.9-2.3-1.9c-1,0-1.9,0.4-2.6,1.2l-0.5-0.6c0.9-0.9,1.8-1.4,3.2-1.4c1.7,0,3.1,0.8,3.1,2.7
		v5.9H501.3z M501.3,550.6v-1.8c-0.6-0.8-1.5-1.2-2.5-1.2c-1.4,0-2.3,0.9-2.3,2.1c0,1.2,0.9,2.1,2.3,2.1
		C499.7,551.7,500.7,551.3,501.3,550.6z"/>
	<path fill="#FFFFFF" d="M507,552.2l-3.5-8.4h1l3.1,7.3l3-7.3h1l-3.5,8.4H507z"/>
	<path fill="#FFFFFF" d="M512.4,548c0-2.4,1.7-4.4,4-4.4c2.6,0,4,2,4,4.4v0.2h-7c0.1,1.8,1.3,3.3,3.3,3.3c1.1,0,2-0.4,2.7-1.2
		l0.5,0.6c-0.8,0.9-1.9,1.4-3.3,1.4C514.2,552.4,512.4,550.6,512.4,548z M516.4,544.4c-2,0-3,1.7-3,3.2h6.1
		C519.5,546.2,518.5,544.4,516.4,544.4z"/>
	<path fill="#FFFFFF" d="M527.2,552.2v-11.6h0.9v4.5c0.7-1,1.7-1.6,2.9-1.6c2.2,0,3.7,1.8,3.7,4.4c0,2.7-1.5,4.4-3.7,4.4
		c-1.2,0-2.3-0.7-2.9-1.5v1.3H527.2z M530.9,551.6c1.9,0,2.9-1.5,2.9-3.6s-1.1-3.6-2.9-3.6c-1.2,0-2.3,0.7-2.8,1.5v4.1
		C528.6,550.9,529.7,551.6,530.9,551.6z"/>
	<path fill="#FFFFFF" d="M536.6,548c0-2.4,1.7-4.4,4-4.4c2.6,0,4,2,4,4.4v0.2h-7c0.1,1.8,1.3,3.3,3.3,3.3c1.1,0,2-0.4,2.7-1.2
		l0.5,0.6c-0.8,0.9-1.9,1.4-3.3,1.4C538.3,552.4,536.6,550.6,536.6,548z M540.6,544.4c-2,0-3,1.7-3,3.2h6.1
		C543.7,546.2,542.7,544.4,540.6,544.4z"/>
	<path fill="#FFFFFF" d="M546.4,548c0-2.4,1.7-4.4,4-4.4c2.6,0,4,2,4,4.4v0.2h-7c0.1,1.8,1.3,3.3,3.3,3.3c1.1,0,2-0.4,2.7-1.2
		l0.5,0.6c-0.8,0.9-1.9,1.4-3.3,1.4C548.2,552.4,546.4,550.6,546.4,548z M550.4,544.4c-2,0-3,1.7-3,3.2h6.1
		C553.5,546.2,552.5,544.4,550.4,544.4z"/>
	<path fill="#FFFFFF" d="M562.3,552.2v-5.7c0-1.6-0.8-2.1-2-2.1c-1.1,0-2.2,0.7-2.7,1.4v6.3h-0.9v-8.4h0.9v1.3
		c0.6-0.7,1.8-1.5,3-1.5c1.7,0,2.6,0.8,2.6,2.7v5.9H562.3z"/>
	<path fill="#FFFFFF" d="M576.7,552.2v-1.3c-0.6,0.9-1.7,1.5-2.9,1.5c-2.2,0-3.7-1.7-3.7-4.4c0-2.7,1.5-4.4,3.7-4.4
		c1.2,0,2.2,0.6,2.9,1.6v-4.5h0.9v11.6H576.7z M576.7,550.1V546c-0.5-0.8-1.6-1.5-2.8-1.5c-1.9,0-2.9,1.6-2.9,3.6s1.1,3.6,2.9,3.6
		C575.1,551.6,576.2,550.9,576.7,550.1z"/>
	<path fill="#FFFFFF" d="M579.8,548c0-2.4,1.7-4.4,4-4.4c2.6,0,4,2,4,4.4v0.2h-7c0.1,1.8,1.3,3.3,3.3,3.3c1.1,0,2-0.4,2.7-1.2
		l0.5,0.6c-0.8,0.9-1.9,1.4-3.3,1.4C581.6,552.4,579.8,550.6,579.8,548z M583.8,544.4c-2,0-3,1.7-3,3.2h6.1
		C586.9,546.2,585.9,544.4,583.8,544.4z"/>
	<path fill="#FFFFFF" d="M590.1,554.4l0.5-0.7c0.7,0.9,1.5,1.2,2.8,1.2c1.5,0,2.9-0.8,2.9-2.7v-1.3c-0.6,0.9-1.7,1.6-2.9,1.6
		c-2.2,0-3.7-1.7-3.7-4.4c0-2.7,1.5-4.4,3.7-4.4c1.2,0,2.2,0.6,2.9,1.6v-1.4h0.9v8.3c0,2.6-1.7,3.5-3.8,3.5
		C592,555.6,591.1,555.4,590.1,554.4z M596.3,550.1V546c-0.5-0.8-1.6-1.5-2.8-1.5c-1.9,0-2.9,1.5-2.9,3.6c0,2,1.1,3.6,2.9,3.6
		C594.7,551.6,595.8,550.9,596.3,550.1z"/>
	<path fill="#FFFFFF" d="M599.9,552.2v-8.4h0.9v1.4c0.7-0.9,1.7-1.6,2.8-1.6v1c-0.2,0-0.3,0-0.5,0c-0.9,0-2,0.8-2.4,1.5v6.1H599.9z"
		/>
	<path fill="#FFFFFF" d="M610.7,552.2v-1c-0.7,0.8-1.7,1.2-2.8,1.2c-1.4,0-2.9-1-2.9-2.8c0-1.8,1.5-2.8,2.9-2.8
		c1.2,0,2.1,0.4,2.8,1.2v-1.7c0-1.2-1-1.9-2.3-1.9c-1,0-1.9,0.4-2.6,1.2l-0.5-0.6c0.9-0.9,1.8-1.4,3.2-1.4c1.7,0,3.1,0.8,3.1,2.7
		v5.9H610.7z M610.7,550.6v-1.8c-0.6-0.8-1.5-1.2-2.5-1.2c-1.4,0-2.3,0.9-2.3,2.1c0,1.2,0.9,2.1,2.3,2.1
		C609.2,551.7,610.1,551.3,610.7,550.6z"/>
	<path fill="#FFFFFF" d="M620.5,552.2v-1.3c-0.6,0.9-1.7,1.5-2.9,1.5c-2.2,0-3.7-1.7-3.7-4.4c0-2.7,1.5-4.4,3.7-4.4
		c1.2,0,2.2,0.6,2.9,1.6v-4.5h0.9v11.6H620.5z M620.5,550.1V546c-0.5-0.8-1.6-1.5-2.8-1.5c-1.9,0-2.9,1.6-2.9,3.6s1.1,3.6,2.9,3.6
		C619,551.6,620.1,550.9,620.5,550.1z"/>
	<path fill="#FFFFFF" d="M623.7,548c0-2.4,1.7-4.4,4-4.4c2.6,0,4,2,4,4.4v0.2h-7c0.1,1.8,1.3,3.3,3.3,3.3c1.1,0,2-0.4,2.7-1.2
		l0.5,0.6c-0.8,0.9-1.9,1.4-3.3,1.4C625.5,552.4,623.7,550.6,623.7,548z M627.7,544.4c-2,0-3,1.7-3,3.2h6.1
		C630.8,546.2,629.8,544.4,627.7,544.4z"/>
	<path fill="#FFFFFF" d="M640.2,552.2v-1.3c-0.6,0.9-1.7,1.5-2.9,1.5c-2.2,0-3.7-1.7-3.7-4.4c0-2.7,1.5-4.4,3.7-4.4
		c1.2,0,2.2,0.6,2.9,1.6v-4.5h0.9v11.6H640.2z M640.2,550.1V546c-0.5-0.8-1.6-1.5-2.8-1.5c-1.9,0-2.9,1.6-2.9,3.6s1.1,3.6,2.9,3.6
		C638.6,551.6,639.7,550.9,640.2,550.1z"/>
</g>
</svg>
