<?xml version="1.0" encoding="utf-8"?>
<!-- Generator: Adobe Illustrator 18.1.1, SVG Export Plug-In . SVG Version: 6.00 Build 0)  -->
<svg version="1.1" id="Layer_1" xmlns="http://www.w3.org/2000/svg" xmlns:xlink="http://www.w3.org/1999/xlink" x="0px" y="0px"
	 viewBox="234.4 316.6 410.5 262.9" enable-background="new 234.4 316.6 410.5 262.9" xml:space="preserve">
<g>
	<path fill="#FFFFFF" d="M242,413.3l-7.6-1.2l27.6-36.2c1-1.2,23.2,6.8,22.2,9.8c-5.6,17.4-16.2,95.6-16.6,99.2
		c-15.4-4-17.8-8.6-17.6-10.4c0,0,1.8-36.4,11-83.8L242,413.3z"/>
	<path fill="#FFFFFF" d="M312,484.7l-10.4,0.2c24.2-50,46.2-95.8,71.2-148.2l5.8,9C350.4,396.7,334.8,431.3,312,484.7z"/>
	<path fill="#FFFFFF" d="M408.3,491.5c31.4-4,35-50-6.6-46.4c-5.4,0.4-2-17.2-2-17.2c45.4-9.8,31-48.4,12-49
		c-12.2-0.4-26,13.6-18.6,32.4c-26-5.2-10.8-32.8,11-37c44-8.8,67.2,35.6,15.4,55c51.2,13.2,35.6,72-25.2,68.6
		c-42.2-2.2-42-37.8-19.8-46.8C366.5,461.5,372.7,495.9,408.3,491.5z"/>
</g>
<rect x="253" y="317.1" opacity="0.55" fill="none" stroke="#FFFFFF" stroke-miterlimit="10" width="178.6" height="178.6"/>
<g>
	<path fill="#FFFFFF" d="M462.8,405.1c0-4.2,2.7-7.5,6.8-7.5c4.2,0,6.9,3.3,6.9,7.5c0,4.2-2.7,7.5-6.9,7.5
		C465.5,412.6,462.8,409.2,462.8,405.1z M474.9,405.1c0-3.2-1.9-6.1-5.2-6.1c-3.3,0-5.2,2.9-5.2,6.1c0,3.2,1.9,6.1,5.2,6.1
		C473,411.2,474.9,408.3,474.9,405.1z"/>
	<path fill="#FFFFFF" d="M489.8,412.2v-9.6c0-2.7-1.4-3.6-3.4-3.6c-1.8,0-3.7,1.1-4.6,2.4v10.8h-1.5V398h1.5v2.2
		c1-1.2,3.1-2.5,5.1-2.5c2.9,0,4.5,1.4,4.5,4.6v10H489.8z"/>
	<path fill="#FFFFFF" d="M495,405.1c0-4.1,2.9-7.5,6.9-7.5c4.3,0,6.7,3.4,6.7,7.5v0.4h-11.9c0.1,3.1,2.2,5.7,5.6,5.7
		c1.8,0,3.4-0.7,4.7-2l0.8,1c-1.4,1.5-3.2,2.3-5.6,2.3C498,412.6,495,409.5,495,405.1z M501.8,399c-3.4,0-5,2.9-5.2,5.4H507
		C507,402,505.4,399,501.8,399z"/>
	<path fill="#FFFFFF" d="M511.6,405.8v-1.4h7.1v1.4H511.6z"/>
	<path fill="#FFFFFF" d="M522.3,409.5v-10.1H520V398h2.4v-3.9h1.6v3.9h2.9v1.4h-2.9v9.9c0,1.1,0.5,1.9,1.5,1.9
		c0.7,0,1.3-0.3,1.6-0.7l0.6,1.2c-0.6,0.5-1.2,0.9-2.4,0.9C523.3,412.6,522.3,411.4,522.3,409.5z"/>
	<path fill="#FFFFFF" d="M539.8,412.2v-9.7c0-2.7-1.4-3.5-3.4-3.5c-1.8,0-3.7,1.1-4.6,2.4v10.8h-1.5v-19.7h1.5v7.6
		c1-1.2,3.1-2.5,5.1-2.5c2.9,0,4.5,1.4,4.5,4.6v10H539.8z"/>
	<path fill="#FFFFFF" d="M545.4,394.6c0-0.6,0.6-1.1,1.2-1.1c0.6,0,1.2,0.5,1.2,1.1c0,0.6-0.5,1.2-1.2,1.2
		C546,395.7,545.4,395.2,545.4,394.6z M545.8,412.2V398h1.5v14.2H545.8z"/>
	<path fill="#FFFFFF" d="M551.8,412.2V398h1.5v2.4c1.2-1.6,2.8-2.7,4.8-2.7v1.7c-0.3-0.1-0.5-0.1-0.8-0.1c-1.4,0-3.4,1.3-4,2.5v10.4
		H551.8z"/>
	<path fill="#FFFFFF" d="M571.1,412.2V410c-1,1.5-2.8,2.6-5,2.6c-3.8,0-6.4-2.9-6.4-7.5c0-4.5,2.6-7.5,6.4-7.5c2,0,3.8,1,5,2.7v-7.7
		h1.6v19.7H571.1z M571.1,408.7v-7c-0.8-1.4-2.7-2.6-4.7-2.6c-3.2,0-5,2.7-5,6.1s1.8,6.1,5,6.1C568.4,411.2,570.3,410,571.1,408.7z"
		/>
	<path fill="#FFFFFF" d="M584,406.5c0-3.5,2.3-6.3,5.8-6.3c3.6,0,5.8,2.8,5.8,6.3c0,3.5-2.2,6.3-5.8,6.3
		C586.3,412.8,584,410,584,406.5z M594.2,406.5c0-2.7-1.6-5.1-4.4-5.1c-2.8,0-4.4,2.5-4.4,5.1c0,2.7,1.6,5.2,4.4,5.2
		C592.6,411.7,594.2,409.2,594.2,406.5z"/>
	<path fill="#FFFFFF" d="M599,412.5v-10.9h-2v-1.1h2v-1.1c0-2.3,1.2-3.7,3.3-3.7c0.8,0,1.5,0.2,2.3,0.8l-0.6,0.9
		c-0.4-0.4-0.9-0.6-1.5-0.6c-1.4,0-2.1,0.9-2.1,2.6v1.1h2.4v1.1h-2.4v10.9H599z"/>
	<path fill="#FFFFFF" d="M611.9,410.2v-8.6h-2v-1.1h2v-3.3h1.3v3.3h2.4v1.1h-2.4v8.4c0,1,0.4,1.6,1.2,1.6c0.6,0,1.1-0.3,1.3-0.6
		l0.5,1c-0.5,0.4-1,0.7-2,0.7C612.7,412.8,611.9,411.9,611.9,410.2z"/>
	<path fill="#FFFFFF" d="M626.7,412.5v-8.2c0-2.3-1.2-3-2.9-3c-1.5,0-3.1,1-3.9,2.1v9.1h-1.3v-16.6h1.3v6.4c0.9-1,2.6-2.1,4.3-2.1
		c2.4,0,3.8,1.1,3.8,3.9v8.5H626.7z"/>
	<path fill="#FFFFFF" d="M631.1,406.5c0-3.5,2.5-6.3,5.8-6.3c3.7,0,5.7,2.9,5.7,6.4v0.3h-10.1c0.1,2.6,1.9,4.8,4.7,4.8
		c1.5,0,2.9-0.6,3.9-1.7l0.7,0.8c-1.2,1.2-2.7,1.9-4.7,1.9C633.6,412.8,631.1,410.2,631.1,406.5z M636.9,401.3
		c-2.8,0-4.3,2.5-4.4,4.6h8.7C641.3,403.9,639.9,401.3,636.9,401.3z"/>
</g>
<g>
	<path fill="#FFFFFF" d="M462.8,434.6c0-4.1,2.9-7.5,6.9-7.5c4.3,0,6.7,3.4,6.7,7.5v0.4h-11.9c0.1,3.1,2.2,5.7,5.6,5.7
		c1.8,0,3.4-0.7,4.7-2l0.8,1c-1.4,1.5-3.2,2.3-5.6,2.3C465.8,442.1,462.8,439,462.8,434.6z M469.7,428.5c-3.4,0-5,2.9-5.2,5.4h10.3
		C474.8,431.5,473.2,428.5,469.7,428.5z"/>
	<path fill="#FFFFFF" d="M489.1,441.7V440c-1.3,1.4-2.9,2-4.8,2c-2.4,0-5-1.7-5-4.7c0-3.1,2.5-4.7,5-4.7c2,0,3.6,0.6,4.8,2v-2.9
		c0-2.1-1.7-3.3-3.8-3.3c-1.8,0-3.2,0.6-4.4,2.1l-0.9-1.1c1.5-1.6,3.1-2.4,5.5-2.4c2.9,0,5.2,1.4,5.2,4.6v10H489.1z M489.1,438.9
		v-3.1c-1-1.3-2.6-2-4.3-2c-2.4,0-3.9,1.5-3.9,3.5c0,2,1.5,3.5,3.9,3.5C486.5,440.9,488.1,440.2,489.1,438.9z"/>
	<path fill="#FFFFFF" d="M495.1,441.7v-14.2h1.5v2.4c1.2-1.6,2.8-2.7,4.8-2.7v1.7c-0.3-0.1-0.5-0.1-0.8-0.1c-1.4,0-3.4,1.3-4,2.5
		v10.4H495.1z"/>
	<path fill="#FFFFFF" d="M505.6,439v-10.1h-2.4v-1.4h2.4v-3.9h1.6v3.9h2.9v1.4h-2.9v9.9c0,1.1,0.5,1.9,1.5,1.9
		c0.7,0,1.3-0.3,1.6-0.7l0.6,1.2c-0.6,0.5-1.2,0.9-2.4,0.9C506.5,442.1,505.6,440.9,505.6,439z"/>
	<path fill="#FFFFFF" d="M523.1,441.7V432c0-2.7-1.4-3.5-3.4-3.5c-1.8,0-3.7,1.1-4.6,2.4v10.8h-1.5v-19.7h1.5v7.6
		c1-1.2,3.1-2.5,5.1-2.5c2.9,0,4.5,1.4,4.5,4.6v10H523.1z"/>
	<path fill="#FFFFFF" d="M528.5,427.7l-0.9-0.7c0.9-0.6,1.7-1.8,1.7-2.7c0,0-0.2,0.1-0.3,0.1c-0.7,0-1.2-0.5-1.2-1.2
		c0-0.7,0.6-1.3,1.3-1.3c0.8,0,1.5,0.7,1.5,1.9C530.6,425.3,529.7,426.9,528.5,427.7z"/>
	<path fill="#FFFFFF" d="M532.4,439.8l0.9-1.1c0.9,1.1,2.6,2.1,4.6,2.1c2.4,0,3.8-1.2,3.8-2.9c0-3.9-9-1.7-9-6.8
		c0-2.2,1.9-3.9,5.1-3.9c2.4,0,4.1,0.9,5.1,2.1l-0.9,1.1c-0.8-1.1-2.4-1.9-4.2-1.9c-2.2,0-3.6,1.1-3.6,2.6c0,3.6,9,1.4,9,6.9
		c0,2.3-1.8,4.2-5.3,4.2C535.6,442.1,533.8,441.4,532.4,439.8z"/>
	<path fill="#FFFFFF" d="M553.6,439.8l0.9-1.1c0.9,1.1,2.6,2.1,4.6,2.1c2.4,0,3.8-1.2,3.8-2.9c0-3.9-9-1.7-9-6.8
		c0-2.2,1.9-3.9,5.1-3.9c2.4,0,4.1,0.9,5.1,2.1l-0.9,1.1c-0.8-1.1-2.4-1.9-4.2-1.9c-2.2,0-3.6,1.1-3.6,2.6c0,3.6,9,1.4,9,6.9
		c0,2.3-1.8,4.2-5.3,4.2C556.7,442.1,555,441.4,553.6,439.8z"/>
	<path fill="#FFFFFF" d="M577.5,441.7v-2.1c-1.2,1.3-3.1,2.4-5.1,2.4c-2.9,0-4.5-1.4-4.5-4.6v-10h1.5v9.7c0,2.8,1.4,3.5,3.4,3.5
		c1.8,0,3.7-1.1,4.6-2.4v-10.8h1.5v14.2H577.5z"/>
	<path fill="#FFFFFF" d="M583.5,441.7v-14.2h1.5v2.4c1.2-1.6,2.8-2.7,4.8-2.7v1.7c-0.3-0.1-0.5-0.1-0.8-0.1c-1.4,0-3.4,1.3-4,2.5
		v10.4H583.5z"/>
	<path fill="#FFFFFF" d="M594.2,441.7v-12.9h-2.4v-1.4h2.4v-1.3c0-2.8,1.5-4.4,3.9-4.4c1,0,1.8,0.2,2.7,1l-0.7,1.1
		c-0.5-0.4-1.1-0.7-1.8-0.7c-1.6,0-2.5,1.1-2.5,3.1v1.3h2.9v1.4h-2.9v12.9H594.2z"/>
	<path fill="#FFFFFF" d="M610.3,441.7V440c-1.3,1.4-2.9,2-4.8,2c-2.4,0-5-1.7-5-4.7c0-3.1,2.5-4.7,5-4.7c2,0,3.6,0.6,4.8,2v-2.9
		c0-2.1-1.7-3.3-3.8-3.3c-1.8,0-3.2,0.6-4.4,2.1l-0.9-1.1c1.5-1.6,3.1-2.4,5.5-2.4c2.9,0,5.2,1.4,5.2,4.6v10H610.3z M610.3,438.9
		v-3.1c-1-1.3-2.6-2-4.3-2c-2.4,0-3.9,1.5-3.9,3.5c0,2,1.5,3.5,3.9,3.5C607.7,440.9,609.3,440.2,610.3,438.9z"/>
	<path fill="#FFFFFF" d="M615.5,434.6c0-4.2,2.7-7.5,6.9-7.5c2.5,0,3.9,1,5,2.4l-1.1,0.9c-1-1.4-2.3-2-3.9-2c-3.3,0-5.4,2.7-5.4,6.1
		s2,6.1,5.4,6.1c1.6,0,2.9-0.6,3.9-2l1.1,0.9c-1.1,1.5-2.6,2.4-5,2.4C618.2,442.1,615.5,438.8,615.5,434.6z"/>
	<path fill="#FFFFFF" d="M629.5,434.6c0-4.1,2.9-7.5,6.9-7.5c4.3,0,6.7,3.4,6.7,7.5v0.4h-11.9c0.1,3.1,2.2,5.7,5.6,5.7
		c1.8,0,3.4-0.7,4.7-2l0.8,1c-1.4,1.5-3.2,2.3-5.6,2.3C632.5,442.1,629.5,439,629.5,434.6z M636.3,428.5c-3.4,0-5,2.9-5.2,5.4h10.3
		C641.5,431.5,639.9,428.5,636.3,428.5z"/>
</g>
<g>
	<path fill="#FFFFFF" d="M463.3,456.4c0-0.7,0.6-1.2,1.2-1.2c0.7,0,1.2,0.5,1.2,1.2c0,0.7-0.5,1.2-1.2,1.2
		C463.8,457.6,463.3,457.1,463.3,456.4z M463.7,474.3v-14.4h1.6v14.4H463.7z"/>
	<path fill="#FFFFFF" d="M468.5,472.4l0.9-1.2c0.9,1.2,2.6,2.1,4.7,2.1c2.4,0,3.8-1.3,3.8-2.9c0-3.9-9.1-1.7-9.1-6.9
		c0-2.2,1.9-4,5.1-4c2.5,0,4.1,1,5.2,2.1l-0.9,1.1c-0.8-1.1-2.4-1.9-4.3-1.9c-2.2,0-3.6,1.1-3.6,2.6c0,3.6,9.1,1.4,9.1,6.9
		c0,2.3-1.8,4.2-5.4,4.2C471.7,474.6,470,474,468.5,472.4z"/>
	<path fill="#B5BE34" d="M491.6,478.2l1-1.4c1.4,1.7,3,2.3,5.5,2.3c3,0,5.7-1.5,5.7-5.3v-2.6c-1.2,1.7-3.3,3.1-5.8,3.1
		c-4.4,0-7.4-3.3-7.4-8.7c0-5.3,3-8.7,7.4-8.7c2.4,0,4.4,1.2,5.8,3.1v-2.7h1.8v16.4c0,5.1-3.4,6.9-7.5,6.9
		C495.3,480.7,493.5,480.2,491.6,478.2z M503.8,469.7v-8.1c-1-1.6-3.2-3-5.5-3c-3.7,0-5.8,3.1-5.8,7.1c0,4,2.1,7.1,5.8,7.1
		C500.6,472.7,502.8,471.3,503.8,469.7z"/>
	<path fill="#B5BE34" d="M510.8,474v-16.6h1.8v2.9c1.4-1.9,3.3-3.2,5.6-3.2v2c-0.3-0.1-0.5-0.1-0.9-0.1c-1.7,0-4,1.5-4.7,3V474
		H510.8z"/>
	<path fill="#B5BE34" d="M532,474v-2c-1.5,1.6-3.3,2.4-5.6,2.4c-2.9,0-5.8-2-5.8-5.5c0-3.6,2.9-5.5,5.8-5.5c2.3,0,4.2,0.8,5.6,2.4
		v-3.4c0-2.5-2-3.8-4.5-3.8c-2.1,0-3.7,0.7-5.2,2.4l-1-1.2c1.7-1.9,3.6-2.8,6.4-2.8c3.4,0,6.1,1.6,6.1,5.3V474H532z M532,470.7V467
		c-1.2-1.5-3-2.3-5-2.3c-2.8,0-4.5,1.8-4.5,4.1c0,2.3,1.8,4.1,4.5,4.1C529,473,530.9,472.2,532,470.7z"/>
	<path fill="#B5BE34" d="M537.6,471.8l1.1-1.3c1.1,1.3,3,2.4,5.4,2.4c2.8,0,4.4-1.4,4.4-3.4c0-4.5-10.5-2-10.5-7.9
		c0-2.5,2.2-4.6,5.9-4.6c2.9,0,4.7,1.1,6,2.4l-1,1.3c-1-1.3-2.8-2.2-5-2.2c-2.6,0-4.2,1.3-4.2,3c0,4.2,10.5,1.6,10.5,8
		c0,2.7-2.1,4.9-6.2,4.9C541.3,474.4,539.2,473.6,537.6,471.8z"/>
	<path fill="#B5BE34" d="M553.2,471.8l1.1-1.3c1.1,1.3,3,2.4,5.4,2.4c2.8,0,4.4-1.4,4.4-3.4c0-4.5-10.5-2-10.5-7.9
		c0-2.5,2.2-4.6,5.9-4.6c2.9,0,4.7,1.1,6,2.4l-1,1.3c-1-1.3-2.8-2.2-5-2.2c-2.6,0-4.2,1.3-4.2,3c0,4.2,10.5,1.6,10.5,8
		c0,2.7-2.1,4.9-6.2,4.9C556.9,474.4,554.8,473.6,553.2,471.8z"/>
	<path fill="#B5BE34" d="M570,474v-23h1.8v23H570z"/>
	<path fill="#B5BE34" d="M587.4,474v-2c-1.5,1.6-3.3,2.4-5.6,2.4c-2.9,0-5.8-2-5.8-5.5c0-3.6,2.9-5.5,5.8-5.5c2.3,0,4.2,0.8,5.6,2.4
		v-3.4c0-2.5-2-3.8-4.5-3.8c-2.1,0-3.7,0.7-5.2,2.4l-1-1.2c1.7-1.9,3.6-2.8,6.4-2.8c3.4,0,6.1,1.6,6.1,5.3V474H587.4z M587.4,470.7
		V467c-1.2-1.5-3-2.3-5-2.3c-2.8,0-4.5,1.8-4.5,4.1c0,2.3,1.8,4.1,4.5,4.1C584.3,473,586.2,472.2,587.4,470.7z"/>
	<path fill="#B5BE34" d="M605.5,474v-11.3c0-3.2-1.6-4.2-4-4.2c-2.1,0-4.3,1.3-5.4,2.9V474h-1.8v-16.6h1.8v2.5
		c1.2-1.4,3.6-2.9,6-2.9c3.4,0,5.2,1.7,5.2,5.4V474H605.5z"/>
	<path fill="#B5BE34" d="M624.8,474v-2.6c-1.2,1.7-3.3,3.1-5.8,3.1c-4.4,0-7.4-3.4-7.4-8.7c0-5.3,3-8.7,7.4-8.7
		c2.4,0,4.4,1.2,5.8,3.1v-9h1.8v23H624.8z M624.8,469.8v-8.2c-1-1.6-3.1-3-5.5-3c-3.7,0-5.8,3.1-5.8,7.1c0,4,2.1,7.1,5.8,7.1
		C621.7,472.8,623.8,471.4,624.8,469.8z"/>
	<path fill="#B5BE34" d="M630.4,471.8l1.1-1.3c1.1,1.3,3,2.4,5.4,2.4c2.8,0,4.4-1.4,4.4-3.4c0-4.5-10.5-2-10.5-7.9
		c0-2.5,2.2-4.6,5.9-4.6c2.9,0,4.7,1.1,6,2.4l-1,1.3c-1-1.3-2.8-2.2-5-2.2c-2.6,0-4.2,1.3-4.2,3c0,4.2,10.5,1.6,10.5,8
		c0,2.7-2.1,4.9-6.2,4.9C634.2,474.4,632.1,473.6,630.4,471.8z"/>
</g>
<rect x="253" y="514.2" fill="#DF5B26" width="390.8" height="64.6"/>
<g opacity="0.85">
	<path fill="#FFFFFF" d="M379.6,537.9c0-2.6,1.7-4.6,4.3-4.6c2.6,0,4.3,2.1,4.3,4.6s-1.6,4.7-4.3,4.7
		C381.3,542.6,379.6,540.5,379.6,537.9z M387.1,537.9c0-2-1.2-3.8-3.2-3.8c-2.1,0-3.2,1.8-3.2,3.8c0,2,1.2,3.8,3.2,3.8
		C386,541.7,387.1,539.9,387.1,537.9z"/>
	<path fill="#FFFFFF" d="M390.3,542.4v-8h-1.5v-0.8h1.5v-0.8c0-1.7,0.9-2.7,2.4-2.7c0.6,0,1.1,0.1,1.7,0.6l-0.5,0.7
		c-0.3-0.3-0.7-0.5-1.1-0.5c-1,0-1.5,0.7-1.5,1.9v0.8h1.8v0.8h-1.8v8H390.3z"/>
	<path fill="#FFFFFF" d="M399.1,540.7v-6.3h-1.5v-0.8h1.5v-2.4h1v2.4h1.8v0.8H400v6.2c0,0.7,0.3,1.2,0.9,1.2c0.4,0,0.8-0.2,1-0.4
		l0.4,0.7c-0.3,0.3-0.8,0.5-1.5,0.5C399.6,542.6,399.1,541.9,399.1,540.7z"/>
	<path fill="#FFFFFF" d="M409.6,542.4v-6c0-1.7-0.9-2.2-2.1-2.2c-1.1,0-2.3,0.7-2.9,1.5v6.7h-1v-12.2h1v4.7c0.6-0.8,1.9-1.6,3.2-1.6
		c1.8,0,2.8,0.8,2.8,2.8v6.2H409.6z"/>
	<path fill="#FFFFFF" d="M412.5,537.9c0-2.6,1.8-4.6,4.3-4.6c2.7,0,4.2,2.1,4.2,4.7v0.3h-7.4c0.1,1.9,1.4,3.5,3.5,3.5
		c1.1,0,2.1-0.4,2.9-1.2l0.5,0.6c-0.9,0.9-2,1.4-3.5,1.4C414.4,542.6,412.5,540.7,412.5,537.9z M416.8,534.1c-2.1,0-3.1,1.8-3.2,3.4
		h6.4C420,536,419,534.1,416.8,534.1z"/>
	<path fill="#FFFFFF" d="M439.6,542.4l-3.7-11.4l-3.8,11.4h-1.4l-4.3-13.3h1.5l3.5,11.3l3.8-11.3h1.2l3.8,11.3l3.5-11.3h1.5
		l-4.3,13.3H439.6z"/>
	<path fill="#FFFFFF" d="M446.1,535.7c0-3.9,2.5-7,6.4-7c3.9,0,6.4,3.1,6.4,7s-2.5,7-6.4,7C448.6,542.7,446.1,539.6,446.1,535.7z
		 M457.4,535.7c0-3-1.7-5.7-4.9-5.7c-3.1,0-4.9,2.7-4.9,5.7c0,3,1.8,5.7,4.9,5.7C455.7,541.4,457.4,538.7,457.4,535.7z"/>
	<path fill="#FFFFFF" d="M461.6,542.4V529h1.4v2.3c1.1-1.5,2.7-2.6,4.5-2.6v1.6c-0.2-0.1-0.4-0.1-0.7-0.1c-1.4,0-3.2,1.2-3.8,2.4
		v9.7H461.6z"/>
	<path fill="#FFFFFF" d="M469.5,542.4V524h1.4v18.4H469.5z"/>
	<path fill="#FFFFFF" d="M484.2,542.4v-2.1c-0.9,1.4-2.7,2.5-4.6,2.5c-3.5,0-6-2.7-6-7c0-4.2,2.4-7,6-7c1.9,0,3.6,1,4.6,2.5V524h1.5
		v18.4H484.2z M484.2,539v-6.6c-0.8-1.3-2.5-2.4-4.4-2.4c-3,0-4.7,2.5-4.7,5.7s1.7,5.7,4.7,5.7C481.7,541.4,483.4,540.3,484.2,539z"
		/>
	<path fill="#FFFFFF" d="M489.3,529.2l-0.8-0.7c0.9-0.6,1.5-1.7,1.6-2.6c0,0-0.2,0.1-0.3,0.1c-0.7,0-1.1-0.5-1.1-1.2
		c0-0.6,0.5-1.2,1.2-1.2c0.7,0,1.4,0.6,1.4,1.8C491.3,527,490.4,528.5,489.3,529.2z"/>
	<path fill="#FFFFFF" d="M492.1,540.6l0.9-1.1c0.9,1.1,2.4,2,4.3,2c2.2,0,3.6-1.2,3.6-2.7c0-3.6-8.4-1.6-8.4-6.4
		c0-2,1.7-3.7,4.8-3.7c2.3,0,3.8,0.9,4.8,2l-0.8,1c-0.8-1-2.2-1.8-4-1.8c-2.1,0-3.3,1-3.3,2.4c0,3.3,8.4,1.3,8.4,6.4
		c0,2.2-1.7,3.9-5,3.9C495.1,542.7,493.5,542.1,492.1,540.6z"/>
	<path fill="#FFFFFF" d="M511.6,545.8l0.8-1.1c1.2,1.4,2.4,1.9,4.4,1.9c2.4,0,4.6-1.2,4.6-4.3v-2.1c-0.9,1.4-2.7,2.5-4.6,2.5
		c-3.5,0-6-2.7-6-7c0-4.2,2.4-7,6-7c1.9,0,3.6,1,4.6,2.5V529h1.5v13.2c0,4.1-2.8,5.6-6,5.6C514.6,547.8,513.1,547.4,511.6,545.8z
		 M521.4,538.9v-6.5c-0.8-1.3-2.5-2.4-4.4-2.4c-3,0-4.7,2.5-4.7,5.7s1.7,5.7,4.7,5.7C518.8,541.4,520.6,540.2,521.4,538.9z"/>
	<path fill="#FFFFFF" d="M526.2,542.4V529h1.4v2.3c1.1-1.5,2.7-2.6,4.5-2.6v1.6c-0.2-0.1-0.4-0.1-0.7-0.1c-1.4,0-3.2,1.2-3.8,2.4
		v9.7H526.2z"/>
	<path fill="#FFFFFF" d="M542.6,542.4v-1.6c-1.2,1.3-2.7,1.9-4.5,1.9c-2.3,0-4.7-1.6-4.7-4.4c0-2.9,2.3-4.4,4.7-4.4
		c1.9,0,3.4,0.6,4.5,1.9V533c0-2-1.6-3.1-3.6-3.1c-1.7,0-3,0.6-4.2,2l-0.8-1c1.4-1.5,2.9-2.2,5.1-2.2c2.7,0,4.9,1.3,4.9,4.3v9.4
		H542.6z M542.6,539.7v-2.9c-0.9-1.2-2.4-1.8-4-1.8c-2.2,0-3.6,1.4-3.6,3.3c0,1.9,1.4,3.3,3.6,3.3
		C540.1,541.6,541.6,541,542.6,539.7z"/>
	<path fill="#FFFFFF" d="M546.3,540.6l0.9-1.1c0.9,1.1,2.4,2,4.3,2c2.2,0,3.6-1.2,3.6-2.7c0-3.6-8.4-1.6-8.4-6.4
		c0-2,1.7-3.7,4.8-3.7c2.3,0,3.8,0.9,4.8,2l-0.8,1c-0.8-1-2.2-1.8-4-1.8c-2.1,0-3.3,1-3.3,2.4c0,3.3,8.4,1.3,8.4,6.4
		c0,2.2-1.7,3.9-5,3.9C549.3,542.7,547.6,542.1,546.3,540.6z"/>
	<path fill="#FFFFFF" d="M558.1,540.6l0.9-1.1c0.9,1.1,2.4,2,4.3,2c2.2,0,3.6-1.2,3.6-2.7c0-3.6-8.4-1.6-8.4-6.4
		c0-2,1.7-3.7,4.8-3.7c2.3,0,3.8,0.9,4.8,2l-0.8,1c-0.8-1-2.2-1.8-4-1.8c-2.1,0-3.3,1-3.3,2.4c0,3.3,8.4,1.3,8.4,6.4
		c0,2.2-1.7,3.9-5,3.9C561.1,542.7,559.4,542.1,558.1,540.6z"/>
	<path fill="#FFFFFF" d="M570.8,542.4V524h1.4v18.4H570.8z"/>
	<path fill="#FFFFFF" d="M584,542.4v-1.6c-1.2,1.3-2.7,1.9-4.5,1.9c-2.3,0-4.7-1.6-4.7-4.4c0-2.9,2.3-4.4,4.7-4.4
		c1.9,0,3.4,0.6,4.5,1.9V533c0-2-1.6-3.1-3.6-3.1c-1.7,0-3,0.6-4.2,2l-0.8-1c1.4-1.5,2.9-2.2,5.1-2.2c2.7,0,4.9,1.3,4.9,4.3v9.4H584
		z M584,539.7v-2.9c-0.9-1.2-2.4-1.8-4-1.8c-2.2,0-3.6,1.4-3.6,3.3c0,1.9,1.4,3.3,3.6,3.3C581.6,541.6,583.1,541,584,539.7z"/>
	<path fill="#FFFFFF" d="M597.9,542.4v-9c0-2.6-1.3-3.3-3.2-3.3c-1.7,0-3.5,1.1-4.3,2.3v10.1h-1.4V529h1.4v2c1-1.2,2.9-2.3,4.8-2.3
		c2.7,0,4.2,1.3,4.2,4.3v9.3H597.9z"/>
	<path fill="#FFFFFF" d="M612.6,542.4v-2.1c-0.9,1.4-2.7,2.5-4.6,2.5c-3.5,0-6-2.7-6-7c0-4.2,2.4-7,6-7c1.9,0,3.6,1,4.6,2.5V524h1.5
		v18.4H612.6z M612.6,539v-6.6c-0.8-1.3-2.5-2.4-4.4-2.4c-3,0-4.7,2.5-4.7,5.7s1.7,5.7,4.7,5.7C610.1,541.4,611.8,540.3,612.6,539z"
		/>
	<path fill="#FFFFFF" d="M616.4,540.6l0.9-1.1c0.9,1.1,2.4,2,4.3,2c2.2,0,3.6-1.2,3.6-2.7c0-3.6-8.4-1.6-8.4-6.4
		c0-2,1.7-3.7,4.8-3.7c2.3,0,3.8,0.9,4.8,2l-0.8,1c-0.8-1-2.2-1.8-4-1.8c-2.1,0-3.3,1-3.3,2.4c0,3.3,8.4,1.3,8.4,6.4
		c0,2.2-1.7,3.9-5,3.9C619.4,542.7,617.8,542.1,616.4,540.6z"/>
	<path fill="#FFFFFF" d="M389.9,569v-9.1c0-2.6-1.3-3.3-3.2-3.3c-1.7,0-3.5,1.1-4.3,2.3V569h-1.4v-18.4h1.4v7.1
		c1-1.2,2.9-2.3,4.8-2.3c2.7,0,4.2,1.3,4.2,4.3v9.4H389.9z"/>
	<path fill="#FFFFFF" d="M403.9,569v-1.6c-1.2,1.3-2.7,1.9-4.5,1.9c-2.3,0-4.7-1.6-4.7-4.4c0-2.9,2.3-4.4,4.7-4.4
		c1.9,0,3.4,0.6,4.5,1.9v-2.7c0-2-1.6-3.1-3.6-3.1c-1.7,0-3,0.6-4.2,2l-0.8-1c1.4-1.5,2.9-2.2,5.1-2.2c2.7,0,4.9,1.3,4.9,4.3v9.4
		H403.9z M403.9,566.4v-2.9c-0.9-1.2-2.4-1.8-4-1.8c-2.2,0-3.6,1.4-3.6,3.3c0,1.9,1.4,3.3,3.6,3.3
		C401.5,568.2,403,567.6,403.9,566.4z"/>
	<path fill="#FFFFFF" d="M413,569l-5.6-13.3h1.6l4.9,11.7l4.8-11.7h1.6l-5.6,13.3H413z"/>
	<path fill="#FFFFFF" d="M421.5,562.3c0-3.9,2.7-7,6.4-7c4.1,0,6.3,3.2,6.3,7.1v0.4H423c0.1,2.9,2.1,5.3,5.2,5.3
		c1.7,0,3.2-0.6,4.4-1.9l0.7,0.9c-1.3,1.4-3,2.2-5.2,2.2C424.3,569.3,421.5,566.4,421.5,562.3z M427.9,556.6c-3.1,0-4.7,2.8-4.8,5.1
		h9.7C432.7,559.4,431.2,556.6,427.9,556.6z"/>
	<path fill="#FFFFFF" d="M445.1,569v-18.4h1.4v7.2c1.1-1.5,2.8-2.5,4.6-2.5c3.6,0,6,2.8,6,7c0,4.3-2.4,7-6,7c-2,0-3.7-1.1-4.6-2.5
		v2.1H445.1z M450.9,568c3,0,4.7-2.5,4.7-5.7s-1.7-5.7-4.7-5.7c-1.9,0-3.6,1.2-4.4,2.4v6.6C447.3,566.9,449,568,450.9,568z"/>
	<path fill="#FFFFFF" d="M459.9,562.3c0-3.9,2.7-7,6.4-7c4.1,0,6.3,3.2,6.3,7.1v0.4h-11.2c0.1,2.9,2.1,5.3,5.2,5.3
		c1.7,0,3.2-0.6,4.4-1.9l0.7,0.9c-1.3,1.4-3,2.2-5.2,2.2C462.7,569.3,459.9,566.4,459.9,562.3z M466.3,556.6c-3.1,0-4.7,2.8-4.8,5.1
		h9.7C471.1,559.4,469.6,556.6,466.3,556.6z"/>
	<path fill="#FFFFFF" d="M475.4,562.3c0-3.9,2.7-7,6.4-7c4.1,0,6.3,3.2,6.3,7.1v0.4H477c0.1,2.9,2.1,5.3,5.2,5.3
		c1.7,0,3.2-0.6,4.4-1.9l0.7,0.9c-1.3,1.4-3,2.2-5.2,2.2C478.2,569.3,475.4,566.4,475.4,562.3z M481.8,556.6c-3.1,0-4.7,2.8-4.8,5.1
		h9.7C486.6,559.4,485.2,556.6,481.8,556.6z"/>
	<path fill="#FFFFFF" d="M500.6,569v-9c0-2.6-1.3-3.3-3.2-3.3c-1.7,0-3.5,1.1-4.3,2.3V569h-1.4v-13.3h1.4v2c1-1.2,2.9-2.3,4.8-2.3
		c2.7,0,4.2,1.3,4.2,4.3v9.3H500.6z"/>
	<path fill="#FFFFFF" d="M523.5,569v-2.1c-0.9,1.4-2.7,2.5-4.6,2.5c-3.5,0-6-2.7-6-7c0-4.2,2.4-7,6-7c1.9,0,3.6,1,4.6,2.5v-7.2h1.5
		V569H523.5z M523.5,565.7v-6.6c-0.8-1.3-2.5-2.4-4.4-2.4c-3,0-4.7,2.5-4.7,5.7s1.7,5.7,4.7,5.7C521,568,522.7,566.9,523.5,565.7z"
		/>
	<path fill="#FFFFFF" d="M528.4,562.3c0-3.9,2.7-7,6.4-7c4.1,0,6.3,3.2,6.3,7.1v0.4H530c0.1,2.9,2.1,5.3,5.2,5.3
		c1.7,0,3.2-0.6,4.4-1.9l0.7,0.9c-1.3,1.4-3,2.2-5.2,2.2C531.2,569.3,528.4,566.4,528.4,562.3z M534.8,556.6c-3.1,0-4.7,2.8-4.8,5.1
		h9.7C539.7,559.4,538.2,556.6,534.8,556.6z"/>
	<path fill="#FFFFFF" d="M544.7,572.4l0.8-1.1c1.2,1.4,2.4,1.9,4.4,1.9c2.4,0,4.6-1.2,4.6-4.3v-2.1c-0.9,1.4-2.7,2.5-4.6,2.5
		c-3.5,0-6-2.7-6-7c0-4.2,2.4-7,6-7c1.9,0,3.6,1,4.6,2.5v-2.2h1.5v13.2c0,4.1-2.8,5.6-6,5.6C547.7,574.4,546.3,574,544.7,572.4z
		 M554.5,565.6v-6.5c-0.8-1.3-2.5-2.4-4.4-2.4c-3,0-4.7,2.5-4.7,5.7s1.7,5.7,4.7,5.7C552,568,553.8,566.9,554.5,565.6z"/>
	<path fill="#FFFFFF" d="M560.2,569v-13.3h1.4v2.3c1.1-1.5,2.7-2.6,4.5-2.6v1.6c-0.2-0.1-0.4-0.1-0.7-0.1c-1.4,0-3.2,1.2-3.8,2.4
		v9.7H560.2z"/>
	<path fill="#FFFFFF" d="M577.3,569v-1.6c-1.2,1.3-2.7,1.9-4.5,1.9c-2.3,0-4.7-1.6-4.7-4.4c0-2.9,2.3-4.4,4.7-4.4
		c1.9,0,3.4,0.6,4.5,1.9v-2.7c0-2-1.6-3.1-3.6-3.1c-1.7,0-3,0.6-4.2,2l-0.8-1c1.4-1.5,2.9-2.2,5.1-2.2c2.7,0,4.9,1.3,4.9,4.3v9.4
		H577.3z M577.3,566.4v-2.9c-0.9-1.2-2.4-1.8-4-1.8c-2.2,0-3.6,1.4-3.6,3.3c0,1.9,1.4,3.3,3.6,3.3
		C574.9,568.2,576.4,567.6,577.3,566.4z"/>
	<path fill="#FFFFFF" d="M592.9,569v-2.1c-0.9,1.4-2.7,2.5-4.6,2.5c-3.5,0-6-2.7-6-7c0-4.2,2.4-7,6-7c1.9,0,3.6,1,4.6,2.5v-7.2h1.5
		V569H592.9z M592.9,565.7v-6.6c-0.8-1.3-2.5-2.4-4.4-2.4c-3,0-4.7,2.5-4.7,5.7s1.7,5.7,4.7,5.7C590.3,568,592.1,566.9,592.9,565.7z
		"/>
	<path fill="#FFFFFF" d="M597.8,562.3c0-3.9,2.7-7,6.4-7c4.1,0,6.3,3.2,6.3,7.1v0.4h-11.2c0.1,2.9,2.1,5.3,5.2,5.3
		c1.7,0,3.2-0.6,4.4-1.9l0.7,0.9c-1.3,1.4-3,2.2-5.2,2.2C600.6,569.3,597.8,566.4,597.8,562.3z M604.2,556.6c-3.1,0-4.7,2.8-4.8,5.1
		h9.7C609,559.4,607.6,556.6,604.2,556.6z"/>
	<path fill="#FFFFFF" d="M623.9,569v-2.1c-0.9,1.4-2.7,2.5-4.6,2.5c-3.5,0-6-2.7-6-7c0-4.2,2.4-7,6-7c1.9,0,3.6,1,4.6,2.5v-7.2h1.5
		V569H623.9z M623.9,565.7v-6.6c-0.8-1.3-2.5-2.4-4.4-2.4c-3,0-4.7,2.5-4.7,5.7s1.7,5.7,4.7,5.7C621.4,568,623.1,566.9,623.9,565.7z
		"/>
</g>
<g>
	<path fill="#FFFFFF" d="M266.3,571.4l16.9-36.6h-21.8v-1.7h24v1.3l-17,37.1H266.3z"/>
	<path fill="#FFFFFF" d="M302.6,565.4c-9.7,0-13.7-8.6-13.7-16.5c0-7.9,4-16.5,13.7-16.5c9.7,0,13.6,8.6,13.6,16.5
		C316.2,556.8,312.3,565.4,302.6,565.4z M302.6,534.1c-8.5,0-11.7,7.6-11.7,14.8c0,7.1,3.2,14.8,11.7,14.8c8.5,0,11.6-7.6,11.6-14.8
		C314.2,541.8,311.1,534.1,302.6,534.1z"/>
	<path fill="#FFFFFF" d="M328.5,548c-4.3,0-7.3-3.3-7.3-7.8c0-4.4,3-7.8,7.3-7.8c4.3,0,7.4,3.4,7.4,7.8
		C335.9,544.6,332.8,548,328.5,548z M328.5,533.8c-3.3,0-5.6,2.9-5.6,6.4c0,3.5,2.2,6.3,5.6,6.3c3.4,0,5.6-2.9,5.6-6.3
		C334.1,536.8,331.9,533.8,328.5,533.8z M326.2,564.7h-2.1l22-31.6h2.2L326.2,564.7z M343.8,565.4c-4.3,0-7.3-3.3-7.3-7.8
		c0-4.5,3-7.8,7.3-7.8c4.3,0,7.3,3.3,7.3,7.8C351.1,562.1,348,565.4,343.8,565.4z M343.8,551.3c-3.4,0-5.6,2.9-5.6,6.4
		c0,3.4,2.2,6.3,5.6,6.3s5.6-2.9,5.6-6.3C349.4,554.1,347.2,551.3,343.8,551.3z"/>
</g>
<line opacity="0.34" fill="none" stroke="#FFFFFF" stroke-width="0.5" stroke-miterlimit="10" x1="365.4" y1="514.2" x2="365.4" y2="578.8"/>
</svg>
