<?xml version="1.0" encoding="utf-8"?>
<!-- Generator: Adobe Illustrator 18.1.1, SVG Export Plug-In . SVG Version: 6.00 Build 0)  -->
<svg version="1.1" id="Layer_1" xmlns="http://www.w3.org/2000/svg" xmlns:xlink="http://www.w3.org/1999/xlink" x="0px" y="0px"
	 viewBox="0 399.7 900.2 100.7" enable-background="new 0 399.7 900.2 100.7" xml:space="preserve">
<g>
	<path opacity="0.8" fill="#FFFFFF" d="M2.7,441.8v-29h2.4v26.7h14v2.3H2.7z"/>
	<path opacity="0.8" fill="#FFFFFF" d="M22.3,431.4c0-6.1,4-11,10.1-11c6.3,0,10.1,4.9,10.1,11c0,6.1-4,11-10.1,11
		S22.3,437.5,22.3,431.4z M40,431.4c0-4.6-2.7-9-7.6-9s-7.6,4.3-7.6,9c0,4.7,2.7,9,7.6,9C37.2,440.2,40,436,40,431.4z"/>
	<path opacity="0.8" fill="#FFFFFF" d="M46.4,439l1.4-1.7c1.4,1.7,3.8,3.1,6.7,3.1c3.5,0,5.6-1.8,5.6-4.3c0-5.8-13.3-2.4-13.3-10.1
		c0-3.2,2.7-5.8,7.5-5.8c3.7,0,5.9,1.4,7.5,3.1l-1.2,1.7c-1.2-1.7-3.5-2.7-6.3-2.7c-3.2,0-5.2,1.7-5.2,3.8c0,5.2,13.3,2,13.3,10.1
		c0,3.4-2.6,6.1-7.8,6.1C51.1,442.4,48.5,441.3,46.4,439z"/>
	<path opacity="0.8" fill="#FFFFFF" d="M66.3,439l1.4-1.7c1.4,1.7,3.8,3.1,6.7,3.1c3.5,0,5.6-1.8,5.6-4.3c0-5.8-13.3-2.4-13.3-10.1
		c0-3.2,2.7-5.8,7.5-5.8c3.7,0,5.9,1.4,7.5,3.1l-1.2,1.7c-1.2-1.7-3.5-2.7-6.3-2.7c-3.2,0-5.2,1.7-5.2,3.8c0,5.2,13.3,2,13.3,10.1
		c0,3.4-2.6,6.1-7.8,6.1C70.9,442.4,68.3,441.3,66.3,439z"/>
	<path opacity="0.8" fill="#FFFFFF" d="M98.1,431.4c0-6.1,4-11,10.1-11c6.3,0,10.1,4.9,10.1,11c0,6.1-4,11-10.1,11
		S98.1,437.5,98.1,431.4z M115.8,431.4c0-4.6-2.7-9-7.6-9s-7.6,4.3-7.6,9c0,4.7,2.7,9,7.6,9C113,440.2,115.8,436,115.8,431.4z"/>
	<path opacity="0.8" fill="#FFFFFF" d="M124.8,441.8v-18.9h-3.5v-2h3.5v-2c0-4.1,2.1-6.6,5.6-6.6c1.5,0,2.6,0.3,4,1.5l-1.1,1.5
		c-0.8-0.6-1.5-1.1-2.7-1.1c-2.4,0-3.7,1.7-3.7,4.6v2h4.3v2h-4.3v18.9C126.9,441.8,124.8,441.8,124.8,441.8z"/>
	<path opacity="0.8" fill="#FFFFFF" d="M147.8,449.7l2.4-3.5c2.6,3.1,5.5,4.1,9.9,4.1c5,0,9.8-2.4,9.8-9.2v-4.4
		c-2.3,3.1-5.9,5.5-10.2,5.5c-7.9,0-13.6-5.9-13.6-15.9c0-9.8,5.5-15.9,13.6-15.9c4.1,0,7.8,2,10.2,5.3v-4.6h4.7v29.6
		c0,10.1-7,13.3-14.5,13.3C155,454.3,151.4,453.2,147.8,449.7z M169.9,433.1v-13.3c-1.7-2.6-5.3-4.9-9.2-4.9
		c-6.1,0-9.8,4.9-9.8,11.6c0,6.7,3.7,11.6,9.8,11.6C164.7,438,168.4,435.7,169.9,433.1z"/>
	<path opacity="0.8" fill="#FFFFFF" d="M184.2,441.8v-30.5h4.7v4.9c2.4-3.2,5.9-5.5,10.2-5.5v4.9c-0.6-0.2-1.1-0.2-1.8-0.2
		c-2.9,0-6.9,2.4-8.2,4.9v21.7h-4.9V441.8z"/>
	<path opacity="0.8" fill="#FFFFFF" d="M224,441.8v-3.5c-2.6,2.7-5.9,4.3-10.1,4.3c-5.2,0-10.7-3.5-10.7-10.1
		c0-6.9,5.5-10.1,10.7-10.1c4.1,0,7.6,1.4,10.1,4.1V421c0-4.1-3.4-6.4-7.8-6.4c-3.7,0-6.7,1.4-9.3,4.3l-2.3-3.4
		c3.4-3.4,7.2-5,12.2-5c6.4,0,11.7,2.9,11.7,10.4v21H224V441.8z M224,435.4v-5.8c-1.8-2.6-5-3.8-8.4-3.8c-4.4,0-7.5,2.7-7.5,6.7
		c0,3.8,3.1,6.6,7.5,6.6C219,439.2,222.2,438,224,435.4z"/>
	<path opacity="0.8" fill="#FFFFFF" d="M235.6,437.8l2.4-3.4c2,2.3,5.9,4.4,10.1,4.4c4.7,0,7.2-2.1,7.2-5.2
		c0-7.3-18.9-2.9-18.9-14.2c0-4.7,4.1-8.8,11.4-8.8c5.2,0,8.8,2,11.3,4.4l-2.3,3.4c-1.8-2.3-5.2-3.8-9.2-3.8c-4.1,0-6.7,2.1-6.7,4.7
		c0,6.7,18.9,2.3,18.9,14.2c0,5.2-4.1,9.2-12,9.2C243,442.5,238.8,441,235.6,437.8z"/>
	<path opacity="0.8" fill="#FFFFFF" d="M265.1,437.8l2.4-3.4c2,2.3,5.9,4.4,10.1,4.4c4.7,0,7.2-2.1,7.2-5.2
		c0-7.3-18.9-2.9-18.9-14.2c0-4.7,4.1-8.8,11.4-8.8c5.2,0,8.8,2,11.3,4.4l-2.3,3.4c-1.8-2.3-5.2-3.8-9.2-3.8c-4.1,0-6.7,2.1-6.7,4.7
		c0,6.7,18.9,2.3,18.9,14.2c0,5.2-4.1,9.2-12,9.2C272.4,442.5,268.1,441,265.1,437.8z"/>
	<path opacity="0.8" fill="#FFFFFF" d="M297.1,441.8v-42.1h4.7v42.1H297.1z"/>
	<path opacity="0.8" fill="#FFFFFF" d="M330.4,441.8v-3.5c-2.6,2.7-5.9,4.3-10.1,4.3c-5.2,0-10.7-3.5-10.7-10.1
		c0-6.9,5.5-10.1,10.7-10.1c4.1,0,7.6,1.4,10.1,4.1V421c0-4.1-3.4-6.4-7.8-6.4c-3.7,0-6.7,1.4-9.3,4.3l-2.3-3.4
		c3.4-3.4,7.2-5,12.2-5c6.4,0,11.7,2.9,11.7,10.4v21h-4.6V441.8z M330.4,435.4v-5.8c-1.8-2.6-5-3.8-8.4-3.8c-4.4,0-7.5,2.7-7.5,6.7
		c0,3.8,3.1,6.6,7.5,6.6C325.3,439.2,328.5,438,330.4,435.4z"/>
	<path opacity="0.8" fill="#FFFFFF" d="M365.1,441.8v-20c0-5.3-2.7-7-6.9-7c-3.7,0-7.3,2.3-9,4.7v22.3h-4.7v-30.5h4.7v4.4
		c2.1-2.6,6.3-5.2,10.8-5.2c6.4,0,9.8,3.2,9.8,9.9v21.4H365.1z"/>
	<path opacity="0.8" fill="#FFFFFF" d="M401.6,441.8v-4.6c-2.3,3.1-5.9,5.3-10.4,5.3c-7.9,0-13.6-6.1-13.6-16c0-9.8,5.5-16,13.6-16
		c4.1,0,7.8,2,10.4,5.3v-16.2h4.7v42.1H401.6z M401.6,433.5v-13.9c-1.7-2.6-5.3-4.9-9.2-4.9c-6.1,0-9.8,5-9.8,11.7
		c0,6.7,3.7,11.7,9.8,11.7C396.1,438.4,399.7,436.1,401.6,433.5z"/>
	<path opacity="0.8" fill="#FFFFFF" d="M413,437.8l2.4-3.4c2,2.3,5.9,4.4,10.1,4.4c4.7,0,7.2-2.1,7.2-5.2c0-7.3-18.9-2.9-18.9-14.2
		c0-4.7,4.1-8.8,11.4-8.8c5.2,0,8.8,2,11.3,4.4l-2.3,3.4c-1.8-2.3-5.2-3.8-9.2-3.8c-4.1,0-6.7,2.1-6.7,4.7c0,6.7,18.9,2.3,18.9,14.2
		c0,5.2-4.1,9.2-12,9.2C420.3,442.5,416.2,441,413,437.8z"/>
	<path opacity="0.8" fill="#FFFFFF" d="M455.1,441.8v-29h2.3v29H455.1z"/>
	<path opacity="0.8" fill="#FFFFFF" d="M462.7,431.4c0-6.1,4.3-11,10.1-11c6.4,0,9.9,5,9.9,11.1v0.6h-17.5c0.2,4.6,3.2,8.4,8.2,8.4
		c2.6,0,5-1.1,6.9-2.9l1.2,1.5c-2.1,2.1-4.7,3.4-8.2,3.4C467.2,442.4,462.7,437.8,462.7,431.4z M472.8,422.2c-4.9,0-7.5,4.3-7.6,7.9
		h15.3C480.4,426.7,478,422.2,472.8,422.2z"/>
	<path opacity="0.8" fill="#FFFFFF" d="M501.5,441.8v-2.4c-1.8,2-4.3,3.1-7.2,3.1c-3.7,0-7.3-2.4-7.3-7s3.7-6.9,7.3-6.9
		c2.9,0,5.3,0.9,7.2,3.1v-4.4c0-3.1-2.4-4.9-5.6-4.9c-2.6,0-4.6,0.9-6.6,3.1l-1.2-1.5c2.1-2.3,4.6-3.5,8.1-3.5c4.3,0,7.6,2,7.6,6.7
		v14.8C503.8,441.8,501.5,441.8,501.5,441.8z M501.5,437.6v-4.6c-1.5-2-3.8-2.9-6.4-2.9c-3.5,0-5.8,2.1-5.8,5.2
		c0,2.9,2.3,5.2,5.8,5.2C497.7,440.5,499.9,439.6,501.5,437.6z"/>
	<path opacity="0.8" fill="#FFFFFF" d="M525.7,441.8v-3.4c-1.5,2.1-4.1,3.8-7.3,3.8c-5.5,0-9.3-4.3-9.3-11c0-6.6,3.8-11,9.3-11
		c3.1,0,5.6,1.5,7.3,4v-11.3h2.3v29h-2.3V441.8z M525.7,436.6v-10.4c-1.2-2-4-3.8-6.9-3.8c-4.6,0-7.3,4-7.3,9c0,5,2.7,9,7.3,9
		C521.8,440.2,524.5,438.6,525.7,436.6z"/>
	<path opacity="0.8" fill="#FFFFFF" d="M532.7,439l1.4-1.7c1.4,1.7,3.8,3.1,6.7,3.1c3.5,0,5.6-1.8,5.6-4.3c0-5.8-13.3-2.4-13.3-10.1
		c0-3.2,2.7-5.8,7.5-5.8c3.7,0,5.9,1.4,7.5,3.1l-1.2,1.7c-1.2-1.7-3.5-2.7-6.3-2.7c-3.2,0-5.2,1.7-5.2,3.8c0,5.2,13.3,2,13.3,10.1
		c0,3.4-2.6,6.1-7.8,6.1C537.5,442.4,534.9,441.3,532.7,439z"/>
	<path opacity="0.8" fill="#FFFFFF" d="M565.2,437.8v-14.9h-3.5v-2h3.5v-5.8h2.3v5.8h4.3v2h-4.3v14.6c0,1.7,0.8,2.9,2.1,2.9
		c1.1,0,1.8-0.5,2.3-1.1l0.9,1.7c-0.8,0.8-1.8,1.4-3.5,1.4C566.6,442.4,565.2,440.7,565.2,437.8z"/>
	<path opacity="0.8" fill="#FFFFFF" d="M575.1,431.4c0-6.1,4-11,10.1-11c6.3,0,10.1,4.9,10.1,11c0,6.1-4,11-10.1,11
		C579.1,442.4,575.1,437.5,575.1,431.4z M592.8,431.4c0-4.6-2.7-9-7.6-9s-7.6,4.3-7.6,9c0,4.7,2.7,9,7.6,9
		C590.1,440.2,592.8,436,592.8,431.4z"/>
	<path fill="#DBC32A" d="M610.2,431.4c0-6.1,4-11,10.2-11c3.7,0,5.8,1.4,7.5,3.5l-1.5,1.4c-1.5-2.1-3.4-2.9-5.8-2.9
		c-4.9,0-7.9,4-7.9,9c0,5,3.1,9,7.9,9c2.3,0,4.3-0.9,5.8-2.9l1.5,1.4c-1.7,2.1-3.8,3.7-7.5,3.7C614.2,442.4,610.2,437.5,610.2,431.4
		z"/>
	<path fill="#DBC32A" d="M632.8,441.8v-29h2.3v29H632.8z"/>
	<path fill="#DBC32A" d="M641.5,415.8c0-0.9,0.8-1.7,1.7-1.7s1.7,0.8,1.7,1.7s-0.8,1.7-1.7,1.7C642.4,417.5,641.5,416.8,641.5,415.8
		z M642.1,441.8v-20.9h2.3v20.9C644.4,441.8,642.1,441.8,642.1,441.8z"/>
	<path fill="#DBC32A" d="M676.3,441.8v-14.6c0-2.9-1.2-4.7-4.3-4.7c-2.3,0-4.9,1.7-5.9,3.5v15.9h-2.3v-14.6c0-2.9-1.2-4.7-4.3-4.7
		c-2.3,0-4.7,1.7-5.9,3.7v15.9h-2.3v-21h2.3v3.2c0.9-1.4,3.7-3.7,6.7-3.7c3.2,0,5,2,5.5,4c1.2-2,4-4,6.9-4c3.8,0,5.8,2.1,5.8,6.4
		v15.1h-2.1V441.8z"/>
	<path fill="#DBC32A" d="M698.8,441.8v-2.4c-1.8,2-4.3,3.1-7.2,3.1c-3.7,0-7.3-2.4-7.3-7s3.7-6.9,7.3-6.9c2.9,0,5.3,0.9,7.2,3.1
		v-4.4c0-3.1-2.4-4.9-5.6-4.9c-2.6,0-4.6,0.9-6.6,3.1l-1.2-1.5c2.1-2.3,4.6-3.5,8.1-3.5c4.3,0,7.6,2,7.6,6.7v14.8
		C701.1,441.8,698.8,441.8,698.8,441.8z M698.8,437.6v-4.6c-1.5-2-3.8-2.9-6.4-2.9c-3.5,0-5.8,2.1-5.8,5.2c0,2.9,2.3,5.2,5.8,5.2
		C695,440.5,697.5,439.6,698.8,437.6z"/>
	<path fill="#DBC32A" d="M708.6,437.8v-14.9h-3.5v-2h3.5v-5.8h2.3v5.8h4.3v2h-4.3v14.6c0,1.7,0.8,2.9,2.1,2.9c1.1,0,1.8-0.5,2.3-1.1
		l0.9,1.7c-0.8,0.8-1.8,1.4-3.5,1.4C710,442.4,708.6,440.7,708.6,437.8z"/>
	<path fill="#DBC32A" d="M718.8,431.4c0-6.1,4.3-11,10.1-11c6.4,0,9.9,5,9.9,11.1v0.6h-17.4c0.2,4.6,3.2,8.4,8.2,8.4
		c2.6,0,5-1.1,6.9-2.9l1.2,1.5c-2.1,2.1-4.7,3.4-8.2,3.4C723.2,442.4,718.8,437.8,718.8,431.4z M728.9,422.2c-4.9,0-7.5,4.3-7.6,7.9
		h15.3C736.5,426.7,734.2,422.2,728.9,422.2z"/>
	<path fill="#DBC32A" d="M754.7,431.4c0-6.1,4-11,10.2-11c3.7,0,5.8,1.4,7.5,3.5l-1.5,1.4c-1.5-2.1-3.4-2.9-5.8-2.9
		c-4.9,0-7.9,4-7.9,9c0,5,3.1,9,7.9,9c2.3,0,4.3-0.9,5.8-2.9l1.5,1.4c-1.7,2.1-3.8,3.7-7.5,3.7C758.8,442.4,754.7,437.5,754.7,431.4
		z"/>
	<path fill="#DBC32A" d="M791.4,441.8v-14.3c0-4-2-5.2-5-5.2c-2.7,0-5.5,1.7-6.9,3.7v15.9h-2.3v-29h2.3v11.3
		c1.5-1.8,4.6-3.7,7.5-3.7c4.3,0,6.6,2,6.6,6.7v14.8h-2.1V441.8z"/>
	<path fill="#DBC32A" d="M814,441.8v-2.4c-1.8,2-4.3,3.1-7.2,3.1c-3.7,0-7.3-2.4-7.3-7s3.7-6.9,7.3-6.9c2.9,0,5.3,0.9,7.2,3.1v-4.4
		c0-3.1-2.4-4.9-5.6-4.9c-2.6,0-4.6,0.9-6.6,3.1l-1.2-1.5c2.1-2.3,4.6-3.5,8.1-3.5c4.3,0,7.6,2,7.6,6.7v14.8
		C816.3,441.8,814,441.8,814,441.8z M814,437.6v-4.6c-1.5-2-3.8-2.9-6.4-2.9c-3.5,0-5.8,2.1-5.8,5.2c0,2.9,2.3,5.2,5.8,5.2
		C810.2,440.5,812.6,439.6,814,437.6z"/>
	<path fill="#DBC32A" d="M837.5,441.8v-14.2c0-4-2-5.2-5-5.2c-2.7,0-5.5,1.7-6.9,3.7v15.9h-2.3v-21h2.3v3.2c1.5-1.8,4.6-3.7,7.5-3.7
		c4.3,0,6.6,2.1,6.6,6.9v14.6h-2.1V441.8z"/>
	<path fill="#DBC32A" d="M846.8,447.1l1.2-1.7c1.8,2.1,3.8,2.9,6.9,2.9c3.8,0,7.2-2,7.2-6.7v-3.4c-1.5,2.1-4.1,4-7.3,4
		c-5.5,0-9.3-4.3-9.3-11c0-6.6,3.8-11,9.3-11c3.1,0,5.6,1.5,7.3,4v-3.4h2.3v20.7c0,6.4-4.3,8.7-9.5,8.7
		C851.5,450.3,849.2,449.7,846.8,447.1z M862.2,436.4v-10.2c-1.2-2-4-3.8-6.9-3.8c-4.6,0-7.3,3.8-7.3,9c0,5,2.7,8.8,7.3,8.8
		C858.2,440.2,861,438.4,862.2,436.4z"/>
	<path fill="#DBC32A" d="M870.3,431.4c0-6.1,4.3-11,10.1-11c6.4,0,9.9,5,9.9,11.1v0.6h-17.5c0.2,4.6,3.2,8.4,8.2,8.4
		c2.6,0,5-1.1,6.9-2.9l1.2,1.5c-2.1,2.1-4.7,3.4-8.2,3.4C874.5,442.4,870.3,437.8,870.3,431.4z M880.3,422.2c-4.9,0-7.5,4.3-7.6,7.9
		H888C887.8,426.7,885.5,422.2,880.3,422.2z"/>
	<path fill="#DBC32A" d="M895.9,447.1l-1.2-1.1c1.4-0.9,2.4-2.6,2.4-4c0,0-0.3,0-0.5,0c-1.1,0-1.8-0.8-1.8-1.8s0.8-1.8,1.8-1.8
		c1.2,0,2.1,1.1,2.1,2.7C898.9,443.6,897.6,445.9,895.9,447.1z"/>
	<path fill="#DBC32A" d="M3.5,491.8v-18.9H0v-2h3.5v-2c0-4.1,2.1-6.6,5.6-6.6c1.1,0,2,0.2,2.7,0.6l-0.8,1.8
		c-0.5-0.3-1.1-0.5-1.8-0.5c-2.4,0-3.7,1.7-3.7,4.6v2h4.3v2H5.8v18.9H3.5z M14.2,491.8v-29h2.3v29H14.2z"/>
	<path fill="#DBC32A" d="M22.3,481.3c0-6.1,4-11,10.1-11c6.3,0,10.1,4.9,10.1,11s-4,11-10.1,11C26.2,492.4,22.3,487.5,22.3,481.3z
		 M40,481.3c0-4.6-2.7-9-7.6-9s-7.6,4.3-7.6,9c0,4.7,2.7,9,7.6,9S40,486,40,481.3z"/>
	<path fill="#DBC32A" d="M47,481.3c0-6.1,4-11,10.1-11c6.3,0,10.1,4.9,10.1,11s-4,11-10.1,11C50.9,492.4,47,487.5,47,481.3z
		 M64.7,481.3c0-4.6-2.7-9-7.6-9s-7.6,4.3-7.6,9c0,4.7,2.7,9,7.6,9S64.7,486,64.7,481.3z"/>
	<path fill="#DBC32A" d="M88.5,491.8v-3.4c-1.5,2.1-4.1,3.8-7.3,3.8c-5.5,0-9.3-4.3-9.3-11c0-6.6,3.8-11,9.3-11c3.1,0,5.6,1.5,7.3,4
		V463h2.3v29h-2.3V491.8z M88.5,486.6v-10.4c-1.2-2-4-3.8-6.9-3.8c-4.6,0-7.3,4-7.3,9s2.7,9,7.3,9C84.5,490.3,87.2,488.6,88.5,486.6
		z"/>
	<path fill="#DBC32A" d="M95.9,489l1.4-1.7c1.4,1.7,3.8,3.1,6.7,3.1c3.5,0,5.6-1.8,5.6-4.3c0-5.8-13.3-2.4-13.3-10.1
		c0-3.2,2.7-5.8,7.5-5.8c3.7,0,5.9,1.4,7.5,3.1l-1.2,1.7c-1.2-1.7-3.5-2.7-6.3-2.7c-3.2,0-5.2,1.7-5.2,3.8c0,5.2,13.3,2,13.3,10.1
		c0,3.4-2.6,6.1-7.8,6.1C100.5,492.4,97.9,491.3,95.9,489z"/>
	<path fill="#DBC32A" d="M117.9,497.1l-1.2-1.1c1.4-0.9,2.4-2.6,2.4-4c0,0-0.3,0-0.5,0c-1.1,0-1.8-0.8-1.8-1.8s0.8-1.8,1.8-1.8
		c1.2,0,2.1,1.1,2.1,2.7C120.9,493.6,119.6,495.9,117.9,497.1z"/>
	<path fill="#DBC32A" d="M153.7,491.8v-3.4c-1.5,2.1-4.1,3.8-7.3,3.8c-5.5,0-9.3-4.3-9.3-11c0-6.6,3.8-11,9.3-11
		c3.1,0,5.6,1.5,7.3,4V463h2.3v29h-2.3V491.8z M153.7,486.6v-10.4c-1.2-2-4-3.8-6.9-3.8c-4.6,0-7.3,4-7.3,9s2.7,9,7.3,9
		C149.8,490.3,152.5,488.6,153.7,486.6z"/>
	<path fill="#DBC32A" d="M163,491.8v-20.9h2.3v3.7c1.8-2.3,4.1-4,7-4v2.3c-0.5-0.2-0.8-0.2-1.1-0.2c-2.1,0-5,2-5.9,3.7v15.3H163
		V491.8z"/>
	<path fill="#DBC32A" d="M175.5,481.3c0-6.1,4-11,10.1-11c6.3,0,10.1,4.9,10.1,11s-4,11-10.1,11
		C179.5,492.4,175.5,487.5,175.5,481.3z M193.4,481.3c0-4.6-2.7-9-7.6-9s-7.6,4.3-7.6,9c0,4.7,2.7,9,7.6,9S193.4,486,193.4,481.3z"
		/>
	<path fill="#DBC32A" d="M215.7,491.8v-3.1c-1.7,2-4.6,3.7-7.5,3.7c-4.3,0-6.6-2-6.6-6.7v-14.8h2.3v14.2c0,4.1,2,5.2,5,5.2
		c2.7,0,5.5-1.7,6.9-3.5v-15.9h2.3v20.9H215.7z"/>
	<path fill="#DBC32A" d="M225,497.1l1.4-1.7c1.8,2.1,3.8,2.9,6.9,2.9c3.8,0,7.2-2,7.2-6.7v-3.4c-1.5,2.1-4.1,4-7.3,4
		c-5.5,0-9.3-4.3-9.3-11c0-6.6,3.8-11,9.3-11c3.1,0,5.6,1.5,7.3,4v-3.4h2.3v20.7c0,6.4-4.3,8.7-9.5,8.7
		C229.7,500.3,227.6,499.7,225,497.1z M240.4,486.5v-10.2c-1.2-2-4-3.8-6.9-3.8c-4.6,0-7.3,3.8-7.3,9c0,5,2.7,8.8,7.3,8.8
		C236.4,490.3,239.1,488.4,240.4,486.5z"/>
	<path fill="#DBC32A" d="M263.9,491.8v-14.3c0-4-2-5.2-5-5.2c-2.7,0-5.5,1.7-6.9,3.7v15.9h-2.3v-29h2.3v11.1
		c1.5-1.8,4.6-3.7,7.5-3.7c4.3,0,6.6,2,6.6,6.7v14.8H263.9z"/>
	<path fill="#DBC32A" d="M273.5,487.8v-14.9H270v-2h3.5v-5.8h2.3v5.8h4.3v2h-4.3v14.6c0,1.7,0.8,2.9,2.1,2.9c1.1,0,1.8-0.5,2.3-1.1
		l0.9,1.7c-0.8,0.8-1.8,1.4-3.5,1.4C274.8,492.4,273.5,490.7,273.5,487.8z"/>
	<path fill="#DBC32A" d="M283.2,489l1.4-1.7c1.4,1.7,3.8,3.1,6.7,3.1c3.5,0,5.6-1.8,5.6-4.3c0-5.8-13.3-2.4-13.3-10.1
		c0-3.2,2.7-5.8,7.5-5.8c3.7,0,5.9,1.4,7.5,3.1l-1.2,1.7c-1.2-1.7-3.5-2.7-6.3-2.7c-3.2,0-5.2,1.7-5.2,3.8c0,5.2,13.3,2,13.3,10.1
		c0,3.4-2.6,6.1-7.8,6.1C288,492.4,285.4,491.3,283.2,489z"/>
	<path fill="#DBC32A" d="M305.2,497.1l-1.2-1.1c1.4-0.9,2.4-2.6,2.4-4c0,0-0.3,0-0.5,0c-1.1,0-1.8-0.8-1.8-1.8s0.8-1.8,1.8-1.8
		c1.2,0,2.1,1.1,2.1,2.7C308.2,493.6,306.9,495.9,305.2,497.1z"/>
	<path fill="#DBC32A" d="M326.4,491.8v-18.9h-3.5v-2h3.5v-2c0-4.1,2.1-6.6,5.6-6.6c1.5,0,2.6,0.3,4,1.5l-1.1,1.5
		c-0.8-0.6-1.5-1.1-2.7-1.1c-2.4,0-3.7,1.7-3.7,4.6v2h4.3v2h-4.3v18.9H326.4z"/>
	<path fill="#DBC32A" d="M350.5,491.8v-2.4c-1.8,2-4.3,3.1-7.2,3.1c-3.7,0-7.3-2.4-7.3-7s3.7-6.9,7.3-6.9c2.9,0,5.3,0.9,7.2,3.1
		v-4.3c0-3.1-2.4-4.9-5.6-4.9c-2.6,0-4.6,0.9-6.6,3.1l-1.2-1.5c2.1-2.3,4.6-3.5,8.1-3.5c4.3,0,7.6,2,7.6,6.7v14.8h-2.3V491.8z
		 M350.5,487.7v-4.6c-1.5-2-3.8-2.9-6.4-2.9c-3.5,0-5.8,2.1-5.8,5.2c0,2.9,2.3,5.2,5.8,5.2C346.7,490.6,349,489.7,350.5,487.7z"/>
	<path fill="#DBC32A" d="M384.6,491.8v-14.6c0-2.9-1.2-4.7-4.3-4.7c-2.3,0-4.9,1.7-5.9,3.5v15.9h-2.3v-14.6c0-2.9-1.2-4.7-4.3-4.7
		c-2.3,0-4.7,1.7-5.9,3.7v15.9h-2.3v-21h2.3v3.2c0.9-1.4,3.7-3.7,6.7-3.7c3.2,0,5,2,5.5,4c1.2-2,4-4,6.9-4c3.8,0,5.8,2.1,5.8,6.4
		v15.1h-2.1V491.8z"/>
	<path fill="#DBC32A" d="M393.3,465.9c0-0.9,0.8-1.7,1.7-1.7s1.7,0.8,1.7,1.7s-0.8,1.7-1.7,1.7S393.3,466.8,393.3,465.9z M394,491.8
		v-20.9h2.3v20.9H394z"/>
	<path fill="#DBC32A" d="M417.3,491.8v-14.2c0-4-2-5.2-5-5.2c-2.7,0-5.5,1.7-6.9,3.7v15.9h-2.3v-21h2.3v3.2c1.5-1.8,4.6-3.7,7.5-3.7
		c4.3,0,6.6,2.1,6.6,6.9v14.6h-2.1V491.8z"/>
	<path fill="#DBC32A" d="M425.4,481.3c0-6.1,4.3-11,10.1-11c6.4,0,9.9,5,9.9,11.1v0.6h-17.5c0.2,4.6,3.2,8.4,8.2,8.4
		c2.6,0,5-1.1,6.9-2.9l1.2,1.5c-2.1,2.1-4.7,3.4-8.2,3.4C429.8,492.4,425.4,487.8,425.4,481.3z M435.4,472.3c-4.9,0-7.5,4.3-7.6,7.9
		h15.3C443.1,476.7,440.6,472.3,435.4,472.3z"/>
	<path fill="#DBC32A" d="M451,497.1l-1.2-1.1c1.4-0.9,2.4-2.6,2.4-4c0,0-0.3,0-0.5,0c-1.1,0-1.8-0.8-1.8-1.8s0.8-1.8,1.8-1.8
		c1.2,0,2.1,1.1,2.1,2.7C454.2,493.6,452.7,495.9,451,497.1z"/>
	<path opacity="0.8" fill="#FFFFFF" d="M484.9,491.8v-2.4c-1.8,2-4.3,3.1-7.2,3.1c-3.7,0-7.3-2.4-7.3-7s3.7-6.9,7.3-6.9
		c2.9,0,5.3,0.9,7.2,3.1v-4.3c0-3.1-2.4-4.9-5.6-4.9c-2.6,0-4.6,0.9-6.6,3.1l-1.2-1.5c2.1-2.3,4.6-3.5,8.1-3.5c4.3,0,7.6,2,7.6,6.7
		v14.8h-2.3V491.8z M484.9,487.7v-4.6c-1.5-2-3.8-2.9-6.4-2.9c-3.5,0-5.8,2.1-5.8,5.2c0,2.9,2.3,5.2,5.8,5.2
		C481,490.6,483.3,489.7,484.9,487.7z"/>
	<path opacity="0.8" fill="#FFFFFF" d="M508.2,491.8v-14.2c0-4-2-5.2-5-5.2c-2.7,0-5.5,1.7-6.9,3.7v15.9h-2.1v-21h2.3v3.2
		c1.5-1.8,4.6-3.7,7.5-3.7c4.3,0,6.6,2.1,6.6,6.9v14.6h-2.3V491.8z"/>
	<path opacity="0.8" fill="#FFFFFF" d="M532.9,491.8v-3.4c-1.5,2.1-4.1,3.8-7.3,3.8c-5.5,0-9.3-4.3-9.3-11c0-6.6,3.8-11,9.3-11
		c3.1,0,5.6,1.5,7.3,4V463h2.3v29h-2.3V491.8z M532.9,486.6v-10.4c-1.2-2-4-3.8-6.9-3.8c-4.6,0-7.3,4-7.3,9s2.7,9,7.3,9
		C528.9,490.3,531.7,488.6,532.9,486.6z"/>
	<path fill="#DBC32A" d="M571.5,491.8l-5.8-17.8l-5.9,17.8h-2.1l-6.9-20.9h2.4l5.5,17.8l5.9-17.8h2l5.9,17.8l5.5-17.8h2.4l-6.9,20.9
		H571.5z"/>
	<path fill="#DBC32A" d="M583.4,481.3c0-6.1,4-11,10.1-11c6.3,0,10.1,4.9,10.1,11s-4,11-10.1,11
		C587.3,492.4,583.4,487.5,583.4,481.3z M601.2,481.3c0-4.6-2.7-9-7.6-9s-7.6,4.3-7.6,9c0,4.7,2.7,9,7.6,9
		C598.5,490.3,601.2,486,601.2,481.3z"/>
	<path fill="#DBC32A" d="M609.5,491.8v-20.9h2.3v3.7c1.8-2.3,4.1-4,7-4v2.3c-0.5-0.2-0.8-0.2-1.1-0.2c-2.1,0-5,2-5.9,3.7v15.3h-2.3
		V491.8z"/>
	<path fill="#DBC32A" d="M623.2,491.8v-29h2.3v29H623.2z"/>
	<path fill="#DBC32A" d="M647.9,491.8v-3.4c-1.5,2.1-4.1,3.8-7.3,3.8c-5.5,0-9.3-4.3-9.3-11c0-6.6,3.8-11,9.3-11
		c3.1,0,5.6,1.5,7.3,4V463h2.3v29h-2.3V491.8z M647.9,486.6v-10.4c-1.2-2-4-3.8-6.9-3.8c-4.6,0-7.3,4-7.3,9s2.7,9,7.3,9
		C643.9,490.3,646.7,488.6,647.9,486.6z"/>
	<path fill="#DBC32A" d="M675.2,491.8l-5.8-17.8l-5.9,17.8h-2.1l-6.9-20.9h2.4l5.5,17.8l5.9-17.8h2l5.9,17.8l5.5-17.8h2.4l-6.9,20.9
		H675.2z"/>
	<path fill="#DBC32A" d="M687.7,465.9c0-0.9,0.8-1.7,1.7-1.7c0.9,0,1.7,0.8,1.7,1.7s-0.8,1.7-1.7,1.7
		C688.6,467.5,687.7,466.8,687.7,465.9z M688.3,491.8v-20.9h2.3v20.9H688.3z"/>
	<path fill="#DBC32A" d="M713,491.8v-3.4c-1.5,2.1-4.1,3.8-7.3,3.8c-5.5,0-9.3-4.3-9.3-11c0-6.6,3.8-11,9.3-11c3.1,0,5.6,1.5,7.3,4
		V463h2.3v29H713V491.8z M713,486.6v-10.4c-1.2-2-4-3.8-6.9-3.8c-4.6,0-7.3,4-7.3,9s2.7,9,7.3,9C709,490.3,711.8,488.6,713,486.6z"
		/>
	<path fill="#DBC32A" d="M721.1,481.3c0-6.1,4.3-11,10.1-11c6.4,0,9.9,5,9.9,11.1v0.6h-17.5c0.2,4.6,3.2,8.4,8.2,8.4
		c2.6,0,5-1.1,6.9-2.9l1.2,1.5c-2.1,2.1-4.7,3.4-8.2,3.4C725.5,492.4,721.1,487.8,721.1,481.3z M731.2,472.3c-4.9,0-7.5,4.3-7.6,7.9
		h15.3C738.8,476.7,736.5,472.3,731.2,472.3z"/>
	<path fill="#DBC32A" d="M760.4,488.4v11.3h-2.3v-29h2.3v3.4c1.5-2.1,4.1-3.8,7.3-3.8c5.6,0,9.3,4.3,9.3,11s-3.8,11-9.3,11
		C764.7,492.4,762.1,490.9,760.4,488.4z M774.6,481.3c0-5-2.6-9-7.3-9c-2.9,0-5.6,1.7-6.9,3.7v10.4c1.2,2,4,3.8,6.9,3.8
		C772,490.3,774.6,486.5,774.6,481.3z"/>
	<path fill="#DBC32A" d="M781.5,481.3c0-6.1,4-11,10.1-11c6.3,0,10.1,4.9,10.1,11s-4,11-10.1,11
		C785.5,492.4,781.5,487.5,781.5,481.3z M799.3,481.3c0-4.6-2.7-9-7.6-9s-7.6,4.3-7.6,9c0,4.7,2.7,9,7.6,9S799.3,486,799.3,481.3z"
		/>
	<path fill="#DBC32A" d="M813.2,491.8l-8.8-20.9h2.4l7.6,18.3l7.5-18.3h2.6l-8.8,20.9H813.2z"/>
	<path fill="#DBC32A" d="M827.1,481.3c0-6.1,4.3-11,10.1-11c6.4,0,9.9,5,9.9,11.1v0.6h-17.4c0.2,4.6,3.2,8.4,8.2,8.4
		c2.6,0,5-1.1,6.9-2.9l1.2,1.5c-2.1,2.1-4.7,3.4-8.2,3.4C831.5,492.4,827.1,487.8,827.1,481.3z M837.2,472.3c-4.9,0-7.5,4.3-7.6,7.9
		h15.3C844.8,476.7,842.5,472.3,837.2,472.3z"/>
	<path fill="#DBC32A" d="M852.9,491.8v-20.9h2.3v3.7c1.8-2.3,4.1-4,7-4v2.3c-0.5-0.2-0.8-0.2-1.1-0.2c-2.1,0-5,2-5.9,3.7v15.3h-2.3
		V491.8z"/>
	<path fill="#DBC32A" d="M867.1,487.8v-14.9h-3.5v-2h3.5v-5.8h2.3v5.8h4.3v2h-4.3v14.6c0,1.7,0.8,2.9,2.1,2.9c1.1,0,1.8-0.5,2.3-1.1
		l0.9,1.7c-0.8,0.8-1.8,1.4-3.5,1.4C868.4,492.4,867.1,490.7,867.1,487.8z"/>
	<path fill="#DBC32A" d="M877.6,497.9c0.5,0.2,1.4,0.3,1.8,0.3c1.4,0,2.3-0.6,3.2-2.6l1.7-3.7l-8.8-21h2.4l7.6,18.3l7.5-18.3h2.6
		l-10.8,25.5c-1.1,2.6-2.9,4-5.3,4c-0.8,0-1.7-0.2-2.3-0.3L877.6,497.9z"/>
	<path fill="#DBC32A" d="M896.2,490.3c0-1.1,0.9-1.8,2-1.8s2,0.9,2,1.8c0,1.1-0.9,2-2,2S896.2,491.3,896.2,490.3z"/>
</g>
</svg>
